<?xml version="1.0" encoding="UTF-8" standalone="no"?>
<!-- Created with Inkscape (http://www.inkscape.org/) -->
<svg
   xmlns:dc="http://purl.org/dc/elements/1.1/"
   xmlns:cc="http://creativecommons.org/ns#"
   xmlns:rdf="http://www.w3.org/1999/02/22-rdf-syntax-ns#"
   xmlns:svg="http://www.w3.org/2000/svg"
   xmlns="http://www.w3.org/2000/svg"
   xmlns:sodipodi="http://sodipodi.sourceforge.net/DTD/sodipodi-0.dtd"
   xmlns:inkscape="http://www.inkscape.org/namespaces/inkscape"
   width="359"
   height="457"
   id="svg3396"
   sodipodi:version="0.32"
   inkscape:version="0.46"
   version="1.0"
   sodipodi:docbase="C:\Documents and Settings\ebrenc\Escritorio"
   sodipodi:docname="Escut_de_Móra_la_Nova.svg"
   inkscape:output_extension="org.inkscape.output.svg.inkscape">
  <defs
     id="defs3398">
    <inkscape:perspective
       sodipodi:type="inkscape:persp3d"
       inkscape:vp_x="0 : 228.5 : 1"
       inkscape:vp_y="0 : 1000 : 0"
       inkscape:vp_z="359 : 228.5 : 1"
       inkscape:persp3d-origin="179.5 : 152.33333 : 1"
       id="perspective309" />
    <clipPath
       id="clp3"
       clip-rule="nonzero">
      <path
         d="M 311.99,315.36 C 335.56,312.57 359.53,301.65 370.85,278.61 C 379.36,257.7 371.91,234 356.73,218.15 C 343.55,206.56 327.97,200.84 311.33,197.78 L 311.99,314.7 L 311.99,315.36"
         id="path252" />
    </clipPath>
  </defs>
  <sodipodi:namedview
     id="base"
     pagecolor="#ffffff"
     bordercolor="#666666"
     borderopacity="1.0"
     gridtolerance="10000"
     guidetolerance="10"
     objecttolerance="10"
     inkscape:pageopacity="0.0"
     inkscape:pageshadow="2"
     inkscape:zoom="1.1881838"
     inkscape:cx="179.5"
     inkscape:cy="228.5"
     inkscape:document-units="px"
     inkscape:current-layer="capa1"
     inkscape:window-width="1280"
     inkscape:window-height="750"
     inkscape:window-x="-8"
     inkscape:window-y="-8"
     showgrid="false" />
  <metadata
     id="metadata3401">
    <rdf:RDF>
      <cc:Work
         rdf:about="">
        <dc:format>image/svg+xml</dc:format>
        <dc:type
           rdf:resource="http://purl.org/dc/dcmitype/StillImage" />
      </cc:Work>
    </rdf:RDF>
  </metadata>
  <g
     inkscape:label="Capa 1"
     inkscape:groupmode="layer"
     id="capa1"
     transform="translate(-195.5,-302.86218)">
    <g
       id="g3707"
       transform="translate(4.0639524e-7,-0.9999954)">
      <g
         transform="matrix(0,1.2498363,1.2498363,0,54.786474,171.56264)"
         class=""
         id="q4">
        <g
           transform="translate(119.025,268.352)"
           id="xfrm5">
          <path
             style="fill:#221f1f;fill-rule:nonzero;stroke:none"
             id="path26"
             class="ps03"
             d="M 0,0 C 1.867,0.938 4.66,0.533 5.726,3.199 C 5.332,6.131 5.993,8.658 8.253,10.524 C 10.386,12.656 14.245,13.723 16.911,11.857 C 19.705,10.396 22.637,11.857 26.102,11.857 C 28.235,12.785 30.495,12.251 32.5,11.452 C 35.688,9.458 35.422,5.598 37.693,2.932 C 40.22,2.538 43.013,1.333 44.08,-1.322 C 46.478,-5.054 43.152,-8.786 45.679,-12.518 C 40.081,-17.305 48.878,-29.695 37.287,-29.429 C 35.56,-31.817 36.093,-35.954 32.5,-36.754 C 26.902,-37.682 19.982,-33.15 15.312,-37.682 C 12.785,-38.087 10.791,-37.82 8.925,-36.082 C 6.259,-34.355 6.664,-31.284 5.726,-28.757 C 1.738,-28.096 -2.399,-26.763 -3.187,-22.37 C -2.527,-17.305 -3.187,-11.985 -3.86,-7.059 C -3.987,-4.126 -2.932,-1.066 0,0" />
        </g>
      </g>
      <g
         transform="matrix(0,1.2498363,1.2498363,0,54.786474,171.56264)"
         class=""
         id="q6">
        <g
           transform="translate(119.964,267.03)"
           id="xfrm7">
          <path
             style="fill:#bf94c4;fill-rule:nonzero;stroke:none"
             id="path30"
             class="ps04"
             d="M 0,0 L 1.589,0 C 1.194,-1.866 3.86,-5.203 0.661,-5.737 C -1.333,-6.398 -2.271,-4.67 -2.271,-3.199 C -2.271,-1.866 -1.205,-0.533 0,0" />
        </g>
      </g>
      <g
         transform="matrix(0,1.2498363,1.2498363,0,54.786474,171.56264)"
         class=""
         id="q8">
        <g
           transform="translate(122.758,247.848)"
           id="xfrm9">
          <path
             style="fill:#bf94c4;fill-rule:nonzero;stroke:none"
             id="path34"
             class="ps04"
             d="M 0,0 C 1.866,-0.928 0.661,-3.199 1.066,-4.798 C 0.128,-5.864 -1.599,-5.331 -2.527,-4.798 C -3.86,-3.86 -4.126,-2.527 -4.393,-1.194 C -4.126,1.866 -1.727,-0.661 0,0" />
        </g>
      </g>
      <g
         transform="matrix(0,1.2498363,1.2498363,0,54.786474,171.56264)"
         class=""
         id="q10">
        <g
           transform="translate(122.225,259.694)"
           id="xfrm11">
          <path
             style="fill:#bf94c4;fill-rule:nonzero;stroke:none"
             id="path38"
             class="ps04"
             d="M 0,0 C 1.599,-0.522 3.732,-1.727 3.732,-3.86 C 2.666,-5.459 2.793,-7.72 0.533,-8.647 C -1.728,-8.914 -2.665,-6.92 -3.593,-5.459 C -3.732,-3.06 -2.261,-0.789 0,0" />
        </g>
      </g>
      <g
         transform="matrix(0,1.2498363,1.2498363,0,54.786474,171.56264)"
         class=""
         id="q12">
        <g
           transform="translate(127.545,271.551)"
           id="xfrm13">
          <path
             style="fill:#bf94c4;fill-rule:nonzero;stroke:none"
             id="path42"
             class="ps04"
             d="M 0,0 C 2.133,0.139 3.998,0 5.204,-1.866 C 3.465,-3.732 6.131,-5.726 4.531,-7.325 C 3.199,-8.519 0.938,-9.191 -0.533,-7.986 C -2.793,-6.792 -2.793,-4.393 -2.122,-2.527 C -1.46,-1.727 -1.194,-0.394 0,0" />
        </g>
      </g>
      <g
         transform="matrix(0,1.2498363,1.2498363,0,54.786474,171.56264)"
         class=""
         id="q14">
        <g
           transform="translate(131.416,279.804)"
           id="xfrm15">
          <path
             style="fill:#bf94c4;fill-rule:nonzero;stroke:none"
             id="path46"
             class="ps04"
             d="M 0,0 C 1.461,0.533 2.26,-0.661 3.188,-1.589 C 3.455,-6.526 -0.405,-4.926 -3.871,-5.726 C -6.259,-3.188 -2.538,-0.267 0,0" />
        </g>
      </g>
      <g
         transform="matrix(0,1.2498363,1.2498363,0,54.786474,171.56264)"
         class=""
         id="q16">
        <g
           transform="translate(129.145,239.595)"
           id="xfrm17">
          <path
             style="fill:#bf94c4;fill-rule:nonzero;stroke:none"
             id="path50"
             class="ps04"
             d="M 0,0 C 3.07,0.266 6.525,0.661 6.397,-3.465 C 6.792,-5.331 4.531,-6.792 3.199,-7.325 C 1.599,-8.264 -0.395,-7.197 -1.194,-5.726 C -1.322,-3.604 -1.322,-1.472 0,0" />
        </g>
      </g>
      <g
         transform="matrix(0,1.2498363,1.2498363,0,54.786474,171.56264)"
         class=""
         id="q18">
        <g
           transform="translate(130.211,250.108)"
           id="xfrm19">
          <path
             style="fill:#bf94c4;fill-rule:nonzero;stroke:none"
             id="path54"
             class="ps04"
             d="M 0,0 C 1.471,0 2.804,-0.533 3.732,-1.855 C 4.927,-4.126 3.337,-6.653 1.205,-7.325 C -0.661,-7.848 -1.994,-6.259 -2.26,-4.788 C -2.932,-2.655 -1.333,-1.066 0,0" />
        </g>
      </g>
      <g
         transform="matrix(0,1.2498363,1.2498363,0,54.786474,171.56264)"
         class=""
         id="q20">
        <g
           transform="translate(131.149,259.033)"
           id="xfrm21">
          <path
             style="fill:#bf94c4;fill-rule:nonzero;stroke:none"
             id="path58"
             class="ps04"
             d="M 0,0 L 3.188,-5.993 L -0.672,-5.054 C -0.405,-3.327 -1.205,-1.194 0,0" />
        </g>
      </g>
      <g
         transform="matrix(0,1.2498363,1.2498363,0,54.786474,171.56264)"
         class=""
         id="q22">
        <g
           transform="translate(137.803,262.232)"
           id="xfrm23">
          <path
             style="fill:#bf94c4;fill-rule:nonzero;stroke:none"
             id="path62"
             class="ps04"
             d="M 0,0 C 2.271,0 4.798,-0.8 5.459,-3.199 C 6.13,-5.193 4.659,-7.059 2.932,-7.592 C 0.533,-8.253 -1.194,-6.931 -2.261,-5.065 C -2.527,-2.932 -1.994,-0.8 0,0" />
        </g>
      </g>
      <g
         transform="matrix(0,1.2498363,1.2498363,0,54.786474,171.56264)"
         class=""
         id="q24">
        <g
           transform="translate(142.601,251.441)"
           id="xfrm25">
          <path
             style="fill:#bf94c4;fill-rule:nonzero;stroke:none"
             id="path66"
             class="ps04"
             d="M 0,0 C -0.533,-1.599 1.599,-7.592 -3.199,-6.12 C -5.865,-5.193 -4.532,-1.599 -6.664,0 C -5.193,0 -1.866,0 0,0" />
        </g>
      </g>
      <g
         transform="matrix(0,1.2498363,1.2498363,0,54.786474,171.56264)"
         class=""
         id="q26">
        <g
           transform="translate(139.136,278.215)"
           id="xfrm27">
          <path
             style="fill:#bf94c4;fill-rule:nonzero;stroke:none"
             id="path70"
             class="ps04"
             d="M 0,0 C 2.399,0.395 4.926,-0.8 5.726,-3.199 C 6.13,-5.736 3.998,-7.059 2.527,-8.263 C 0.533,-9.063 -1.867,-7.059 -2.261,-5.065 C -1.867,-3.199 -1.867,-0.938 0,0" />
        </g>
      </g>
      <path
         style="fill:#bf94c4;fill-rule:nonzero;stroke:none"
         id="path72"
         class="ps04"
         d="M 386.19307,343.46513 L 386.19307,349.45184 L 387.86785,349.45184 L 387.86785,343.46513 L 386.19307,343.46513 z " />
      <g
         transform="matrix(0,1.2498363,1.2498363,0,54.786474,171.56264)"
         style="fill:#bf94c4;fill-rule:nonzero;stroke:none"
         class="ps04"
         id="q28">
        <g
           transform="translate(140.735,242.122)"
           id="xfrm29">
          <path
             style="fill:#bf94c4;fill-rule:nonzero;stroke:none"
             id="path76"
             class="ps04"
             d="M 0,0 C 2.666,1.727 4.66,-1.333 5.726,-3.199 C 5.46,-5.193 3.86,-6.92 2.261,-7.986 C 0,-8.392 -1.46,-6.259 -2.527,-4.798 C -3.06,-2.666 -2.004,-0.533 0,0" />
        </g>
      </g>
      <g
         transform="matrix(0,1.2498363,1.2498363,0,54.786474,171.56264)"
         style="fill:#bf94c4;fill-rule:nonzero;stroke:none"
         class="ps04"
         id="q30">
        <g
           transform="translate(147.133,250.78)"
           id="xfrm31">
          <path
             style="fill:#bf94c4;fill-rule:nonzero;stroke:none"
             id="path80"
             class="ps04"
             d="M 0,0 C 1.589,1.461 3.721,0.8 5.32,0 C 7.581,-1.205 7.453,-3.327 5.992,-4.798 C 3.988,-6.792 1.994,-9.458 -0.672,-7.059 C -3.732,-5.193 -1.599,-1.738 0,0" />
        </g>
      </g>
      <g
         transform="matrix(0,1.2498363,1.2498363,0,54.786474,171.56264)"
         style="fill:#bf94c4;fill-rule:nonzero;stroke:none"
         class="ps04"
         id="q32">
        <g
           transform="translate(148.06,259.033)"
           id="xfrm33">
          <path
             style="fill:#bf94c4;fill-rule:nonzero;stroke:none"
             id="path84"
             class="ps04"
             d="M 0,0 L 3.465,0 C 3.988,-3.465 0.927,-4.798 -1.866,-4.126 C -1.6,-2.527 -2.26,-0.128 0,0" />
        </g>
      </g>
      <g
         transform="matrix(0,1.2498363,1.2498363,0,54.786474,171.56264)"
         style="fill:#bf94c4;fill-rule:nonzero;stroke:none"
         class="ps04"
         id="q34">
        <g
           transform="translate(148.988,270.218)"
           id="xfrm35">
          <path
             style="fill:#bf94c4;fill-rule:nonzero;stroke:none"
             id="path88"
             class="ps04"
             d="M 0,0 C 2.005,0.533 3.465,-0.533 4.137,-2.133 C 4.532,-3.86 3.86,-5.587 2.538,-6.387 C 0.533,-7.059 -1.994,-5.992 -2.527,-3.721 C -2.399,-2.261 -1.727,-0.266 0,0" />
        </g>
      </g>
      <g
         transform="matrix(0,1.2498363,1.2498363,0,54.786474,171.56264)"
         style="fill:#bf94c4;fill-rule:nonzero;stroke:none"
         class="ps04"
         id="q36">
        <g
           transform="translate(151.259,240.523)"
           id="xfrm37">
          <path
             style="fill:#bf94c4;fill-rule:nonzero;stroke:none"
             id="path92"
             class="ps04"
             d="M 0,0 C 0.928,0 1.866,-0.928 1.866,-1.866 C 2.122,-3.732 1.589,-5.321 0.661,-6.653 C -0.533,-7.325 -2.399,-8.391 -3.465,-7.059 C -1.866,-4.788 -4.531,0.139 0,0" />
        </g>
      </g>
      <g
         transform="matrix(0,1.2498363,1.2498363,0,54.786474,171.56264)"
         style="fill:#bf94c4;fill-rule:nonzero;stroke:none"
         class="ps04"
         id="q38">
        <g
           transform="translate(148.988,278.215)"
           id="xfrm39">
          <path
             style="fill:#bf94c4;fill-rule:nonzero;stroke:none"
             id="path96"
             class="ps04"
             d="M 0,0 C 1.6,0.395 1.867,-1.333 2.538,-2.133 C 2.666,-3.071 2.538,-3.999 1.6,-4.137 C -0.927,-4.937 0.405,-1.866 -1.194,-1.205 C -0.799,-0.8 -1.066,0.395 0,0" />
        </g>
      </g>
      <g
         transform="matrix(0,1.2498363,1.2498363,0,54.786474,171.56264)"
         style="fill:#bf94c4;fill-rule:nonzero;stroke:none"
         class="ps04"
         id="q40">
        <g
           transform="translate(156.313,259.033)"
           id="xfrm41">
          <path
             style="fill:#bf94c4;fill-rule:nonzero;stroke:none"
             id="path100"
             class="ps04"
             d="M 0,0 C 2.005,-0.267 4.266,-0.267 5.193,-2.527 C 5.332,-4.66 3.998,-7.325 1.6,-7.325 C -0.128,-7.858 -1.46,-6.387 -1.866,-5.054 C -2.132,-2.932 -1.599,-0.928 0,0" />
        </g>
      </g>
      <g
         transform="matrix(0,1.2498363,1.2498363,0,54.786474,171.56264)"
         style="fill:#bf94c4;fill-rule:nonzero;stroke:none"
         class="ps04"
         id="q42">
        <g
           transform="translate(157.646,249.181)"
           id="xfrm43">
          <path
             style="fill:#bf94c4;fill-rule:nonzero;stroke:none"
             id="path104"
             class="ps04"
             d="M 0,0 C 1.205,-0.267 2.794,-0.405 3.199,-1.866 C 3.732,-4.265 2.4,-6.259 0.672,-7.325 L -2.932,-7.059 C -2.399,-4.532 -1.461,-2.132 0,0" />
        </g>
      </g>
      <g
         transform="matrix(0,1.2498363,1.2498363,0,54.786474,171.56264)"
         style="fill:#bf94c4;fill-rule:nonzero;stroke:none"
         class="ps04"
         id="q44">
        <g
           transform="translate(159.511,267.691)"
           id="xfrm45">
          <path
             style="fill:#bf94c4;fill-rule:nonzero;stroke:none"
             id="path108"
             class="ps04"
             d="M 0,0 C 0.661,-1.727 2.932,-2.932 1.6,-5.065 C 0,-6.526 -1.993,-5.065 -3.86,-5.065 C -2.26,-3.465 -3.06,1.194 0,0" />
        </g>
      </g>
      <g
         transform="matrix(0,1.2498363,1.2498363,0,54.786474,171.56264)"
         style="fill:#bf94c4;fill-rule:nonzero;stroke:none"
         class="ps04"
         id="q46">
        <g
           transform="translate(174.29,263.298)"
           id="xfrm47">
          <path
             style="fill:#221f1f;fill-rule:nonzero;stroke:none"
             d="M 178.5625 77.3125 C 175.62083 77.327673 172.77462 81.719503 169.90625 82.71875 C 136.94932 105.01458 86.335464 112.48813 51.71875 88.6875 C 51.043838 92.859454 48.381163 96.203021 47.71875 100.1875 C 37.907535 131.1447 9.9505472 155.59343 14.125 191.375 C 15.274849 201.52992 23.076175 211.54433 32.0625 216.03125 L 28.90625 221.6875 C 28.081358 236.66054 23.911365 250.30777 15.25 261.96875 C 17.587194 263.64353 20.425371 264.13129 23.25 264.46875 C 26.91202 266.29351 33.412585 260.1197 34.0625 267.28125 C 22.751481 281.91683 28.411038 302.08318 17.25 316.71875 C 22.074368 321.21816 29.075653 318.56237 34.0625 317.5625 L 34.0625 320.375 C 33.725044 325.03689 39.412479 325.04435 39.25 329.53125 C 37.925174 335.53046 36.25686 343.34441 40.90625 348.34375 C 42.905988 351.50584 37.087585 351.83162 37.75 354.65625 C 37.262564 361.65533 52.048955 365.00705 44.0625 371.15625 C 48.224455 375.14323 53.563195 377.95654 58.875 380.28125 L 57.21875 383.46875 C 60.88077 387.29325 64.683087 392.2878 69.1875 394.625 C 69.347479 397.27465 66.18737 395.93149 65.1875 397.78125 C 69.011999 403.60549 75.343176 404.42544 80.5 407.75 C 80.5 410.08719 78.839888 411.56901 78 413.40625 L 80.84375 415.75 C 89.332638 420.73685 102.31356 420.58052 110.46875 415.09375 L 119.125 415.40625 C 121.45719 416.5686 125.95745 415.9255 125.625 419.75 C 129.7957 429.57371 139.75133 433.71871 149.90625 433.40625 C 155.73049 439.23049 165.88225 437.38739 173.53125 436.5625 C 177.52948 439.23715 180.88061 443.7127 185.53125 445.375 C 189.70195 443.53774 193.50796 440.88704 197 437.375 C 210.81944 441.71193 222.13763 433.05528 232.625 425.71875 C 238.94167 420.56942 238.95866 410.26852 247.78125 408.59375 C 251.77948 408.59375 255.77915 408.44398 258.9375 410.28125 C 269.42488 413.10588 281.22601 412.76762 288.875 404.28125 C 293.36566 400.28177 287.21105 401.28087 285.71875 398.28125 C 293.36775 396.29401 301.21434 391.78655 305.71875 384.625 C 303.54653 379.63815 311.20904 379.9557 313.375 375.78125 C 314.53735 372.46918 321.68677 367.98089 316.1875 365.15625 C 321.34932 361.49423 326.85658 356.84925 329.34375 351.1875 C 325.85671 347.363 330.83117 344.02446 330.15625 339.875 C 329.66881 336.87539 326.32477 337.51859 324.5 336.34375 C 329.16189 328.3573 320.701 319.54286 328.1875 312.71875 C 329.18737 312.71875 330.00636 313.55005 330.84375 313.875 C 335.34316 314.04998 340.96922 314.38076 344.46875 310.71875 C 339.29443 306.21934 337.50595 300.23048 335.34375 294.40625 C 331.00682 284.42006 336.34867 270.62405 326.1875 263.3125 L 326.5 256.46875 C 328.83719 250.96947 333.66928 256.95592 337.65625 254.46875 C 340.48088 253.13143 344.65007 252.637 345.3125 248.8125 C 341.98794 243.98813 336.50608 240.16175 335.34375 234.5 C 332.16917 225.17622 332.50533 214.1953 325.34375 206.875 C 326.18114 202.05063 332.16915 200.71325 335.34375 196.875 C 345.49242 185.89519 347.64916 167.25448 341.3125 153.78125 C 329.17659 132.31156 317.0239 110.51578 308.53125 87.875 C 289.39376 100.36211 265.58944 104.012 242.28125 100.1875 C 223.47746 97.202891 204.51288 94.526324 188.375 85.53125 L 181.53125 79.03125 C 180.53169 77.781726 179.54306 77.307442 178.5625 77.3125 z M 293.71875 198.53125 C 299.04931 203.5281 305.71844 207.03263 312.875 208.03125 C 305.87842 221.51824 309.35744 239.17159 299.375 251.3125 C 302.70705 253.31099 307.86175 252.30246 311.6875 251.96875 C 312.52738 251.30258 313.85763 251.79748 314.84375 251.625 C 314.5238 256.46186 315.19533 259.64798 317.6875 263.3125 C 305.53284 275.45342 312.03365 294.593 301.71875 307.90625 C 305.21079 311.06459 311.01182 312.22346 315.34375 309.90625 C 313.344 313.55701 317.68599 315.71805 315.6875 319.875 C 312.68788 324.54065 310.1875 329.36827 310.1875 335.1875 C 305.85682 333.03777 303.04103 338.85661 301.375 341.53125 C 300.37513 343.01855 300.0548 345.01887 298.5625 345.84375 C 292.07209 345.68128 289.40474 353.83189 287.40625 358.65625 C 281.582 359.81859 280.73706 366.98181 277.40625 371.15625 C 275.74023 370.65631 274.91616 369.64983 274.25 368.3125 C 262.10909 376.31144 260.92417 390.79526 254.59375 402.28125 C 251.60914 404.9434 247.95581 403.4563 244.625 403.78125 C 241.46667 399.94424 237.13687 397.11245 232.3125 396.625 C 223.65114 400.77446 214.81863 404.7687 204.34375 404.28125 C 202.34526 395.11993 205.83574 386.46784 211.5 379.46875 C 229.63763 363.33336 255.59988 366.15419 273.75 350.34375 C 299.04418 328.86906 308.03902 294.93352 300.5625 264.46875 C 298.23031 242.99907 293.55877 220.99956 293.71875 198.53125 z M 62.53125 209.375 C 62.371271 223.86061 59.541164 238.16692 58.875 252.8125 C 46.894069 244.81604 55.875183 227.35619 47.71875 217.375 C 52.889323 215.20279 58.200568 213.86566 62.53125 209.375 z M 47 261.9375 C 48.87329 261.84347 50.99556 262.78125 52.875 262.78125 L 58.53125 262.46875 C 56.199055 278.28667 57.372915 296.40205 60.53125 311.875 C 48.045384 301.89255 53.042988 284.44459 47.21875 271.625 C 45.380242 268.29295 41.220524 266.13327 45.21875 262.46875 C 45.761804 262.13535 46.37557 261.96884 47 261.9375 z M 60.875 314.71875 C 67.539126 332.36143 81.338582 351.33506 99.15625 361.15625 C 114.8017 371.64489 135.59464 369.48993 151.90625 378.3125 C 159.39651 384.96162 163.89621 392.77256 163.5625 402.59375 C 153.74129 404.08606 143.59255 400.92596 134.4375 398.59375 C 130.94545 398.92621 127.43737 401.26171 126.4375 404.59375 C 125.93131 408.41948 123.95568 411.41991 119.625 410.59375 L 117.125 410.25 C 116.63256 398.92148 108.48119 388.45312 98.5 383.46875 C 96.66024 377.64575 93.824244 371.8095 88 367.8125 L 84.84375 369.46875 C 81.684163 364.80436 79.681766 358.82963 74.03125 355.84375 L 71.6875 357.5 C 69.195325 353.34181 65.859455 348.35094 61.6875 345.84375 C 61.367541 341.84678 61.216977 337.34599 57.21875 335.1875 C 55.060282 333.85391 53.377218 336.03375 51.21875 335.875 C 49.885175 331.71556 43.396337 330.70184 44.0625 325.53125 C 46.220967 323.87773 46.068815 321.37724 46.5625 319.21875 C 51.893053 319.04501 56.876775 318.36954 60.875 314.71875 z "
             transform="matrix(0,0.8001048,0.8001048,0,-68.436509,-150.71244)"
             id="path112" />
        </g>
      </g>
      <g
         transform="matrix(0,1.2498363,1.2498363,0,54.786474,171.56264)"
         style="fill:#bf94c4;fill-rule:nonzero;stroke:none"
         class="ps04"
         id="q48">
        <g
           transform="translate(188.94,312.165)"
           id="xfrm49">
          <path
             style="fill:#fec564;fill-rule:nonzero;stroke:none"
             id="path116"
             class="ps05"
             d="M 0,0 C 1.727,16.122 -1.066,32.361 -8.658,46.34 C 6.792,51.938 21.038,60.191 35.154,68.721 C 45.413,74.841 60.852,76.974 70.981,68.987 C 77.101,63.656 81.761,55.936 79.234,47.939 C 78.84,41.819 73.242,37.554 68.049,35.421 C 63.251,35.155 58.463,36.626 56.192,41.147 C 54.998,43.813 55.659,47.406 56.864,49.805 C 58.325,51.543 60.329,53.132 62.589,53.398 C 65.65,53.132 68.582,52.737 70.981,51.138 L 71.909,52.332 C 70.043,55.136 67.122,56.331 63.656,55.936 C 60.458,56.203 58.058,54.603 55.925,52.332 C 53.665,49.677 53.004,45.945 53.398,42.48 C 54.198,39.153 56.725,35.688 60.062,34.227 C 72.047,30.229 84.832,33.299 97.211,34.227 L 146.36,39.953 C 149.95,39.153 155,40.092 158.87,39.025 C 178.18,36.487 196.82,21.837 203.61,3.199 C 209.48,-11.185 209.48,-31.156 227.58,-37.415 C 235.97,-40.88 247.02,-39.686 254.08,-34.216 C 256.87,-31.689 260.07,-27.701 262.34,-26.497 C 265.14,-31.295 265.26,-37.287 263.68,-42.48 C 265.94,-45.935 273.66,-50.466 268.2,-54.731 L 263,-60.052 C 264.2,-65.245 265.01,-71.376 262.34,-76.035 L 261.4,-76.035 C 254.35,-68.71 246.09,-64.445 235.57,-65.511 C 227.19,-67.377 218.39,-72.442 214.8,-80.833 C 209.2,-100.14 208.81,-122.91 189.23,-136.23 C 162.33,-160.07 122.12,-147.94 88.159,-147.02 C 77.507,-146.61 61.929,-138.5 54.998,-151.54 C 53.932,-154.88 52.865,-158.33 54.604,-161.79 C 56.459,-165.92 60.852,-168.05 64.85,-169.12 C 69.915,-168.98 75.236,-166.86 76.973,-161.79 C 78.435,-159.8 77.24,-157.26 76.707,-155.41 C 76.035,-154.88 75.375,-153.27 74.436,-154.34 C 71.642,-155.67 75.64,-156.6 74.842,-158.2 C 74.842,-161.53 72.848,-164.46 70.043,-165.92 C 65.917,-167.39 61.523,-166.06 58.463,-163.39 C 56.459,-161.13 55.798,-157.8 56.598,-154.74 C 57.664,-149.28 63.656,-147.14 68.444,-146.34 C 75.375,-146.22 81.367,-149.54 85.365,-155.41 C 87.893,-159.8 88.553,-165.79 87.22,-170.99 C 83.894,-178.44 76.174,-186.17 67.388,-186.03 C 38.215,-187.76 18.639,-164.46 -7.326,-157.26 C -8.392,-156.73 -8.124,-155 -7.326,-154.34 C 12.124,-123.85 0.128,-84.021 -18.51,-56.864 C -4.66,-41.414 -2.527,-20.504 0,0" />
        </g>
      </g>
      <g
         transform="matrix(0,1.2498363,1.2498363,0,54.786474,171.56264)"
         style="fill:#bf94c4;fill-rule:nonzero;stroke:none"
         class="ps04"
         id="q50">
        <g
           transform="translate(239.407,300.319)"
           id="xfrm51">
          <path
             style="fill:#221f1f;fill-rule:nonzero;stroke:none"
             id="path120"
             class="ps03"
             d="M 0,0 C 29.439,20.909 74.841,24.631 106.81,6.653 C 125.18,-2.538 137.7,-22.104 137.16,-43.152 C 136.63,-61.662 128.11,-77.634 112.27,-88.83 C 93.756,-100.94 71.652,-108.14 48.344,-104.8 C 27.968,-102.94 9.724,-96.283 -6.387,-84.032 C -20.505,-72.047 -26.892,-54.465 -24.236,-36.093 C -21.165,-21.976 -13.051,-7.464 0,0" />
        </g>
      </g>
      <g
         transform="matrix(0,1.2498363,1.2498363,0,54.786474,171.56264)"
         style="fill:#bf94c4;fill-rule:nonzero;stroke:none"
         class="ps04"
         id="q52">
        <g
           transform="translate(237.818,296.192)"
           id="xfrm53">
          <path
             style="fill:#8dcef1;fill-rule:nonzero;stroke:none"
             id="path124"
             class="ps06"
             d="M 0,0 L 0.394,0 C 2.655,-3.998 -2.272,-6.792 -2.538,-10.257 C -6.664,-11.59 -2.538,-16.921 -4.799,-19.843 C -4.66,-23.841 -2.538,-27.04 -1.867,-30.762 C -4.66,-33.299 -0.8,-36.359 -0.672,-39.292 C 0,-40.091 0.66,-40.486 1.589,-40.358 C 3.326,-36.093 1.056,-32.628 2.26,-28.107 C 0.789,-27.701 0,-26.774 0.394,-24.908 L 1.993,-25.974 C 3.987,-20.11 1.589,-13.051 4.126,-7.73 C 7.047,-9.991 3.987,-14.917 7.72,-16.388 C 9.585,-13.989 6.653,-9.596 8.914,-7.325 C 6.781,-3.604 10.513,-0.405 9.585,3.188 C 8.914,9.181 16.772,8.786 20.099,12.113 C 25.558,14.373 31.028,16.645 37.148,17.572 L 38.076,15.973 C 37.543,8.114 39.015,0 38.076,-6.792 C 35.954,-7.197 33.949,-7.325 33.949,-4.531 C 26.358,-8.391 19.299,-13.318 11.846,-17.582 C 10.651,-20.909 15.705,-22.381 17.977,-24.375 C 23.169,-27.307 28.629,-32.094 34.482,-32.894 C 35.154,-31.167 35.549,-28.768 38.076,-29.695 L 38.747,-31.295 C 37.543,-38.225 39.675,-46.883 38.076,-54.337 C 35.954,-53.803 35.154,-56.736 34.216,-58.196 L 24.897,-75.513 C 29.289,-77.24 33.949,-76.046 38.342,-76.44 C 39.548,-82.571 38.747,-89.363 39.015,-95.889 C 22.37,-94.556 7.986,-86.165 -5.065,-75.107 C -5.598,-74.574 -5.332,-73.647 -5.47,-72.847 C -4.66,-72.58 -3.998,-72.314 -3.465,-71.653 C -5.065,-67.121 -4.404,-62.462 -4.799,-57.93 C -2.005,-54.603 -4.137,-49.41 -5.737,-46.084 C -10.791,-46.478 -6.398,-53.27 -9.597,-55.669 C -10.396,-58.463 -6.131,-62.856 -10.791,-63.261 C -11.324,-63.922 -13.456,-64.594 -12.795,-66.183 C -16.655,-63.261 -17.188,-57.93 -19.449,-53.676 C -23.575,-33.427 -17.317,-12.518 0,0" />
        </g>
      </g>
      <g
         transform="matrix(0,1.2498363,1.2498363,0,54.786474,171.56264)"
         style="fill:#bf94c4;fill-rule:nonzero;stroke:none"
         class="ps04"
         id="q54">
        <g
           transform="translate(222.496,269.952)"
           id="xfrm55">
          <path
             style="fill:#221f1f;fill-rule:nonzero;stroke:none"
             id="path128"
             class="ps03"
             d="M 0,0 L 0.938,0 C 0.672,-1.066 1.866,-1.994 0.938,-2.922 C 0.139,-3.06 0.139,-1.866 -0.267,-1.333 C 0.266,-1.066 -0.128,-0.395 0,0" />
        </g>
      </g>
      <g
         transform="matrix(0,1.2498363,1.2498363,0,54.786474,171.56264)"
         style="fill:#bf94c4;fill-rule:nonzero;stroke:none"
         class="ps04"
         id="q56">
        <g
           transform="translate(243.011,300.052)"
           id="xfrm57">
          <path
             style="fill:#8dcef1;fill-rule:nonzero;stroke:none"
             id="path132"
             class="ps06"
             d="M 0,0 L 0.927,0 C -3.338,-2.804 3.06,-6.931 -1.333,-9.053 C -0.405,-5.864 -4.799,-1.727 0,0" />
        </g>
      </g>
      <g
         transform="matrix(0,1.2498363,1.2498363,0,54.786474,171.56264)"
         style="fill:#bf94c4;fill-rule:nonzero;stroke:none"
         class="ps04"
         id="q58">
        <g
           transform="translate(244.205,255.301)"
           id="xfrm59">
          <path
             style="fill:#221f1f;fill-rule:nonzero;stroke:none"
             id="path136"
             class="ps03"
             d="M 0,0 C 2.132,1.738 -0.128,5.203 1.994,6.931 C 6.92,6.398 7.453,1.066 9.585,-2.261 C 6.259,-4.393 12.251,-8.114 7.325,-9.98 C 7.453,-10.78 8.253,-11.846 7.72,-12.518 C 3.465,-13.179 5.992,-17.711 4.798,-20.238 C 5.865,-23.703 3.06,-26.763 3.593,-30.09 C 2.793,-32.094 2.399,-34.749 2.527,-36.754 C 1.727,-31.689 0,-26.091 1.599,-20.238 C -2.933,-13.84 1.333,-7.048 0,0" />
        </g>
      </g>
      <g
         transform="matrix(0,1.2498363,1.2498363,0,54.786474,171.56264)"
         style="fill:#bf94c4;fill-rule:nonzero;stroke:none"
         class="ps04"
         id="q60">
        <g
           transform="translate(258.323,281.808)"
           id="xfrm61">
          <path
             style="fill:#fed99d;fill-rule:nonzero;stroke:none"
             id="path140"
             class="ps07"
             d="M 0,0 C 3.731,2.261 7.186,5.321 11.451,6.387 L 12.379,4.788 L 50.466,4.788 C 51,3.593 50.732,1.994 50.732,0.661 C 47.534,-1.066 41.413,0.533 40.88,-4.532 C 40.753,-11.718 52.865,-3.199 50.732,-11.857 L 49.805,-12.518 L 13.051,-12.784 C 12.912,-14.65 10.652,-15.184 9.191,-14.384 L -5.193,-4.798 C -4.799,-2.132 -1.739,-1.599 0,0" />
        </g>
      </g>
      <g
         transform="matrix(0,1.2498363,1.2498363,0,54.786474,171.56264)"
         style="fill:#bf94c4;fill-rule:nonzero;stroke:none"
         class="ps04"
         id="q62">
        <g
           transform="translate(272.301,362.908)"
           id="xfrm63" />
      </g>
      <g
         transform="matrix(0,1.2498363,1.2498363,0,54.786474,171.56264)"
         style="fill:#bf94c4;fill-rule:nonzero;stroke:none"
         class="ps04"
         id="q64">
        <g
           transform="translate(275.895,239.329)"
           id="xfrm65">
          <path
             style="fill:#fed99d;fill-rule:nonzero;stroke:none"
             id="path148"
             class="ps07"
             d="M 0,0 C 11.462,0.128 21.975,0.8 33.16,0.533 L 33.16,-4.798 C 30.367,-5.992 25.035,-3.593 24.236,-7.73 C 24.503,-9.586 24.78,-11.59 26.507,-12.518 C 29.034,-12.518 32.094,-12.123 33.566,-14.117 C 33.566,-15.184 33.832,-16.378 32.627,-17.049 L -8.914,-16.644 C -7.048,-10.652 -3.594,-5.065 0,0" />
        </g>
      </g>
      <g
         transform="matrix(0,1.2498363,1.2498363,0,54.786474,171.56264)"
         style="fill:#bf94c4;fill-rule:nonzero;stroke:none"
         class="ps04"
         id="q66">
        <g
           transform="translate(272.301,276.349)"
           id="xfrm67">
          <path
             style="fill:#221f1f;fill-rule:nonzero;stroke:none"
             id="path152"
             class="ps03"
             d="M 0,0 C 1.471,-0.8 3.86,0.266 4.532,-1.333 C 4.799,-2.005 4.265,-2.804 3.594,-2.932 C 2.005,-2.538 -0.66,-3.87 -0.927,-1.599 C -1.066,-0.8 -0.533,-0.139 0,0" />
        </g>
      </g>
      <g
         transform="matrix(0,1.2498363,1.2498363,0,54.786474,171.56264)"
         style="fill:#bf94c4;fill-rule:nonzero;stroke:none"
         class="ps04"
         id="q68">
        <g
           transform="translate(274.966,284.069)"
           id="xfrm69">
          <path
             style="fill:#221f1f;fill-rule:nonzero;stroke:none"
             id="path156"
             class="ps03"
             d="M 0,0 C 0.928,-0.395 2.527,-0.533 2.527,-1.994 C 1.728,-4.659 -1.333,-2.399 -3.199,-2.666 C -5.193,0.266 -1.194,-0.8 0,0" />
        </g>
      </g>
      <g
         transform="matrix(0,1.2498363,1.2498363,0,54.786474,171.56264)"
         style="fill:#bf94c4;fill-rule:nonzero;stroke:none"
         class="ps04"
         id="q70">
        <g
           transform="translate(275.895,373.827)"
           id="xfrm71">
          <path
             style="fill:#e78826;fill-rule:nonzero;stroke:none"
             id="path160"
             class="ps08"
             d="M 0,0 C 10.928,1.599 21.314,4.126 29.706,11.846 C 31.166,8.125 32.627,3.465 29.706,0 C 23.436,-4.926 14.522,-3.732 6.664,-4.798 C 5.459,-5.459 3.998,-6.931 5.064,-8.263 C 6.259,-10.257 8.263,-8.263 9.596,-7.73 C 15.45,-8.263 21.314,-5.065 26.507,-7.997 C 29.172,-10.257 28.373,-13.989 29.439,-16.911 C 21.314,-12.784 11.057,-11.985 1.599,-10.257 C -0.128,-8.925 -2.794,-7.858 -3.188,-5.459 C -4.127,-2.794 -1.856,-0.938 0,0" />
        </g>
      </g>
      <g
         transform="matrix(0,1.2498363,1.2498363,0,54.786474,171.56264)"
         style="fill:#bf94c4;fill-rule:nonzero;stroke:none"
         class="ps04"
         id="q72">
        <g
           transform="translate(308.128,159.69)"
           id="xfrm73" />
      </g>
      <g
         transform="matrix(0,1.2498363,1.2498363,0,54.786474,171.56264)"
         style="fill:#bf94c4;fill-rule:nonzero;stroke:none"
         class="ps04"
         id="q74">
        <g
           transform="translate(281.62,233.198)"
           id="xfrm75">
          <path
             style="fill:#221f1f;fill-rule:nonzero;stroke:none"
             id="path168"
             class="ps03"
             d="M 0,0 C 0.8,-0.928 1.066,-2.132 0.938,-3.455 C -0.128,-4.521 -2.26,-4.254 -3.455,-3.86 C -6.259,-1.333 -2.794,1.738 0,0" />
        </g>
      </g>
      <g
         transform="matrix(0,1.2498363,1.2498363,0,54.786474,171.56264)"
         style="fill:#bf94c4;fill-rule:nonzero;stroke:none"
         class="ps04"
         id="q76">
        <g
           transform="translate(280.693,314.969)"
           id="xfrm77">
          <path
             style="fill:#fed99d;fill-rule:nonzero;stroke:none"
             id="path172"
             class="ps07"
             d="M 0,0 C 8.519,1.194 19.31,1.855 28.095,0.661 L 27.829,-6.664 C 24.236,-7.997 18.777,-6.131 17.177,-10.79 C 16.377,-14.917 20.643,-15.589 23.041,-17.188 C 24.908,-17.721 28.895,-15.983 28.362,-19.449 L 28.095,-25.569 L -0.661,-25.835 C -2.133,-25.302 -1.728,-23.308 -2.261,-21.976 L -1.599,-1.599 L 0,0" />
        </g>
      </g>
      <g
         transform="matrix(0,1.2498363,1.2498363,0,54.786474,171.56264)"
         style="fill:#bf94c4;fill-rule:nonzero;stroke:none"
         class="ps04"
         id="q78">
        <g
           transform="translate(280.693,219.752)"
           id="xfrm79">
          <path
             style="fill:#fed99d;fill-rule:nonzero;stroke:none"
             id="path176"
             class="ps07"
             d="M 0,0 L 27.829,0 C 28.501,-2.005 29.162,-4.393 28.362,-6.664 C 25.302,-7.464 20.109,-4.532 19.171,-9.596 C 19.704,-12.251 18.777,-17.849 23.575,-16.644 L 28.095,-16.644 L 28.362,-21.037 C 18.777,-22.775 8.786,-22.104 -0.661,-20.376 C -1.994,-18.51 -0.8,-15.578 -1.599,-13.456 C -1.066,-9.319 -2.932,-3.199 0,0" />
        </g>
      </g>
      <g
         transform="matrix(0,1.2498363,1.2498363,0,54.786474,171.56264)"
         style="fill:#bf94c4;fill-rule:nonzero;stroke:none"
         class="ps04"
         id="q80">
        <g
           transform="translate(279.093,265.164)"
           id="xfrm81">
          <path
             style="fill:#fed99d;fill-rule:nonzero;stroke:none"
             id="path180"
             class="ps07"
             d="M 0,0 C 0.405,1.333 2.26,1.333 3.198,1.333 C 11.451,1.461 20.515,2.122 29.429,1.866 C 30.229,-0.139 30.495,-2.399 30.367,-4.798 C 28.362,-5.864 24.502,-3.999 23.969,-6.398 C 26.102,-7.73 30.229,-4.926 29.962,-8.658 C 27.967,-9.724 25.44,-10.257 23.042,-9.596 L 22.636,-7.059 C 20.109,-7.997 20.77,-11.324 21.038,-13.456 C 22.636,-16.644 26.635,-15.322 29.695,-15.717 C 30.9,-17.444 30.1,-20.11 30.367,-22.381 C 20.376,-23.436 10.385,-23.042 0.671,-22.647 L 0,-21.709 L 0,0" />
        </g>
      </g>
      <g
         transform="matrix(0,1.2498363,1.2498363,0,54.786474,171.56264)"
         style="fill:#bf94c4;fill-rule:nonzero;stroke:none"
         class="ps04"
         id="q82">
        <g
           transform="translate(285.49,149.837)"
           id="xfrm83">
          <path
             style="fill:#e78826;fill-rule:nonzero;stroke:none"
             id="path184"
             class="ps08"
             d="M 0,0 C 9.052,1.727 19.438,0.672 26.23,8.253 C 27.158,8.391 28.224,6.92 27.83,5.726 C 27.691,3.199 27.03,0.8 24.63,-0.394 C 22.637,-1.333 20.899,0 19.172,0.266 L 7.326,-1.066 C 7.059,-1.333 6.525,-1.727 6.654,-2.261 C 10.514,-5.459 14.779,-1.727 19.172,-2.261 C 14.64,-8.519 5.992,-0.8 1.194,-6.387 C 1.067,-7.453 1.461,-8.125 2.261,-8.658 C 8.125,-4.532 14.512,-10.385 20.366,-6.12 C 24.769,-8.658 29.962,-13.051 29.696,-18.649 C 29.823,-19.577 29.696,-20.504 29.024,-21.176 C 19.844,-15.45 9.981,-11.185 -1.599,-11.185 C -2.932,-9.991 -4.926,-9.319 -5.459,-7.453 C -5.864,-3.732 -3.465,-0.8 0,0" />
        </g>
      </g>
      <g
         transform="matrix(0,1.2498363,1.2498363,0,54.786474,171.56264)"
         style="fill:#bf94c4;fill-rule:nonzero;stroke:none"
         class="ps04"
         id="q84">
        <g
           transform="translate(286.418,299.647)"
           id="xfrm85">
          <path
             style="fill:#221f1f;fill-rule:nonzero;stroke:none"
             id="path188"
             class="ps03"
             d="M 0,0 C 1.599,0.139 2.932,-0.128 4.126,-0.928 C 5.193,-2.527 5.064,-3.988 4.531,-5.726 C 2.666,-7.059 0.266,-5.992 -1.6,-5.459 C -2.4,-3.86 -3.06,0.139 0,0" />
        </g>
      </g>
      <g
         transform="matrix(0,1.2498363,1.2498363,0,54.786474,171.56264)"
         style="fill:#bf94c4;fill-rule:nonzero;stroke:none"
         class="ps04"
         id="q86">
        <g
           transform="translate(303.062,377.292)"
           id="xfrm87">
          <path
             style="fill:#221f1f;fill-rule:nonzero;stroke:none"
             id="path192"
             class="ps03"
             d="M 0,0 C -1.46,-2.132 -4.926,-2.538 -7.325,-3.732 C -11.185,-5.331 -15.045,-4.798 -18.905,-5.331 C -11.984,-4.937 -6.259,-0.8 0,0" />
        </g>
      </g>
      <g
         transform="matrix(0,1.2498363,1.2498363,0,54.786474,171.56264)"
         style="fill:#bf94c4;fill-rule:nonzero;stroke:none"
         class="ps04"
         id="q88">
        <g
           transform="translate(286.685,311.504)"
           id="xfrm89">
          <path
             style="fill:#221f1f;fill-rule:nonzero;stroke:none"
             id="path196"
             class="ps03"
             d="M 0,0 C 1.728,-0.139 3.86,0.395 4.532,-1.599 C 4.532,-3.199 4.798,-5.065 3.199,-5.726 C 1.194,-5.864 -0.799,-5.864 -2.132,-4.532 C -1.461,-2.932 -2.399,-0.266 0,0" />
        </g>
      </g>
      <g
         transform="matrix(0,1.2498363,1.2498363,0,54.786474,171.56264)"
         style="fill:#bf94c4;fill-rule:nonzero;stroke:none"
         class="ps04"
         id="q90">
        <g
           transform="translate(289.35,204.707)"
           id="xfrm91">
          <path
             style="fill:#221f1f;fill-rule:nonzero;stroke:none"
             id="path200"
             class="ps03"
             d="M 0,0 C 1.194,0.266 2.133,-0.267 2.794,-1.205 C 2.794,-2.666 3.2,-4.67 1.194,-4.798 C -0.671,-5.459 -3.593,-5.065 -3.86,-2.804 C -3.998,-0.405 -1.866,-0.267 0,0" />
        </g>
      </g>
      <g
         transform="matrix(0,1.2498363,1.2498363,0,54.786474,171.56264)"
         style="fill:#bf94c4;fill-rule:nonzero;stroke:none"
         class="ps04"
         id="q92">
        <g
           transform="translate(288.017,215.359)"
           id="xfrm93">
          <path
             style="fill:#221f1f;fill-rule:nonzero;stroke:none"
             id="path204"
             class="ps03"
             d="M 0,0 C 2.261,0 5.321,0.267 4.532,-2.932 C 5.065,-4.126 3.594,-4.66 2.933,-4.798 C 0.8,-4.66 -0.533,-5.459 -2.26,-4.265 C -2.26,-2.538 -2.666,0.395 0,0" />
        </g>
      </g>
      <g
         transform="matrix(0,1.2498363,1.2498363,0,54.786474,171.56264)"
         style="fill:#bf94c4;fill-rule:nonzero;stroke:none"
         class="ps04"
         id="q94">
        <g
           transform="translate(286.152,363.975)"
           id="xfrm95">
          <path
             style="fill:#221f1f;fill-rule:nonzero;stroke:none"
             id="path208"
             class="ps03"
             d="M 0,0 C 5.192,1.322 10.652,-0.8 15.312,-2.932 C 10.652,-1.738 5.46,-1.471 0,-0.672 L 0,0" />
        </g>
      </g>
      <g
         transform="matrix(0,1.2498363,1.2498363,0,54.786474,171.56264)"
         style="fill:#bf94c4;fill-rule:nonzero;stroke:none"
         class="ps04"
         id="q96">
        <g
           transform="translate(288.284,249.842)"
           id="xfrm97">
          <path
             style="fill:#221f1f;fill-rule:nonzero;stroke:none"
             id="path212"
             class="ps03"
             d="M 0,0 C 1.994,0.405 4.926,0.266 4.266,-2.527 C 4.532,-3.593 3.86,-4.521 2.933,-4.788 C 1.194,-4.788 -0.927,-5.193 -1.599,-3.188 C -1.727,-1.866 -1.333,-0.533 0,0" />
        </g>
      </g>
      <g
         transform="matrix(0,1.2498363,1.2498363,0,54.786474,171.56264)"
         style="fill:#bf94c4;fill-rule:nonzero;stroke:none"
         class="ps04"
         id="q98">
        <g
           transform="translate(292.55,262.232)"
           id="xfrm99">
          <path
             style="fill:#221f1f;fill-rule:nonzero;stroke:none"
             id="path216"
             class="ps03"
             d="M 0,0 C 1.066,-0.938 0.66,-2.932 0.266,-4.126 C -0.673,-4.798 -2.005,-5.459 -3.2,-4.798 C -6.664,-3.06 -3.871,2.666 0,0" />
        </g>
      </g>
      <g
         transform="matrix(0,1.2498363,1.2498363,0,54.786474,171.56264)"
         style="fill:#bf94c4;fill-rule:nonzero;stroke:none"
         class="ps04"
         id="q100">
        <g
           transform="translate(291.217,234.136)"
           id="xfrm101">
          <path
             style="fill:#221f1f;fill-rule:nonzero;stroke:none"
             id="path220"
             class="ps03"
             d="M 0,0 C 0.799,0 1.727,-0.405 1.866,-1.205 C 1.866,-2.804 2.26,-4.926 0.266,-5.065 C -3.071,-5.459 -1.333,-0.8 0,0" />
        </g>
      </g>
      <g
         transform="matrix(0,1.2498363,1.2498363,0,54.786474,171.56264)"
         style="fill:#bf94c4;fill-rule:nonzero;stroke:none"
         class="ps04"
         id="q102">
        <g
           transform="translate(293.477,140.252)"
           id="xfrm103">
          <path
             style="fill:#221f1f;fill-rule:nonzero;stroke:none"
             id="path224"
             class="ps03"
             d="M 0,0 C 5.726,0.267 10.791,-1.333 15.045,-4.798 C 10.386,-2.527 5.193,-1.599 0,-0.672 L 0,0" />
        </g>
      </g>
      <g
         transform="matrix(0,1.2498363,1.2498363,0,54.786474,171.56264)"
         style="fill:#bf94c4;fill-rule:nonzero;stroke:none"
         class="ps04"
         id="q104">
        <g
           transform="translate(302.668,306.706)"
           id="xfrm105">
          <path
             style="fill:#ffffff;fill-rule:nonzero;stroke:none"
             id="path228"
             class="ps02"
             d="M 0,0 L 5.854,0 C 7.187,-3.188 3.454,-2.261 1.994,-2.932 C 0.661,-2.666 -0.938,-3.465 -1.866,-2.261 C -2.271,-1.066 -0.8,-0.128 0,0" />
        </g>
      </g>
      <g
         transform="matrix(0,1.2498363,1.2498363,0,54.786474,171.56264)"
         style="fill:#bf94c4;fill-rule:nonzero;stroke:none"
         class="ps04"
         id="q106">
        <g
           transform="translate(302.668,210.561)"
           id="xfrm107">
          <path
             style="fill:#ffffff;fill-rule:nonzero;stroke:none"
             id="path232"
             class="ps02"
             d="M 0,0 C 1.994,0.266 5.46,0.928 6.387,-0.661 C 5.587,-1.994 6.792,-3.327 5.46,-4.265 C 5.054,-2.932 3.988,-1.066 2.26,-2.261 L 0.661,-3.86 C -0.267,-2.932 -0.267,-1.461 0,0" />
        </g>
      </g>
      <g
         transform="matrix(0,1.2498363,1.2498363,0,54.786474,171.56264)"
         style="fill:#bf94c4;fill-rule:nonzero;stroke:none"
         class="ps04"
         id="q108">
        <g
           transform="translate(305.856,280.209)"
           id="xfrm109">
          <path
             style="fill:#ffffff;fill-rule:nonzero;stroke:none"
             id="path236"
             class="ps02"
             d="M 0,0 C 0.672,-0.938 2.932,0.533 2.666,-1.333 L 2.666,-2.26 C 0.405,-2.666 -1.461,-3.06 -3.455,-1.994 C -3.721,0.128 -1.055,-0.672 0,0" />
        </g>
      </g>
      <g
         transform="matrix(0,1.2498363,1.2498363,0,54.786474,171.56264)"
         style="fill:#bf94c4;fill-rule:nonzero;stroke:none"
         class="ps04"
         id="q110">
        <g
           transform="translate(305.334,231.865)"
           id="xfrm111">
          <path
             style="fill:#ffffff;fill-rule:nonzero;stroke:none"
             id="path240"
             class="ps02"
             d="M 0,0 C 1.194,-0.394 4.126,1.066 3.721,-1.194 L 3.721,-2.122 C 2.122,-2.527 -0.267,-2.921 -1.6,-1.855 C -2.133,-0.661 -0.8,-0.128 0,0" />
        </g>
      </g>
      <g
         transform="matrix(0,1.2498363,1.2498363,0,54.786474,171.56264)"
         style="fill:#bf94c4;fill-rule:nonzero;stroke:none"
         class="ps04"
         id="q112">
        <g
           transform="translate(311.059,371.289)"
           id="xfrm113">
          <path
             style="fill:#f15528;fill-rule:nonzero;stroke:none"
             id="path244"
             class="ps09"
             d="M 0,0 C 0.79,0 1.856,0 1.856,-0.928 C 1.856,-1.855 2.122,-3.06 0.928,-3.188 L -1.333,-2.527 C -1.599,-1.461 -0.8,-0.8 0,0" />
        </g>
      </g>
      <g
         transform="matrix(0,1.2498363,1.2498363,0,54.786474,171.56264)"
         style="fill:#bf94c4;fill-rule:nonzero;stroke:none"
         class="ps04"
         id="q114">
        <g
           transform="translate(311.987,315.364)"
           id="xfrm115">
          <path
             style="fill:#0066a1;fill-rule:nonzero;stroke:none"
             id="path248"
             class="ps010"
             d="M 0,0 C 23.575,-2.794 47.544,-13.712 58.857,-36.754 C 67.377,-57.664 59.924,-81.366 44.74,-97.211 C 31.561,-108.8 15.983,-114.53 -0.661,-117.59 L 0,-0.661 L 0,0" />
        </g>
      </g>
      <g
         transform="matrix(0,1.2498363,1.2498363,0,54.786474,171.56264)"
         style="fill:#bf94c4;fill-rule:nonzero;stroke:none"
         class="ps04"
         id="q116">
        <clipPath
           clip-rule="nonzero"
           id="clipPath3576">
          <path
             id="path3578"
             d="M 311.99,315.36 C 335.56,312.57 359.53,301.65 370.85,278.61 C 379.36,257.7 371.91,234 356.73,218.15 C 343.55,206.56 327.97,200.84 311.33,197.78 L 311.99,314.7 L 311.99,315.36" />
        </clipPath>
        <g
           id="g254"
           clip-path="url(#clp3)">
          <g
             style="fill:none;stroke:none"
             class="ps00"
             id="q117">
            <g
               transform="translate(342.312,209.367)"
               id="xfrm118">
              <path
                 style="fill:#009ed7;fill-rule:evenodd;stroke:none"
                 id="path258"
                 class="ps011"
                 d="M 0,0 C 0.672,-0.672 5.139,0.789 7.528,3.391 C 9.927,5.982 16.25,10.247 15.578,11.91 C 14.917,13.573 13.253,11.857 10.726,9.852 C 8.199,7.848 3.401,3.124 2.805,2.794 C 2.197,2.463 -0.661,0.661 0,0 z M -17.306,2.463 C -18.308,2.463 -19.641,1.738 -19.641,-0.139 C -19.641,-2.015 -19.107,-6.131 -18.574,-6.867 C -18.041,-7.602 -18.18,-7.869 -17.242,-7.73 C -16.314,-7.602 -14.981,-7.4 -15.055,-6.536 C -15.12,-5.672 -16.911,-4.745 -16.847,-3.007 C -16.783,-1.269 -16.175,0.064 -16.378,0.789 C -16.58,1.525 -17.306,2.463 -17.306,2.463 z M 6.664,83.147 C 6.397,82.156 4.596,82.55 4.596,81.559 C 4.596,80.556 5.94,79.49 7.603,81.356 C 9.255,83.211 10.663,81.761 10.855,84.288 C 11.057,86.815 10.257,86.89 9.724,87.689 C 9.191,88.478 7.389,90.142 5.459,90.216 C 3.529,90.28 2.069,90.408 1.333,88.948 C 0.608,87.487 2.996,87.22 3.06,86.09 C 3.135,84.96 2.996,85.29 3.529,84.885 C 4.063,84.491 5.32,84.299 5.726,84.021 C 6.12,83.744 6.664,83.147 6.664,83.147 z M 18.788,32.361 C 19.118,31.689 23.778,32.617 25.035,32.222 C 26.305,31.828 29.376,31.092 29.034,35.08 C 28.703,39.068 26.902,46.393 25.964,49.325 C 25.035,52.268 23.5,56.459 24.172,59.444 C 24.833,62.44 27.093,68.976 25.035,70.032 C 22.978,71.098 21.975,65.778 19.779,65.778 C 17.583,65.778 17.444,66.183 16.847,66.108 C 16.25,66.044 15.983,66.183 15.311,66.705 C 14.65,67.239 14.181,67.58 13.317,67.239 C 12.454,66.908 11.185,64.242 11.185,61.843 C 11.185,59.444 11.527,59.647 13.317,58.986 C 15.12,58.314 17.519,58.847 18.052,56.384 C 18.585,53.932 19.651,52.386 20.312,50.722 C 20.984,49.059 21.912,49.389 21.912,47.129 C 21.912,44.868 21.645,43.066 21.112,40.667 C 20.579,38.279 20.44,38.279 20.44,36.946 C 20.44,35.613 20.515,34.888 20.046,34.419 C 19.587,33.95 18.788,32.361 18.788,32.361 z M 2.805,28.491 C 2.197,28.085 1.738,23.959 2.932,22.637 C 4.126,21.304 6.664,20.963 7.73,19.363 C 8.797,17.764 6.738,15.44 8.199,14.245 C 9.66,13.04 12.326,14.437 13.786,15.045 C 15.247,15.642 16.719,14.373 17.05,16.239 C 17.391,18.095 17.454,24.695 18.521,24.567 C 19.587,24.428 20.377,18.233 20.717,18.169 C 21.048,18.095 22.445,19.843 22.178,21.837 C 21.912,23.831 21.848,29.013 22.775,28.885 C 23.703,28.757 24.641,24.225 25.238,24.364 C 25.836,24.492 31.369,29.216 32.297,38.407 C 33.225,47.598 33.896,49.133 32.767,49.997 C 31.636,50.861 29.248,49.048 28.043,50.989 C 26.827,52.929 26.891,57.589 27.36,59.05 C 27.84,60.51 31.903,61.587 31.433,63.656 C 30.964,65.714 30.314,70.384 28.842,73.508 C 27.36,76.632 24.705,79.49 23.842,79.095 C 22.978,78.69 22.839,75.502 21.315,75.033 C 19.779,74.574 20.654,78.957 18.649,79.756 C 16.644,80.556 13.382,78.957 13.521,77.368 C 13.648,75.769 17.519,77.293 18.19,75.299 C 18.852,73.306 18.393,70.107 17.391,70.235 C 16.378,70.373 15.844,73.508 15.045,73.572 C 14.245,73.636 14.319,70.704 12.848,70.896 C 11.388,71.098 11.324,71.898 10.663,71.567 C 9.991,71.237 7.859,65.714 5.523,66.044 C 3.199,66.375 5.129,72.57 5.129,74.041 C 5.129,75.502 4.799,78.029 4.329,78.093 C 3.86,78.157 3.86,76.046 2.399,74.5 C 0.938,72.964 -1.461,72.101 -1.397,71.237 C -1.322,70.373 -1.322,66.908 -1.322,66.908 C -1.322,66.908 -1.589,66.439 -1.994,66.439 C -2.388,66.439 -2.921,67.846 -3.252,67.772 C -3.583,67.708 -4.329,67.313 -4.393,66.642 C -4.468,65.98 -3.657,64.178 -3.06,64.178 C -2.453,64.178 -2.261,64.978 -1.461,64.584 C -0.661,64.178 -0.064,63.794 0,62.718 C 0.075,61.641 -0.991,60.51 -0.597,59.114 C -0.192,57.717 0.874,58.922 1.802,57.386 C 2.73,55.862 5.001,53.196 7.069,52.663 C 9.127,52.13 9.788,53.207 10.257,52.204 C 10.726,51.191 11.121,47.129 11.388,45.199 C 11.654,43.269 12.987,40.337 12.251,39.004 C 11.527,37.671 10.929,36.882 10.193,38.204 C 9.457,39.537 8.658,41.68 8.199,41.744 C 7.73,41.808 7.336,39.537 7.666,38.012 C 7.997,36.477 9.063,35.549 9.991,34.952 C 10.929,34.355 13.253,32.756 13.723,32.489 C 14.181,32.222 15.247,31.21 15.375,29.482 C 15.514,27.755 17.572,20.291 14.054,19.427 C 10.524,18.564 11.185,24.034 10.994,25.025 C 10.79,26.027 11.121,26.891 10.257,27.158 C 9.394,27.424 7.859,24.695 5.726,25.963 C 3.593,27.222 2.805,28.491 2.805,28.491 z M -3.786,5.854 C -3.188,4.723 -1.13,5.182 -0.458,5.779 C 0.202,6.387 1.866,7.443 2.463,7.443 C 3.06,7.443 4.724,9.65 3.657,11.452 C 2.602,13.243 0.672,10.844 -0.064,10.183 C -0.789,9.522 -4.382,6.984 -3.786,5.854 z M -1.322,26.091 C -0.863,25.558 0.672,25.292 0.608,26.294 C 0.533,27.286 0.874,29.152 -0.863,29.013 C -2.591,28.885 -3.583,30.218 -3.988,29.418 C -4.382,28.618 -3.252,27.957 -3.316,26.497 C -3.39,25.025 -4.116,22.285 -4.19,19.427 C -4.254,16.57 -3.316,14.107 -2.186,13.979 C -1.056,13.84 0.341,15.045 0.533,16.634 C 0.735,18.233 0.874,20.899 0.874,20.899 C 0.874,20.899 0.075,15.503 -1.322,16.367 C -2.719,17.231 -3.124,19.043 -2.719,20.835 C -2.325,22.637 -1.322,26.091 -1.322,26.091 z M -21.507,55.19 C -22.562,54.923 -23.831,61.726 -23.767,62.781 C -23.693,63.848 -19.769,66.311 -20.035,68.507 C -20.302,70.704 -24.418,71.706 -25.089,73.636 C -25.771,75.566 -24.364,75.502 -24.364,77.229 C -24.364,78.957 -25.836,81.153 -26.23,81.75 C -26.636,82.347 -27.702,82.614 -26.838,82.955 C -25.963,83.286 -23.426,82.358 -23.693,84.288 C -23.959,86.218 -26.763,87.487 -26.763,88.948 C -26.763,90.408 -26.838,92.072 -26.7,93.277 C -26.571,94.471 -26.71,94.609 -25.899,95.473 C -25.089,96.347 -23.17,96.742 -23.032,99.397 C -22.903,102.06 -22.562,102.8 -22.029,102.8 C -21.507,102.8 -19.043,100.73 -18.308,99.93 C -17.572,99.141 -15.109,96.678 -14.768,95.612 C -14.437,94.545 -13.574,94.002 -13.979,93.277 C -14.373,92.541 -14.842,92.541 -14.906,91.272 C -14.97,90.014 -14.853,89.086 -15.312,88.617 C -15.781,88.148 -16.314,87.423 -16.314,86.026 C -16.314,84.629 -16.847,83.819 -16.708,82.955 C -16.58,82.081 -14.906,79.159 -14.906,78.157 C -14.906,77.165 -15.845,74.425 -15.653,71.962 C -15.45,69.499 -14.373,66.578 -13.574,64.648 C -12.773,62.718 -11.11,59.977 -11.718,59.05 C -12.315,58.122 -15.312,60.916 -16.911,60.382 C -18.51,59.849 -19.438,57.12 -19.972,56.32 C -20.505,55.52 -20.44,55.456 -21.507,55.19 z M -15.908,43.941 C -17.913,43.546 -19.043,45.999 -19.171,47.993 C -19.31,49.997 -18.968,51.138 -19.235,52.268 C -19.502,53.398 -18.841,56.917 -16.975,56.789 C -15.12,56.661 -14.64,56.128 -14.373,54.923 C -14.107,53.729 -13.712,52.386 -13.307,51.394 C -12.912,50.392 -12.315,46.532 -13.041,45.871 C -13.776,45.199 -13.914,44.335 -15.908,43.941 z M -14.576,33.289 C -13.371,33.15 -11.377,36.274 -11.846,38.407 C -12.315,40.539 -13.563,42.544 -14.512,42.608 C -15.45,42.672 -17.38,41.264 -17.38,39.74 C -17.38,38.204 -16.453,37.415 -16.314,35.944 C -16.175,34.483 -15.77,33.417 -14.576,33.289 z M -28.363,29.621 C -28.832,29.216 -28.694,25.494 -28.565,24.631 C -28.426,23.767 -28.235,23.095 -28.096,21.965 C -27.968,20.835 -27.83,18.361 -27.83,16.772 C -27.83,15.173 -27.627,14.576 -28.032,14.107 C -28.426,13.648 -28.565,11.324 -28.426,9.458 C -28.298,7.581 -27.296,6.781 -26.838,6.312 C -26.369,5.854 -24.364,3.721 -23.565,3.849 C -22.765,3.988 -22.231,6.781 -21.965,7.645 C -21.698,8.509 -21.101,10.78 -21.101,11.985 C -21.101,13.179 -21.038,15.77 -19.843,16.836 C -18.638,17.903 -17.775,18.084 -17.572,19.491 C -17.38,20.899 -17.711,23.564 -17.306,24.897 C -16.911,26.219 -15.035,27.755 -14.64,25.889 C -14.245,24.034 -14.043,19.363 -13.115,16.9 C -12.177,14.437 -10.844,11.857 -10.983,9.98 C -11.11,8.114 -12.443,5.385 -12.315,3.455 C -12.177,1.525 -12.646,-3.476 -12.24,-4.34 C -11.846,-5.203 -11.452,-5.939 -9.18,-5.001 C -6.92,-4.073 -6.195,-2.932 -6.12,-0.139 C -6.056,2.655 -6.525,9.586 -6.856,11.249 C -7.186,12.913 -8.252,15.503 -8.85,16.964 C -9.447,18.436 -10.652,24.098 -10.577,26.219 C -10.514,28.352 -8.125,33.747 -8.125,35.219 C -8.125,36.679 -8.05,40.678 -8.914,44.207 C -9.788,47.726 -9.522,50.338 -8.658,54.198 C -7.784,58.047 -8.391,66.513 -8.722,67.58 C -9.053,68.635 -10.385,70.16 -10.311,72.165 C -10.246,74.169 -5.331,79.543 -5.598,81.814 C -5.864,84.096 -6.856,83.03 -6.856,85.557 C -6.856,88.084 -7.592,90.003 -7.592,92.338 C -7.592,94.684 -7.325,97.606 -6.856,99.141 C -6.398,100.67 -4.99,105.53 -4.99,105.53 L -18.308,110.19 L -27.435,108.79 L -31.295,99.205 L -30.229,53.729 C -30.229,53.729 -29.163,34.611 -28.298,34.686 C -27.435,34.749 -26.571,35.677 -26.636,38.279 C -26.7,40.87 -28.842,48.462 -26.369,48.462 C -23.895,48.462 -21.304,41.467 -20.899,40.006 C -20.505,38.545 -18.777,28.885 -18.905,27.755 C -19.043,26.625 -20.835,23.767 -22.103,22.701 C -23.362,21.635 -23.426,20.302 -24.428,20.973 C -25.43,21.635 -25.771,25.228 -26.305,26.753 C -26.838,28.288 -28.363,29.621 -28.363,29.621" />
            </g>
          </g>
          <g
             style="fill:none;stroke:none"
             class="ps00"
             id="q119">
            <g
               transform="translate(339.593,256.901)"
               id="xfrm120">
              <path
                 style="fill:#221f1f;fill-rule:evenodd;stroke:none"
                 id="path262"
                 class="ps012"
                 d="M 0,0 C -0.075,-0.736 0.8,-0.533 0.8,0 C 0.8,0.533 0.064,0.725 0,0 z M -1.333,-0.203 C -1.205,-1.727 -0.341,-2.463 0.661,-1.93 C 1.663,-1.397 2.463,-1.066 2.325,0.128 C 2.197,1.333 1.194,2.122 0.192,1.994 C -0.8,1.855 -1.333,-0.203 -1.333,-0.203 z M -1.269,-14.448 C -1.067,-14.714 0.394,-14.32 0.266,-13.52 C 0.128,-12.72 -0.139,-12.518 -0.533,-12.518 C -0.938,-12.518 -1.471,-14.181 -1.269,-14.448 z M -1.333,-11.26 C -0.864,-11.26 -0.736,-10.652 -0.864,-10.193 C -1.002,-9.724 -1.461,-9.191 -1.664,-9.33 C -1.877,-9.458 -1.333,-11.26 -1.333,-11.26 z M -2.079,-12.379 C -2.079,-12.379 -4.148,-8.925 -2.346,-8.466 C -0.533,-7.997 0.661,-8.061 0.458,-9.33 C 0.266,-10.588 0.597,-11.26 0.597,-11.26 C 0.597,-11.26 2.73,-15.578 0.266,-15.845 C -2.208,-16.111 -2.677,-15.173 -2.41,-14.448 C -2.143,-13.712 -2.079,-12.379 -2.079,-12.379" />
            </g>
          </g>
        </g>
      </g>
      <g
         transform="matrix(0,1.2498363,1.2498363,0,54.786474,171.56264)"
         style="fill:#bf94c4;fill-rule:nonzero;stroke:none"
         class="ps04"
         id="q121">
        <g
           transform="translate(314.919,145.977)"
           id="xfrm122">
          <path
             style="fill:#f15528;fill-rule:nonzero;stroke:none"
             id="path266"
             class="ps09"
             d="M 0,0 C 1.066,0 2.527,0 2.794,-1.333 C 3.327,-2.794 2.132,-3.593 1.194,-4.532 C -0.266,-4.66 -1.471,-4.393 -2.666,-3.593 C -2.805,-2.005 -1.471,-0.405 0,0" />
        </g>
      </g>
      <g
         transform="matrix(0,1.2498363,1.2498363,0,54.786474,171.56264)"
         style="fill:#bf94c4;fill-rule:nonzero;stroke:none"
         class="ps04"
         id="q123">
        <g
           transform="translate(315.848,159.423)"
           id="xfrm124" />
      </g>
      <g
         transform="matrix(0,1.2498363,1.2498363,0,54.786474,171.56264)"
         style="fill:#bf94c4;fill-rule:nonzero;stroke:none"
         class="ps04"
         id="q125">
        <g
           transform="translate(319.707,373.827)"
           id="xfrm126">
          <path
             style="fill:#e78826;fill-rule:nonzero;stroke:none"
             id="path274"
             class="ps08"
             d="M 0,0 C 2.932,2.261 6.792,3.593 10.79,2.527 C 16.25,-1.599 23.308,1.866 28.362,4.521 L 28.362,4.788 C 24.236,5.065 20.248,3.06 15.983,2.922 C 21.709,5.321 29.034,5.459 34.099,10.247 C 35.293,7.453 34.76,4.393 33.565,1.599 C 26.507,-5.331 14.789,3.199 8.263,-3.199 C 8.124,-4.265 8.392,-5.065 9.191,-5.726 C 14.917,-2.399 23.437,-3.732 28.768,-7.059 C 30.9,-9.724 33.427,-12.518 31.966,-16.25 C 23.97,-10.119 12.923,-11.324 3.465,-8.658 C 1.471,-7.997 -0.395,-6.398 -1.6,-4.532 C -2.122,-2.538 -0.533,-1.471 0,0" />
        </g>
      </g>
      <g
         transform="matrix(0,1.2498363,1.2498363,0,54.786474,171.56264)"
         style="fill:#bf94c4;fill-rule:nonzero;stroke:none"
         class="ps04"
         id="q127">
        <g
           transform="translate(322.511,335.207)"
           id="xfrm128">
          <path
             style="fill:#221f1f;fill-rule:nonzero;stroke:none"
             id="path278"
             class="ps03"
             d="M 0,0 C 0.661,-0.672 1.461,-1.727 0.661,-2.666 C 0.128,-3.998 -1.599,-3.593 -2.538,-3.199 C -4.404,-1.6 -2.132,1.461 0,0" />
        </g>
      </g>
      <g
         transform="matrix(0,1.2498363,1.2498363,0,54.786474,171.56264)"
         style="fill:#bf94c4;fill-rule:nonzero;stroke:none"
         class="ps04"
         id="q129">
        <g
           transform="translate(322.245,181.793)"
           id="xfrm130">
          <path
             style="fill:#221f1f;fill-rule:nonzero;stroke:none"
             id="path282"
             class="ps03"
             d="M 0,0 C 0.928,0 1.994,0 2.527,-1.066 C 2.655,-2.122 2.527,-3.593 1.194,-3.86 C -0.267,-4.393 -0.672,-3.188 -1.333,-2.26 C -1.599,-1.333 -0.938,-0.267 0,0" />
        </g>
      </g>
      <g
         transform="matrix(0,1.2498363,1.2498363,0,54.786474,171.56264)"
         style="fill:#bf94c4;fill-rule:nonzero;stroke:none"
         class="ps04"
         id="q131">
        <g
           transform="translate(320.912,333.874)"
           id="xfrm132">
          <path
             style="fill:#ffffff;fill-rule:nonzero;stroke:none"
             id="path286"
             class="ps02"
             d="M 0,0 C 0.394,0 0.8,0.128 0.927,-0.267 L 0,-0.672 L 0,0" />
        </g>
      </g>
      <g
         transform="matrix(0,1.2498363,1.2498363,0,54.786474,171.56264)"
         style="fill:#bf94c4;fill-rule:nonzero;stroke:none"
         class="ps04"
         id="q133">
        <g
           transform="translate(334.624,150.37)"
           id="xfrm134">
          <path
             style="fill:#e78826;fill-rule:nonzero;stroke:none"
             id="path290"
             class="ps08"
             d="M 0,0 C 8.391,-1.471 15.45,1.994 21.442,7.059 C 23.308,5.459 23.308,1.994 22.775,-0.533 C 19.448,-3.998 13.723,-4.926 9.052,-3.465 C 11.718,-2.666 15.982,-1.333 19.182,0.395 C 19.31,0.928 18.648,1.194 18.244,1.599 C 12.922,0.139 7.73,-1.471 1.994,-2.132 L 3.198,-3.732 C 1.866,-4.393 0.533,-6.131 0.671,-7.986 C 1.994,-9.458 3.06,-6.792 4.531,-6.653 C 12.251,-4.798 19.448,-7.72 23.702,-13.979 C 24.236,-15.845 24.908,-18.638 23.702,-20.376 C 20.642,-20.238 18.648,-17.444 15.717,-16.911 C 7.325,-14.65 -1.194,-12.923 -9.853,-11.452 C -12.251,-10.119 -14.384,-7.059 -12.113,-4.798 C -8.787,-1.194 -4.254,-1.066 0,0" />
        </g>
      </g>
      <g
         transform="matrix(0,1.2498363,1.2498363,0,54.786474,171.56264)"
         style="fill:#bf94c4;fill-rule:nonzero;stroke:none"
         class="ps04"
         id="q135">
        <g
           transform="translate(333.024,367.163)"
           id="xfrm136">
          <path
             style="fill:#221f1f;fill-rule:nonzero;stroke:none"
             id="path294"
             class="ps03"
             d="M 0,0 C 4.393,0.266 8.797,-0.928 12.251,-3.86 C 8.797,-2.794 4.531,-0.8 0,-0.661 L 0,0" />
        </g>
      </g>
      <g
         transform="matrix(0,1.2498363,1.2498363,0,54.786474,171.56264)"
         style="fill:#bf94c4;fill-rule:nonzero;stroke:none"
         class="ps04"
         id="q137">
        <g
           transform="translate(335.69,140.518)"
           id="xfrm138">
          <path
             style="fill:#221f1f;fill-rule:nonzero;stroke:none"
             id="path298"
             class="ps03"
             d="M 0,0 C 6.525,0.533 12.923,-1.471 17.849,-5.726 C 13.179,-2.666 5.726,-2.794 0,-0.672 L 0,0" />
        </g>
      </g>
      <g
         transform="matrix(0,1.2498363,1.2498363,0,54.786474,171.56264)"
         style="fill:#bf94c4;fill-rule:nonzero;stroke:none"
         class="ps04"
         id="q139">
        <g
           transform="translate(356.066,370.628)"
           id="xfrm140">
          <path
             style="fill:#f15528;fill-rule:nonzero;stroke:none"
             id="path302"
             class="ps09"
             d="M 0,0 C 0.661,-0.405 0.8,-0.928 0.661,-1.599 C -0.138,-2.932 -1.471,-1.866 -2.26,-1.333 C -2.132,0.139 -1.194,0 0,0" />
        </g>
      </g>
      <g
         transform="matrix(0,1.2498363,1.2498363,0,54.786474,171.56264)"
         style="fill:#bf94c4;fill-rule:nonzero;stroke:none"
         class="ps04"
         id="q141">
        <g
           transform="translate(394.815,191.923)"
           id="xfrm142" />
      </g>
      <g
         transform="matrix(0,1.2498363,1.2498363,0,54.786474,171.56264)"
         style="fill:#bf94c4;fill-rule:nonzero;stroke:none"
         class="ps04"
         id="q143">
        <g
           transform="translate(361.792,145.977)"
           id="xfrm144">
          <path
             style="fill:#f15528;fill-rule:nonzero;stroke:none"
             id="path310"
             class="ps09"
             d="M 0,0 C 1.194,-0.139 3.061,0.395 2.932,-1.333 C 2.932,-2.527 1.994,-2.932 1.067,-3.593 C -2.132,-4.66 -3.465,-0.405 0,0" />
        </g>
      </g>
      <g
         transform="matrix(0,1.2498363,1.2498363,0,54.786474,171.56264)"
         style="fill:#bf94c4;fill-rule:nonzero;stroke:none"
         class="ps04"
         id="q145">
        <g
           transform="translate(364.458,370.362)"
           id="xfrm146">
          <path
             style="fill:#50b84a;fill-rule:nonzero;stroke:none"
             id="path314"
             class="ps013"
             d="M 0,0 C 3.721,0 7.325,0 10.514,-1.333 C 11.58,-2.666 11.718,-4.393 12.113,-6.12 C 8.786,-8.125 5.854,-5.193 2.527,-5.193 C 1.333,-4.265 -5.992,-0.928 0,0" />
        </g>
      </g>
      <g
         transform="matrix(0,1.2498363,1.2498363,0,54.786474,171.56264)"
         style="fill:#bf94c4;fill-rule:nonzero;stroke:none"
         class="ps04"
         id="q147">
        <g
           transform="translate(376.176,151.031)"
           id="xfrm148">
          <path
             style="fill:#50b84a;fill-rule:nonzero;stroke:none"
             id="path318"
             class="ps013"
             d="M 0,0 C 3.188,0.405 5.993,-0.267 8.392,-1.855 C 5.321,-4.926 0.267,-6.92 -3.732,-5.054 C -4.531,-2.527 -1.471,-0.928 0,0" />
        </g>
      </g>
      <g
         transform="matrix(0,1.2498363,1.2498363,0,54.786474,171.56264)"
         style="fill:#bf94c4;fill-rule:nonzero;stroke:none"
         class="ps04"
         id="q149">
        <g
           transform="translate(380.697,159.028)"
           id="xfrm150">
          <path
             style="fill:#50b84a;fill-rule:nonzero;stroke:none"
             id="path322"
             class="ps013"
             d="M 0,0 C 3.199,0.267 6.131,-0.672 7.731,-3.465 C 8.264,-5.065 6.792,-5.992 5.726,-6.664 C 2.4,-7.197 -1.056,-6.259 -3.455,-3.86 C -4.521,-1.205 -1.461,-0.405 0,0" />
        </g>
      </g>
      <g
         transform="matrix(0,1.2498363,1.2498363,0,54.786474,171.56264)"
         style="fill:#bf94c4;fill-rule:nonzero;stroke:none"
         class="ps04"
         id="q151">
        <g
           transform="translate(384.163,360.776)"
           id="xfrm152">
          <path
             style="fill:#50b84a;fill-rule:nonzero;stroke:none"
             id="path326"
             class="ps013"
             d="M 0,0 C 3.732,-0.139 7.858,-0.8 10.918,-3.199 C 11.057,-4.532 9.724,-5.598 8.658,-6.131 C 3.199,-6.792 -2.932,-6.792 -6.92,-2.932 C -6.654,0.267 -2.26,-1.205 0,0" />
        </g>
      </g>
      <g
         transform="matrix(0,1.2498363,1.2498363,0,54.786474,171.56264)"
         style="fill:#bf94c4;fill-rule:nonzero;stroke:none"
         class="ps04"
         id="q153">
        <g
           transform="translate(379.109,373.827)"
           id="xfrm154">
          <path
             style="fill:#50b84a;fill-rule:nonzero;stroke:none"
             id="path330"
             class="ps013"
             d="M 0,0 C 1.994,-0.139 2.921,-2.399 3.86,-3.86 C 3.86,-6.259 6.387,-8.125 5.46,-10.524 C 1.994,-10.119 0.394,-6.931 -0.938,-4.126 C -0.672,-2.794 -1.739,-0.266 0,0" />
        </g>
      </g>
      <g
         transform="matrix(0,1.2498363,1.2498363,0,54.786474,171.56264)"
         style="fill:#bf94c4;fill-rule:nonzero;stroke:none"
         class="ps04"
         id="q155">
        <g
           transform="translate(384.834,372.494)"
           id="xfrm156">
          <path
             style="fill:#50b84a;fill-rule:nonzero;stroke:none"
             id="path334"
             class="ps013"
             d="M 0,0 C 4.788,-0.938 9.585,-5.598 11.185,-10.119 C 11.047,-11.185 11.452,-12.518 10.918,-13.318 C 6.12,-10.258 -0.405,-6.664 0,0" />
        </g>
      </g>
      <g
         transform="matrix(0,1.2498363,1.2498363,0,54.786474,171.56264)"
         style="fill:#bf94c4;fill-rule:nonzero;stroke:none"
         class="ps04"
         id="q157">
        <g
           transform="translate(387.756,351.457)"
           id="xfrm158">
          <path
             style="fill:#50b84a;fill-rule:nonzero;stroke:none"
             id="path338"
             class="ps013"
             d="M 0,0 C 5.46,0.395 12.252,1.322 15.589,-3.87 C 15.855,-4.798 15.45,-5.459 14.651,-6.131 C 8.392,-8.125 2.538,-5.459 -2.26,-2.271 C -3.06,-0.533 -0.928,-0.266 0,0" />
        </g>
      </g>
      <g
         transform="matrix(0,1.2498363,1.2498363,0,54.786474,171.56264)"
         style="fill:#bf94c4;fill-rule:nonzero;stroke:none"
         class="ps04"
         id="q159">
        <g
           transform="translate(402.812,168.347)"
           id="xfrm160">
          <path
             style="fill:#50b84a;fill-rule:nonzero;stroke:none"
             id="path342"
             class="ps013"
             d="M 0,0 C 1.066,-1.066 -0.8,-2.932 -0.673,-4.532 C -3.998,-8.125 -9.33,-9.458 -14.384,-8.391 C -15.984,-7.72 -15.589,-6.12 -15.056,-4.798 C -11.058,-0.8 -5.46,-0.661 0,0" />
        </g>
      </g>
      <g
         transform="matrix(0,1.2498363,1.2498363,0,54.786474,171.56264)"
         style="fill:#bf94c4;fill-rule:nonzero;stroke:none"
         class="ps04"
         id="q161">
        <g
           transform="translate(395.081,158.09)"
           id="xfrm162">
          <path
             style="fill:#50b84a;fill-rule:nonzero;stroke:none"
             id="path346"
             class="ps013"
             d="M 0,0 C 1.206,0.139 2.538,0 2.933,-1.333 C 3.465,-6.12 -1.066,-9.714 -4.521,-12.113 C -7.453,-11.58 -6.387,-7.581 -5.726,-5.726 C -4.521,-3.593 -2.132,-1.194 0,0" />
        </g>
      </g>
      <g
         transform="matrix(0,1.2498363,1.2498363,0,54.786474,171.56264)"
         style="fill:#bf94c4;fill-rule:nonzero;stroke:none"
         class="ps04"
         id="q163">
        <g
           transform="translate(408.132,178.605)"
           id="xfrm164">
          <path
             style="fill:#50b84a;fill-rule:nonzero;stroke:none"
             id="path350"
             class="ps013"
             d="M 0,0 C 0.671,-0.533 0.267,-1.599 0.405,-2.271 C -3.199,-6.131 -7.326,-9.458 -12.784,-7.997 C -13.446,-7.325 -13.446,-6.259 -12.784,-5.459 C -8.925,-2.666 -5.459,1.066 0,0" />
        </g>
      </g>
      <g
         transform="matrix(0,1.2498363,1.2498363,0,54.786474,171.56264)"
         style="fill:#bf94c4;fill-rule:nonzero;stroke:none"
         class="ps04"
         id="q165">
        <g
           transform="translate(398.013,341.594)"
           id="xfrm166">
          <path
             style="fill:#50b84a;fill-rule:nonzero;stroke:none"
             id="path354"
             class="ps013"
             d="M 0,0 C 4.531,1.866 9.991,0.533 13.979,-1.589 C 15.311,-2.655 15.844,-3.86 15.578,-5.459 C 9.991,-4.66 2.932,-5.193 0,0" />
        </g>
      </g>
      <g
         transform="matrix(0,1.2498363,1.2498363,0,54.786474,171.56264)"
         style="fill:#bf94c4;fill-rule:nonzero;stroke:none"
         class="ps04"
         id="q167">
        <g
           transform="translate(401.212,363.569)"
           id="xfrm168">
          <path
             style="fill:#50b84a;fill-rule:nonzero;stroke:none"
             id="path358"
             class="ps013"
             d="M 0,0 C 3.86,-1.599 5.854,-5.854 8.253,-8.925 C 8.786,-11.452 8.786,-14.917 6.92,-16.644 C 2.921,-13.051 -3.071,-9.447 -2.004,-2.794 C -1.738,-1.727 -1.333,-0.394 0,0" />
        </g>
      </g>
      <g
         transform="matrix(0,1.2498363,1.2498363,0,54.786474,171.56264)"
         style="fill:#bf94c4;fill-rule:nonzero;stroke:none"
         class="ps04"
         id="q169">
        <g
           transform="translate(408.132,169.009)"
           id="xfrm170">
          <path
             style="fill:#50b84a;fill-rule:nonzero;stroke:none"
             id="path362"
             class="ps013"
             d="M 0,0 C 1.333,-6.515 -1.994,-11.846 -5.055,-17.039 C -7.453,-17.039 -5.587,-14.245 -6.653,-13.179 C -5.459,-8.381 -3.199,-3.455 0,0" />
        </g>
      </g>
      <g
         transform="matrix(0,1.2498363,1.2498363,0,54.786474,171.56264)"
         style="fill:#bf94c4;fill-rule:nonzero;stroke:none"
         class="ps04"
         id="q171">
        <g
           transform="translate(414.924,188.457)"
           id="xfrm172">
          <path
             style="fill:#50b84a;fill-rule:nonzero;stroke:none"
             id="path366"
             class="ps013"
             d="M 0,0 L 5.726,-0.672 C 4.531,-3.86 0.672,-4.926 -1.994,-7.059 C -5.054,-7.059 -8.52,-8.519 -10.524,-5.726 C -8.786,-1.866 -4.265,-0.139 0,0" />
        </g>
      </g>
      <g
         transform="matrix(0,1.2498363,1.2498363,0,54.786474,171.56264)"
         style="fill:#bf94c4;fill-rule:nonzero;stroke:none"
         class="ps04"
         id="q173">
        <g
           transform="translate(407.599,331.347)"
           id="xfrm174">
          <path
             style="fill:#50b84a;fill-rule:nonzero;stroke:none"
             id="path370"
             class="ps013"
             d="M 0,0 C 6.398,0 12.657,-0.8 16.911,-5.459 C 17.05,-7.059 16.783,-8.53 14.917,-8.392 C 8.392,-8.392 3.338,-5.065 -1.994,-2.005 C -2.527,-0.533 -1.066,0 0,0" />
        </g>
      </g>
      <g
         transform="matrix(0,1.2498363,1.2498363,0,54.786474,171.56264)"
         style="fill:#bf94c4;fill-rule:nonzero;stroke:none"
         class="ps04"
         id="q175">
        <g
           transform="translate(413.591,352.779)"
           id="xfrm176">
          <path
             style="fill:#50b84a;fill-rule:nonzero;stroke:none"
             id="path374"
             class="ps013"
             d="M 0,0 C 2.793,0.139 4.126,-2.922 5.193,-4.788 C 6.664,-8.648 9.191,-12.774 7.73,-17.039 C 4.66,-17.178 2.399,-13.712 0,-11.58 C -2.122,-8.253 -2.527,-3.327 0,0" />
        </g>
      </g>
      <g
         transform="matrix(0,1.2498363,1.2498363,0,54.786474,171.56264)"
         style="fill:#bf94c4;fill-rule:nonzero;stroke:none"
         class="ps04"
         id="q177">
        <g
           transform="translate(419.723,182.998)"
           id="xfrm178">
          <path
             style="fill:#50b84a;fill-rule:nonzero;stroke:none"
             id="path378"
             class="ps013"
             d="M 0,0 C 3.86,-5.864 0,-12.518 -2.932,-17.583 C -3.998,-18.649 -4.927,-20.11 -6.792,-19.449 C -7.858,-16.516 -7.464,-12.656 -7.059,-9.586 C -4.798,-6.397 -4.126,-1.599 0,0" />
        </g>
      </g>
      <g
         transform="matrix(0,1.2498363,1.2498363,0,54.786474,171.56264)"
         style="fill:#bf94c4;fill-rule:nonzero;stroke:none"
         class="ps04"
         id="q179">
        <g
           transform="translate(430.907,203.108)"
           id="xfrm180">
          <path
             style="fill:#50b84a;fill-rule:nonzero;stroke:none"
             id="path382"
             class="ps013"
             d="M 0,0 L 1.599,0 C 2.132,-4.67 -3.465,-8.391 -6.397,-11.185 C -8.519,-11.985 -10.919,-13.456 -13.456,-12.39 C -14.384,-11.857 -14.65,-10.663 -14.117,-9.852 C -9.99,-5.726 -5.726,-0.938 0,0" />
        </g>
      </g>
      <g
         transform="matrix(0,1.2498363,1.2498363,0,54.786474,171.56264)"
         style="fill:#bf94c4;fill-rule:nonzero;stroke:none"
         class="ps04"
         id="q181">
        <g
           transform="translate(426.375,188.724)"
           id="xfrm182">
          <path
             style="fill:#50b84a;fill-rule:nonzero;stroke:none"
             id="path386"
             class="ps013"
             d="M 0,0 C 2.005,-0.533 1.206,-3.998 3.199,-5.331 C 4.393,-10.524 1.6,-14.778 -0.661,-18.777 C -2.26,-19.31 -2.132,-17.444 -2.527,-16.516 C -2.527,-11.452 -3.06,-4.532 0,0" />
        </g>
      </g>
      <g
         transform="matrix(0,1.2498363,1.2498363,0,54.786474,171.56264)"
         style="fill:#bf94c4;fill-rule:nonzero;stroke:none"
         class="ps04"
         id="q183">
        <g
           transform="translate(428.914,340.005)"
           id="xfrm184">
          <path
             style="fill:#50b84a;fill-rule:nonzero;stroke:none"
             id="path390"
             class="ps013"
             d="M 0,0 C 4.521,-4.532 5.054,-11.857 3.188,-17.583 C 3.326,-18.916 1.727,-19.843 0.66,-18.916 C -1.205,-18.244 0.256,-16.122 -0.533,-15.056 C -1.738,-13.456 -3.604,-12.124 -3.732,-9.991 C -3.199,-6.398 -3.604,-0.938 0,0" />
        </g>
      </g>
      <g
         transform="matrix(0,1.2498363,1.2498363,0,54.786474,171.56264)"
         style="fill:#bf94c4;fill-rule:nonzero;stroke:none"
         class="ps04"
         id="q185">
        <g
           transform="translate(430.502,302.579)"
           id="xfrm186">
          <path
             style="fill:#c59b4d;fill-rule:nonzero;stroke:none"
             id="path394"
             class="ps014"
             d="M 0,0 C 8.124,0.661 14.789,-4.532 18.649,-11.185 C 18.51,-14.384 15.45,-16.644 13.19,-18.51 C 11.185,-15.578 11.985,-10.79 9.991,-7.325 C 6.792,-9.586 3.604,-9.852 -0.267,-9.586 C -2.122,-8.519 -4.521,-6.92 -4.393,-4.126 C -4.66,-1.461 -2.122,-0.394 0,0" />
        </g>
      </g>
      <g
         transform="matrix(0,1.2498363,1.2498363,0,54.786474,171.56264)"
         style="fill:#bf94c4;fill-rule:nonzero;stroke:none"
         class="ps04"
         id="q187">
        <g
           transform="translate(431.568,226.811)"
           id="xfrm188">
          <path
             style="fill:#c59b4d;fill-rule:nonzero;stroke:none"
             id="path398"
             class="ps014"
             d="M 0,0 C 4.137,0.8 7.731,-1.599 11.185,-3.465 C 12.518,-1.738 10.524,1.066 11.185,3.86 L 12.785,10.918 C 15.589,11.185 16.388,7.858 18.116,6.387 C 18.116,0.928 17.583,-4.265 13.723,-7.997 C 10.119,-11.985 5.46,-11.324 0.533,-10.918 C -0.927,-10.385 -2.527,-9.596 -3.188,-7.997 C -3.188,-4.926 -2.527,-1.738 0,0" />
        </g>
      </g>
      <g
         transform="matrix(0,1.2498363,1.2498363,0,54.786474,171.56264)"
         style="fill:#bf94c4;fill-rule:nonzero;stroke:none"
         class="ps04"
         id="q189">
        <g
           transform="translate(430.236,193.916)"
           id="xfrm190">
          <path
             style="fill:#ffffff;fill-rule:nonzero;stroke:none"
             id="path402"
             class="ps02"
             d="M 0,0 C 0.533,-0.267 0.267,-0.938 0.267,-1.333 L -0.661,-1.333 C -0.8,-0.661 -0.395,-0.395 0,0" />
        </g>
      </g>
      <g
         transform="matrix(0,1.2498363,1.2498363,0,54.786474,171.56264)"
         style="fill:#bf94c4;fill-rule:nonzero;stroke:none"
         class="ps04"
         id="q191">
        <g
           transform="translate(432.101,243.455)"
           id="xfrm192">
          <path
             style="fill:#fec564;fill-rule:nonzero;stroke:none"
             id="path406"
             class="ps05"
             d="M 0,0 C 3.061,1.333 6.131,-0.8 8.658,-2.538 C 8.392,-6.525 8.125,-10.385 6.398,-13.712 C 3.733,-13.446 1.067,-12.39 -1.599,-12.785 L 0,0" />
        </g>
      </g>
      <g
         transform="matrix(0,1.2498363,1.2498363,0,54.786474,171.56264)"
         style="fill:#bf94c4;fill-rule:nonzero;stroke:none"
         class="ps04"
         id="q193">
        <g
           transform="translate(430.907,289.4)"
           id="xfrm194">
          <path
             style="fill:#fec564;fill-rule:nonzero;stroke:none"
             id="path410"
             class="ps05"
             d="M 0,0 C 3.06,-1.471 9.319,3.593 8.658,-3.199 C 8.392,-6.398 10.919,-10.929 5.992,-12.123 C 4.927,-12.251 3.732,-12.518 2.527,-12.39 C 1.728,-8.263 0.395,-4.265 0,0" />
        </g>
      </g>
      <g
         transform="matrix(0,1.2498363,1.2498363,0,54.786474,171.56264)"
         style="fill:#bf94c4;fill-rule:nonzero;stroke:none"
         class="ps04"
         id="q195">
        <g
           transform="translate(435.034,196.444)"
           id="xfrm196">
          <path
             style="fill:#50b84a;fill-rule:nonzero;stroke:none"
             id="path414"
             class="ps013"
             d="M 0,0 C 2.399,0.139 1.866,-2.527 2.932,-3.86 C 2.932,-8.391 4.799,-14.384 0.267,-16.644 C -3.199,-12.518 -3.465,-3.998 0,0" />
        </g>
      </g>
      <g
         transform="matrix(0,1.2498363,1.2498363,0,54.786474,171.56264)"
         style="fill:#bf94c4;fill-rule:nonzero;stroke:none"
         class="ps04"
         id="q197">
        <g
           transform="translate(313.182,179.234)"
           id="xfrm198">
          <path
             style="fill:#221f1f;fill-rule:nonzero;stroke:none"
             id="path418"
             class="ps03"
             d="M 0,0 L -2.517,-0.267 L -0.576,-7.059 L 0,0 z M -7.71,2.623 L -7.699,2.335 C -8.115,2.399 -8.466,2.431 -8.765,2.42 C -9.863,2.388 -10.119,1.674 -10.066,0.213 L -9.65,-11.601 L -13.84,-11.75 L -14.267,0.384 C -14.405,4.212 -13.393,5.704 -9.757,5.832 C -9.117,5.854 -8.488,5.832 -7.848,5.758 L -4.446,6.12 L -3.455,2.708 L 0.341,3.113 L 0.66,6.653 L 4.126,7.016 L 2.058,-10.577 L -3.327,-11.142 L -7.71,2.623 z M 26.582,148.41 L 24.203,149.28 L 22.967,142.31 L 26.582,148.41 z M 33.363,152.9 L 23.799,138 L 18.713,139.84 L 21.272,157.31 L 25.27,155.86 L 24.662,152.36 L 28.255,151.05 L 30.1,154.1 L 33.363,152.9 z M 38.161,150.72 L 41.914,148.81 L 37.746,131.53 L 34.035,133.42 L 37.319,145.11 L 29.78,135.59 L 26.624,137.2 L 38.161,150.72 z M 51.521,139.66 C 50.114,140.62 48.909,139.2 46.745,135.99 C 44.57,132.77 43.695,131.11 45.113,130.16 C 46.531,129.2 47.758,130.62 49.933,133.84 C 52.097,137.05 52.94,138.71 51.521,139.66 z M 53.366,142.34 C 56.895,139.96 56.981,136.3 53.632,131.34 C 50.285,126.37 46.851,125.06 43.311,127.45 C 39.782,129.83 39.686,133.52 43.034,138.49 C 46.382,143.44 49.826,144.72 53.366,142.34 z M 70.959,126.83 L 58.73,114.61 L 56.245,117.11 L 59.657,127.07 L 52.961,120.38 L 50.572,122.77 L 62.792,135 L 65.191,132.6 L 61.704,122.37 L 68.56,129.23 L 70.959,126.83 z M 76.995,106.39 L 75.8,108.63 L 70.234,104.28 L 76.995,106.39 z M 85.034,105.2 L 67.953,100.52 L 65.404,105.29 L 78.999,116.56 L 80.993,112.8 L 78.21,110.61 L 80.002,107.23 L 83.414,108.27 L 85.034,105.2 z M 89.353,91.4 L 72.74,86.634 L 71.578,90.686 L 85.024,94.545 L 83.488,99.898 L 86.655,100.82 L 89.353,91.4 z M 83.85,69.659 L 84.064,72.186 L 77.027,71.578 L 83.85,69.659 z M 89.949,64.274 L 73.06,69.659 L 73.54,75.044 L 91.069,77.101 L 90.696,72.858 L 87.167,72.538 L 86.826,68.731 L 90.248,67.74 L 89.949,64.274 z M 73.23,57.162 L 76.781,55.872 L 77.016,56.523 C 77.634,58.207 77.485,59.145 76.141,59.636 C 74.798,60.127 74.084,59.508 73.465,57.813 L 73.23,57.162 z M 85.012,48.366 L 68.773,54.283 L 70.853,59.988 C 72.079,63.368 74.489,64.669 77.272,63.656 C 79.18,62.963 80.214,61.609 80.214,59.721 L 89.043,59.444 L 87.615,55.51 L 79.809,56.192 L 79.35,54.913 L 86.452,52.332 L 85.012,48.366 z M 76.483,38.919 C 77.41,40.347 75.982,41.52 72.729,43.631 C 69.478,45.753 67.793,46.596 66.865,45.167 C 65.937,43.738 67.377,42.523 70.629,40.411 C 73.881,38.3 75.555,37.49 76.483,38.919 z M 79.191,37.127 C 76.877,33.555 73.22,33.406 68.198,36.658 C 63.176,39.921 61.811,43.344 64.125,46.916 C 66.45,50.488 70.139,50.648 75.16,47.385 C 80.182,44.122 81.515,40.699 79.191,37.127 z M 60.36,16.282 L 48.578,28.928 L 52.801,32.862 L 60.659,27.168 L 55.68,35.549 L 59.689,39.292 L 71.482,26.646 L 68.635,24.002 L 59.977,33.619 L 66.524,22.029 L 64.636,20.27 L 53.995,27.808 L 62.707,18.468 L 60.36,16.282 z M 40.922,3.956 L 32.543,19.075 L 41.542,24.066 L 43.14,21.187 L 37.82,18.233 L 39.462,15.29 L 43.002,17.252 L 44.602,14.373 L 41.051,12.401 L 43.002,8.882 L 48.323,11.835 L 49.922,8.946 L 40.922,3.956 z M 24.684,12.358 L 28.8,2.175 L 29.205,2.335 C 31.23,3.156 31.188,4.915 29.759,8.466 C 28.32,12.017 27.115,13.339 25.089,12.518 L 24.684,12.358 z M 19.598,13.701 L 24.161,15.546 C 28.394,17.252 31.785,15.375 33.896,10.14 C 36.007,4.905 34.866,1.226 30.633,-0.48 L 26.07,-2.325 L 19.598,13.701 z M -5.535,153.88 L -3.008,153.66 L -3.615,160.71 L -5.535,153.88 z M -10.919,147.78 L -5.535,164.66 L -0.15,164.19 L 1.897,146.66 L -2.346,147.04 L -2.655,150.57 L -6.472,150.9 L -7.454,147.49 L -10.919,147.78 z M -21.113,147.72 L -21.411,165 L -17.199,165.08 L -16.954,151.1 L -11.377,151.2 L -11.324,147.89 L -21.113,147.72 z M -27.35,147.22 L -28.853,164.44 L -24.61,164.81 L -23.106,147.59 L -27.35,147.22 z M -31.764,146.67 L -35.944,146.09 L -42.427,162.64 L -38.301,163.21 L -34.291,151.76 L -33.577,163.87 L -30.069,164.38 L -31.764,146.67 z M -54.358,141.38 L -59.412,157.9 L -55.382,159.14 L -51.287,145.76 L -45.956,147.39 L -44.997,144.24 L -54.358,141.38 z M -64.925,144.13 L -62.589,145.12 L -66.428,151.05 L -64.925,144.13 z M -66.813,136.21 L -69.99,153.65 L -65,155.76 L -54.966,141.25 L -58.89,139.58 L -60.82,142.55 L -64.338,141.06 L -63.613,137.57 L -66.813,136.21 z M -70.981,133.68 L -79.362,148.8 L -75.641,150.87 L -67.26,135.75 L -70.981,133.68 z M -80.695,127.4 L -90.355,141.73 L -81.825,147.49 L -79.981,144.76 L -85.024,141.35 L -83.137,138.56 L -79.778,140.82 L -77.933,138.09 L -81.292,135.82 L -79.043,132.49 L -73.999,135.88 L -72.154,133.16 L -80.695,127.4 z M -96.998,131.76 L -94.418,129 L -93.917,129.47 C -92.605,130.69 -92.307,131.6 -93.287,132.64 C -94.258,133.69 -95.185,133.45 -96.497,132.23 L -96.998,131.76 z M -90.494,118.57 L -102.29,131.21 L -97.83,135.36 C -95.207,137.8 -92.466,137.88 -90.451,135.71 C -89.065,134.22 -88.767,132.55 -89.609,130.86 L -81.868,126.61 L -84.938,123.75 L -91.571,127.9 L -92.573,126.97 L -87.412,121.45 L -90.494,118.57 z M -105.08,109.88 L -103.74,112.02 L -110.28,114.68 L -105.08,109.88 z M -102.1,102.31 L -114.69,114.76 L -111.82,119.36 L -95.271,113.23 L -97.531,109.61 L -100.82,110.93 L -102.84,107.69 L -100.25,105.25 L -102.1,102.31 z M -105.84,92.264 L -122.08,98.171 L -120.64,102.14 L -107.49,97.35 L -105.59,102.58 L -102.49,101.46 L -105.84,92.264 z M -108.14,74.105 L -125.4,75.011 L -124.86,85.29 L -121.57,85.12 L -121.88,79.042 L -118.53,78.871 L -118.31,82.923 L -115.02,82.742 L -115.23,78.701 L -111.21,78.487 L -110.89,84.555 L -107.6,84.384 L -108.14,74.105 z M -120.32,61.161 L -109.57,63.443 L -109.66,63.869 C -110.11,66.012 -111.86,66.279 -115.6,65.479 C -119.35,64.679 -120.86,63.73 -120.4,61.587 L -120.32,61.161 z M -122.52,56.384 L -123.55,61.203 C -124.5,65.66 -122.05,68.678 -116.53,69.851 C -111.01,71.024 -107.59,69.254 -106.64,64.797 L -105.61,59.977 L -122.52,56.384 z M -98.907,45.775 L -111.02,38.78 L -109.26,35.73 L -112.12,34.078 L -117.75,43.834 L -114.89,45.476 L -113.13,42.427 L -101.02,49.421 L -98.907,45.775 z M -88.606,32.681 L -101.65,21.336 L -103.96,24.002 L -99.856,33.694 L -107,27.488 L -109.22,30.047 L -96.177,41.382 L -93.949,38.833 L -98.139,28.874 L -90.825,35.229 L -88.606,32.681 z M -79.373,24.982 L -90.259,11.558 L -98.257,18.03 L -96.177,20.6 L -91.454,16.772 L -89.332,19.385 L -92.488,21.944 L -90.408,24.503 L -87.263,21.954 L -84.726,25.078 L -89.449,28.906 L -87.38,31.465 L -79.373,24.982 z M -64.338,15.791 L -72.986,0.821 L -77.987,3.711 L -74.842,12.902 L -81.399,5.683 L -86.144,8.423 L -77.507,23.394 L -74.138,21.453 L -80.812,10.353 L -71.642,20.014 L -69.404,18.724 L -73.508,6.334 L -67.11,17.391 L -64.338,15.791 z M -58.517,6.579 L -60.863,7.528 L -62.345,0.618 L -58.517,6.579 z M -51.586,10.833 L -61.662,-3.732 L -66.684,-1.706 L -63.518,15.653 L -59.573,14.064 L -60.298,10.588 L -56.757,9.159 L -54.806,12.134 L -51.586,10.833 z M -45.753,9.351 L -49.613,-4.095 L -46.223,-5.065 L -47.14,-8.232 L -57.962,-5.129 L -57.056,-1.962 L -53.665,-2.932 L -49.805,10.513 L -45.753,9.351 z M -29.728,6.227 L -32.425,-10.844 L -35.912,-10.3 L -39.004,-0.235 L -40.476,-9.575 L -43.824,-9.042 L -41.126,8.029 L -37.778,7.496 L -34.59,-2.826 L -33.065,6.749 L -29.728,6.227 z M -21.539,-11.58 L -20.91,0.362 C -20.824,1.983 -21.272,2.751 -22.562,2.826 C -23.842,2.889 -24.343,2.165 -24.428,0.544 L -25.057,-11.388 L -28.576,-11.206 L -27.915,1.354 C -27.755,4.425 -25.601,6.28 -22.04,6.099 C -18.479,5.907 -16.506,3.839 -16.666,0.768 L -17.327,-11.793 L -21.539,-11.58" />
        </g>
      </g>
      <g
         transform="matrix(0,1.2498363,1.2498363,0,54.786474,171.56264)"
         style="fill:#bf94c4;fill-rule:nonzero;stroke:none"
         class="ps04"
         id="q199">
        <g
           transform="translate(373.361,228.943)"
           id="xfrm200">
          <path
             style="fill:#221f1f;fill-rule:nonzero;stroke:none"
             id="path422"
             class="ps03"
             d="M 0,0 L 1.941,-4.254 L 3.423,-1.962 L 2.282,3.508 L 0,0" />
        </g>
      </g>
    </g>
  </g>
</svg>
