<?xml version="1.0" encoding="utf-8"?><svg xmlns="http://www.w3.org/2000/svg" version="1.1" viewBox="0 0 600 810"><g stroke="#000" stroke-linecap="round" stroke-linejoin="round"><path d="m126.1929 203c0-7.0122 38.1058-21.2714 173.8071-21.2714 135.7012 0 173.8071 14.2592 173.8071 21.2714s-38.1058 21.2714-173.8071 21.2714-173.8071-14.2592-173.8071-21.2713z" fill="#e5e5e5"/><g fill="none"><path d="m147.422 193.829v18.341" stroke-width="5.5"/><path d="m153.859 192.34v21.319" stroke-width="5.25"/><path d="m160.296 191.363v23.273" stroke-width="5"/><path d="m166.733 190.154v25.692" stroke-width="4.75"/><path d="m173.171 189.084v27.832" stroke-width="4.5"/><path d="m179.608 188.153v29.693" stroke-width="4.25"/><path d="m186.045 187.223v31.553" stroke-width="4"/><path d="m192.482 186.432v33.135" stroke-width="3.75"/><path d="m198.92 185.92v34.159" stroke-width="3.5"/><path d="m205.357 185.316v35.368" stroke-width="3.25"/><path d="m211.794 184.385v37.229" stroke-width="3"/><path d="m218.232 183.873v38.253" stroke-width="2.75"/><path d="m224.669 183.641v38.718" stroke-width="2.5"/><path d="m231.106 183.082v39.834" stroke-width="2.25"/><path d="m237.543 182.617v40.765" stroke-width="2"/><path d="m243.981 182.338v41.323" stroke-width="1.75"/><path d="m250.418 181.92v42.16" stroke-width="1.5"/><path d="m256.855 181.64v42.719" stroke-width="1.25"/><path d="m263.292 180.803v44.394"/><path d="m269.73 180.803v44.394" stroke-width=".75"/><path d="m276.167 180.803v44.394" stroke-width=".5"/><path d="m282.604 180.803v44.394" stroke-width=".25"/><path d="m134.547 198.248v9.502" stroke-width="6"/><path d="m140.984 195.876v14.248" stroke-width="5.75"/><path d="m452.579 193.829v18.341" stroke-width="5.5"/><path d="m446.142 192.34v21.319" stroke-width="5.25"/><path d="m439.704 191.363v23.273" stroke-width="5"/><path d="m433.267 190.154v25.692" stroke-width="4.75"/><path d="m426.83 189.084v27.832" stroke-width="4.5"/><path d="m420.393 188.153v29.693" stroke-width="4.25"/><path d="m413.955 187.223v31.553" stroke-width="4"/><path d="m407.518 186.432v33.135" stroke-width="3.75"/><path d="m401.081 185.92v34.159" stroke-width="3.5"/><path d="m394.643 185.316v35.368" stroke-width="3.25"/><path d="m388.206 184.385v37.229" stroke-width="3"/><path d="m381.769 183.873v38.253" stroke-width="2.75"/><path d="m375.332 183.641v38.718" stroke-width="2.5"/><path d="m368.894 183.082v39.834" stroke-width="2.25"/><path d="m362.457 182.617v40.765" stroke-width="2"/><path d="m356.02 182.338v41.323" stroke-width="1.75"/><path d="m349.583 181.92v42.16" stroke-width="1.5"/><path d="m343.145 181.64v42.719" stroke-width="1.25"/><path d="m336.708 180.803v44.394"/><path d="m330.271 180.803v44.394" stroke-width=".75"/><path d="m323.834 180.803v44.394" stroke-width=".5"/><path d="m317.396 180.803v44.394" stroke-width=".25"/><path d="m465.453 198.248v9.502" stroke-width="6"/><path d="m459.016 195.876v14.248" stroke-width="5.75"/></g><g><path d="m418.459 117.1259c16.9383-13.8178 35.633-34.5719 48.1799-57.5675l11.4263-7.9287 11.9579-.1129-11.4136 36.0031-30.3785 33.0079z" fill="#e5e5e5"/><path d="m490.2272 141.2903c5.2951-23.5962 15.96-47.8435 27.3182-72.1748l-12.5476-13.2878-14.9748-4.311c-12.5196 24.1444-24.7951 48.4857-41.7921 69.011z" fill="#e5e5e5"/><path d="m475.7088 46.5874-.0001-3.1504-5.6168-3.6019-2.1845 8.0539z" fill="#e5e5e5"/><path d="m498.6324 48.9249v-5.6873l5.4752-2.6102 2.0631 7.0995z" fill="#e5e5e5"/><path d="m512.3987 57.7528v-5.6873l5.4752-2.6102 2.2452 6.8568z" fill="#e5e5e5"/><path d="m512.5662 79.6352-28.2018-17.0454" fill="none"/><path d="m507.877 90.1549-29.3014-16.4912" fill="none"/><path d="m503.4288 100.6747-30.9633-15.9379" fill="none"/><path d="m499.2657 111.1944-33.3971-15.3837" fill="none"/><path d="m495.5644 121.7142-36.8934-14.8305" fill="none"/><path d="m489.4282 119.3944-8.5365 17.2075" fill="none"/><path d="m498.0018 56.7755-5.3003 10.684" fill="none"/><path d="m509.4053 64.0133-5.2024 10.4868" fill="none"/><path d="m498.3523 71.1811-5.2734 10.6299" fill="none"/><path d="m509.9019 78.1244-5.0807 10.2417" fill="none"/><path d="m486.7938 64.2557-5.4129 10.9113" fill="none"/><path d="m498.8577 85.2748-5.1211 10.3226" fill="none"/><path d="m487.16 78.6298-5.3838 10.8526" fill="none"/><path d="m499.6299 98.8303-5.0664 10.2127" fill="none"/><path d="m487.6651 92.724-5.3353 10.7545" fill="none"/><path d="m475.7468 86.5238-5.576 11.2397" fill="none"/><path d="m485.8334 42.5697-.0001-3.1504-5.6168-3.6019-1.9417 8.1752z" fill="#e5e5e5"/><path d="m517.5454 69.1155c1.1688-2.2443 3.7164-4.0537 6.9543-3.8424l-17.5284-13.5452-16.6302-8.3595-12.6552 2.96-12.4671 7.0099c1.1386.6832 2.9722 3.449 1.4201 6.2202l23.3842-8.0417z" fill="#e5e5e5"/><path d="m490.3412 43.3683c1.2388 1.9731 1.1271 5.3619-.3181 8.1484" fill="none"/><path d="m458.671 106.8838-11.7731-1.1739" fill="none"/><path d="m465.8686 95.8107-12.1847.6582" fill="none"/><path d="m472.4655 84.7368-12.4503 2.162" fill="none"/><path d="m478.5756 73.6637-23.6821 4.5491" fill="none"/><path d="m484.3644 62.5898-23.0812 6.2958" fill="none"/><path d="m466.3795 75.9236 6.4443-10.1269" fill="none"/><path d="m484.1771 53.6257-5.5831 10.467" fill="none"/><path d="m472.485 57.602-5.7156 9.6407" fill="none"/><path d="m472.6551 74.8768-6.6691 10.8565" fill="none"/><path d="m460.8141 77.1399-6.8821 10.8565" fill="none"/><path d="m452.6861 106.2233 7.432-9.9179" fill="none"/><path d="m485.0969 98.7829c-4.8885-2.5379-10.6714-.9645-12.9658 3.5278l-10.6191 20.7919 17.6489 9.1622 10.6191-20.7919c2.2944-4.4924.2058-10.152-4.6831-12.69z" fill="#e5e5e5"/><path d="m464.9384 124.8813 10.7962 5.6047 10.619-20.7918c1.4103-2.7613.1381-6.2341-2.8525-7.7867-2.9906-1.5525-6.5334-.5794-7.9437 2.182z"/><path d="m497.9556 80.3772-5.092 10.0168 5.3923 2.9393 5.474-10.2226c.9398-1.755.5531-3.919-1.157-4.878-1.7103-.9591-3.7157.3709-4.6173 2.1445z"/><path d="m486.2414 73.7664-5.092 10.0168 5.3923 2.9393 5.474-10.2226c.9398-1.755.5531-3.919-1.157-4.878-1.7103-.9591-3.7157.3709-4.6173 2.1445z"/><path d="m490.3412 43.3687-25.1223 9.9692v-11.5688l4.8732-1.9338.0001 5.7846 5.2514-2.0841v-5.7843l4.8731-1.9338.0002 5.7846 5.2512-2.0841v-5.7843l4.8733-1.9338 1.699 6.0871z" fill="#e5e5e5"/><path d="m490.3412 43.3687 34.1585 21.9045.0003-11.5688-6.6261-4.2491v5.7846l-7.1402-4.5789v-5.7843l-6.6261-4.2491v5.7846l-7.1399-4.5789-.0001-5.7843-6.6261-4.2491z" fill="#e5e5e5"/><path d="m181.541 117.1259c-16.9383-13.8178-35.633-34.5719-48.1799-57.5675l-11.4263-7.9287-11.9579-.1129 11.4136 36.0031 30.3785 33.0079z" fill="#e5e5e5"/><path d="m109.7728 141.2903c-5.2951-23.5962-15.96-47.8435-27.3182-72.1748l12.5475-13.2878 14.9748-4.311c12.5196 24.1444 24.7951 48.4857 41.7921 69.011z" fill="#e5e5e5"/><path d="m124.2912 46.5874.0001-3.1504 5.6168-3.6019 2.1845 8.0539z" fill="#e5e5e5"/><path d="m101.3676 48.9249v-5.6873l-5.4752-2.6102-2.0631 7.0995z" fill="#e5e5e5"/><path d="m87.6012 57.7528v-5.6873l-5.4752-2.6102-2.2452 6.8568z" fill="#e5e5e5"/><path d="m87.4337 79.6352 28.2019-17.0454" fill="none"/><path d="m92.123 90.1549 29.3014-16.4912" fill="none"/><path d="m96.5712 100.6747 30.9633-15.9379" fill="none"/><path d="m100.7343 111.1944 33.3971-15.3837" fill="none"/><path d="m104.4356 121.7142 36.8935-14.8305" fill="none"/><path d="m110.5718 119.3944 8.5365 17.2075" fill="none"/><path d="m135.5705 109.3367 7.6418 15.4039" fill="none"/><path d="m101.9982 56.7755 5.3003 10.684" fill="none"/><path d="m90.5947 64.0133 5.2024 10.4867" fill="none"/><path d="m101.6477 71.1811 5.2735 10.6299" fill="none"/><path d="m90.0981 78.1244 5.0807 10.2417" fill="none"/><path d="m113.2062 64.2557 5.4129 10.9113" fill="none"/><path d="m101.1423 85.2748 5.121 10.3226" fill="none"/><path d="m112.84 78.6298 5.3838 10.8526" fill="none"/><path d="m100.3701 98.8303 5.0664 10.2127" fill="none"/><path d="m112.3349 92.724 5.3353 10.7545" fill="none"/><path d="m124.2532 86.5238 5.5759 11.2397" fill="none"/><path d="m114.1666 42.5697.0001-3.1504 5.6168-3.6019 1.9417 8.1752z" fill="#e5e5e5"/><path d="m82.4546 69.1155c-1.1688-2.2443-3.7164-4.0537-6.9543-3.8424l17.5284-13.5452 16.6302-8.3595 12.6552 2.96 12.4672 7.0099c-1.1386.6832-2.9722 3.449-1.4201 6.2202l-23.3842-8.0417z" fill="#e5e5e5"/><path d="m109.6588 43.3683c-1.2388 1.9731-1.1271 5.3619.3181 8.1484" fill="none"/><path d="m141.3291 106.8838 11.7731-1.1739" fill="none"/><path d="m134.1314 95.8107 12.1847.6582" fill="none"/><path d="m127.5345 84.7368 12.4503 2.162" fill="none"/><path d="m121.4244 73.6637 23.6821 4.5491" fill="none"/><path d="m115.6356 62.5898 23.0813 6.2958" fill="none"/><path d="m133.6205 75.9236-6.4443-10.1267" fill="none"/><path d="m115.8229 53.6257 5.5831 10.467" fill="none"/><path d="m127.515 57.602 5.7156 9.6407" fill="none"/><path d="m127.3449 74.8768 6.6691 10.8565" fill="none"/><path d="m139.1859 77.1399 6.8821 10.8565" fill="none"/><path d="m147.3139 106.2233-7.432-9.9179" fill="none"/><path d="m114.9031 98.7829c4.8885-2.5379 10.6714-.9645 12.9658 3.5278l10.6191 20.7919-17.6489 9.1622-10.6191-20.7919c-2.2944-4.4924-.2058-10.152 4.6831-12.69z" fill="#e5e5e5"/><path d="m135.0616 124.8813-10.7962 5.6047-10.619-20.7918c-1.4103-2.7613-.1381-6.2341 2.8525-7.7867 2.9906-1.5525 6.5334-.5794 7.9437 2.182z"/><path d="m102.0444 80.3772 5.092 10.0168-5.3923 2.9393-5.474-10.2226c-.9398-1.755-.5531-3.919 1.157-4.878 1.7103-.9591 3.7157.3709 4.6173 2.1445z"/><path d="m113.7586 73.7664 5.092 10.0168-5.3923 2.9393-5.474-10.2226c-.9398-1.755-.5531-3.919 1.157-4.878 1.7103-.9591 3.7157.3709 4.6173 2.1445z"/><path d="m109.6584 43.3687 25.1228 9.9692v-11.5688l-4.8732-1.9338-.0001 5.7846-5.2514-2.0841v-5.7843l-4.8731-1.9338-.0002 5.7846-5.2512-2.0841v-5.7843l-4.8737-1.9338-1.6986 6.0871z" fill="#e5e5e5"/><path d="m109.6584 43.3687-34.1584 21.9045v-11.5688l6.6261-4.2491v5.7846l7.1402-4.5789v-5.7843l6.6261-4.2491v5.7846l7.1398-4.5789.0002-5.7843 6.6259-4.2491z" fill="#e5e5e5"/><path d="m417.9137 139.3047c15.1768-15.689 32.3599-36.2383 42.1016-52.4059-25.8501-8.2056-82.8623-19.0537-160.0153-19.0537s-134.1651 10.8481-160.0153 19.0537c9.7417 16.1676 26.9248 36.7169 42.1016 52.4059z" fill="#e5e5e5"/><path d="m146.3161 96.4689c26.8426-7.0167 79.7089-16.2617 153.684-16.2617 73.975 0 126.8414 9.245 153.684 16.2617" fill="none"/><path d="m299.9999 92.2857v-12.0758" fill="none"/><path d="m265.6567 80.9441.8564 11.8784" fill="none"/><path d="m282.377 68.0607.4427 12.296" fill="none"/><path d="m283.2553 92.4566.3985 11.0684" fill="none"/><path d="m233.0043 82.8867 1.6594 11.4527" fill="none"/><path d="m202.1373 86.1522 2.3787 10.8545" fill="none"/><path d="m173.1221 90.6182 3.0563 10.3384" fill="none"/><path d="m247.9867 69.4994 1.3189 12.1718" fill="none"/><path d="m250.5887 93.5108 1.2151 11.2137" fill="none"/><path d="m215.3842 72.4811 2.1585 11.8738" fill="none"/><path d="m219.5717 95.5156 2.0754 11.4161" fill="none"/><path d="m184.6413 76.7489 2.9426 11.4474" fill="none"/><path d="m190.2997 98.7615 3.1724 12.3412" fill="none"/><path d="m155.9276 82.5287 3.625 10.8212" fill="none"/><path d="m446.8978 105.7098c-29.0896-7.2474-76.3643-13.4105-146.8978-13.4105-70.5336 0-117.8082 6.1632-146.8978 13.4105" fill="none"/><path d="m334.3433 80.9441-.8564 11.8784" fill="none"/><path d="m317.623 68.0607-.4427 12.296" fill="none"/><path d="m316.7448 92.4566-.3985 11.0684" fill="none"/><path d="m366.9957 82.8867-1.6594 11.4527" fill="none"/><path d="m397.8627 86.1522-2.3786 10.8545" fill="none"/><path d="m426.8779 90.6182-3.0563 10.3384" fill="none"/><path d="m352.0133 69.4994-1.319 12.1718" fill="none"/><path d="m349.4113 93.5108-1.2151 11.2137" fill="none"/><path d="m384.6158 72.4811-2.1585 11.8738" fill="none"/><path d="m380.4283 95.5156-2.0754 11.4161" fill="none"/><path d="m415.3587 76.7489-2.9426 11.4475" fill="none"/><path d="m409.7004 98.7615-3.1725 12.3412" fill="none"/><path d="m444.0724 82.5287-3.625 10.8212" fill="none"/><path d="m162.9488 103.4882 4.482 13.3796" fill="none"/><path d="m335.5517 106.0819c-7.8509-22.4453-10.5472-50.3284-10.5472-81.4926l-25.0045-3.7606-25.0045 3.7606c0 31.1641-2.6964 59.0473-10.5473 81.4926z" fill="#e5e5e5"/><path d="m269.3066 90.4681h61.3868" fill="#008f4c"/><path d="m271.6926 77.2923h56.6151" fill="#008f4c"/><path d="m273.3364 64.1166h53.3275" fill="#008f4c"/><path d="m274.9195 37.7651h50.1612" fill="#008f4c"/><path d="m300 37.7651v13.1759" fill="#008f4c"/><path d="m278.939 50.941v-13.1759" fill="#008f4c"/><path d="m321.061 50.941v-13.1759" fill="#008f4c"/><path d="m279.7612.5-2.7913 10.3118 5.6728.4853v-5.9667z" fill="#e5e5e5"/><path d="m320.2398.5 2.67 10.6756-5.5511.1213v-5.9667z" fill="#e5e5e5"/><path d="m325.0046 24.589c0-3.235 6.2436-6.7466 8.7279-7.6143l-33.7322-3.6393-33.7323 3.6393c2.4842.8678 8.7277 4.3794 8.7277 7.6143z" fill="#e5e5e5"/><path d="m300.0002 64.1166v13.1759" fill="#008f4c"/><path d="m278.939 77.2925v-13.1759" fill="#008f4c"/><path d="m321.061 77.2925v-13.1759" fill="#008f4c"/><path d="m278.939 105.1241v-14.656" fill="#008f4c"/><path d="m321.061 105.1241v-14.656" fill="#008f4c"/><path d="m310.5307 24.5893v13.1759" fill="#008f4c"/><path d="m289.4695 37.7652v-13.1759" fill="#008f4c"/><path d="m310.5307 50.9407v13.1759" fill="#008f4c"/><path d="m289.4695 64.1166v-13.1759" fill="#008f4c"/><path d="m274.378 50.9408h51.2439" fill="#008f4c"/><path d="m314.5454 46.5537v12.9333h-8.0297v-12.9333c0-2.3041 1.7906-4.1591 4.0149-4.1591s4.0149 1.8549 4.0149 4.1591z" fill-rule="evenodd"/><path d="m293.4842 46.5537v12.9333h-8.0297v-12.9333c0-2.3041 1.7906-4.1591 4.0149-4.1591s4.0149 1.8549 4.0149 4.1591z" fill-rule="evenodd"/><path d="m266.2679.5v16.4747h67.4648v-16.4747h-13.4928v8.2376h-13.4935v-8.2376h-13.4926v8.2376h-13.4926v-8.2376z" fill="#e5e5e5"/><path d="m464.4295 109.3367-7.6418 15.4039" fill="none"/><path d="m300 70.7045c7.2893 0 13.1576 5.8659 13.1576 13.152v29.3192h-26.3152v-29.3192c0-7.2863 5.8683-13.152 13.1576-13.152z" fill="#e5e5e5" fill-rule="evenodd"/><path d="m300 75.7436c4.4591 0 8.0489 3.6185 8.0489 8.1133v29.3189h-16.0978v-29.3189c0-4.4947 3.5898-8.1133 8.0489-8.1133z" fill-rule="evenodd"/><path d="m111.3227 149.0595c-11.1229-3.151-12.2645-13.3069-2.5117-19.5729 20.2853-13.033 85.6152-26.8424 191.189-26.8424s170.9037 13.8094 191.189 26.8424c9.7527 6.266 8.6112 16.4219-2.5117 19.5729l-188.6773-23.5929z" fill="#e5e5e5"/><path d="m315.8392 102.7482c-14.0857 0-28.5886 4.1953-21.8932 13.8113" fill="none"/><path d="m497.7838 140.5209c-1.1739-12.1891-24.3176-12.9398-24.2917-3.1232" fill="none"/><path d="m350.4113 103.7861c-14.0841-.5526-30.299 3.4408-23.7503 13.1546" fill="none"/><path d="m383.3857 105.9069c-13.8997-1.1587-31.9143 2.5434-25.6141 12.4158" fill="none"/><path d="m416.3652 109.541c-13.3539-1.8122-33.4004 1.4737-27.3878 11.519" fill="none"/><path d="m447.9874 114.9315c-13.3823-2.8752-34.935-.3322-29.3938 9.9736" fill="none"/><path d="m478.1845 123.2728c-12.6585-4.1906-36.0679-4.0603-31.4841 6.6933" fill="none"/><path d="m133.9036 119.363c-12.116 4.3389-15.315 11.599-7.4669 17.9129" fill="none"/><path d="m282.2243 102.776c-14.0773.4786-26.872 5.1456-19.8448 14.5284" fill="none"/><path d="m249.3745 103.7957c-14.047 1.0289-26.3114 6.3572-18.9125 15.4579" fill="none"/><path d="m219.5185 105.6687c-14.6642 1.4681-24.5421 7.7036-16.632 16.3757" fill="none"/><path d="m189.8116 108.7077c-14.2376 1.8024-21.9876 8.5544-13.7587 16.9331" fill="none"/><path d="m160.3374 113.2712c-13.7521 3.0061-19.6742 9.6336-11.0282 17.5929" fill="none"/><path d="m110.3906 128.5102c-5.2218 2.7302-7.7871 13.7319 2.0872 17.0103" fill="none"/><path d="m111.3227 149.0595c6.5748 14.1798 11.48 29.703 16.4385 48.2625l46.7777-10.1615 125.4611-7.3098 125.4611 7.3098 46.7777 10.1615c4.9585-18.5595 9.8637-34.0827 16.4385-48.2625 5.7421-12.3838-78.4913-32.5721-188.6773-32.5721s-194.4193 20.1884-188.6773 32.5721z" fill="#e5e5e5"/><path d="m124.8172 186.6681c-2.7776-9.4377 69.6649-21.4427 175.1828-21.4427s177.9604 12.0051 175.1828 21.4427" fill="none"/><path d="m121.8745 176.8556c-3.5085-10.9098 72.5414-23.8147 178.1255-23.8147s181.634 12.905 178.1255 23.8147" fill="none"/><path d="m300 165.2546v12.1494" fill="#008f4c" fill-rule="evenodd"/><path d="m118.7763 167.5551c-4.5225-12.3411 75.8054-26.6988 181.2237-26.6988 105.4184 0 185.7462 14.3577 181.2237 26.6988" fill="none"/><path d="m300 116.5642v12.1494" fill="#008f4c" fill-rule="evenodd"/><path d="m300 140.8468v12.1494" fill="#008f4c" fill-rule="evenodd"/><path d="m244.9269 130.2518 1.2727 11.79" fill="none"/><path d="m247.4881 154.2563 1.2803 11.8923" fill="none"/><path d="m261.8713 117.3769.846 11.9318" fill="none"/><path d="m263.5704 141.5585.8657 11.9966" fill="none"/><path d="m265.2969 165.6958.8344 11.7694" fill="none"/><path d="m225.5443 119.6955 1.6308 11.4457" fill="none"/><path d="m228.9209 143.1783 1.6496 11.7935" fill="none"/><path d="m232.3217 167.0154 1.5989 11.2208" fill="none"/><path d="m191.1644 123.5069 2.3343 10.9437" fill="none"/><path d="m196.0763 145.9957 2.4425 11.5159" fill="none"/><path d="m201.0557 169.2138 2.4146 11.2744" fill="none"/><path d="m158.9869 128.7523 2.98 10.4003" fill="none"/><path d="m165.1477 150.0803 3.1577 10.9603" fill="none"/><path d="m171.7049 172.5169 3.213 11.062" fill="none"/><path d="m129.3913 136.3686 3.4355 9.6027" fill="none"/><path d="m136.5491 156.2694 3.6417 10.2248" fill="none"/><path d="m144.0817 177.2886 4.0312 11.3047" fill="none"/><path d="m281.3495 128.9203.4317 12.0696" fill="none"/><path d="m282.2119 153.1571.4325 12.2146" fill="none"/><path d="m210.365 132.797 2.0197 11.4874" fill="none"/><path d="m214.5113 156.1805 2.094 11.7135" fill="none"/><path d="m177.7169 136.6647 2.8178 11.1474" fill="none"/><path d="m183.3964 159.1308 2.8864 11.4201" fill="none"/><path d="m147.2939 142.1923 3.4602 10.5039" fill="none"/><path d="m154.3511 163.526 3.5855 10.8811" fill="none"/><path d="m120.6981 150.927 3.4645 9.9083" fill="none"/><path d="m127.6551 170.8065 3.5885 10.2217" fill="none"/><path d="m300 137.7039c7.3705 0 13.3041 5.9315 13.3041 13.2992v29.6473h-26.6082v-29.6473c0-7.3678 5.9337-13.2992 13.3041-13.2992z" fill="#e5e5e5" fill-rule="evenodd"/><path d="m300 142.7993c4.5087 0 8.1385 3.659 8.1385 8.204v29.647h-16.277v-29.647c0-4.545 3.6298-8.204 8.1385-8.204z" fill-rule="evenodd"/><path d="m484.689 158.3061c5.7378-13.3135-79.275-29.6342-184.689-29.6342s-190.4269 16.3208-184.689 29.6342" fill="none"/><path d="m355.0731 130.2518-1.2727 11.79" fill="none"/><path d="m352.5119 154.2563-1.2803 11.8923" fill="none"/><path d="m338.1287 117.3769-.846 11.9318" fill="none"/><path d="m336.4296 141.5585-.8657 11.9966" fill="none"/><path d="m334.7031 165.6958-.8344 11.7694" fill="none"/><path d="m374.4558 119.6955-1.6308 11.4457" fill="none"/><path d="m371.0791 143.1783-1.6496 11.7935" fill="none"/><path d="m367.6783 167.0154-1.5988 11.2208" fill="none"/><path d="m408.8356 123.5069-2.3343 10.9437" fill="none"/><path d="m403.9237 145.9957-2.4425 11.5159" fill="none"/><path d="m398.9443 169.2138-2.4146 11.2744" fill="none"/><path d="m441.0131 128.7523-2.98 10.4003" fill="none"/><path d="m434.8523 150.0803-3.1577 10.9603" fill="none"/><path d="m428.2951 172.5169-3.213 11.062" fill="none"/><path d="m470.6087 136.3686-3.4355 9.6027" fill="none"/><path d="m463.4509 156.2694-3.6417 10.2248" fill="none"/><path d="m455.9183 177.2886-4.0312 11.3047" fill="none"/><path d="m318.6506 128.9203-.4317 12.0696" fill="none"/><path d="m317.7881 153.1571-.4325 12.2146" fill="none"/><path d="m389.635 132.797-2.0197 11.4874" fill="none"/><path d="m385.4887 156.1805-2.094 11.7135" fill="none"/><path d="m422.2831 136.6647-2.8178 11.1474" fill="none"/><path d="m416.6036 159.1308-2.8864 11.4201" fill="none"/><path d="m452.7062 142.1923-3.4602 10.5039" fill="none"/><path d="m445.6489 163.526-3.5855 10.8811" fill="none"/><path d="m479.302 150.927-3.4645 9.9083" fill="none"/><path d="m472.3449 170.8065-3.5885 10.2217" fill="none"/><path d="m451.3789 160.1204-8.9678 25.8881 18.8671 5.5459 8.8101-25.6517c1.7028-4.958-.9804-10.1975-6.163-11.7993-5.1823-1.6017-10.8305 1.0635-12.5464 6.0169z" fill="#e5e5e5"/><path d="m446.201 186.8947 11.445 3.5371 8.8101-25.6516c1.0467-3.0475-.5903-6.2643-3.7606-7.2441s-6.6376.6594-7.6843 3.707z"/><path d="m148.6211 160.1204 8.9678 25.8881-18.8671 5.5459-8.8101-25.6517c-1.7028-4.958.9804-10.1975 6.163-11.7993 5.1823-1.6017 10.8305 1.0635 12.5464 6.0169z" fill="#e5e5e5"/><path d="m153.7991 186.8947-11.445 3.5371-8.8101-25.6516c-1.0467-3.0475.5903-6.2643 3.7606-7.2441s6.6376.6594 7.6843 3.707z"/><path d="m468.4893 203c0 2.2122-39.4563 17.0141-168.4893 17.0141s-168.4893-14.8019-168.4893-17.0141c0-2.2123 39.4563-17.0142 168.4893-17.0142s168.4893 14.8018 168.4893 17.0142zm11.0107 0c0 22.5798-119.923 26.5-179.5 26.5s-179.5-3.9202-179.5-26.5 119.923-26.5 179.5-26.5 179.5 3.9203 179.5 26.5z" fill="#e5e5e5" fill-rule="evenodd"/></g></g><path d="m.5 510 299.5 299.5 299.5-299.5-299.5-299.5z" fill="#0071bc" stroke="#000" stroke-linecap="round" stroke-linejoin="round"/><path d="m424.7917 335.2917 49.9166 49.9166-124.7913 124.7917 124.7913 124.7917-49.9166 49.9166-124.7917-124.7913-124.7917 124.7913-49.9166-49.9166 124.7913-124.7917-124.7913-124.7917 49.9166-49.9166 124.7917 124.7913z" fill="#e5e5e5" stroke="#000" stroke-linecap="round" stroke-linejoin="round"/><g stroke-linecap="round" stroke-linejoin="round"><path d="m330.4392 435.532c45.9402 6.88 61.2779-7.8988 59.0233-26.8602-15.0448-9.1775-23.993-21.4082-24.8446-30.2373-.6506-6.7454 4.1012-19.5113 25.5184-16.5306 13.2293 1.8412 23.8556 11.2935 43.6701 13.4255-7.1836 8.3156-15.3951 9.8623-22.7823 10.6726 12.348 6.421 37.9613 15.8082 52.1853 18.7614-7.8124 7.9807-18.2785 8.0956-37.4057 3.1726 33.5285 15.2405 40.7025 27.5891 73.6964 44.9347-3.98 2.3732-18.9816 3.1021-28.7223-.8199-14.4418-5.8147-23.7039-14.4883-36.5966-21.9206 19.4842 28.6269 41.3263 55.6693 65.3189 85.0868-22.0941-.9692-55.321-40.6484-71.2427-55.2153 29.274 51.4858 27.6349 79.0217 60.346 129.8204-10.75-2.6512-24.3234-10.3012-32.3425-18.9747-11.6726-12.6255-30.305-55.8212-49.062-87.3799 1.9063 33.0413 3.2562 58.3026 20.2408 101.2836-33.2267-11.5432-51.0804-69.9506-52.4667-93.7044-7.4882 14.6874-11.2476 31.2384-9.9198 49.0187-8.2624-4.4148-13.834-9.9017-15.4608-16.6391-4.4523-18.4378 2.7721-31.6506-19.1347-49.5565z" stroke="#000"/><path d="m445.6902 405.1237c-8.9945-1.0766-20.533-3.8682-31.0751-8.0285" fill="none" stroke="#e5e5e5"/><path d="m431.736 419.0272c15.3787 10.0841 24.1749 17.5071 36.7946 24.3361" fill="none" stroke="#e5e5e5"/><path d="m471.784 491.8478c-12.8199-13.8603-35.55-38.3455-47.9967-51.7028" fill="none" stroke="#e5e5e5"/><path d="m462.9912 562.8974c-16.4108-24.9188-31.6082-70.861-52.9428-100.5799" fill="none" stroke="#e5e5e5"/><path d="m407.7157 558.1204c-9.3561-18.1275-19.3357-55.151-18.797-88.147" fill="none" stroke="#e5e5e5"/><path d="m357.5174 512.1031c.128-11.7777 2.333-28.5675 4.3231-39.6226" fill="none" stroke="#e5e5e5"/><path d="m417.128 427.8349c15.5173 13.1606 10.7175 13.5797-3.9373 11.1187 10.8343 12.3123 9.204 16.146-6.9483 11.6278 10.3864 11.295 13.2281 15.3368-12.4788 7.9914 7.8333 13.7751 1.4461 16.324-16.8261 5.4622 4.5704 15.95-7.6372 17.1911-20.5141 3.4576" fill="none" stroke="#e5e5e5"/><path d="m389.5199 377.7005c12.5079 1.5008 19.1017 1.1869 25.8917-.2681" fill="none" stroke="#e5e5e5"/><path d="m269.5608 435.532c-45.9402 6.88-61.2779-7.8988-59.0233-26.8602 15.0448-9.1775 23.993-21.4082 24.8446-30.2373.6506-6.7454-4.1012-19.5113-25.5184-16.5306-13.2293 1.8412-23.8556 11.2935-43.6701 13.4255 7.1836 8.3156 15.3951 9.8623 22.7823 10.6726-12.348 6.421-37.9613 15.8082-52.1853 18.7614 7.8124 7.9807 18.2785 8.0956 37.4057 3.1726-33.5285 15.2405-40.7025 27.5891-73.6964 44.9347 3.98 2.3732 18.9816 3.1021 28.7223-.8199 14.4418-5.8147 23.7039-14.4883 36.5966-21.9206-19.4842 28.6269-41.3263 55.6693-65.3189 85.0868 22.0941-.9692 55.321-40.6484 71.2427-55.2153-29.274 51.4858-27.6349 79.0217-60.346 129.8204 10.75-2.6512 24.3234-10.3012 32.3425-18.9747 11.6726-12.6255 30.305-55.8212 49.062-87.3799-1.9063 33.0413-3.2562 58.3026-20.2408 101.2836 33.2267-11.5432 51.0804-69.9506 52.4667-93.7044 7.4882 14.6874 11.2476 31.2384 9.9198 49.0187 8.2624-4.4148 13.834-9.9017 15.4608-16.6391 4.4523-18.4378-2.7721-31.6506 19.1347-49.5565z" stroke="#000"/><path d="m154.3099 405.1237c8.9945-1.0766 20.533-3.8682 31.0751-8.0285" fill="none" stroke="#e5e5e5"/><path d="m168.264 419.0272c-15.3787 10.0841-24.1749 17.5071-36.7946 24.3361" fill="none" stroke="#e5e5e5"/><path d="m128.216 491.8478c12.8199-13.8603 35.55-38.3455 47.9967-51.7028" fill="none" stroke="#e5e5e5"/><path d="m137.0088 562.8974c16.4108-24.9188 31.6082-70.861 52.9428-100.5799" fill="none" stroke="#e5e5e5"/><path d="m192.2843 558.1204c9.3561-18.1275 19.3357-55.151 18.797-88.147" fill="none" stroke="#e5e5e5"/><path d="m242.4826 512.1031c-.128-11.7777-2.333-28.5675-4.3231-39.6226" fill="none" stroke="#e5e5e5"/><path d="m182.872 427.8349c-15.5173 13.1606-10.7175 13.5797 3.9373 11.1187-10.8343 12.3123-9.204 16.146 6.9483 11.6278-10.3864 11.295-13.2281 15.3368 12.4788 7.9914-7.8333 13.7751-1.4461 16.324 16.8261 5.4622-4.5704 15.95 7.6372 17.1911 20.5141 3.4576" fill="none" stroke="#e5e5e5"/><path d="m210.4802 377.7005c-12.5079 1.5008-19.1017 1.1869-25.8917-.2681" fill="none" stroke="#e5e5e5"/><path d="m262.3787 357.3883c6.9951 2.1099 12.4547-.2671 26.2838.4624 9.6429.5087 16.2337 3.9018 21.3045 6.8152l-1.9907 6.4061c-3.6244-2.8888-10.1787-7.4321-19.4863-8.0204-11.2625-.7118-19.8302.6564-27.3546-1.6838-10.7967-3.358-9.5009-12.0766-5.694-13.3487-.5371 2.6933-.4796 7.1321 6.9373 9.3693z" fill-rule="evenodd"/><path d="m327.4349 542.5697c-1.9496 14.9848-18.1346 22.5678-27.4348 26.8076-9.3002-4.2398-25.4853-11.8225-27.4348-26.8073-7.4071-56.9329-14.834-112.6941-3.8749-116.3311-1.1622-.1051-3.3162-.3741-4.3137-.7185 2.0584-.6606 8.9846-6.2722 12.12-7.6717-1.2364-.8987-4.1143-.7619-4.9011-1.9032 6.1091-4.8097 8.5492-5.9515 11.8464-11.0266-2.0804.4675-5.6136.041-8.103-.8573 5.4448-3.0439 13.1623-9.5921 18.3324-14.358-2.9176.2516-8.0561.1681-10.4684-1.0024 11.7367-5.2642 18.3715-14.4073 18.3715-14.4073l4.4305-9.3097-18.9336-15.2413-4.4316-11.3838c4.7173-5.3331 8.0238-7.8592 13.9692-7.8592 10.7283 0 22.4666 5.4965 33.4611 0-.6567 2.2535-2.0153 4.4017-4.8577 5.6936 6.7778 4.8267 12.9409 12.1273 15.748 19.0709l-5.938 1.1122c.8594 3.0518 3.3521 5.6955 5.3795 8.0197-2.5742.3664-5.6349.4612-7.6151.2032 2.9262 3.2048 6.5944 11.4814 7.7682 17.7996l-5.8134-5.4328c-1.4433 6.6201-1.1668 12.8078-.4725 19.428l-5.2278-3.9292c-1.718 5.8776-2.2609 13.5745 2.6783 22.1203-2.093-.2828-5.3385-1.249-6.7203-2.0397 1.5736 3.6412 6.3825 10.6711 10.5513 13.0295-1.0563.3918-2.8763.6239-4.2409.6635 10.959 3.6372 3.5321 59.3981-3.875 116.331z" stroke="#000"/><path d="m282.64 338.3589c-8.1151.7054-24.1609 9.4944-13.1476 17.842 2.8067-9.4371 11.6009-5.7449 16.5424-1.1842 3.4424 3.1771 15.3331 8.5489 19.97 9.9668 0-9.9422-11.7354-9.0694-23.3648-26.6246z" fill-rule="evenodd" stroke="#000"/><path d="m281.0998 346.5068c1.2103.5033.4941 1.6655-.4456.8798-.7253-.6065-1.8398-.4685-2.8762-.6043.8501-.4448 2.2196-.7338 3.3217-.2754z" stroke="#e5e5e5"/><path d="m276.4485 364.8923c-.7835 15.5844 17.0104 6.5562 25.1273 9.4007 1.5769-2.583 4.4297-5.5974 4.4297-9.307-10.532-2.911-13.5867 9.0917-29.557-.0927z" fill-rule="evenodd" stroke="#000"/><path d="m292.6719 341.1796c3.3516-.7135 9.2754 2.5616 13.3879.9322-1.3406 2.4262-2.3554 6.318-9.255 5.4844-3.8868-.4696-5.7406-3.7785-4.1329-6.4166z" fill="#e5e5e5" fill-rule="evenodd" stroke="#e5e5e5"/><path d="m296.2612 341.7351c-.9758-.0307-1.7725 1.0826-1.7921 2.4642-.0196 1.3813.7646 2.5084 1.7398 2.5391.976.0307 1.7726-1.0827 1.7924-2.4643.0198-1.3815-.765-2.5083-1.7401-2.539z" fill-rule="evenodd" stroke="#000"/><path d="m262.885 435.7908c-1.7725 8.7448-.277 31.7971 1.7396 50.5818" fill="none" stroke="#e5e5e5"/><path d="m279.4484 467.6774c-2.82 2.0061-5.2871 4.3633-4.9564 9.5024 1.16-2.1761 2.5058-1.9555 4.435-3.0654-3.2114 3.9154-2.8993 8.9596-2.6088 12.8751 1.1303-1.7407 2.2607-1.6128 3.391-2.7588-1.1351 4.8786.5224 8.4502 2.8695 10.4224" fill="none" stroke="#e5e5e5"/><path d="m270.437 470.6308c-4.4195 2.4644-4.3431 7.6972-2.8594 10.8377" fill="none" stroke="#e5e5e5"/><path d="m287.813 425.3014c-4.9837 3.0149-6.9435 8.7625-5.5334 17.5575 1.4827-2.5247 3.2157-4.9023 6.6402-6.286" fill="none" stroke="#e5e5e5"/><path d="m293.3464 441.5704c-.8781 5.6253 2.6256 10.4838 6.6535 14.956 4.0277-4.4722 7.5317-9.3307 6.6535-14.956" fill="none" stroke="#e5e5e5"/><path d="m273.95 501.2788c-1.7964 1.2699-3.3681 2.7623-3.1575 6.0153.6338-.5441 1.3119-1.4901 2.8252-1.9401-2.3257 2.7165-1.4969 5.4332-1.6618 8.15.72-1.1022 1.4403-1.3387 2.1603-1.7466-.3253 2.9589.475 5.2937 1.8277 6.5976" fill="none" stroke="#e5e5e5"/><path d="m288.2892 504.5126c-4.9837 3.0151-6.9438 8.7628-5.5337 17.5573 1.4829-2.5247 3.216-4.9019 6.6404-6.2859-4.395 5.6274-3.3991 10.7673-1.4754 15.8235" fill="none" stroke="#e5e5e5"/><path d="m293.8227 523.1555c-.8784 5.6257 2.1494 10.484 6.1773 14.9564 4.028-4.4724 7.0556-9.3307 6.1772-14.9564" fill="none" stroke="#e5e5e5"/><path d="m293.8227 476.8968c-.8784 5.6255 2.1494 10.4839 6.1773 14.9564 4.028-4.4725 7.0556-9.3309 6.1772-14.9564" fill="none" stroke="#e5e5e5"/><path d="m287.6234 455.9555c-2.0143.9959-3.3302 2.8353-3.0519 6.6005" fill="none" stroke="#e5e5e5"/><path d="m289.0933 464.9617c-3.6771 4.9381-1.8547 9.2463.0729 11.3462" fill="none" stroke="#e5e5e5"/><path d="m290.6348 544.237c-.9485 4.846 3.3118 9.8246 5.5254 14.6046" fill="none" stroke="#e5e5e5"/><path d="m276.3237 430.1936c-3.2737.6562-6.3353 1.7887-7.716 6.6957 1.7901-1.5232 2.9657-.7441 5.1188-.9496-4.2635 2.2598-5.6304 7.0702-6.6465 10.8249 1.6196-1.1313 2.6258-.5303 4.0503-1.1104-2.6547 4.0389-2.2903 8.0588-.7617 10.8894" fill="none" stroke="#e5e5e5"/><path d="m320.5516 467.6774c2.8202 2.0061 5.2871 4.3633 4.9563 9.5024-1.1599-2.1761-2.5057-1.9555-4.4347-3.0654 3.2112 3.9154 2.8993 8.9596 2.6087 12.8751-1.1306-1.7407-2.2607-1.6128-3.3915-2.7588 1.1357 4.8786-.5222 8.4502-2.8692 10.4224" fill="none" stroke="#e5e5e5"/><path d="m329.5632 470.6308c4.4193 2.4644 4.3429 7.6972 2.8592 10.8377" fill="none" stroke="#e5e5e5"/><path d="m312.1869 425.3014c4.9837 3.0149 6.9438 8.7625 5.5335 17.5575-1.4825-2.5247-3.2157-4.9023-6.6402-6.286" fill="none" stroke="#e5e5e5"/><path d="m326.0499 501.2788c1.7964 1.2699 3.3682 2.7623 3.1576 6.0153-.6339-.5441-1.3117-1.4901-2.825-1.9401 2.3255 2.7165 1.4967 5.4332 1.6614 8.15-.72-1.1022-1.4402-1.3387-2.1601-1.7466.3249 2.9589-.475 5.2937-1.8278 6.5976" fill="none" stroke="#e5e5e5"/><path d="m311.7108 504.5126c4.9837 3.0151 6.944 8.7628 5.5335 17.5573-1.4827-2.5247-3.2158-4.9019-6.6403-6.2859 4.3951 5.6274 3.3988 10.7673 1.4757 15.8235" fill="none" stroke="#e5e5e5"/><path d="m312.3765 455.9555c2.0144.9959 3.3303 2.8353 3.0523 6.6005" fill="none" stroke="#e5e5e5"/><path d="m310.9066 464.9617c3.6771 4.9381 1.8544 9.2463-.0729 11.3462" fill="none" stroke="#e5e5e5"/><path d="m323.6762 430.1936c3.2737.6562 6.335 1.7887 7.716 6.6957-1.7901-1.5232-2.9657-.7441-5.1186-.9496 4.2632 2.2598 5.6305 7.0702 6.6462 10.8249-1.6195-1.1313-2.6255-.5303-4.0503-1.1104 2.6548 4.0389 2.2904 8.0588.7618 10.8894" fill="none" stroke="#e5e5e5"/><path d="m305.6203 358.7937c7.3243 1.4259 7.9215 7.6576 6.7578 12.8084" fill="none" stroke="#e5e5e5"/><path d="m320.8429 363.332c.8727 1.3331 1.2501 2.5518 1.1339 3.6558 1.6356-1.1486 2.4011-2.801 2.25-4.8854" fill="none" stroke="#e5e5e5"/><path d="m317.6023 378.3088c.5093.6484.6765 1.344.5022 2.0869 1.66-.6076 2.6906-1.5441 3.1396-2.7787" fill="none" stroke="#e5e5e5"/><path d="m311.6299 415.0469c1.8204 1.613 2.8114 3.2136 2.9741 4.8003 2.2592-2.105 2.9632-4.6563 2.0616-7.5411" fill="none" stroke="#e5e5e5"/><path d="m301.6871 415.7981c-2.0159.8447-3.5357 2.5727-4.5904 5.1298-1.9863-5.288-.0875-8.5064 4.0136-10.5513" fill="none" stroke="#e5e5e5"/><path d="m310.1071 399.4974c-1.1088 1.4933-4.7093 4.4869-2.2414 9.027.7095-1.0951.2697-1.6043 4.6244-4.5512" fill="none" stroke="#e5e5e5"/><path d="m309.5571 383.4451c.0854 2.3894-.4837 5.5268 2.0625 5.8888-.075 2.1837-1.1158 3.8089-2.2288 5.2216 1.6682-.4226 4.4099-.2794 5.7368-1.9267 1.1558-1.4338.0448-3.5436.2697-5.0505" fill="none" stroke="#e5e5e5"/><path d="m320.7603 409.5772c.7564-1.5561.4998-3.3725-.8181-5.4072 1.3787.1079 2.3478.7254 3.0476 1.7675.9737-2.6161.206-5.2363-2.3837-7.9104" fill="none" stroke="#e5e5e5"/><path d="m314.8853 346.2323c1.8129 2.9248 2.9531 7.3736-1.8373 7.4658" fill="none" stroke="#e5e5e5"/><path d="m298.4156 399.9577c-3.772 1.1887-5.9353 3.1239-6.5887 5.815 1.2024-.5989 2.3946-.7099 3.6515-.2031-2.3054 1.1884-3.5656 2.6504-3.8009 4.328" fill="none" stroke="#e5e5e5"/><path d="m325.7721 383.3594c.108 1.7772 1.5143 5.9403-3.22 8.7988.2747-1.6756.2361-3.8675-1.4043-5.9594" fill="none" stroke="#e5e5e5"/><path d="m303.7664 390.103c-.8767 1.1812-3.724 3.5486-1.7725 7.1394.5626-.866.2135-1.2691 3.6573-3.5995" fill="none" stroke="#e5e5e5"/><path d="m299.9979 374.6266c2.0474-2.1911 6.0077-6.6742 6.0075-9.6418-.0008-9.8381-12.5914-9.4817-23.9552-27.5345" fill="none" stroke="#e5e5e5"/><path d="m287.3781 357.3167c3.2792 2.3561 10.2393 5.4693 12.6011 6.4777-1.1503.1877-2.6498.7585-3.8213 1.2039" fill="none" stroke="#e5e5e5"/><path d="m337.1149 435.7908c1.7725 8.7448.277 31.7971-1.7396 50.5818" fill="none" stroke="#e5e5e5"/><path d="m309.3651 544.237c.9485 4.846-3.3118 9.8246-5.5254 14.6046" fill="none" stroke="#e5e5e5"/><path d="m312.5089 560.8743c-.4159 8.2403-4.6411 25.15 7.366 38.5547 5.1706 5.7723 11.1891 8.393 14.965 14.9831-6.378-3.0976-12.5674-3.772-21.7493-4.1338 2.32 8.4814 9.1163 24.0945 26.7501 30.137 15.004 5.1414 34.4722 13.7081 42.0597 28.4343-11.3635-5.8523-23.1804-9.2946-38.5705-12.3614-16.2681-9.3549-18.4148-15.2964-26.6496-23.9086 2.3398 6.5344 3.1356 15.7184 6.8777 20.6942 6.8027 9.0451 23.5209 15.1555 19.7521 44.1447-12.4709-20.7289-25.2504-11.6395-35.0656-66.4461-6.2374 23.2028-6.6581 52.5141 9.6919 73.9358l-9.3041-2.4111c.0479 9.6213-3.2507 18.5329-8.6322 27.0029-5.3815-8.47-8.6802-17.3816-8.6322-27.0029l-9.3041 2.4111c16.3499-21.4217 15.9293-50.733 9.6919-73.9358-9.8152 54.8066-22.5947 45.7172-35.0656 66.4461-3.7688-28.9892 12.9495-35.0996 19.7521-44.1447 3.7421-4.9758 4.5379-14.1598 6.8777-20.6942-8.2348 8.6122-10.3815 14.5537-26.6496 23.9086-15.3901 3.0668-27.207 6.5091-38.5706 12.3614 7.5876-14.7262 27.0557-23.2929 42.0597-28.4343 17.6338-6.0425 24.4301-21.6556 26.7501-30.137-9.1819.3618-15.3713 1.0362-21.7493 4.1338 3.7759-6.5901 9.7944-9.2108 14.965-14.9831 12.0071-13.4047 7.7818-30.3144 7.366-38.5547" stroke="#000"/><path d="m293.6845 573.7034c-2.1555 4.3681 6.3154 11.0941 6.3154 14.901 0-3.8069 8.471-10.5329 6.3152-14.901" fill="none" stroke="#e5e5e5"/><path d="m299.9999 594.1223v16.2339" fill="none" stroke="#e5e5e5"/><path d="m299.9999 617.7653v88.0077" fill="none" stroke="#e5e5e5"/><path d="m293.9859 592.0385c-.1011 4.0718-2.0892 10.5767-4.4531 15.1711" fill="none" stroke="#e5e5e5"/><path d="m295.7817 614.0266c-1.0728 7.1279-4.6161 13.5876-9.974 18.9485" fill="none" stroke="#e5e5e5"/><path d="m306.0148 592.0385c.1011 4.0718 2.0885 10.5767 4.4524 15.1711" fill="none" stroke="#e5e5e5"/><path d="m304.2182 614.0266c1.0728 7.1279 4.6161 13.5876 9.974 18.9485" fill="none" stroke="#e5e5e5"/><path d="m220.7537 618.9822c-2.3845-3.5067-4.2027-3.6822-7.7974-3.172-2.8544 3.244-6.0126 4.9227-9.3726 5.0623-3.5462.1473-7.2723-.1951-10.0531 1.5599-3.5416 2.2353-2.8473 8.3278-5.5036 10.2164-5.0003 3.5553-10.4986-1.7253-10.6691-6.8535-.1262-3.7968 8.0666-6.1599 12.1204-7.7123-1.6514-.2032-3.2913-.8559-4.7376-1.0732-.679-.1054-1.4453 1.0098-1.9527 1.6655-2.4154 3.1209-7.8979 1.611-8.6485-1.8322-.7946-3.645 1.278-6.762 5.4345-6.3952 3.5525.3135 7.0159 1.5766 10.4444 1.545-1.3795-.2006-2.5616-.9264-3.3356-1.8251-2.0626-2.3949-5.3136.1703-7.1766-.04-2.5238-.2844-4.3337-2.1611-4.4631-4.7115-.0677-1.3992 1.1206-3.4289 2.7451-4.2058 1.2288-.5335 2.7047-.6717 4.2349-.4911 4.3082.5084 8.4981 4.4092 11.3376 5.4086 2.7907.9822 8.5597 1.7032 12.0501-.7887 10.6448-7.5998 41.2239-42.5179 48.5413-50.1682l10.9359 7.6503c-14.4499 11.8125-35.94 33.5534-48.7259 47.0321 3.0257-.9621 6.9121-2.5968 9.5099-2.1977 4.5072.6925 5.8737 5.1148 5.6759 8.5425-.3196 5.5373-8.4175 5.9842-10.5941 2.7835z" stroke="#000"/><path d="m228.9831 609.8012c10.879-3.1988 15.3805 7.2649 8.1789 10.4337-.2617-4.8902-3.2821-5.1271-7.7914-2.8521-4.049-1.6953-3.4594-6.6459-.3874-7.5816z" fill-rule="evenodd" stroke="#e5e5e5"/><path d="m180.3405 625.3147c-11.4463.744-10.2886 11.8832-2.2446 12.3592-1.9304-4.5955 1.5475-6.7792 5.2153-5.8251 1.4159-2.5867 1.3875-6.0546-2.9707-6.5341z" fill-rule="evenodd" stroke="#e5e5e5"/><path d="m175.4999 611.1092c-9.8102-2.4606-14.5078 5.6506-7.8041 9.9266.3767-4.6895 4.5696-5.3304 7.4749-3.1771 2.8797-1.8651 2.7729-5.2824.3292-6.7495z" fill-rule="evenodd" stroke="#e5e5e5"/><path d="m177.7885 601.2112c-8.2495-4.3303-14.0843 2.6833-8.1837 6.5079.3438-4.2101 4.3433-3.3653 6.8999-1.4384 2.2067-1.5633 2.4533-3.2938 1.2838-5.0695z" fill-rule="evenodd" stroke="#e5e5e5"/><path d="m270.4502 526.2526c1.4996 11.5943-26.6594 28.5826-35.3903 35.793 2.4717.1179 4.5646.4995 6.1141.743-1.0841 1.2851-2.6162 2.8022-4.0706 4.4201 6.5741 4.6198 14.7695-.6732 15.5963 12.3213 1.1432-1.5251 2.2665-3.0836 3.5929-4.5372.7866 1.6621 2.875 4.1514 4.2655 5.6774 4.3384-14.9939 14.8785-20.3303 20.2028-27.2603" stroke="#000"/><path d="m261.8629 550.9022c-1.3308 1.7276-5.045 3.9187-8.8712 2.4462 1.9086-.9493 3.4717-2.2045 4.2685-4.2917" fill="none" stroke="#e5e5e5"/><path d="m254.4381 561.3691c-1.9694 1.4807-5.9533 3.0203-9.162.7919 1.9817-.4944 3.6738-1.731 5.0199-3.4533" fill="none" stroke="#e5e5e5"/><path d="m261.4808 558.2736c-1.8101 2.0034-3.501 4.9735-1.4241 8.7488.6625-1.936 1.9819-3.1828 3.9116-4.5944" fill="none" stroke="#e5e5e5"/><path d="m269.5922 545.6163c-1.5866 1.58-3.8225 5.0754-1.4214 8.7503.5118-1.6558 2.2345-3.4998 3.9089-4.5956" fill="none" stroke="#e5e5e5"/><path d="m239.5813 569.611c5.8606 2.0597 9.8947.2693 11.5876 6.5034" fill="none" stroke="#e5e5e5"/><path d="m379.2463 618.9822c2.3845-3.5067 4.2027-3.6822 7.7974-3.172 2.8544 3.244 6.0126 4.9227 9.3726 5.0623 3.5462.1473 7.2723-.1951 10.0531 1.5599 3.5416 2.2353 2.8473 8.3278 5.5036 10.2164 5.0003 3.5553 10.4986-1.7253 10.6691-6.8535.1262-3.7968-8.0666-6.1599-12.1204-7.7123 1.6514-.2032 3.2913-.8559 4.7376-1.0732.679-.1054 1.4453 1.0098 1.9527 1.6655 2.4154 3.1209 7.8979 1.611 8.6485-1.8322.7946-3.645-1.278-6.762-5.4345-6.3952-3.5525.3135-7.0159 1.5766-10.4444 1.545 1.3795-.2006 2.5616-.9264 3.3356-1.8251 2.0626-2.3949 5.3136.1703 7.1766-.04 2.5238-.2844 4.3337-2.1611 4.4631-4.7115.0677-1.3992-1.1206-3.4289-2.7451-4.2058-1.2288-.5335-2.7047-.6717-4.2349-.4911-4.3082.5084-8.4981 4.4092-11.3376 5.4086-2.7907.9822-8.5597 1.7032-12.0501-.7887-10.6448-7.5998-41.2239-42.5179-48.5413-50.1682l-10.9359 7.6503c14.4499 11.8125 35.94 33.5534 48.7259 47.0321-3.0257-.9621-6.9121-2.5968-9.5099-2.1977-4.5072.6925-5.8737 5.1148-5.6759 8.5425.3196 5.5373 8.4175 5.9842 10.5941 2.7835z" stroke="#000"/><path d="m371.0169 609.8012c-10.879-3.1988-15.3805 7.2649-8.1789 10.4337.2617-4.8902 3.2821-5.1271 7.7914-2.8521 4.049-1.6953 3.4594-6.6459.3874-7.5816z" fill-rule="evenodd" stroke="#e5e5e5"/><path d="m419.6595 625.3147c11.4463.744 10.2886 11.8832 2.2446 12.3592 1.9304-4.5955-1.5475-6.7792-5.2153-5.8251-1.4159-2.5867-1.3875-6.0546 2.9707-6.5341z" fill-rule="evenodd" stroke="#e5e5e5"/><path d="m424.5001 611.1092c9.8102-2.4606 14.5078 5.6506 7.8041 9.9266-.3767-4.6895-4.5696-5.3304-7.4749-3.1771-2.8797-1.8651-2.7729-5.2824-.3292-6.7495z" fill-rule="evenodd" stroke="#e5e5e5"/><path d="m422.2115 601.2112c8.2495-4.3303 14.0843 2.6833 8.1837 6.5079-.3438-4.2101-4.3433-3.3653-6.8999-1.4384-2.2067-1.5633-2.4533-3.2938-1.2838-5.0695z" fill-rule="evenodd" stroke="#e5e5e5"/><path d="m329.5498 526.2526c-1.4996 11.5943 26.6594 28.5826 35.3903 35.793-2.4717.1179-4.5646.4995-6.1141.743 1.0841 1.2851 2.6162 2.8022 4.0706 4.4201-6.5741 4.6198-14.7695-.6732-15.5963 12.3213-1.1432-1.5251-2.2665-3.0836-3.5929-4.5372-.7866 1.6621-2.875 4.1514-4.2655 5.6774-4.3384-14.9939-14.8785-20.3303-20.2028-27.2603" stroke="#000"/><path d="m338.1371 550.9022c1.3308 1.7276 5.045 3.9187 8.8712 2.4462-1.9086-.9493-3.4717-2.2045-4.2685-4.2917" fill="none" stroke="#e5e5e5"/><path d="m345.5619 561.3691c1.9694 1.4807 5.9533 3.0203 9.162.7919-1.9817-.4944-3.6738-1.731-5.0199-3.4533" fill="none" stroke="#e5e5e5"/><path d="m338.5192 558.2736c1.8101 2.0034 3.501 4.9735 1.4241 8.7488-.6625-1.936-1.9819-3.1828-3.9116-4.5944" fill="none" stroke="#e5e5e5"/><path d="m330.4078 545.6163c1.5866 1.58 3.8225 5.0754 1.4214 8.7503-.5118-1.6558-2.2345-3.4998-3.9089-4.5956" fill="none" stroke="#e5e5e5"/><path d="m360.4187 569.611c-5.8606 2.0597-9.8947.2693-11.5876 6.5034" fill="none" stroke="#e5e5e5"/></g><path d="m1.5 510 298.5 298.5 298.5-298.5-298.5-298.5z" fill="none" stroke="#000" stroke-linecap="round" stroke-linejoin="round" stroke-width="3"/></svg>