<?xml version="1.0" encoding="utf-8"?><!DOCTYPE svg PUBLIC "-//W3C//DTD SVG 1.1//EN" "http://www.w3.org/Graphics/SVG/1.1/DTD/svg11.dtd"><svg viewBox="0 0 600 810" xmlns="http://www.w3.org/2000/svg"><g stroke="#000" stroke-linecap="round" stroke-linejoin="round"><path d="m473.8071 203c0 7.0122-38.1058 21.2714-173.8071 21.2714s-173.8071-14.2592-173.8071-21.2714 38.1058-21.2715 173.8071-21.2715 173.8071 14.2593 173.8071 21.2715z" fill="#eac102"/><g fill="none"><path d="m147.422 193.829v18.341" stroke-width="5.5"/><path d="m153.859 192.34v21.319" stroke-width="5.25"/><path d="m160.296 191.363v23.273" stroke-width="5"/><path d="m166.733 190.154v25.692" stroke-width="4.75"/><path d="m173.171 189.084v27.832" stroke-width="4.5"/><path d="m179.608 188.153v29.693" stroke-width="4.25"/><path d="m186.045 187.223v31.553" stroke-width="4"/><path d="m192.482 186.432v33.135" stroke-width="3.75"/><path d="m198.92 185.92v34.159" stroke-width="3.5"/><path d="m205.357 185.316v35.368" stroke-width="3.25"/><path d="m211.794 184.385v37.229" stroke-width="3"/><path d="m218.232 183.873v38.253" stroke-width="2.75"/><path d="m224.669 183.641v38.718" stroke-width="2.5"/><path d="m231.106 183.082v39.834" stroke-width="2.25"/><path d="m237.543 182.617v40.765" stroke-width="2"/><path d="m243.981 182.338v41.323" stroke-width="1.75"/><path d="m250.418 181.92v42.16" stroke-width="1.5"/><path d="m256.855 181.64v42.719" stroke-width="1.25"/><path d="m263.292 180.803v44.394"/><path d="m269.73 180.803v44.394" stroke-width=".75"/><path d="m276.167 180.803v44.394" stroke-width=".5"/><path d="m282.604 180.803v44.394" stroke-width=".25"/><path d="m134.547 198.248v9.502" stroke-width="6"/><path d="m140.984 195.876v14.248" stroke-width="5.75"/><path d="m452.579 193.829v18.341" stroke-width="5.5"/><path d="m446.142 192.34v21.319" stroke-width="5.25"/><path d="m439.704 191.363v23.273" stroke-width="5"/><path d="m433.267 190.154v25.692" stroke-width="4.75"/><path d="m426.83 189.084v27.832" stroke-width="4.5"/><path d="m420.393 188.153v29.693" stroke-width="4.25"/><path d="m413.955 187.223v31.553" stroke-width="4"/><path d="m407.518 186.432v33.135" stroke-width="3.75"/><path d="m401.081 185.92v34.159" stroke-width="3.5"/><path d="m394.643 185.316v35.368" stroke-width="3.25"/><path d="m388.206 184.385v37.229" stroke-width="3"/><path d="m381.769 183.873v38.253" stroke-width="2.75"/><path d="m375.332 183.641v38.718" stroke-width="2.5"/><path d="m368.894 183.082v39.834" stroke-width="2.25"/><path d="m362.457 182.617v40.765" stroke-width="2"/><path d="m356.02 182.338v41.323" stroke-width="1.75"/><path d="m349.583 181.92v42.16" stroke-width="1.5"/><path d="m343.145 181.64v42.719" stroke-width="1.25"/><path d="m336.708 180.803v44.394"/><path d="m330.271 180.803v44.394" stroke-width=".75"/><path d="m323.834 180.803v44.394" stroke-width=".5"/><path d="m317.396 180.803v44.394" stroke-width=".25"/><path d="m465.453 198.248v9.502" stroke-width="6"/><path d="m459.016 195.876v14.248" stroke-width="5.75"/></g><g><path d="m418.459 117.1259c16.9383-13.8178 35.633-34.5719 48.1799-57.5675l11.4263-7.9287 11.9579-.1129-11.4136 36.0031-30.3785 33.0079z" fill="#eac102"/><path d="m490.2272 141.2903c5.2951-23.5962 15.96-47.8435 27.3182-72.1748l-12.5476-13.2878-14.9748-4.311c-12.5196 24.1444-24.7951 48.4857-41.7921 69.011z" fill="#eac102"/><path d="m475.7088 46.5874-.0001-3.1504-5.6168-3.6019-2.1845 8.0539z" fill="#eac102"/><path d="m498.6324 48.9249v-5.6873l5.4752-2.6102 2.0631 7.0995z" fill="#eac102"/><path d="m512.3987 57.7528v-5.6873l5.4752-2.6102 2.2452 6.8568z" fill="#eac102"/><path d="m512.5662 79.6352-28.2018-17.0454-23.0812 6.2958" fill="none"/><path d="m507.877 90.1549-29.3014-16.4912-23.6821 4.5491" fill="none"/><path d="m503.4288 100.6747-30.9633-15.9379-12.4503 2.162" fill="none"/><path d="m499.2657 111.1944-33.3971-15.3837-12.1847.6582" fill="none"/><path d="m495.5644 121.7142-36.8934-14.8305-11.7731-1.1739" fill="none"/><path d="m489.4282 119.3944-8.5365 17.2075" fill="none"/><path d="m498.0018 56.7755-5.3003 10.684" fill="none"/><path d="m509.4053 64.0133-5.2024 10.4868" fill="none"/><path d="m498.3523 71.1811-5.2734 10.6299" fill="none"/><path d="m509.9019 78.1244-5.0807 10.2417" fill="none"/><path d="m486.7938 64.2557-5.4129 10.9113" fill="none"/><path d="m498.8577 85.2748-5.1211 10.3226" fill="none"/><path d="m487.16 78.6298-5.3838 10.8526" fill="none"/><path d="m499.6299 98.8303-5.0664 10.2127" fill="none"/><path d="m487.6651 92.724-5.3353 10.7545" fill="none"/><path d="m475.7468 86.5238-5.576 11.2397" fill="none"/><path d="m485.8334 42.5697-.0001-3.1504-5.6168-3.6019-1.9417 8.1752z" fill="#eac102"/><path d="m517.5454 69.1155c1.1688-2.2443 3.7164-4.0537 6.9543-3.8424l-17.5284-13.5452-16.6302-8.3595-12.6552 2.96-12.4671 7.0099c1.1386.6832 2.9722 3.449 1.4201 6.2202l23.3842-8.0417z" fill="#eac102"/><path d="m490.3412 43.3683c1.2388 1.9731 1.1271 5.3619-.3181 8.1484" fill="none"/><path d="m466.3795 75.9236 6.4443-10.1269" fill="none"/><path d="m484.1771 53.6257-5.5831 10.467" fill="none"/><path d="m472.485 57.602-5.7156 9.6407" fill="none"/><path d="m472.6551 74.8768-6.6691 10.8565" fill="none"/><path d="m460.8141 77.1399-6.8821 10.8565" fill="none"/><path d="m452.6861 106.2233 7.432-9.9179" fill="none"/><path d="m485.0969 98.7829c-4.8885-2.5379-10.6714-.9645-12.9658 3.5278l-10.6191 20.7919 17.6489 9.1622 10.6191-20.7919c2.2944-4.4924.2058-10.152-4.6831-12.69z" fill="#eac102"/><path d="m464.9384 124.8813 10.7962 5.6047 10.619-20.7918c1.4103-2.7613.1381-6.2341-2.8525-7.7867-2.9906-1.5525-6.5334-.5794-7.9437 2.182z"/><path d="m497.9556 80.3772-5.092 10.0168 5.3923 2.9393 5.474-10.2226c.9398-1.755.5531-3.919-1.157-4.878-1.7103-.9591-3.7157.3709-4.6173 2.1445z"/><path d="m486.2414 73.7664-5.092 10.0168 5.3923 2.9393 5.474-10.2226c.9398-1.755.5531-3.919-1.157-4.878-1.7103-.9591-3.7157.3709-4.6173 2.1445z"/><path d="m490.3412 43.3687-25.1223 9.9692v-11.5688l4.8732-1.9338.0001 5.7846 5.2514-2.0841v-5.7843l4.8731-1.9338.0002 5.7846 5.2512-2.0841v-5.7843l4.8733-1.9338 1.699 6.0871z" fill="#eac102"/><path d="m490.3412 43.3687 34.1585 21.9045.0003-11.5688-6.6261-4.2491v5.7846l-7.1402-4.5789v-5.7843l-6.6261-4.2491v5.7846l-7.1399-4.5789-.0001-5.7843-6.6261-4.2491z" fill="#eac102"/><path d="m181.541 117.1259c-16.9383-13.8178-35.633-34.5719-48.1799-57.5675l-11.4263-7.9287-11.9579-.1129 11.4136 36.0031 30.3785 33.0079z" fill="#eac102"/><path d="m109.7728 141.2903c-5.2951-23.5962-15.96-47.8435-27.3182-72.1748l12.5475-13.2878 14.9748-4.311c12.5196 24.1444 24.7951 48.4857 41.7921 69.011z" fill="#eac102"/><path d="m124.2912 46.5874.0001-3.1504 5.6168-3.6019 2.1845 8.0539z" fill="#eac102"/><path d="m101.3676 48.9249v-5.6873l-5.4752-2.6102-2.0631 7.0995z" fill="#eac102"/><path d="m87.6012 57.7528v-5.6873l-5.4752-2.6102-2.2452 6.8568z" fill="#eac102"/><path d="m87.4337 79.6352 28.2019-17.0454 23.0813 6.2958" fill="none"/><path d="m92.123 90.1549 29.3014-16.4912 23.6821 4.5491" fill="none"/><path d="m96.5712 100.6747 30.9633-15.9379 12.4503 2.162" fill="none"/><path d="m100.7343 111.1944 33.3971-15.3837 12.1847.6582" fill="none"/><path d="m104.4356 121.7142 36.8935-14.8305 11.7731-1.1739" fill="none"/><path d="m110.5718 119.3944 8.5365 17.2075" fill="none"/><path d="m135.5705 109.3367 7.6418 15.4039" fill="none"/><path d="m101.9982 56.7755 5.3003 10.684" fill="none"/><path d="m90.5947 64.0133 5.2024 10.4867" fill="none"/><path d="m101.6477 71.1811 5.2735 10.6299" fill="none"/><path d="m90.0981 78.1244 5.0807 10.2417" fill="none"/><path d="m113.2062 64.2557 5.4129 10.9113" fill="none"/><path d="m101.1423 85.2748 5.121 10.3226" fill="none"/><path d="m112.84 78.6298 5.3838 10.8526" fill="none"/><path d="m100.3701 98.8303 5.0664 10.2127" fill="none"/><path d="m112.3349 92.724 5.3353 10.7545" fill="none"/><path d="m124.2532 86.5238 5.5759 11.2397" fill="none"/><path d="m114.1666 42.5697.0001-3.1504 5.6168-3.6019 1.9417 8.1752z" fill="#eac102"/><path d="m82.4546 69.1155c-1.1688-2.2443-3.7164-4.0537-6.9543-3.8424l17.5284-13.5452 16.6302-8.3595 12.6552 2.96 12.4672 7.0099c-1.1386.6832-2.9722 3.449-1.4201 6.2202l-23.3842-8.0417z" fill="#eac102"/><path d="m109.6588 43.3683c-1.2388 1.9731-1.1271 5.3619.3181 8.1484" fill="none"/><path d="m133.6205 75.9236-6.4443-10.1267" fill="none"/><path d="m115.8229 53.6257 5.5831 10.467" fill="none"/><path d="m127.515 57.602 5.7156 9.6407" fill="none"/><path d="m127.3449 74.8768 6.6691 10.8565" fill="none"/><path d="m139.1859 77.1399 6.8821 10.8565" fill="none"/><path d="m147.3139 106.2233-7.432-9.9179" fill="none"/><path d="m114.9031 98.7829c4.8885-2.5379 10.6714-.9645 12.9658 3.5278l10.6191 20.7919-17.6489 9.1622-10.6191-20.7919c-2.2944-4.4924-.2058-10.152 4.6831-12.69z" fill="#eac102"/><path d="m135.0616 124.8813-10.7962 5.6047-10.619-20.7918c-1.4103-2.7613-.1381-6.2341 2.8525-7.7867 2.9906-1.5525 6.5334-.5794 7.9437 2.182z"/><path d="m102.0444 80.3772 5.092 10.0168-5.3923 2.9393-5.474-10.2226c-.9398-1.755-.5531-3.919 1.157-4.878 1.7103-.9591 3.7157.3709 4.6173 2.1445z"/><path d="m113.7586 73.7664 5.092 10.0168-5.3923 2.9393-5.474-10.2226c-.9398-1.755-.5531-3.919 1.157-4.878 1.7103-.9591 3.7157.3709 4.6173 2.1445z"/><path d="m109.6584 43.3687 25.1228 9.9692v-11.5688l-4.8732-1.9338-.0001 5.7846-5.2514-2.0841v-5.7843l-4.8731-1.9338-.0002 5.7846-5.2512-2.0841v-5.7843l-4.8737-1.9338-1.6986 6.0871z" fill="#eac102"/><path d="m109.6584 43.3687-34.1584 21.9045v-11.5688l6.6261-4.2491v5.7846l7.1402-4.5789v-5.7843l6.6261-4.2491v5.7846l7.1398-4.5789.0002-5.7843 6.6259-4.2491z" fill="#eac102"/><path d="m417.9137 139.3047c15.1768-15.689 32.3599-36.2383 42.1016-52.4059-25.8501-8.2056-82.8623-19.0537-160.0153-19.0537s-134.1651 10.8481-160.0153 19.0537c9.7417 16.1676 26.9248 36.7169 42.1016 52.4059z" fill="#eac102"/><path d="m146.3161 96.4689c26.8426-7.0167 79.7089-16.2617 153.684-16.2617 73.975 0 126.8414 9.245 153.684 16.2617" fill="none"/><path d="m299.9999 92.2857v-12.0758" fill="none"/><path d="m265.6567 80.9441.8564 11.8784" fill="none"/><path d="m282.377 68.0607.4427 12.296" fill="none"/><path d="m283.2553 92.4566.3985 11.0684" fill="none"/><path d="m233.0043 82.8867 1.6594 11.4523" fill="none"/><path d="m202.1373 86.1522 2.3787 10.8545" fill="none"/><path d="m173.1221 90.6182 3.0563 10.3384" fill="none"/><path d="m247.987 69.599 1.3186 12.0722" fill="none"/><path d="m250.5887 93.5108 1.2151 11.2137" fill="none"/><path d="m215.3842 72.4811 2.1585 11.8738" fill="none"/><path d="m219.5717 95.5156 2.0754 11.4161" fill="none"/><path d="m184.6413 76.7489 2.9426 11.4474" fill="none"/><path d="m190.2997 98.7615 3.1724 12.3412" fill="none"/><path d="m155.9276 82.5287 3.625 10.8212" fill="none"/><path d="m446.8978 105.7098c-29.0896-7.2474-76.3643-13.4105-146.8978-13.4105-70.5336 0-117.8082 6.1632-146.8978 13.4105" fill="none"/><path d="m334.3433 80.9441-.8564 11.8784" fill="none"/><path d="m317.623 68.0607-.4427 12.296" fill="none"/><path d="m316.7448 92.4566-.3985 11.0684" fill="none"/><path d="m366.9957 82.8867-1.6594 11.4527" fill="none"/><path d="m397.8627 86.1522-2.3786 10.8545" fill="none"/><path d="m426.8779 90.6182-3.0563 10.3384" fill="none"/><path d="m352.0133 69.599-1.319 12.0722" fill="none"/><path d="m349.4113 93.5108-1.2151 11.2137" fill="none"/><path d="m384.6158 72.4811-2.1585 11.8738" fill="none"/><path d="m380.4283 95.5156-2.0754 11.4161" fill="none"/><path d="m415.3587 76.7489-2.9426 11.4475" fill="none"/><path d="m409.7004 98.7615-3.1725 12.3412" fill="none"/><path d="m444.0724 82.5287-3.625 10.8212" fill="none"/><path d="m162.9488 103.4882 4.482 13.3796" fill="none"/><path d="m335.5517 106.0819c-7.8509-22.4453-10.5472-50.3284-10.5472-81.4926l-25.0045-3.7606-25.0045 3.7606c0 31.1641-2.6964 59.0473-10.5473 81.4926z" fill="#eac102"/><path d="m269.3066 90.4681h61.3868" fill="#008f4c"/><path d="m271.6926 77.2923h56.6151" fill="#008f4c"/><path d="m273.3364 64.1166h53.3275" fill="#008f4c"/><path d="m274.9195 37.7651h50.1612" fill="#008f4c"/><path d="m300 37.7651v13.1759" fill="#008f4c"/><path d="m278.939 50.941v-13.1759" fill="#008f4c"/><path d="m321.061 50.941v-13.1759" fill="#008f4c"/><path d="m279.7612.5-2.7913 10.3118 5.6728.4853v-5.9667z" fill="#eac102"/><path d="m320.2398.5 2.67 10.6756-5.5511.1213v-5.9667z" fill="#eac102"/><path d="m325.0046 24.589c0-3.235 6.2436-6.7466 8.7279-7.6143l-33.7322-3.6393-33.7323 3.6393c2.4842.8678 8.7277 4.3794 8.7277 7.6143z" fill="#eac102"/><path d="m300.0002 64.1166v13.1759" fill="#008f4c"/><path d="m278.939 77.2925v-13.1759" fill="#008f4c"/><path d="m321.061 77.2925v-13.1759" fill="#008f4c"/><path d="m278.939 105.1241v-14.656" fill="#008f4c"/><path d="m321.061 105.1241v-14.656" fill="#008f4c"/><path d="m310.5307 24.5893v13.1759" fill="#008f4c"/><path d="m289.4695 37.7652v-13.1759" fill="#008f4c"/><path d="m310.5307 50.9407v13.1759" fill="#008f4c"/><path d="m289.4695 64.1166v-13.1759" fill="#008f4c"/><path d="m274.378 50.9408h51.2439" fill="#008f4c"/><path d="m314.5454 59.487h-8.0297v-12.9333c0-2.3041 1.7906-4.1591 4.0149-4.1591s4.0149 1.8549 4.0149 4.1591z" fill-rule="evenodd"/><path d="m293.4842 59.487h-8.0297v-12.9333c0-2.3041 1.7906-4.1591 4.0149-4.1591s4.0149 1.8549 4.0149 4.1591z" fill-rule="evenodd"/><path d="m266.2679.5v16.4747h67.4648v-16.4747h-13.4928v8.2376h-13.4935v-8.2376h-13.4926v8.2376h-13.4926v-8.2376z" fill="#eac102"/><path d="m464.4295 109.3367-7.6418 15.4039" fill="none"/><path d="m300 70.7045c7.2893 0 13.1576 5.8659 13.1576 13.152v29.3192h-26.3152v-29.3192c0-7.2863 5.8683-13.152 13.1576-13.152z" fill="#eac102" fill-rule="evenodd"/><path d="m300 75.7436c4.4591 0 8.0489 3.6185 8.0489 8.1133v29.3189h-16.0978v-29.3189c0-4.4947 3.5898-8.1133 8.0489-8.1133z" fill-rule="evenodd"/><path d="m226.1047 71.326c4.3848 15.3977 9.7237 30.2164 15.62 40.3657h-8.5343l-26.6896-42.3593 2.7529-42.3592 10.2186 6.2634 6.9471 9.5465c1.7706 9.5419 4.0736 18.5262 6.8123 27.8869z" fill="#eac102"/><path d="m209.2537 26.9733c4.7295 31.3502 13.4516 64.8134 23.9367 84.7184l-57.5658 7.5983c2.4266-23.872-.2582-50.7201-5.3054-81.8832l19.4673-8.4999z" fill="#eac102"/><path d="m176.1597 87.039 44.6905-7.1976 8.8437 3.2856" fill="none"/><path d="m173.9106 62.2131 40.1625-8.8166 17.4782 11.4768" fill="none"/><path d="m175.2518 74.6344 41.9338-8.0043 8.9191 4.696" fill="none"/><path d="m226.3152 21.2386 1.6357 4.4153-1.6357 4.4153-4.1542-3.2997v-4.377z" fill="#eac102"/><path d="m219.3117 12.6967 1.6357 5.3638-1.6357 5.3638-4.7387-4.1933v-5.3158z" fill="#eac102"/><path d="m172.7406 14.6568-1.6357 4.6967 1.6357 4.6967 4.8914.0106v-5.7111z" fill="#eac102"/><path d="m192.4999 9.4064-1.6357 4.6966 1.6357 4.6966 4.433-.324v-4.9221z" fill="#eac102"/><path d="m212.2699 18.3347-24.6998 3.3357-24.6998 9.902c3.6515.5347 6.9832 3.2754 7.4489 5.8345l38.9345-10.4335 17.1657 15.8099c-.3412-2.0505 1.2375-5.2829 3.2673-6.0039l-7.0727-10.864z" fill="#eac102"/><path d="m212.2699 18.3346c-2.3239 2.0547-3.4341 5.803-3.0162 8.6387" fill="none"/><path d="m220.0667 47.0066 2.7791 12.1241" fill="none"/><path d="m197.6573 30.1295 2.1236 12.853" fill="none"/><path d="m201.919 56.0961 2.1465 12.9965" fill="none"/><path d="m172.2258 49.7974 39.2485-9.6118 17.1721 13.4762" fill="none"/><path d="m191.8729 45.0451 2.0673 12.7409" fill="none"/><path d="m195.9605 70.7378 2.0745 12.703" fill="none"/><path d="m176.5604 99.4485 48.6206-6.3904 8.4671 1.2939" fill="none"/><path d="m175.8787 48.9283 2.0327 12.3846" fill="none"/><path d="m179.9588 73.7878 2.0235 12.2861" fill="none"/><path d="m184.0196 98.5302 2.7149 16.5424" fill="none"/><path d="m181.7798 34.3854 2.0547 12.5194" fill="none"/><path d="m185.9262 59.6494 2.0604 12.5121" fill="none"/><path d="m207.7509 41.1314 2.1721 13.1525" fill="none"/><path d="m212.1003 67.6325 2.1874 13.2458" fill="none"/><path d="m216.4628 94.2124 2.708 16.5001" fill="none"/><path d="m213.3162 30.812 2.3903 12.6607" fill="none"/><path d="m218.4604 56.2925 3.3099 12.7524" fill="none"/><path d="m222.051 38.7864 2.3062 11.507" fill="none"/><path d="m227.1526 61.9794 2.4363 9.0248" fill="none"/><path d="m197.0698 77.6799c5.9602-.7435 11.5171 3.2106 12.4594 8.8658l4.3609 26.1739-21.5177 2.6842-4.3607-26.174c-.9422-5.6551 3.0976-10.8064 9.0581-11.55z" fill="#eac102"/><path d="m205.3519 87.0669 4.3607 26.1738-13.1629 1.642-4.3606-26.1738c-.5791-3.4761 1.8898-6.6406 5.5361-7.0955 3.6459-.4549 7.0475 1.9774 7.6267 5.4535z"/><path d="m225.1873 81.599 4.314 12.066" fill="none"/><path d="m188.7031 54.2956 1.9685 12.423-6.8198 1.4112-2.068-12.5811c-.3475-2.1138.6788-4.0578 2.7579-4.5239 2.0792-.466 3.8262 1.1551 4.1614 3.2709z"/><path d="m204.7481 51.1153 1.9684 12.4232-6.8198 1.411-2.0679-12.5811c-.3474-2.1138.6787-4.0578 2.7578-4.5239 2.0793-.466 3.8263 1.1551 4.1615 3.2708z"/><path d="m226.3152 21.2386v5.5285l-3.6323-4.0945v-5.8646l-3.3712-4.1113v6.1362l-3.6322-4.1017v-6.4653l-3.4096-4.1114-1.6357 7.0901 1.6357 7.09 17.4168 18.4448v-11.4294z" fill="#eac102"/><path d="m162.8703 17.2811v14.2912l49.3996-13.2378v-14.18l-9.8902 2.6264.0003 7.0345-9.8801 2.6254v-7.0345l-9.8801 2.6253.0002 7.0345-9.8794 2.6253v-7.0346z" fill="#eac102"/><path d="m373.8953 71.326c-4.3848 15.3977-9.7237 30.2164-15.62 40.3657h8.5343l26.6896-42.3593-2.7529-42.3592-10.2186 6.2634-6.9471 9.5465c-1.7706 9.5419-4.0736 18.5262-6.8123 27.8869z" fill="#eac102"/><path d="m390.7463 26.9733c-4.7295 31.3502-13.4516 64.8134-23.9367 84.7184l57.5658 7.5983c-2.4266-23.872.2582-50.7201 5.3054-81.8832l-19.4673-8.4999z" fill="#eac102"/><path d="m423.8403 87.039-44.6905-7.1976-8.8437 3.2856" fill="none"/><path d="m426.0894 62.2131-40.1625-8.8166-17.4782 11.4768" fill="none"/><path d="m424.7482 74.6344-41.9338-8.0043-8.9191 4.696" fill="none"/><path d="m373.6848 21.2386-1.6357 4.4153 1.6357 4.4153 4.1542-3.2997v-4.377z" fill="#eac102"/><path d="m380.6883 12.6967-1.6357 5.3638 1.6357 5.3638 4.7387-4.1933v-5.3158z" fill="#eac102"/><path d="m427.2594 14.6568 1.6357 4.6967-1.6357 4.6967-4.8914.0106v-5.7111z" fill="#eac102"/><path d="m407.5001 9.4064 1.6357 4.6966-1.6357 4.6966-4.433-.324v-4.9221z" fill="#eac102"/><path d="m387.7301 18.3347 24.6998 3.3357 24.6998 9.902c-3.6515.5347-6.9832 3.2754-7.4489 5.8345l-38.9345-10.4335-17.1657 15.8099c.3412-2.0505-1.2375-5.2829-3.2673-6.0039l7.0727-10.864z" fill="#eac102"/><path d="m387.7301 18.3346c2.3239 2.0547 3.4341 5.803 3.0162 8.6387" fill="none"/><path d="m379.9333 47.0066-2.7791 12.1241" fill="none"/><path d="m402.3427 30.1295-2.1236 12.853" fill="none"/><path d="m398.081 56.0961-2.1465 12.9965" fill="none"/><path d="m427.7742 49.7974-39.2485-9.6118-17.1721 13.4762" fill="none"/><path d="m408.1271 45.0451-2.0673 12.7409" fill="none"/><path d="m404.0395 70.7378-2.0745 12.703" fill="none"/><path d="m423.4396 99.4485-48.6206-6.3904-8.4671 1.2939" fill="none"/><path d="m424.1213 48.9283-2.0327 12.3846" fill="none"/><path d="m420.0412 73.7878-2.0235 12.2861" fill="none"/><path d="m415.9804 98.5302-2.7149 16.5424" fill="none"/><path d="m418.2202 34.3854-2.0547 12.5194" fill="none"/><path d="m414.0738 59.6494-2.0604 12.5121" fill="none"/><path d="m392.2491 41.1314-2.1721 13.1525" fill="none"/><path d="m387.8997 67.6325-2.1874 13.2458" fill="none"/><path d="m383.5372 94.2124-2.708 16.5001" fill="none"/><path d="m386.6838 30.812-2.3903 12.6607" fill="none"/><path d="m381.5396 56.2925-3.3099 12.7524" fill="none"/><path d="m377.949 38.7864-2.3062 11.507" fill="none"/><path d="m372.8474 61.9794-2.4363 9.0248" fill="none"/><path d="m402.9302 77.6799c-5.9602-.7435-11.5171 3.2106-12.4594 8.8658l-4.3609 26.1739 21.5177 2.6842 4.3607-26.174c.9422-5.6551-3.0976-10.8064-9.0581-11.55z" fill="#eac102"/><path d="m394.6481 87.0669-4.3607 26.1738 13.1629 1.642 4.3606-26.1738c.5791-3.4761-1.8898-6.6406-5.5361-7.0955-3.6459-.4549-7.0475 1.9774-7.6267 5.4535z"/><path d="m374.8127 81.599-4.314 12.066" fill="none"/><path d="m411.2969 54.2956-1.9685 12.423 6.8198 1.4112 2.068-12.5811c.3475-2.1138-.6788-4.0578-2.7579-4.5239-2.0792-.466-3.8262 1.1551-4.1614 3.2709z"/><path d="m395.2519 51.1153-1.9684 12.4232 6.8198 1.411 2.0679-12.5811c.3474-2.1138-.6787-4.0578-2.7578-4.5239-2.0793-.466-3.8263 1.1551-4.1615 3.2708z"/><path d="m373.6848 21.2386v5.5285l3.6323-4.0945v-5.8646l3.3712-4.1113v6.1362l3.6322-4.1017v-6.4653l3.4096-4.1114 1.6357 7.0901-1.6357 7.09-17.4168 18.4448v-11.4294z" fill="#eac102"/><path d="m437.1297 17.2811v14.2912l-49.3996-13.2378v-14.18l9.8902 2.6264-.0003 7.0345 9.8801 2.6254v-7.0345l9.8801 2.6253-.0002 7.0345 9.8794 2.6253v-7.0346z" fill="#eac102"/><path d="m111.3227 149.0595c-11.1229-3.151-12.2645-13.3069-2.5117-19.5729 20.2853-13.033 85.6152-26.8424 191.189-26.8424s170.9037 13.8094 191.189 26.8424c9.7527 6.266 8.6112 16.4219-2.5117 19.5729l-188.6773-23.5929z" fill="#eac102"/><path d="m315.8392 102.7482c-14.0857 0-28.5886 4.1953-21.8932 13.8113" fill="none"/><path d="m497.7838 140.5209c-1.1739-12.1891-24.3176-12.9398-24.2917-3.1232" fill="none"/><path d="m350.4113 103.7861c-14.0841-.5526-30.299 3.4408-23.7503 13.1546" fill="none"/><path d="m383.3857 105.9069c-13.8997-1.1587-31.9143 2.5434-25.6141 12.4158" fill="none"/><path d="m416.3652 109.541c-13.3539-1.8122-33.4004 1.4737-27.3878 11.519" fill="none"/><path d="m447.9874 114.9315c-13.3823-2.8752-34.935-.3322-29.3938 9.9736" fill="none"/><path d="m478.1845 123.2728c-12.6585-4.1906-36.0679-4.0603-31.4841 6.6933" fill="none"/><path d="m133.9036 119.363c-12.116 4.3389-15.315 11.599-7.4669 17.9129" fill="none"/><path d="m282.2243 102.776c-14.0773.4786-26.872 5.1456-19.8448 14.5284" fill="none"/><path d="m249.3745 103.7957c-14.047 1.0289-26.3114 6.3572-18.9125 15.4579" fill="none"/><path d="m219.5185 105.6687c-14.6642 1.4681-24.5421 7.7036-16.632 16.3757" fill="none"/><path d="m189.8116 108.7077c-14.2376 1.8024-21.9876 8.5544-13.7587 16.9331" fill="none"/><path d="m160.3374 113.2712c-13.7521 3.0061-19.6742 9.6336-11.0282 17.5929" fill="none"/><path d="m110.3906 128.5102c-5.2218 2.7302-7.7871 13.7319 2.0872 17.0103" fill="none"/><path d="m111.3227 149.0595c6.5748 14.1798 11.48 29.703 16.4385 48.2625l46.7777-10.1615 125.4611-7.3098 125.4611 7.3098 46.7777 10.1615c4.9585-18.5595 9.8637-34.0827 16.4385-48.2625 5.7421-12.3838-78.4913-32.5721-188.6773-32.5721s-194.4193 20.1884-188.6773 32.5721z" fill="#eac102"/><path d="m124.8172 186.6681c-2.7776-9.4377 69.6649-21.4427 175.1828-21.4427s177.9604 12.0051 175.1828 21.4427" fill="none"/><path d="m121.8745 176.8556c-3.5085-10.9098 72.5414-23.8147 178.1255-23.8147s181.634 12.905 178.1255 23.8147" fill="none"/><path d="m300 165.2546v12.1494" fill="#008f4c" fill-rule="evenodd"/><path d="m118.7763 167.5551c-4.5225-12.3411 75.8054-26.6988 181.2237-26.6988 105.4184 0 185.7462 14.3577 181.2237 26.6988" fill="none"/><path d="m300 116.5642v12.1494" fill="#008f4c" fill-rule="evenodd"/><path d="m300 140.8468v12.1494" fill="#008f4c" fill-rule="evenodd"/><path d="m244.9269 130.2518 1.2727 11.79" fill="none"/><path d="m247.4881 154.2563 1.2803 11.8923" fill="none"/><path d="m261.8713 117.3769.846 11.9318" fill="none"/><path d="m263.5704 141.5585.8657 11.9966" fill="none"/><path d="m265.2969 165.6958.8344 11.7694" fill="none"/><path d="m225.5443 119.6955 1.6308 11.4457" fill="none"/><path d="m228.9209 143.1783 1.6496 11.7935" fill="none"/><path d="m232.3217 167.0154 1.5989 11.2208" fill="none"/><path d="m191.1644 123.5069 2.3343 10.9437" fill="none"/><path d="m196.0763 145.9957 2.4425 11.5159" fill="none"/><path d="m201.0557 169.2138 2.4146 11.2744" fill="none"/><path d="m158.9869 128.7523 2.98 10.4003" fill="none"/><path d="m165.1477 150.0803 3.1577 10.9603" fill="none"/><path d="m171.7049 172.5169 3.213 11.062" fill="none"/><path d="m129.3913 136.3686 3.4355 9.6027" fill="none"/><path d="m136.5491 156.2694 3.6417 10.2248" fill="none"/><path d="m144.0817 177.2886 4.0312 11.3047" fill="none"/><path d="m281.3495 128.9203.4317 12.0696" fill="none"/><path d="m282.2119 153.1571.4325 12.2146" fill="none"/><path d="m210.365 132.797 2.0197 11.4874" fill="none"/><path d="m214.5113 156.1805 2.094 11.7135" fill="none"/><path d="m177.7169 136.6647 2.8178 11.1474" fill="none"/><path d="m183.3964 159.1308 2.8864 11.4201" fill="none"/><path d="m147.2939 142.1923 3.4602 10.5039" fill="none"/><path d="m154.3511 163.526 3.5855 10.8811" fill="none"/><path d="m120.6981 150.927 3.4645 9.9083" fill="none"/><path d="m127.6551 170.8065 3.5885 10.2217" fill="none"/><path d="m484.689 158.3061c5.7378-13.3135-79.275-29.6342-184.689-29.6342s-190.4269 16.3208-184.689 29.6342" fill="none"/><path d="m355.0731 130.2518-1.2727 11.79" fill="none"/><path d="m352.5119 154.2563-1.2803 11.8923" fill="none"/><path d="m338.1287 117.3769-.846 11.9318" fill="none"/><path d="m336.4296 141.5585-.8657 11.9966" fill="none"/><path d="m334.7031 165.6958-.8344 11.7694" fill="none"/><path d="m374.4558 119.6955-1.6308 11.4457" fill="none"/><path d="m371.0791 143.1783-1.6496 11.7935" fill="none"/><path d="m367.6783 167.0154-1.5988 11.2208" fill="none"/><path d="m408.8356 123.5069-2.3343 10.9437" fill="none"/><path d="m403.9237 145.9957-2.4425 11.5159" fill="none"/><path d="m398.9443 169.2138-2.4146 11.2744" fill="none"/><path d="m441.0131 128.7523-2.98 10.4003" fill="none"/><path d="m434.8523 150.0803-3.1577 10.9603" fill="none"/><path d="m428.2951 172.5169-3.213 11.062" fill="none"/><path d="m470.6087 136.3686-3.4355 9.6027" fill="none"/><path d="m463.4509 156.2694-3.6417 10.2248" fill="none"/><path d="m455.9183 177.2886-4.0312 11.3047" fill="none"/><path d="m318.6506 128.9203-.4317 12.0696" fill="none"/><path d="m317.7881 153.1571-.4325 12.2146" fill="none"/><path d="m389.635 132.797-2.0197 11.4874" fill="none"/><path d="m385.4887 156.1805-2.094 11.7135" fill="none"/><path d="m422.2831 136.6647-2.8178 11.1474" fill="none"/><path d="m416.6036 159.1308-2.8864 11.4201" fill="none"/><path d="m452.7062 142.1923-3.4602 10.5039" fill="none"/><path d="m445.6489 163.526-3.5855 10.8811" fill="none"/><path d="m479.302 150.927-3.4645 9.9083" fill="none"/><path d="m472.3449 170.8065-3.5885 10.2217" fill="none"/><path d="m442.4111 186.0085 18.8671 5.5459 8.8101-25.6517c1.7028-4.958-.9804-10.1975-6.163-11.7993-5.1823-1.6017-10.8305 1.0635-12.5464 6.0169z" fill="#eac102"/><path d="m446.201 186.8947 11.445 3.5371 8.8101-25.6516c1.0467-3.0475-.5903-6.2643-3.7606-7.2441s-6.6376.6594-7.6843 3.707z"/><path d="m157.5889 186.0085-18.8671 5.5459-8.8101-25.6517c-1.7028-4.958.9804-10.1975 6.163-11.7993 5.1823-1.6017 10.8305 1.0635 12.5464 6.0169z" fill="#eac102"/><path d="m153.7991 186.8947-11.445 3.5371-8.8101-25.6516c-1.0467-3.0475.5903-6.2643 3.7606-7.2441s6.6376.6594 7.6843 3.707z"/><path d="m228.9697 140.685c6.4226-.5153 12.3563 4.0026 13.3038 10.1298l4.3856 28.3585-23.1871 1.8603-4.3855-28.3585c-.9476-6.1272 3.4603-11.4747 9.8832-11.99z" fill="#eac102"/><path d="m237.7721 151.1761 4.3856 28.3584-14.1841 1.138-4.3856-28.3584c-.5825-3.7662 2.1116-7.0519 6.0407-7.3672 3.9289-.3152 7.561 2.463 8.1434 6.2292z"/><path d="m371.0304 140.685c-6.4226-.5153-12.3563 4.0026-13.3038 10.1298l-4.3856 28.3585 23.187 1.8603 4.3856-28.3585c.9476-6.1272-3.4603-11.4747-9.8832-11.99z" fill="#eac102"/><path d="m357.8424 179.5344 14.1841 1.138 4.3855-28.3584c.5824-3.7662-2.1117-7.0519-6.0406-7.3672-3.929-.3152-7.561 2.463-8.1434 6.2292z"/><path d="m468.4893 203c0 2.2122-39.4563 17.0141-168.4893 17.0141s-168.4893-14.8019-168.4893-17.0141c0-2.2123 39.4563-17.0142 168.4893-17.0142s168.4893 14.8018 168.4893 17.0142zm11.0107 0c0 22.5798-119.923 26.5-179.5 26.5s-179.5-3.9202-179.5-26.5 119.923-26.5 179.5-26.5 179.5 3.9203 179.5 26.5z" fill="#eac102" fill-rule="evenodd"/></g></g><g stroke="#000" stroke-linecap="round" stroke-linejoin="round"><path d="m.5 510 299.5 299.5 299.5-299.5-299.5-299.5z" fill="#e5e5e5"/><path d="m535.3223 533.2246c7.6325-.0004 15.0875 2.2923 21.3926 6.5762 2.6887 1.8268 5.5876 3.2863 8.6191 4.3652l-12.9609 12.9609c-5.2706-2.6396-11.1052-4.0354-17.0508-4.0352-7.6325.0004-15.0895 2.2904-21.3945 6.5742-6.3051 4.2838-13.7601 6.5765-21.3926 6.5762-7.6325-.0004-15.0875-2.2923-21.3926-6.5762-6.3051-4.2838-13.7601-6.5746-21.3926-6.5742s-15.0875 2.2904-21.3926 6.5742-13.7601 6.5765-21.3926 6.5762c-7.6325-.0004-15.0875-2.2923-21.3926-6.5762-6.3051-4.2838-13.762-6.5746-21.3945-6.5742s-15.0875 2.2904-21.3926 6.5742-13.7601 6.5765-21.3926 6.5762c-7.6325-.0004-15.0875-2.2923-21.3926-6.5762v-19.8652c6.3051 4.2839 13.7601 6.5739 21.3926 6.5742 7.6325.0004 15.0875-2.2904 21.3926-6.5742s13.7601-6.5758 21.3926-6.5762 15.0895 2.2923 21.3945 6.5762c6.3051 4.2838 13.7601 6.5739 21.3926 6.5742 7.6325.0004 15.0875-2.2904 21.3926-6.5742s13.7601-6.5758 21.3926-6.5762 15.0875 2.2923 21.3926 6.5762c6.3051 4.2838 13.7601 6.5739 21.3926 6.5742 7.6325.0004 15.0875-2.2904 21.3926-6.5742s13.762-6.5758 21.3945-6.5762z" fill="#0071bc"/><path d="m535.3223 493.4922c7.6325-.0004 15.0875 2.2904 21.3926 6.5742s13.7601 6.5758 21.3926 6.5762c5.1721.0003 10.2603-1.057 14.9668-3.0684l6.4258 6.4258-16.1406 16.1406c-1.7335.2412-3.4874.3673-5.252.3672-7.6325-.0004-15.0875-2.2904-21.3926-6.5742s-13.7601-6.5765-21.3926-6.5762c-7.6325.0004-15.0895 2.2923-21.3945 6.5762-6.3051 4.2838-13.7601 6.5746-21.3926 6.5742s-15.0875-2.2904-21.3926-6.5742-13.7601-6.5765-21.3926-6.5762c-7.6325.0004-15.0875 2.2923-21.3926 6.5762-6.3051 4.2838-13.7601 6.5746-21.3926 6.5742s-15.0875-2.2904-21.3926-6.5742-13.762-6.5765-21.3945-6.5762c-7.6325.0004-15.0875 2.2923-21.3926 6.5762-6.3051 4.2838-13.7601 6.5746-21.3926 6.5742s-15.0875-2.2903-21.3926-6.5742v-19.8672c6.3051 4.2839 13.7601 6.5758 21.3926 6.5762s15.0875-2.2923 21.3926-6.5762c6.3051-4.2838 13.7601-6.5739 21.3926-6.5742 7.6325-.0004 15.0895 2.2904 21.3945 6.5742 6.3051 4.2838 13.7601 6.5758 21.3926 6.5762s15.0875-2.2923 21.3926-6.5762c6.3051-4.2838 13.7601-6.5739 21.3926-6.5742 7.6325-.0004 15.0875 2.2904 21.3926 6.5742s13.7601 6.5758 21.3926 6.5762 15.0875-2.2923 21.3926-6.5762c6.3051-4.2838 13.762-6.5739 21.3945-6.5742z" fill="#0071bc"/><path d="m535.3223 453.7578c3.0594-.0001 6.0876.3747 9.0273 1.0918l31.8731 31.8731c-6.9699-.3453-13.7229-2.593-19.5078-6.5234-6.3051-4.2838-13.7601-6.5746-21.3926-6.5742s-15.0895 2.2904-21.3945 6.5742c-6.3051 4.2838-13.7601 6.5765-21.3926 6.5762-7.6325-.0004-15.0875-2.2923-21.3926-6.5762-6.3051-4.2838-13.7601-6.5746-21.3926-6.5742s-15.0875 2.2904-21.3926 6.5742-13.7601 6.5765-21.3926 6.5762c-7.6325-.0004-15.0875-2.2923-21.3926-6.5762-6.3051-4.2838-13.762-6.5746-21.3945-6.5742s-15.0875 2.2904-21.3926 6.5742-13.7601 6.5765-21.3926 6.5762c-7.6325-.0004-15.0875-2.2923-21.3926-6.5762v-19.8652c6.3051 4.2839 13.7601 6.5739 21.3926 6.5742 7.6325.0004 15.0875-2.2904 21.3926-6.5742s13.7601-6.5758 21.3926-6.5762 15.0895 2.2923 21.3945 6.5762c6.3051 4.2838 13.7601 6.5739 21.3926 6.5742 7.6325.0004 15.0875-2.2904 21.3926-6.5742s13.7601-6.5758 21.3926-6.5762 15.0875 2.2923 21.3926 6.5762c6.3051 4.2838 13.7601 6.5739 21.3926 6.5742 7.6325.0004 15.0875-2.2904 21.3926-6.5742s13.762-6.5758 21.3945-6.5762z" fill="#0071bc"/><path d="m64.6777 533.2246c-7.6325-.0004-15.0875 2.2923-21.3926 6.5762-2.6887 1.8268-5.5876 3.2863-8.6191 4.3652l12.9609 12.9609c5.2706-2.6396 11.1052-4.0354 17.0508-4.0352 7.6325.0004 15.0894 2.2904 21.3945 6.5742s13.7601 6.5765 21.3926 6.5762c7.6325-.0004 15.0875-2.2923 21.3926-6.5762 6.3051-4.2838 13.7601-6.5746 21.3926-6.5742s15.0875 2.2904 21.3926 6.5742 13.7601 6.5765 21.3926 6.5762c7.6325-.0004 15.0875-2.2923 21.3926-6.5762 6.3051-4.2838 13.762-6.5746 21.3945-6.5742s15.0875 2.2904 21.3926 6.5742 13.7601 6.5765 21.3926 6.5762c7.6325-.0004 15.0875-2.2923 21.3926-6.5762v-19.8652c-6.3051 4.2839-13.7601 6.5739-21.3926 6.5742-7.6325.0004-15.0875-2.2904-21.3926-6.5742s-13.7601-6.5758-21.3926-6.5762-15.0895 2.2923-21.3945 6.5762c-6.3051 4.2838-13.7601 6.5739-21.3926 6.5742-7.6325.0004-15.0875-2.2904-21.3926-6.5742s-13.7601-6.5758-21.3926-6.5762-15.0875 2.2923-21.3926 6.5762c-6.3051 4.2838-13.7601 6.5739-21.3926 6.5742-7.6325.0004-15.0875-2.2904-21.3926-6.5742s-13.762-6.5758-21.3945-6.5762z" fill="#0071bc"/><path d="m64.6777 493.4922c-7.6325-.0004-15.0875 2.2904-21.3926 6.5742s-13.7601 6.5758-21.3926 6.5762c-5.1721.0003-10.2603-1.057-14.9668-3.0684l-6.4258 6.4258 16.1406 16.1406c1.7335.2412 3.4874.3673 5.252.3672 7.6325-.0004 15.0875-2.2904 21.3926-6.5742s13.7601-6.5765 21.3926-6.5762c7.6325.0004 15.0894 2.2923 21.3945 6.5762 6.3051 4.2838 13.7601 6.5746 21.3926 6.5742s15.0875-2.2904 21.3926-6.5742 13.7601-6.5765 21.3926-6.5762c7.6325.0004 15.0875 2.2923 21.3926 6.5762 6.3051 4.2838 13.7601 6.5746 21.3926 6.5742s15.0875-2.2904 21.3926-6.5742 13.762-6.5765 21.3945-6.5762c7.6325.0004 15.0875 2.2923 21.3926 6.5762 6.3051 4.2838 13.7601 6.5746 21.3926 6.5742s15.0875-2.2903 21.3926-6.5742v-19.8672c-6.3051 4.2839-13.7601 6.5758-21.3926 6.5762s-15.0875-2.2923-21.3926-6.5762c-6.3051-4.2838-13.7601-6.5739-21.3926-6.5742-7.6325-.0004-15.0895 2.2904-21.3945 6.5742-6.3051 4.2838-13.7601 6.5758-21.3926 6.5762s-15.0875-2.2923-21.3926-6.5762c-6.3051-4.2838-13.7601-6.5739-21.3926-6.5742-7.6325-.0004-15.0875 2.2904-21.3926 6.5742s-13.7601 6.5758-21.3926 6.5762-15.0875-2.2923-21.3926-6.5762c-6.3051-4.2838-13.762-6.5739-21.3945-6.5742z" fill="#0071bc"/><path d="m64.6777 453.7578c-3.0594-.0001-6.0876.3747-9.0273 1.0918l-31.873 31.8731c6.9699-.3453 13.7229-2.593 19.5078-6.5234 6.3051-4.2838 13.7601-6.5746 21.3926-6.5742s15.0894 2.2904 21.3945 6.5742 13.7601 6.5765 21.3926 6.5762c7.6325-.0004 15.0875-2.2923 21.3926-6.5762 6.3051-4.2838 13.7601-6.5746 21.3926-6.5742s15.0875 2.2904 21.3926 6.5742 13.7601 6.5765 21.3926 6.5762c7.6325-.0004 15.0875-2.2923 21.3926-6.5762 6.3051-4.2838 13.762-6.5746 21.3945-6.5742s15.0875 2.2904 21.3926 6.5742 13.7601 6.5765 21.3926 6.5762c7.6325-.0004 15.0875-2.2923 21.3926-6.5762v-19.8652c-6.3051 4.2839-13.7601 6.5739-21.3926 6.5742-7.6325.0004-15.0875-2.2904-21.3926-6.5742s-13.7601-6.5758-21.3926-6.5762-15.0895 2.2923-21.3945 6.5762c-6.3051 4.2838-13.7601 6.5739-21.3926 6.5742-7.6325.0004-15.0875-2.2904-21.3926-6.5742s-13.7601-6.5758-21.3926-6.5762-15.0875 2.2923-21.3926 6.5762c-6.3051 4.2838-13.7601 6.5739-21.3926 6.5742-7.6325.0004-15.0875-2.2904-21.3926-6.5742s-13.762-6.5758-21.3945-6.5762z" fill="#0071bc"/><path d="m150.25 659.75 149.75 149.75 149.75-149.75-149.75-149.75z" fill="#eac102"/><path d="m210.15 719.65 29.95 29.95 16.639-16.639-29.95-29.95z"/><path d="m270.05 779.55 16.639-16.639 13.311 13.311 13.311-13.311 16.639 16.639-29.95 29.95z"/><path d="m389.85 719.65-29.95 29.95-16.639-16.639 29.95-29.95z"/><path d="m419.8 689.7-16.639-16.639 13.311-13.311-13.311-13.311 16.639-16.639 29.95 29.95z"/><path d="m389.85 599.85-29.95-29.95-16.639 16.639 29.95 29.95z"/><path d="m270.05 539.95 16.639 16.639 13.311-13.311 13.311 13.311 16.639-16.639-29.95-29.95z"/><path d="m210.15 599.85 29.95-29.95 16.639 16.639-29.95 29.95z"/><path d="m180.2 629.8 16.639 16.639-13.311 13.311 13.311 13.311-16.639 16.639-29.95-29.95z"/><path d="m300 510 149.75-149.75-149.75-149.75-149.75 149.75z" fill="#008f4c"/></g><g stroke-linecap="round" stroke-linejoin="round"><g><path d="m257.7877 617.8996c.122-17.2902 11.8201-23.9996 14.6813-23.9996.4838 0 .8947.1778.9931.4922.5342 1.706-10.1038 2.7594-11.0648 23.4851-.0341.7438-4.6204 1.5295-4.6097.0221z" stroke="#000"/><path d="m257.38 613.7937c1.49-.2368 3.2746-.005 4.6387.1158" fill="none" stroke="#eac102"/><path d="m258.1573 609.71c1.0739.9894 3.6249 2.0205 4.8467 1.9989" fill="none" stroke="#eac102"/><path d="m259.3631 605.9267c.6998.8913 3.1257 2.1191 4.353 2.3049" fill="none" stroke="#eac102"/><path d="m261.068 602.6453c.7256.6524 2.6352 1.8334 3.6409 2.1904" fill="none" stroke="#eac102"/><path d="m262.901 600.1496c.7321.6207 2.6222 1.5484 3.6864 1.7373" fill="none" stroke="#eac102"/><path d="m265.0725 597.6927c.6038.5855 2.8314 1.6723 3.7585 1.781" fill="none" stroke="#eac102"/><path d="m289.3663 668.062c-.8024 7.2934-3.2113 8.4402-4.0959 12.6872-1.3531 6.4964-2.2438 18.0363-2.6672 20.0695-.507 2.4341-2.2478.9683-2.009 3.8209.1682 2.0093.6023 4.8604-.7011 4.8604h-6.1972c-1.145 0-.2512-3.5299 1.5988-4.9285.6375-.482 1.5967-2.938 1.7868-3.8506 1.6356-7.8526-.074-20.9213-.6683-22.538-1.2371-3.3653-1.7314-10.5682-.9009-13.9515" stroke="#000"/><path d="m274.4949 704.5715c1.1348.6649 5.1445.1991 6.599.0681" fill="none" stroke="#eac102"/><path d="m275.6063 710c.1519-1.3091.5164-3.7578 1.0704-5.0669" fill="none" stroke="#eac102"/><path d="m328.2888 663.1697c-2.4314 10.2922 7.0257 19.6485 6.2203 23.0576-.5372 2.2744-1.7562 5.2844-2.7707 9.5787-1.1001 4.657-.5482 6.1067-1.8443 6.6604-.6698.2861-1.2145 1.4275-1.116 2.1733.2641 1.9989.6026 4.8604-.7009 4.8604h-6.1972c-1.145 0-.2796-3.5683 1.599-4.9285.5526-.4001 1.6096-2.8722 1.8239-3.7793 1.146-4.8511 2.4448-12.1448 1.8937-13.7768-1.1469-3.397-10.0325-11.2363-14.7147-18.3675-1.6531-2.5178-3.2347-7.0535-3.2092-9.7892" stroke="#000"/><path d="m338.8738 649.083c.9454.1692 3.8144.5983 4.3792 1.0298 2.5187 1.9238 6.247.632 6.247-4.6101 0-1.4715-1.0304-3.7817-2.059-4.9627-.0365 3.0236-.8734 6.6181-3.5208 6.6181-1.9005 0-3.6671-.8287-5.3972-1.5443" stroke="#000"/><path d="m325.305 669.5553c-2.3445 3.7241-4.3457 12.2283.8058 12.2283 5.7539 0 3.516-8.4679 1.6509-12.0346" fill-rule="evenodd" stroke="#eac102"/><path d="m270.3506 662.1559c.5206 5.6442 5.2007 11.2808 10.8779 13.0551 8.7735 2.7419 17.8678 4.167 28.894 4.167 6.4818 0 14.4007-4.4101 17.4593-6.4695l10.5636-8.5574c0-3.4682 2.568-10.423 2.568-14.4541 0-1.3915.4024-3.4118-1.2832-4.5646-3.2508-2.2234-10.5421-3.8173-14.0486-3.8173-5.4591 0-13.2987 2.282-18.9262 2.282-5.361 0-15.1525-.5585-20.2095-4.4983-4.84-3.7707-6.0464-2.8698-19.6387-21.2541 1.1145-1.4422-3.966-4.1093-5.3185-2.9528-.5183-.4219-1.8523-.4227-2.6741-.4227-1.517 0-2.8549.6474-3.8058 1.9483-.6488.8875-2.3094 2.5431-2.5198 3.8462-.2321 1.437-1.7814 2.4963-2.4558 2.9873-1.9849 1.4455-2.6787 2.7418-3.6234 3.6492-.4749.4561-.9025 1.1887-.516 1.7393-.3826.2896-1.1941.8192-1.1941 1.8742 0 1.1308.987 1.9424 1.6779 2.054.902.1457 2.662-1.8177 4.6255-2.0286-1.0888.7348-2.3579 1.7517-2.9478 1.8054-.2555.0231-.7344.5837-.7858.902-.0481.299.6091.5669 1.359.6881.7391.1195 1.4658-.3498 2.0161-.2608.6943.1122-.7126 1.6224-.1391 3.745.1845.6826-.4722-1.2429 4.0556-4.624 1.8714.1364 4.0217-.2524 4.5112-.362 1.778.7766 2.785 5.0498 6.1537 13.1175 3.8093 9.1229 4.9403 12.2428 5.3243 16.4055z" stroke="#000"/><path d="m265.4844 616.7918c-.2246.8346-5.4916-.0257-4.9591-1.6914 6.1084-19.1096 18.0209-21.2004 24.7271-21.2004.5594 0 .931.5011.931.8847 0 2.0816-14.4511-1.207-20.699 22.0071z" stroke="#000"/><path d="m262.7069 609.0037c.8431 1.4818 3.4243 2.7412 4.7798 3.1561" fill="none" stroke="#eac102"/><path d="m264.983 604.9485c.6353 1.1701 2.829 2.8089 4.1188 3.4554" fill="none" stroke="#eac102"/><path d="m267.4112 601.5262c.5355 1.2033 2.4485 2.8181 3.5243 3.6846" fill="none" stroke="#eac102"/><path d="m270.1036 598.7976c.5753.9832 2.1971 2.8192 3.1834 3.5757" fill="none" stroke="#eac102"/><path d="m273.0583 596.7179c.5934.9503 1.8896 2.463 2.9986 3.0545" fill="none" stroke="#eac102"/><path d="m276.2463 595.028c.4638.8654 1.764 2.5764 2.7494 3.0295" fill="none" stroke="#eac102"/><path d="m338.1455 664.3511c0 10.5758 11.3546 17.5051 11.3546 21.0081 0 2.337-.4942 5.5469-.4942 9.9594 0 4.7853.8705 6.0691-.2636 6.9062-.5861.4326-.699 1.4168-.5807 2.4149.2372 2.0022.6025 4.8603-.701 4.8603h-6.1972c-1.145 0-.2726-3.5587 1.5988-4.9285.4901-.3587 1.0269-1.9873 1.0269-2.9195 0-4.9848-.4129-12.3818-1.3244-13.8432-1.8972-3.042-12.3468-8.6267-18.543-14.4894-2.1876-2.0699-4.7696-6.1201-5.3737-8.7884" stroke="#000"/><path d="m341.8622 704.5715c1.1347.6649 5.3445.1991 6.799.0681" fill="none" stroke="#eac102"/><path d="m343.1739 710c.1518-1.3091.5163-3.7578 1.0704-5.0669" fill="none" stroke="#eac102"/><path d="m294.401 667.024c.7016 7.3038-1.4229 8.9182-1.4229 13.2563 0 6.636 1.4811 18.115 1.4811 20.1918 0 2.4863-1.5329.8132-1.2019 4.1675.198 2.0065.6024 4.8604-.7011 4.8604h-6.1972c-1.1449 0-.2507-3.5291 1.5988-4.9285.6485-.4907 1.0758-2.1361 1.0758-3.0682 0-8.0213-4.3383-20.4664-5.2498-21.9278-1.8972-3.042-3.8499-9.9927-3.7267-13.4743" stroke="#000"/><path d="m258.2918 620.7269c-.0633 1.701-3.3577 2.1187-4.3981.9648.9847-1.7479 3.2292-1.59 4.3981-.9648z" fill="#e5e5e5" fill-rule="evenodd" stroke="#eac102"/><path d="m260.5116 620.8375c-.5347.2176-1.657.2033-2.2198-.1106" fill="none" stroke="#eac102"/><path d="m258.8572 633.6548c1.5496-.2624 5.348-1.5435 5.2737-5.7266" fill="none" stroke="#eac102"/><path d="m244.0956 629.0367c1.0854-.9047 3.9232-.3932 3.5799-1.8694" fill="none" stroke="#eac102"/><path d="m262.5 636.2993c-.7544 1.5325-2.3072 3.2609-2.5241 4.6044-.1836 1.1369.7029 1.7262 1.2081 1.8078 1.1283.1823 1.2669-2.2936 2.4548-4.103" fill-rule="evenodd" stroke="#000"/><path d="m256.5904 621.3215c-.028.1735-1.5621.4271-1.5129.1226.0614-.38 1.5469-.3333 1.5129-.1226z" stroke="#000"/><path d="m322.4788 704.5715c1.1347.6649 5.3445.1991 6.799.0681" fill="none" stroke="#eac102"/><path d="m323.7905 710c.1519-1.3091.5164-3.7578 1.0704-5.0669" fill="none" stroke="#eac102"/><path d="m287.1582 704.5715c1.1348.6649 5.1445.1991 6.599.0681" fill="none" stroke="#eac102"/><path d="m288.2696 710c.1519-1.3091.5164-3.7578 1.0704-5.0669" fill="none" stroke="#eac102"/><path d="m263.7783 619.4029c.682-1.9665 5.0886-1.6237 11.8523-.5623-.3202 1.9826-6.462 4.3859-8.2057 4.1041-.8108-.1311-1.7386-.5861-2.8836-1.8082" stroke="#000"/><path d="m264.5414 621.1365c5.2698-.6898 9.6198-1.7023 11.4299-2.381" fill="none" stroke="#eac102"/><path d="m285.2712 686.5808c-.3993-5.8544-4.9483-12.1162-5.2141-20.4796" fill="none" stroke="#eac102"/><path d="m294.401 667.024c.6156 6.409-.1281 8.483-.3386 11.809" fill="none" stroke="#eac102"/><path d="m282.1938 676.4986c-3.7111-.8513-6.0202-2.6552-7.7964-4.3097" fill="none" stroke="#eac102"/><path d="m334.6399 682.6492c-3.4839-2.4124-7.6819-6.5515-10.6183-9.3298-2.1876-2.0699-4.7696-6.1201-5.3737-8.7884" fill="none" stroke="#eac102"/><path d="m325.8279 675.15c-1.6687.9662-4.1307 2.2791-6.4404 3.1528" fill="none" stroke="#eac102"/><path d="m341.703 650.2883c.0697-1.2927.0456-3.5617-.5389-4.5095" fill="none" stroke="#eac102"/><path d="m260.7558 637.275c.2812-.3972.8406-1.3844 1.0541-1.7268" fill="none" stroke="#eac102"/><path d="m262.8579 642.7437c.3359-.638.9446-2.6107 1.6234-3.588" fill="none" stroke="#eac102"/><path d="m267.3105 616.9892c-1.7171.0425-3.1898 1.1832-3.5226 2.402" fill="none" stroke="#eac102"/><path d="m271.1989 623.17c-3.0009 1.0472-5.6678.6453-6.6575-2.0335" fill="none" stroke="#eac102"/><path d="m266.7961 615.7533c-.1061.3348-.2137.6705-.3207 1.0075-.3516 1.1076-6.3814.1513-5.95-1.6604 2.4471-10.2783 9.052-17.1936 13.8956-19.8774" fill="none" stroke="#eac102"/></g><g stroke="#000"><path d="m300.2053 436.5703c-9.7084-8.7596-21.2444-17.5943-31.2072-22.1417-1.9658-.8973-5.5344 5.0073-6.2425 6.1421-.6418 1.0283 7.0234 16.2357 15.4748 23.7487-4.0159-7.0753-6.2775-12.3327-6.9215-21.1534 10.7057 5.3625 20.6752 11.5456 28.93 18.5746z" fill="#eac102" fill-rule="evenodd"/><path d="m265.4765 416.7861c11.333 4.8216 26.229 14.8884 33.6018 21.0816" fill="none"/><path d="m271.309 423.1659c-2.6682-1.3168-7.8328-3.8462-8.5534-2.5953" fill="none"/><path d="m267.2035 421.2961c.8291 3.5109 2.2614 8.313 4.0529 11.652" fill="none"/><path d="m300.1017 438.7587c6.6542-6.9813 19.1511-17.088 27.1395-22.196 2.3615-1.5099 7.9882 1.7341 7.0412 3.5701-7.9276 15.372-10.3543 18.3106-20.6522 28.7699 5.41-8.323 7.7708-13.5808 9.7715-22.268-4.4019 2.6099-18.4076 12.1561-23.005 17.1871z" fill="#eac102" fill-rule="evenodd"/><path d="m331.9889 417.243c-9.8161 6.357-22.8778 15.5917-31.4883 23.657" fill="none"/><path d="m323.4018 426.6348c3.0938-1.9813 10.2126-5.1476 10.8806-6.502" fill="none"/><path d="m328.7466 423.6866c-2.1857 4.2506-4.4828 9.7958-6.8084 13.4185" fill="none"/><path d="m263.1849 349.4104-.8271-7.8022" fill="none"/><path d="m318.6324 463.0707-4.6486 2.6846c-1.8303-7.0177-19.4972-36.2558-30.3139-54.5421l1.7772-3.0605c11.4352 19.0743 28.1829 49.292 33.1852 54.918z" fill="#eac102" fill-rule="evenodd"/><path d="m256.1966 380.9829-7.1227-4.7803" fill="none"/><path d="m275.0001 369.6705-.7965-7.5388" fill="none"/><path d="m256.627 339.077-1.2243-8.159" fill="none"/><path d="m251.5892 330.352-1.5875-8.9673" fill="none"/><path d="m230.4601 315.5535-3.573-6.1902" fill="none"/><path d="m227.8687 329.6697-2.3687-4.0867" fill="none"/><path d="m251.1025 371.4845-6.2007-3.0505" fill="none"/><path d="m233.9166 342.7502-8.4166-7.4504" fill="none"/><path d="m243.9433 319.6657-2.9532-8.0681" fill="none"/><path d="m243.9433 319.6657c-.4759 7.4805-6.3384 14.4814 5.7128 24.9935 1.7396-9.2392 1.3943-13.8004-5.7128-24.9935z" fill="#eac102"/><path d="m251.5892 330.352c-3.1676 7.4601-7.587 10.8469 1.6211 21.7227 1.5477-9.3378 3.8267-9.6983-1.6211-21.7227z" fill="#eac102"/><path d="m256.627 339.077c-1.7105 7.2291-6.3846 12.8083 3.5742 25.1897 3.8739-11.4302 2.5717-11.7644-3.5742-25.1897z" fill="#eac102"/><path d="m263.1849 349.4104c-2.4257 7.4676-7.6061 13.3331 2.583 24.9848 4.312-12.638-1.7866-18.8496-2.583-24.9848z" fill="#eac102"/><path d="m269.0334 360.1456c-2.2267 7.1495-7.8859 13.4463 1.8829 24.7656 3.0593-10.3545 3.3636-11.8881-1.8829-24.7656z" fill="#eac102"/><path d="m227.8687 329.6697c4.2262 2.8037 12.9248 1.491 16.8147 17.0416-11.2846-4.7637-11.8175-4.4118-16.8147-17.0416z" fill="#eac102"/><path d="m233.9166 342.7502c4.7835 1.4769 12.516-2.7397 18.7302 10.7025-12.3933-1.4078-11.7733-.2784-18.7302-10.7025z" fill="#eac102"/><path d="m238.9715 351.9437-6.9497-5.6204" fill="none"/><path d="m238.9715 351.9437c5.0201 1.6792 13.02-2.6615 19.7416 11.8314-12.9641-1.7674-12.297-.5475-19.7416-11.8314z" fill="#eac102"/><path d="m244.8107 362.5063-6.6224-4.3541" fill="none"/><path d="m244.8107 362.5063c4.4513.4866 12.3067-6.2736 18.4147 12.7716-8.5607.035-16.2864-10.9564-18.4147-12.7716z" fill="#eac102"/><path d="m251.1025 371.4845c7.3694-.1326 10.3619-2.5682 19.5479 13.3071-12.0471-2.5506-11.2788-1.256-19.5479-13.3071z" fill="#eac102"/><path d="m269.0334 360.1456-1.2366-7.1678" fill="none"/><path d="m275.0001 369.6705c-2.4631 6.454-7.5467 10.924.464 23.9417 5.0045-10.0258 3.8076-10.5348-.464-23.9417z" fill="#eac102"/><path d="m256.1966 380.9829c4.9171 2.1374 13.2608-1.41 18.9574 13.5822-12.8836-2.9718-12.3024-1.7006-18.9574-13.5822z" fill="#eac102"/><path d="m230.4601 315.5535c6.8877 6.005 15.0246 7.8316 12.7086 21.8219-9.5356-3.6203-13.0814-10.3169-12.7086-21.8219z" fill="#eac102"/><path d="m235.1685 325.6308c10.0676 6.1654 12.0099 6.5431 14.4252 20.4206-9.8527-3.0404-10.7514-8.7432-14.4252-20.4206z" fill="#eac102"/><path d="m241.7331 336.6631c9.741 6.8651 13.7814 5.4787 13.6634 21.0391-9.7763-3.6975-10.8755-9.0205-13.6634-21.0391z" fill="#eac102"/><path d="m248.584 347.7925c9.3756 7.3658 13.4071 6.1998 12.7655 21.7047-9.5173-4.2104-10.4212-9.5742-12.7655-21.7047z" fill="#eac102"/><path d="m255.1498 358.6559c9.6036 7.2081 13.8405 5.9002 12.7865 21.6899-9.8297-3.9945-10.6406-9.4233-12.7865-21.6899z" fill="#eac102"/><path d="m261.1641 368.5086c8.8294 6.818 12.6657 5.6784 11.9171 20.2566-8.9931-3.8524-9.8026-8.8834-11.9171-20.2566z" fill="#eac102"/><path d="m267.6202 401.7216-7.0193-4.7389" fill="none"/><path d="m286.1658 389.9848-.5392-7.7791" fill="none"/><path d="m262.3592 392.3126-6.0681-3.9418" fill="none"/><path d="m280.0341 380.5683c-2.0869 7.2115-7.6138 13.6419 2.3444 24.7749 2.8572-10.4402 3.1321-11.9834-2.3444-24.7749z" fill="#eac102"/><path d="m262.3592 392.3126c7.3492-.2904 10.2891-2.7942 19.7516 12.9162-12.0661-2.2982-11.275-1.0168-19.7516-12.9162z" fill="#eac102"/><path d="m280.0341 380.5683-1.3688-7.1562" fill="none"/><path d="m286.1658 389.9848c-2.3361 6.519-6.1606 10.1663 2.0757 23.0391 4.8034-10.1535 3.5455-12.1319-2.0757-23.0391z" fill="#eac102"/><path d="m267.6202 401.7216c4.9456 2.0362 13.2024-1.6963 19.1675 13.2042-12.9084-2.7024-12.3046-1.4408-19.1675-13.2042z" fill="#eac102"/><path d="m266.382 378.2062c8.7995 6.8621 12.6803 5.7124 11.7207 20.3934-9.0061-3.8752-9.7505-8.9411-11.7207-20.3934z" fill="#eac102"/><path d="m272.3407 389.1157c8.937 6.6435 12.7426 5.4196 12.27 20.0425-9.0439-3.6674-9.9462-8.6915-12.27-20.0425z" fill="#eac102"/><path d="m277.729 398.7219c8.9074 6.6875 12.7574 5.4526 12.0758 20.1832-9.0571-3.69-9.8952-8.7503-12.0758-20.1832z" fill="#eac102"/><path d="m336.815 349.4104.8273-7.8022" fill="none"/><path d="m281.3675 463.0707 4.6486 2.6846c1.8304-7.0177 19.4973-36.2558 30.3139-54.5421l-1.7772-3.0605c-11.4352 19.0743-28.1828 49.292-33.1852 54.918z" fill="#eac102" fill-rule="evenodd"/><path d="m343.8034 380.9829 7.1227-4.7803" fill="none"/><path d="m324.9998 369.6705.7965-7.5388" fill="none"/><path d="m343.373 339.077 1.2243-8.159" fill="none"/><path d="m348.4107 330.352 1.5875-8.9673" fill="none"/><path d="m369.5399 315.5535 3.5729-6.1902" fill="none"/><path d="m372.1312 329.6697 2.3687-4.0867" fill="none"/><path d="m348.8974 371.4845 6.2007-3.0505" fill="none"/><path d="m366.0833 342.7502 8.4168-7.4504" fill="none"/><path d="m356.0566 319.6657 2.9532-8.0681" fill="none"/><path d="m356.0566 319.6657c.4759 7.4805 6.3384 14.4814-5.7128 24.9935-1.7396-9.2392-1.3942-13.8004 5.7128-24.9935z" fill="#eac102"/><path d="m348.4107 330.352c3.1676 7.4601 7.5871 10.8469-1.6211 21.7227-1.5476-9.3378-3.8266-9.6983 1.6211-21.7227z" fill="#eac102"/><path d="m343.373 339.077c1.7104 7.2291 6.3845 12.8083-3.5743 25.1897-3.8739-11.4302-2.5718-11.7644 3.5743-25.1897z" fill="#eac102"/><path d="m336.815 349.4104c2.4258 7.4676 7.6061 13.3331-2.583 24.9848-4.312-12.638 1.7866-18.8496 2.583-24.9848z" fill="#eac102"/><path d="m330.9665 360.1456c2.2267 7.1495 7.8859 13.4463-1.8829 24.7656-3.0593-10.3545-3.3636-11.8881 1.8829-24.7656z" fill="#eac102"/><path d="m372.1312 329.6697c-4.2262 2.8037-12.9248 1.491-16.8148 17.0416 11.2848-4.7637 11.8177-4.4118 16.8148-17.0416z" fill="#eac102"/><path d="m366.0833 342.7502c-4.7835 1.4769-12.516-2.7397-18.73 10.7025 12.3933-1.4078 11.7731-.2784 18.73-10.7025z" fill="#eac102"/><path d="m361.0284 351.9437 6.9498-5.6204" fill="none"/><path d="m361.0284 351.9437c-5.0199 1.6792-13.02-2.6615-19.7415 11.8314 12.964-1.7674 12.297-.5475 19.7415-11.8314z" fill="#eac102"/><path d="m355.1892 362.5063 6.6224-4.3541" fill="none"/><path d="m355.1892 362.5063c-4.4512.4866-12.3067-6.2736-18.4147 12.7716 8.5609.035 16.2866-10.9564 18.4147-12.7716z" fill="#eac102"/><path d="m348.8974 371.4845c-7.3692-.1326-10.3619-2.5682-19.5479 13.3071 12.0471-2.5506 11.2788-1.256 19.5479-13.3071z" fill="#eac102"/><path d="m330.9665 360.1456 1.2366-7.1678" fill="none"/><path d="m324.9998 369.6705c2.4631 6.454 7.5467 10.924-.464 23.9417-5.0045-10.0258-3.8076-10.5348.464-23.9417z" fill="#eac102"/><path d="m343.8034 380.9829c-4.9171 2.1374-13.2609-1.41-18.9577 13.5822 12.8837-2.9718 12.3025-1.7006 18.9577-13.5822z" fill="#eac102"/><path d="m369.5399 315.5535c-6.8877 6.005-15.0246 7.8316-12.7087 21.8219 9.5357-3.6203 13.0816-10.3169 12.7087-21.8219z" fill="#eac102"/><path d="m364.8314 325.6308c-10.0675 6.1654-12.0099 6.5431-14.4251 20.4206 9.8527-3.0404 10.7513-8.7432 14.4251-20.4206z" fill="#eac102"/><path d="m358.2669 336.6631c-9.741 6.8651-13.7814 5.4787-13.6636 21.0391 9.7764-3.6975 10.8755-9.0205 13.6636-21.0391z" fill="#eac102"/><path d="m351.416 347.7925c-9.3757 7.3658-13.4072 6.1998-12.7655 21.7047 9.5172-4.2104 10.4211-9.5742 12.7655-21.7047z" fill="#eac102"/><path d="m344.8501 358.6559c-9.6036 7.2081-13.8405 5.9002-12.7865 21.6899 9.8297-3.9945 10.6406-9.4233 12.7865-21.6899z" fill="#eac102"/><path d="m338.8359 368.5086c-8.8296 6.818-12.6657 5.6784-11.9172 20.2566 8.9932-3.8524 9.8026-8.8834 11.9172-20.2566z" fill="#eac102"/><path d="m332.3797 401.7216 7.0194-4.7389" fill="none"/><path d="m313.8342 389.9848.539-7.7791" fill="none"/><path d="m337.6407 392.3126 6.0681-3.9418" fill="none"/><path d="m319.9659 380.5683c2.0868 7.2115 7.6137 13.6419-2.3446 24.7749-2.8572-10.4402-3.132-11.9834 2.3446-24.7749z" fill="#eac102"/><path d="m337.6407 392.3126c-7.3491-.2904-10.289-2.7942-19.7516 12.9162 12.0661-2.2982 11.275-1.0168 19.7516-12.9162z" fill="#eac102"/><path d="m319.9659 380.5683 1.3687-7.1562" fill="none"/><path d="m313.8342 389.9848c2.336 6.519 6.1606 10.1663-2.0757 23.0391-4.8034-10.1535-3.5455-12.1319 2.0757-23.0391z" fill="#eac102"/><path d="m332.3797 401.7216c-4.9454 2.0362-13.2024-1.6963-19.1675 13.2042 12.9085-2.7024 12.3048-1.4408 19.1675-13.2042z" fill="#eac102"/><path d="m333.6179 378.2062c-8.7995 6.8621-12.6803 5.7124-11.7207 20.3934 9.0061-3.8752 9.7506-8.9411 11.7207-20.3934z" fill="#eac102"/><path d="m327.6592 389.1157c-8.937 6.6435-12.7425 5.4196-12.2698 20.0425 9.0438-3.6674 9.9461-8.6915 12.2698-20.0425z" fill="#eac102"/><path d="m322.2709 398.7219c-8.9073 6.6875-12.7573 5.4526-12.0758 20.1832 9.0572-3.69 9.8952-8.7503 12.0758-20.1832z" fill="#eac102"/><path d="m311.4168 343.3358 3.1836-7.1705" fill="none"/><path d="m302.6217 469.5h-5.3676c1.9226-6.993 1.2375-41.1497 1.0107-62.3962l3.069-1.7615c.3686 22.2381-.232 56.7834 1.2879 64.1576z" fill="#eac102" fill-rule="evenodd"/><path d="m289.5829 367.1831-3.7788-7.7021" fill="none"/><path d="m311.5218 366.7907 3.0785-6.9271" fill="none"/><path d="m310.9027 331.1067 3.0182-7.6782" fill="none"/><path d="m310.9012 321.0311 3.1075-8.5598" fill="none"/><path d="m299.9999 297.6479v-7.1479" fill="none"/><path d="m290.6998 308.5767-.7773-7.9509" fill="none"/><path d="m289.9192 356.4096-3.8451-5.743" fill="none"/><path d="m289.3988 322.9298-3.7165-11.1085" fill="none"/><path d="m309.6214 307.9526 1.4754-8.4642" fill="none"/><path d="m309.6214 307.9526c-4.1513 6.2402-12.728 9.3711-7.5459 24.5022 6.1249-7.1313 8.1057-11.2542 7.5459-24.5022z" fill="#eac102"/><path d="m310.9012 321.0311c-6.4721 4.8764-11.9925 5.5992-9.4544 19.6233 6.0078-7.3127 8.1617-6.4852 9.4544-19.6233z" fill="#eac102"/><path d="m310.9027 331.1067c-5.0947 5.4053-11.9315 7.8993-9.4958 23.6026 9.0683-7.9614 8.1077-8.9021 9.4958-23.6026z" fill="#eac102"/><path d="m311.4168 343.3358c-5.8334 5.2538-13.2517 7.7427-10.2518 22.9292 10.0515-8.7882 7.8748-17.2177 10.2518-22.9292z" fill="#eac102"/><path d="m311.1157 355.5579c-5.5021 5.078-13.5505 7.7008-10.7485 22.3893 7.825-7.4371 8.8554-8.6129 10.7485-22.3893z" fill="#eac102"/><path d="m290.6998 308.5767c2.2585 4.5416 10.4479 7.7555 6.0436 23.1681-7.3917-9.7694-8.0291-9.7311-6.0436-23.1681z" fill="#eac102"/><path d="m289.3988 322.9298c3.4045 3.6713 12.2087 3.8871 10.8711 18.6362-10.0292-7.4176-10.0566-6.1294-10.8711-18.6362z" fill="#eac102"/><path d="m289.1811 333.4196-3.2091-8.3433" fill="none"/><path d="m289.1811 333.4196c3.5081 3.9649 12.606 4.2069 11.1826 20.1199-10.3437-8.0145-10.3758-6.6245-11.1826-20.1199z" fill="#eac102"/><path d="m288.9581 345.4874-3.5586-7.0829" fill="none"/><path d="m288.9581 345.4874c3.6118 2.6476 13.7939.722 9.5635 20.2704-7.4315-4.2511-8.6279-17.634-9.5635-20.2704z" fill="#eac102"/><path d="m289.9192 356.4096c6.4482 3.571 10.2573 2.9583 10.2774 21.301-9.1581-8.234-9.14-6.7287-10.2774-21.301z" fill="#eac102"/><path d="m311.1157 355.5579 2.512-6.8259" fill="none"/><path d="m311.5218 366.7907c-5.3591 4.3575-11.996 5.6861-11.5657 20.9662 9.3456-6.1795 8.5636-7.2191 11.5657-20.9662z" fill="#eac102"/><path d="m289.5829 367.1831c3.1901 4.3103 12.1891 5.4113 9.6285 21.2442-9.672-9.0174-9.8041-7.6259-9.6285-21.2442z" fill="#eac102"/><path d="m299.9999 297.6479c2.9635 8.6451 9.0971 14.2967.0977 25.2543-6.4485-7.9044-6.1719-15.4773-.0977-25.2543z" fill="#eac102"/><path d="m299.0404 308.7298c5.637 10.3745 7.1302 11.6732 2.2851 24.8995-7.0129-7.5608-4.9405-12.9492-2.2851-24.8995z" fill="#eac102"/><path d="m299.2108 321.5674c5.0044 10.8171 9.1966 11.6373 1.3163 25.054-6.6182-8.0917-4.9094-13.2513-1.3163-25.054z" fill="#eac102"/><path d="m299.5807 334.6321c4.4378 11.0681 8.5119 12.0746.2061 25.1813-6.1375-8.4062-4.2392-13.5036-.2061-25.1813z" fill="#eac102"/><path d="m299.8367 347.3239c4.7139 11.0457 9.0369 12.0319.2314 25.179-6.5162-8.3755-4.5046-13.4826-.2314-25.179z" fill="#eac102"/><path d="m300.1205 358.8645c4.2384 10.3207 8.1304 11.2523.1951 23.5029-5.8627-7.8341-4.0489-12.5958-.1951-23.5029z" fill="#eac102"/><path d="m289.1097 390.8569-3.7102-7.6146" fill="none"/><path d="m311.0373 389.9678 3.4216-7.0064" fill="none"/><path d="m289.2567 380.0771-3.2848-6.4485" fill="none"/><path d="m310.4341 378.7462c-5.412 5.2015-13.4128 8.0063-10.3536 22.6281 7.693-7.6123 8.7025-8.8113 10.3536-22.6281z" fill="#eac102"/><path d="m289.2567 380.0771c6.5097 3.4243 10.3073 2.7262 10.6491 21.0644-9.3007-8.0251-9.2562-6.5197-10.6491-21.0644z" fill="#eac102"/><path d="m310.4341 378.7462 2.3916-6.8821" fill="none"/><path d="m311.0373 389.9678c-5.2816 4.4773-10.417 5.7232-9.7187 20.9907 9.2354-6.3908 9.1347-8.7333 9.7187-20.9907z" fill="#eac102"/><path d="m289.1097 390.8569c3.2651 4.2367 12.2815 5.1339 9.9993 21.0215-9.8282-8.7964-9.9359-7.4018-9.9993-21.0215z" fill="#eac102"/><path d="m299.7918 369.8726c4.1905 10.344 8.1261 11.289-.0438 23.5232-5.8625-7.8604-3.9749-12.62.0438-23.5232z" fill="#eac102"/><path d="m299.499 382.3007c4.4187 10.2233 8.3262 11.0667.6075 23.4939-5.9991-7.6993-4.269-12.5015-.6075-23.4939z" fill="#eac102"/><path d="m299.3637 393.3149c4.3711 10.2466 8.3226 11.1025.369 23.5187-5.9992-7.7254-4.1954-12.527-.369-23.5187z" fill="#eac102"/></g><g><path d="m283.8584 350.8978v13.1252c0 25.1158 20.2908 45.4769 45.3208 45.4769s45.3208-20.3604 45.3208-45.4762c0-10.7996-3.7516-20.7236-10.0188-28.5241 2.1417 4.6947 3.3378 9.8977 3.3378 15.3987 0 20.4763-16.5426 37.0756-36.9489 37.0756s-36.9489-16.5993-36.9489-37.0756z" fill-rule="evenodd" stroke="#000"/><path d="m276.5202 364.0235s-2.1167 2.3744-3.7072 2.3744c-1.0809 0-7.7404-1.5362-10.858-1.2883-2.686.2136-19.8655 1.0154-26.7261 1.2333l-2.4202 6.0686c-1.3642 3.4207-7.3085 3.6817-7.3085 0l-.0002-16.0776c0-3.9372 3.3174-7.8097 7.3237-7.8097 3.3693 0 26.0136 1.0404 29.1313 1.2883 3.1176.2479 9.7771-1.2883 10.858-1.2883 1.5905 0 3.7072 2.3744 3.7072 2.3744z" stroke="#000"/><path d="m282.858 365.023v-15.125h-5.338v15.125z" fill-rule="evenodd" stroke="#008f4c"/></g></g><path d="m1.5 510 298.5 298.5 298.5-298.5-298.5-298.5z" fill="none" stroke="#000" stroke-linecap="round" stroke-linejoin="round" stroke-width="3"/></svg>