<?xml version="1.0" encoding="UTF-8" standalone="no"?>
<!-- Created with Inkscape (http://www.inkscape.org/) -->
<svg
   xmlns:dc="http://purl.org/dc/elements/1.1/"
   xmlns:cc="http://creativecommons.org/ns#"
   xmlns:rdf="http://www.w3.org/1999/02/22-rdf-syntax-ns#"
   xmlns:svg="http://www.w3.org/2000/svg"
   xmlns="http://www.w3.org/2000/svg"
   xmlns:sodipodi="http://sodipodi.sourceforge.net/DTD/sodipodi-0.dtd"
   xmlns:inkscape="http://www.inkscape.org/namespaces/inkscape"
   width="605"
   height="975"
   id="svg3194"
   sodipodi:version="0.32"
   inkscape:version="0.46dev+devel"
   version="1.0"
   sodipodi:docbase="C:\Documents and Settings\Xavi\Escritorio\svgs"
   sodipodi:docname="Escut_de_Santa_Margarida_de_Montbui.svg"
   inkscape:output_extension="org.inkscape.output.svg.inkscape">
  <defs
     id="defs3196" />
  <sodipodi:namedview
     id="base"
     pagecolor="#ffffff"
     bordercolor="#666666"
     borderopacity="1.0"
     gridtolerance="10000"
     guidetolerance="10"
     objecttolerance="10"
     inkscape:pageopacity="0.0"
     inkscape:pageshadow="2"
     inkscape:zoom="0.54564103"
     inkscape:cx="70.662594"
     inkscape:cy="487.5"
     inkscape:document-units="px"
     inkscape:current-layer="layer1"
     inkscape:window-width="985"
     inkscape:window-height="744"
     inkscape:window-x="182"
     inkscape:window-y="180"
     height="975px"
     width="549.99969px"
     showgrid="false" />
  <metadata
     id="metadata3199">
    <rdf:RDF>
      <cc:Work
         rdf:about="">
        <dc:format>image/svg+xml</dc:format>
        <dc:type
           rdf:resource="http://purl.org/dc/dcmitype/StillImage" />
        <dc:title>Escut de Santa Margarida de Montbui</dc:title>
        <dc:date>05-juny-2008</dc:date>
        <dc:creator>
          <cc:Agent>
            <dc:title>Xavi Garcia</dc:title>
          </cc:Agent>
        </dc:creator>
        <cc:license
           rdf:resource="http://creativecommons.org/licenses/by/3.0/" />
      </cc:Work>
      <cc:License
         rdf:about="http://creativecommons.org/licenses/by/3.0/">
        <cc:permits
           rdf:resource="http://creativecommons.org/ns#Reproduction" />
        <cc:permits
           rdf:resource="http://creativecommons.org/ns#Distribution" />
        <cc:requires
           rdf:resource="http://creativecommons.org/ns#Notice" />
        <cc:requires
           rdf:resource="http://creativecommons.org/ns#Attribution" />
        <cc:permits
           rdf:resource="http://creativecommons.org/ns#DerivativeWorks" />
      </cc:License>
      <cc:Work
         rdf:about="">
        <dc:format>image/svg+xml</dc:format>
        <dc:type
           rdf:resource="http://purl.org/dc/dcmitype/StillImage" />
        <dc:title>Escut de Torroella de Montgrí</dc:title>
        <dc:date>10-desembre-2007</dc:date>
        <dc:creator>
          <cc:Agent>
            <dc:title>Xavi Garcia</dc:title>
          </cc:Agent>
        </dc:creator>
        <cc:license
           rdf:resource="http://creativecommons.org/licenses/GPL/2.0/" />
      </cc:Work>
      <cc:License
         rdf:about="http://creativecommons.org/licenses/GPL/2.0/">
        <cc:permits
           rdf:resource="http://web.resource.org/cc/Reproduction" />
        <cc:permits
           rdf:resource="http://web.resource.org/cc/Distribution" />
        <cc:requires
           rdf:resource="http://web.resource.org/cc/Notice" />
        <cc:permits
           rdf:resource="http://web.resource.org/cc/DerivativeWorks" />
        <cc:requires
           rdf:resource="http://web.resource.org/cc/ShareAlike" />
        <cc:requires
           rdf:resource="http://web.resource.org/cc/SourceCode" />
      </cc:License>
    </rdf:RDF>
  </metadata>
  <g
     inkscape:groupmode="layer"
     id="layer3"
     inkscape:label="Timbre"
     transform="translate(-28.928569,76.640346)"
     style="display:inline">
    <g
       transform="translate(487.41308,-556.10049)"
       id="g2580"
       inkscape:label="Capa 1">
      <path
         id="path3446"
         rx="3.9327636"
         cy="-89.381149"
         ry="3.9327636"
         cx="-486.21375"
         type="arc"
         d="M 33.911427,811.98627 C 36.097727,807.23107 41.720027,805.15037 46.475327,807.33677 C 51.226127,809.52107 53.306827,815.14347 51.120527,819.89867 C 48.935127,824.65177 43.312927,826.73237 38.561927,824.54807 C 33.806727,822.36167 31.725927,816.73947 33.911427,811.98627 z"
         style="fill:#e3e4e5;fill-opacity:1;stroke:#010101;stroke-width:0.99999994;stroke-miterlimit:4;stroke-dasharray:none" />
      <path
         id="path9052"
         d="M -155.15896,769.16481 C -211.77157,769.72928 -269.03477,769.7819 -324.63397,781.10539 C -337.04147,784.84422 -354.78007,786.93201 -359.43757,800.17529 C -360.96547,811.2367 -346.93697,815.92467 -338.17417,818.96464 C -296.42977,830.92808 -252.32117,831.9409 -209.06887,833.81114 C -141.77836,835.09983 -74.05416,835.62297 -7.26256,826.68934 C 10.98454,823.32412 31.07684,821.24715 46.08194,809.90951 C 55.04154,801.53061 45.12404,789.81461 35.21954,787.40477 C 1.24234,774.95795 -35.81636,773.62232 -71.75236,771.08816 C -99.52566,769.64115 -127.34726,769.18319 -155.15896,769.16481 z"
         style="fill:#eac102;fill-rule:evenodd;stroke:#000000;stroke-width:1.00000012px;stroke-linecap:butt;stroke-linejoin:miter;stroke-opacity:1" />
      <path
         id="path9054"
         d="M -154.98436,782.76205 C -185.84148,782.76205 -211.86428,783.33585 -233.79685,784.33337 C -238.18352,784.53288 -242.41822,784.75508 -246.48435,784.98562 C -295.25563,787.7524 -321.407,792.64358 -335.42185,797.11148 C -336.5899,797.48389 -337.69752,797.84342 -338.7031,798.20844 C -343.71462,800.02964 -346.79671,801.77324 -348.67185,803.18924 C -349.04062,803.4678 -349.35821,803.73535 -349.6406,803.98972 C -349.93349,804.25355 -350.17802,804.49617 -350.3906,804.73091 C -351.64377,806.11414 -351.60936,806.95448 -351.60935,806.95448 L -340.9531,843.68785 L -306.10935,843.68785 L -3.85936,843.68785 L 30.98444,843.68785 L 41.64064,806.95448 C 41.64064,806.95448 41.67504,806.11414 40.42184,804.73091 C 40.20934,804.49617 39.96474,804.25355 39.67184,803.98972 C 37.95724,802.44049 34.75014,800.39458 28.73444,798.20844 C 28.72584,798.20535 28.71164,798.21154 28.70314,798.20844 C 15.63174,793.46417 -10.64786,787.98301 -63.48436,784.98562 C -63.49436,784.98505 -63.50566,784.98619 -63.51556,784.98562 C -67.58166,784.75508 -71.78536,784.53288 -76.17186,784.33337 C -98.10516,783.33584 -124.12546,782.76205 -154.98436,782.76205 z"
         style="fill:#eac102;fill-opacity:1;fill-rule:evenodd;stroke:#000000;stroke-width:1px;stroke-linecap:butt;stroke-linejoin:miter;stroke-opacity:1" />
      <path
         transform="matrix(0.5526395,0,0,0.5685945,-1059.5823,398.75738)"
         d="M 1796.3478,707.07074 A 23.065676,23.065676 0 1 1 1750.2164,707.07074 A 23.065676,23.065676 0 1 1 1796.3478,707.07074 z"
         sodipodi:ry="23.065676"
         sodipodi:rx="23.065676"
         sodipodi:cy="707.07074"
         sodipodi:cx="1773.2821"
         id="path9058"
         style="fill:#eac102;fill-opacity:1;fill-rule:evenodd;stroke:#000000;stroke-width:1.78393018px;stroke-linecap:round;stroke-linejoin:round;marker:none;marker-start:none;marker-mid:none;marker-end:none;stroke-miterlimit:4;stroke-dasharray:none;stroke-dashoffset:0;stroke-opacity:1;visibility:visible;display:inline;overflow:visible;enable-background:accumulate"
         sodipodi:type="arc" />
      <path
         sodipodi:type="arc"
         style="fill:#eac102;fill-opacity:1;fill-rule:evenodd;stroke:#000000;stroke-width:1.80437696px;stroke-linecap:round;stroke-linejoin:round;marker:none;marker-start:none;marker-mid:none;marker-end:none;stroke-miterlimit:4;stroke-dasharray:none;stroke-dashoffset:0;stroke-opacity:1;visibility:visible;display:inline;overflow:visible;enable-background:accumulate"
         id="path9060"
         sodipodi:cx="1773.2821"
         sodipodi:cy="707.07074"
         sodipodi:rx="23.065676"
         sodipodi:ry="23.065676"
         d="M 1796.3478,707.07074 A 23.065676,23.065676 0 1 1 1750.2164,707.07074 A 23.065676,23.065676 0 1 1 1796.3478,707.07074 z"
         transform="matrix(0.5401856,0,0,0.5685945,-1036.1337,398.75738)" />
      <path
         transform="matrix(0.4779164,0,0,0.4918098,-925.42551,453.04956)"
         d="M 1796.3478,707.07074 A 23.065676,23.065676 0 1 1 1750.2164,707.07074 A 23.065676,23.065676 0 1 1 1796.3478,707.07074 z"
         sodipodi:ry="23.065676"
         sodipodi:rx="23.065676"
         sodipodi:cy="707.07074"
         sodipodi:cx="1773.2821"
         id="path9062"
         style="fill:#e3e4e5;fill-opacity:1;fill-rule:evenodd;stroke:#000000;stroke-width:2.06264997px;stroke-linecap:round;stroke-linejoin:round;marker:none;marker-start:none;marker-mid:none;marker-end:none;stroke-miterlimit:4;stroke-dasharray:none;stroke-dashoffset:0;stroke-opacity:1;visibility:visible;display:inline;overflow:visible;enable-background:accumulate"
         sodipodi:type="arc" />
      <path
         sodipodi:type="arc"
         style="fill:#eac102;fill-opacity:1;fill-rule:evenodd;stroke:#000000;stroke-width:1.78393018px;stroke-linecap:round;stroke-linejoin:round;marker:none;marker-start:none;marker-mid:none;marker-end:none;stroke-miterlimit:4;stroke-dasharray:none;stroke-dashoffset:0;stroke-opacity:1;visibility:visible;display:inline;overflow:visible;enable-background:accumulate"
         id="path9066"
         sodipodi:cx="1773.2821"
         sodipodi:cy="707.07074"
         sodipodi:rx="23.065676"
         sodipodi:ry="23.065676"
         d="M 1796.3478,707.07074 A 23.065676,23.065676 0 1 1 1750.2164,707.07074 A 23.065676,23.065676 0 1 1 1796.3478,707.07074 z"
         transform="matrix(-0.5526395,0,0,0.5685945,749.61341,398.75738)" />
      <path
         transform="matrix(-0.5401856,0,0,0.5685945,726.16481,398.75738)"
         d="M 1796.3478,707.07074 A 23.065676,23.065676 0 1 1 1750.2164,707.07074 A 23.065676,23.065676 0 1 1 1796.3478,707.07074 z"
         sodipodi:ry="23.065676"
         sodipodi:rx="23.065676"
         sodipodi:cy="707.07074"
         sodipodi:cx="1773.2821"
         id="path9068"
         style="fill:#eac102;fill-opacity:1;fill-rule:evenodd;stroke:#000000;stroke-width:1.80437696px;stroke-linecap:round;stroke-linejoin:round;marker:none;marker-start:none;marker-mid:none;marker-end:none;stroke-miterlimit:4;stroke-dasharray:none;stroke-dashoffset:0;stroke-opacity:1;visibility:visible;display:inline;overflow:visible;enable-background:accumulate"
         sodipodi:type="arc" />
      <path
         sodipodi:type="arc"
         style="fill:#e3e4e5;fill-opacity:1;fill-rule:evenodd;stroke:#000000;stroke-width:2.06264997px;stroke-linecap:round;stroke-linejoin:round;marker:none;marker-start:none;marker-mid:none;marker-end:none;stroke-miterlimit:4;stroke-dasharray:none;stroke-dashoffset:0;stroke-opacity:1;visibility:visible;display:inline;overflow:visible;enable-background:accumulate"
         id="path9070"
         sodipodi:cx="1773.2821"
         sodipodi:cy="707.07074"
         sodipodi:rx="23.065676"
         sodipodi:ry="23.065676"
         d="M 1796.3478,707.07074 A 23.065676,23.065676 0 1 1 1750.2164,707.07074 A 23.065676,23.065676 0 1 1 1796.3478,707.07074 z"
         transform="matrix(-0.4779164,0,0,0.4918098,615.45661,453.04956)" />
      <path
         style="fill:none;fill-rule:evenodd;stroke:#000000;stroke-width:0.99999982px;stroke-linecap:round;stroke-linejoin:round;stroke-opacity:1"
         d="M -270.5138,802.24799 L -290.92942,792.4059 L -292.23721,792.64355 L -272.76603,802.65726 L -270.5138,802.24799 z"
         id="path9074"
         sodipodi:nodetypes="ccccc" />
      <path
         sodipodi:nodetypes="ccccc"
         id="path9076"
         d="M -270.5138,802.24799 L -290.92942,819.5098 L -292.23721,819.74744 L -272.76603,802.65726 L -270.5138,802.24799 z"
         style="fill:none;fill-rule:evenodd;stroke:#000000;stroke-width:0.99999982px;stroke-linecap:round;stroke-linejoin:round;stroke-opacity:1" />
      <path
         style="fill:none;fill-opacity:1;fill-rule:evenodd;stroke:#000000;stroke-width:0.99999982px;stroke-linecap:round;stroke-linejoin:round;marker:none;marker-start:none;marker-mid:none;marker-end:none;stroke-miterlimit:4;stroke-dasharray:none;stroke-dashoffset:0;stroke-opacity:1;visibility:visible;display:inline;overflow:visible;enable-background:accumulate"
         d="M -292.26702,819.70619 L -310.60206,809.88017 L -292.30867,792.72602"
         id="path9078"
         sodipodi:nodetypes="ccc" />
      <path
         style="fill:#008f4c;fill-rule:evenodd;stroke:#000000;stroke-width:0.99999982px;stroke-linecap:round;stroke-linejoin:round;stroke-opacity:1"
         d="M -277.8267,803.71585 L -292.47573,816.87189 L -306.91034,808.93133 L -292.40427,796.00976 L -277.8267,803.71585 z"
         id="path9082" />
      <path
         id="path9084"
         d="M -287.67752,805.53879 L -295.42648,812.47378 L -303.06201,808.29781 L -295.38868,801.48637 L -287.67752,805.53879 z"
         style="fill:none;fill-rule:evenodd;stroke:#000000;stroke-width:0.5999999;stroke-linecap:round;stroke-linejoin:round;stroke-miterlimit:4;stroke-dasharray:none;stroke-opacity:1" />
      <path
         style="fill:none;fill-rule:evenodd;stroke:#000000;stroke-width:0.5999999;stroke-linecap:round;stroke-linejoin:round;stroke-miterlimit:4;stroke-dasharray:none;stroke-opacity:1"
         d="M -292.40427,816.78941 L -295.44135,812.47635"
         id="path9086"
         sodipodi:nodetypes="cc" />
      <path
         style="fill:none;fill-rule:evenodd;stroke:#000000;stroke-width:0.5999999;stroke-linecap:round;stroke-linejoin:round;stroke-miterlimit:4;stroke-dasharray:none;stroke-opacity:1"
         d="M -306.696,808.89239 L -303.03353,808.27909"
         id="path9088"
         sodipodi:nodetypes="cc" />
      <path
         style="fill:none;fill-rule:evenodd;stroke:#000000;stroke-width:0.5999999;stroke-linecap:round;stroke-linejoin:round;stroke-miterlimit:4;stroke-dasharray:none;stroke-opacity:1"
         d="M -287.68801,805.50782 L -278.11254,803.76779"
         id="path9090" />
      <path
         style="fill:none;fill-rule:evenodd;stroke:#000000;stroke-width:0.5999999;stroke-linecap:round;stroke-linejoin:round;stroke-miterlimit:4;stroke-dasharray:none;stroke-opacity:1"
         d="M -295.42328,801.54505 L -292.40427,796.00976"
         id="path9092"
         sodipodi:nodetypes="cc" />
      <path
         sodipodi:nodetypes="ccccc"
         id="path9096"
         d="M -39.4554,802.24799 L -19.03978,792.4059 L -17.73199,792.64355 L -37.20317,802.65726 L -39.4554,802.24799 z"
         style="fill:none;fill-rule:evenodd;stroke:#000000;stroke-width:0.99999982px;stroke-linecap:round;stroke-linejoin:round;stroke-opacity:1" />
      <path
         style="fill:none;fill-rule:evenodd;stroke:#000000;stroke-width:0.99999982px;stroke-linecap:round;stroke-linejoin:round;stroke-opacity:1"
         d="M -39.4554,802.24799 L -19.03978,819.5098 L -17.73199,819.74744 L -37.20317,802.65726 L -39.4554,802.24799 z"
         id="path9098"
         sodipodi:nodetypes="ccccc" />
      <path
         sodipodi:nodetypes="ccc"
         id="path9100"
         d="M -17.70218,819.70619 L 0.63286,809.88017 L -17.66053,792.72602"
         style="fill:none;fill-opacity:1;fill-rule:evenodd;stroke:#000000;stroke-width:0.99999982px;stroke-linecap:round;stroke-linejoin:round;marker:none;marker-start:none;marker-mid:none;marker-end:none;stroke-miterlimit:4;stroke-dasharray:none;stroke-dashoffset:0;stroke-opacity:1;visibility:visible;display:inline;overflow:visible;enable-background:accumulate" />
      <path
         id="path9104"
         d="M -32.1425,803.71585 L -17.49347,816.87189 L -3.05886,808.93133 L -17.56493,796.00976 L -32.1425,803.71585 z"
         style="fill:#008f4c;fill-rule:evenodd;stroke:#000000;stroke-width:0.99999982px;stroke-linecap:round;stroke-linejoin:round;stroke-opacity:1" />
      <path
         style="fill:none;fill-rule:evenodd;stroke:#000000;stroke-width:0.49999985;stroke-linecap:round;stroke-linejoin:round;stroke-miterlimit:4;stroke-dasharray:none;stroke-opacity:1"
         d="M -22.29168,805.53879 L -14.54272,812.47378 L -6.90719,808.29781 L -14.58052,801.48637 L -22.29168,805.53879 z"
         id="path9106" />
      <path
         sodipodi:nodetypes="cc"
         id="path9108"
         d="M -17.56493,816.78941 L -14.52785,812.47635"
         style="fill:none;fill-rule:evenodd;stroke:#000000;stroke-width:0.49999985;stroke-linecap:round;stroke-linejoin:round;stroke-miterlimit:4;stroke-dasharray:none;stroke-opacity:1" />
      <path
         sodipodi:nodetypes="cc"
         id="path9110"
         d="M -3.2732,808.89239 L -6.93567,808.27909"
         style="fill:none;fill-rule:evenodd;stroke:#000000;stroke-width:0.49999985;stroke-linecap:round;stroke-linejoin:round;stroke-miterlimit:4;stroke-dasharray:none;stroke-opacity:1" />
      <path
         id="path9112"
         d="M -22.28119,805.50782 L -31.85666,803.76779"
         style="fill:none;fill-rule:evenodd;stroke:#000000;stroke-width:0.49999985;stroke-linecap:round;stroke-linejoin:round;stroke-miterlimit:4;stroke-dasharray:none;stroke-opacity:1" />
      <path
         sodipodi:nodetypes="cc"
         id="path9114"
         d="M -14.54592,801.54505 L -17.56493,796.00976"
         style="fill:none;fill-rule:evenodd;stroke:#000000;stroke-width:0.49999985;stroke-linecap:round;stroke-linejoin:round;stroke-miterlimit:4;stroke-dasharray:none;stroke-opacity:1" />
      <rect
         rx="13.479209"
         ry="13.324984"
         y="785.9574"
         x="-181.34109"
         height="26.649967"
         width="52.713264"
         id="rect9118"
         style="fill:#eac102;fill-opacity:1;fill-rule:nonzero;stroke:#000000;stroke-width:1.00000024;stroke-linecap:butt;stroke-linejoin:miter;marker:none;marker-start:none;marker-mid:none;marker-end:none;stroke-miterlimit:4;stroke-dasharray:none;stroke-dashoffset:0;stroke-opacity:1;visibility:visible;display:inline;overflow:visible;enable-background:accumulate" />
      <rect
         style="fill:#ed1c24;fill-opacity:1;fill-rule:nonzero;stroke:#000000;stroke-width:1.00000024;stroke-linecap:butt;stroke-linejoin:miter;marker:none;marker-start:none;marker-mid:none;marker-end:none;stroke-miterlimit:4;stroke-dasharray:none;stroke-dashoffset:0;stroke-opacity:1;visibility:visible;display:inline;overflow:visible;enable-background:accumulate"
         id="rect9120"
         width="47.431377"
         height="23.013342"
         x="-178.7002"
         y="787.7757"
         ry="11.506671"
         rx="12.128588" />
      <path
         style="fill:#ed1c24;fill-opacity:1;fill-rule:nonzero;stroke:#000000;stroke-width:1.00000048;stroke-linecap:butt;stroke-linejoin:miter;marker:none;marker-start:none;marker-mid:none;marker-end:none;stroke-miterlimit:4;stroke-dasharray:none;stroke-dashoffset:0;stroke-opacity:1;visibility:visible;display:inline;overflow:visible;enable-background:accumulate"
         d="M -341.59526,837.04565 C -341.69448,837.07939 -341.77506,837.14401 -341.87613,837.1746 C -347.59694,838.90619 -354.05737,834.87824 -356.30814,828.18505 C -358.55896,821.49188 -355.75101,814.65856 -350.03024,812.92698 C -349.92918,812.89639 -349.82404,812.9048 -349.72256,812.87779 L -341.59526,837.04565 z"
         id="path9172" />
      <path
         style="fill:#eac102;fill-opacity:1;fill-rule:nonzero;stroke:#000000;stroke-width:1.00000048;stroke-linecap:butt;stroke-linejoin:miter;marker:none;marker-start:none;marker-mid:none;marker-end:none;stroke-miterlimit:4;stroke-dashoffset:0;stroke-opacity:1;visibility:visible;display:inline;overflow:visible;enable-background:accumulate"
         d="M -349.21345,810.31296 L -352.32989,811.25625 L -342.81255,839.55763 L -339.69611,838.61434 C -342.26878,827.35235 -345.58326,816.90283 -349.21345,810.31296 z"
         id="path9174"
         sodipodi:nodetypes="ccccc" />
      <path
         style="fill:#eac102;fill-opacity:1;fill-rule:evenodd;stroke:#000000;stroke-width:1.00000024px;stroke-linecap:round;stroke-linejoin:round;marker:none;marker-start:none;marker-mid:none;marker-end:none;stroke-miterlimit:4;stroke-dasharray:none;stroke-dashoffset:0;stroke-opacity:1;visibility:visible;display:inline;overflow:visible;enable-background:accumulate"
         d="M -332.34589,799.94588 C -329.39995,800.00824 -325.61328,805.34554 -323.60055,812.47216 C -321.58791,819.59825 -322.05846,826.00315 -324.5764,827.4552 L -324.68244,827.51105 C -324.83231,827.58751 -324.98662,827.64616 -325.15029,827.68777 L -330.0829,828.93083 L -332.31838,821.01568 C -333.16087,819.30643 -333.91347,817.36269 -334.5114,815.2458 C -335.10928,813.1289 -335.48567,811.07508 -335.65687,809.19517 L -337.87128,801.35462 L -332.34589,799.94588 z"
         id="path9178"
         sodipodi:nodetypes="cscccccsccc" />
      <path
         sodipodi:type="arc"
         style="fill:#eac102;fill-opacity:1;fill-rule:evenodd;stroke:#000000;stroke-width:1.55531836px;stroke-linecap:round;stroke-linejoin:round;marker:none;marker-start:none;marker-mid:none;marker-end:none;stroke-miterlimit:4;stroke-dasharray:none;stroke-dashoffset:0;stroke-opacity:1;visibility:visible;display:inline;overflow:visible;enable-background:accumulate"
         id="path9180"
         sodipodi:cx="2042.3096"
         sodipodi:cy="702.48627"
         sodipodi:rx="6.0690784"
         sodipodi:ry="32.088638"
         d="M 2048.3786,702.48627 A 6.0690784,32.088638 0 1 1 2036.2405,702.48627 A 6.0690784,32.088638 0 1 1 2048.3786,702.48627 z"
         transform="matrix(-0.8995649,0.2286779,0.1210959,0.4287623,1418.3935,46.897205)" />
      <path
         style="fill:#e3e4e5;fill-opacity:1;fill-rule:evenodd;stroke:#000000;stroke-width:1.00000024px;stroke-linecap:round;stroke-linejoin:round;marker:none;marker-start:none;marker-mid:none;marker-end:none;stroke-miterlimit:4;stroke-dashoffset:0;stroke-opacity:1;visibility:visible;display:inline;overflow:visible;enable-background:accumulate"
         d="M -337.70078,803.06697 C -348.18777,809.3297 -342.36085,827.20974 -330.63807,828.07376 C -323.62968,824.68716 -331.27398,801.55357 -337.70078,803.06697 z"
         id="path9182"
         sodipodi:nodetypes="ccc" />
      <path
         id="path9188"
         d="M 31.62628,837.04565 C 31.725498,837.07939 31.80608,837.14401 31.907147,837.1746 C 37.62796,838.90619 44.088391,834.87824 46.339162,828.18505 C 48.589977,821.49188 45.782032,814.65856 40.061264,812.92698 C 39.960198,812.89639 39.855057,812.9048 39.753576,812.87779 L 31.62628,837.04565 z"
         style="fill:#ed1c24;fill-opacity:1;fill-rule:nonzero;stroke:#000000;stroke-width:1.00000048;stroke-linecap:butt;stroke-linejoin:miter;marker:none;marker-start:none;marker-mid:none;marker-end:none;stroke-miterlimit:4;stroke-dasharray:none;stroke-dashoffset:0;stroke-opacity:1;visibility:visible;display:inline;overflow:visible;enable-background:accumulate" />
      <path
         sodipodi:nodetypes="ccccc"
         id="path9190"
         d="M 39.244469,810.31296 L 42.360906,811.25625 L 32.843567,839.55763 L 29.72713,838.61434 C 32.2998,827.35235 35.614283,816.90283 39.244469,810.31296 z"
         style="fill:#eac102;fill-opacity:1;fill-rule:nonzero;stroke:#000000;stroke-width:1.00000048;stroke-linecap:butt;stroke-linejoin:miter;marker:none;marker-start:none;marker-mid:none;marker-end:none;stroke-miterlimit:4;stroke-dashoffset:0;stroke-opacity:1;visibility:visible;display:inline;overflow:visible;enable-background:accumulate" />
      <path
         id="path10153"
         rx="3.9327636"
         cy="-89.381149"
         ry="3.9327636"
         cx="-486.21375"
         type="arc"
         d="M 49.666502,812.66967 C 44.433202,812.60077 40.250302,808.30617 40.319202,803.07287 C 40.388102,797.84427 44.682702,793.66137 49.916002,793.73037 C 55.147002,793.79927 59.329802,798.09377 59.260902,803.32237 C 59.191902,808.55567 54.897502,812.73867 49.666502,812.66967 z"
         style="fill:#e3e4e5;fill-opacity:1;stroke:#010101;stroke-width:1.00000012;stroke-miterlimit:4;stroke-dasharray:none" />
      <path
         sodipodi:nodetypes="cscccccsccc"
         id="path9194"
         d="M 22.376909,799.94588 C 19.43097,800.00824 15.644297,805.34554 13.631566,812.47216 C 11.618934,819.59825 12.089484,826.00315 14.607415,827.4552 L 14.713456,827.51105 C 14.863327,827.58751 15.017645,827.64616 15.181308,827.68777 L 20.113919,828.93083 L 22.349403,821.01568 C 23.191893,819.30643 23.944493,817.36269 24.542417,815.2458 C 25.140296,813.1289 25.516685,811.07508 25.687887,809.19517 L 27.902302,801.35462 L 22.376909,799.94588 z"
         style="fill:#eac102;fill-opacity:1;fill-rule:evenodd;stroke:#000000;stroke-width:1.00000024px;stroke-linecap:round;stroke-linejoin:round;marker:none;marker-start:none;marker-mid:none;marker-end:none;stroke-miterlimit:4;stroke-dasharray:none;stroke-dashoffset:0;stroke-opacity:1;visibility:visible;display:inline;overflow:visible;enable-background:accumulate" />
      <path
         transform="matrix(0.8995649,0.2286779,-0.1210959,0.4287623,-1728.3625,46.897205)"
         d="M 2048.3786,702.48627 A 6.0690784,32.088638 0 1 1 2036.2405,702.48627 A 6.0690784,32.088638 0 1 1 2048.3786,702.48627 z"
         sodipodi:ry="32.088638"
         sodipodi:rx="6.0690784"
         sodipodi:cy="702.48627"
         sodipodi:cx="2042.3096"
         id="path9196"
         style="fill:#eac102;fill-opacity:1;fill-rule:evenodd;stroke:#000000;stroke-width:1.55531836px;stroke-linecap:round;stroke-linejoin:round;marker:none;marker-start:none;marker-mid:none;marker-end:none;stroke-miterlimit:4;stroke-dasharray:none;stroke-dashoffset:0;stroke-opacity:1;visibility:visible;display:inline;overflow:visible;enable-background:accumulate"
         sodipodi:type="arc" />
      <path
         sodipodi:nodetypes="ccc"
         id="path9198"
         d="M 27.731796,803.06697 C 38.218785,809.3297 32.391868,827.20974 20.669093,828.07376 C 13.660695,824.68716 21.305003,801.55357 27.731796,803.06697 z"
         style="fill:#e3e4e5;fill-opacity:1;fill-rule:evenodd;stroke:#000000;stroke-width:1.00000024px;stroke-linecap:round;stroke-linejoin:round;marker:none;marker-start:none;marker-mid:none;marker-end:none;stroke-miterlimit:4;stroke-dashoffset:0;stroke-opacity:1;visibility:visible;display:inline;overflow:visible;enable-background:accumulate" />
      <path
         id="path10145"
         rx="3.9327636"
         cy="-89.381149"
         ry="3.9327636"
         cx="-486.21375"
         type="arc"
         d="M -156.74138,878.9593 C -161.97467,878.89034 -166.15756,874.59576 -166.08862,869.36247 C -166.01975,864.13386 -161.72518,859.95104 -156.49187,860.01999 C -151.26087,860.08883 -147.07809,864.38341 -147.14696,869.61202 C -147.2159,874.84531 -151.51035,879.02825 -156.74138,878.9593 z"
         style="fill:#e3e4e5;fill-opacity:1;stroke:#010101;stroke-width:1.00000012;stroke-miterlimit:4;stroke-dasharray:none" />
      <path
         style="fill:#e3e4e5;fill-opacity:1;stroke:#010101;stroke-width:1.00000012;stroke-miterlimit:4;stroke-dasharray:none"
         d="M -74.715108,877.39292 C -79.9484,877.32397 -84.131289,873.02939 -84.06235,867.7961 C -83.993479,862.56749 -79.69891,858.38467 -74.465607,858.45362 C -69.234598,858.52245 -65.051823,862.81703 -65.120694,868.04565 C -65.189633,873.27894 -69.484088,877.46187 -74.715108,877.39292 z"
         type="arc"
         cx="-486.21375"
         ry="3.9327636"
         cy="-89.381149"
         rx="3.9327636"
         id="path10143" />
      <path
         style="fill:#e3e4e5;fill-opacity:1;stroke:#010101;stroke-width:1.00000012;stroke-miterlimit:4;stroke-dasharray:none"
         d="M -252.334,876.71811 C -257.5673,876.64916 -261.75019,872.35458 -261.68125,867.12129 C -261.61238,861.89268 -257.31781,857.70986 -252.0845,857.77881 C -246.85349,857.84764 -242.67072,862.14222 -242.73959,867.37084 C -242.80853,872.60413 -247.10298,876.78706 -252.334,876.71811 z"
         type="arc"
         cx="-486.21375"
         ry="3.9327636"
         cy="-89.381149"
         rx="3.9327636"
         id="path10147" />
      <path
         id="path10149"
         rx="3.9327636"
         cy="-89.381149"
         ry="3.9327636"
         cx="-486.21375"
         type="arc"
         d="M -332.11915,864.23586 C -337.35244,864.16691 -341.53533,859.87233 -341.46639,854.63904 C -341.39752,849.41043 -337.10295,845.22761 -331.86965,845.29656 C -326.63864,845.36539 -322.45586,849.65997 -322.52473,854.88859 C -322.59367,860.12188 -326.88813,864.30481 -332.11915,864.23586 z"
         style="fill:#e3e4e5;fill-opacity:1;stroke:#010101;stroke-width:1.00000012;stroke-miterlimit:4;stroke-dasharray:none" />
      <path
         style="fill:#eac102;fill-rule:evenodd;stroke:#000000;stroke-width:1px;stroke-linecap:butt;stroke-linejoin:miter;stroke-opacity:1"
         d="M -326.50935,845.30177 C -326.50935,845.30177 -289.44779,827.43394 -154.98473,827.43394 C -20.96718,827.43394 16.5398,845.30177 16.5398,845.30177 C 16.5398,845.30177 -14.80758,863.16961 -154.98473,863.16961 C -295.60767,863.16961 -326.50935,845.30177 -326.50935,845.30177 z"
         id="path9202"
         sodipodi:nodetypes="czczc" />
      <path
         id="path9206"
         style="font-size:12px;fill:none;stroke:#000000;stroke-width:0.52008164"
         d="M -198.64228,866.02256 L -198.64228,824.68193" />
      <path
         id="path9208"
         style="font-size:12px;fill:none;stroke:#000000;stroke-width:0.76567769"
         d="M -206.5242,866.02256 L -206.5242,824.68193" />
      <path
         id="path9210"
         style="font-size:12px;fill:none;stroke:#000000;stroke-width:1.02572083"
         d="M -213.96465,866.02256 L -213.96465,824.68193" />
      <path
         id="path9212"
         style="font-size:12px;fill:none;stroke:#000000;stroke-width:1.28576362"
         d="M -221.3406,866.02256 L -221.3406,824.68193" />
      <path
         id="path9214"
         style="font-size:12px;fill:none;stroke:#000000;stroke-width:1.54580235"
         d="M -227.9129,866.02256 L -227.9129,824.68193" />
      <path
         id="path9216"
         style="font-size:12px;fill:none;stroke:#000000;stroke-width:1.80584526"
         d="M -240.44748,863.79359 L -240.62111,826.16679 M -234.5051,864.2886 L -234.5051,824.931" />
      <path
         id="path9218"
         style="font-size:12px;fill:none;stroke:#000000;stroke-width:2.05144167"
         d="M -252.0199,862.10168 L -252.0199,827.43493 M -246.15678,863.09159 L -246.33041,826.19914" />
      <path
         id="path9220"
         style="font-size:12px;fill:none;stroke:#000000;stroke-width:2.31148434"
         d="M -267.54548,860.12186 L -267.54548,829.66389 M -262.45136,860.61682 L -262.45136,828.67392 M -257.20333,861.60673 L -257.20333,828.42484" />
      <path
         id="path9222"
         style="font-size:12px;fill:none;stroke:#000000;stroke-width:2.57152724"
         d="M -272.98696,859.87278 L -272.98696,830.40793" />
      <path
         id="path9224"
         style="font-size:12px;fill:none;stroke:#000000;stroke-width:2.8315661"
         d="M -278.06127,858.38785 L -278.06127,830.90289" />
      <path
         id="path9226"
         style="font-size:12px;fill:none;stroke:#000000;stroke-width:3.091609"
         d="M -283.50266,857.64376 L -283.50266,832.13867" />
      <path
         id="path9228"
         style="font-size:12px;fill:none;stroke:#000000;stroke-width:3.33720565"
         d="M -294.64346,855.41806 L -294.81716,835.11174 M -288.93428,856.40804 L -288.93428,833.62681" />
      <path
         id="path9230"
         style="font-size:12px;fill:none;stroke:#000000;stroke-width:3.52501416"
         d="M -300.35276,853.68404 L -300.35276,835.8525" />
      <path
         id="path9232"
         style="font-size:12px;fill:none;stroke:#000000;stroke-width:3.78505349"
         d="M -305.58088,852.23802 L -305.58088,837.38911" />
      <path
         id="path9234"
         style="font-size:12px;fill:none;stroke:#000000;stroke-width:4.03064871"
         d="M -311.29018,850.2582 L -311.29018,838.62817" />
      <path
         id="path9236"
         style="font-size:12px;fill:none;stroke:#000000;stroke-width:4.27626181"
         d="M -317.15818,849.26829 L -317.15818,840.60805" />
      <path
         id="path9238"
         style="font-size:12px;fill:none;stroke:#000000;stroke-width:5.04192257"
         d="M -323.3688,847.29035 L -323.3688,843.08182" />
      <path
         id="path9240"
         style="font-size:12px;fill:none;stroke:#000000;stroke-width:0.26004165"
         d="M -167.28348,863.79359 L -167.28348,825.92097 M -180.63646,865.03264 L -180.46292,824.931 M -190.3686,865.52759 L -190.3686,824.68193" />
      <path
         d="M -111.3271,866.02256 L -111.3271,824.68193"
         style="font-size:12px;fill:none;stroke:#000000;stroke-width:0.52008164"
         id="path9242" />
      <path
         d="M -103.44528,866.02256 L -103.44528,824.68193"
         style="font-size:12px;fill:none;stroke:#000000;stroke-width:0.76567769"
         id="path9244" />
      <path
         d="M -96.00483,866.02256 L -96.00483,824.68193"
         style="font-size:12px;fill:none;stroke:#000000;stroke-width:1.02572083"
         id="path9246" />
      <path
         d="M -88.62888,866.02256 L -88.62888,824.68193"
         style="font-size:12px;fill:none;stroke:#000000;stroke-width:1.28576362"
         id="path9248" />
      <path
         d="M -82.05658,866.02256 L -82.05658,824.68193"
         style="font-size:12px;fill:none;stroke:#000000;stroke-width:1.54580235"
         id="path9250" />
      <path
         d="M -69.52191,863.79359 L -69.34828,826.16679 M -75.46438,864.2886 L -75.46438,824.931"
         style="font-size:12px;fill:none;stroke:#000000;stroke-width:1.80584526"
         id="path9252" />
      <path
         d="M -57.94958,862.10168 L -57.94958,827.43493 M -63.81261,863.09159 L -63.63907,826.19914"
         style="font-size:12px;fill:none;stroke:#000000;stroke-width:2.05144167"
         id="path9254" />
      <path
         d="M -42.4239,860.12186 L -42.4239,829.66389 M -47.51812,860.61682 L -47.51812,828.67392 M -52.76615,861.60673 L -52.76615,828.42484"
         style="font-size:12px;fill:none;stroke:#000000;stroke-width:2.31148434"
         id="path9256" />
      <path
         d="M -36.98243,859.87278 L -36.98243,830.40793"
         style="font-size:12px;fill:none;stroke:#000000;stroke-width:2.57152724"
         id="path9258" />
      <path
         d="M -31.90812,858.38785 L -31.90812,830.90289"
         style="font-size:12px;fill:none;stroke:#000000;stroke-width:2.8315661"
         id="path9260" />
      <path
         d="M -26.46673,857.64376 L -26.46673,832.13867"
         style="font-size:12px;fill:none;stroke:#000000;stroke-width:3.091609"
         id="path9262" />
      <path
         d="M -15.32599,855.41806 L -15.15227,835.11174 M -21.0352,856.40804 L -21.0352,833.62681"
         style="font-size:12px;fill:none;stroke:#000000;stroke-width:3.33720565"
         id="path9264" />
      <path
         d="M -9.61669,853.68404 L -9.61669,835.8525"
         style="font-size:12px;fill:none;stroke:#000000;stroke-width:3.52501416"
         id="path9266" />
      <path
         d="M -4.38857,852.23802 L -4.38857,837.38911"
         style="font-size:12px;fill:none;stroke:#000000;stroke-width:3.78505349"
         id="path9268" />
      <path
         d="M 1.32073,850.2582 L 1.32073,838.62817"
         style="font-size:12px;fill:none;stroke:#000000;stroke-width:4.03064871"
         id="path9270" />
      <path
         d="M 7.18873,849.26829 L 7.18873,840.60805"
         style="font-size:12px;fill:none;stroke:#000000;stroke-width:4.27626181"
         id="path9272" />
      <path
         d="M 13.3993,847.29035 L 13.3993,843.08182"
         style="font-size:12px;fill:none;stroke:#000000;stroke-width:5.04192257"
         id="path9274" />
      <path
         d="M -142.686,863.79359 L -142.686,825.92097 M -129.33293,865.03264 L -129.50647,824.931 M -119.60088,865.52759 L -119.60088,824.68193"
         style="font-size:12px;fill:none;stroke:#000000;stroke-width:0.26004165"
         id="path9276" />
      <path
         id="path11736"
         rx="3.9327636"
         cy="-89.381149"
         ry="3.9327636"
         cx="-486.21375"
         type="arc"
         d="M 11.496502,850.26797 C 13.682802,845.51277 19.305102,843.43207 24.060402,845.61847 C 28.811202,847.80277 30.891902,853.42517 28.705602,858.18037 C 26.520202,862.93347 20.898002,865.01407 16.147002,862.82977 C 11.391802,860.64337 9.311002,855.02117 11.496502,850.26797 z"
         style="fill:#e3e4e5;fill-opacity:1;stroke:#010101;stroke-width:0.99999994;stroke-miterlimit:4;stroke-dasharray:none" />
      <path
         style="fill:#eac102;fill-rule:evenodd;stroke:#000000;stroke-width:1px;stroke-linecap:butt;stroke-linejoin:miter;stroke-opacity:1"
         d="M -155.13818,815.16795 C -207.313,815.68816 -260.08179,815.74349 -311.32274,826.17936 C -322.75774,829.62511 -339.11398,831.54326 -343.40639,843.74845 C -344.81461,853.94277 -331.89812,858.26993 -323.82211,861.07161 C -285.35002,872.09727 -244.68081,873.03711 -204.81893,874.76074 C -142.80313,875.94841 -80.41066,876.40911 -18.85466,868.17575 C -2.03789,865.07431 16.47869,863.15951 30.30759,852.71059 C 38.56487,844.98848 29.44201,834.19291 20.3139,831.97197 C -10.99993,820.50083 -45.15086,819.27949 -78.26985,816.94398 C -103.86608,815.61041 -129.50656,815.18489 -155.13818,815.16795 z M -154.99413,827.43625 C -20.97667,827.43627 16.54109,845.30589 16.54109,845.30589 C 16.541,845.30588 -14.81707,863.17553 -154.99413,863.17553 C -295.61716,863.17553 -326.5006,845.30589 -326.5006,845.30589 C -326.5006,845.30588 -289.45728,827.43625 -154.99413,827.43625 z"
         id="path9278" />
      <path
         sodipodi:nodetypes="cssscc"
         id="path11795"
         d="M -4.578098,839.19855 C -4.979198,839.73225 -5.381898,839.57938 -5.671898,840.21008 C -7.857198,844.96318 -5.770998,850.58628 -1.015598,852.77258 C 3.735302,854.95688 9.361402,852.86938 11.546902,848.11638 C 12.459602,846.13108 12.476302,845.5936 12.015602,843.6193 C 4.88703,841.45535 -1.0122914,839.66944 -4.578098,839.19855 z"
         style="fill:#e3e4e5;fill-opacity:1;stroke:#010101;stroke-width:1;stroke-miterlimit:4;stroke-dasharray:none" />
      <path
         id="path10141"
         rx="3.9327636"
         cy="-89.381149"
         ry="3.9327636"
         cx="-486.21375"
         type="arc"
         d="M 12.39527,866.01911 C 7.161978,865.95015 2.979089,861.65557 3.048028,856.42228 C 3.116899,851.19367 7.411468,847.01085 12.644771,847.0798 C 17.87578,847.14864 22.058556,851.44322 21.989685,856.67183 C 21.920745,861.90512 17.626291,866.08806 12.39527,866.01911 z"
         style="fill:#e3e4e5;fill-opacity:1;stroke:#010101;stroke-width:1.00000012;stroke-miterlimit:4;stroke-dasharray:none" />
      <path
         style="fill:#e3e4e5;fill-opacity:1;stroke:#010101;stroke-width:1.00000012;stroke-miterlimit:4;stroke-dasharray:none"
         d="M 48.974802,799.39097 C 43.741502,799.32197 39.558602,795.02737 39.627502,789.79417 C 39.696402,784.56547 43.991002,780.38267 49.224302,780.45167 C 54.455302,780.52047 58.638002,784.81507 58.569202,790.04367 C 58.500202,795.27697 54.205802,799.45987 48.974802,799.39097 z"
         type="arc"
         cx="-486.21375"
         ry="3.9327636"
         cy="-89.381149"
         rx="3.9327636"
         id="path10261" />
      <path
         style="fill:#e3e4e5;fill-opacity:1;stroke:#010101;stroke-width:1.00000012;stroke-miterlimit:4;stroke-dasharray:none"
         d="M 63.015319,769.31548 C 63.015319,781.71359 52.962679,791.76339 40.5581,791.76339 C 28.151215,791.76339 18.096258,781.71599 18.096258,769.31548 C 18.096258,756.91976 28.148909,746.87007 40.5581,746.87007 C 52.962679,746.87007 63.015319,756.91747 63.015319,769.31548 z"
         type="arc"
         cx="-514.24567"
         ry="9.7493839"
         cy="-132.80592"
         rx="9.7493839"
         id="path10211" />
      <path
         id="path10213"
         rx="9.7493839"
         cy="-132.80592"
         ry="9.7493839"
         cx="-514.24567"
         type="arc"
         d="M -330.06528,771.3153 C -330.06528,783.71342 -340.12253,793.76322 -352.52711,793.76322 C -364.92938,793.76322 -374.98434,783.7157 -374.98434,771.3153 C -374.98434,758.91958 -364.93168,748.86979 -352.52711,748.86979 C -340.12253,748.86979 -330.06528,758.9173 -330.06528,771.3153 z"
         style="fill:#e3e4e5;fill-opacity:1;stroke:#010101;stroke-width:1.00000012;stroke-miterlimit:4;stroke-dasharray:none" />
      <path
         id="path10217"
         rx="9.7493839"
         cy="-132.80592"
         ry="9.7493839"
         cx="-514.24567"
         type="arc"
         d="M -205.35312,752.39272 C -205.35312,764.79095 -215.40807,774.84064 -227.81034,774.84064 C -240.21261,774.84064 -250.27218,764.79324 -250.27218,752.39272 C -250.27218,739.997 -240.21492,729.94732 -227.81034,729.94732 C -215.40807,729.94732 -205.35312,739.997 -205.35312,752.39272 z"
         style="fill:#e3e4e5;fill-opacity:1;stroke:#010101;stroke-width:1.00000012;stroke-miterlimit:4;stroke-dasharray:none" />
      <path
         style="fill:#e3e4e5;fill-opacity:1;stroke:#010101;stroke-width:1.00000012;stroke-miterlimit:4;stroke-dasharray:none"
         d="M -59.696823,752.39295 C -59.696823,764.78878 -69.749474,774.84087 -82.154053,774.84087 C -94.556326,774.84087 -104.61127,764.79118 -104.61127,752.39295 C -104.61127,739.99495 -94.556326,729.94526 -82.154053,729.94526 C -69.749474,729.94755 -59.696823,739.99723 -59.696823,752.39295 z"
         type="arc"
         cx="-514.24567"
         ry="9.7493839"
         cy="-132.80592"
         rx="9.7493839"
         id="path10219" />
      <path
         style="fill:#e3e4e5;fill-opacity:1;stroke:#010101;stroke-width:0.99999994;stroke-miterlimit:4;stroke-dasharray:none"
         d="M -197.61802,762.82594 C -197.61802,768.05969 -201.85709,772.29879 -207.0909,772.29879 C -212.3199,772.29879 -216.55898,768.05969 -216.55898,762.82594 C -216.55898,757.59448 -212.3199,753.35549 -207.0909,753.35549 C -201.85709,753.35549 -197.61802,757.59448 -197.61802,762.82594 z"
         type="arc"
         cx="-486.21375"
         ry="3.9327636"
         cy="-89.381149"
         rx="3.9327636"
         id="path10223" />
      <path
         id="path10225"
         rx="3.9327636"
         cy="-89.381149"
         ry="3.9327636"
         cx="-486.21375"
         type="arc"
         d="M -184.24417,767.95869 C -184.24417,773.19244 -188.48324,777.43154 -193.71705,777.43154 C -198.94605,777.43154 -203.18513,773.19244 -203.18513,767.95869 C -203.18513,762.72723 -198.94605,758.48824 -193.71705,758.48824 C -188.48324,758.48824 -184.24417,762.72723 -184.24417,767.95869 z"
         style="fill:#e3e4e5;fill-opacity:1;stroke:#010101;stroke-width:0.99999994;stroke-miterlimit:4;stroke-dasharray:none" />
      <path
         style="fill:#e3e4e5;fill-opacity:1;stroke:#010101;stroke-width:0.99999994;stroke-miterlimit:4;stroke-dasharray:none"
         d="M -173.04513,779.15771 C -173.04513,784.39145 -177.28421,788.63055 -182.51801,788.63055 C -187.74701,788.63055 -191.98609,784.39145 -191.98609,779.15771 C -191.98609,773.92624 -187.74701,769.68725 -182.51801,769.68725 C -177.28421,769.68725 -173.04513,773.92624 -173.04513,779.15771 z"
         type="arc"
         cx="-486.21375"
         ry="3.9327636"
         cy="-89.381149"
         rx="3.9327636"
         id="path10227" />
      <path
         id="path10229"
         rx="3.9327636"
         cy="-89.381149"
         ry="3.9327636"
         cx="-486.21375"
         type="arc"
         d="M -164.62919,791.63996 C -164.62919,796.87371 -168.86827,801.11281 -174.10207,801.11281 C -179.33107,801.11281 -183.57015,796.87371 -183.57015,791.63996 C -183.57015,786.40849 -179.33107,782.16951 -174.10207,782.16951 C -168.86827,782.16951 -164.62919,786.40849 -164.62919,791.63996 z"
         style="fill:#e3e4e5;fill-opacity:1;stroke:#010101;stroke-width:0.99999994;stroke-miterlimit:4;stroke-dasharray:none" />
      <path
         style="fill:#e3e4e5;fill-opacity:1;stroke:#010101;stroke-width:0.99999994;stroke-miterlimit:4;stroke-dasharray:none"
         d="M -158.38806,805.90545 C -158.38806,811.1392 -162.62714,815.3783 -167.86095,815.3783 C -173.08995,815.3783 -177.32902,811.1392 -177.32902,805.90545 C -177.32902,800.67399 -173.08995,796.435 -167.86095,796.435 C -162.62714,796.435 -158.38806,800.67399 -158.38806,805.90545 z"
         type="arc"
         cx="-486.21375"
         ry="3.9327636"
         cy="-89.381149"
         rx="3.9327636"
         id="path10231" />
      <path
         id="path10233"
         rx="3.9327636"
         cy="-89.381149"
         ry="3.9327636"
         cx="-486.21375"
         type="arc"
         d="M -153.93011,821.0624 C -153.93011,826.29615 -158.16919,830.53525 -163.403,830.53525 C -168.632,830.53525 -172.87107,826.29615 -172.87107,821.0624 C -172.87107,815.83093 -168.632,811.59195 -163.403,811.59195 C -158.16919,811.59195 -153.93011,815.83093 -153.93011,821.0624 z"
         style="fill:#e3e4e5;fill-opacity:1;stroke:#010101;stroke-width:0.99999994;stroke-miterlimit:4;stroke-dasharray:none" />
      <path
         id="path10235"
         rx="3.9327636"
         cy="-89.381149"
         ry="3.9327636"
         cx="-486.21375"
         type="arc"
         d="M -319.3137,777.99307 C -318.1306,783.09137 -321.3018,788.17887 -326.4001,789.36197 C -331.4938,790.54397 -336.5814,787.37287 -337.7644,782.27447 C -338.9469,777.17847 -335.7758,772.09097 -330.6821,770.90897 C -325.5838,769.72587 -320.4962,772.89697 -319.3137,777.99307 z"
         style="fill:#e3e4e5;fill-opacity:1;stroke:#010101;stroke-width:0.99999994;stroke-miterlimit:4;stroke-dasharray:none" />
      <path
         style="fill:#e3e4e5;fill-opacity:1;stroke:#010101;stroke-width:0.99999994;stroke-miterlimit:4;stroke-dasharray:none"
         d="M -304.6737,781.91817 C -303.4906,787.01647 -306.6618,792.10407 -311.7601,793.28707 C -316.8538,794.46907 -321.9414,791.29787 -323.1244,786.19967 C -324.3069,781.10357 -321.1358,776.01607 -316.0421,774.83407 C -310.9438,773.65107 -305.8562,776.82207 -304.6737,781.91817 z"
         type="arc"
         cx="-486.21375"
         ry="3.9327636"
         cy="-89.381149"
         rx="3.9327636"
         id="path10237" />
      <path
         id="path10239"
         rx="3.9327636"
         cy="-89.381149"
         ry="3.9327636"
         cx="-486.21375"
         type="arc"
         d="M -291.2331,790.29577 C -290.05,795.39417 -293.2211,800.48167 -298.3195,801.66477 C -303.4132,802.84677 -308.5007,799.67567 -309.6838,794.57727 C -310.8663,789.48117 -307.6951,784.39377 -302.6015,783.21177 C -297.5031,782.02867 -292.4156,785.19977 -291.2331,790.29577 z"
         style="fill:#e3e4e5;fill-opacity:1;stroke:#010101;stroke-width:0.99999994;stroke-miterlimit:4;stroke-dasharray:none" />
      <path
         style="fill:#e3e4e5;fill-opacity:1;stroke:#010101;stroke-width:0.99999994;stroke-miterlimit:4;stroke-dasharray:none"
         d="M -279.3218,800.55267 C -278.1388,805.65097 -281.3099,810.73857 -286.4083,811.92157 C -291.5019,813.10357 -296.5895,809.93237 -297.7726,804.83417 C -298.9551,799.73807 -295.7839,794.65057 -290.6903,793.46857 C -285.5919,792.28557 -280.5044,795.45657 -279.3218,800.55267 z"
         type="arc"
         cx="-486.21375"
         ry="3.9327636"
         cy="-89.381149"
         rx="3.9327636"
         id="path10241" />
      <path
         id="path10243"
         rx="3.9327636"
         cy="-89.381149"
         ry="3.9327636"
         cx="-486.21375"
         type="arc"
         d="M -269.8008,811.92967 C -268.6178,817.02807 -271.7889,822.11557 -276.8873,823.29867 C -281.9809,824.48067 -287.0685,821.30947 -288.2516,816.21117 C -289.4341,811.11507 -286.2629,806.02767 -281.1693,804.84567 C -276.0709,803.66257 -270.9834,806.83367 -269.8008,811.92967 z"
         style="fill:#e3e4e5;fill-opacity:1;stroke:#010101;stroke-width:0.99999994;stroke-miterlimit:4;stroke-dasharray:none" />
      <path
         id="path10249"
         rx="3.9327636"
         cy="-89.381149"
         ry="3.9327636"
         cx="-486.21375"
         type="arc"
         d="M -54.178068,765.28327 C -55.344935,770.38529 -60.422424,773.57258 -65.524494,772.4057 C -70.621879,771.23989 -73.809148,766.16239 -72.64228,761.06037 C -71.475921,755.96058 -66.398458,752.7734 -61.301073,753.93921 C -56.199003,755.10609 -53.011709,760.18348 -54.178068,765.28327 z"
         style="fill:#e3e4e5;fill-opacity:1;stroke:#010101;stroke-width:1;stroke-miterlimit:4;stroke-dasharray:none" />
      <path
         style="fill:#e3e4e5;fill-opacity:1;stroke:#010101;stroke-width:1;stroke-miterlimit:4;stroke-dasharray:none"
         d="M -42.73109,773.21819 C -43.897958,778.32021 -48.975447,781.50751 -54.077517,780.34062 C -59.174901,779.17482 -62.36217,774.09731 -61.195303,768.9953 C -60.028944,763.89551 -54.951481,760.70832 -49.854096,761.87413 C -44.752026,763.04101 -41.564732,768.11841 -42.73109,773.21819 z"
         type="arc"
         cx="-486.21375"
         ry="3.9327636"
         cy="-89.381149"
         rx="3.9327636"
         id="path10251" />
      <path
         id="path10253"
         rx="3.9327636"
         cy="-89.381149"
         ry="3.9327636"
         cx="-486.21375"
         type="arc"
         d="M -34.310762,786.63216 C -35.47763,791.73417 -40.555119,794.92147 -45.657189,793.75459 C -50.754574,792.58878 -53.941842,787.51128 -52.774975,782.40926 C -51.608616,777.30947 -46.531153,774.12229 -41.433768,775.2881 C -36.331698,776.45498 -33.144404,781.53237 -34.310762,786.63216 z"
         style="fill:#e3e4e5;fill-opacity:1;stroke:#010101;stroke-width:1;stroke-miterlimit:4;stroke-dasharray:none" />
      <path
         style="fill:#e3e4e5;fill-opacity:1;stroke:#010101;stroke-width:1;stroke-miterlimit:4;stroke-dasharray:none"
         d="M -28.88958,800.67657 C -30.056448,805.77858 -35.133937,808.96588 -40.236006,807.799 C -45.333391,806.63319 -48.52066,801.55569 -47.353792,796.45367 C -46.187434,791.35388 -41.10997,788.1667 -36.012586,789.33251 C -30.910516,790.49939 -27.723222,795.57678 -28.88958,800.67657 z"
         type="arc"
         cx="-486.21375"
         ry="3.9327636"
         cy="-89.381149"
         rx="3.9327636"
         id="path10255" />
      <path
         id="path10257"
         rx="3.9327636"
         cy="-89.381149"
         ry="3.9327636"
         cx="-486.21375"
         type="arc"
         d="M -25.986046,815.97446 C -27.152914,821.07648 -32.230403,824.26377 -37.332472,823.09689 C -42.429857,821.93108 -45.617126,816.85358 -44.450258,811.75156 C -43.2839,806.65178 -38.206436,803.46459 -33.109052,804.6304 C -28.006982,805.79728 -24.819687,810.87467 -25.986046,815.97446 z"
         style="fill:#e3e4e5;fill-opacity:1;stroke:#010101;stroke-width:1;stroke-miterlimit:4;stroke-dasharray:none" />
      <path
         style="fill:#e3e4e5;fill-opacity:1;stroke:#010101;stroke-width:1;stroke-miterlimit:4;stroke-dasharray:none"
         d="M -25.019554,831.74381 C -26.186422,836.84582 -31.263911,840.03312 -36.36598,838.86624 C -41.463365,837.70043 -44.650634,832.62292 -43.483766,827.52091 C -42.317408,822.42112 -37.239944,819.23394 -32.14256,820.39974 C -27.04049,821.56663 -23.853196,826.64402 -25.019554,831.74381 z"
         type="arc"
         cx="-486.21375"
         ry="3.9327636"
         cy="-89.381149"
         rx="3.9327636"
         id="path10259" />
      <path
         style="fill:#e3e4e5;fill-opacity:1;stroke:#010101;stroke-width:1;stroke-miterlimit:4;stroke-dasharray:none"
         d="M -94.121498,868.74437 C -94.571098,863.52997 -90.711898,858.94237 -85.497398,858.49277 C -80.287798,858.04357 -75.700198,861.90287 -75.250598,867.11727 C -74.801198,872.32937 -78.660398,876.91687 -83.870098,877.36607 C -89.084498,877.81567 -93.672098,873.95657 -94.121498,868.74437 z"
         type="arc"
         cx="-486.21375"
         ry="3.9327636"
         cy="-89.381149"
         rx="3.9327636"
         id="path11675" />
      <path
         id="path11677"
         rx="3.9327636"
         cy="-89.381149"
         ry="3.9327636"
         cx="-486.21375"
         type="arc"
         d="M -106.0587,860.78697 C -106.5083,855.57257 -102.6491,850.98497 -97.434598,850.53537 C -92.224898,850.08607 -87.637398,853.94537 -87.187698,859.15977 C -86.738298,864.37187 -90.597598,868.95937 -95.807198,869.40857 C -101.0217,869.85827 -105.6093,865.99907 -106.0587,860.78697 z"
         style="fill:#e3e4e5;fill-opacity:1;stroke:#010101;stroke-width:1;stroke-miterlimit:4;stroke-dasharray:none" />
      <path
         style="fill:#e3e4e5;fill-opacity:1;stroke:#010101;stroke-width:1;stroke-miterlimit:4;stroke-dasharray:none"
         d="M -118.1784,850.59147 C -118.628,845.37707 -114.7688,840.78947 -109.5543,840.33977 C -104.3447,839.89057 -99.757098,843.74987 -99.307498,848.96427 C -98.857998,854.17637 -102.7173,858.76387 -107.927,859.21307 C -113.1414,859.66267 -117.729,855.80357 -118.1784,850.59147 z"
         type="arc"
         cx="-486.21375"
         ry="3.9327636"
         cy="-89.381149"
         rx="3.9327636"
         id="path11679" />
      <path
         id="path11681"
         rx="3.9327636"
         cy="-89.381149"
         ry="3.9327636"
         cx="-486.21375"
         type="arc"
         d="M -127.6356,838.87827 C -128.0852,833.66387 -124.2259,829.07627 -119.0115,828.62667 C -113.8018,828.17747 -109.2142,832.03677 -108.7646,837.25117 C -108.3152,842.46327 -112.1744,847.05077 -117.3841,847.49997 C -122.5986,847.94957 -127.1861,844.09047 -127.6356,838.87827 z"
         style="fill:#e3e4e5;fill-opacity:1;stroke:#010101;stroke-width:1;stroke-miterlimit:4;stroke-dasharray:none" />
      <path
         id="path11791"
         d="M -136.46814,827.96615 C -134.87724,831.79836 -131.03634,834.33194 -126.71545,833.79847 C -123.22047,833.36698 -120.53893,831.02134 -119.26813,827.98909 C -124.85622,827.91832 -130.58815,827.90898 -136.46814,827.96615 z"
         style="fill:#e3e4e5;fill-opacity:1;stroke:#010101;stroke-width:1;stroke-miterlimit:4;stroke-dasharray:none" />
      <path
         sodipodi:nodetypes="cssscc"
         id="path11783"
         d="M -291.9219,836.73704 C -293.3242,838.55074 -294.1345,840.83364 -293.9219,843.29954 C -293.4725,848.51164 -288.8864,852.37394 -283.6719,851.92454 C -278.4622,851.47534 -274.5974,846.88654 -275.0469,841.67454 C -275.3101,838.62224 -277.0898,836.17374 -279.4844,834.64324 C -283.65234,835.20839 -287.78574,835.98038 -291.9219,836.73704 z"
         style="fill:#e3e4e5;fill-opacity:1;stroke:#010101;stroke-width:1;stroke-miterlimit:4;stroke-dasharray:none" />
      <path
         style="fill:#e3e4e5;fill-opacity:1;stroke:#010101;stroke-width:0.99999994;stroke-miterlimit:4;stroke-dasharray:none"
         d="M -263.8153,826.57827 C -262.6323,831.67657 -265.8034,836.76417 -270.9018,837.94717 C -275.9954,839.12917 -281.083,835.95797 -282.266,830.85977 C -283.4486,825.76367 -280.2774,820.67617 -275.1837,819.49417 C -270.0854,818.31117 -264.9979,821.48227 -263.8153,826.57827 z"
         type="arc"
         cx="-486.21375"
         ry="3.9327636"
         cy="-89.381149"
         rx="3.9327636"
         id="path10245" />
      <path
         id="path11702"
         rx="3.9327636"
         cy="-89.381149"
         ry="3.9327636"
         cx="-486.21375"
         type="arc"
         d="M -176.7592,870.18157 C -177.2088,864.96717 -173.3496,860.37957 -168.1351,859.92997 C -162.9255,859.48077 -158.3379,863.34007 -157.8883,868.55447 C -157.4389,873.76657 -161.2981,878.35407 -166.5078,878.80327 C -171.7222,879.25287 -176.3098,875.39377 -176.7592,870.18157 z"
         style="fill:#e3e4e5;fill-opacity:1;stroke:#010101;stroke-width:1;stroke-miterlimit:4;stroke-dasharray:none" />
      <path
         style="fill:#e3e4e5;fill-opacity:1;stroke:#010101;stroke-width:1;stroke-miterlimit:4;stroke-dasharray:none"
         d="M -188.6964,862.22417 C -189.146,857.00977 -185.2868,852.42217 -180.0723,851.97257 C -174.8626,851.52327 -170.2751,855.38257 -169.8254,860.59697 C -169.376,865.80907 -173.2353,870.39657 -178.4449,870.84577 C -183.6594,871.29547 -188.247,867.43627 -188.6964,862.22417 z"
         type="arc"
         cx="-486.21375"
         ry="3.9327636"
         cy="-89.381149"
         rx="3.9327636"
         id="path11704" />
      <path
         id="path11706"
         rx="3.9327636"
         cy="-89.381149"
         ry="3.9327636"
         cx="-486.21375"
         type="arc"
         d="M -200.8161,852.02867 C -201.2657,846.81427 -197.4065,842.22667 -192.192,841.77697 C -186.9824,841.32777 -182.3948,845.18707 -181.9452,850.40147 C -181.4957,855.61357 -185.355,860.20107 -190.5647,860.65027 C -195.7791,861.09987 -200.3667,857.24077 -200.8161,852.02867 z"
         style="fill:#e3e4e5;fill-opacity:1;stroke:#010101;stroke-width:1;stroke-miterlimit:4;stroke-dasharray:none" />
      <path
         style="fill:#e3e4e5;fill-opacity:1;stroke:#010101;stroke-width:1;stroke-miterlimit:4;stroke-dasharray:none"
         d="M -210.2733,840.31547 C -210.7229,835.10107 -206.8636,830.51347 -201.6492,830.06387 C -196.4395,829.61467 -191.8519,833.47397 -191.4023,838.68837 C -190.9529,843.90047 -194.8121,848.48797 -200.0218,848.93717 C -205.2363,849.38677 -209.8238,845.52767 -210.2733,840.31547 z"
         type="arc"
         cx="-486.21375"
         ry="3.9327636"
         cy="-89.381149"
         rx="3.9327636"
         id="path11708" />
      <path
         sodipodi:nodetypes="cscc"
         id="path11787"
         d="M -217.15089,829.03329 C -215.54959,832.60899 -211.5789,835.62828 -207.4531,835.27258 C -203.4482,834.92728 -200.2921,831.80919 -199.2344,828.16859 C -205.10399,828.49257 -210.91409,828.4684 -217.15089,829.03329 z"
         style="fill:#e3e4e5;fill-opacity:1;stroke:#010101;stroke-width:1;stroke-miterlimit:4;stroke-dasharray:none" />
      <path
         id="path11716"
         rx="3.9327636"
         cy="-89.381149"
         ry="3.9327636"
         cx="-486.21375"
         type="arc"
         d="M -285.8015,855.75687 C -286.2511,850.54247 -282.3919,845.95487 -277.1774,845.50527 C -271.9677,845.05597 -267.3802,848.91527 -266.9305,854.12967 C -266.4811,859.34177 -270.3404,863.92927 -275.55,864.37847 C -280.7645,864.82817 -285.3521,860.96897 -285.8015,855.75687 z"
         style="fill:#e3e4e5;fill-opacity:1;stroke:#010101;stroke-width:1;stroke-miterlimit:4;stroke-dasharray:none" />
      <path
         style="fill:#e3e4e5;fill-opacity:1;stroke:#010101;stroke-width:1;stroke-miterlimit:4;stroke-dasharray:none"
         d="M -273.8643,867.71427 C -274.3139,862.49987 -270.4547,857.91227 -265.2402,857.46267 C -260.0306,857.01347 -255.443,860.87277 -254.9934,866.08717 C -254.544,871.29927 -258.4032,875.88677 -263.6129,876.33597 C -268.8273,876.78557 -273.4149,872.92647 -273.8643,867.71427 z"
         type="arc"
         cx="-486.21375"
         ry="3.9327636"
         cy="-89.381149"
         rx="3.9327636"
         id="path11714" />
      <g
         id="g9126"
         transform="matrix(0.3926312,0,0,0.3724982,-1317.2429,515.76343)">
        <g
           transform="matrix(-0.748008,0.507597,0.4813713,0.8831979,3520.4688,-1419.3176)"
           id="g9134" />
      </g>
      <g
         transform="matrix(-0.3926312,0,0,0.3724982,1007.274,515.76343)"
         id="g9142">
        <g
           id="g9150"
           transform="matrix(-0.748008,0.507597,0.4813713,0.8831979,3520.4688,-1419.3176)" />
      </g>
    </g>
  </g>
  <g
     inkscape:label="Escudo"
     inkscape:groupmode="layer"
     id="layer1"
     transform="translate(-28.928569,76.640346)">
    <rect
       style="opacity:1;fill:#0071bc;fill-opacity:1;fill-rule:nonzero;stroke:none;stroke-width:3.02500010000000020;stroke-miterlimit:4;stroke-dasharray:none;stroke-opacity:1"
       id="rect3834"
       width="424.55701"
       height="424.55701"
       x="-399.96667"
       y="444.12039"
       transform="matrix(0.7071068,-0.7071068,0.7071068,0.7071068,0,0)" />
    <path
       id="path1887"
       style="opacity:0.63999999;fill:#009900;fill-opacity:1"
       d="" />
    <path
       id="path1883"
       style="opacity:0.63999999;fill:#009900;fill-opacity:1"
       d="" />
    <path
       id="path1881"
       style="opacity:0.63999999;fill:#009900;fill-opacity:1"
       d="" />
    <g
       id="g5190"
       inkscape:label="Piezas"
       transform="translate(698.01435,-76.382271)" />
    <g
       id="g5192"
       inkscape:label="Muebles"
       transform="translate(698.01435,-76.382271)" />
    <g
       id="g5194"
       inkscape:label="Ornamentos"
       transform="translate(698.01435,-76.382271)" />
    <g
       id="g4934"
       inkscape:label="Timbre"
       transform="translate(-299.14771,-72.331854)"
       style="display:inline" />
    <path
       d=""
       style="opacity:0.63999999;fill:#009900;fill-opacity:1"
       id="path5344" />
    <path
       d=""
       style="opacity:0.63999999;fill:#009900;fill-opacity:1"
       id="path5346" />
    <path
       d=""
       style="opacity:0.63999999;fill:#009900;fill-opacity:1"
       id="path5348" />
    <g
       id="g5598"
       inkscape:label="Piezas"
       transform="translate(-242.71899,-148.9722)" />
    <g
       id="g5600"
       inkscape:label="Muebles"
       transform="translate(-242.71899,-148.9722)" />
    <g
       id="g5602"
       inkscape:label="Ornamentos"
       transform="translate(-242.71899,-148.9722)" />
    <path
       style="fill:#eac102;fill-opacity:1;fill-rule:nonzero;stroke:#000000;stroke-width:1;stroke-linecap:square;stroke-linejoin:miter;marker:none;marker-start:none;marker-mid:none;marker-end:none;stroke-miterlimit:4;stroke-dashoffset:0;stroke-opacity:1;visibility:visible;display:inline;overflow:visible;enable-background:accumulate"
       d="M 277.65625,657.9375 C 191.79728,657.9375 185.36537,716.16511 173.375,786.21875 L 164.84375,836.0625 L 302.5,973.71875 L 440.15625,836.0625 L 431.625,786.21875 C 421.03595,724.35233 412.71365,657.9375 327.34375,657.9375 L 277.65625,657.9375 z"
       transform="translate(28.928569,-76.640346)"
       id="rect2627"
       sodipodi:nodetypes="cscccccc" />
    <g
       id="g2670"
       transform="matrix(1.1079336,0,0,1.1079336,150.01367,-376.23568)"
       style="stroke:#000000;stroke-width:0.90258116;stroke-miterlimit:4;stroke-dasharray:none;stroke-opacity:1">
      <g
         style="stroke:#000000;stroke-width:0.90258116;stroke-miterlimit:4;stroke-dasharray:none;stroke-opacity:1;display:inline"
         transform="translate(-56.428722,76.640346)"
         inkscape:label="Timbre"
         id="g2672" />
      <g
         transform="translate(-56.428722,76.640346)"
         id="g2674"
         inkscape:label="Escudo"
         style="stroke:#000000;stroke-width:0.90258116;stroke-miterlimit:4;stroke-dasharray:none;stroke-opacity:1" />
      <g
         inkscape:label="Piezas"
         id="g2676"
         style="stroke:#000000;stroke-width:0.90258116;stroke-miterlimit:4;stroke-dasharray:none;stroke-opacity:1" />
      <g
         style="stroke:#000000;stroke-width:0.90258116;stroke-miterlimit:4;stroke-dasharray:none;stroke-opacity:1;display:inline"
         inkscape:label="Muebles"
         id="g2678" />
      <g
         style="stroke:#000000;stroke-width:0.90258116;stroke-miterlimit:4;stroke-dasharray:none;stroke-opacity:1;display:inline"
         inkscape:label="Ornamentos"
         id="g2680">
        <g
           transform="translate(4.2536197,299.85635)"
           id="g3374"
           style="fill:#e3e4e5;fill-opacity:1;stroke:#000000;stroke-width:0.90258116;stroke-miterlimit:4;stroke-dasharray:none;stroke-opacity:1;display:inline">
          <path
             sodipodi:nodetypes="ccccccccccccc"
             id="path3376"
             d="M 178.42716,518.62407 C 181.25321,515.87127 186.23385,513.95299 193.59618,512.95724 L 213.86878,523.89555 C 204.03016,532.24564 203.07896,548.03384 201.96041,554.47009 C 197.608,555.01239 198.75818,556.30868 198.1327,560.66408 C 196.3653,564.20013 193.46982,567.12749 188.20906,566.85806 C 188.3043,564.88159 190.05017,563.40878 191.32791,561.85015 C 189.5915,563.32737 186.5881,564.64711 185.57968,565.88746 C 181.5796,561.45285 187.49123,557.30915 190.33556,554.86545 L 188.35083,553.02044 L 195.43915,544.32251 C 200.06104,540.07936 204.60054,528.92093 195.01385,527.84915 C 184.50788,526.24626 180.6933,522.66417 178.42716,518.62407 z"
             style="fill:#e3e4e5;fill-opacity:1;fill-rule:evenodd;stroke:#000000;stroke-width:0.90258116;stroke-linecap:butt;stroke-linejoin:miter;stroke-miterlimit:4;stroke-dasharray:none;stroke-opacity:1" />
          <path
             sodipodi:nodetypes="ccccccccccccccccccccccccccccccccccccccccccccccccccccccccccccc"
             id="path3378"
             d="M 61.216811,436.09576 C 66.402714,446.49439 52.261065,455.25023 64.526562,463.06244 C 62.295363,468.29998 61.823295,473.53752 63.722284,478.77506 C 62.89932,484.71313 59.826789,488.85872 55.393167,491.9198 C 54.069751,494.02056 53.491936,496.12132 54.230965,498.22207 L 55.393167,498.76227 C 53.401114,502.57433 60.972453,502.66879 63.214554,502.33901 C 65.412093,501.97091 70.674502,498.59572 73.988409,497.86194 C 76.696654,499.31273 80.084533,499.60583 83.86713,499.60394 C 84.959994,501.31566 87.599574,501.72425 90.756702,502.21215 C 89.79165,506.47529 94.990939,510.09901 94.326955,515.68837 L 81.361555,516.60678 C 79.916276,516.24847 78.725578,516.83679 77.833619,518.53595 C 75.852978,522.91538 74.12399,528.18953 70.362699,530.4968 C 67.959159,532.79582 66.753931,535.46615 67.664867,538.79222 C 64.539891,542.52195 64.412138,546.25168 64.551983,549.9814 C 68.463793,550.61948 71.70708,549.08245 74.51321,546.12307 L 73.890635,540.52848 L 76.380942,539.17806 L 80.946504,527.98888 C 83.870444,524.91179 87.227241,525.05377 90.700208,526.05971 C 99.220438,528.71796 107.35734,530.66351 114.77318,531.26847 C 115.46255,535.13165 118.32605,545.5264 114.15061,549.20973 C 110.66644,552.50288 108.71163,556.26993 108.54741,560.59183 L 104.81194,568.30851 C 113.69489,572.79143 117.06197,568.41756 119.96131,563.29266 C 119.16386,561.23488 118.62185,559.17711 118.9237,557.11933 L 123.48926,555.38307 C 123.98028,545.79187 127.63522,536.69087 131.37522,527.60304 C 135.18404,516.94731 143.11956,509.1687 138.84616,492.87801 L 139.88377,488.63384 L 138.84616,493.64968 C 142.92769,507.00521 135.50625,517.01911 131.37522,527.98888 C 140.70165,527.75438 151.32279,525.11273 162.29653,521.81554 C 167.27961,518.94019 167.35821,521.75791 166.44705,525.28804 C 173.20778,527.03717 175.7857,515.19206 194.67054,513.71303 C 189.7222,508.66719 195.88487,495.41459 186.16199,482.84633 C 196.3349,499.19943 188.38192,503.3229 194.67054,513.71303 C 201.41378,520.3066 210.07324,523.69376 219.57361,525.67388 C 228.15302,534.03361 227.38973,542.39334 223.30905,550.75307 C 218.95689,556.71678 213.90563,563.18368 216.46074,568.11559 C 217.70587,568.11559 218.95104,567.34392 220.19618,565.80058 L 217.9134,570.43059 C 224.29074,571.69781 226.03645,566.07607 229.94987,563.6785 L 229.53482,557.50516 L 233.89286,554.41849 C 234.23984,551.1389 233.84795,547.85932 233.68534,544.57973 C 230.52651,531.11864 235.82759,529.75664 239.49607,526.05971 C 239.17291,520.2722 228.63657,515.6422 226.62948,508.69719 C 236.37225,486.79203 226.49919,465.71888 205.87692,458.73173 C 197.36837,457.56561 188.85981,460.06034 180.35126,461.81839 C 160.5,468.00075 150.1765,463.24206 139.46873,458.92464 C 126.85457,453.43274 115.28549,451.82682 105.43453,456.60964 C 102.08745,460.15885 101.77776,462.29627 100.45391,464.90506 C 105.27373,458.01718 106.42407,452.17982 102.94423,445.8063 C 101.64744,442.4624 99.787496,439.11851 100.03886,435.77462 C 94.33515,438.35318 94.026953,443.24668 95.473295,448.89296 C 96.919078,457.33458 98.377689,453.44157 91.322785,459.11756 C 84.47541,457.44381 77.889459,455.28402 68.910019,457.57422 C 66.953881,454.50756 67.078812,450.66708 67.872393,446.57796 C 71.085186,439.97683 64.614236,438.91542 61.216811,436.09576 z"
             style="fill:#e3e4e5;fill-opacity:1;fill-rule:evenodd;stroke:#000000;stroke-width:0.90258116;stroke-linecap:butt;stroke-linejoin:miter;stroke-miterlimit:4;stroke-dasharray:none;stroke-opacity:1" />
          <path
             sodipodi:nodetypes="cccccccccc"
             id="path3381"
             d="M 205.80839,469.92445 C 212.1614,463.03789 231.95568,463.07568 237.92958,468.77304 C 240.47855,473.24204 239.69857,478.49421 239.84624,483.48945 C 239.36528,488.0501 232.90449,496.97845 224.44848,497.30041 C 220.01052,491.8112 211.18148,494.778 214.02967,498.54724 C 203.1556,493.71464 190.31305,502.99361 183.15555,507.01116 C 189.79158,509.10177 200.3617,506.41962 209.57348,505.38541 C 216.12404,507.39979 218.2989,504.46363 221.71502,502.5101 C 247.47836,498.0054 248.83756,482.7965 247.42694,474.19732 C 244.34044,456.73914 223.3801,460.08767 206.51478,459.46765"
             style="fill:#e3e4e5;fill-opacity:1;fill-rule:evenodd;stroke:#000000;stroke-width:0.90258116;stroke-linecap:butt;stroke-linejoin:miter;stroke-miterlimit:4;stroke-dasharray:none;stroke-opacity:1" />
          <path
             sodipodi:nodetypes="cc"
             id="path3383"
             d="M 204.97479,522.95824 C 207.70899,529.48644 204.13056,529.21281 204.14973,532.2578"
             style="fill:#e3e4e5;fill-opacity:1;fill-rule:evenodd;stroke:#000000;stroke-width:0.90258116;stroke-linecap:round;stroke-linejoin:miter;stroke-miterlimit:4;stroke-dasharray:none;stroke-opacity:1" />
          <path
             sodipodi:nodetypes="ccc"
             id="path3385"
             d="M 171.96267,476.38844 C 183.32082,487.73416 177.57907,497.85993 177.3255,504.383 C 173.20022,514.85655 152.5739,518.78583 142.67326,519.339"
             style="fill:#e3e4e5;fill-opacity:1;fill-rule:evenodd;stroke:#000000;stroke-width:0.90258116;stroke-linecap:butt;stroke-linejoin:miter;stroke-miterlimit:4;stroke-dasharray:none;stroke-opacity:1" />
          <path
             sodipodi:nodetypes="cccc"
             id="path3387"
             d="M 224.55985,518.57203 C 226.23366,519.98286 227.59497,521.93321 229.92267,522.21515 C 232.74002,523.30209 233.23705,524.97731 231.57279,527.20048 C 231.01266,528.19567 230.4035,529.18174 230.33521,530.26838"
             style="fill:#e3e4e5;fill-opacity:1;fill-rule:evenodd;stroke:#000000;stroke-width:0.90258116;stroke-linecap:round;stroke-linejoin:miter;stroke-miterlimit:4;stroke-dasharray:none;stroke-opacity:1" />
          <path
             sodipodi:nodetypes="cccc"
             id="path3389"
             d="M 124.39985,525.16232 C 123.66386,527.84795 123.08294,530.46148 123.94147,532.40597 C 125.21719,534.82605 123.88061,536.99987 123.02474,537.94522 C 122.52598,538.56559 122.14655,539.24142 122.10802,540.07571"
             style="fill:#e3e4e5;fill-opacity:1;fill-rule:evenodd;stroke:#000000;stroke-width:0.90258116;stroke-linecap:round;stroke-linejoin:miter;stroke-miterlimit:4;stroke-dasharray:none;stroke-opacity:1" />
          <path
             sodipodi:nodetypes="ccc"
             id="path3391"
             d="M 94.523768,514.50533 C 97.574003,522.97689 99.69403,525.56353 104.48213,529.4074 C 99.560631,523.31224 98.621143,517.48149 98.167073,511.68297"
             style="fill:#e3e4e5;fill-opacity:1;fill-rule:evenodd;stroke:#000000;stroke-width:0.90258116;stroke-linecap:butt;stroke-linejoin:miter;stroke-miterlimit:4;stroke-dasharray:none;stroke-opacity:1" />
          <path
             sodipodi:nodetypes="cc"
             id="path3393"
             d="M 111.89019,489.44275 C 107.89998,508.6955 115.65935,521.15137 115.04773,532.11687"
             style="fill:#e3e4e5;fill-opacity:1;fill-rule:evenodd;stroke:#000000;stroke-width:0.90258116;stroke-linecap:butt;stroke-linejoin:miter;stroke-miterlimit:4;stroke-dasharray:none;stroke-opacity:1" />
          <path
             sodipodi:nodetypes="ccccccccccccccccccccccccccccc"
             id="path3395"
             d="M 78.511663,456.02835 C 76.6185,458.88324 72.470995,460.31799 72.221152,463.80346 C 71.549159,460.15912 76.303553,458.81665 78.177928,455.90838 C 75.740889,454.81225 73.104836,454.39809 70.00418,456.28996 C 68.691853,457.06454 67.046863,458.02141 66.944152,459.17081 C 66.275034,460.1504 65.792042,460.76261 64.918432,461.36201 C 63.604106,462.52139 61.88416,463.60536 61.514947,464.94047 C 62.915188,465.38171 63.879446,464.40443 64.884582,463.56016 C 63.87016,465.12576 60.984149,466.54637 62.150831,468.28094 C 63.103626,468.18285 64.760945,465.67907 65.606217,465.76678 C 64.658727,467.47698 62.59477,469.05744 63.099723,470.93641 C 63.889501,471.03635 65.293229,468.3823 65.929521,468.15178 C 66.836279,468.78506 63.622151,470.80481 64.572482,472.7833 C 66.250135,471.92813 67.191617,470.61673 68.288975,469.40193 C 68.921851,469.8582 66.3323,471.65576 68.53142,473.78432 C 69.547763,472.39487 70.871075,469.68195 71.73393,469.61596 C 72.200434,470.9906 72.504225,472.27598 74.309068,473.29516 C 76.073248,471.91237 75.256299,469.99638 75.346745,468.26783 C 75.687919,469.56594 76.801459,470.70872 78.588406,471.53314 C 79.721943,470.1194 79.859036,468.58988 79.357195,466.98612 C 79.86724,468.29455 80.538575,469.54676 82.660734,470.29322 C 83.068457,468.64025 82.709358,467.16549 82.314784,465.69897 C 82.735272,467.1487 83.664646,467.71187 85.721973,467.83018 C 86.451965,465.6783 85.900652,464.37168 85.146913,463.01645 C 86.891258,464.47099 88.536089,465.47294 90.884464,465.05578 C 90.672703,463.46506 89.22723,462.44776 88.284895,461.19661 C 90.074167,463.20503 92.987784,462.53082 94.728893,461.86469 C 91.266725,460.5023 92.111684,460.54564 92.203736,457.77685 C 88.83758,455.31793 83.861734,454.10125 78.511663,456.02835 z"
             style="fill:#e3e4e5;fill-opacity:1;fill-rule:evenodd;stroke:#000000;stroke-width:0.90258116;stroke-linecap:butt;stroke-linejoin:miter;stroke-miterlimit:4;stroke-dasharray:none;stroke-opacity:1" />
          <path
             sodipodi:nodetypes="cc"
             id="path3397"
             d="M 75.226722,480.57287 C 75.306274,473.20858 82.451067,475.52326 86.124268,473.08207"
             style="fill:#e3e4e5;fill-opacity:1;fill-rule:evenodd;stroke:#000000;stroke-width:0.90258116;stroke-linecap:round;stroke-linejoin:miter;stroke-miterlimit:4;stroke-dasharray:none;stroke-opacity:1" />
          <path
             sodipodi:nodetypes="cc"
             id="path3399"
             d="M 86.738214,476.22108 C 83.763226,478.71037 81.400318,482.43045 77.222049,481.85701"
             style="fill:#e3e4e5;fill-opacity:1;fill-rule:evenodd;stroke:#000000;stroke-width:0.90258116;stroke-linecap:round;stroke-linejoin:miter;stroke-miterlimit:4;stroke-dasharray:none;stroke-opacity:1" />
          <path
             sodipodi:nodetypes="cscsc"
             id="path3401"
             d="M 77.30732,479.63751 C 78.129,479.48934 79.212337,479.61464 79.804797,479.33462 C 81.077109,478.7333 82.622671,476.80017 83.13128,476.57778 C 81.676088,476.63712 80.061561,476.64662 78.925218,477.11773 C 78.20722,477.4154 77.545843,478.49673 77.30732,479.63751 z"
             style="fill:#000000;fill-opacity:1;fill-rule:evenodd;stroke:#000000;stroke-width:0.90258116;stroke-linecap:square;stroke-linejoin:miter;stroke-miterlimit:4;stroke-dasharray:none;stroke-opacity:1" />
          <path
             sodipodi:nodetypes="ccccc"
             id="path3403"
             d="M 54.30042,497.19134 C 55.723088,497.88696 57.196037,498.54523 59.09389,498.87286 C 63.569285,499.46035 64.278256,497.74819 64.218985,495.36969 C 64.27038,496.12913 64.280312,496.90142 63.857214,497.8079 C 64.637003,497.81327 65.631407,497.564 66.570497,496.91108"
             style="fill:#e3e4e5;fill-opacity:1;fill-rule:evenodd;stroke:#000000;stroke-width:0.90258116;stroke-linecap:round;stroke-linejoin:round;stroke-miterlimit:4;stroke-dasharray:none;stroke-opacity:1" />
          <path
             sodipodi:nodetypes="cc"
             id="path3405"
             d="M 75.115873,481.04055 C 75.003122,487.4972 65.981419,489.31997 64.286543,495.54654"
             style="fill:#e3e4e5;fill-opacity:1;fill-rule:evenodd;stroke:#000000;stroke-width:0.90258116;stroke-linecap:butt;stroke-linejoin:miter;stroke-miterlimit:4;stroke-dasharray:none;stroke-opacity:1" />
          <path
             sodipodi:nodetypes="ccc"
             id="path3407"
             d="M 91.135104,466.58265 C 97.617079,463.45832 102.70404,466.00757 108.43857,465.92312 C 106.18881,470.25696 101.52754,477.59566 91.726336,473.98412"
             style="fill:#e3e4e5;fill-opacity:1;fill-rule:evenodd;stroke:#000000;stroke-width:0.90258116;stroke-linecap:round;stroke-linejoin:miter;stroke-miterlimit:4;stroke-dasharray:none;stroke-opacity:1" />
          <path
             sodipodi:nodetypes="cc"
             id="path3409"
             d="M 92.041663,469.73377 C 95.252276,469.13203 98.151404,467.95117 101.93499,468.4147"
             style="fill:#e3e4e5;fill-opacity:1;fill-rule:evenodd;stroke:#000000;stroke-width:0.90258116;stroke-linecap:round;stroke-linejoin:miter;stroke-miterlimit:4;stroke-dasharray:none;stroke-opacity:1" />
          <path
             sodipodi:nodetypes="cc"
             id="path3411"
             d="M 72.324521,497.84155 C 74.494352,496.51318 76.71442,495.25486 78.493311,493.38135"
             style="fill:#e3e4e5;fill-opacity:1;fill-rule:evenodd;stroke:#000000;stroke-width:0.90258116;stroke-linecap:round;stroke-linejoin:miter;stroke-miterlimit:4;stroke-dasharray:none;stroke-opacity:1" />
          <path
             sodipodi:nodetypes="cc"
             id="path3413"
             d="M 83.215099,499.54067 C 91.350113,497.14428 96.942009,492.38378 97.38047,482.83263"
             style="fill:#e3e4e5;fill-opacity:1;fill-rule:evenodd;stroke:#000000;stroke-width:0.90258116;stroke-linecap:round;stroke-linejoin:miter;stroke-miterlimit:4;stroke-dasharray:none;stroke-opacity:1" />
          <path
             id="path3415"
             d="M 89.764679,501.94776 C 89.790065,501.94776 89.815451,501.94776 89.764679,501.94776 z"
             style="fill:#e3e4e5;fill-opacity:1;fill-rule:evenodd;stroke:#000000;stroke-width:0.90258116;stroke-linecap:butt;stroke-linejoin:miter;stroke-miterlimit:4;stroke-dasharray:none;stroke-opacity:1" />
          <path
             sodipodi:nodetypes="cc"
             id="path3417"
             d="M 98.979786,495.78844 C 96.883301,499.8212 92.047397,500.26973 89.840837,502.01856"
             style="fill:#e3e4e5;fill-opacity:1;fill-rule:evenodd;stroke:#000000;stroke-width:0.90258116;stroke-linecap:round;stroke-linejoin:miter;stroke-miterlimit:4;stroke-dasharray:none;stroke-opacity:1" />
        </g>
      </g>
      <g
         style="stroke:#000000;stroke-width:0.90258116;stroke-miterlimit:4;stroke-dasharray:none;stroke-opacity:1;display:inline"
         inkscape:label="Borde 3px"
         id="g2704" />
    </g>
  </g>
  <g
     inkscape:groupmode="layer"
     id="layer4"
     inkscape:label="Piezas"
     transform="translate(27.500153,-8.9406967e-8)" />
  <g
     inkscape:groupmode="layer"
     id="layer5"
     inkscape:label="Muebles"
     transform="translate(27.500153,-8.9406967e-8)" />
  <g
     inkscape:groupmode="layer"
     id="layer6"
     inkscape:label="Ornamentos"
     transform="translate(27.500153,-8.9406967e-8)" />
  <g
     inkscape:groupmode="layer"
     id="layer2"
     inkscape:label="Borde 3px"
     style="display:inline"
     transform="translate(27.500153,-8.9406967e-8)">
    <rect
       y="460.20813"
       x="-492.26477"
       height="423.55695"
       width="423.55695"
       id="rect12296"
       style="fill:none;fill-opacity:1;fill-rule:evenodd;stroke:#000000;stroke-width:3;stroke-linecap:butt;stroke-linejoin:miter;marker:none;marker-start:none;marker-mid:none;marker-end:none;stroke-miterlimit:4;stroke-dasharray:none;stroke-dashoffset:0;stroke-opacity:1;visibility:visible;display:inline;overflow:visible;enable-background:accumulate"
       transform="matrix(0.7071068,-0.7071068,0.7071068,0.7071068,0,0)" />
  </g>
</svg>
