<?xml version="1.0" encoding="UTF-8"?>

<svg version="1.2" baseProfile="tiny" width="212.37mm" height="267.97mm" viewBox="0 0 21237 26797" preserveAspectRatio="xMidYMid" fill-rule="evenodd" stroke-width="28.222" stroke-linejoin="round" xmlns="http://www.w3.org/2000/svg" xmlns:ooo="http://xml.openoffice.org/svg/export" xmlns:xlink="http://www.w3.org/1999/xlink" xml:space="preserve">
 <defs class="ClipPathGroup">
  <clipPath id="presentation_clip_path" clipPathUnits="userSpaceOnUse">
   <rect x="0" y="0" width="21237" height="26797"/>
  </clipPath>
 </defs>
 <defs class="TextShapeIndex">
  <g ooo:slide="id1" ooo:id-list="id3 id4 id5 id6 id7 id8 id9 id10 id11 id12 id13 id14 id15 id16 id17 id18 id19 id20 id21 id22 id23 id24 id25 id26 id27 id28 id29 id30 id31 id32 id33 id34 id35 id36 id37 id38 id39 id40 id41 id42 id43 id44 id45 id46 id47 id48 id49 id50 id51 id52 id53 id54 id55 id56 id57 id58 id59 id60 id61 id62 id63 id64 id65 id66 id67 id68 id69 id70 id71 id72 id73 id74 id75 id76 id77 id78 id79 id80 id81 id82 id83 id84 id85 id86 id87 id88 id89 id90 id91 id92 id93 id94 id95 id96 id97 id98 id99 id100 id101 id102 id103 id104 id105 id106 id107 id108 id109 id110 id111 id112 id113 id114 id115 id116 id117 id118 id119 id120 id121 id122 id123 id124 id125 id126 id127 id128 id129 id130"/>
 </defs>
 <defs class="EmbeddedBulletChars">
  <g id="bullet-char-template(57356)" transform="scale(0.00048828125,-0.00048828125)">
   <path d="M 580,1141 L 1163,571 580,0 -4,571 580,1141 Z"/>
  </g>
  <g id="bullet-char-template(57354)" transform="scale(0.00048828125,-0.00048828125)">
   <path d="M 8,1128 L 1137,1128 1137,0 8,0 8,1128 Z"/>
  </g>
  <g id="bullet-char-template(10146)" transform="scale(0.00048828125,-0.00048828125)">
   <path d="M 174,0 L 602,739 174,1481 1456,739 174,0 Z M 1358,739 L 309,1346 659,739 1358,739 Z"/>
  </g>
  <g id="bullet-char-template(10132)" transform="scale(0.00048828125,-0.00048828125)">
   <path d="M 2015,739 L 1276,0 717,0 1260,543 174,543 174,936 1260,936 717,1481 1274,1481 2015,739 Z"/>
  </g>
  <g id="bullet-char-template(10007)" transform="scale(0.00048828125,-0.00048828125)">
   <path d="M 0,-2 C -7,14 -16,27 -25,37 L 356,567 C 262,823 215,952 215,954 215,979 228,992 255,992 264,992 276,990 289,987 310,991 331,999 354,1012 L 381,999 492,748 772,1049 836,1024 860,1049 C 881,1039 901,1025 922,1006 886,937 835,863 770,784 769,783 710,716 594,584 L 774,223 C 774,196 753,168 711,139 L 727,119 C 717,90 699,76 672,76 641,76 570,178 457,381 L 164,-76 C 142,-110 111,-127 72,-127 30,-127 9,-110 8,-76 1,-67 -2,-52 -2,-32 -2,-23 -1,-13 0,-2 Z"/>
  </g>
  <g id="bullet-char-template(10004)" transform="scale(0.00048828125,-0.00048828125)">
   <path d="M 285,-33 C 182,-33 111,30 74,156 52,228 41,333 41,471 41,549 55,616 82,672 116,743 169,778 240,778 293,778 328,747 346,684 L 369,508 C 377,444 397,411 428,410 L 1163,1116 C 1174,1127 1196,1133 1229,1133 1271,1133 1292,1118 1292,1087 L 1292,965 C 1292,929 1282,901 1262,881 L 442,47 C 390,-6 338,-33 285,-33 Z"/>
  </g>
  <g id="bullet-char-template(9679)" transform="scale(0.00048828125,-0.00048828125)">
   <path d="M 813,0 C 632,0 489,54 383,161 276,268 223,411 223,592 223,773 276,916 383,1023 489,1130 632,1184 813,1184 992,1184 1136,1130 1245,1023 1353,916 1407,772 1407,592 1407,412 1353,268 1245,161 1136,54 992,0 813,0 Z"/>
  </g>
  <g id="bullet-char-template(8226)" transform="scale(0.00048828125,-0.00048828125)">
   <path d="M 346,457 C 273,457 209,483 155,535 101,586 74,649 74,723 74,796 101,859 155,911 209,963 273,989 346,989 419,989 480,963 531,910 582,859 608,796 608,723 608,648 583,586 532,535 482,483 420,457 346,457 Z"/>
  </g>
  <g id="bullet-char-template(8211)" transform="scale(0.00048828125,-0.00048828125)">
   <path d="M -4,459 L 1135,459 1135,606 -4,606 -4,459 Z"/>
  </g>
 </defs>
 <defs class="TextEmbeddedBitmaps"/>
 <g>
  <g id="id2" class="Master_Slide">
   <g id="bg-id2" class="Background"/>
   <g id="bo-id2" class="BackgroundObjects"/>
  </g>
 </g>
 <g class="SlideGroup">
  <g>
   <g id="id1" class="Slide" clip-path="url(#presentation_clip_path)">
    <g class="Page">
     <g class="com.sun.star.drawing.PolyPolygonShape">
      <g id="id3">
       <path fill="rgb(255,30,0)" stroke="none" d="M 10619,5612 L 53,16178 10619,26744 21185,16178 10619,5612 Z"/>
       <path fill="none" stroke="rgb(0,0,0)" stroke-width="35" stroke-linejoin="miter" d="M 10619,5612 L 53,16178 10619,26744 21185,16178 10619,5612 Z"/>
      </g>
     </g>
     <g class="com.sun.star.drawing.PolyPolygonShape">
      <g id="id4">
       <path fill="none" stroke="rgb(0,0,0)" stroke-width="106" stroke-linejoin="miter" d="M 15902,21461 L 10619,26744 53,16178 10619,5612 21185,16178 15902,21461 Z"/>
      </g>
     </g>
     <g class="Graphic">
      <g id="id5">
       <path fill="rgb(255,220,20)" stroke="none" d="M 10275,3201 C 7956,4210 4983,2529 4827,4352 10265,4693 11650,4716 16241,4324 14708,2730 11955,3140 10275,3201 Z"/>
       <path fill="none" stroke="rgb(0,0,0)" stroke-width="33" stroke-linejoin="miter" d="M 16241,4324 C 14708,2730 11955,3140 10275,3201 7956,4210 4983,2529 4827,4352 10265,4693 11650,4716 16241,4324 L 16241,4324 Z"/>
       <path fill="none" stroke="rgb(0,0,0)" stroke-width="22" stroke-linejoin="miter" d="M 9323,4669 L 9323,3766"/>
       <path fill="none" stroke="rgb(0,0,0)" stroke-width="39" stroke-linejoin="miter" d="M 8703,4634 L 8703,3801"/>
       <path fill="none" stroke="rgb(0,0,0)" stroke-width="58" stroke-linejoin="miter" d="M 8199,4629 L 8199,3806"/>
       <path fill="none" stroke="rgb(0,0,0)" stroke-width="68" stroke-linejoin="miter" d="M 7750,4592 L 7750,3842"/>
       <path fill="none" stroke="rgb(0,0,0)" stroke-width="77" stroke-linejoin="miter" d="M 7361,4556 L 7361,3878"/>
       <path fill="none" stroke="rgb(0,0,0)" stroke-width="87" stroke-linejoin="miter" d="M 7006,4534 L 7006,3900"/>
       <path fill="none" stroke="rgb(0,0,0)" stroke-width="97" stroke-linejoin="miter" d="M 6632,4494 L 6632,3941"/>
       <path fill="none" stroke="rgb(0,0,0)" stroke-width="106" stroke-linejoin="miter" d="M 6298,4452 L 6298,3983"/>
       <path fill="none" stroke="rgb(0,0,0)" stroke-width="116" stroke-linejoin="miter" d="M 6005,4420 L 6005,4014"/>
       <path fill="none" stroke="rgb(0,0,0)" stroke-width="125" stroke-linejoin="miter" d="M 5567,4347 L 5561,4091"/>
       <path fill="none" stroke="rgb(0,0,0)" stroke-width="125" stroke-linejoin="miter" d="M 5761,4374 L 5761,4061"/>
       <path fill="none" stroke="rgb(0,0,0)" stroke-width="142" stroke-linejoin="miter" d="M 5362,4311 L 5362,4124"/>
       <path fill="none" stroke="rgb(0,0,0)" stroke-width="161" stroke-linejoin="miter" d="M 5145,4280 L 5145,4155"/>
       <path fill="none" stroke="rgb(0,0,0)" stroke-width="11" stroke-linejoin="miter" d="M 10035,4692 L 10041,3743"/>
       <path fill="none" stroke="rgb(0,0,0)" stroke-width="22" stroke-linejoin="miter" d="M 11961,4669 L 11961,3766"/>
       <path fill="none" stroke="rgb(0,0,0)" stroke-width="39" stroke-linejoin="miter" d="M 12581,4634 L 12581,3801"/>
       <path fill="none" stroke="rgb(0,0,0)" stroke-width="58" stroke-linejoin="miter" d="M 13084,4629 L 13084,3806"/>
       <path fill="none" stroke="rgb(0,0,0)" stroke-width="68" stroke-linejoin="miter" d="M 13534,4592 L 13534,3842"/>
       <path fill="none" stroke="rgb(0,0,0)" stroke-width="77" stroke-linejoin="miter" d="M 13923,4556 L 13923,3878"/>
       <path fill="none" stroke="rgb(0,0,0)" stroke-width="87" stroke-linejoin="miter" d="M 14278,4534 L 14278,3900"/>
       <path fill="none" stroke="rgb(0,0,0)" stroke-width="97" stroke-linejoin="miter" d="M 14652,4494 L 14652,3941"/>
       <path fill="none" stroke="rgb(0,0,0)" stroke-width="106" stroke-linejoin="miter" d="M 14986,4452 L 14986,3983"/>
       <path fill="none" stroke="rgb(0,0,0)" stroke-width="116" stroke-linejoin="miter" d="M 15279,4420 L 15279,4014"/>
       <path fill="none" stroke="rgb(0,0,0)" stroke-width="125" stroke-linejoin="miter" d="M 15717,4347 L 15723,4091"/>
       <path fill="none" stroke="rgb(0,0,0)" stroke-width="125" stroke-linejoin="miter" d="M 15523,4374 L 15523,4061"/>
       <path fill="none" stroke="rgb(0,0,0)" stroke-width="142" stroke-linejoin="miter" d="M 15922,4311 L 15922,4124"/>
       <path fill="none" stroke="rgb(0,0,0)" stroke-width="161" stroke-linejoin="miter" d="M 16139,4280 L 16139,4155"/>
       <path fill="none" stroke="rgb(0,0,0)" stroke-width="11" stroke-linejoin="miter" d="M 11249,4692 L 11243,3743"/>
       <path fill="rgb(255,220,20)" stroke="none" d="M 16880,4325 C 16979,4173 16725,4266 16546,4155 12768,4649 9784,4627 4788,4165 4573,4219 4215,4171 4315,4314 5428,4487 10467,5232 16880,4325 L 16880,4325 Z"/>
       <path fill="none" stroke="rgb(0,0,0)" stroke-width="35" stroke-linejoin="miter" d="M 16880,4325 C 16979,4173 16725,4266 16546,4155 12768,4649 9784,4627 4788,4165 4573,4219 4215,4171 4315,4314 5428,4487 10467,5232 16880,4325 L 16880,4325 Z"/>
       <path fill="rgb(255,220,20)" stroke="none" d="M 4413,4011 L 4010,2075 C 6210,1831 8281,1722 10553,1718 12824,1711 14991,1831 17190,2075 L 16787,4011 C 14601,3814 12811,3762 10600,3744 8390,3762 6600,3814 4413,4011 Z"/>
       <path fill="none" stroke="rgb(0,0,0)" stroke-width="35" stroke-linejoin="miter" d="M 10602,3744 C 8391,3762 6600,3814 4413,4011 L 4010,2075 C 6210,1831 8281,1722 10553,1718 12824,1711 14991,1831 17190,2075 L 16787,4011 C 14600,3814 12809,3762 10598,3744"/>
       <path fill="rgb(255,220,20)" stroke="none" d="M 6319,1760 L 6317,1760 C 5532,1817 4623,1879 3830,1987 3717,2121 3708,2243 3912,2341 4674,2237 5572,2174 6358,2117 7424,2056 8499,2017 9571,2006 L 11627,2006 C 12269,2006 13623,2045 14841,2119 16052,2192 17290,2341 17290,2341 17501,2233 17478,2112 17363,1987 17363,1987 16114,1833 14877,1759 13646,1685 12293,1647 11627,1647 L 9571,1647 C 8438,1658 7289,1707 6321,1759 L 6319,1760 Z"/>
       <path fill="none" stroke="rgb(0,0,0)" stroke-width="35" stroke-linejoin="miter" d="M 6321,1759 L 6319,1760 6317,1760 C 5532,1817 4623,1879 3830,1987 3717,2121 3708,2243 3912,2341 4674,2237 5572,2174 6358,2117 7424,2056 8499,2017 9571,2006 L 11627,2006 C 12269,2006 13623,2045 14841,2119 16052,2192 17290,2341 17290,2341 17501,2233 17478,2112 17363,1987 17363,1987 16114,1833 14877,1759 13646,1685 12293,1647 11627,1647 L 9571,1647 C 8438,1658 7289,1707 6321,1759 L 6321,1759 Z"/>
       <path fill="rgb(255,220,20)" stroke="none" d="M 6621,3757 L 6620,3759 6618,3759 C 5888,3815 5042,3877 4305,3985 4200,4119 4192,4241 4381,4339 5090,4235 5925,4172 6656,4116 7647,4054 8646,4015 9643,4005 L 11555,4005 C 12152,4005 13411,4044 14543,4117 15670,4190 16820,4339 16820,4339 17017,4231 16995,4111 16889,3985 16889,3985 15727,3832 14577,3757 13432,3683 12174,3645 11555,3645 L 9643,3645 C 8634,3648 7627,3699 6621,3757 L 6621,3757 Z"/>
       <path fill="none" stroke="rgb(0,0,0)" stroke-width="35" stroke-linejoin="miter" d="M 6621,3757 L 6620,3759 6618,3759 C 5888,3815 5042,3877 4305,3985 4200,4119 4192,4241 4381,4339 5090,4235 5925,4172 6656,4116 7647,4054 8646,4015 9643,4005 L 11555,4005 C 12152,4005 13411,4044 14543,4117 15670,4190 16820,4339 16820,4339 17017,4231 16995,4111 16889,3985 16889,3985 15727,3832 14577,3757 13432,3683 12174,3645 11555,3645 L 9643,3645 C 8634,3648 7627,3699 6621,3757 L 6621,3757 Z"/>
       <path fill="none" stroke="rgb(0,0,0)" stroke-width="35" stroke-linejoin="miter" d="M 11621,2802 L 10588,2219 9579,2794 10573,3349 11621,2802 11621,2802 Z"/>
       <path fill="rgb(255,30,0)" stroke="none" d="M 9901,2807 L 10579,2424 11252,2817 10555,3138 9901,2807 9901,2807 Z"/>
       <path fill="none" stroke="rgb(0,0,0)" stroke-width="35" stroke-linejoin="miter" d="M 9901,2807 L 10579,2424 11252,2817 10555,3138 9901,2807 9901,2807 Z"/>
       <path fill="none" stroke="rgb(0,0,0)" stroke-width="35" stroke-linejoin="miter" d="M 13860,3302 L 13408,3275 C 13146,3259 12947,3039 12964,2783 12980,2527 13205,2333 13466,2349 L 14371,2404 C 14632,2419 14831,2639 14815,2895 14799,3151 14574,3345 14312,3329 L 13860,3302 Z"/>
       <path fill="none" stroke="rgb(0,0,0)" stroke-width="35" stroke-linejoin="miter" d="M 7340,3323 L 7793,3295 C 8054,3279 8253,3059 8237,2804 8220,2548 7995,2354 7734,2369 L 6829,2424 C 6568,2440 6369,2660 6385,2916 6402,3171 6627,3366 6888,3350 L 7340,3323 Z"/>
       <path fill="none" stroke="rgb(0,0,0)" stroke-width="35" stroke-linejoin="miter" d="M 17089,2557 L 15991,2933 16864,3664 17089,2557 17089,2557 Z"/>
       <path fill="rgb(255,30,0)" stroke="none" d="M 16305,3006 L 17042,2756 17133,3146 16903,3457 16305,3006 16305,3006 Z"/>
       <path fill="none" stroke="rgb(0,0,0)" stroke-width="35" stroke-linejoin="miter" d="M 16305,3006 L 17042,2756 17133,3146 16903,3457 16305,3006 16305,3006 Z"/>
       <path fill="none" stroke="rgb(0,0,0)" stroke-width="35" stroke-linejoin="miter" d="M 4120,2591 L 5209,2966 4348,3698 4120,2591 Z"/>
       <path fill="rgb(255,30,0)" stroke="none" d="M 4895,3039 L 4158,2789 4067,3179 4297,3490 4895,3039 4895,3039 Z"/>
       <path fill="none" stroke="rgb(0,0,0)" stroke-width="35" stroke-linejoin="miter" d="M 4895,3039 L 4158,2789 4067,3179 4297,3490 4895,3039 4895,3039 Z"/>
       <path fill="rgb(245,245,245)" stroke="none" d="M 9294,1252 C 9220,1382 9128,1475 9000,1550 8872,1625 8747,1660 8599,1660 8452,1660 8326,1625 8198,1550 8070,1475 7978,1382 7905,1252 7831,1122 7797,994 7797,844 7797,694 7831,566 7905,436 7978,306 8070,212 8198,137 8326,62 8452,28 8599,28 8747,28 8872,62 9000,137 9128,212 9220,306 9294,436 9367,566 9401,694 9401,844 9401,994 9367,1122 9294,1252 Z"/>
       <path fill="none" stroke="rgb(0,0,0)" stroke-width="34" stroke-linejoin="miter" d="M 9401,844 L 9401,844 C 9401,994 9367,1122 9294,1252 9220,1382 9128,1475 9000,1550 8872,1625 8747,1660 8599,1660 8452,1660 8326,1625 8198,1550 8070,1475 7978,1382 7905,1252 7831,1122 7797,994 7797,844 L 7797,844 C 7797,694 7831,566 7905,436 7978,306 8070,212 8198,137 8326,62 8452,28 8599,28 8747,28 8872,62 9000,137 9128,212 9220,306 9294,436 9367,566 9401,694 9401,844 L 9401,844 9401,844 Z"/>
       <path fill="rgb(245,245,245)" stroke="none" d="M 13496,1272 C 13422,1402 13331,1495 13203,1570 13075,1645 12949,1680 12802,1680 12654,1680 12529,1645 12401,1570 12273,1495 12181,1402 12107,1272 12033,1142 12000,1014 12000,864 12000,714 12033,586 12107,456 12181,326 12273,232 12401,157 12529,82 12654,48 12802,48 12949,48 13075,82 13203,157 13331,232 13422,326 13496,456 13570,586 13604,714 13604,864 13604,1014 13570,1142 13496,1272 Z"/>
       <path fill="none" stroke="rgb(0,0,0)" stroke-width="34" stroke-linejoin="miter" d="M 13604,864 L 13604,864 C 13604,1014 13570,1142 13496,1272 13422,1402 13331,1495 13203,1570 13075,1645 12949,1680 12802,1680 12654,1680 12529,1645 12401,1570 12273,1495 12181,1402 12107,1272 12033,1142 12000,1014 12000,864 L 12000,864 C 12000,714 12033,586 12107,456 12181,326 12273,232 12401,157 12529,82 12654,48 12802,48 12949,48 13075,82 13203,157 13331,232 13422,326 13496,456 13570,586 13604,714 13604,864 L 13604,864 13604,864 Z"/>
       <path fill="rgb(245,245,245)" stroke="none" d="M 4997,1526 C 4923,1656 4831,1750 4703,1825 4576,1900 4450,1934 4302,1934 4155,1934 4029,1900 3901,1825 3774,1750 3682,1656 3608,1526 3534,1396 3501,1268 3501,1118 3501,968 3534,840 3608,710 3682,580 3774,487 3901,411 4029,336 4155,302 4302,302 4450,302 4576,336 4703,411 4831,487 4923,580 4997,710 5071,840 5104,968 5104,1118 5104,1268 5071,1396 4997,1526 Z"/>
       <path fill="none" stroke="rgb(0,0,0)" stroke-width="34" stroke-linejoin="miter" d="M 5104,1118 L 5104,1118 C 5104,1268 5071,1396 4997,1526 4923,1656 4831,1750 4703,1825 4576,1900 4450,1934 4302,1934 4155,1934 4029,1900 3901,1825 3774,1750 3682,1656 3608,1526 3534,1396 3501,1268 3501,1118 L 3501,1118 C 3501,968 3534,840 3608,710 3682,580 3774,487 3901,411 4029,336 4155,302 4302,302 4450,302 4576,336 4703,411 4831,487 4923,580 4997,710 5071,840 5104,968 5104,1118 L 5104,1118 5104,1118 Z"/>
       <path fill="rgb(245,245,245)" stroke="none" d="M 17592,1548 C 17518,1678 17427,1772 17299,1847 17171,1922 17045,1956 16898,1956 16750,1956 16625,1922 16497,1847 16369,1772 16277,1678 16203,1548 16129,1418 16096,1291 16096,1140 16096,990 16129,862 16203,732 16277,602 16369,509 16497,434 16625,359 16750,324 16898,324 17045,324 17171,359 17299,434 17427,509 17518,602 17592,732 17666,862 17700,990 17700,1140 17700,1291 17666,1418 17592,1548 Z"/>
       <path fill="none" stroke="rgb(0,0,0)" stroke-width="34" stroke-linejoin="miter" d="M 17700,1140 L 17700,1140 C 17700,1291 17666,1418 17592,1548 17518,1678 17427,1772 17299,1847 17171,1922 17045,1956 16898,1956 16750,1956 16625,1922 16497,1847 16369,1772 16277,1678 16203,1548 16129,1418 16096,1291 16096,1140 L 16096,1140 C 16096,990 16129,862 16203,732 16277,602 16369,509 16497,434 16625,359 16750,324 16898,324 17045,324 17171,359 17299,434 17427,509 17518,602 17592,732 17666,862 17700,990 17700,1140 L 17700,1140 17700,1140 Z"/>
       <path fill="rgb(245,245,245)" stroke="none" d="M 5223,1979 C 5193,2031 5155,2068 5103,2098 5051,2128 5000,2142 4940,2142 4879,2142 4828,2128 4776,2098 4724,2068 4686,2031 4656,1979 4626,1927 4612,1876 4612,1816 4612,1756 4626,1705 4656,1653 4686,1601 4724,1564 4776,1534 4828,1504 4879,1490 4940,1490 5000,1490 5051,1504 5103,1534 5155,1564 5193,1601 5223,1653 5253,1705 5267,1756 5267,1816 5267,1876 5253,1927 5223,1979 Z"/>
       <path fill="none" stroke="rgb(0,0,0)" stroke-width="36" stroke-linejoin="round" stroke-linecap="round" d="M 5267,1816 L 5267,1816 C 5267,1876 5253,1927 5223,1979 5193,2031 5155,2068 5103,2098 5051,2128 5000,2142 4940,2142 4879,2142 4828,2128 4776,2098 4724,2068 4686,2031 4656,1979 4626,1927 4612,1876 4612,1816 L 4612,1816 C 4612,1756 4626,1705 4656,1653 4686,1601 4724,1564 4776,1534 4828,1504 4879,1490 4940,1490 5000,1490 5051,1504 5103,1534 5155,1564 5193,1601 5223,1653 5253,1705 5267,1756 5267,1816 L 5267,1816 5267,1816 Z"/>
       <path fill="rgb(245,245,245)" stroke="none" d="M 5712,2163 C 5682,2215 5645,2253 5593,2283 5540,2313 5489,2326 5429,2326 5369,2326 5318,2313 5265,2283 5213,2253 5176,2215 5146,2163 5116,2111 5102,2060 5102,2001 5102,1941 5116,1890 5146,1838 5176,1786 5213,1748 5265,1718 5318,1688 5369,1675 5429,1675 5489,1675 5540,1688 5593,1718 5645,1748 5682,1786 5712,1838 5742,1890 5756,1941 5756,2001 5756,2060 5742,2111 5712,2163 Z"/>
       <path fill="none" stroke="rgb(0,0,0)" stroke-width="36" stroke-linejoin="round" stroke-linecap="round" d="M 5756,2001 L 5756,2001 C 5756,2060 5742,2111 5712,2163 5682,2215 5645,2253 5593,2283 5540,2313 5489,2326 5429,2326 5369,2326 5318,2313 5265,2283 5213,2253 5176,2215 5146,2163 5116,2111 5102,2060 5102,2001 L 5102,2001 C 5102,1941 5116,1890 5146,1838 5176,1786 5213,1748 5265,1718 5318,1688 5369,1675 5429,1675 5489,1675 5540,1688 5593,1718 5645,1748 5682,1786 5712,1838 5742,1890 5756,1941 5756,2001 L 5756,2001 5756,2001 Z"/>
       <path fill="rgb(245,245,245)" stroke="none" d="M 6121,2504 C 6091,2556 6053,2593 6001,2623 5949,2653 5898,2667 5837,2667 5777,2667 5726,2653 5674,2623 5622,2593 5584,2556 5554,2504 5524,2452 5510,2401 5510,2341 5510,2281 5524,2230 5554,2178 5584,2126 5622,2089 5674,2059 5726,2029 5777,2015 5837,2015 5898,2015 5949,2029 6001,2059 6053,2089 6091,2126 6121,2178 6151,2230 6164,2281 6164,2341 6164,2401 6151,2452 6121,2504 Z"/>
       <path fill="none" stroke="rgb(0,0,0)" stroke-width="36" stroke-linejoin="round" stroke-linecap="round" d="M 6164,2341 L 6164,2341 C 6164,2401 6151,2452 6121,2504 6091,2556 6053,2593 6001,2623 5949,2653 5898,2667 5837,2667 5777,2667 5726,2653 5674,2623 5622,2593 5584,2556 5554,2504 5524,2452 5510,2401 5510,2341 L 5510,2341 C 5510,2281 5524,2230 5554,2178 5584,2126 5622,2089 5674,2059 5726,2029 5777,2015 5837,2015 5898,2015 5949,2029 6001,2059 6053,2089 6091,2126 6121,2178 6151,2230 6164,2281 6164,2341 L 6164,2341 6164,2341 Z"/>
       <path fill="rgb(0,185,20)" stroke="none" d="M 7330,3165 L 7730,3139 C 7916,3127 8057,2981 8047,2813 8036,2644 7877,2517 7691,2529 L 6892,2580 C 6706,2592 6565,2738 6575,2907 6586,3075 6745,3202 6931,3190 L 7330,3165 Z"/>
       <path fill="none" stroke="rgb(0,0,0)" stroke-width="35" stroke-linejoin="round" stroke-linecap="round" d="M 7330,3165 L 7730,3139 C 7916,3127 8057,2981 8047,2813 8036,2644 7877,2517 7691,2529 L 6892,2580 C 6706,2592 6565,2738 6575,2907 6586,3075 6745,3202 6931,3190 L 7330,3165 Z"/>
       <path fill="rgb(245,245,245)" stroke="none" d="M 6533,2941 C 6503,2993 6466,3030 6414,3060 6362,3090 6310,3104 6250,3104 6190,3104 6139,3090 6087,3060 6034,3030 5997,2993 5967,2941 5937,2889 5923,2838 5923,2778 5923,2718 5937,2667 5967,2615 5997,2563 6034,2526 6087,2496 6139,2466 6190,2452 6250,2452 6310,2452 6362,2466 6414,2496 6466,2526 6503,2563 6533,2615 6564,2667 6577,2718 6577,2778 6577,2838 6564,2889 6533,2941 Z"/>
       <path fill="none" stroke="rgb(0,0,0)" stroke-width="36" stroke-linejoin="round" stroke-linecap="round" d="M 6577,2778 L 6577,2778 C 6577,2838 6564,2889 6533,2941 6503,2993 6466,3030 6414,3060 6362,3090 6310,3104 6250,3104 6190,3104 6139,3090 6087,3060 6034,3030 5997,2993 5967,2941 5937,2889 5923,2838 5923,2778 L 5923,2778 C 5923,2718 5937,2667 5967,2615 5997,2563 6034,2526 6087,2496 6139,2466 6190,2452 6250,2452 6310,2452 6362,2466 6414,2496 6466,2526 6503,2563 6533,2615 6564,2667 6577,2718 6577,2778 L 6577,2778 6577,2778 Z"/>
       <path fill="rgb(245,245,245)" stroke="none" d="M 6793,3356 C 6763,3407 6726,3445 6674,3475 6622,3505 6570,3518 6510,3518 6450,3518 6399,3505 6347,3475 6294,3445 6257,3407 6227,3356 6197,3304 6183,3253 6183,3193 6183,3133 6197,3082 6227,3030 6257,2978 6294,2941 6347,2911 6399,2881 6450,2867 6510,2867 6570,2867 6622,2881 6674,2911 6726,2941 6763,2978 6793,3030 6824,3082 6837,3133 6837,3193 6837,3253 6824,3304 6793,3356 Z"/>
       <path fill="none" stroke="rgb(0,0,0)" stroke-width="36" stroke-linejoin="round" stroke-linecap="round" d="M 6837,3193 L 6837,3193 C 6837,3253 6824,3304 6793,3356 6763,3407 6726,3445 6674,3475 6622,3505 6570,3518 6510,3518 6450,3518 6399,3505 6347,3475 6294,3445 6257,3407 6227,3356 6197,3304 6183,3253 6183,3193 L 6183,3193 C 6183,3133 6197,3082 6227,3030 6257,2978 6294,2941 6347,2911 6399,2881 6450,2867 6510,2867 6570,2867 6622,2881 6674,2911 6726,2941 6763,2978 6793,3030 6824,3082 6837,3133 6837,3193 L 6837,3193 6837,3193 Z"/>
       <path fill="rgb(245,245,245)" stroke="none" d="M 6942,3925 C 6912,3976 6875,4014 6823,4044 6770,4074 6719,4087 6659,4087 6599,4087 6548,4074 6496,4044 6443,4014 6406,3976 6376,3925 6346,3873 6332,3822 6332,3762 6332,3702 6346,3651 6376,3599 6406,3547 6443,3509 6496,3479 6548,3450 6599,3436 6659,3436 6719,3436 6770,3450 6823,3479 6875,3509 6912,3547 6942,3599 6972,3651 6986,3702 6986,3762 6986,3822 6972,3873 6942,3925 Z"/>
       <path fill="none" stroke="rgb(0,0,0)" stroke-width="36" stroke-linejoin="round" stroke-linecap="round" d="M 6986,3762 L 6986,3762 C 6986,3822 6972,3873 6942,3925 6912,3976 6875,4014 6823,4044 6770,4074 6719,4087 6659,4087 6599,4087 6548,4074 6496,4044 6443,4014 6406,3976 6376,3925 6346,3873 6332,3822 6332,3762 L 6332,3762 C 6332,3702 6346,3651 6376,3599 6406,3547 6443,3509 6496,3479 6548,3450 6599,3436 6659,3436 6719,3436 6770,3450 6823,3479 6875,3509 6912,3547 6942,3599 6972,3651 6986,3702 6986,3762 L 6986,3762 6986,3762 Z"/>
       <path fill="rgb(245,245,245)" stroke="none" d="M 9420,1624 C 9390,1676 9352,1714 9300,1744 9248,1774 9197,1787 9136,1787 9076,1787 9025,1774 8973,1744 8921,1714 8883,1676 8853,1624 8823,1572 8809,1521 8809,1462 8809,1402 8823,1351 8853,1299 8883,1247 8921,1209 8973,1179 9025,1149 9076,1136 9136,1136 9197,1136 9248,1149 9300,1179 9352,1209 9390,1247 9420,1299 9450,1351 9464,1402 9464,1462 9464,1521 9450,1572 9420,1624 Z"/>
       <path fill="none" stroke="rgb(0,0,0)" stroke-width="36" stroke-linejoin="round" stroke-linecap="round" d="M 9464,1462 L 9464,1462 C 9464,1521 9450,1572 9420,1624 9390,1676 9352,1714 9300,1744 9248,1774 9197,1787 9136,1787 9076,1787 9025,1774 8973,1744 8921,1714 8883,1676 8853,1624 8823,1572 8809,1521 8809,1462 L 8809,1462 C 8809,1402 8823,1351 8853,1299 8883,1247 8921,1209 8973,1179 9025,1149 9076,1136 9136,1136 9197,1136 9248,1149 9300,1179 9352,1209 9390,1247 9420,1299 9450,1351 9464,1402 9464,1462 L 9464,1462 9464,1462 Z"/>
       <path fill="rgb(245,245,245)" stroke="none" d="M 9849,1838 C 9819,1890 9782,1928 9729,1958 9677,1988 9626,2001 9566,2001 9506,2001 9454,1988 9402,1958 9350,1928 9313,1890 9283,1838 9252,1786 9239,1735 9239,1675 9239,1615 9252,1564 9283,1513 9313,1461 9350,1423 9402,1393 9454,1363 9506,1350 9566,1350 9626,1350 9677,1363 9729,1393 9782,1423 9819,1461 9849,1513 9879,1564 9893,1615 9893,1675 9893,1735 9879,1786 9849,1838 Z"/>
       <path fill="none" stroke="rgb(0,0,0)" stroke-width="36" stroke-linejoin="round" stroke-linecap="round" d="M 9893,1675 L 9893,1675 C 9893,1735 9879,1786 9849,1838 9819,1890 9782,1928 9729,1958 9677,1988 9626,2001 9566,2001 9506,2001 9454,1988 9402,1958 9350,1928 9313,1890 9283,1838 9252,1786 9239,1735 9239,1675 L 9239,1675 C 9239,1615 9252,1564 9283,1513 9313,1461 9350,1423 9402,1393 9454,1363 9506,1350 9566,1350 9626,1350 9677,1363 9729,1393 9782,1423 9819,1461 9849,1513 9879,1564 9893,1615 9893,1675 L 9893,1675 9893,1675 Z"/>
       <path fill="rgb(245,245,245)" stroke="none" d="M 10204,2267 C 10174,2319 10137,2356 10084,2386 10032,2416 9981,2430 9921,2430 9861,2430 9809,2416 9757,2386 9705,2356 9668,2319 9638,2267 9607,2215 9594,2164 9594,2104 9594,2044 9607,1993 9638,1941 9668,1889 9705,1852 9757,1822 9809,1792 9861,1778 9921,1778 9981,1778 10032,1792 10084,1822 10137,1852 10174,1889 10204,1941 10234,1993 10248,2044 10248,2104 10248,2164 10234,2215 10204,2267 Z"/>
       <path fill="none" stroke="rgb(0,0,0)" stroke-width="36" stroke-linejoin="round" stroke-linecap="round" d="M 10248,2104 L 10248,2104 C 10248,2164 10234,2215 10204,2267 10174,2319 10137,2356 10084,2386 10032,2416 9981,2430 9921,2430 9861,2430 9809,2416 9757,2386 9705,2356 9668,2319 9638,2267 9607,2215 9594,2164 9594,2104 L 9594,2104 C 9594,2044 9607,1993 9638,1941 9668,1889 9705,1852 9757,1822 9809,1792 9861,1778 9921,1778 9981,1778 10032,1792 10084,1822 10137,1852 10174,1889 10204,1941 10234,1993 10248,2044 10248,2104 L 10248,2104 10248,2104 Z"/>
       <path fill="rgb(245,245,245)" stroke="none" d="M 10463,2758 C 10433,2809 10396,2847 10343,2877 10291,2907 10240,2920 10180,2920 10120,2920 10068,2907 10016,2877 9964,2847 9927,2809 9897,2758 9866,2706 9853,2655 9853,2595 9853,2535 9866,2484 9897,2432 9927,2380 9964,2342 10016,2312 10068,2283 10120,2269 10180,2269 10240,2269 10291,2283 10343,2312 10396,2342 10433,2380 10463,2432 10493,2484 10507,2535 10507,2595 10507,2655 10493,2706 10463,2758 Z"/>
       <path fill="none" stroke="rgb(0,0,0)" stroke-width="36" stroke-linejoin="round" stroke-linecap="round" d="M 10507,2595 L 10507,2595 C 10507,2655 10493,2706 10463,2758 10433,2809 10396,2847 10343,2877 10291,2907 10240,2920 10180,2920 10120,2920 10068,2907 10016,2877 9964,2847 9927,2809 9897,2758 9866,2706 9853,2655 9853,2595 L 9853,2595 C 9853,2535 9866,2484 9897,2432 9927,2380 9964,2342 10016,2312 10068,2283 10120,2269 10180,2269 10240,2269 10291,2283 10343,2312 10396,2342 10433,2380 10463,2432 10493,2484 10507,2535 10507,2595 L 10507,2595 10507,2595 Z"/>
       <path fill="rgb(245,245,245)" stroke="none" d="M 10616,3263 C 10586,3315 10548,3352 10496,3382 10444,3412 10393,3426 10333,3426 10272,3426 10221,3412 10169,3382 10117,3352 10079,3315 10049,3263 10019,3211 10006,3160 10006,3100 10006,3040 10019,2989 10049,2937 10079,2885 10117,2848 10169,2818 10221,2788 10272,2774 10333,2774 10393,2774 10444,2788 10496,2818 10548,2848 10586,2885 10616,2937 10646,2989 10660,3040 10660,3100 10660,3160 10646,3211 10616,3263 Z"/>
       <path fill="none" stroke="rgb(0,0,0)" stroke-width="36" stroke-linejoin="round" stroke-linecap="round" d="M 10660,3100 L 10660,3100 C 10660,3160 10646,3211 10616,3263 10586,3315 10548,3352 10496,3382 10444,3412 10393,3426 10333,3426 10272,3426 10221,3412 10169,3382 10117,3352 10079,3315 10049,3263 10019,3211 10006,3160 10006,3100 L 10006,3100 C 10006,3040 10019,2989 10049,2937 10079,2885 10117,2848 10169,2818 10221,2788 10272,2774 10333,2774 10393,2774 10444,2788 10496,2818 10548,2848 10586,2885 10616,2937 10646,2989 10660,3040 10660,3100 L 10660,3100 10660,3100 Z"/>
       <path fill="rgb(245,245,245)" stroke="none" d="M 10734,3836 C 10704,3888 10667,3925 10615,3955 10562,3985 10511,3999 10451,3999 10391,3999 10340,3985 10287,3955 10235,3925 10198,3888 10168,3836 10138,3784 10124,3733 10124,3673 10124,3613 10138,3562 10168,3510 10198,3458 10235,3421 10287,3391 10340,3361 10391,3347 10451,3347 10511,3347 10562,3361 10615,3391 10667,3421 10704,3458 10734,3510 10764,3562 10778,3613 10778,3673 10778,3733 10764,3784 10734,3836 Z"/>
       <path fill="none" stroke="rgb(0,0,0)" stroke-width="36" stroke-linejoin="round" stroke-linecap="round" d="M 10778,3673 L 10778,3673 C 10778,3733 10764,3784 10734,3836 10704,3888 10667,3925 10615,3955 10562,3985 10511,3999 10451,3999 10391,3999 10340,3985 10287,3955 10235,3925 10198,3888 10168,3836 10138,3784 10124,3733 10124,3673 L 10124,3673 C 10124,3613 10138,3562 10168,3510 10198,3458 10235,3421 10287,3391 10340,3361 10391,3347 10451,3347 10511,3347 10562,3361 10615,3391 10667,3421 10704,3458 10734,3510 10764,3562 10778,3613 10778,3673 L 10778,3673 10778,3673 Z"/>
       <path fill="rgb(0,185,20)" stroke="none" d="M 13882,3144 L 13482,3118 C 13297,3106 13155,2960 13166,2792 13177,2623 13336,2496 13521,2508 L 14321,2559 C 14506,2571 14648,2717 14637,2886 14626,3054 14467,3181 14282,3169 L 13882,3144 Z"/>
       <path fill="none" stroke="rgb(0,0,0)" stroke-width="35" stroke-linejoin="round" stroke-linecap="round" d="M 13882,3144 L 13482,3118 C 13297,3106 13155,2960 13166,2792 13177,2623 13336,2496 13521,2508 L 14321,2559 C 14506,2571 14648,2717 14637,2886 14626,3054 14467,3181 14282,3169 L 13882,3144 Z"/>
       <path fill="rgb(245,245,245)" stroke="none" d="M 13650,1703 C 13620,1755 13583,1792 13531,1822 13479,1852 13427,1866 13367,1866 13307,1866 13256,1852 13204,1822 13151,1792 13114,1755 13084,1703 13054,1651 13040,1600 13040,1540 13040,1480 13054,1429 13084,1377 13114,1325 13151,1288 13204,1258 13256,1228 13307,1214 13367,1214 13427,1214 13479,1228 13531,1258 13583,1288 13620,1325 13650,1377 13681,1429 13694,1480 13694,1540 13694,1600 13681,1651 13650,1703 Z"/>
       <path fill="none" stroke="rgb(0,0,0)" stroke-width="36" stroke-linejoin="round" stroke-linecap="round" d="M 13694,1540 L 13694,1540 C 13694,1600 13681,1651 13650,1703 13620,1755 13583,1792 13531,1822 13479,1852 13427,1866 13367,1866 13307,1866 13256,1852 13204,1822 13151,1792 13114,1755 13084,1703 13054,1651 13040,1600 13040,1540 L 13040,1540 C 13040,1480 13054,1429 13084,1377 13114,1325 13151,1288 13204,1258 13256,1228 13307,1214 13367,1214 13427,1214 13479,1228 13531,1258 13583,1288 13620,1325 13650,1377 13681,1429 13694,1480 13694,1540 L 13694,1540 13694,1540 Z"/>
       <path fill="rgb(245,245,245)" stroke="none" d="M 14055,1941 C 14025,1993 13987,2031 13935,2061 13883,2091 13832,2104 13772,2104 13712,2104 13660,2091 13608,2061 13556,2031 13519,1993 13488,1941 13458,1890 13445,1839 13445,1779 13445,1719 13458,1668 13488,1616 13519,1564 13556,1526 13608,1496 13660,1466 13712,1453 13772,1453 13832,1453 13883,1466 13935,1496 13987,1526 14025,1564 14055,1616 14085,1668 14099,1719 14099,1779 14099,1839 14085,1890 14055,1941 Z"/>
       <path fill="none" stroke="rgb(0,0,0)" stroke-width="36" stroke-linejoin="round" stroke-linecap="round" d="M 14099,1779 L 14099,1779 C 14099,1839 14085,1890 14055,1941 14025,1993 13987,2031 13935,2061 13883,2091 13832,2104 13772,2104 13712,2104 13660,2091 13608,2061 13556,2031 13519,1993 13488,1941 13458,1890 13445,1839 13445,1779 L 13445,1779 C 13445,1719 13458,1668 13488,1616 13519,1564 13556,1526 13608,1496 13660,1466 13712,1453 13772,1453 13832,1453 13883,1466 13935,1496 13987,1526 14025,1564 14055,1616 14085,1668 14099,1719 14099,1779 L 14099,1779 14099,1779 Z"/>
       <path fill="rgb(245,245,245)" stroke="none" d="M 14423,2402 C 14393,2454 14356,2491 14304,2521 14251,2551 14200,2565 14140,2565 14080,2565 14029,2551 13976,2521 13924,2491 13887,2454 13857,2402 13827,2350 13813,2299 13813,2239 13813,2179 13827,2128 13857,2076 13887,2024 13924,1987 13976,1957 14029,1927 14080,1913 14140,1913 14200,1913 14251,1927 14304,1957 14356,1987 14393,2024 14423,2076 14453,2128 14467,2179 14467,2239 14467,2299 14453,2350 14423,2402 Z"/>
       <path fill="none" stroke="rgb(0,0,0)" stroke-width="36" stroke-linejoin="round" stroke-linecap="round" d="M 14467,2239 L 14467,2239 C 14467,2299 14453,2350 14423,2402 14393,2454 14356,2491 14304,2521 14251,2551 14200,2565 14140,2565 14080,2565 14029,2551 13976,2521 13924,2491 13887,2454 13857,2402 13827,2350 13813,2299 13813,2239 L 13813,2239 C 13813,2179 13827,2128 13857,2076 13887,2024 13924,1987 13976,1957 14029,1927 14080,1913 14140,1913 14200,1913 14251,1927 14304,1957 14356,1987 14393,2024 14423,2076 14453,2128 14467,2179 14467,2239 L 14467,2239 14467,2239 Z"/>
       <path fill="rgb(245,245,245)" stroke="none" d="M 14641,2963 C 14611,3015 14574,3052 14522,3082 14469,3112 14418,3126 14358,3126 14298,3126 14247,3112 14194,3082 14142,3052 14105,3015 14075,2963 14045,2911 14031,2860 14031,2800 14031,2740 14045,2689 14075,2637 14105,2585 14142,2548 14194,2518 14247,2488 14298,2474 14358,2474 14418,2474 14469,2488 14522,2518 14574,2548 14611,2585 14641,2637 14671,2689 14685,2740 14685,2800 14685,2860 14671,2911 14641,2963 Z"/>
       <path fill="none" stroke="rgb(0,0,0)" stroke-width="36" stroke-linejoin="round" stroke-linecap="round" d="M 14685,2800 L 14685,2800 C 14685,2860 14671,2911 14641,2963 14611,3015 14574,3052 14522,3082 14469,3112 14418,3126 14358,3126 14298,3126 14247,3112 14194,3082 14142,3052 14105,3015 14075,2963 14045,2911 14031,2860 14031,2800 L 14031,2800 C 14031,2740 14045,2689 14075,2637 14105,2585 14142,2548 14194,2518 14247,2488 14298,2474 14358,2474 14418,2474 14469,2488 14522,2518 14574,2548 14611,2585 14641,2637 14671,2689 14685,2740 14685,2800 L 14685,2800 14685,2800 Z"/>
       <path fill="rgb(245,245,245)" stroke="none" d="M 14800,3479 C 14769,3531 14732,3568 14680,3598 14628,3628 14576,3642 14516,3642 14456,3642 14405,3628 14353,3598 14300,3568 14263,3531 14233,3479 14203,3427 14189,3376 14189,3316 14189,3256 14203,3205 14233,3153 14263,3101 14300,3064 14353,3034 14405,3004 14456,2990 14516,2990 14576,2990 14628,3004 14680,3034 14732,3064 14769,3101 14800,3153 14830,3205 14843,3256 14843,3316 14843,3376 14830,3427 14800,3479 Z"/>
       <path fill="none" stroke="rgb(0,0,0)" stroke-width="36" stroke-linejoin="round" stroke-linecap="round" d="M 14843,3316 L 14843,3316 C 14843,3376 14830,3427 14800,3479 14769,3531 14732,3568 14680,3598 14628,3628 14576,3642 14516,3642 14456,3642 14405,3628 14353,3598 14300,3568 14263,3531 14233,3479 14203,3427 14189,3376 14189,3316 L 14189,3316 C 14189,3256 14203,3205 14233,3153 14263,3101 14300,3064 14353,3034 14405,3004 14456,2990 14516,2990 14576,2990 14628,3004 14680,3034 14732,3064 14769,3101 14800,3153 14830,3205 14843,3256 14843,3316 L 14843,3316 14843,3316 Z"/>
       <path fill="rgb(245,245,245)" stroke="none" d="M 14848,3955 C 14818,4007 14780,4044 14728,4074 14676,4104 14625,4118 14565,4118 14504,4118 14453,4104 14401,4074 14349,4044 14311,4007 14281,3955 14251,3903 14237,3852 14237,3792 14237,3732 14251,3681 14281,3629 14311,3577 14349,3540 14401,3510 14453,3480 14504,3466 14565,3466 14625,3466 14676,3480 14728,3510 14780,3540 14818,3577 14848,3629 14878,3681 14892,3732 14892,3792 14892,3852 14878,3903 14848,3955 Z"/>
       <path fill="none" stroke="rgb(0,0,0)" stroke-width="36" stroke-linejoin="round" stroke-linecap="round" d="M 14892,3792 L 14892,3792 C 14892,3852 14878,3903 14848,3955 14818,4007 14780,4044 14728,4074 14676,4104 14625,4118 14565,4118 14504,4118 14453,4104 14401,4074 14349,4044 14311,4007 14281,3955 14251,3903 14237,3852 14237,3792 L 14237,3792 C 14237,3732 14251,3681 14281,3629 14311,3577 14349,3540 14401,3510 14453,3480 14504,3466 14565,3466 14625,3466 14676,3480 14728,3510 14780,3540 14818,3577 14848,3629 14878,3681 14892,3732 14892,3792 L 14892,3792 14892,3792 Z"/>
      </g>
     </g>
     <g class="com.sun.star.drawing.ClosedBezierShape">
      <g id="id6">
       <path fill="rgb(0,0,0)" stroke="none" d="M 8647,19062 C 7653,19110 6863,19866 6863,20793 6863,21530 7368,22162 8071,22411 8071,22400 8069,22389 8069,22377 8069,22222 8207,22097 8377,22097 8546,22097 8681,22222 8681,22377 8683,22417 8665,22451 8656,22488 8401,23031 7427,23606 7877,23926 10582,26696 10734,26772 10694,26696 11145,26376 10807,26486 13511,23926 13849,23606 13065,22678 12748,22522 12720,22480 12708,22432 12708,22377 12708,22222 12843,22097 13012,22097 13182,22097 13317,22222 13317,22377 13317,22389 13317,22400 13314,22411 14021,22162 14525,21530 14525,20793 14525,19866 13735,19110 12742,19062 12711,19062 12677,19062 12644,19062 11607,19062 10830,19836 10830,20793 10830,20904 10808,21012 10830,21117 11107,21182 11285,21433 11281,21686 11276,21938 11199,22088 11014,22213 10910,22210 10805,22208 10694,22208 10586,22208 10479,22208 10374,22213 10209,22097 10116,21938 10107,21686 10098,21437 10282,21182 10559,21117 10581,21012 10559,20904 10559,20793 10559,19836 9778,19062 8742,19062 8711,19062 8677,19062 8647,19062 Z"/>
       <path fill="none" stroke="rgb(0,0,0)" stroke-width="49" stroke-linejoin="miter" d="M 8647,19062 C 7653,19110 6863,19866 6863,20793 6863,21530 7368,22162 8071,22411 8071,22400 8069,22389 8069,22377 8069,22222 8207,22097 8377,22097 8546,22097 8681,22222 8681,22377 8683,22417 8665,22451 8656,22488 8401,23031 7427,23606 7877,23926 10582,26696 10734,26772 10694,26696 11145,26376 10807,26486 13511,23926 13849,23606 13065,22678 12748,22522 12720,22480 12708,22432 12708,22377 12708,22222 12843,22097 13012,22097 13182,22097 13317,22222 13317,22377 13317,22389 13317,22400 13314,22411 14021,22162 14525,21530 14525,20793 14525,19866 13735,19110 12742,19062 12711,19062 12677,19062 12644,19062 11607,19062 10830,19836 10830,20793 10830,20904 10808,21012 10830,21117 11107,21182 11285,21433 11281,21686 11276,21938 11199,22088 11014,22213 10910,22210 10805,22208 10694,22208 10586,22208 10479,22208 10374,22213 10209,22097 10116,21938 10107,21686 10098,21437 10282,21182 10559,21117 10581,21012 10559,20904 10559,20793 10559,19836 9778,19062 8742,19062 8711,19062 8677,19062 8647,19062 Z"/>
      </g>
     </g>
     <g class="com.sun.star.drawing.PolyPolygonShape">
      <g id="id7">
       <path fill="rgb(255,220,20)" stroke="none" d="M 6542,15192 L 14858,15192 14858,19274 6542,19274 6542,15192 Z"/>
       <path fill="none" stroke="rgb(0,0,0)" stroke-width="49" stroke-linejoin="miter" d="M 6542,15192 L 14858,15192 14858,19274 6542,19274 6542,15192 Z"/>
      </g>
     </g>
     <g class="com.sun.star.drawing.LineShape">
      <g id="id8">
       <path fill="none" stroke="rgb(0,0,0)" stroke-width="49" stroke-linejoin="miter" d="M 6545,17619 L 14852,17619"/>
      </g>
     </g>
     <g class="com.sun.star.drawing.LineShape">
      <g id="id9">
       <path fill="none" stroke="rgb(0,0,0)" stroke-width="49" stroke-linejoin="miter" d="M 6555,15991 L 14843,15991"/>
      </g>
     </g>
     <g class="com.sun.star.drawing.LineShape">
      <g id="id10">
       <path fill="none" stroke="rgb(0,0,0)" stroke-width="49" stroke-linejoin="miter" d="M 6545,16795 L 14852,16795"/>
      </g>
     </g>
     <g class="com.sun.star.drawing.LineShape">
      <g id="id11">
       <path fill="none" stroke="rgb(0,0,0)" stroke-width="49" stroke-linejoin="miter" d="M 6545,18443 L 14852,18443"/>
      </g>
     </g>
     <g class="com.sun.star.drawing.LineShape">
      <g id="id12">
       <path fill="none" stroke="rgb(0,0,0)" stroke-width="49" stroke-linejoin="miter" d="M 7077,15234 L 7077,15974"/>
      </g>
     </g>
     <g class="com.sun.star.drawing.LineShape">
      <g id="id13">
       <path fill="none" stroke="rgb(0,0,0)" stroke-width="49" stroke-linejoin="miter" d="M 8519,15234 L 8519,15974"/>
      </g>
     </g>
     <g class="com.sun.star.drawing.LineShape">
      <g id="id14">
       <path fill="none" stroke="rgb(0,0,0)" stroke-width="49" stroke-linejoin="miter" d="M 9961,15234 L 9961,15974"/>
      </g>
     </g>
     <g class="com.sun.star.drawing.LineShape">
      <g id="id15">
       <path fill="none" stroke="rgb(0,0,0)" stroke-width="49" stroke-linejoin="miter" d="M 11403,15234 L 11403,15974"/>
      </g>
     </g>
     <g class="com.sun.star.drawing.LineShape">
      <g id="id16">
       <path fill="none" stroke="rgb(0,0,0)" stroke-width="49" stroke-linejoin="miter" d="M 12845,15234 L 12845,15974"/>
      </g>
     </g>
     <g class="com.sun.star.drawing.LineShape">
      <g id="id17">
       <path fill="none" stroke="rgb(0,0,0)" stroke-width="49" stroke-linejoin="miter" d="M 14286,15234 L 14286,15974"/>
      </g>
     </g>
     <g class="com.sun.star.drawing.LineShape">
      <g id="id18">
       <path fill="none" stroke="rgb(0,0,0)" stroke-width="48" stroke-linejoin="miter" d="M 7798,16002 L 7798,16785"/>
      </g>
     </g>
     <g class="com.sun.star.drawing.LineShape">
      <g id="id19">
       <path fill="none" stroke="rgb(0,0,0)" stroke-width="48" stroke-linejoin="miter" d="M 9240,16002 L 9240,16785"/>
      </g>
     </g>
     <g class="com.sun.star.drawing.LineShape">
      <g id="id20">
       <path fill="none" stroke="rgb(0,0,0)" stroke-width="48" stroke-linejoin="miter" d="M 10699,16002 L 10699,16785"/>
      </g>
     </g>
     <g class="com.sun.star.drawing.LineShape">
      <g id="id21">
       <path fill="none" stroke="rgb(0,0,0)" stroke-width="48" stroke-linejoin="miter" d="M 12124,16002 L 12124,16785"/>
      </g>
     </g>
     <g class="com.sun.star.drawing.LineShape">
      <g id="id22">
       <path fill="none" stroke="rgb(0,0,0)" stroke-width="48" stroke-linejoin="miter" d="M 13566,16002 L 13566,16785"/>
      </g>
     </g>
     <g class="com.sun.star.drawing.ClosedBezierShape">
      <g id="id23">
       <path fill="rgb(255,220,20)" stroke="none" d="M 10695,16259 C 9839,16259 9161,16710 9161,17489 9156,17841 9161,19266 9161,19266 10185,19266 11208,19266 12232,19266 12232,19266 12237,17841 12232,17489 12232,16710 11552,16259 10695,16259 Z"/>
       <path fill="none" stroke="rgb(0,0,0)" stroke-width="49" stroke-linejoin="miter" d="M 10695,16259 C 9839,16259 9161,16710 9161,17489 9156,17841 9161,19266 9161,19266 10185,19266 11208,19266 12232,19266 12232,19266 12237,17841 12232,17489 12232,16710 11552,16259 10695,16259 Z"/>
      </g>
     </g>
     <g class="com.sun.star.drawing.LineShape">
      <g id="id24">
       <path fill="none" stroke="rgb(0,0,0)" stroke-width="49" stroke-linejoin="miter" d="M 9169,18300 L 12229,18300"/>
      </g>
     </g>
     <g class="com.sun.star.drawing.LineShape">
      <g id="id25">
       <path fill="none" stroke="rgb(0,0,0)" stroke-width="49" stroke-linejoin="miter" d="M 9999,16380 L 10605,17399"/>
      </g>
     </g>
     <g class="com.sun.star.drawing.LineShape">
      <g id="id26">
       <path fill="none" stroke="rgb(0,0,0)" stroke-width="49" stroke-linejoin="miter" d="M 11400,16380 L 10794,17399"/>
      </g>
     </g>
     <g class="com.sun.star.drawing.PolyPolygonShape">
      <g id="id27">
       <path fill="rgb(255,220,20)" stroke="none" d="M 6536,14717 L 6301,14966 6536,15213 14861,15213 15097,14966 14861,14717 6536,14717 Z"/>
       <path fill="none" stroke="rgb(0,0,0)" stroke-width="49" stroke-linejoin="miter" d="M 6536,14717 L 6301,14966 6536,15213 14861,15213 15097,14966 14861,14717 6536,14717 Z"/>
      </g>
     </g>
     <g class="com.sun.star.drawing.LineShape">
      <g id="id28">
       <path fill="none" stroke="rgb(0,0,0)" stroke-width="68" stroke-linejoin="miter" d="M 6327,14969 L 15055,14963"/>
      </g>
     </g>
     <g class="com.sun.star.drawing.ClosedBezierShape">
      <g id="id29">
       <path fill="rgb(255,30,0)" stroke="none" d="M 10701,16818 C 10218,16818 9724,17072 9724,17737 L 9724,19289 11676,19289 11676,17737 C 11676,17072 11183,16818 10701,16818 Z"/>
       <path fill="none" stroke="rgb(0,0,0)" stroke-width="49" stroke-linejoin="miter" d="M 10701,16818 C 10218,16818 9724,17072 9724,17737 L 9724,19289 11676,19289 11676,17737 C 11676,17072 11183,16818 10701,16818 Z"/>
      </g>
     </g>
     <g class="com.sun.star.drawing.PolyPolygonShape">
      <g id="id30">
       <path fill="rgb(255,220,20)" stroke="none" d="M 6536,19270 L 6301,19519 6301,19766 15097,19766 15097,19519 14861,19270 6536,19270 Z"/>
       <path fill="none" stroke="rgb(0,0,0)" stroke-width="49" stroke-linejoin="miter" d="M 6536,19270 L 6301,19519 6301,19766 15097,19766 15097,19519 14861,19270 6536,19270 Z"/>
      </g>
     </g>
     <g class="com.sun.star.drawing.LineShape">
      <g id="id31">
       <path fill="none" stroke="rgb(0,0,0)" stroke-width="49" stroke-linejoin="miter" d="M 6335,19521 L 15064,19515"/>
      </g>
     </g>
     <g class="com.sun.star.drawing.PolyPolygonShape">
      <g id="id32">
       <path fill="rgb(255,220,20)" stroke="none" d="M 13171,11738 L 14852,11738 14852,14715 13171,14715 13171,11738 Z"/>
       <path fill="none" stroke="rgb(0,0,0)" stroke-width="49" stroke-linejoin="miter" d="M 13171,11738 L 14852,11738 14852,14715 13171,14715 13171,11738 Z"/>
      </g>
     </g>
     <g class="com.sun.star.drawing.LineShape">
      <g id="id33">
       <path fill="none" stroke="rgb(0,0,0)" stroke-width="49" stroke-linejoin="miter" d="M 14829,12389 L 13192,12389"/>
      </g>
     </g>
     <g class="com.sun.star.drawing.LineShape">
      <g id="id34">
       <path fill="none" stroke="rgb(0,0,0)" stroke-width="49" stroke-linejoin="miter" d="M 14848,14131 L 13173,14131"/>
      </g>
     </g>
     <g class="com.sun.star.drawing.LineShape">
      <g id="id35">
       <path fill="none" stroke="rgb(0,0,0)" stroke-width="49" stroke-linejoin="miter" d="M 14010,14116 L 14010,13525"/>
      </g>
     </g>
     <g class="com.sun.star.drawing.LineShape">
      <g id="id36">
       <path fill="none" stroke="rgb(0,0,0)" stroke-width="49" stroke-linejoin="miter" d="M 14010,12376 L 14010,11732"/>
      </g>
     </g>
     <g class="com.sun.star.drawing.PolyPolygonShape">
      <g id="id37">
       <path fill="rgb(255,220,20)" stroke="none" d="M 13070,10821 L 13533,10821 13302,10336 13070,10821 Z"/>
       <path fill="none" stroke="rgb(0,0,0)" stroke-width="49" stroke-linejoin="miter" d="M 13070,10821 L 13533,10821 13302,10336 13070,10821 Z"/>
      </g>
     </g>
     <g class="com.sun.star.drawing.PolyPolygonShape">
      <g id="id38">
       <path fill="rgb(255,220,20)" stroke="none" d="M 13157,11252 L 13157,10821 13446,10821 13446,11252 13157,11252 Z"/>
       <path fill="none" stroke="rgb(0,0,0)" stroke-width="49" stroke-linejoin="miter" d="M 13157,11252 L 13157,10821 13446,10821 13446,11252 13157,11252 Z"/>
      </g>
     </g>
     <g class="com.sun.star.drawing.PolyPolygonShape">
      <g id="id39">
       <path fill="rgb(255,220,20)" stroke="none" d="M 13779,10821 L 14242,10821 14011,10336 13779,10821 Z"/>
       <path fill="none" stroke="rgb(0,0,0)" stroke-width="49" stroke-linejoin="miter" d="M 13779,10821 L 14242,10821 14011,10336 13779,10821 Z"/>
      </g>
     </g>
     <g class="com.sun.star.drawing.PolyPolygonShape">
      <g id="id40">
       <path fill="rgb(255,220,20)" stroke="none" d="M 13866,11252 L 13866,10821 14155,10821 14155,11252 13866,11252 Z"/>
       <path fill="none" stroke="rgb(0,0,0)" stroke-width="49" stroke-linejoin="miter" d="M 13866,11252 L 13866,10821 14155,10821 14155,11252 13866,11252 Z"/>
      </g>
     </g>
     <g class="com.sun.star.drawing.PolyPolygonShape">
      <g id="id41">
       <path fill="rgb(255,220,20)" stroke="none" d="M 14489,10821 L 14952,10821 14721,10336 14489,10821 Z"/>
       <path fill="none" stroke="rgb(0,0,0)" stroke-width="49" stroke-linejoin="miter" d="M 14489,10821 L 14952,10821 14721,10336 14489,10821 Z"/>
      </g>
     </g>
     <g class="com.sun.star.drawing.PolyPolygonShape">
      <g id="id42">
       <path fill="rgb(255,220,20)" stroke="none" d="M 14576,11252 L 14576,10821 14865,10821 14865,11252 14576,11252 Z"/>
       <path fill="none" stroke="rgb(0,0,0)" stroke-width="49" stroke-linejoin="miter" d="M 14576,11252 L 14576,10821 14865,10821 14865,11252 14576,11252 Z"/>
      </g>
     </g>
     <g class="com.sun.star.drawing.PolyPolygonShape">
      <g id="id43">
       <path fill="rgb(255,220,20)" stroke="none" d="M 13159,11239 L 12924,11487 13159,11735 14865,11735 15100,11487 14865,11239 13159,11239 Z"/>
       <path fill="none" stroke="rgb(0,0,0)" stroke-width="49" stroke-linejoin="miter" d="M 13159,11239 L 12924,11487 13159,11735 14865,11735 15100,11487 14865,11239 13159,11239 Z"/>
      </g>
     </g>
     <g class="com.sun.star.drawing.LineShape">
      <g id="id44">
       <path fill="none" stroke="rgb(0,0,0)" stroke-width="68" stroke-linejoin="miter" d="M 12965,11490 L 15078,11483"/>
      </g>
     </g>
     <g class="com.sun.star.drawing.PolyPolygonShape">
      <g id="id45">
       <path fill="rgb(255,220,20)" stroke="none" d="M 13159,13004 L 12924,13253 13159,13500 14865,13500 15100,13253 14865,13004 13159,13004 Z"/>
       <path fill="none" stroke="rgb(0,0,0)" stroke-width="49" stroke-linejoin="miter" d="M 13159,13004 L 12924,13253 13159,13500 14865,13500 15100,13253 14865,13004 13159,13004 Z"/>
      </g>
     </g>
     <g class="com.sun.star.drawing.LineShape">
      <g id="id46">
       <path fill="none" stroke="rgb(0,0,0)" stroke-width="68" stroke-linejoin="miter" d="M 12955,13255 L 15067,13248"/>
      </g>
     </g>
     <g class="com.sun.star.drawing.ClosedBezierShape">
      <g id="id47">
       <path fill="rgb(255,220,20)" stroke="none" d="M 13278,12232 C 13278,11945 13438,11885 13581,11885 13725,11885 13883,11945 13883,12239 13883,12552 13883,12831 13883,12831 L 13278,12831 13278,12232 Z"/>
       <path fill="none" stroke="rgb(0,0,0)" stroke-width="49" stroke-linejoin="miter" d="M 13278,12232 C 13278,11945 13438,11885 13581,11885 13725,11885 13883,11945 13883,12239 13883,12552 13883,12831 13883,12831 L 13278,12831 13278,12232 Z"/>
      </g>
     </g>
     <g class="com.sun.star.drawing.LineShape">
      <g id="id48">
       <path fill="none" stroke="rgb(0,0,0)" stroke-width="49" stroke-linejoin="miter" d="M 13287,12268 L 13874,12268"/>
      </g>
     </g>
     <g class="com.sun.star.drawing.ClosedBezierShape">
      <g id="id49">
       <path fill="rgb(255,30,0)" stroke="none" d="M 13390,12703 C 13390,12703 13388,12429 13390,12243 13392,12056 13469,12001 13581,12001 13688,12001 13768,12049 13773,12247 13777,12445 13773,12703 13773,12703 L 13390,12703 Z"/>
       <path fill="none" stroke="rgb(0,0,0)" stroke-width="49" stroke-linejoin="miter" d="M 13390,12703 C 13390,12703 13388,12429 13390,12243 13392,12056 13469,12001 13581,12001 13688,12001 13768,12049 13773,12247 13777,12445 13773,12703 13773,12703 L 13390,12703 Z"/>
      </g>
     </g>
     <g class="com.sun.star.drawing.LineShape">
      <g id="id50">
       <path fill="none" stroke="rgb(0,0,0)" stroke-width="49" stroke-linejoin="miter" d="M 13282,12704 L 13878,12704"/>
      </g>
     </g>
     <g class="com.sun.star.drawing.LineShape">
      <g id="id51">
       <path fill="none" stroke="rgb(0,0,0)" stroke-width="49" stroke-linejoin="miter" d="M 13377,11954 L 13456,12039"/>
      </g>
     </g>
     <g class="com.sun.star.drawing.LineShape">
      <g id="id52">
       <path fill="none" stroke="rgb(0,0,0)" stroke-width="49" stroke-linejoin="miter" d="M 13783,11954 L 13705,12039"/>
      </g>
     </g>
     <g class="com.sun.star.drawing.ClosedBezierShape">
      <g id="id53">
       <path fill="rgb(255,220,20)" stroke="none" d="M 14139,12232 C 14139,11945 14299,11885 14442,11885 14585,11885 14744,11945 14744,12239 14744,12552 14744,12831 14744,12831 L 14139,12831 14139,12232 Z"/>
       <path fill="none" stroke="rgb(0,0,0)" stroke-width="49" stroke-linejoin="miter" d="M 14139,12232 C 14139,11945 14299,11885 14442,11885 14585,11885 14744,11945 14744,12239 14744,12552 14744,12831 14744,12831 L 14139,12831 14139,12232 Z"/>
      </g>
     </g>
     <g class="com.sun.star.drawing.LineShape">
      <g id="id54">
       <path fill="none" stroke="rgb(0,0,0)" stroke-width="49" stroke-linejoin="miter" d="M 14148,12268 L 14735,12268"/>
      </g>
     </g>
     <g class="com.sun.star.drawing.ClosedBezierShape">
      <g id="id55">
       <path fill="rgb(255,30,0)" stroke="none" d="M 14251,12703 C 14251,12703 14249,12429 14251,12243 14253,12056 14330,12001 14442,12001 14549,12001 14629,12049 14633,12247 14638,12445 14633,12703 14633,12703 L 14251,12703 Z"/>
       <path fill="none" stroke="rgb(0,0,0)" stroke-width="49" stroke-linejoin="miter" d="M 14251,12703 C 14251,12703 14249,12429 14251,12243 14253,12056 14330,12001 14442,12001 14549,12001 14629,12049 14633,12247 14638,12445 14633,12703 14633,12703 L 14251,12703 Z"/>
      </g>
     </g>
     <g class="com.sun.star.drawing.LineShape">
      <g id="id56">
       <path fill="none" stroke="rgb(0,0,0)" stroke-width="49" stroke-linejoin="miter" d="M 14143,12704 L 14740,12704"/>
      </g>
     </g>
     <g class="com.sun.star.drawing.LineShape">
      <g id="id57">
       <path fill="none" stroke="rgb(0,0,0)" stroke-width="49" stroke-linejoin="miter" d="M 14238,11954 L 14317,12039"/>
      </g>
     </g>
     <g class="com.sun.star.drawing.LineShape">
      <g id="id58">
       <path fill="none" stroke="rgb(0,0,0)" stroke-width="49" stroke-linejoin="miter" d="M 14645,11954 L 14566,12039"/>
      </g>
     </g>
     <g class="com.sun.star.drawing.PolyPolygonShape">
      <g id="id59">
       <path fill="rgb(255,220,20)" stroke="none" d="M 6548,11738 L 8229,11738 8229,14715 6548,14715 6548,11738 Z"/>
       <path fill="none" stroke="rgb(0,0,0)" stroke-width="49" stroke-linejoin="miter" d="M 6548,11738 L 8229,11738 8229,14715 6548,14715 6548,11738 Z"/>
      </g>
     </g>
     <g class="com.sun.star.drawing.LineShape">
      <g id="id60">
       <path fill="none" stroke="rgb(0,0,0)" stroke-width="49" stroke-linejoin="miter" d="M 8206,12389 L 6568,12389"/>
      </g>
     </g>
     <g class="com.sun.star.drawing.LineShape">
      <g id="id61">
       <path fill="none" stroke="rgb(0,0,0)" stroke-width="49" stroke-linejoin="miter" d="M 8225,14131 L 6550,14131"/>
      </g>
     </g>
     <g class="com.sun.star.drawing.LineShape">
      <g id="id62">
       <path fill="none" stroke="rgb(0,0,0)" stroke-width="49" stroke-linejoin="miter" d="M 7388,14116 L 7388,13525"/>
      </g>
     </g>
     <g class="com.sun.star.drawing.LineShape">
      <g id="id63">
       <path fill="none" stroke="rgb(0,0,0)" stroke-width="49" stroke-linejoin="miter" d="M 7388,12376 L 7388,11732"/>
      </g>
     </g>
     <g class="com.sun.star.drawing.PolyPolygonShape">
      <g id="id64">
       <path fill="rgb(255,220,20)" stroke="none" d="M 6447,10821 L 6910,10821 6679,10336 6447,10821 Z"/>
       <path fill="none" stroke="rgb(0,0,0)" stroke-width="49" stroke-linejoin="miter" d="M 6447,10821 L 6910,10821 6679,10336 6447,10821 Z"/>
      </g>
     </g>
     <g class="com.sun.star.drawing.PolyPolygonShape">
      <g id="id65">
       <path fill="rgb(255,220,20)" stroke="none" d="M 6534,11252 L 6534,10821 6823,10821 6823,11252 6534,11252 Z"/>
       <path fill="none" stroke="rgb(0,0,0)" stroke-width="49" stroke-linejoin="miter" d="M 6534,11252 L 6534,10821 6823,10821 6823,11252 6534,11252 Z"/>
      </g>
     </g>
     <g class="com.sun.star.drawing.PolyPolygonShape">
      <g id="id66">
       <path fill="rgb(255,220,20)" stroke="none" d="M 7156,10821 L 7620,10821 7389,10336 7156,10821 Z"/>
       <path fill="none" stroke="rgb(0,0,0)" stroke-width="49" stroke-linejoin="miter" d="M 7156,10821 L 7620,10821 7389,10336 7156,10821 Z"/>
      </g>
     </g>
     <g class="com.sun.star.drawing.PolyPolygonShape">
      <g id="id67">
       <path fill="rgb(255,220,20)" stroke="none" d="M 7244,11252 L 7244,10821 7532,10821 7532,11252 7244,11252 Z"/>
       <path fill="none" stroke="rgb(0,0,0)" stroke-width="49" stroke-linejoin="miter" d="M 7244,11252 L 7244,10821 7532,10821 7532,11252 7244,11252 Z"/>
      </g>
     </g>
     <g class="com.sun.star.drawing.PolyPolygonShape">
      <g id="id68">
       <path fill="rgb(255,220,20)" stroke="none" d="M 7866,10821 L 8329,10821 8098,10336 7866,10821 Z"/>
       <path fill="none" stroke="rgb(0,0,0)" stroke-width="49" stroke-linejoin="miter" d="M 7866,10821 L 8329,10821 8098,10336 7866,10821 Z"/>
      </g>
     </g>
     <g class="com.sun.star.drawing.PolyPolygonShape">
      <g id="id69">
       <path fill="rgb(255,220,20)" stroke="none" d="M 7953,11252 L 7953,10821 8242,10821 8242,11252 7953,11252 Z"/>
       <path fill="none" stroke="rgb(0,0,0)" stroke-width="49" stroke-linejoin="miter" d="M 7953,11252 L 7953,10821 8242,10821 8242,11252 7953,11252 Z"/>
      </g>
     </g>
     <g class="com.sun.star.drawing.PolyPolygonShape">
      <g id="id70">
       <path fill="rgb(255,220,20)" stroke="none" d="M 6535,11239 L 6300,11487 6535,11735 8241,11735 8476,11487 8241,11239 6535,11239 Z"/>
       <path fill="none" stroke="rgb(0,0,0)" stroke-width="49" stroke-linejoin="miter" d="M 6535,11239 L 6300,11487 6535,11735 8241,11735 8476,11487 8241,11239 6535,11239 Z"/>
      </g>
     </g>
     <g class="com.sun.star.drawing.LineShape">
      <g id="id71">
       <path fill="none" stroke="rgb(0,0,0)" stroke-width="68" stroke-linejoin="miter" d="M 6343,11490 L 8455,11483"/>
      </g>
     </g>
     <g class="com.sun.star.drawing.PolyPolygonShape">
      <g id="id72">
       <path fill="rgb(255,220,20)" stroke="none" d="M 6535,13004 L 6300,13253 6535,13500 8241,13500 8476,13253 8241,13004 6535,13004 Z"/>
       <path fill="none" stroke="rgb(0,0,0)" stroke-width="49" stroke-linejoin="miter" d="M 6535,13004 L 6300,13253 6535,13500 8241,13500 8476,13253 8241,13004 6535,13004 Z"/>
      </g>
     </g>
     <g class="com.sun.star.drawing.LineShape">
      <g id="id73">
       <path fill="none" stroke="rgb(0,0,0)" stroke-width="68" stroke-linejoin="miter" d="M 6332,13255 L 8444,13248"/>
      </g>
     </g>
     <g class="com.sun.star.drawing.ClosedBezierShape">
      <g id="id74">
       <path fill="rgb(255,220,20)" stroke="none" d="M 6655,12232 C 6655,11945 6815,11885 6957,11885 7101,11885 7260,11945 7260,12239 7260,12552 7260,12831 7260,12831 L 6655,12831 6655,12232 Z"/>
       <path fill="none" stroke="rgb(0,0,0)" stroke-width="49" stroke-linejoin="miter" d="M 6655,12232 C 6655,11945 6815,11885 6957,11885 7101,11885 7260,11945 7260,12239 7260,12552 7260,12831 7260,12831 L 6655,12831 6655,12232 Z"/>
      </g>
     </g>
     <g class="com.sun.star.drawing.LineShape">
      <g id="id75">
       <path fill="none" stroke="rgb(0,0,0)" stroke-width="49" stroke-linejoin="miter" d="M 6663,12268 L 7250,12268"/>
      </g>
     </g>
     <g class="com.sun.star.drawing.ClosedBezierShape">
      <g id="id76">
       <path fill="rgb(255,30,0)" stroke="none" d="M 6766,12703 C 6766,12703 6764,12429 6766,12243 6769,12056 6845,12001 6957,12001 7065,12001 7145,12049 7149,12247 7153,12445 7149,12703 7149,12703 L 6766,12703 Z"/>
       <path fill="none" stroke="rgb(0,0,0)" stroke-width="49" stroke-linejoin="miter" d="M 6766,12703 C 6766,12703 6764,12429 6766,12243 6769,12056 6845,12001 6957,12001 7065,12001 7145,12049 7149,12247 7153,12445 7149,12703 7149,12703 L 6766,12703 Z"/>
      </g>
     </g>
     <g class="com.sun.star.drawing.LineShape">
      <g id="id77">
       <path fill="none" stroke="rgb(0,0,0)" stroke-width="49" stroke-linejoin="miter" d="M 6658,12704 L 7254,12704"/>
      </g>
     </g>
     <g class="com.sun.star.drawing.LineShape">
      <g id="id78">
       <path fill="none" stroke="rgb(0,0,0)" stroke-width="49" stroke-linejoin="miter" d="M 6754,11954 L 6833,12039"/>
      </g>
     </g>
     <g class="com.sun.star.drawing.LineShape">
      <g id="id79">
       <path fill="none" stroke="rgb(0,0,0)" stroke-width="49" stroke-linejoin="miter" d="M 7160,11954 L 7081,12039"/>
      </g>
     </g>
     <g class="com.sun.star.drawing.ClosedBezierShape">
      <g id="id80">
       <path fill="rgb(255,220,20)" stroke="none" d="M 7517,12232 C 7517,11945 7676,11885 7819,11885 7963,11885 8122,11945 8122,12239 8122,12552 8122,12831 8122,12831 L 7517,12831 7517,12232 Z"/>
       <path fill="none" stroke="rgb(0,0,0)" stroke-width="49" stroke-linejoin="miter" d="M 7517,12232 C 7517,11945 7676,11885 7819,11885 7963,11885 8122,11945 8122,12239 8122,12552 8122,12831 8122,12831 L 7517,12831 7517,12232 Z"/>
      </g>
     </g>
     <g class="com.sun.star.drawing.LineShape">
      <g id="id81">
       <path fill="none" stroke="rgb(0,0,0)" stroke-width="49" stroke-linejoin="miter" d="M 7525,12268 L 8112,12268"/>
      </g>
     </g>
     <g class="com.sun.star.drawing.ClosedBezierShape">
      <g id="id82">
       <path fill="rgb(255,30,0)" stroke="none" d="M 7628,12703 C 7628,12703 7626,12429 7628,12243 7630,12056 7707,12001 7819,12001 7927,12001 8006,12049 8011,12247 8015,12445 8011,12703 8011,12703 L 7628,12703 Z"/>
       <path fill="none" stroke="rgb(0,0,0)" stroke-width="49" stroke-linejoin="miter" d="M 7628,12703 C 7628,12703 7626,12429 7628,12243 7630,12056 7707,12001 7819,12001 7927,12001 8006,12049 8011,12247 8015,12445 8011,12703 8011,12703 L 7628,12703 Z"/>
      </g>
     </g>
     <g class="com.sun.star.drawing.LineShape">
      <g id="id83">
       <path fill="none" stroke="rgb(0,0,0)" stroke-width="49" stroke-linejoin="miter" d="M 7520,12704 L 8116,12704"/>
      </g>
     </g>
     <g class="com.sun.star.drawing.LineShape">
      <g id="id84">
       <path fill="none" stroke="rgb(0,0,0)" stroke-width="49" stroke-linejoin="miter" d="M 7616,11954 L 7694,12039"/>
      </g>
     </g>
     <g class="com.sun.star.drawing.LineShape">
      <g id="id85">
       <path fill="none" stroke="rgb(0,0,0)" stroke-width="49" stroke-linejoin="miter" d="M 8021,11954 L 7943,12039"/>
      </g>
     </g>
     <g class="com.sun.star.drawing.PolyPolygonShape">
      <g id="id86">
       <path fill="rgb(255,220,20)" stroke="none" d="M 9486,10503 L 11912,10503 11912,14716 9486,14716 9486,10503 Z"/>
       <path fill="none" stroke="rgb(0,0,0)" stroke-width="49" stroke-linejoin="miter" d="M 9486,10503 L 11912,10503 11912,14716 9486,14716 9486,10503 Z"/>
      </g>
     </g>
     <g class="com.sun.star.drawing.LineShape">
      <g id="id87">
       <path fill="none" stroke="rgb(0,0,0)" stroke-width="49" stroke-linejoin="miter" d="M 9952,13827 L 9952,13045"/>
      </g>
     </g>
     <g class="com.sun.star.drawing.LineShape">
      <g id="id88">
       <path fill="none" stroke="rgb(0,0,0)" stroke-width="49" stroke-linejoin="miter" d="M 11446,13827 L 11446,13048"/>
      </g>
     </g>
     <g class="com.sun.star.drawing.LineShape">
      <g id="id89">
       <path fill="none" stroke="rgb(0,0,0)" stroke-width="49" stroke-linejoin="miter" d="M 11911,13833 L 9483,13833"/>
      </g>
     </g>
     <g class="com.sun.star.drawing.LineShape">
      <g id="id90">
       <path fill="none" stroke="rgb(0,0,0)" stroke-width="49" stroke-linejoin="miter" d="M 11905,13025 L 9487,13025"/>
      </g>
     </g>
     <g class="com.sun.star.drawing.LineShape">
      <g id="id91">
       <path fill="none" stroke="rgb(0,0,0)" stroke-width="49" stroke-linejoin="miter" d="M 10699,14724 L 10699,13847"/>
      </g>
     </g>
     <g class="com.sun.star.drawing.LineShape">
      <g id="id92">
       <path fill="none" stroke="rgb(0,0,0)" stroke-width="49" stroke-linejoin="miter" d="M 10699,13024 L 10699,12225"/>
      </g>
     </g>
     <g class="com.sun.star.drawing.LineShape">
      <g id="id93">
       <path fill="none" stroke="rgb(0,0,0)" stroke-width="49" stroke-linejoin="miter" d="M 11910,11126 L 9488,11126"/>
      </g>
     </g>
     <g class="com.sun.star.drawing.LineShape">
      <g id="id94">
       <path fill="none" stroke="rgb(0,0,0)" stroke-width="49" stroke-linejoin="miter" d="M 10699,11103 L 10699,10510"/>
      </g>
     </g>
     <g class="com.sun.star.drawing.PolyPolygonShape">
      <g id="id95">
       <path fill="rgb(255,220,20)" stroke="none" d="M 9404,9586 L 9868,9586 9636,9100 9404,9586 Z"/>
       <path fill="none" stroke="rgb(0,0,0)" stroke-width="49" stroke-linejoin="miter" d="M 9404,9586 L 9868,9586 9636,9100 9404,9586 Z"/>
      </g>
     </g>
     <g class="com.sun.star.drawing.PolyPolygonShape">
      <g id="id96">
       <path fill="rgb(255,220,20)" stroke="none" d="M 9491,10016 L 9491,9586 9780,9586 9780,10016 9491,10016 Z"/>
       <path fill="none" stroke="rgb(0,0,0)" stroke-width="49" stroke-linejoin="miter" d="M 9491,10016 L 9491,9586 9780,9586 9780,10016 9491,10016 Z"/>
      </g>
     </g>
     <g class="com.sun.star.drawing.PolyPolygonShape">
      <g id="id97">
       <path fill="rgb(255,220,20)" stroke="none" d="M 11532,9586 L 11996,9586 11765,9100 11532,9586 Z"/>
       <path fill="none" stroke="rgb(0,0,0)" stroke-width="49" stroke-linejoin="miter" d="M 11532,9586 L 11996,9586 11765,9100 11532,9586 Z"/>
      </g>
     </g>
     <g class="com.sun.star.drawing.PolyPolygonShape">
      <g id="id98">
       <path fill="rgb(255,220,20)" stroke="none" d="M 11620,10016 L 11620,9586 11909,9586 11909,10016 11620,10016 Z"/>
       <path fill="none" stroke="rgb(0,0,0)" stroke-width="49" stroke-linejoin="miter" d="M 11620,10016 L 11620,9586 11909,9586 11909,10016 11620,10016 Z"/>
      </g>
     </g>
     <g class="com.sun.star.drawing.PolyPolygonShape">
      <g id="id99">
       <path fill="rgb(255,220,20)" stroke="none" d="M 10114,9586 L 10577,9586 10346,9100 10114,9586 Z"/>
       <path fill="none" stroke="rgb(0,0,0)" stroke-width="49" stroke-linejoin="miter" d="M 10114,9586 L 10577,9586 10346,9100 10114,9586 Z"/>
      </g>
     </g>
     <g class="com.sun.star.drawing.PolyPolygonShape">
      <g id="id100">
       <path fill="rgb(255,220,20)" stroke="none" d="M 10201,10016 L 10201,9586 10490,9586 10490,10016 10201,10016 Z"/>
       <path fill="none" stroke="rgb(0,0,0)" stroke-width="49" stroke-linejoin="miter" d="M 10201,10016 L 10201,9586 10490,9586 10490,10016 10201,10016 Z"/>
      </g>
     </g>
     <g class="com.sun.star.drawing.PolyPolygonShape">
      <g id="id101">
       <path fill="rgb(255,220,20)" stroke="none" d="M 10823,9586 L 11286,9586 11055,9100 10823,9586 Z"/>
       <path fill="none" stroke="rgb(0,0,0)" stroke-width="49" stroke-linejoin="miter" d="M 10823,9586 L 11286,9586 11055,9100 10823,9586 Z"/>
      </g>
     </g>
     <g class="com.sun.star.drawing.PolyPolygonShape">
      <g id="id102">
       <path fill="rgb(255,220,20)" stroke="none" d="M 10910,10016 L 10910,9586 11199,9586 11199,10016 10910,10016 Z"/>
       <path fill="none" stroke="rgb(0,0,0)" stroke-width="49" stroke-linejoin="miter" d="M 10910,10016 L 10910,9586 11199,9586 11199,10016 10910,10016 Z"/>
      </g>
     </g>
     <g class="com.sun.star.drawing.PolyPolygonShape">
      <g id="id103">
       <path fill="rgb(255,220,20)" stroke="none" d="M 9477,10006 L 9241,10255 9477,10502 11922,10502 12158,10255 11922,10006 9477,10006 Z"/>
       <path fill="none" stroke="rgb(0,0,0)" stroke-width="49" stroke-linejoin="miter" d="M 9477,10006 L 9241,10255 9477,10502 11922,10502 12158,10255 11922,10006 9477,10006 Z"/>
      </g>
     </g>
     <g class="com.sun.star.drawing.LineShape">
      <g id="id104">
       <path fill="none" stroke="rgb(0,0,0)" stroke-width="68" stroke-linejoin="miter" d="M 9284,10258 L 12127,10252"/>
      </g>
     </g>
     <g class="com.sun.star.drawing.PolyPolygonShape">
      <g id="id105">
       <path fill="rgb(255,220,20)" stroke="none" d="M 9477,11721 L 9241,11969 9477,12216 11922,12216 12158,11969 11922,11721 9477,11721 Z"/>
       <path fill="none" stroke="rgb(0,0,0)" stroke-width="49" stroke-linejoin="miter" d="M 9477,11721 L 9241,11969 9477,12216 11922,12216 12158,11969 11922,11721 9477,11721 Z"/>
      </g>
     </g>
     <g class="com.sun.star.drawing.LineShape">
      <g id="id106">
       <path fill="none" stroke="rgb(0,0,0)" stroke-width="68" stroke-linejoin="miter" d="M 9278,11971 L 12122,11965"/>
      </g>
     </g>
     <g class="com.sun.star.drawing.ClosedBezierShape">
      <g id="id107">
       <path fill="rgb(255,220,20)" stroke="none" d="M 9734,10961 C 9734,10674 9894,10615 10037,10615 10181,10615 10339,10674 10339,10968 10339,11282 10339,11560 10339,11560 L 9734,11560 9734,10961 Z"/>
       <path fill="none" stroke="rgb(0,0,0)" stroke-width="49" stroke-linejoin="miter" d="M 9734,10961 C 9734,10674 9894,10615 10037,10615 10181,10615 10339,10674 10339,10968 10339,11282 10339,11560 10339,11560 L 9734,11560 9734,10961 Z"/>
      </g>
     </g>
     <g class="com.sun.star.drawing.LineShape">
      <g id="id108">
       <path fill="none" stroke="rgb(0,0,0)" stroke-width="49" stroke-linejoin="miter" d="M 9743,10998 L 10330,10998"/>
      </g>
     </g>
     <g class="com.sun.star.drawing.ClosedBezierShape">
      <g id="id109">
       <path fill="rgb(255,30,0)" stroke="none" d="M 9846,11433 C 9846,11433 9844,11159 9846,10972 9848,10786 9925,10731 10037,10731 10144,10731 10224,10779 10229,10977 10233,11174 10229,11433 10229,11433 L 9846,11433 Z"/>
       <path fill="none" stroke="rgb(0,0,0)" stroke-width="49" stroke-linejoin="miter" d="M 9846,11433 C 9846,11433 9844,11159 9846,10972 9848,10786 9925,10731 10037,10731 10144,10731 10224,10779 10229,10977 10233,11174 10229,11433 10229,11433 L 9846,11433 Z"/>
      </g>
     </g>
     <g class="com.sun.star.drawing.LineShape">
      <g id="id110">
       <path fill="none" stroke="rgb(0,0,0)" stroke-width="49" stroke-linejoin="miter" d="M 9738,11434 L 10334,11434"/>
      </g>
     </g>
     <g class="com.sun.star.drawing.LineShape">
      <g id="id111">
       <path fill="none" stroke="rgb(0,0,0)" stroke-width="49" stroke-linejoin="miter" d="M 9833,10684 L 9912,10769"/>
      </g>
     </g>
     <g class="com.sun.star.drawing.LineShape">
      <g id="id112">
       <path fill="none" stroke="rgb(0,0,0)" stroke-width="49" stroke-linejoin="miter" d="M 10239,10684 L 10160,10769"/>
      </g>
     </g>
     <g class="com.sun.star.drawing.ClosedBezierShape">
      <g id="id113">
       <path fill="rgb(255,220,20)" stroke="none" d="M 11061,10961 C 11061,10674 11220,10615 11363,10615 11507,10615 11666,10674 11666,10968 11666,11282 11666,11560 11666,11560 L 11061,11560 11061,10961 Z"/>
       <path fill="none" stroke="rgb(0,0,0)" stroke-width="49" stroke-linejoin="miter" d="M 11061,10961 C 11061,10674 11220,10615 11363,10615 11507,10615 11666,10674 11666,10968 11666,11282 11666,11560 11666,11560 L 11061,11560 11061,10961 Z"/>
      </g>
     </g>
     <g class="com.sun.star.drawing.LineShape">
      <g id="id114">
       <path fill="none" stroke="rgb(0,0,0)" stroke-width="49" stroke-linejoin="miter" d="M 11069,10998 L 11656,10998"/>
      </g>
     </g>
     <g class="com.sun.star.drawing.ClosedBezierShape">
      <g id="id115">
       <path fill="rgb(255,30,0)" stroke="none" d="M 11172,11433 C 11172,11433 11170,11159 11172,10972 11174,10786 11251,10731 11363,10731 11471,10731 11550,10779 11555,10977 11559,11174 11555,11433 11555,11433 L 11172,11433 Z"/>
       <path fill="none" stroke="rgb(0,0,0)" stroke-width="49" stroke-linejoin="miter" d="M 11172,11433 C 11172,11433 11170,11159 11172,10972 11174,10786 11251,10731 11363,10731 11471,10731 11550,10779 11555,10977 11559,11174 11555,11433 11555,11433 L 11172,11433 Z"/>
      </g>
     </g>
     <g class="com.sun.star.drawing.LineShape">
      <g id="id116">
       <path fill="none" stroke="rgb(0,0,0)" stroke-width="49" stroke-linejoin="miter" d="M 11064,11434 L 11660,11434"/>
      </g>
     </g>
     <g class="com.sun.star.drawing.LineShape">
      <g id="id117">
       <path fill="none" stroke="rgb(0,0,0)" stroke-width="49" stroke-linejoin="miter" d="M 11160,10684 L 11238,10769"/>
      </g>
     </g>
     <g class="com.sun.star.drawing.LineShape">
      <g id="id118">
       <path fill="none" stroke="rgb(0,0,0)" stroke-width="49" stroke-linejoin="miter" d="M 11566,10684 L 11487,10769"/>
      </g>
     </g>
     <g class="com.sun.star.drawing.LineShape">
      <g id="id119">
       <path fill="none" stroke="rgb(0,0,0)" stroke-width="49" stroke-linejoin="miter" d="M 7077,16837 L 7077,17576"/>
      </g>
     </g>
     <g class="com.sun.star.drawing.LineShape">
      <g id="id120">
       <path fill="none" stroke="rgb(0,0,0)" stroke-width="49" stroke-linejoin="miter" d="M 8519,16837 L 8519,17576"/>
      </g>
     </g>
     <g class="com.sun.star.drawing.LineShape">
      <g id="id121">
       <path fill="none" stroke="rgb(0,0,0)" stroke-width="49" stroke-linejoin="miter" d="M 12845,16837 L 12845,17576"/>
      </g>
     </g>
     <g class="com.sun.star.drawing.LineShape">
      <g id="id122">
       <path fill="none" stroke="rgb(0,0,0)" stroke-width="49" stroke-linejoin="miter" d="M 14286,16837 L 14286,17576"/>
      </g>
     </g>
     <g class="com.sun.star.drawing.LineShape">
      <g id="id123">
       <path fill="none" stroke="rgb(0,0,0)" stroke-width="48" stroke-linejoin="miter" d="M 7798,17639 L 7798,18422"/>
      </g>
     </g>
     <g class="com.sun.star.drawing.LineShape">
      <g id="id124">
       <path fill="none" stroke="rgb(0,0,0)" stroke-width="48" stroke-linejoin="miter" d="M 13566,17639 L 13566,18422"/>
      </g>
     </g>
     <g class="com.sun.star.drawing.LineShape">
      <g id="id125">
       <path fill="none" stroke="rgb(0,0,0)" stroke-width="49" stroke-linejoin="miter" d="M 7077,18480 L 7077,19239"/>
      </g>
     </g>
     <g class="com.sun.star.drawing.LineShape">
      <g id="id126">
       <path fill="none" stroke="rgb(0,0,0)" stroke-width="49" stroke-linejoin="miter" d="M 8519,18480 L 8519,19239"/>
      </g>
     </g>
     <g class="com.sun.star.drawing.LineShape">
      <g id="id127">
       <path fill="none" stroke="rgb(0,0,0)" stroke-width="49" stroke-linejoin="miter" d="M 12845,18480 L 12845,19239"/>
      </g>
     </g>
     <g class="com.sun.star.drawing.LineShape">
      <g id="id128">
       <path fill="none" stroke="rgb(0,0,0)" stroke-width="49" stroke-linejoin="miter" d="M 14286,18480 L 14286,19239"/>
      </g>
     </g>
     <g class="com.sun.star.drawing.LineShape">
      <g id="id129">
       <path fill="none" stroke="rgb(0,0,0)" stroke-width="49" stroke-linejoin="miter" d="M 9195,17266 L 9759,17428"/>
      </g>
     </g>
     <g class="com.sun.star.drawing.LineShape">
      <g id="id130">
       <path fill="none" stroke="rgb(0,0,0)" stroke-width="49" stroke-linejoin="miter" d="M 12205,17266 L 11643,17431"/>
      </g>
     </g>
    </g>
   </g>
  </g>
 </g>
</svg>