<?xml version="1.0" encoding="UTF-8" standalone="no"?>
<!-- Created with Inkscape (http://www.inkscape.org/) -->
<svg
   xmlns:dc="http://purl.org/dc/elements/1.1/"
   xmlns:cc="http://creativecommons.org/ns#"
   xmlns:rdf="http://www.w3.org/1999/02/22-rdf-syntax-ns#"
   xmlns:svg="http://www.w3.org/2000/svg"
   xmlns="http://www.w3.org/2000/svg"
   xmlns:sodipodi="http://sodipodi.sourceforge.net/DTD/sodipodi-0.dtd"
   xmlns:inkscape="http://www.inkscape.org/namespaces/inkscape"
   width="610"
   height="1250"
   id="svg3194"
   sodipodi:version="0.32"
   inkscape:version="0.46dev+devel"
   version="1.0"
   sodipodi:docbase="C:\Documents and Settings\Ego\Desktop"
   sodipodi:docname="Escut_de_Sant_Adrià_de_Besòs.svg"
   inkscape:output_extension="org.inkscape.output.svg.inkscape">
  <defs
     id="defs3196" />
  <sodipodi:namedview
     id="base"
     pagecolor="#ffffff"
     bordercolor="#666666"
     borderopacity="1.0"
     gridtolerance="10000"
     guidetolerance="10"
     objecttolerance="10"
     inkscape:pageopacity="0.0"
     inkscape:pageshadow="2"
     inkscape:zoom="0.4256"
     inkscape:cx="305"
     inkscape:cy="625"
     inkscape:document-units="px"
     inkscape:current-layer="layer1"
     inkscape:window-width="1280"
     inkscape:window-height="744"
     inkscape:window-x="0"
     inkscape:window-y="145"
     showgrid="false"
     height="950px"
     width="549.99969px"
     showguides="true"
     inkscape:guide-bbox="true" />
  <metadata
     id="metadata3199">
    <rdf:RDF>
      <cc:Work
         rdf:about="">
        <dc:format>image/svg+xml</dc:format>
        <dc:type
           rdf:resource="http://purl.org/dc/dcmitype/StillImage" />
      </cc:Work>
    </rdf:RDF>
  </metadata>
  <g
     inkscape:groupmode="layer"
     id="layer3"
     inkscape:label="Timbre"
     transform="translate(-26.428718,90.112115)"
     style="display:inline">
    <rect
       width="32.684311"
       height="752.48792"
       x="-347.92902"
       y="223.66362"
       style="fill:#e3bb01;fill-opacity:1;fill-rule:nonzero;stroke:#000000;stroke-width:0.99999994;stroke-miterlimit:4;stroke-dasharray:none;stroke-opacity:1"
       id="rect17044"
       transform="scale(-1,1)" />
    <path
       style="fill:#e3e4e5;fill-opacity:1;stroke:#010101;stroke-width:0.99999994;stroke-miterlimit:4;stroke-dasharray:none"
       d="M 521.32466,301.5625 C 523.51096,296.8073 529.13326,294.7266 533.88856,296.913 C 538.63936,299.0973 540.72006,304.7197 538.53376,309.4749 C 536.34836,314.228 530.72616,316.3086 525.97516,314.1243 C 521.21996,311.9379 519.13916,306.3157 521.32466,301.5625 z"
       type="arc"
       cx="-486.21375"
       ry="3.9327636"
       cy="-89.381149"
       rx="3.9327636"
       id="path3446" />
    <path
       style="fill:#eac102;fill-rule:evenodd;stroke:#000000;stroke-width:1.00000012px;stroke-linecap:butt;stroke-linejoin:miter;stroke-opacity:1"
       d="M 332.25427,258.74104 C 275.64166,259.30551 218.37846,259.35813 162.77926,270.68162 C 150.37176,274.42045 132.63316,276.50824 127.97566,289.75152 C 126.44776,300.81293 140.47626,305.5009 149.23906,308.54087 C 190.98346,320.50431 235.09206,321.51713 278.34436,323.38737 C 345.63487,324.67606 413.35907,325.1992 480.15067,316.26557 C 498.39777,312.90035 518.49007,310.82338 533.49517,299.48574 C 542.45477,291.10684 532.53727,279.39084 522.63277,276.981 C 488.65557,264.53418 451.59687,263.19855 415.66087,260.66439 C 387.88757,259.21738 360.06597,258.75942 332.25427,258.74104 z"
       id="path9052" />
    <path
       style="fill:#eac102;fill-opacity:1;fill-rule:evenodd;stroke:#000000;stroke-width:1px;stroke-linecap:butt;stroke-linejoin:miter;stroke-opacity:1"
       d="M 332.42887,272.33828 C 301.57175,272.33828 275.54895,272.91208 253.61638,273.9096 C 249.22971,274.10911 244.99501,274.33131 240.92888,274.56185 C 192.1576,277.32863 166.00623,282.21981 151.99138,286.68771 C 150.82333,287.06012 149.71571,287.41965 148.71013,287.78467 C 143.69861,289.60587 140.61652,291.34947 138.74138,292.76547 C 138.37261,293.04403 138.05502,293.31158 137.77263,293.56595 C 137.47974,293.82978 137.23521,294.0724 137.02263,294.30714 C 135.76946,295.69037 135.80387,296.53071 135.80388,296.53071 L 146.46013,333.26408 L 181.30388,333.26408 L 483.55387,333.26408 L 518.39767,333.26408 L 529.05387,296.53071 C 529.05387,296.53071 529.08827,295.69037 527.83507,294.30714 C 527.62257,294.0724 527.37797,293.82978 527.08507,293.56595 C 525.37047,292.01672 522.16337,289.97081 516.14767,287.78467 C 516.13907,287.78158 516.12487,287.78777 516.11637,287.78467 C 503.04497,283.0404 476.76537,277.55924 423.92887,274.56185 C 423.91887,274.56128 423.90757,274.56242 423.89767,274.56185 C 419.83157,274.33131 415.62787,274.10911 411.24137,273.9096 C 389.30807,272.91207 363.28777,272.33828 332.42887,272.33828 z"
       id="path9054" />
    <path
       sodipodi:type="arc"
       style="fill:#eac102;fill-opacity:1;fill-rule:evenodd;stroke:#000000;stroke-width:1.78393018px;stroke-linecap:round;stroke-linejoin:round;marker:none;marker-start:none;marker-mid:none;marker-end:none;stroke-miterlimit:4;stroke-dasharray:none;stroke-dashoffset:0;stroke-opacity:1;visibility:visible;display:inline;overflow:visible;enable-background:accumulate"
       id="path9058"
       sodipodi:cx="1773.2821"
       sodipodi:cy="707.07074"
       sodipodi:rx="23.065676"
       sodipodi:ry="23.065676"
       d="M 1796.3478,707.07074 A 23.065676,23.065676 0 1 1 1750.2164,707.07074 A 23.065676,23.065676 0 1 1 1796.3478,707.07074 z"
       transform="matrix(0.5526395,0,0,0.5685945,-572.16907,-111.66639)" />
    <path
       transform="matrix(0.5401856,0,0,0.5685945,-548.72047,-111.66639)"
       d="M 1796.3478,707.07074 A 23.065676,23.065676 0 1 1 1750.2164,707.07074 A 23.065676,23.065676 0 1 1 1796.3478,707.07074 z"
       sodipodi:ry="23.065676"
       sodipodi:rx="23.065676"
       sodipodi:cy="707.07074"
       sodipodi:cx="1773.2821"
       id="path9060"
       style="fill:#eac102;fill-opacity:1;fill-rule:evenodd;stroke:#000000;stroke-width:1.80437696px;stroke-linecap:round;stroke-linejoin:round;marker:none;marker-start:none;marker-mid:none;marker-end:none;stroke-miterlimit:4;stroke-dasharray:none;stroke-dashoffset:0;stroke-opacity:1;visibility:visible;display:inline;overflow:visible;enable-background:accumulate"
       sodipodi:type="arc" />
    <path
       sodipodi:type="arc"
       style="fill:#e3e4e5;fill-opacity:1;fill-rule:evenodd;stroke:#000000;stroke-width:2.06264997px;stroke-linecap:round;stroke-linejoin:round;marker:none;marker-start:none;marker-mid:none;marker-end:none;stroke-miterlimit:4;stroke-dasharray:none;stroke-dashoffset:0;stroke-opacity:1;visibility:visible;display:inline;overflow:visible;enable-background:accumulate"
       id="path9062"
       sodipodi:cx="1773.2821"
       sodipodi:cy="707.07074"
       sodipodi:rx="23.065676"
       sodipodi:ry="23.065676"
       d="M 1796.3478,707.07074 A 23.065676,23.065676 0 1 1 1750.2164,707.07074 A 23.065676,23.065676 0 1 1 1796.3478,707.07074 z"
       transform="matrix(0.4779164,0,0,0.4918098,-438.01228,-57.37421)" />
    <path
       transform="matrix(-0.5526395,0,0,0.5685945,1237.0266,-111.66639)"
       d="M 1796.3478,707.07074 A 23.065676,23.065676 0 1 1 1750.2164,707.07074 A 23.065676,23.065676 0 1 1 1796.3478,707.07074 z"
       sodipodi:ry="23.065676"
       sodipodi:rx="23.065676"
       sodipodi:cy="707.07074"
       sodipodi:cx="1773.2821"
       id="path9066"
       style="fill:#eac102;fill-opacity:1;fill-rule:evenodd;stroke:#000000;stroke-width:1.78393018px;stroke-linecap:round;stroke-linejoin:round;marker:none;marker-start:none;marker-mid:none;marker-end:none;stroke-miterlimit:4;stroke-dasharray:none;stroke-dashoffset:0;stroke-opacity:1;visibility:visible;display:inline;overflow:visible;enable-background:accumulate"
       sodipodi:type="arc" />
    <path
       sodipodi:type="arc"
       style="fill:#eac102;fill-opacity:1;fill-rule:evenodd;stroke:#000000;stroke-width:1.80437696px;stroke-linecap:round;stroke-linejoin:round;marker:none;marker-start:none;marker-mid:none;marker-end:none;stroke-miterlimit:4;stroke-dasharray:none;stroke-dashoffset:0;stroke-opacity:1;visibility:visible;display:inline;overflow:visible;enable-background:accumulate"
       id="path9068"
       sodipodi:cx="1773.2821"
       sodipodi:cy="707.07074"
       sodipodi:rx="23.065676"
       sodipodi:ry="23.065676"
       d="M 1796.3478,707.07074 A 23.065676,23.065676 0 1 1 1750.2164,707.07074 A 23.065676,23.065676 0 1 1 1796.3478,707.07074 z"
       transform="matrix(-0.5401856,0,0,0.5685945,1213.578,-111.66639)" />
    <path
       transform="matrix(-0.4779164,0,0,0.4918098,1102.8698,-57.37421)"
       d="M 1796.3478,707.07074 A 23.065676,23.065676 0 1 1 1750.2164,707.07074 A 23.065676,23.065676 0 1 1 1796.3478,707.07074 z"
       sodipodi:ry="23.065676"
       sodipodi:rx="23.065676"
       sodipodi:cy="707.07074"
       sodipodi:cx="1773.2821"
       id="path9070"
       style="fill:#e3e4e5;fill-opacity:1;fill-rule:evenodd;stroke:#000000;stroke-width:2.06264997px;stroke-linecap:round;stroke-linejoin:round;marker:none;marker-start:none;marker-mid:none;marker-end:none;stroke-miterlimit:4;stroke-dasharray:none;stroke-dashoffset:0;stroke-opacity:1;visibility:visible;display:inline;overflow:visible;enable-background:accumulate"
       sodipodi:type="arc" />
    <path
       sodipodi:nodetypes="ccccc"
       id="path9074"
       d="M 216.89943,291.82422 L 196.48381,281.98213 L 195.17602,282.21978 L 214.6472,292.23349 L 216.89943,291.82422 z"
       style="fill:none;fill-rule:evenodd;stroke:#000000;stroke-width:0.99999982px;stroke-linecap:round;stroke-linejoin:round;stroke-opacity:1" />
    <path
       style="fill:none;fill-rule:evenodd;stroke:#000000;stroke-width:0.99999982px;stroke-linecap:round;stroke-linejoin:round;stroke-opacity:1"
       d="M 216.89943,291.82422 L 196.48381,309.08603 L 195.17602,309.32367 L 214.6472,292.23349 L 216.89943,291.82422 z"
       id="path9076"
       sodipodi:nodetypes="ccccc" />
    <path
       sodipodi:nodetypes="ccc"
       id="path9078"
       d="M 195.14621,309.28242 L 176.81117,299.4564 L 195.10456,282.30225"
       style="fill:none;fill-opacity:1;fill-rule:evenodd;stroke:#000000;stroke-width:0.99999982px;stroke-linecap:round;stroke-linejoin:round;marker:none;marker-start:none;marker-mid:none;marker-end:none;stroke-miterlimit:4;stroke-dasharray:none;stroke-dashoffset:0;stroke-opacity:1;visibility:visible;display:inline;overflow:visible;enable-background:accumulate" />
    <path
       id="path9082"
       d="M 209.58653,293.29208 L 194.9375,306.44812 L 180.50289,298.50756 L 195.00896,285.58599 L 209.58653,293.29208 z"
       style="fill:#008f4c;fill-rule:evenodd;stroke:#000000;stroke-width:0.99999982px;stroke-linecap:round;stroke-linejoin:round;stroke-opacity:1" />
    <path
       style="fill:none;fill-rule:evenodd;stroke:#000000;stroke-width:0.5999999;stroke-linecap:round;stroke-linejoin:round;stroke-miterlimit:4;stroke-dasharray:none;stroke-opacity:1"
       d="M 199.73571,295.11502 L 191.98675,302.05001 L 184.35122,297.87404 L 192.02455,291.0626 L 199.73571,295.11502 z"
       id="path9084" />
    <path
       sodipodi:nodetypes="cc"
       id="path9086"
       d="M 195.00896,306.36564 L 191.97188,302.05258"
       style="fill:none;fill-rule:evenodd;stroke:#000000;stroke-width:0.5999999;stroke-linecap:round;stroke-linejoin:round;stroke-miterlimit:4;stroke-dasharray:none;stroke-opacity:1" />
    <path
       sodipodi:nodetypes="cc"
       id="path9088"
       d="M 180.71723,298.46862 L 184.3797,297.85532"
       style="fill:none;fill-rule:evenodd;stroke:#000000;stroke-width:0.5999999;stroke-linecap:round;stroke-linejoin:round;stroke-miterlimit:4;stroke-dasharray:none;stroke-opacity:1" />
    <path
       id="path9090"
       d="M 199.72522,295.08405 L 209.30069,293.34402"
       style="fill:none;fill-rule:evenodd;stroke:#000000;stroke-width:0.5999999;stroke-linecap:round;stroke-linejoin:round;stroke-miterlimit:4;stroke-dasharray:none;stroke-opacity:1" />
    <path
       sodipodi:nodetypes="cc"
       id="path9092"
       d="M 191.98995,291.12128 L 195.00896,285.58599"
       style="fill:none;fill-rule:evenodd;stroke:#000000;stroke-width:0.5999999;stroke-linecap:round;stroke-linejoin:round;stroke-miterlimit:4;stroke-dasharray:none;stroke-opacity:1" />
    <path
       style="fill:none;fill-rule:evenodd;stroke:#000000;stroke-width:0.99999982px;stroke-linecap:round;stroke-linejoin:round;stroke-opacity:1"
       d="M 447.95783,291.82422 L 468.37345,281.98213 L 469.68124,282.21978 L 450.21006,292.23349 L 447.95783,291.82422 z"
       id="path9096"
       sodipodi:nodetypes="ccccc" />
    <path
       sodipodi:nodetypes="ccccc"
       id="path9098"
       d="M 447.95783,291.82422 L 468.37345,309.08603 L 469.68124,309.32367 L 450.21006,292.23349 L 447.95783,291.82422 z"
       style="fill:none;fill-rule:evenodd;stroke:#000000;stroke-width:0.99999982px;stroke-linecap:round;stroke-linejoin:round;stroke-opacity:1" />
    <path
       style="fill:none;fill-opacity:1;fill-rule:evenodd;stroke:#000000;stroke-width:0.99999982px;stroke-linecap:round;stroke-linejoin:round;marker:none;marker-start:none;marker-mid:none;marker-end:none;stroke-miterlimit:4;stroke-dasharray:none;stroke-dashoffset:0;stroke-opacity:1;visibility:visible;display:inline;overflow:visible;enable-background:accumulate"
       d="M 469.71105,309.28242 L 488.04609,299.4564 L 469.7527,282.30225"
       id="path9100"
       sodipodi:nodetypes="ccc" />
    <path
       style="fill:#008f4c;fill-rule:evenodd;stroke:#000000;stroke-width:0.99999982px;stroke-linecap:round;stroke-linejoin:round;stroke-opacity:1"
       d="M 455.27073,293.29208 L 469.91976,306.44812 L 484.35437,298.50756 L 469.8483,285.58599 L 455.27073,293.29208 z"
       id="path9104" />
    <path
       id="path9106"
       d="M 465.12155,295.11502 L 472.87051,302.05001 L 480.50604,297.87404 L 472.83271,291.0626 L 465.12155,295.11502 z"
       style="fill:none;fill-rule:evenodd;stroke:#000000;stroke-width:0.49999985;stroke-linecap:round;stroke-linejoin:round;stroke-miterlimit:4;stroke-dasharray:none;stroke-opacity:1" />
    <path
       style="fill:none;fill-rule:evenodd;stroke:#000000;stroke-width:0.49999985;stroke-linecap:round;stroke-linejoin:round;stroke-miterlimit:4;stroke-dasharray:none;stroke-opacity:1"
       d="M 469.8483,306.36564 L 472.88538,302.05258"
       id="path9108"
       sodipodi:nodetypes="cc" />
    <path
       style="fill:none;fill-rule:evenodd;stroke:#000000;stroke-width:0.49999985;stroke-linecap:round;stroke-linejoin:round;stroke-miterlimit:4;stroke-dasharray:none;stroke-opacity:1"
       d="M 484.14003,298.46862 L 480.47756,297.85532"
       id="path9110"
       sodipodi:nodetypes="cc" />
    <path
       style="fill:none;fill-rule:evenodd;stroke:#000000;stroke-width:0.49999985;stroke-linecap:round;stroke-linejoin:round;stroke-miterlimit:4;stroke-dasharray:none;stroke-opacity:1"
       d="M 465.13204,295.08405 L 455.55657,293.34402"
       id="path9112" />
    <path
       style="fill:none;fill-rule:evenodd;stroke:#000000;stroke-width:0.49999985;stroke-linecap:round;stroke-linejoin:round;stroke-miterlimit:4;stroke-dasharray:none;stroke-opacity:1"
       d="M 472.86731,291.12128 L 469.8483,285.58599"
       id="path9114"
       sodipodi:nodetypes="cc" />
    <rect
       style="fill:#eac102;fill-opacity:1;fill-rule:nonzero;stroke:#000000;stroke-width:1.00000024;stroke-linecap:butt;stroke-linejoin:miter;marker:none;marker-start:none;marker-mid:none;marker-end:none;stroke-miterlimit:4;stroke-dasharray:none;stroke-dashoffset:0;stroke-opacity:1;visibility:visible;display:inline;overflow:visible;enable-background:accumulate"
       id="rect9118"
       width="52.713264"
       height="26.649967"
       x="306.07214"
       y="275.53363"
       ry="13.324984"
       rx="13.479209" />
    <rect
       rx="12.128588"
       ry="11.506671"
       y="277.35193"
       x="308.71304"
       height="23.013342"
       width="47.431377"
       id="rect9120"
       style="fill:#ed1c24;fill-opacity:1;fill-rule:nonzero;stroke:#000000;stroke-width:1.00000024;stroke-linecap:butt;stroke-linejoin:miter;marker:none;marker-start:none;marker-mid:none;marker-end:none;stroke-miterlimit:4;stroke-dasharray:none;stroke-dashoffset:0;stroke-opacity:1;visibility:visible;display:inline;overflow:visible;enable-background:accumulate" />
    <path
       id="path9172"
       d="M 145.81797,326.62188 C 145.71875,326.65562 145.63817,326.72024 145.5371,326.75083 C 139.81629,328.48242 133.35586,324.45447 131.10509,317.76128 C 128.85427,311.06811 131.66222,304.23479 137.38299,302.50321 C 137.48405,302.47262 137.58919,302.48103 137.69067,302.45402 L 145.81797,326.62188 z"
       style="fill:#ed1c24;fill-opacity:1;fill-rule:nonzero;stroke:#000000;stroke-width:1.00000048;stroke-linecap:butt;stroke-linejoin:miter;marker:none;marker-start:none;marker-mid:none;marker-end:none;stroke-miterlimit:4;stroke-dasharray:none;stroke-dashoffset:0;stroke-opacity:1;visibility:visible;display:inline;overflow:visible;enable-background:accumulate" />
    <path
       sodipodi:nodetypes="ccccc"
       id="path9174"
       d="M 138.19978,299.88919 L 135.08334,300.83248 L 144.60068,329.13386 L 147.71712,328.19057 C 145.14445,316.92858 141.82997,306.47906 138.19978,299.88919 z"
       style="fill:#eac102;fill-opacity:1;fill-rule:nonzero;stroke:#000000;stroke-width:1.00000048;stroke-linecap:butt;stroke-linejoin:miter;marker:none;marker-start:none;marker-mid:none;marker-end:none;stroke-miterlimit:4;stroke-dashoffset:0;stroke-opacity:1;visibility:visible;display:inline;overflow:visible;enable-background:accumulate" />
    <path
       sodipodi:nodetypes="cscccccsccc"
       id="path9178"
       d="M 155.06734,289.52211 C 158.01328,289.58447 161.79995,294.92177 163.81268,302.04839 C 165.82532,309.17448 165.35477,315.57938 162.83683,317.03143 L 162.73079,317.08728 C 162.58092,317.16374 162.42661,317.22239 162.26294,317.264 L 157.33033,318.50706 L 155.09485,310.59191 C 154.25236,308.88266 153.49976,306.93892 152.90183,304.82203 C 152.30395,302.70513 151.92756,300.65131 151.75636,298.7714 L 149.54195,290.93085 L 155.06734,289.52211 z"
       style="fill:#eac102;fill-opacity:1;fill-rule:evenodd;stroke:#000000;stroke-width:1.00000024px;stroke-linecap:round;stroke-linejoin:round;marker:none;marker-start:none;marker-mid:none;marker-end:none;stroke-miterlimit:4;stroke-dasharray:none;stroke-dashoffset:0;stroke-opacity:1;visibility:visible;display:inline;overflow:visible;enable-background:accumulate" />
    <path
       transform="matrix(-0.8995649,0.2286779,0.1210959,0.4287623,1905.8067,-463.52656)"
       d="M 2048.3786,702.48627 A 6.0690784,32.088638 0 1 1 2036.2405,702.48627 A 6.0690784,32.088638 0 1 1 2048.3786,702.48627 z"
       sodipodi:ry="32.088638"
       sodipodi:rx="6.0690784"
       sodipodi:cy="702.48627"
       sodipodi:cx="2042.3096"
       id="path9180"
       style="fill:#eac102;fill-opacity:1;fill-rule:evenodd;stroke:#000000;stroke-width:1.55531836px;stroke-linecap:round;stroke-linejoin:round;marker:none;marker-start:none;marker-mid:none;marker-end:none;stroke-miterlimit:4;stroke-dasharray:none;stroke-dashoffset:0;stroke-opacity:1;visibility:visible;display:inline;overflow:visible;enable-background:accumulate"
       sodipodi:type="arc" />
    <path
       sodipodi:nodetypes="ccc"
       id="path9182"
       d="M 149.71245,292.6432 C 139.22546,298.90593 145.05238,316.78597 156.77516,317.64999 C 163.78355,314.26339 156.13925,291.1298 149.71245,292.6432 z"
       style="fill:#e3e4e5;fill-opacity:1;fill-rule:evenodd;stroke:#000000;stroke-width:1.00000024px;stroke-linecap:round;stroke-linejoin:round;marker:none;marker-start:none;marker-mid:none;marker-end:none;stroke-miterlimit:4;stroke-dashoffset:0;stroke-opacity:1;visibility:visible;display:inline;overflow:visible;enable-background:accumulate" />
    <path
       style="fill:#ed1c24;fill-opacity:1;fill-rule:nonzero;stroke:#000000;stroke-width:1.00000048;stroke-linecap:butt;stroke-linejoin:miter;marker:none;marker-start:none;marker-mid:none;marker-end:none;stroke-miterlimit:4;stroke-dasharray:none;stroke-dashoffset:0;stroke-opacity:1;visibility:visible;display:inline;overflow:visible;enable-background:accumulate"
       d="M 519.03951,326.62188 C 519.13873,326.65562 519.21931,326.72024 519.32038,326.75083 C 525.04119,328.48242 531.50162,324.45447 533.75239,317.76128 C 536.00321,311.06811 533.19526,304.23479 527.47449,302.50321 C 527.37343,302.47262 527.26829,302.48103 527.16681,302.45402 L 519.03951,326.62188 z"
       id="path9188" />
    <path
       style="fill:#eac102;fill-opacity:1;fill-rule:nonzero;stroke:#000000;stroke-width:1.00000048;stroke-linecap:butt;stroke-linejoin:miter;marker:none;marker-start:none;marker-mid:none;marker-end:none;stroke-miterlimit:4;stroke-dashoffset:0;stroke-opacity:1;visibility:visible;display:inline;overflow:visible;enable-background:accumulate"
       d="M 526.6577,299.88919 L 529.77414,300.83248 L 520.2568,329.13386 L 517.14036,328.19057 C 519.71303,316.92858 523.02751,306.47906 526.6577,299.88919 z"
       id="path9190"
       sodipodi:nodetypes="ccccc" />
    <path
       style="fill:#e3e4e5;fill-opacity:1;stroke:#010101;stroke-width:1.00000012;stroke-miterlimit:4;stroke-dasharray:none"
       d="M 537.07973,302.2459 C 531.84643,302.177 527.66353,297.8824 527.73243,292.6491 C 527.80133,287.4205 532.09593,283.2376 537.32923,283.3066 C 542.56023,283.3755 546.74303,287.67 546.67413,292.8986 C 546.60513,298.1319 542.31073,302.3149 537.07973,302.2459 z"
       type="arc"
       cx="-486.21375"
       ry="3.9327636"
       cy="-89.381149"
       rx="3.9327636"
       id="path3539" />
    <path
       style="fill:#eac102;fill-opacity:1;fill-rule:evenodd;stroke:#000000;stroke-width:1.00000024px;stroke-linecap:round;stroke-linejoin:round;marker:none;marker-start:none;marker-mid:none;marker-end:none;stroke-miterlimit:4;stroke-dasharray:none;stroke-dashoffset:0;stroke-opacity:1;visibility:visible;display:inline;overflow:visible;enable-background:accumulate"
       d="M 509.79014,289.52211 C 506.8442,289.58447 503.05753,294.92177 501.0448,302.04839 C 499.03216,309.17448 499.50271,315.57938 502.02065,317.03143 L 502.12669,317.08728 C 502.27656,317.16374 502.43088,317.22239 502.59454,317.264 L 507.52715,318.50706 L 509.76263,310.59191 C 510.60512,308.88266 511.35772,306.93892 511.95565,304.82203 C 512.55353,302.70513 512.92992,300.65131 513.10112,298.7714 L 515.31553,290.93085 L 509.79014,289.52211 z"
       id="path9194"
       sodipodi:nodetypes="cscccccsccc" />
    <path
       sodipodi:type="arc"
       style="fill:#eac102;fill-opacity:1;fill-rule:evenodd;stroke:#000000;stroke-width:1.55531836px;stroke-linecap:round;stroke-linejoin:round;marker:none;marker-start:none;marker-mid:none;marker-end:none;stroke-miterlimit:4;stroke-dasharray:none;stroke-dashoffset:0;stroke-opacity:1;visibility:visible;display:inline;overflow:visible;enable-background:accumulate"
       id="path9196"
       sodipodi:cx="2042.3096"
       sodipodi:cy="702.48627"
       sodipodi:rx="6.0690784"
       sodipodi:ry="32.088638"
       d="M 2048.3786,702.48627 A 6.0690784,32.088638 0 1 1 2036.2405,702.48627 A 6.0690784,32.088638 0 1 1 2048.3786,702.48627 z"
       transform="matrix(0.8995649,0.2286779,-0.1210959,0.4287623,-1240.9493,-463.52656)" />
    <path
       style="fill:#e3e4e5;fill-opacity:1;fill-rule:evenodd;stroke:#000000;stroke-width:1.00000024px;stroke-linecap:round;stroke-linejoin:round;marker:none;marker-start:none;marker-mid:none;marker-end:none;stroke-miterlimit:4;stroke-dashoffset:0;stroke-opacity:1;visibility:visible;display:inline;overflow:visible;enable-background:accumulate"
       d="M 515.14503,292.6432 C 525.63202,298.90593 519.8051,316.78597 508.08232,317.64999 C 501.07392,314.26339 508.71823,291.1298 515.14503,292.6432 z"
       id="path9198"
       sodipodi:nodetypes="ccc" />
    <path
       style="fill:#e3e4e5;fill-opacity:1;stroke:#010101;stroke-width:1.00000012;stroke-miterlimit:4;stroke-dasharray:none"
       d="M 330.67185,368.53553 C 325.43856,368.46657 321.25567,364.17199 321.32461,358.9387 C 321.39348,353.71009 325.68805,349.52727 330.92136,349.59622 C 336.15236,349.66506 340.33514,353.95964 340.26627,359.18825 C 340.19733,364.42154 335.90288,368.60448 330.67185,368.53553 z"
       type="arc"
       cx="-486.21375"
       ry="3.9327636"
       cy="-89.381149"
       rx="3.9327636"
       id="path3544" />
    <path
       id="path3546"
       rx="3.9327636"
       cy="-89.381149"
       ry="3.9327636"
       cx="-486.21375"
       type="arc"
       d="M 412.69812,366.96915 C 407.46483,366.9002 403.28194,362.60562 403.35088,357.37233 C 403.41975,352.14372 407.71432,347.9609 412.94762,348.02985 C 418.17863,348.09868 422.36141,352.39326 422.29254,357.62188 C 422.2236,362.85517 417.92914,367.0381 412.69812,366.96915 z"
       style="fill:#e3e4e5;fill-opacity:1;stroke:#010101;stroke-width:1.00000012;stroke-miterlimit:4;stroke-dasharray:none" />
    <path
       id="path3548"
       rx="3.9327636"
       cy="-89.381149"
       ry="3.9327636"
       cx="-486.21375"
       type="arc"
       d="M 235.07923,366.29434 C 229.84593,366.22539 225.66304,361.93081 225.73198,356.69752 C 225.80085,351.46891 230.09542,347.28609 235.32873,347.35504 C 240.55974,347.42387 244.74251,351.71845 244.67364,356.94707 C 244.6047,362.18036 240.31025,366.36329 235.07923,366.29434 z"
       style="fill:#e3e4e5;fill-opacity:1;stroke:#010101;stroke-width:1.00000012;stroke-miterlimit:4;stroke-dasharray:none" />
    <path
       style="fill:#e3e4e5;fill-opacity:1;stroke:#010101;stroke-width:1.00000012;stroke-miterlimit:4;stroke-dasharray:none"
       d="M 155.29408,353.81209 C 150.06079,353.74314 145.8779,349.44856 145.94684,344.21527 C 146.01571,338.98666 150.31028,334.80384 155.54358,334.87279 C 160.77459,334.94162 164.95737,339.2362 164.8885,344.46482 C 164.81956,349.69811 160.5251,353.88104 155.29408,353.81209 z"
       type="arc"
       cx="-486.21375"
       ry="3.9327636"
       cy="-89.381149"
       rx="3.9327636"
       id="path3550" />
    <path
       sodipodi:nodetypes="czczc"
       id="path9202"
       d="M 160.90388,334.878 C 160.90388,334.878 197.96544,317.01017 332.4285,317.01017 C 466.44605,317.01017 503.95303,334.878 503.95303,334.878 C 503.95303,334.878 472.60565,352.74584 332.4285,352.74584 C 191.80556,352.74584 160.90388,334.878 160.90388,334.878 z"
       style="fill:#eac102;fill-rule:evenodd;stroke:#000000;stroke-width:1px;stroke-linecap:butt;stroke-linejoin:miter;stroke-opacity:1" />
    <path
       d="M 288.77095,355.59879 L 288.77095,314.25816"
       style="font-size:12px;fill:none;stroke:#000000;stroke-width:0.52008164"
       id="path9206" />
    <path
       d="M 280.88903,355.59879 L 280.88903,314.25816"
       style="font-size:12px;fill:none;stroke:#000000;stroke-width:0.76567769"
       id="path9208" />
    <path
       d="M 273.44858,355.59879 L 273.44858,314.25816"
       style="font-size:12px;fill:none;stroke:#000000;stroke-width:1.02572083"
       id="path9210" />
    <path
       d="M 266.07263,355.59879 L 266.07263,314.25816"
       style="font-size:12px;fill:none;stroke:#000000;stroke-width:1.28576362"
       id="path9212" />
    <path
       d="M 259.50033,355.59879 L 259.50033,314.25816"
       style="font-size:12px;fill:none;stroke:#000000;stroke-width:1.54580235"
       id="path9214" />
    <path
       d="M 246.96575,353.36982 L 246.79212,315.74302 M 252.90813,353.86483 L 252.90813,314.50723"
       style="font-size:12px;fill:none;stroke:#000000;stroke-width:1.80584526"
       id="path9216" />
    <path
       d="M 235.39333,351.67791 L 235.39333,317.01116 M 241.25645,352.66782 L 241.08282,315.77537"
       style="font-size:12px;fill:none;stroke:#000000;stroke-width:2.05144167"
       id="path9218" />
    <path
       d="M 219.86775,349.69809 L 219.86775,319.24012 M 224.96187,350.19305 L 224.96187,318.25015 M 230.2099,351.18296 L 230.2099,318.00107"
       style="font-size:12px;fill:none;stroke:#000000;stroke-width:2.31148434"
       id="path9220" />
    <path
       d="M 214.42627,349.44901 L 214.42627,319.98416"
       style="font-size:12px;fill:none;stroke:#000000;stroke-width:2.57152724"
       id="path9222" />
    <path
       d="M 209.35196,347.96408 L 209.35196,320.47912"
       style="font-size:12px;fill:none;stroke:#000000;stroke-width:2.8315661"
       id="path9224" />
    <path
       d="M 203.91057,347.21999 L 203.91057,321.7149"
       style="font-size:12px;fill:none;stroke:#000000;stroke-width:3.091609"
       id="path9226" />
    <path
       d="M 192.76977,344.99429 L 192.59607,324.68797 M 198.47895,345.98427 L 198.47895,323.20304"
       style="font-size:12px;fill:none;stroke:#000000;stroke-width:3.33720565"
       id="path9228" />
    <path
       d="M 187.06047,343.26027 L 187.06047,325.42873"
       style="font-size:12px;fill:none;stroke:#000000;stroke-width:3.52501416"
       id="path9230" />
    <path
       d="M 181.83235,341.81425 L 181.83235,326.96534"
       style="font-size:12px;fill:none;stroke:#000000;stroke-width:3.78505349"
       id="path9232" />
    <path
       d="M 176.12305,339.83443 L 176.12305,328.2044"
       style="font-size:12px;fill:none;stroke:#000000;stroke-width:4.03064871"
       id="path9234" />
    <path
       d="M 170.25505,338.84452 L 170.25505,330.18428"
       style="font-size:12px;fill:none;stroke:#000000;stroke-width:4.27626181"
       id="path9236" />
    <path
       d="M 164.04443,336.86658 L 164.04443,332.65805"
       style="font-size:12px;fill:none;stroke:#000000;stroke-width:5.04192257"
       id="path9238" />
    <path
       d="M 320.12975,353.36982 L 320.12975,315.4972 M 306.77677,354.60887 L 306.95031,314.50723 M 297.04463,355.10382 L 297.04463,314.25816"
       style="font-size:12px;fill:none;stroke:#000000;stroke-width:0.26004165"
       id="path9240" />
    <path
       id="path9242"
       style="font-size:12px;fill:none;stroke:#000000;stroke-width:0.52008164"
       d="M 376.08613,355.59879 L 376.08613,314.25816" />
    <path
       id="path9244"
       style="font-size:12px;fill:none;stroke:#000000;stroke-width:0.76567769"
       d="M 383.96795,355.59879 L 383.96795,314.25816" />
    <path
       id="path9246"
       style="font-size:12px;fill:none;stroke:#000000;stroke-width:1.02572083"
       d="M 391.4084,355.59879 L 391.4084,314.25816" />
    <path
       id="path9248"
       style="font-size:12px;fill:none;stroke:#000000;stroke-width:1.28576362"
       d="M 398.78435,355.59879 L 398.78435,314.25816" />
    <path
       id="path9250"
       style="font-size:12px;fill:none;stroke:#000000;stroke-width:1.54580235"
       d="M 405.35665,355.59879 L 405.35665,314.25816" />
    <path
       id="path9252"
       style="font-size:12px;fill:none;stroke:#000000;stroke-width:1.80584526"
       d="M 417.89132,353.36982 L 418.06495,315.74302 M 411.94885,353.86483 L 411.94885,314.50723" />
    <path
       id="path9254"
       style="font-size:12px;fill:none;stroke:#000000;stroke-width:2.05144167"
       d="M 429.46365,351.67791 L 429.46365,317.01116 M 423.60062,352.66782 L 423.77416,315.77537" />
    <path
       id="path9256"
       style="font-size:12px;fill:none;stroke:#000000;stroke-width:2.31148434"
       d="M 444.98933,349.69809 L 444.98933,319.24012 M 439.89511,350.19305 L 439.89511,318.25015 M 434.64708,351.18296 L 434.64708,318.00107" />
    <path
       id="path9258"
       style="font-size:12px;fill:none;stroke:#000000;stroke-width:2.57152724"
       d="M 450.4308,349.44901 L 450.4308,319.98416" />
    <path
       id="path9260"
       style="font-size:12px;fill:none;stroke:#000000;stroke-width:2.8315661"
       d="M 455.50511,347.96408 L 455.50511,320.47912" />
    <path
       id="path9262"
       style="font-size:12px;fill:none;stroke:#000000;stroke-width:3.091609"
       d="M 460.9465,347.21999 L 460.9465,321.7149" />
    <path
       id="path9264"
       style="font-size:12px;fill:none;stroke:#000000;stroke-width:3.33720565"
       d="M 472.08724,344.99429 L 472.26096,324.68797 M 466.37803,345.98427 L 466.37803,323.20304" />
    <path
       id="path9266"
       style="font-size:12px;fill:none;stroke:#000000;stroke-width:3.52501416"
       d="M 477.79654,343.26027 L 477.79654,325.42873" />
    <path
       id="path9268"
       style="font-size:12px;fill:none;stroke:#000000;stroke-width:3.78505349"
       d="M 483.02466,341.81425 L 483.02466,326.96534" />
    <path
       id="path9270"
       style="font-size:12px;fill:none;stroke:#000000;stroke-width:4.03064871"
       d="M 488.73396,339.83443 L 488.73396,328.2044" />
    <path
       id="path9272"
       style="font-size:12px;fill:none;stroke:#000000;stroke-width:4.27626181"
       d="M 494.60196,338.84452 L 494.60196,330.18428" />
    <path
       id="path9274"
       style="font-size:12px;fill:none;stroke:#000000;stroke-width:5.04192257"
       d="M 500.81253,336.86658 L 500.81253,332.65805" />
    <path
       id="path9276"
       style="font-size:12px;fill:none;stroke:#000000;stroke-width:0.26004165"
       d="M 344.72723,353.36982 L 344.72723,315.4972 M 358.0803,354.60887 L 357.90676,314.50723 M 367.81235,355.10382 L 367.81235,314.25816" />
    <path
       style="fill:#e3e4e5;fill-opacity:1;stroke:#010101;stroke-width:0.99999994;stroke-miterlimit:4;stroke-dasharray:none"
       d="M 498.90973,339.8442 C 501.09603,335.089 506.71833,333.0083 511.47363,335.1947 C 516.22443,337.379 518.30513,343.0014 516.11883,347.7566 C 513.93343,352.5097 508.31123,354.5903 503.56023,352.406 C 498.80503,350.2196 496.72423,344.5974 498.90973,339.8442 z"
       type="arc"
       cx="-486.21375"
       ry="3.9327636"
       cy="-89.381149"
       rx="3.9327636"
       id="path3589" />
    <path
       id="path9278"
       d="M 332.27505,304.74418 C 280.10023,305.26439 227.33144,305.31972 176.09049,315.75559 C 164.65549,319.20134 148.29925,321.11949 144.00684,333.32468 C 142.59862,343.519 155.51511,347.84616 163.59112,350.64784 C 202.06321,361.6735 242.73242,362.61334 282.5943,364.33697 C 344.6101,365.52464 407.00257,365.98534 468.55857,357.75198 C 485.37534,354.65054 503.89192,352.73574 517.72082,342.28682 C 525.9781,334.56471 516.85524,323.76914 507.72713,321.5482 C 476.4133,310.07706 442.26237,308.85572 409.14338,306.52021 C 383.54715,305.18664 357.90667,304.76112 332.27505,304.74418 z M 332.4191,317.01248 C 466.43656,317.0125 503.95432,334.88212 503.95432,334.88212 C 503.95423,334.88211 472.59616,352.75176 332.4191,352.75176 C 191.79607,352.75176 160.91263,334.88212 160.91263,334.88212 C 160.91263,334.88211 197.95595,317.01248 332.4191,317.01248 z"
       style="fill:#eac102;fill-rule:evenodd;stroke:#000000;stroke-width:1px;stroke-linecap:butt;stroke-linejoin:miter;stroke-opacity:1" />
    <path
       style="fill:#e3e4e5;fill-opacity:1;stroke:#010101;stroke-width:1;stroke-miterlimit:4;stroke-dasharray:none"
       d="M 482.83513,328.77478 C 482.43403,329.30848 482.03133,329.15561 481.74133,329.78631 C 479.55603,334.53941 481.64223,340.16251 486.39763,342.34881 C 491.14853,344.53311 496.77463,342.44561 498.96013,337.69261 C 499.87283,335.70731 499.88953,335.16983 499.42883,333.19553 C 492.30026,331.03158 486.40094,329.24567 482.83513,328.77478 z"
       id="path3592"
       sodipodi:nodetypes="cssscc" />
    <path
       style="fill:#e3e4e5;fill-opacity:1;stroke:#010101;stroke-width:1.00000012;stroke-miterlimit:4;stroke-dasharray:none"
       d="M 499.8085,355.59534 C 494.57521,355.52638 490.39232,351.2318 490.46126,345.99851 C 490.53013,340.7699 494.8247,336.58708 500.058,336.65603 C 505.28901,336.72487 509.47179,341.01945 509.40292,346.24806 C 509.33398,351.48135 505.03952,355.66429 499.8085,355.59534 z"
       type="arc"
       cx="-486.21375"
       ry="3.9327636"
       cy="-89.381149"
       rx="3.9327636"
       id="path3594" />
    <path
       id="path3596"
       rx="3.9327636"
       cy="-89.381149"
       ry="3.9327636"
       cx="-486.21375"
       type="arc"
       d="M 536.38803,288.9672 C 531.15473,288.8982 526.97183,284.6036 527.04073,279.3704 C 527.10963,274.1417 531.40423,269.9589 536.63753,270.0279 C 541.86853,270.0967 546.05123,274.3913 545.98243,279.6199 C 545.91343,284.8532 541.61903,289.0361 536.38803,288.9672 z"
       style="fill:#e3e4e5;fill-opacity:1;stroke:#010101;stroke-width:1.00000012;stroke-miterlimit:4;stroke-dasharray:none" />
    <path
       id="path3598"
       rx="9.7493839"
       cy="-132.80592"
       ry="9.7493839"
       cx="-514.24567"
       type="arc"
       d="M 550.42855,258.89171 C 550.42855,271.28982 540.37591,281.33962 527.97133,281.33962 C 515.56444,281.33962 505.50949,271.29222 505.50949,258.89171 C 505.50949,246.49599 515.56214,236.4463 527.97133,236.4463 C 540.37591,236.4463 550.42855,246.4937 550.42855,258.89171 z"
       style="fill:#e3e4e5;fill-opacity:1;stroke:#010101;stroke-width:1.00000012;stroke-miterlimit:4;stroke-dasharray:none" />
    <path
       style="fill:#e3e4e5;fill-opacity:1;stroke:#010101;stroke-width:1.00000012;stroke-miterlimit:4;stroke-dasharray:none"
       d="M 157.34795,260.89153 C 157.34795,273.28965 147.2907,283.33945 134.88612,283.33945 C 122.48385,283.33945 112.42889,273.29193 112.42889,260.89153 C 112.42889,248.49581 122.48155,238.44602 134.88612,238.44602 C 147.2907,238.44602 157.34795,248.49353 157.34795,260.89153 z"
       type="arc"
       cx="-514.24567"
       ry="9.7493839"
       cy="-132.80592"
       rx="9.7493839"
       id="path3600" />
    <path
       style="fill:#e3e4e5;fill-opacity:1;stroke:#010101;stroke-width:1.00000012;stroke-miterlimit:4;stroke-dasharray:none"
       d="M 282.06011,241.96895 C 282.06011,254.36718 272.00516,264.41687 259.60289,264.41687 C 247.20062,264.41687 237.14105,254.36947 237.14105,241.96895 C 237.14105,229.57323 247.19831,219.52355 259.60289,219.52355 C 272.00516,219.52355 282.06011,229.57323 282.06011,241.96895 z"
       type="arc"
       cx="-514.24567"
       ry="9.7493839"
       cy="-132.80592"
       rx="9.7493839"
       id="path3602" />
    <path
       id="path3604"
       rx="9.7493839"
       cy="-132.80592"
       ry="9.7493839"
       cx="-514.24567"
       type="arc"
       d="M 427.71641,241.96918 C 427.71641,254.36501 417.66376,264.4171 405.25918,264.4171 C 392.8569,264.4171 382.80196,254.36741 382.80196,241.96918 C 382.80196,229.57118 392.8569,219.52149 405.25918,219.52149 C 417.66376,219.52378 427.71641,229.57346 427.71641,241.96918 z"
       style="fill:#e3e4e5;fill-opacity:1;stroke:#010101;stroke-width:1.00000012;stroke-miterlimit:4;stroke-dasharray:none" />
    <path
       id="path3606"
       rx="3.9327636"
       cy="-89.381149"
       ry="3.9327636"
       cx="-486.21375"
       type="arc"
       d="M 289.79521,252.40217 C 289.79521,257.63592 285.55614,261.87502 280.32233,261.87502 C 275.09333,261.87502 270.85425,257.63592 270.85425,252.40217 C 270.85425,247.17071 275.09333,242.93172 280.32233,242.93172 C 285.55614,242.93172 289.79521,247.17071 289.79521,252.40217 z"
       style="fill:#e3e4e5;fill-opacity:1;stroke:#010101;stroke-width:0.99999994;stroke-miterlimit:4;stroke-dasharray:none" />
    <path
       style="fill:#e3e4e5;fill-opacity:1;stroke:#010101;stroke-width:0.99999994;stroke-miterlimit:4;stroke-dasharray:none"
       d="M 303.16906,257.53492 C 303.16906,262.76867 298.92999,267.00777 293.69618,267.00777 C 288.46718,267.00777 284.2281,262.76867 284.2281,257.53492 C 284.2281,252.30346 288.46718,248.06447 293.69618,248.06447 C 298.92999,248.06447 303.16906,252.30346 303.16906,257.53492 z"
       type="arc"
       cx="-486.21375"
       ry="3.9327636"
       cy="-89.381149"
       rx="3.9327636"
       id="path3608" />
    <path
       id="path3610"
       rx="3.9327636"
       cy="-89.381149"
       ry="3.9327636"
       cx="-486.21375"
       type="arc"
       d="M 314.3681,268.73394 C 314.3681,273.96768 310.12902,278.20678 304.89522,278.20678 C 299.66622,278.20678 295.42714,273.96768 295.42714,268.73394 C 295.42714,263.50247 299.66622,259.26348 304.89522,259.26348 C 310.12902,259.26348 314.3681,263.50247 314.3681,268.73394 z"
       style="fill:#e3e4e5;fill-opacity:1;stroke:#010101;stroke-width:0.99999994;stroke-miterlimit:4;stroke-dasharray:none" />
    <path
       style="fill:#e3e4e5;fill-opacity:1;stroke:#010101;stroke-width:0.99999994;stroke-miterlimit:4;stroke-dasharray:none"
       d="M 322.78404,281.21619 C 322.78404,286.44994 318.54496,290.68904 313.31116,290.68904 C 308.08216,290.68904 303.84308,286.44994 303.84308,281.21619 C 303.84308,275.98472 308.08216,271.74574 313.31116,271.74574 C 318.54496,271.74574 322.78404,275.98472 322.78404,281.21619 z"
       type="arc"
       cx="-486.21375"
       ry="3.9327636"
       cy="-89.381149"
       rx="3.9327636"
       id="path3612" />
    <path
       id="path3614"
       rx="3.9327636"
       cy="-89.381149"
       ry="3.9327636"
       cx="-486.21375"
       type="arc"
       d="M 329.02517,295.48168 C 329.02517,300.71543 324.78609,304.95453 319.55228,304.95453 C 314.32328,304.95453 310.08421,300.71543 310.08421,295.48168 C 310.08421,290.25022 314.32328,286.01123 319.55228,286.01123 C 324.78609,286.01123 329.02517,290.25022 329.02517,295.48168 z"
       style="fill:#e3e4e5;fill-opacity:1;stroke:#010101;stroke-width:0.99999994;stroke-miterlimit:4;stroke-dasharray:none" />
    <path
       style="fill:#e3e4e5;fill-opacity:1;stroke:#010101;stroke-width:0.99999994;stroke-miterlimit:4;stroke-dasharray:none"
       d="M 168.09953,267.5693 C 169.28263,272.6676 166.11143,277.7551 161.01313,278.9382 C 155.91943,280.1202 150.83183,276.9491 149.64883,271.8507 C 148.46633,266.7547 151.63743,261.6672 156.73113,260.4852 C 161.82943,259.3021 166.91703,262.4732 168.09953,267.5693 z"
       type="arc"
       cx="-486.21375"
       ry="3.9327636"
       cy="-89.381149"
       rx="3.9327636"
       id="path3618" />
    <path
       id="path3620"
       rx="3.9327636"
       cy="-89.381149"
       ry="3.9327636"
       cx="-486.21375"
       type="arc"
       d="M 182.73953,271.4944 C 183.92263,276.5927 180.75143,281.6803 175.65313,282.8633 C 170.55943,284.0453 165.47183,280.8741 164.28883,275.7759 C 163.10633,270.6798 166.27743,265.5923 171.37113,264.4103 C 176.46943,263.2273 181.55703,266.3983 182.73953,271.4944 z"
       style="fill:#e3e4e5;fill-opacity:1;stroke:#010101;stroke-width:0.99999994;stroke-miterlimit:4;stroke-dasharray:none" />
    <path
       style="fill:#e3e4e5;fill-opacity:1;stroke:#010101;stroke-width:0.99999994;stroke-miterlimit:4;stroke-dasharray:none"
       d="M 196.18013,279.872 C 197.36323,284.9704 194.19213,290.0579 189.09373,291.241 C 184.00003,292.423 178.91253,289.2519 177.72943,284.1535 C 176.54693,279.0574 179.71813,273.97 184.81173,272.788 C 189.91013,271.6049 194.99763,274.776 196.18013,279.872 z"
       type="arc"
       cx="-486.21375"
       ry="3.9327636"
       cy="-89.381149"
       rx="3.9327636"
       id="path3622" />
    <path
       id="path3624"
       rx="3.9327636"
       cy="-89.381149"
       ry="3.9327636"
       cx="-486.21375"
       type="arc"
       d="M 208.09143,290.1289 C 209.27443,295.2272 206.10333,300.3148 201.00493,301.4978 C 195.91133,302.6798 190.82373,299.5086 189.64063,294.4104 C 188.45813,289.3143 191.62933,284.2268 196.72293,283.0448 C 201.82133,281.8618 206.90883,285.0328 208.09143,290.1289 z"
       style="fill:#e3e4e5;fill-opacity:1;stroke:#010101;stroke-width:0.99999994;stroke-miterlimit:4;stroke-dasharray:none" />
    <path
       style="fill:#e3e4e5;fill-opacity:1;stroke:#010101;stroke-width:0.99999994;stroke-miterlimit:4;stroke-dasharray:none"
       d="M 217.61243,301.5059 C 218.79543,306.6043 215.62433,311.6918 210.52593,312.8749 C 205.43233,314.0569 200.34473,310.8857 199.16163,305.7874 C 197.97913,300.6913 201.15033,295.6039 206.24393,294.4219 C 211.34233,293.2388 216.42983,296.4099 217.61243,301.5059 z"
       type="arc"
       cx="-486.21375"
       ry="3.9327636"
       cy="-89.381149"
       rx="3.9327636"
       id="path3626" />
    <path
       style="fill:#e3e4e5;fill-opacity:1;stroke:#010101;stroke-width:1;stroke-miterlimit:4;stroke-dasharray:none"
       d="M 433.23516,254.8595 C 432.06829,259.96152 426.99081,263.14881 421.88874,261.98193 C 416.79135,260.81612 413.60408,255.73862 414.77095,250.6366 C 415.93731,245.53681 421.01477,242.34963 426.11216,243.51544 C 431.21423,244.68232 434.40152,249.75971 433.23516,254.8595 z"
       type="arc"
       cx="-486.21375"
       ry="3.9327636"
       cy="-89.381149"
       rx="3.9327636"
       id="path3628" />
    <path
       id="path3630"
       rx="3.9327636"
       cy="-89.381149"
       ry="3.9327636"
       cx="-486.21375"
       type="arc"
       d="M 444.68214,262.79442 C 443.51527,267.89644 438.43778,271.08374 433.33571,269.91685 C 428.23833,268.75105 425.05106,263.67354 426.21793,258.57153 C 427.38429,253.47174 432.46175,250.28455 437.55913,251.45036 C 442.6612,252.61724 445.8485,257.69464 444.68214,262.79442 z"
       style="fill:#e3e4e5;fill-opacity:1;stroke:#010101;stroke-width:1;stroke-miterlimit:4;stroke-dasharray:none" />
    <path
       style="fill:#e3e4e5;fill-opacity:1;stroke:#010101;stroke-width:1;stroke-miterlimit:4;stroke-dasharray:none"
       d="M 453.10247,276.20839 C 451.9356,281.3104 446.85811,284.4977 441.75604,283.33082 C 436.65866,282.16501 433.47139,277.08751 434.63826,271.98549 C 435.80461,266.8857 440.88208,263.69852 445.97946,264.86433 C 451.08153,266.03121 454.26883,271.1086 453.10247,276.20839 z"
       type="arc"
       cx="-486.21375"
       ry="3.9327636"
       cy="-89.381149"
       rx="3.9327636"
       id="path3632" />
    <path
       id="path3634"
       rx="3.9327636"
       cy="-89.381149"
       ry="3.9327636"
       cx="-486.21375"
       type="arc"
       d="M 458.52365,290.2528 C 457.35678,295.35481 452.27929,298.54211 447.17722,297.37523 C 442.07984,296.20942 438.89257,291.13192 440.05944,286.0299 C 441.2258,280.93011 446.30326,277.74293 451.40064,278.90874 C 456.50271,280.07562 459.69001,285.15301 458.52365,290.2528 z"
       style="fill:#e3e4e5;fill-opacity:1;stroke:#010101;stroke-width:1;stroke-miterlimit:4;stroke-dasharray:none" />
    <path
       style="fill:#e3e4e5;fill-opacity:1;stroke:#010101;stroke-width:1;stroke-miterlimit:4;stroke-dasharray:none"
       d="M 461.42718,305.55069 C 460.26032,310.65271 455.18283,313.84 450.08076,312.67312 C 444.98337,311.50731 441.7961,306.42981 442.96297,301.32779 C 444.12933,296.22801 449.20679,293.04082 454.30418,294.20663 C 459.40625,295.37351 462.59354,300.4509 461.42718,305.55069 z"
       type="arc"
       cx="-486.21375"
       ry="3.9327636"
       cy="-89.381149"
       rx="3.9327636"
       id="path3636" />
    <path
       id="path3638"
       rx="3.9327636"
       cy="-89.381149"
       ry="3.9327636"
       cx="-486.21375"
       type="arc"
       d="M 462.39368,321.32004 C 461.22681,326.42205 456.14932,329.60935 451.04725,328.44247 C 445.94986,327.27666 442.7626,322.19915 443.92946,317.09714 C 445.09582,311.99735 450.17329,308.81017 455.27067,309.97597 C 460.37274,311.14286 463.56003,316.22025 462.39368,321.32004 z"
       style="fill:#e3e4e5;fill-opacity:1;stroke:#010101;stroke-width:1;stroke-miterlimit:4;stroke-dasharray:none" />
    <path
       id="path3640"
       rx="3.9327636"
       cy="-89.381149"
       ry="3.9327636"
       cx="-486.21375"
       type="arc"
       d="M 393.29173,358.3206 C 392.84213,353.1062 396.70133,348.5186 401.91583,348.069 C 407.12543,347.6198 411.71303,351.4791 412.16263,356.6935 C 412.61203,361.9056 408.75283,366.4931 403.54313,366.9423 C 398.32873,367.3919 393.74113,363.5328 393.29173,358.3206 z"
       style="fill:#e3e4e5;fill-opacity:1;stroke:#010101;stroke-width:1;stroke-miterlimit:4;stroke-dasharray:none" />
    <path
       style="fill:#e3e4e5;fill-opacity:1;stroke:#010101;stroke-width:1;stroke-miterlimit:4;stroke-dasharray:none"
       d="M 381.35453,350.3632 C 380.90493,345.1488 384.76413,340.5612 389.97863,340.1116 C 395.18833,339.6623 399.77583,343.5216 400.22553,348.736 C 400.67493,353.9481 396.81563,358.5356 391.60603,358.9848 C 386.39153,359.4345 381.80393,355.5753 381.35453,350.3632 z"
       type="arc"
       cx="-486.21375"
       ry="3.9327636"
       cy="-89.381149"
       rx="3.9327636"
       id="path3642" />
    <path
       id="path3644"
       rx="3.9327636"
       cy="-89.381149"
       ry="3.9327636"
       cx="-486.21375"
       type="arc"
       d="M 369.23483,340.1677 C 368.78523,334.9533 372.64443,330.3657 377.85893,329.916 C 383.06853,329.4668 387.65613,333.3261 388.10573,338.5405 C 388.55523,343.7526 384.69593,348.3401 379.48623,348.7893 C 374.27183,349.2389 369.68423,345.3798 369.23483,340.1677 z"
       style="fill:#e3e4e5;fill-opacity:1;stroke:#010101;stroke-width:1;stroke-miterlimit:4;stroke-dasharray:none" />
    <path
       style="fill:#e3e4e5;fill-opacity:1;stroke:#010101;stroke-width:1;stroke-miterlimit:4;stroke-dasharray:none"
       d="M 359.77763,328.4545 C 359.32803,323.2401 363.18733,318.6525 368.40173,318.2029 C 373.61143,317.7537 378.19903,321.613 378.64863,326.8274 C 379.09803,332.0395 375.23883,336.627 370.02913,337.0762 C 364.81463,337.5258 360.22713,333.6667 359.77763,328.4545 z"
       type="arc"
       cx="-486.21375"
       ry="3.9327636"
       cy="-89.381149"
       rx="3.9327636"
       id="path3646" />
    <path
       style="fill:#e3e4e5;fill-opacity:1;stroke:#010101;stroke-width:1;stroke-miterlimit:4;stroke-dasharray:none"
       d="M 350.94509,317.54238 C 352.53599,321.37459 356.37689,323.90817 360.69778,323.3747 C 364.19276,322.94321 366.8743,320.59757 368.1451,317.56532 C 362.55701,317.49455 356.82508,317.48521 350.94509,317.54238 z"
       id="path3648" />
    <path
       style="fill:#e3e4e5;fill-opacity:1;stroke:#010101;stroke-width:1;stroke-miterlimit:4;stroke-dasharray:none"
       d="M 195.49133,326.31327 C 194.08903,328.12697 193.27873,330.40987 193.49133,332.87577 C 193.94073,338.08787 198.52683,341.95017 203.74133,341.50077 C 208.95103,341.05157 212.81583,336.46277 212.36633,331.25077 C 212.10313,328.19847 210.32343,325.74997 207.92883,324.21947 C 203.76089,324.78462 199.62749,325.55661 195.49133,326.31327 z"
       id="path3650"
       sodipodi:nodetypes="cssscc" />
    <path
       id="path3652"
       rx="3.9327636"
       cy="-89.381149"
       ry="3.9327636"
       cx="-486.21375"
       type="arc"
       d="M 223.59793,316.1545 C 224.78093,321.2528 221.60983,326.3404 216.51143,327.5234 C 211.41783,328.7054 206.33023,325.5342 205.14723,320.436 C 203.96463,315.3399 207.13583,310.2524 212.22953,309.0704 C 217.32783,307.8874 222.41533,311.0585 223.59793,316.1545 z"
       style="fill:#e3e4e5;fill-opacity:1;stroke:#010101;stroke-width:0.99999994;stroke-miterlimit:4;stroke-dasharray:none" />
    <path
       style="fill:#e3e4e5;fill-opacity:1;stroke:#010101;stroke-width:1;stroke-miterlimit:4;stroke-dasharray:none"
       d="M 310.65403,359.7578 C 310.20443,354.5434 314.06363,349.9558 319.27813,349.5062 C 324.48773,349.057 329.07533,352.9163 329.52493,358.1307 C 329.97433,363.3428 326.11513,367.9303 320.90543,368.3795 C 315.69103,368.8291 311.10343,364.97 310.65403,359.7578 z"
       type="arc"
       cx="-486.21375"
       ry="3.9327636"
       cy="-89.381149"
       rx="3.9327636"
       id="path3654" />
    <path
       style="fill:#e3bb01;fill-opacity:1;fill-rule:nonzero;stroke:#000000;stroke-width:0.99999976;stroke-miterlimit:4;stroke-opacity:1"
       d="M 347.92901,317.22017 C 336.98885,316.97018 326.09538,317.00038 315.2447,317.28729 L 315.2447,367.57614 L 347.92901,367.57614 L 347.92901,317.22017 z"
       id="rect8749"
       sodipodi:nodetypes="ccccc" />
    <path
       style="fill:#e3e4e5;fill-opacity:1;stroke:#010101;stroke-width:0.99999994;stroke-miterlimit:4;stroke-dasharray:none"
       d="M 333.48312,310.63863 C 333.48312,315.87238 329.24404,320.11148 324.01023,320.11148 C 318.78123,320.11148 314.54216,315.87238 314.54216,310.63863 C 314.54216,305.40716 318.78123,301.16818 324.01023,301.16818 C 329.24404,301.16818 333.48312,305.40716 333.48312,310.63863 z"
       type="arc"
       cx="-486.21375"
       ry="3.9327636"
       cy="-89.381149"
       rx="3.9327636"
       id="path3616" />
    <path
       id="path3656"
       rx="3.9327636"
       cy="-89.381149"
       ry="3.9327636"
       cx="-486.21375"
       type="arc"
       d="M 298.71683,351.8004 C 298.26723,346.586 302.12643,341.9984 307.34093,341.5488 C 312.55063,341.0995 317.13813,344.9588 317.58783,350.1732 C 318.03723,355.3853 314.17793,359.9728 308.96833,360.422 C 303.75383,360.8717 299.16623,357.0125 298.71683,351.8004 z"
       style="fill:#e3e4e5;fill-opacity:1;stroke:#010101;stroke-width:1;stroke-miterlimit:4;stroke-dasharray:none" />
    <path
       style="fill:#e3e4e5;fill-opacity:1;stroke:#010101;stroke-width:1;stroke-miterlimit:4;stroke-dasharray:none"
       d="M 286.59713,341.6049 C 286.14753,336.3905 290.00673,331.8029 295.22123,331.3532 C 300.43083,330.904 305.01843,334.7633 305.46803,339.9777 C 305.91753,345.1898 302.05823,349.7773 296.84853,350.2265 C 291.63413,350.6761 287.04653,346.817 286.59713,341.6049 z"
       type="arc"
       cx="-486.21375"
       ry="3.9327636"
       cy="-89.381149"
       rx="3.9327636"
       id="path3658" />
    <path
       id="path3660"
       rx="3.9327636"
       cy="-89.381149"
       ry="3.9327636"
       cx="-486.21375"
       type="arc"
       d="M 277.13993,329.8917 C 276.69033,324.6773 280.54963,320.0897 285.76403,319.6401 C 290.97373,319.1909 295.56133,323.0502 296.01093,328.2646 C 296.46033,333.4767 292.60113,338.0642 287.39143,338.5134 C 282.17693,338.963 277.58943,335.1039 277.13993,329.8917 z"
       style="fill:#e3e4e5;fill-opacity:1;stroke:#010101;stroke-width:1;stroke-miterlimit:4;stroke-dasharray:none" />
    <path
       style="fill:#e3e4e5;fill-opacity:1;stroke:#010101;stroke-width:1;stroke-miterlimit:4;stroke-dasharray:none"
       d="M 270.26234,318.60952 C 271.86364,322.18522 275.83433,325.20451 279.96013,324.84881 C 283.96503,324.50351 287.12113,321.38542 288.17883,317.74482 C 282.30924,318.0688 276.49914,318.04463 270.26234,318.60952 z"
       id="path3662"
       sodipodi:nodetypes="cscc" />
    <path
       style="fill:#e3e4e5;fill-opacity:1;stroke:#010101;stroke-width:1;stroke-miterlimit:4;stroke-dasharray:none"
       d="M 201.61173,345.3331 C 201.16213,340.1187 205.02133,335.5311 210.23583,335.0815 C 215.44553,334.6322 220.03303,338.4915 220.48273,343.7059 C 220.93213,348.918 217.07283,353.5055 211.86323,353.9547 C 206.64873,354.4044 202.06113,350.5452 201.61173,345.3331 z"
       type="arc"
       cx="-486.21375"
       ry="3.9327636"
       cy="-89.381149"
       rx="3.9327636"
       id="path3664" />
    <path
       id="path3666"
       rx="3.9327636"
       cy="-89.381149"
       ry="3.9327636"
       cx="-486.21375"
       type="arc"
       d="M 213.54893,357.2905 C 213.09933,352.0761 216.95853,347.4885 222.17303,347.0389 C 227.38263,346.5897 231.97023,350.449 232.41983,355.6634 C 232.86923,360.8755 229.01003,365.463 223.80033,365.9122 C 218.58593,366.3618 213.99833,362.5027 213.54893,357.2905 z"
       style="fill:#e3e4e5;fill-opacity:1;stroke:#010101;stroke-width:1;stroke-miterlimit:4;stroke-dasharray:none" />
    <path
       d="M 355.41141,-87.065118 C 412.41523,-83.12451 457.44907,-35.343553 457.44907,22.689694 C 457.44907,32.1597 456.27663,41.365945 454.01924,50.128389 L 422.29325,50.128389 C 425.41239,41.626548 427.09501,32.278061 427.09501,22.689694 C 427.09504,-19.77307 393.72074,-54.582987 351.81007,-56.711053 C 350.45812,-56.779701 349.06318,-56.711053 347.69426,-56.711053 C 303.88912,-56.711053 268.46501,-21.142838 268.46501,22.689694 C 268.46499,44.60596 277.32103,64.45615 291.6527,78.827253 C 305.98438,93.198386 322.97993,105.10826 333.82819,112.98522 C 344.77956,120.93705 349.05943,131.93512 349.00844,143.33928 C 348.95743,154.74343 347.52277,223.6782 347.52277,223.6782 L 314.59632,223.6782 C 314.59632,223.6782 314.59632,199.58358 314.59632,175.48899 C 314.59632,151.39437 317.3806,137.30428 308.1585,129.77584 C 298.63615,122.0023 273.22678,106.38793 259.61387,88.124544 C 246.00099,69.861185 237.93946,47.221177 237.93946,22.689694 C 237.93946,-37.918319 287.12414,-87.065118 347.69426,-87.065118 C 349.35046,-87.065118 351.02916,-87.137903 352.66752,-87.065118 C 353.12284,-87.044892 353.58561,-87.090906 354.03947,-87.065118 C 354.48977,-87.039532 354.96255,-87.096148 355.41141,-87.065118 z"
       style="fill:#e3bb01;fill-opacity:1;fill-rule:nonzero;stroke:#000000;stroke-width:0.99999994;stroke-miterlimit:4;stroke-dasharray:none;stroke-opacity:1"
       id="path12604" />
    <path
       id="path6173"
       style="fill:#e3bb01;fill-opacity:1;fill-rule:evenodd;stroke:#000000;stroke-width:0.99999994;stroke-linecap:butt;stroke-linejoin:miter;stroke-miterlimit:4;stroke-dasharray:none;stroke-opacity:1"
       d="M 383.88715,123.64258 C 369.63402,132.00838 377.53238,154.69726 393.38398,149.75571 C 393.38398,149.75571 379.62607,166.59007 359.32306,157.40829 C 343.56669,150.28266 348.74266,132.06025 364.41888,125.33382 C 353.10139,116.94481 341.93476,119.81379 341.93476,119.81379 C 341.93476,119.81379 343.05555,101.64534 366.37657,95.991462 C 374.76557,93.957663 399.05824,88.790307 407.11339,80.475694 C 393.87424,88.503287 371.40908,91.60498 365.35292,90.375954 C 320.00381,81.172853 326.90499,53.931903 317.87144,46.611078 C 303.03251,34.585549 284.40847,27.247105 287.75283,1.4211849 C 295.30816,8.6601749 303.98185,13.033459 316.85877,13.198051 C 314.46929,-2.6708026 296.88398,-4.9898873 294.09234,-21.698601 C 294.09234,-21.698601 310.87006,-30.360863 327.125,-13.746545 C 322.98871,-45.39833 330.03536,-54.485679 357.50083,-55.472833 C 337.61312,-35.430585 349.28195,-23.728588 356.7081,-11.295258 C 362.14755,-16.22832 362.69965,-28.92204 362.40103,-34.474005 C 397.98788,-21.924481 372.70671,8.370656 360.52567,15.262631 C 371.61459,9.0845707 400.94298,17.19491 394.76398,17.109763 C 376.78612,22.886027 354.39354,37.582738 368.37805,57.564475 C 374.47189,63.828674 385.07667,70.147747 398.87412,64.308476 C 412.67159,58.469206 418.42843,45.434559 418.42843,45.434559 C 418.42843,45.434559 425.79332,36.039724 418.42843,45.434559 C 411.06364,54.829402 399.63691,52.712352 393.37371,47.802467 C 387.11047,42.892607 383.09694,35.960225 384.077,27.719677 C 435.46107,40.083418 440.79761,-15.569721 448.3434,-22.955676 C 489.94072,80.751853 393.9605,114.58655 383.88715,123.64258 z"
       sodipodi:nodetypes="ccsccscssccccccccccscssccc" />
    <path
       d="M 414.94425,69.03522 C 345.08184,101.21144 329.18859,41.435367 343.13782,-13.170768 C 331.64709,-26.077668 334.09845,-40.376087 346.4092,-50.331947"
       style="fill:none;fill-opacity:1;fill-rule:evenodd;stroke:#000000;stroke-width:0.99999994;stroke-linecap:round;stroke-linejoin:round;stroke-miterlimit:4;stroke-dasharray:none;stroke-opacity:1"
       id="path15234"
       sodipodi:nodetypes="ccc" />
    <path
       d="M 367.89868,-27.226715 C 382.9851,3.3565652 342.1453,-3.2662045 338.76761,16.994085"
       style="fill:none;fill-opacity:1;fill-rule:evenodd;stroke:#000000;stroke-width:0.99999994;stroke-linecap:round;stroke-linejoin:round;stroke-miterlimit:4;stroke-dasharray:none;stroke-opacity:1"
       id="path15236"
       sodipodi:nodetypes="cc" />
    <path
       d="M 302.81195,-18.854918 C 328.72608,-11.924938 317.10663,14.460858 338.63751,18.177917"
       style="fill:none;fill-opacity:1;fill-rule:evenodd;stroke:#000000;stroke-width:0.99999994;stroke-linecap:round;stroke-linejoin:round;stroke-miterlimit:4;stroke-dasharray:none;stroke-opacity:1"
       id="path15238"
       sodipodi:nodetypes="cc" />
    <path
       d="M 295.61765,13.93781 C 305.98173,33.757427 328.48389,22.454523 339.5657,38.288406"
       style="fill:none;fill-opacity:1;fill-rule:evenodd;stroke:#000000;stroke-width:0.99999994;stroke-linecap:round;stroke-linejoin:round;stroke-miterlimit:4;stroke-dasharray:none;stroke-opacity:1"
       id="path15240"
       sodipodi:nodetypes="cc" />
    <path
       d="M 379.24353,17.36096 C 350.98944,19.485149 344.12699,37.016983 345.67896,57.063275"
       style="fill:none;fill-opacity:1;fill-rule:evenodd;stroke:#000000;stroke-width:0.99999994;stroke-linecap:round;stroke-linejoin:round;stroke-miterlimit:4;stroke-dasharray:none;stroke-opacity:1"
       id="path15242"
       sodipodi:nodetypes="cc" />
    <path
       d="M 438.79965,14.993298 C 430.55674,28.398138 409.90981,50.636758 390.22855,34.823653"
       style="fill:none;fill-opacity:1;fill-rule:evenodd;stroke:#000000;stroke-width:0.99999994;stroke-linecap:round;stroke-linejoin:round;stroke-miterlimit:4;stroke-dasharray:none;stroke-opacity:1"
       id="path16124"
       sodipodi:nodetypes="cc" />
    <path
       d="M 348.39356,115.02532 C 369.57423,93.665695 386.29897,111.86681 411.47774,89.834317"
       style="fill:none;fill-opacity:1;fill-rule:evenodd;stroke:#000000;stroke-width:0.99999994;stroke-linecap:round;stroke-linejoin:round;stroke-miterlimit:4;stroke-dasharray:none;stroke-opacity:1"
       id="path16126"
       sodipodi:nodetypes="cc" />
    <path
       d="M 377.82467,151.28456 C 355.05026,152.79566 358.52309,135.24764 370.12076,127.11851 C 381.87668,118.87847 393.55032,109.41781 396.01761,99.416905"
       style="fill:none;fill-opacity:1;fill-rule:evenodd;stroke:#000000;stroke-width:0.99999994;stroke-linecap:round;stroke-linejoin:round;stroke-miterlimit:4;stroke-dasharray:none;stroke-opacity:1"
       id="path16128"
       sodipodi:nodetypes="czc" />
    <path
       id="path19895"
       style="fill:#e3bb01;fill-opacity:1;fill-rule:evenodd;stroke:#000000;stroke-width:0.99999994;stroke-linecap:butt;stroke-linejoin:miter;stroke-miterlimit:4;stroke-dasharray:none;stroke-opacity:1"
       d="M 356.19589,993.78444 C 363.12892,1003.6888 359.21674,1031.4778 383.97757,1039.4013 C 340.57822,1064.4579 331.85761,1155.9829 331.67256,1156.8732 C 331.43212,1155.9759 321.2008,1063.6528 279.19603,1039.4013 C 303.95688,1031.4778 300.04465,1003.6888 306.97772,993.78444 C 308.0444,971.32004 327.40668,975.09183 333.55896,975.09183 C 339.71124,975.09183 356.19589,974.01464 356.19589,993.78444 z" />
    <path
       id="path20773"
       style="fill:#fcef3c;fill-opacity:1;fill-rule:evenodd;stroke:#000000;stroke-width:0.99999994;stroke-linecap:butt;stroke-linejoin:miter;stroke-miterlimit:4;stroke-dasharray:none;stroke-opacity:1"
       d="M 331.5868,1141.1583 L 331.5868,1013.0361" />
    <path
       id="path17922"
       style="fill:#e3bb01;fill-opacity:1;fill-rule:nonzero;stroke:#000000;stroke-width:0.99999994;stroke-miterlimit:4;stroke-dasharray:none;stroke-opacity:1"
       d="M 299.29929,219.33957 C 298.94548,234.98751 304.34953,234.78825 331.58468,234.78825 C 358.36134,234.78825 363.47092,234.19426 363.87005,219.33957 C 364.29109,203.66832 358.3201,203.89091 331.58468,203.89091 C 306.33489,203.89091 299.67157,202.87536 299.29929,219.33957 z" />
    <path
       id="path17919"
       style="fill:#e3bb01;fill-opacity:1;fill-rule:nonzero;stroke:#000000;stroke-width:0.99999994;stroke-miterlimit:4;stroke-dasharray:none;stroke-opacity:1"
       d="M 293.54176,219.3373 C 293.12484,229.1186 310.58531,228.99404 331.58542,228.99404 C 352.5855,228.99404 369.15876,228.62274 369.62906,219.3373 C 370.12523,209.54144 352.5855,209.68057 331.58542,209.68057 C 310.58531,209.68057 293.98044,209.04577 293.54176,219.3373 z" />
    <path
       id="path19891"
       style="fill:#e3bb01;fill-opacity:1;fill-rule:nonzero;stroke:#000000;stroke-width:0.99999994;stroke-miterlimit:4;stroke-dasharray:none;stroke-opacity:1"
       d="M 299.29929,980.81601 C 298.94548,996.46395 304.34953,996.26468 331.58468,996.26468 C 358.36134,996.26468 363.47092,995.67069 363.87005,980.81601 C 364.29109,965.14476 358.3201,965.36735 331.58468,965.36735 C 306.33489,965.36735 299.67157,964.35179 299.29929,980.81601 z" />
    <path
       id="path19893"
       style="fill:#e3bb01;fill-opacity:1;fill-rule:nonzero;stroke:#000000;stroke-width:0.99999994;stroke-miterlimit:4;stroke-dasharray:none;stroke-opacity:1"
       d="M 293.54176,980.81374 C 293.12484,990.59503 310.58531,990.47046 331.58542,990.47046 C 352.5855,990.47046 369.15876,990.09917 369.62906,980.81374 C 370.12523,971.01788 352.5855,971.15701 331.58542,971.15701 C 310.58531,971.15701 293.98044,970.5222 293.54176,980.81374 z" />
  </g>
  <g
     inkscape:label="Escudo"
     inkscape:groupmode="layer"
     id="layer1"
     transform="translate(-26.428718,90.112115)"
     style="display:inline">
    <path
       style="color:#000000;fill:#630b57;fill-opacity:1;fill-rule:evenodd;stroke:#000000;stroke-width:1;stroke-linecap:butt;stroke-linejoin:miter;marker:none;marker-start:none;marker-mid:none;marker-end:none;stroke-miterlimit:4;stroke-dasharray:none;stroke-dashoffset:0;stroke-opacity:1;visibility:visible;display:inline;overflow:visible;enable-background:accumulate"
       d="M 425,821.5 C 424.86187,821.49958 424.73209,821.46875 424.59375,821.46875 C 420.85339,821.46875 417.18702,821.61748 413.59375,821.90625 C 410.00048,822.19502 406.46773,822.6172 403,823.15625 C 399.53229,823.69529 396.14327,824.34294 392.78125,825.09375 C 389.41923,825.84456 386.08549,826.70093 382.8125,827.625 C 376.26651,829.47314 369.90606,831.62729 363.59375,833.9375 C 357.28145,836.24766 351.01564,838.69201 344.78125,841.15625 C 338.54683,843.62044 332.31229,846.09607 326,848.40625 C 319.68769,850.71644 313.29594,852.87059 306.75,854.71875 C 303.47701,855.64282 300.17453,856.49919 296.8125,857.25 C 293.45047,858.00081 290.03022,858.64847 286.5625,859.1875 C 283.09478,859.72654 279.59327,860.14873 276,860.4375 C 272.40673,860.72627 268.74034,860.87499 265,860.875 C 261.25964,860.875 257.59327,860.72627 254,860.4375 C 250.40673,860.14873 246.87399,859.72655 243.40625,859.1875 C 239.93853,858.64846 236.51828,858.00081 233.15625,857.25 C 229.79422,856.49919 226.49175,855.64281 223.21875,854.71875 C 216.67282,852.87062 210.31231,850.71644 204,848.40625 C 197.6877,846.09607 191.42193,843.62041 185.1875,841.15625 C 178.95308,838.69204 172.71855,836.24766 166.40625,833.9375 C 160.09397,831.62729 153.70221,829.47314 147.15625,827.625 C 143.88326,826.70093 140.58078,825.84456 137.21875,825.09375 C 133.85672,824.34294 130.43646,823.69528 126.96875,823.15625 C 126.85626,823.13876 126.73761,823.14224 126.625,823.125 L 275,971.5 L 425,821.5 z "
       id="path10419"
       transform="translate(56.428722,-28.280666)" />
    <path
       style="fill:#e3e4e5;fill-opacity:1;fill-rule:evenodd;stroke:#000000;stroke-width:1;stroke-linecap:butt;stroke-linejoin:miter;marker:none;marker-start:none;marker-mid:none;marker-end:none;stroke-miterlimit:4;stroke-dasharray:none;stroke-dashoffset:0;stroke-opacity:1;visibility:visible;display:inline;overflow:visible;enable-background:accumulate"
       d="M 531.49122,743.15683 C 496.41169,729.86233 457.0047,732.07225 422.39211,745.73563 C 385.17029,759.69799 346.92729,778.38307 305.99416,772.56318 C 255.45356,765.80338 211.24706,732.22611 159.04356,734.15334 C 150.28911,735.21123 129.86705,734.53382 128.54477,740.33538 C 146.86252,758.44388 164.91349,777.12198 183.39747,794.87558 C 231.68552,802.44089 274.05824,834.54704 324.22012,832.56657 C 379.55142,832.13091 425.84501,792.0838 481.42872,793.21933 C 498.11622,776.53183 514.80372,759.84433 531.49122,743.15683 z"
       id="path10417" />
    <path
       style="color:#000000;fill:#630b57;fill-opacity:1;fill-rule:evenodd;stroke:#000000;stroke-width:1;stroke-linecap:butt;stroke-linejoin:miter;marker:none;marker-start:none;marker-mid:none;marker-end:none;stroke-miterlimit:4;stroke-dasharray:none;stroke-dashoffset:0;stroke-opacity:1;visibility:visible;display:inline;overflow:visible;enable-background:accumulate"
       d="M 275,374.5 L -23.5,673 L 70.34375,766.84375 C 71.422189,766.58118 72.47414,766.2743 73.5625,766.03125 C 76.924521,765.28044 80.344778,764.63279 83.8125,764.09375 C 87.280235,763.55471 90.812982,763.13252 94.40625,762.84375 C 97.999518,762.55498 101.66589,762.40626 105.40625,762.40625 C 109.1466,762.40625 112.81338,762.55498 116.4375,762.84375 C 120.06162,763.13252 123.63787,763.55471 127.15625,764.09375 C 130.67461,764.63279 134.11434,765.28044 137.53125,766.03125 C 140.94816,766.78206 144.33658,767.63845 147.6875,768.5625 C 154.38933,770.41066 160.96159,772.56484 167.4375,774.875 C 173.91347,777.18519 180.32839,779.62953 186.6875,782.09375 C 193.04659,784.55795 199.37111,787.03358 205.71875,789.34375 C 212.06639,791.65392 218.42253,793.8081 224.875,795.65625 C 228.10124,796.58032 231.34773,797.43669 234.625,798.1875 C 237.90227,798.93831 241.19988,799.58594 244.53125,800.125 C 247.86263,800.66404 251.24937,801.08623 254.65625,801.375 C 258.06313,801.66377 261.509,801.81251 265,801.8125 C 268.74033,801.8125 272.40673,801.66378 276,801.375 C 279.59327,801.08622 283.09477,800.66403 286.5625,800.125 C 290.03022,799.58596 293.45048,798.93831 296.8125,798.1875 C 300.17452,797.43669 303.47699,796.58032 306.75,795.65625 C 313.29598,793.80812 319.68768,791.65396 326,789.34375 C 332.3123,787.03357 338.54682,784.55791 344.78125,782.09375 C 351.01565,779.62955 357.28146,777.18519 363.59375,774.875 C 369.90605,772.56484 376.26652,770.41068 382.8125,768.5625 C 386.08548,767.63845 389.41922,766.78206 392.78125,766.03125 C 396.14328,765.28044 399.5323,764.63279 403,764.09375 C 406.46772,763.55471 410.00048,763.13252 413.59375,762.84375 C 417.18702,762.55498 420.85339,762.40626 424.59375,762.40625 C 428.3341,762.40625 432.00048,762.55498 435.59375,762.84375 C 439.18702,763.13252 442.68851,763.55471 446.15625,764.09375 C 449.62397,764.63279 453.04423,765.28044 456.40625,766.03125 C 459.76827,766.78206 463.07075,767.63845 466.34375,768.5625 C 469.31016,769.40003 472.15661,770.4878 475.0625,771.4375 L 573.5,673 L 275,374.5 z "
       id="path6193"
       transform="translate(56.428722,-28.280666)" />
  </g>
  <g
     inkscape:groupmode="layer"
     id="layer4"
     inkscape:label="Piezas"
     style="display:inline"
     transform="translate(30.000004,13.471769)">
    <g
       id="g5818"
       inkscape:label="Piezas"
       transform="translate(873.00016,-55.320157)" />
    <g
       id="g5820"
       inkscape:label="Muebles"
       transform="translate(873.00016,-55.320157)" />
    <g
       id="g5822"
       inkscape:label="Ornamentos"
       transform="translate(873.00016,-55.320157)" />
  </g>
  <g
     inkscape:groupmode="layer"
     id="layer5"
     inkscape:label="Muebles"
     style="display:inline"
     transform="translate(30.000004,13.471769)">
    <g
       inkscape:label="Escudo"
       id="g5438"
       transform="translate(-582.73933,640.16742)"
       style="display:inline" />
    <g
       id="g5440"
       inkscape:label="Piezas"
       style="display:inline"
       transform="translate(-526.31061,563.52708)" />
    <g
       id="g5559"
       inkscape:label="Ornamento"
       transform="translate(-526.31061,563.52708)" />
    <g
       id="g5561"
       inkscape:label="Borde 3px"
       style="display:inline"
       transform="translate(-526.31061,563.52708)" />
    <path
       style="fill:#e3bb01;fill-opacity:1;fill-rule:evenodd;stroke:#000000;stroke-width:1px;stroke-linecap:butt;stroke-linejoin:miter;stroke-opacity:1"
       d="M 232.86607,614.67492 L 224.77232,626.42492 L 106.42857,626.42492 C 105.32129,626.3612 103.66035,628.48818 107.17857,630.83117 C 143.20739,654.08718 182.08422,671.64372 214.49107,702.14367 L 214.49107,710.23742 L 224.77232,710.23742 C 229.14882,710.23742 235.90788,715.8164 235.80357,729.33117 C 235.69925,742.84633 196.83482,760.20617 196.83482,760.20617 C 196.8348,760.20615 176.99384,798.87736 174.05357,799.61242 C 241.27851,798.35576 308.72028,801.9804 375.92857,799.61242 C 372.9883,798.87736 353.14731,760.20615 353.14732,760.20617 C 353.14732,760.20617 314.28289,742.84633 314.17857,729.33117 C 314.07426,715.8164 320.83332,710.23742 325.20982,710.23742 L 335.49107,710.23742 L 335.49107,702.14367 C 367.89792,671.64372 406.806,654.08718 442.83482,630.83117 C 446.35304,628.48818 444.66082,626.3612 443.55357,626.42492 L 325.20982,626.42492 L 317.11607,614.67492 L 232.86607,614.67492 z"
       id="path9696"
       sodipodi:nodetypes="cccccccsccccscccccccc" />
  </g>
  <g
     inkscape:groupmode="layer"
     id="layer6"
     inkscape:label="Ornamentos"
     style="display:inline"
     transform="translate(30.000004,13.471769)" />
  <g
     inkscape:groupmode="layer"
     id="layer2"
     inkscape:label="Borde 3px"
     style="display:inline"
     transform="translate(30.000004,13.471769)">
    <path
       style="fill:none;fill-opacity:1;fill-rule:evenodd;stroke:#000000;stroke-width:2.99999976;stroke-linecap:butt;stroke-linejoin:miter;marker:none;marker-start:none;marker-mid:none;marker-end:none;stroke-miterlimit:4;stroke-dashoffset:0;stroke-opacity:1;visibility:visible;display:inline;overflow:visible;enable-background:accumulate"
       d="M -23.500003,721.35961 L 275.00004,422.85962 L 573.5,721.35959 L 275.00003,1019.8597 L -23.500003,721.35961 z"
       id="rect6190" />
  </g>
</svg>
