<?xml version="1.0" encoding="utf-8"?><!DOCTYPE svg PUBLIC "-//W3C//DTD SVG 1.1//EN" "http://www.w3.org/Graphics/SVG/1.1/DTD/svg11.dtd"><svg viewBox="0 0 600 600" xmlns="http://www.w3.org/2000/svg"><path d="m.5 300 299.5 299.5 299.5-299.5-299.5-299.5z" fill="#e5e5e5" stroke="#000" stroke-linecap="round" stroke-linejoin="round"/><g stroke="#000" stroke-linecap="round" stroke-linejoin="round"><path d="m160 215.5013c-1.3376 0-2.4145 1.0734-2.4145 2.4067v11.2165h-10.5226c-1.3376 0-2.4145 1.0734-2.4145 2.4067s1.0769 2.4067 2.4145 2.4067h10.5226v30.9587h-19.7221l.8059-12.331c.044-.672-.1645-1.3705-.6403-1.9209-3.6969-4.2768-5.7292-9.7328-5.7292-15.378 0-5.6453 2.0323-11.1012 5.7292-15.378.967-1.1186.8748-2.847-.2809-3.7709-1.1812-.9443-2.875-.7649-3.7831.2799-4.5496 5.2342-7.0308 11.9435-7.0308 18.8689 0 6.5477 2.2315 12.8933 6.3077 17.9999l-7.7361 118.379c-.0963 1.4736 1.017 2.7487 2.4952 2.8485s2.8982-1.0109 2.8578-2.4871l1.4211-21.7279h55.4404l1.421 21.7279c.0964 1.4736 1.3797 2.5869 2.8578 2.4871 1.4782-.0998 2.5915-1.3749 2.4952-2.8485l-7.735-118.379c4.0762-5.1066 6.3077-11.4521 6.3077-17.9999 0-6.9254-2.4812-13.6347-7.0308-18.8689-.9082-1.0449-2.6019-1.2242-3.7831-.2799-1.1557.9238-1.2478 2.6522-.2809 3.7709 3.6969 4.2768 5.7292 9.7327 5.7292 15.378s-2.0324 11.1012-5.7292 15.378c-.4758.5505-.6842 1.2489-.6403 1.9209l.8059 12.331h-19.7232v-30.9587h10.5226c1.3376 0 2.4145-1.0734 2.4145-2.4067s-1.0769-2.4067-2.4145-2.4067h-10.5226v-11.2165c0-1.3333-1.0769-2.4067-2.4145-2.4067zm-22.4521 54.2085h44.9053l1.441 22.0423h-47.7872zm-1.7564 26.8556h48.418l1.441 22.0434h-51.2999zm-1.7564 26.8567h51.9298l1.441 22.0433h-54.8117z"/><g><path d="m343.024 290.1263v-36.2231c0-5.3576-4.3135-9.6703-9.6721-9.6703-5.3585 0-9.6721 4.3127-9.6721 9.6703v36.2231zm-66.7039 0v-36.2231c0-5.3576-4.3135-9.6703-9.6721-9.6703-5.3585 0-9.6721 4.3127-9.6721 9.6703v36.2231zm-75.8201 159.3737v-57.5749c16.676-13.0726 32.7961-70.6475 32.7961-115.1498v-76.7665l-13.3408-10.5693v-38.9395h32.0179v19.4698h32.0179v-19.4698h32.0179v19.4698h32.0179v-19.4698h32.0179v38.9395l-13.3408 10.5693v76.7665c0 44.5023 16.1201 102.0772 32.7961 115.1498v57.5749h-81.1564v-56.3512c0-10.1604-8.1812-18.3402-18.3436-18.3402s-18.3436 8.1797-18.3436 18.3402v56.3512z" fill="#c87137" fill-rule="evenodd"/><path d="m219.9553 189.4395h160.0894" fill="none"/><path d="m283.324 334.3502-.7782 19.1916" fill="none"/><path d="m333.352 200.0089v19.1916" fill="none"/><path d="m300 200.0089v19.1916" fill="none"/><path d="m266.648 200.0089v19.1916" fill="none"/><path d="m236.5201 315.1586-2.2235 19.1916" fill="none"/><path d="m249.9721 334.3502-2.2235 19.1916" fill="none"/><path d="m263.9799 353.5419-2.8905 19.1916" fill="none"/><path d="m230.1832 353.5419-5.781 19.1916" fill="none"/><path d="m243.8575 372.7335-6.6704 19.1916" fill="none"/><path d="m233.2961 200.0089h133.4078" fill="none"/><path d="m217.8708 430.3084v19.1916" fill="none"/><path d="m233.2961 219.2005h133.4078" fill="none"/><path d="m233.2961 238.3921h133.4078" fill="none"/><path d="m276.3201 257.5837h47.3598" fill="none"/><path d="m232.4067 295.967h135.1866" fill="none"/><path d="m200.5 411.1168h69.4832" fill="none"/><path d="m330.0168 430.3084h69.4832" fill="none"/><path d="m249.9721 219.2005v19.1916" fill="none"/><path d="m350.0279 219.2005v19.1916" fill="none"/><path d="m283.324 219.2005v19.1916" fill="none"/><path d="m316.676 219.2005v19.1916" fill="none"/><path d="m235.2416 411.1168v19.1916" fill="none"/><path d="m217.8708 391.9251v19.1916" fill="none"/><path d="m252.6124 391.9251v19.1916" fill="none"/><path d="m252.6124 430.3084v19.1916" fill="none"/><path d="m369.9279 315.1586h-139.8559" fill="none"/><path d="m373.7078 334.3502h-147.4156" fill="none"/><path d="m378.933 353.5419h-157.8659" fill="none"/><path d="m333.352 238.3921v5.8409" fill="none"/><path d="m300 238.3921v19.1916" fill="none"/><path d="m266.648 238.3921v5.8409" fill="none"/><path d="m333.352 290.1261v5.8409" fill="none"/><path d="m300 276.7754v19.1916" fill="none"/><path d="m266.648 290.1261v5.8409" fill="none"/><path d="m333.352 315.1586v19.1916" fill="none"/><path d="m300 315.1586v19.1916" fill="none"/><path d="m266.648 315.1586v19.1916" fill="none"/><path d="m249.9721 257.5837v19.1916" fill="none"/><path d="m350.0279 257.5837v19.1916" fill="none"/><path d="m283.324 257.5837v19.1916" fill="none"/><path d="m316.676 257.5837v19.1916" fill="none"/><path d="m249.9721 295.967v19.1916" fill="none"/><path d="m350.0279 295.967v19.1916" fill="none"/><path d="m283.324 295.967v19.1916" fill="none"/><path d="m316.676 295.967v19.1916" fill="none"/><path d="m300 353.5419v9.5958" fill="none"/><path d="m316.676 334.3502.7782 19.1916" fill="none"/><path d="m363.4799 315.1586 2.2235 19.1916" fill="none"/><path d="m350.0279 334.3502 2.2235 19.1916" fill="none"/><path d="m336.0201 353.5419 2.8905 19.1916" fill="none"/><path d="m369.8168 353.5419 5.781 19.1916" fill="none"/><path d="m356.1425 372.7335 6.6704 19.1916" fill="none"/><path d="m382.1292 430.3084v19.1916" fill="none"/><path d="m364.7584 411.1168v19.1916" fill="none"/><path d="m382.1292 391.9251v19.1916" fill="none"/><path d="m347.3876 391.9251v19.1916" fill="none"/><path d="m347.3876 430.3084v19.1916" fill="none"/><path d="m277.7654 372.7335h-63.9246" fill="none"/><path d="m200.5 391.9251h69.3721" fill="none"/><path d="m330.0168 411.1168h69.4832" fill="none"/><path d="m200.5 430.3084h69.4832" fill="none"/><path d="m322.2346 372.7335h63.9246" fill="none"/><path d="m399.5 391.9251h-69.3721" fill="none"/><path d="m233.2961 257.5837h23.6799" fill="none"/><path d="m343.024 257.5837h23.6799" fill="none"/><path d="m276.3201 276.7754h47.3598" fill="none"/><path d="m233.2961 276.7754h23.6799" fill="none"/><path d="m343.024 276.7754h23.6799" fill="none"/><path d="m269.9832 435.4122h11.6732" fill="none"/><path d="m269.9832 393.1488h11.6732" fill="none"/><path d="m318.3436 393.1488h11.6732" fill="none"/><path d="m275.7153 375.509 9.4442 6.8603" fill="none"/><path d="m290.7237 364.606 3.6076 11.0997" fill="none"/><path d="m324.2847 375.509-9.4442 6.8603" fill="none"/><path d="m309.2763 364.606-3.6076 11.0997" fill="none"/><path d="m269.9832 421.3244h11.6732" fill="none"/><path d="m318.3436 407.2366h11.6732" fill="none"/><path d="m318.3436 435.4122h11.6732" fill="none"/><path d="m269.9832 449.5v-56.3512c0-16.6262 13.3875-30.0112 30.0168-30.0112s30.0168 13.385 30.0168 30.0112v56.3512" fill="none"/><path d="m281.6564 393.1488c0-10.1604 8.1812-18.3402 18.3436-18.3402s18.3436 8.1797 18.3436 18.3402v56.3512h-36.6872z" fill-rule="evenodd"/><path d="m269.9832 407.2366h11.6732" fill="none"/><path d="m318.3436 421.3244h11.6732" fill="none"/><path d="m276.3201 290.1263v-36.2231c0-5.3576-4.3135-9.6703-9.6721-9.6703-5.3585 0-9.6721 4.3127-9.6721 9.6703v36.2231z" fill-rule="evenodd"/><path d="m343.024 290.1263v-36.2231c0-5.3576-4.3135-9.6703-9.6721-9.6703-5.3585 0-9.6721 4.3127-9.6721 9.6703v36.2231z" fill-rule="evenodd"/></g><path d="m440 215.5013c1.3376 0 2.4145 1.0734 2.4145 2.4067v11.2165h10.5226c1.3376 0 2.4145 1.0734 2.4145 2.4067s-1.0769 2.4067-2.4145 2.4067h-10.5226v30.9587h19.7221l-.8059-12.331c-.044-.672.1645-1.3705.6403-1.9209 3.6969-4.2768 5.7292-9.7328 5.7292-15.378 0-5.6453-2.0323-11.1012-5.7292-15.378-.967-1.1186-.8748-2.847.2809-3.7709 1.1812-.9443 2.875-.7649 3.7831.2799 4.5496 5.2342 7.0308 11.9435 7.0308 18.8689 0 6.5477-2.2315 12.8933-6.3077 17.9999l7.7361 118.379c.0963 1.4736-1.017 2.7487-2.4952 2.8485s-2.8982-1.0109-2.8578-2.4871l-1.4211-21.7279h-55.4404l-1.421 21.7279c-.0964 1.4736-1.3797 2.5869-2.8578 2.4871-1.4782-.0998-2.5915-1.3749-2.4952-2.8485l7.735-118.379c-4.0762-5.1066-6.3077-11.4521-6.3077-17.9999 0-6.9254 2.4812-13.6347 7.0308-18.8689.9082-1.0449 2.6019-1.2242 3.7831-.2799 1.1557.9238 1.2478 2.6522.2809 3.7709-3.6969 4.2768-5.7292 9.7327-5.7292 15.378s2.0324 11.1012 5.7292 15.378c.4758.5505.6842 1.2489.6403 1.9209l-.8059 12.331h19.7232v-30.9587h-10.5226c-1.3376 0-2.4145-1.0734-2.4145-2.4067s1.0769-2.4067 2.4145-2.4067h10.5226v-11.2165c0-1.3333 1.0769-2.4067 2.4145-2.4067zm22.4521 54.2085h-44.9053l-1.441 22.0423h47.7872zm1.7564 26.8556h-48.418l-1.441 22.0434h51.2999zm1.7564 26.8567h-51.9298l-1.441 22.0433h54.8117z"/></g><path d="m1.5 300 298.5 298.5 298.5-298.5-298.5-298.5z" fill="none" stroke="#000" stroke-linecap="round" stroke-linejoin="round" stroke-width="3"/></svg>