<?xml version="1.0" encoding="UTF-8" standalone="no"?>
<!-- Created with Inkscape (http://www.inkscape.org/) -->
<svg
   xmlns:dc="http://purl.org/dc/elements/1.1/"
   xmlns:cc="http://creativecommons.org/ns#"
   xmlns:rdf="http://www.w3.org/1999/02/22-rdf-syntax-ns#"
   xmlns:svg="http://www.w3.org/2000/svg"
   xmlns="http://www.w3.org/2000/svg"
   xmlns:sodipodi="http://sodipodi.sourceforge.net/DTD/sodipodi-0.dtd"
   xmlns:inkscape="http://www.inkscape.org/namespaces/inkscape"
   version="1.0"
   width="605"
   height="975"
   id="svg3194"
   sodipodi:version="0.32"
   inkscape:version="0.46dev+devel"
   sodipodi:docname="Escut_de_Vallirana.svg"
   inkscape:output_extension="org.inkscape.output.svg.inkscape">
  <metadata
     id="metadata497">
    <rdf:RDF>
      <cc:Work
         rdf:about="">
        <dc:format>image/svg+xml</dc:format>
        <dc:type
           rdf:resource="http://purl.org/dc/dcmitype/StillImage" />
      </cc:Work>
    </rdf:RDF>
  </metadata>
  <sodipodi:namedview
     inkscape:window-height="823"
     inkscape:window-width="903"
     inkscape:pageshadow="2"
     inkscape:pageopacity="0.0"
     guidetolerance="10.0"
     gridtolerance="10.0"
     objecttolerance="10.0"
     borderopacity="1.0"
     bordercolor="#666666"
     pagecolor="#ffffff"
     id="base"
     showgrid="false"
     inkscape:zoom="0.62666667"
     inkscape:cx="321.13679"
     inkscape:cy="487.5"
     inkscape:window-x="107"
     inkscape:window-y="132"
     inkscape:current-layer="svg3194" />
  <defs
     id="defs3196" />
  <g
     transform="translate(458.3613,-479.46014)"
     id="layer1"
     inkscape:label="Capa 1">
    <path
       id="path3446"
       rx="3.9327636"
       cy="-89.381149"
       ry="3.9327636"
       cx="-486.21375"
       type="arc"
       d="M 33.911427,811.98627 C 36.097727,807.23107 41.720027,805.15037 46.475327,807.33677 C 51.226127,809.52107 53.306827,815.14347 51.120527,819.89867 C 48.935127,824.65177 43.312927,826.73237 38.561927,824.54807 C 33.806727,822.36167 31.725927,816.73947 33.911427,811.98627 z"
       style="fill:#e3e4e5;fill-opacity:1;stroke:#010101;stroke-width:0.99999994;stroke-miterlimit:4;stroke-dasharray:none" />
    <path
       id="path9052"
       d="M -155.15896,769.16481 C -211.77157,769.72928 -269.03477,769.7819 -324.63397,781.10539 C -337.04147,784.84422 -354.78007,786.93201 -359.43757,800.17529 C -360.96547,811.2367 -346.93697,815.92467 -338.17417,818.96464 C -296.42977,830.92808 -252.32117,831.9409 -209.06887,833.81114 C -141.77836,835.09983 -74.05416,835.62297 -7.26256,826.68934 C 10.98454,823.32412 31.07684,821.24715 46.08194,809.90951 C 55.04154,801.53061 45.12404,789.81461 35.21954,787.40477 C 1.24234,774.95795 -35.81636,773.62232 -71.75236,771.08816 C -99.52566,769.64115 -127.34726,769.18319 -155.15896,769.16481 z"
       style="fill:#eac102;fill-rule:evenodd;stroke:#000000;stroke-width:1.00000012px;stroke-linecap:butt;stroke-linejoin:miter;stroke-opacity:1" />
    <path
       id="path9054"
       d="M -154.98436,782.76205 C -185.84148,782.76205 -211.86428,783.33585 -233.79685,784.33337 C -238.18352,784.53288 -242.41822,784.75508 -246.48435,784.98562 C -295.25563,787.7524 -321.407,792.64358 -335.42185,797.11148 C -336.5899,797.48389 -337.69752,797.84342 -338.7031,798.20844 C -343.71462,800.02964 -346.79671,801.77324 -348.67185,803.18924 C -349.04062,803.4678 -349.35821,803.73535 -349.6406,803.98972 C -349.93349,804.25355 -350.17802,804.49617 -350.3906,804.73091 C -351.64377,806.11414 -351.60936,806.95448 -351.60935,806.95448 L -340.9531,843.68785 L -306.10935,843.68785 L -3.85936,843.68785 L 30.98444,843.68785 L 41.64064,806.95448 C 41.64064,806.95448 41.67504,806.11414 40.42184,804.73091 C 40.20934,804.49617 39.96474,804.25355 39.67184,803.98972 C 37.95724,802.44049 34.75014,800.39458 28.73444,798.20844 C 28.72584,798.20535 28.71164,798.21154 28.70314,798.20844 C 15.63174,793.46417 -10.64786,787.98301 -63.48436,784.98562 C -63.49436,784.98505 -63.50566,784.98619 -63.51556,784.98562 C -67.58166,784.75508 -71.78536,784.53288 -76.17186,784.33337 C -98.10516,783.33584 -124.12546,782.76205 -154.98436,782.76205 z"
       style="fill:#eac102;fill-opacity:1;fill-rule:evenodd;stroke:#000000;stroke-width:1px;stroke-linecap:butt;stroke-linejoin:miter;stroke-opacity:1" />
    <path
       transform="matrix(0.5526395,0,0,0.5685945,-1059.5823,398.75738)"
       d="M 1796.3478,707.07074 A 23.065676,23.065676 0 1 1 1750.2164,707.07074 A 23.065676,23.065676 0 1 1 1796.3478,707.07074 z"
       sodipodi:ry="23.065676"
       sodipodi:rx="23.065676"
       sodipodi:cy="707.07074"
       sodipodi:cx="1773.2821"
       id="path9058"
       style="fill:#eac102;fill-opacity:1;fill-rule:evenodd;stroke:#000000;stroke-width:1.78393018px;stroke-linecap:round;stroke-linejoin:round;marker:none;marker-start:none;marker-mid:none;marker-end:none;stroke-miterlimit:4;stroke-dasharray:none;stroke-dashoffset:0;stroke-opacity:1;visibility:visible;display:inline;overflow:visible;enable-background:accumulate"
       sodipodi:type="arc" />
    <path
       sodipodi:type="arc"
       style="fill:#eac102;fill-opacity:1;fill-rule:evenodd;stroke:#000000;stroke-width:1.80437696px;stroke-linecap:round;stroke-linejoin:round;marker:none;marker-start:none;marker-mid:none;marker-end:none;stroke-miterlimit:4;stroke-dasharray:none;stroke-dashoffset:0;stroke-opacity:1;visibility:visible;display:inline;overflow:visible;enable-background:accumulate"
       id="path9060"
       sodipodi:cx="1773.2821"
       sodipodi:cy="707.07074"
       sodipodi:rx="23.065676"
       sodipodi:ry="23.065676"
       d="M 1796.3478,707.07074 A 23.065676,23.065676 0 1 1 1750.2164,707.07074 A 23.065676,23.065676 0 1 1 1796.3478,707.07074 z"
       transform="matrix(0.5401856,0,0,0.5685945,-1036.1337,398.75738)" />
    <path
       transform="matrix(0.4779164,0,0,0.4918098,-925.42551,453.04956)"
       d="M 1796.3478,707.07074 A 23.065676,23.065676 0 1 1 1750.2164,707.07074 A 23.065676,23.065676 0 1 1 1796.3478,707.07074 z"
       sodipodi:ry="23.065676"
       sodipodi:rx="23.065676"
       sodipodi:cy="707.07074"
       sodipodi:cx="1773.2821"
       id="path9062"
       style="fill:#e3e4e5;fill-opacity:1;fill-rule:evenodd;stroke:#000000;stroke-width:2.06264997px;stroke-linecap:round;stroke-linejoin:round;marker:none;marker-start:none;marker-mid:none;marker-end:none;stroke-miterlimit:4;stroke-dasharray:none;stroke-dashoffset:0;stroke-opacity:1;visibility:visible;display:inline;overflow:visible;enable-background:accumulate"
       sodipodi:type="arc" />
    <path
       sodipodi:type="arc"
       style="fill:#eac102;fill-opacity:1;fill-rule:evenodd;stroke:#000000;stroke-width:1.78393018px;stroke-linecap:round;stroke-linejoin:round;marker:none;marker-start:none;marker-mid:none;marker-end:none;stroke-miterlimit:4;stroke-dasharray:none;stroke-dashoffset:0;stroke-opacity:1;visibility:visible;display:inline;overflow:visible;enable-background:accumulate"
       id="path9066"
       sodipodi:cx="1773.2821"
       sodipodi:cy="707.07074"
       sodipodi:rx="23.065676"
       sodipodi:ry="23.065676"
       d="M 1796.3478,707.07074 A 23.065676,23.065676 0 1 1 1750.2164,707.07074 A 23.065676,23.065676 0 1 1 1796.3478,707.07074 z"
       transform="matrix(-0.5526395,0,0,0.5685945,749.61341,398.75738)" />
    <path
       transform="matrix(-0.5401856,0,0,0.5685945,726.16481,398.75738)"
       d="M 1796.3478,707.07074 A 23.065676,23.065676 0 1 1 1750.2164,707.07074 A 23.065676,23.065676 0 1 1 1796.3478,707.07074 z"
       sodipodi:ry="23.065676"
       sodipodi:rx="23.065676"
       sodipodi:cy="707.07074"
       sodipodi:cx="1773.2821"
       id="path9068"
       style="fill:#eac102;fill-opacity:1;fill-rule:evenodd;stroke:#000000;stroke-width:1.80437696px;stroke-linecap:round;stroke-linejoin:round;marker:none;marker-start:none;marker-mid:none;marker-end:none;stroke-miterlimit:4;stroke-dasharray:none;stroke-dashoffset:0;stroke-opacity:1;visibility:visible;display:inline;overflow:visible;enable-background:accumulate"
       sodipodi:type="arc" />
    <path
       sodipodi:type="arc"
       style="fill:#e3e4e5;fill-opacity:1;fill-rule:evenodd;stroke:#000000;stroke-width:2.06264997px;stroke-linecap:round;stroke-linejoin:round;marker:none;marker-start:none;marker-mid:none;marker-end:none;stroke-miterlimit:4;stroke-dasharray:none;stroke-dashoffset:0;stroke-opacity:1;visibility:visible;display:inline;overflow:visible;enable-background:accumulate"
       id="path9070"
       sodipodi:cx="1773.2821"
       sodipodi:cy="707.07074"
       sodipodi:rx="23.065676"
       sodipodi:ry="23.065676"
       d="M 1796.3478,707.07074 A 23.065676,23.065676 0 1 1 1750.2164,707.07074 A 23.065676,23.065676 0 1 1 1796.3478,707.07074 z"
       transform="matrix(-0.4779164,0,0,0.4918098,615.45661,453.04956)" />
    <path
       style="fill:none;fill-rule:evenodd;stroke:#000000;stroke-width:0.99999982px;stroke-linecap:round;stroke-linejoin:round;stroke-opacity:1"
       d="M -270.5138,802.24799 L -290.92942,792.4059 L -292.23721,792.64355 L -272.76603,802.65726 L -270.5138,802.24799 z"
       id="path9074"
       sodipodi:nodetypes="ccccc" />
    <path
       sodipodi:nodetypes="ccccc"
       id="path9076"
       d="M -270.5138,802.24799 L -290.92942,819.5098 L -292.23721,819.74744 L -272.76603,802.65726 L -270.5138,802.24799 z"
       style="fill:none;fill-rule:evenodd;stroke:#000000;stroke-width:0.99999982px;stroke-linecap:round;stroke-linejoin:round;stroke-opacity:1" />
    <path
       style="fill:none;fill-opacity:1;fill-rule:evenodd;stroke:#000000;stroke-width:0.99999982px;stroke-linecap:round;stroke-linejoin:round;marker:none;marker-start:none;marker-mid:none;marker-end:none;stroke-miterlimit:4;stroke-dasharray:none;stroke-dashoffset:0;stroke-opacity:1;visibility:visible;display:inline;overflow:visible;enable-background:accumulate"
       d="M -292.26702,819.70619 L -310.60206,809.88017 L -292.30867,792.72602"
       id="path9078"
       sodipodi:nodetypes="ccc" />
    <path
       style="fill:#008f4c;fill-rule:evenodd;stroke:#000000;stroke-width:0.99999982px;stroke-linecap:round;stroke-linejoin:round;stroke-opacity:1"
       d="M -277.8267,803.71585 L -292.47573,816.87189 L -306.91034,808.93133 L -292.40427,796.00976 L -277.8267,803.71585 z"
       id="path9082" />
    <path
       id="path9084"
       d="M -287.67752,805.53879 L -295.42648,812.47378 L -303.06201,808.29781 L -295.38868,801.48637 L -287.67752,805.53879 z"
       style="fill:none;fill-rule:evenodd;stroke:#000000;stroke-width:0.5999999;stroke-linecap:round;stroke-linejoin:round;stroke-miterlimit:4;stroke-dasharray:none;stroke-opacity:1" />
    <path
       style="fill:none;fill-rule:evenodd;stroke:#000000;stroke-width:0.5999999;stroke-linecap:round;stroke-linejoin:round;stroke-miterlimit:4;stroke-dasharray:none;stroke-opacity:1"
       d="M -292.40427,816.78941 L -295.44135,812.47635"
       id="path9086"
       sodipodi:nodetypes="cc" />
    <path
       style="fill:none;fill-rule:evenodd;stroke:#000000;stroke-width:0.5999999;stroke-linecap:round;stroke-linejoin:round;stroke-miterlimit:4;stroke-dasharray:none;stroke-opacity:1"
       d="M -306.696,808.89239 L -303.03353,808.27909"
       id="path9088"
       sodipodi:nodetypes="cc" />
    <path
       style="fill:none;fill-rule:evenodd;stroke:#000000;stroke-width:0.5999999;stroke-linecap:round;stroke-linejoin:round;stroke-miterlimit:4;stroke-dasharray:none;stroke-opacity:1"
       d="M -287.68801,805.50782 L -278.11254,803.76779"
       id="path9090" />
    <path
       style="fill:none;fill-rule:evenodd;stroke:#000000;stroke-width:0.5999999;stroke-linecap:round;stroke-linejoin:round;stroke-miterlimit:4;stroke-dasharray:none;stroke-opacity:1"
       d="M -295.42328,801.54505 L -292.40427,796.00976"
       id="path9092"
       sodipodi:nodetypes="cc" />
    <path
       sodipodi:nodetypes="ccccc"
       id="path9096"
       d="M -39.4554,802.24799 L -19.03978,792.4059 L -17.73199,792.64355 L -37.20317,802.65726 L -39.4554,802.24799 z"
       style="fill:none;fill-rule:evenodd;stroke:#000000;stroke-width:0.99999982px;stroke-linecap:round;stroke-linejoin:round;stroke-opacity:1" />
    <path
       style="fill:none;fill-rule:evenodd;stroke:#000000;stroke-width:0.99999982px;stroke-linecap:round;stroke-linejoin:round;stroke-opacity:1"
       d="M -39.4554,802.24799 L -19.03978,819.5098 L -17.73199,819.74744 L -37.20317,802.65726 L -39.4554,802.24799 z"
       id="path9098"
       sodipodi:nodetypes="ccccc" />
    <path
       sodipodi:nodetypes="ccc"
       id="path9100"
       d="M -17.70218,819.70619 L 0.63286,809.88017 L -17.66053,792.72602"
       style="fill:none;fill-opacity:1;fill-rule:evenodd;stroke:#000000;stroke-width:0.99999982px;stroke-linecap:round;stroke-linejoin:round;marker:none;marker-start:none;marker-mid:none;marker-end:none;stroke-miterlimit:4;stroke-dasharray:none;stroke-dashoffset:0;stroke-opacity:1;visibility:visible;display:inline;overflow:visible;enable-background:accumulate" />
    <path
       id="path9104"
       d="M -32.1425,803.71585 L -17.49347,816.87189 L -3.05886,808.93133 L -17.56493,796.00976 L -32.1425,803.71585 z"
       style="fill:#008f4c;fill-rule:evenodd;stroke:#000000;stroke-width:0.99999982px;stroke-linecap:round;stroke-linejoin:round;stroke-opacity:1" />
    <path
       style="fill:none;fill-rule:evenodd;stroke:#000000;stroke-width:0.49999985;stroke-linecap:round;stroke-linejoin:round;stroke-miterlimit:4;stroke-dasharray:none;stroke-opacity:1"
       d="M -22.29168,805.53879 L -14.54272,812.47378 L -6.90719,808.29781 L -14.58052,801.48637 L -22.29168,805.53879 z"
       id="path9106" />
    <path
       sodipodi:nodetypes="cc"
       id="path9108"
       d="M -17.56493,816.78941 L -14.52785,812.47635"
       style="fill:none;fill-rule:evenodd;stroke:#000000;stroke-width:0.49999985;stroke-linecap:round;stroke-linejoin:round;stroke-miterlimit:4;stroke-dasharray:none;stroke-opacity:1" />
    <path
       sodipodi:nodetypes="cc"
       id="path9110"
       d="M -3.2732,808.89239 L -6.93567,808.27909"
       style="fill:none;fill-rule:evenodd;stroke:#000000;stroke-width:0.49999985;stroke-linecap:round;stroke-linejoin:round;stroke-miterlimit:4;stroke-dasharray:none;stroke-opacity:1" />
    <path
       id="path9112"
       d="M -22.28119,805.50782 L -31.85666,803.76779"
       style="fill:none;fill-rule:evenodd;stroke:#000000;stroke-width:0.49999985;stroke-linecap:round;stroke-linejoin:round;stroke-miterlimit:4;stroke-dasharray:none;stroke-opacity:1" />
    <path
       sodipodi:nodetypes="cc"
       id="path9114"
       d="M -14.54592,801.54505 L -17.56493,796.00976"
       style="fill:none;fill-rule:evenodd;stroke:#000000;stroke-width:0.49999985;stroke-linecap:round;stroke-linejoin:round;stroke-miterlimit:4;stroke-dasharray:none;stroke-opacity:1" />
    <rect
       rx="13.479209"
       ry="13.324984"
       y="785.9574"
       x="-181.34109"
       height="26.649967"
       width="52.713264"
       id="rect9118"
       style="fill:#eac102;fill-opacity:1;fill-rule:nonzero;stroke:#000000;stroke-width:1.00000024;stroke-linecap:butt;stroke-linejoin:miter;marker:none;marker-start:none;marker-mid:none;marker-end:none;stroke-miterlimit:4;stroke-dasharray:none;stroke-dashoffset:0;stroke-opacity:1;visibility:visible;display:inline;overflow:visible;enable-background:accumulate" />
    <rect
       style="fill:#ed1c24;fill-opacity:1;fill-rule:nonzero;stroke:#000000;stroke-width:1.00000024;stroke-linecap:butt;stroke-linejoin:miter;marker:none;marker-start:none;marker-mid:none;marker-end:none;stroke-miterlimit:4;stroke-dasharray:none;stroke-dashoffset:0;stroke-opacity:1;visibility:visible;display:inline;overflow:visible;enable-background:accumulate"
       id="rect9120"
       width="47.431377"
       height="23.013342"
       x="-178.7002"
       y="787.7757"
       ry="11.506671"
       rx="12.128588" />
    <path
       style="fill:#ed1c24;fill-opacity:1;fill-rule:nonzero;stroke:#000000;stroke-width:1.00000048;stroke-linecap:butt;stroke-linejoin:miter;marker:none;marker-start:none;marker-mid:none;marker-end:none;stroke-miterlimit:4;stroke-dasharray:none;stroke-dashoffset:0;stroke-opacity:1;visibility:visible;display:inline;overflow:visible;enable-background:accumulate"
       d="M -341.59526,837.04565 C -341.69448,837.07939 -341.77506,837.14401 -341.87613,837.1746 C -347.59694,838.90619 -354.05737,834.87824 -356.30814,828.18505 C -358.55896,821.49188 -355.75101,814.65856 -350.03024,812.92698 C -349.92918,812.89639 -349.82404,812.9048 -349.72256,812.87779 L -341.59526,837.04565 z"
       id="path9172" />
    <path
       style="fill:#eac102;fill-opacity:1;fill-rule:nonzero;stroke:#000000;stroke-width:1.00000048;stroke-linecap:butt;stroke-linejoin:miter;marker:none;marker-start:none;marker-mid:none;marker-end:none;stroke-miterlimit:4;stroke-dashoffset:0;stroke-opacity:1;visibility:visible;display:inline;overflow:visible;enable-background:accumulate"
       d="M -349.21345,810.31296 L -352.32989,811.25625 L -342.81255,839.55763 L -339.69611,838.61434 C -342.26878,827.35235 -345.58326,816.90283 -349.21345,810.31296 z"
       id="path9174"
       sodipodi:nodetypes="ccccc" />
    <path
       style="fill:#eac102;fill-opacity:1;fill-rule:evenodd;stroke:#000000;stroke-width:1.00000024px;stroke-linecap:round;stroke-linejoin:round;marker:none;marker-start:none;marker-mid:none;marker-end:none;stroke-miterlimit:4;stroke-dasharray:none;stroke-dashoffset:0;stroke-opacity:1;visibility:visible;display:inline;overflow:visible;enable-background:accumulate"
       d="M -332.34589,799.94588 C -329.39995,800.00824 -325.61328,805.34554 -323.60055,812.47216 C -321.58791,819.59825 -322.05846,826.00315 -324.5764,827.4552 L -324.68244,827.51105 C -324.83231,827.58751 -324.98662,827.64616 -325.15029,827.68777 L -330.0829,828.93083 L -332.31838,821.01568 C -333.16087,819.30643 -333.91347,817.36269 -334.5114,815.2458 C -335.10928,813.1289 -335.48567,811.07508 -335.65687,809.19517 L -337.87128,801.35462 L -332.34589,799.94588 z"
       id="path9178"
       sodipodi:nodetypes="cscccccsccc" />
    <path
       sodipodi:type="arc"
       style="fill:#eac102;fill-opacity:1;fill-rule:evenodd;stroke:#000000;stroke-width:1.55531836px;stroke-linecap:round;stroke-linejoin:round;marker:none;marker-start:none;marker-mid:none;marker-end:none;stroke-miterlimit:4;stroke-dasharray:none;stroke-dashoffset:0;stroke-opacity:1;visibility:visible;display:inline;overflow:visible;enable-background:accumulate"
       id="path9180"
       sodipodi:cx="2042.3096"
       sodipodi:cy="702.48627"
       sodipodi:rx="6.0690784"
       sodipodi:ry="32.088638"
       d="M 2048.3786,702.48627 A 6.0690784,32.088638 0 1 1 2036.2405,702.48627 A 6.0690784,32.088638 0 1 1 2048.3786,702.48627 z"
       transform="matrix(-0.8995649,0.2286779,0.1210959,0.4287623,1418.3935,46.897205)" />
    <path
       style="fill:#e3e4e5;fill-opacity:1;fill-rule:evenodd;stroke:#000000;stroke-width:1.00000024px;stroke-linecap:round;stroke-linejoin:round;marker:none;marker-start:none;marker-mid:none;marker-end:none;stroke-miterlimit:4;stroke-dashoffset:0;stroke-opacity:1;visibility:visible;display:inline;overflow:visible;enable-background:accumulate"
       d="M -337.70078,803.06697 C -348.18777,809.3297 -342.36085,827.20974 -330.63807,828.07376 C -323.62968,824.68716 -331.27398,801.55357 -337.70078,803.06697 z"
       id="path9182"
       sodipodi:nodetypes="ccc" />
    <path
       id="path9188"
       d="M 31.62628,837.04565 C 31.725498,837.07939 31.80608,837.14401 31.907147,837.1746 C 37.62796,838.90619 44.088391,834.87824 46.339162,828.18505 C 48.589977,821.49188 45.782032,814.65856 40.061264,812.92698 C 39.960198,812.89639 39.855057,812.9048 39.753576,812.87779 L 31.62628,837.04565 z"
       style="fill:#ed1c24;fill-opacity:1;fill-rule:nonzero;stroke:#000000;stroke-width:1.00000048;stroke-linecap:butt;stroke-linejoin:miter;marker:none;marker-start:none;marker-mid:none;marker-end:none;stroke-miterlimit:4;stroke-dasharray:none;stroke-dashoffset:0;stroke-opacity:1;visibility:visible;display:inline;overflow:visible;enable-background:accumulate" />
    <path
       sodipodi:nodetypes="ccccc"
       id="path9190"
       d="M 39.244469,810.31296 L 42.360906,811.25625 L 32.843567,839.55763 L 29.72713,838.61434 C 32.2998,827.35235 35.614283,816.90283 39.244469,810.31296 z"
       style="fill:#eac102;fill-opacity:1;fill-rule:nonzero;stroke:#000000;stroke-width:1.00000048;stroke-linecap:butt;stroke-linejoin:miter;marker:none;marker-start:none;marker-mid:none;marker-end:none;stroke-miterlimit:4;stroke-dashoffset:0;stroke-opacity:1;visibility:visible;display:inline;overflow:visible;enable-background:accumulate" />
    <path
       id="path10153"
       rx="3.9327636"
       cy="-89.381149"
       ry="3.9327636"
       cx="-486.21375"
       type="arc"
       d="M 49.666502,812.66967 C 44.433202,812.60077 40.250302,808.30617 40.319202,803.07287 C 40.388102,797.84427 44.682702,793.66137 49.916002,793.73037 C 55.147002,793.79927 59.329802,798.09377 59.260902,803.32237 C 59.191902,808.55567 54.897502,812.73867 49.666502,812.66967 z"
       style="fill:#e3e4e5;fill-opacity:1;stroke:#010101;stroke-width:1.00000012;stroke-miterlimit:4;stroke-dasharray:none" />
    <path
       sodipodi:nodetypes="cscccccsccc"
       id="path9194"
       d="M 22.376909,799.94588 C 19.43097,800.00824 15.644297,805.34554 13.631566,812.47216 C 11.618934,819.59825 12.089484,826.00315 14.607415,827.4552 L 14.713456,827.51105 C 14.863327,827.58751 15.017645,827.64616 15.181308,827.68777 L 20.113919,828.93083 L 22.349403,821.01568 C 23.191893,819.30643 23.944493,817.36269 24.542417,815.2458 C 25.140296,813.1289 25.516685,811.07508 25.687887,809.19517 L 27.902302,801.35462 L 22.376909,799.94588 z"
       style="fill:#eac102;fill-opacity:1;fill-rule:evenodd;stroke:#000000;stroke-width:1.00000024px;stroke-linecap:round;stroke-linejoin:round;marker:none;marker-start:none;marker-mid:none;marker-end:none;stroke-miterlimit:4;stroke-dasharray:none;stroke-dashoffset:0;stroke-opacity:1;visibility:visible;display:inline;overflow:visible;enable-background:accumulate" />
    <path
       transform="matrix(0.8995649,0.2286779,-0.1210959,0.4287623,-1728.3625,46.897205)"
       d="M 2048.3786,702.48627 A 6.0690784,32.088638 0 1 1 2036.2405,702.48627 A 6.0690784,32.088638 0 1 1 2048.3786,702.48627 z"
       sodipodi:ry="32.088638"
       sodipodi:rx="6.0690784"
       sodipodi:cy="702.48627"
       sodipodi:cx="2042.3096"
       id="path9196"
       style="fill:#eac102;fill-opacity:1;fill-rule:evenodd;stroke:#000000;stroke-width:1.55531836px;stroke-linecap:round;stroke-linejoin:round;marker:none;marker-start:none;marker-mid:none;marker-end:none;stroke-miterlimit:4;stroke-dasharray:none;stroke-dashoffset:0;stroke-opacity:1;visibility:visible;display:inline;overflow:visible;enable-background:accumulate"
       sodipodi:type="arc" />
    <path
       sodipodi:nodetypes="ccc"
       id="path9198"
       d="M 27.731796,803.06697 C 38.218785,809.3297 32.391868,827.20974 20.669093,828.07376 C 13.660695,824.68716 21.305003,801.55357 27.731796,803.06697 z"
       style="fill:#e3e4e5;fill-opacity:1;fill-rule:evenodd;stroke:#000000;stroke-width:1.00000024px;stroke-linecap:round;stroke-linejoin:round;marker:none;marker-start:none;marker-mid:none;marker-end:none;stroke-miterlimit:4;stroke-dashoffset:0;stroke-opacity:1;visibility:visible;display:inline;overflow:visible;enable-background:accumulate" />
    <path
       id="path10145"
       rx="3.9327636"
       cy="-89.381149"
       ry="3.9327636"
       cx="-486.21375"
       type="arc"
       d="M -156.74138,878.9593 C -161.97467,878.89034 -166.15756,874.59576 -166.08862,869.36247 C -166.01975,864.13386 -161.72518,859.95104 -156.49187,860.01999 C -151.26087,860.08883 -147.07809,864.38341 -147.14696,869.61202 C -147.2159,874.84531 -151.51035,879.02825 -156.74138,878.9593 z"
       style="fill:#e3e4e5;fill-opacity:1;stroke:#010101;stroke-width:1.00000012;stroke-miterlimit:4;stroke-dasharray:none" />
    <path
       style="fill:#e3e4e5;fill-opacity:1;stroke:#010101;stroke-width:1.00000012;stroke-miterlimit:4;stroke-dasharray:none"
       d="M -74.715108,877.39292 C -79.9484,877.32397 -84.131289,873.02939 -84.06235,867.7961 C -83.993479,862.56749 -79.69891,858.38467 -74.465607,858.45362 C -69.234598,858.52245 -65.051823,862.81703 -65.120694,868.04565 C -65.189633,873.27894 -69.484088,877.46187 -74.715108,877.39292 z"
       type="arc"
       cx="-486.21375"
       ry="3.9327636"
       cy="-89.381149"
       rx="3.9327636"
       id="path10143" />
    <path
       style="fill:#e3e4e5;fill-opacity:1;stroke:#010101;stroke-width:1.00000012;stroke-miterlimit:4;stroke-dasharray:none"
       d="M -252.334,876.71811 C -257.5673,876.64916 -261.75019,872.35458 -261.68125,867.12129 C -261.61238,861.89268 -257.31781,857.70986 -252.0845,857.77881 C -246.85349,857.84764 -242.67072,862.14222 -242.73959,867.37084 C -242.80853,872.60413 -247.10298,876.78706 -252.334,876.71811 z"
       type="arc"
       cx="-486.21375"
       ry="3.9327636"
       cy="-89.381149"
       rx="3.9327636"
       id="path10147" />
    <path
       id="path10149"
       rx="3.9327636"
       cy="-89.381149"
       ry="3.9327636"
       cx="-486.21375"
       type="arc"
       d="M -332.11915,864.23586 C -337.35244,864.16691 -341.53533,859.87233 -341.46639,854.63904 C -341.39752,849.41043 -337.10295,845.22761 -331.86965,845.29656 C -326.63864,845.36539 -322.45586,849.65997 -322.52473,854.88859 C -322.59367,860.12188 -326.88813,864.30481 -332.11915,864.23586 z"
       style="fill:#e3e4e5;fill-opacity:1;stroke:#010101;stroke-width:1.00000012;stroke-miterlimit:4;stroke-dasharray:none" />
    <path
       style="fill:#eac102;fill-rule:evenodd;stroke:#000000;stroke-width:1px;stroke-linecap:butt;stroke-linejoin:miter;stroke-opacity:1"
       d="M -326.50935,845.30177 C -326.50935,845.30177 -289.44779,827.43394 -154.98473,827.43394 C -20.96718,827.43394 16.5398,845.30177 16.5398,845.30177 C 16.5398,845.30177 -14.80758,863.16961 -154.98473,863.16961 C -295.60767,863.16961 -326.50935,845.30177 -326.50935,845.30177 z"
       id="path9202"
       sodipodi:nodetypes="czczc" />
    <path
       id="path9206"
       style="font-size:12px;fill:none;stroke:#000000;stroke-width:0.52008164"
       d="M -198.64228,866.02256 L -198.64228,824.68193" />
    <path
       id="path9208"
       style="font-size:12px;fill:none;stroke:#000000;stroke-width:0.76567769"
       d="M -206.5242,866.02256 L -206.5242,824.68193" />
    <path
       id="path9210"
       style="font-size:12px;fill:none;stroke:#000000;stroke-width:1.02572083"
       d="M -213.96465,866.02256 L -213.96465,824.68193" />
    <path
       id="path9212"
       style="font-size:12px;fill:none;stroke:#000000;stroke-width:1.28576362"
       d="M -221.3406,866.02256 L -221.3406,824.68193" />
    <path
       id="path9214"
       style="font-size:12px;fill:none;stroke:#000000;stroke-width:1.54580235"
       d="M -227.9129,866.02256 L -227.9129,824.68193" />
    <path
       id="path9216"
       style="font-size:12px;fill:none;stroke:#000000;stroke-width:1.80584526"
       d="M -240.44748,863.79359 L -240.62111,826.16679 M -234.5051,864.2886 L -234.5051,824.931" />
    <path
       id="path9218"
       style="font-size:12px;fill:none;stroke:#000000;stroke-width:2.05144167"
       d="M -252.0199,862.10168 L -252.0199,827.43493 M -246.15678,863.09159 L -246.33041,826.19914" />
    <path
       id="path9220"
       style="font-size:12px;fill:none;stroke:#000000;stroke-width:2.31148434"
       d="M -267.54548,860.12186 L -267.54548,829.66389 M -262.45136,860.61682 L -262.45136,828.67392 M -257.20333,861.60673 L -257.20333,828.42484" />
    <path
       id="path9222"
       style="font-size:12px;fill:none;stroke:#000000;stroke-width:2.57152724"
       d="M -272.98696,859.87278 L -272.98696,830.40793" />
    <path
       id="path9224"
       style="font-size:12px;fill:none;stroke:#000000;stroke-width:2.8315661"
       d="M -278.06127,858.38785 L -278.06127,830.90289" />
    <path
       id="path9226"
       style="font-size:12px;fill:none;stroke:#000000;stroke-width:3.091609"
       d="M -283.50266,857.64376 L -283.50266,832.13867" />
    <path
       id="path9228"
       style="font-size:12px;fill:none;stroke:#000000;stroke-width:3.33720565"
       d="M -294.64346,855.41806 L -294.81716,835.11174 M -288.93428,856.40804 L -288.93428,833.62681" />
    <path
       id="path9230"
       style="font-size:12px;fill:none;stroke:#000000;stroke-width:3.52501416"
       d="M -300.35276,853.68404 L -300.35276,835.8525" />
    <path
       id="path9232"
       style="font-size:12px;fill:none;stroke:#000000;stroke-width:3.78505349"
       d="M -305.58088,852.23802 L -305.58088,837.38911" />
    <path
       id="path9234"
       style="font-size:12px;fill:none;stroke:#000000;stroke-width:4.03064871"
       d="M -311.29018,850.2582 L -311.29018,838.62817" />
    <path
       id="path9236"
       style="font-size:12px;fill:none;stroke:#000000;stroke-width:4.27626181"
       d="M -317.15818,849.26829 L -317.15818,840.60805" />
    <path
       id="path9238"
       style="font-size:12px;fill:none;stroke:#000000;stroke-width:5.04192257"
       d="M -323.3688,847.29035 L -323.3688,843.08182" />
    <path
       id="path9240"
       style="font-size:12px;fill:none;stroke:#000000;stroke-width:0.26004165"
       d="M -167.28348,863.79359 L -167.28348,825.92097 M -180.63646,865.03264 L -180.46292,824.931 M -190.3686,865.52759 L -190.3686,824.68193" />
    <path
       d="M -111.3271,866.02256 L -111.3271,824.68193"
       style="font-size:12px;fill:none;stroke:#000000;stroke-width:0.52008164"
       id="path9242" />
    <path
       d="M -103.44528,866.02256 L -103.44528,824.68193"
       style="font-size:12px;fill:none;stroke:#000000;stroke-width:0.76567769"
       id="path9244" />
    <path
       d="M -96.00483,866.02256 L -96.00483,824.68193"
       style="font-size:12px;fill:none;stroke:#000000;stroke-width:1.02572083"
       id="path9246" />
    <path
       d="M -88.62888,866.02256 L -88.62888,824.68193"
       style="font-size:12px;fill:none;stroke:#000000;stroke-width:1.28576362"
       id="path9248" />
    <path
       d="M -82.05658,866.02256 L -82.05658,824.68193"
       style="font-size:12px;fill:none;stroke:#000000;stroke-width:1.54580235"
       id="path9250" />
    <path
       d="M -69.52191,863.79359 L -69.34828,826.16679 M -75.46438,864.2886 L -75.46438,824.931"
       style="font-size:12px;fill:none;stroke:#000000;stroke-width:1.80584526"
       id="path9252" />
    <path
       d="M -57.94958,862.10168 L -57.94958,827.43493 M -63.81261,863.09159 L -63.63907,826.19914"
       style="font-size:12px;fill:none;stroke:#000000;stroke-width:2.05144167"
       id="path9254" />
    <path
       d="M -42.4239,860.12186 L -42.4239,829.66389 M -47.51812,860.61682 L -47.51812,828.67392 M -52.76615,861.60673 L -52.76615,828.42484"
       style="font-size:12px;fill:none;stroke:#000000;stroke-width:2.31148434"
       id="path9256" />
    <path
       d="M -36.98243,859.87278 L -36.98243,830.40793"
       style="font-size:12px;fill:none;stroke:#000000;stroke-width:2.57152724"
       id="path9258" />
    <path
       d="M -31.90812,858.38785 L -31.90812,830.90289"
       style="font-size:12px;fill:none;stroke:#000000;stroke-width:2.8315661"
       id="path9260" />
    <path
       d="M -26.46673,857.64376 L -26.46673,832.13867"
       style="font-size:12px;fill:none;stroke:#000000;stroke-width:3.091609"
       id="path9262" />
    <path
       d="M -15.32599,855.41806 L -15.15227,835.11174 M -21.0352,856.40804 L -21.0352,833.62681"
       style="font-size:12px;fill:none;stroke:#000000;stroke-width:3.33720565"
       id="path9264" />
    <path
       d="M -9.61669,853.68404 L -9.61669,835.8525"
       style="font-size:12px;fill:none;stroke:#000000;stroke-width:3.52501416"
       id="path9266" />
    <path
       d="M -4.38857,852.23802 L -4.38857,837.38911"
       style="font-size:12px;fill:none;stroke:#000000;stroke-width:3.78505349"
       id="path9268" />
    <path
       d="M 1.32073,850.2582 L 1.32073,838.62817"
       style="font-size:12px;fill:none;stroke:#000000;stroke-width:4.03064871"
       id="path9270" />
    <path
       d="M 7.18873,849.26829 L 7.18873,840.60805"
       style="font-size:12px;fill:none;stroke:#000000;stroke-width:4.27626181"
       id="path9272" />
    <path
       d="M 13.3993,847.29035 L 13.3993,843.08182"
       style="font-size:12px;fill:none;stroke:#000000;stroke-width:5.04192257"
       id="path9274" />
    <path
       d="M -142.686,863.79359 L -142.686,825.92097 M -129.33293,865.03264 L -129.50647,824.931 M -119.60088,865.52759 L -119.60088,824.68193"
       style="font-size:12px;fill:none;stroke:#000000;stroke-width:0.26004165"
       id="path9276" />
    <path
       id="path11736"
       rx="3.9327636"
       cy="-89.381149"
       ry="3.9327636"
       cx="-486.21375"
       type="arc"
       d="M 11.496502,850.26797 C 13.682802,845.51277 19.305102,843.43207 24.060402,845.61847 C 28.811202,847.80277 30.891902,853.42517 28.705602,858.18037 C 26.520202,862.93347 20.898002,865.01407 16.147002,862.82977 C 11.391802,860.64337 9.311002,855.02117 11.496502,850.26797 z"
       style="fill:#e3e4e5;fill-opacity:1;stroke:#010101;stroke-width:0.99999994;stroke-miterlimit:4;stroke-dasharray:none" />
    <path
       style="fill:#eac102;fill-rule:evenodd;stroke:#000000;stroke-width:1px;stroke-linecap:butt;stroke-linejoin:miter;stroke-opacity:1"
       d="M -155.13818,815.16795 C -207.313,815.68816 -260.08179,815.74349 -311.32274,826.17936 C -322.75774,829.62511 -339.11398,831.54326 -343.40639,843.74845 C -344.81461,853.94277 -331.89812,858.26993 -323.82211,861.07161 C -285.35002,872.09727 -244.68081,873.03711 -204.81893,874.76074 C -142.80313,875.94841 -80.41066,876.40911 -18.85466,868.17575 C -2.03789,865.07431 16.47869,863.15951 30.30759,852.71059 C 38.56487,844.98848 29.44201,834.19291 20.3139,831.97197 C -10.99993,820.50083 -45.15086,819.27949 -78.26985,816.94398 C -103.86608,815.61041 -129.50656,815.18489 -155.13818,815.16795 z M -154.99413,827.43625 C -20.97667,827.43627 16.54109,845.30589 16.54109,845.30589 C 16.541,845.30588 -14.81707,863.17553 -154.99413,863.17553 C -295.61716,863.17553 -326.5006,845.30589 -326.5006,845.30589 C -326.5006,845.30588 -289.45728,827.43625 -154.99413,827.43625 z"
       id="path9278" />
    <path
       sodipodi:nodetypes="cssscc"
       id="path11795"
       d="M -4.578098,839.19855 C -4.979198,839.73225 -5.381898,839.57938 -5.671898,840.21008 C -7.857198,844.96318 -5.770998,850.58628 -1.015598,852.77258 C 3.735302,854.95688 9.361402,852.86938 11.546902,848.11638 C 12.459602,846.13108 12.476302,845.5936 12.015602,843.6193 C 4.88703,841.45535 -1.0122914,839.66944 -4.578098,839.19855 z"
       style="fill:#e3e4e5;fill-opacity:1;stroke:#010101;stroke-width:1;stroke-miterlimit:4;stroke-dasharray:none" />
    <path
       id="path10141"
       rx="3.9327636"
       cy="-89.381149"
       ry="3.9327636"
       cx="-486.21375"
       type="arc"
       d="M 12.39527,866.01911 C 7.161978,865.95015 2.979089,861.65557 3.048028,856.42228 C 3.116899,851.19367 7.411468,847.01085 12.644771,847.0798 C 17.87578,847.14864 22.058556,851.44322 21.989685,856.67183 C 21.920745,861.90512 17.626291,866.08806 12.39527,866.01911 z"
       style="fill:#e3e4e5;fill-opacity:1;stroke:#010101;stroke-width:1.00000012;stroke-miterlimit:4;stroke-dasharray:none" />
    <path
       style="fill:#e3e4e5;fill-opacity:1;stroke:#010101;stroke-width:1.00000012;stroke-miterlimit:4;stroke-dasharray:none"
       d="M 59.015319,765.31548 C 59.015319,777.71359 48.962679,787.76339 36.5581,787.76339 C 24.151215,787.76339 14.096258,777.71599 14.096258,765.31548 C 14.096258,752.91976 24.148909,742.87007 36.5581,742.87007 C 48.962679,742.87007 59.015319,752.91747 59.015319,765.31548 z"
       type="arc"
       cx="-514.24567"
       ry="9.7493839"
       cy="-132.80592"
       rx="9.7493839"
       id="path10211" />
    <path
       id="path10213"
       rx="9.7493839"
       cy="-132.80592"
       ry="9.7493839"
       cx="-514.24567"
       type="arc"
       d="M -326.06528,771.3153 C -326.06528,783.71342 -336.12253,793.76322 -348.52711,793.76322 C -360.92938,793.76322 -370.98434,783.7157 -370.98434,771.3153 C -370.98434,758.91958 -360.93168,748.86979 -348.52711,748.86979 C -336.12253,748.86979 -326.06528,758.9173 -326.06528,771.3153 z"
       style="fill:#e3e4e5;fill-opacity:1;stroke:#010101;stroke-width:1.00000012;stroke-miterlimit:4;stroke-dasharray:none" />
    <path
       id="path10217"
       rx="9.7493839"
       cy="-132.80592"
       ry="9.7493839"
       cx="-514.24567"
       type="arc"
       d="M -205.35312,752.39272 C -205.35312,764.79095 -215.40807,774.84064 -227.81034,774.84064 C -240.21261,774.84064 -250.27218,764.79324 -250.27218,752.39272 C -250.27218,739.997 -240.21492,729.94732 -227.81034,729.94732 C -215.40807,729.94732 -205.35312,739.997 -205.35312,752.39272 z"
       style="fill:#e3e4e5;fill-opacity:1;stroke:#010101;stroke-width:1.00000012;stroke-miterlimit:4;stroke-dasharray:none" />
    <path
       style="fill:#e3e4e5;fill-opacity:1;stroke:#010101;stroke-width:1.00000012;stroke-miterlimit:4;stroke-dasharray:none"
       d="M -59.696823,752.39295 C -59.696823,764.78878 -69.749474,774.84087 -82.154053,774.84087 C -94.556326,774.84087 -104.61127,764.79118 -104.61127,752.39295 C -104.61127,739.99495 -94.556326,729.94526 -82.154053,729.94526 C -69.749474,729.94755 -59.696823,739.99723 -59.696823,752.39295 z"
       type="arc"
       cx="-514.24567"
       ry="9.7493839"
       cy="-132.80592"
       rx="9.7493839"
       id="path10219" />
    <path
       style="fill:#e3e4e5;fill-opacity:1;stroke:#010101;stroke-width:0.99999994;stroke-miterlimit:4;stroke-dasharray:none"
       d="M -197.61802,762.82594 C -197.61802,768.05969 -201.85709,772.29879 -207.0909,772.29879 C -212.3199,772.29879 -216.55898,768.05969 -216.55898,762.82594 C -216.55898,757.59448 -212.3199,753.35549 -207.0909,753.35549 C -201.85709,753.35549 -197.61802,757.59448 -197.61802,762.82594 z"
       type="arc"
       cx="-486.21375"
       ry="3.9327636"
       cy="-89.381149"
       rx="3.9327636"
       id="path10223" />
    <path
       id="path10225"
       rx="3.9327636"
       cy="-89.381149"
       ry="3.9327636"
       cx="-486.21375"
       type="arc"
       d="M -184.24417,767.95869 C -184.24417,773.19244 -188.48324,777.43154 -193.71705,777.43154 C -198.94605,777.43154 -203.18513,773.19244 -203.18513,767.95869 C -203.18513,762.72723 -198.94605,758.48824 -193.71705,758.48824 C -188.48324,758.48824 -184.24417,762.72723 -184.24417,767.95869 z"
       style="fill:#e3e4e5;fill-opacity:1;stroke:#010101;stroke-width:0.99999994;stroke-miterlimit:4;stroke-dasharray:none" />
    <path
       style="fill:#e3e4e5;fill-opacity:1;stroke:#010101;stroke-width:0.99999994;stroke-miterlimit:4;stroke-dasharray:none"
       d="M -173.04513,779.15771 C -173.04513,784.39145 -177.28421,788.63055 -182.51801,788.63055 C -187.74701,788.63055 -191.98609,784.39145 -191.98609,779.15771 C -191.98609,773.92624 -187.74701,769.68725 -182.51801,769.68725 C -177.28421,769.68725 -173.04513,773.92624 -173.04513,779.15771 z"
       type="arc"
       cx="-486.21375"
       ry="3.9327636"
       cy="-89.381149"
       rx="3.9327636"
       id="path10227" />
    <path
       id="path10229"
       rx="3.9327636"
       cy="-89.381149"
       ry="3.9327636"
       cx="-486.21375"
       type="arc"
       d="M -164.62919,791.63996 C -164.62919,796.87371 -168.86827,801.11281 -174.10207,801.11281 C -179.33107,801.11281 -183.57015,796.87371 -183.57015,791.63996 C -183.57015,786.40849 -179.33107,782.16951 -174.10207,782.16951 C -168.86827,782.16951 -164.62919,786.40849 -164.62919,791.63996 z"
       style="fill:#e3e4e5;fill-opacity:1;stroke:#010101;stroke-width:0.99999994;stroke-miterlimit:4;stroke-dasharray:none" />
    <path
       style="fill:#e3e4e5;fill-opacity:1;stroke:#010101;stroke-width:0.99999994;stroke-miterlimit:4;stroke-dasharray:none"
       d="M -158.38806,805.90545 C -158.38806,811.1392 -162.62714,815.3783 -167.86095,815.3783 C -173.08995,815.3783 -177.32902,811.1392 -177.32902,805.90545 C -177.32902,800.67399 -173.08995,796.435 -167.86095,796.435 C -162.62714,796.435 -158.38806,800.67399 -158.38806,805.90545 z"
       type="arc"
       cx="-486.21375"
       ry="3.9327636"
       cy="-89.381149"
       rx="3.9327636"
       id="path10231" />
    <path
       id="path10233"
       rx="3.9327636"
       cy="-89.381149"
       ry="3.9327636"
       cx="-486.21375"
       type="arc"
       d="M -153.93011,821.0624 C -153.93011,826.29615 -158.16919,830.53525 -163.403,830.53525 C -168.632,830.53525 -172.87107,826.29615 -172.87107,821.0624 C -172.87107,815.83093 -168.632,811.59195 -163.403,811.59195 C -158.16919,811.59195 -153.93011,815.83093 -153.93011,821.0624 z"
       style="fill:#e3e4e5;fill-opacity:1;stroke:#010101;stroke-width:0.99999994;stroke-miterlimit:4;stroke-dasharray:none" />
    <path
       id="path10235"
       rx="3.9327636"
       cy="-89.381149"
       ry="3.9327636"
       cx="-486.21375"
       type="arc"
       d="M -315.3137,777.99307 C -314.1306,783.09137 -317.3018,788.17887 -322.4001,789.36197 C -327.4938,790.54397 -332.5814,787.37287 -333.7644,782.27447 C -334.9469,777.17847 -331.7758,772.09097 -326.6821,770.90897 C -321.5838,769.72587 -316.4962,772.89697 -315.3137,777.99307 z"
       style="fill:#e3e4e5;fill-opacity:1;stroke:#010101;stroke-width:0.99999994;stroke-miterlimit:4;stroke-dasharray:none" />
    <path
       style="fill:#e3e4e5;fill-opacity:1;stroke:#010101;stroke-width:0.99999994;stroke-miterlimit:4;stroke-dasharray:none"
       d="M -300.6737,781.91817 C -299.4906,787.01647 -302.6618,792.10407 -307.7601,793.28707 C -312.8538,794.46907 -317.9414,791.29787 -319.1244,786.19967 C -320.3069,781.10357 -317.1358,776.01607 -312.0421,774.83407 C -306.9438,773.65107 -301.8562,776.82207 -300.6737,781.91817 z"
       type="arc"
       cx="-486.21375"
       ry="3.9327636"
       cy="-89.381149"
       rx="3.9327636"
       id="path10237" />
    <path
       id="path10239"
       rx="3.9327636"
       cy="-89.381149"
       ry="3.9327636"
       cx="-486.21375"
       type="arc"
       d="M -287.2331,790.29577 C -286.05,795.39417 -289.2211,800.48167 -294.3195,801.66477 C -299.4132,802.84677 -304.5007,799.67567 -305.6838,794.57727 C -306.8663,789.48117 -303.6951,784.39377 -298.6015,783.21177 C -293.5031,782.02867 -288.4156,785.19977 -287.2331,790.29577 z"
       style="fill:#e3e4e5;fill-opacity:1;stroke:#010101;stroke-width:0.99999994;stroke-miterlimit:4;stroke-dasharray:none" />
    <path
       style="fill:#e3e4e5;fill-opacity:1;stroke:#010101;stroke-width:0.99999994;stroke-miterlimit:4;stroke-dasharray:none"
       d="M -275.3218,800.55267 C -274.1388,805.65097 -277.3099,810.73857 -282.4083,811.92157 C -287.5019,813.10357 -292.5895,809.93237 -293.7726,804.83417 C -294.9551,799.73807 -291.7839,794.65057 -286.6903,793.46857 C -281.5919,792.28557 -276.5044,795.45657 -275.3218,800.55267 z"
       type="arc"
       cx="-486.21375"
       ry="3.9327636"
       cy="-89.381149"
       rx="3.9327636"
       id="path10241" />
    <path
       id="path10243"
       rx="3.9327636"
       cy="-89.381149"
       ry="3.9327636"
       cx="-486.21375"
       type="arc"
       d="M -265.8008,811.92967 C -264.6178,817.02807 -267.7889,822.11557 -272.8873,823.29867 C -277.9809,824.48067 -283.0685,821.30947 -284.2516,816.21117 C -285.4341,811.11507 -282.2629,806.02767 -277.1693,804.84567 C -272.0709,803.66257 -266.9834,806.83367 -265.8008,811.92967 z"
       style="fill:#e3e4e5;fill-opacity:1;stroke:#010101;stroke-width:0.99999994;stroke-miterlimit:4;stroke-dasharray:none" />
    <path
       style="fill:#e3e4e5;fill-opacity:1;stroke:#010101;stroke-width:0.99999994;stroke-miterlimit:4;stroke-dasharray:none"
       d="M -261.8153,826.57827 C -260.6323,831.67657 -263.8034,836.76417 -268.9018,837.94717 C -273.9954,839.12917 -279.083,835.95797 -280.266,830.85977 C -281.4486,825.76367 -278.2774,820.67617 -273.1837,819.49417 C -268.0854,818.31117 -262.9979,821.48227 -261.8153,826.57827 z"
       type="arc"
       cx="-486.21375"
       ry="3.9327636"
       cy="-89.381149"
       rx="3.9327636"
       id="path10245" />
    <path
       id="path10249"
       rx="3.9327636"
       cy="-89.381149"
       ry="3.9327636"
       cx="-486.21375"
       type="arc"
       d="M -54.178068,765.28327 C -55.344935,770.38529 -60.422424,773.57258 -65.524494,772.4057 C -70.621879,771.23989 -73.809148,766.16239 -72.64228,761.06037 C -71.475921,755.96058 -66.398458,752.7734 -61.301073,753.93921 C -56.199003,755.10609 -53.011709,760.18348 -54.178068,765.28327 z"
       style="fill:#e3e4e5;fill-opacity:1;stroke:#010101;stroke-width:1;stroke-miterlimit:4;stroke-dasharray:none" />
    <path
       style="fill:#e3e4e5;fill-opacity:1;stroke:#010101;stroke-width:1;stroke-miterlimit:4;stroke-dasharray:none"
       d="M -42.73109,773.21819 C -43.897958,778.32021 -48.975447,781.50751 -54.077517,780.34062 C -59.174901,779.17482 -62.36217,774.09731 -61.195303,768.9953 C -60.028944,763.89551 -54.951481,760.70832 -49.854096,761.87413 C -44.752026,763.04101 -41.564732,768.11841 -42.73109,773.21819 z"
       type="arc"
       cx="-486.21375"
       ry="3.9327636"
       cy="-89.381149"
       rx="3.9327636"
       id="path10251" />
    <path
       id="path10253"
       rx="3.9327636"
       cy="-89.381149"
       ry="3.9327636"
       cx="-486.21375"
       type="arc"
       d="M -34.310762,786.63216 C -35.47763,791.73417 -40.555119,794.92147 -45.657189,793.75459 C -50.754574,792.58878 -53.941842,787.51128 -52.774975,782.40926 C -51.608616,777.30947 -46.531153,774.12229 -41.433768,775.2881 C -36.331698,776.45498 -33.144404,781.53237 -34.310762,786.63216 z"
       style="fill:#e3e4e5;fill-opacity:1;stroke:#010101;stroke-width:1;stroke-miterlimit:4;stroke-dasharray:none" />
    <path
       style="fill:#e3e4e5;fill-opacity:1;stroke:#010101;stroke-width:1;stroke-miterlimit:4;stroke-dasharray:none"
       d="M -28.88958,800.67657 C -30.056448,805.77858 -35.133937,808.96588 -40.236006,807.799 C -45.333391,806.63319 -48.52066,801.55569 -47.353792,796.45367 C -46.187434,791.35388 -41.10997,788.1667 -36.012586,789.33251 C -30.910516,790.49939 -27.723222,795.57678 -28.88958,800.67657 z"
       type="arc"
       cx="-486.21375"
       ry="3.9327636"
       cy="-89.381149"
       rx="3.9327636"
       id="path10255" />
    <path
       id="path10257"
       rx="3.9327636"
       cy="-89.381149"
       ry="3.9327636"
       cx="-486.21375"
       type="arc"
       d="M -25.986046,815.97446 C -27.152914,821.07648 -32.230403,824.26377 -37.332472,823.09689 C -42.429857,821.93108 -45.617126,816.85358 -44.450258,811.75156 C -43.2839,806.65178 -38.206436,803.46459 -33.109052,804.6304 C -28.006982,805.79728 -24.819687,810.87467 -25.986046,815.97446 z"
       style="fill:#e3e4e5;fill-opacity:1;stroke:#010101;stroke-width:1;stroke-miterlimit:4;stroke-dasharray:none" />
    <path
       style="fill:#e3e4e5;fill-opacity:1;stroke:#010101;stroke-width:1;stroke-miterlimit:4;stroke-dasharray:none"
       d="M -25.019554,831.74381 C -26.186422,836.84582 -31.263911,840.03312 -36.36598,838.86624 C -41.463365,837.70043 -44.650634,832.62292 -43.483766,827.52091 C -42.317408,822.42112 -37.239944,819.23394 -32.14256,820.39974 C -27.04049,821.56663 -23.853196,826.64402 -25.019554,831.74381 z"
       type="arc"
       cx="-486.21375"
       ry="3.9327636"
       cy="-89.381149"
       rx="3.9327636"
       id="path10259" />
    <path
       style="fill:#e3e4e5;fill-opacity:1;stroke:#010101;stroke-width:1.00000012;stroke-miterlimit:4;stroke-dasharray:none"
       d="M 46.974802,799.39097 C 41.741502,799.32197 37.558602,795.02737 37.627502,789.79417 C 37.696402,784.56547 41.991002,780.38267 47.224302,780.45167 C 52.455302,780.52047 56.638002,784.81507 56.569202,790.04367 C 56.500202,795.27697 52.205802,799.45987 46.974802,799.39097 z"
       type="arc"
       cx="-486.21375"
       ry="3.9327636"
       cy="-89.381149"
       rx="3.9327636"
       id="path10261" />
    <path
       style="fill:#e3e4e5;fill-opacity:1;stroke:#010101;stroke-width:1;stroke-miterlimit:4;stroke-dasharray:none"
       d="M -94.121498,868.74437 C -94.571098,863.52997 -90.711898,858.94237 -85.497398,858.49277 C -80.287798,858.04357 -75.700198,861.90287 -75.250598,867.11727 C -74.801198,872.32937 -78.660398,876.91687 -83.870098,877.36607 C -89.084498,877.81567 -93.672098,873.95657 -94.121498,868.74437 z"
       type="arc"
       cx="-486.21375"
       ry="3.9327636"
       cy="-89.381149"
       rx="3.9327636"
       id="path11675" />
    <path
       id="path11677"
       rx="3.9327636"
       cy="-89.381149"
       ry="3.9327636"
       cx="-486.21375"
       type="arc"
       d="M -106.0587,860.78697 C -106.5083,855.57257 -102.6491,850.98497 -97.434598,850.53537 C -92.224898,850.08607 -87.637398,853.94537 -87.187698,859.15977 C -86.738298,864.37187 -90.597598,868.95937 -95.807198,869.40857 C -101.0217,869.85827 -105.6093,865.99907 -106.0587,860.78697 z"
       style="fill:#e3e4e5;fill-opacity:1;stroke:#010101;stroke-width:1;stroke-miterlimit:4;stroke-dasharray:none" />
    <path
       style="fill:#e3e4e5;fill-opacity:1;stroke:#010101;stroke-width:1;stroke-miterlimit:4;stroke-dasharray:none"
       d="M -118.1784,850.59147 C -118.628,845.37707 -114.7688,840.78947 -109.5543,840.33977 C -104.3447,839.89057 -99.757098,843.74987 -99.307498,848.96427 C -98.857998,854.17637 -102.7173,858.76387 -107.927,859.21307 C -113.1414,859.66267 -117.729,855.80357 -118.1784,850.59147 z"
       type="arc"
       cx="-486.21375"
       ry="3.9327636"
       cy="-89.381149"
       rx="3.9327636"
       id="path11679" />
    <path
       id="path11681"
       rx="3.9327636"
       cy="-89.381149"
       ry="3.9327636"
       cx="-486.21375"
       type="arc"
       d="M -127.6356,838.87827 C -128.0852,833.66387 -124.2259,829.07627 -119.0115,828.62667 C -113.8018,828.17747 -109.2142,832.03677 -108.7646,837.25117 C -108.3152,842.46327 -112.1744,847.05077 -117.3841,847.49997 C -122.5986,847.94957 -127.1861,844.09047 -127.6356,838.87827 z"
       style="fill:#e3e4e5;fill-opacity:1;stroke:#010101;stroke-width:1;stroke-miterlimit:4;stroke-dasharray:none" />
    <path
       id="path11791"
       d="M -136.46814,827.96615 C -134.87724,831.79836 -131.03634,834.33194 -126.71545,833.79847 C -123.22047,833.36698 -120.53893,831.02134 -119.26813,827.98909 C -124.85622,827.91832 -130.58815,827.90898 -136.46814,827.96615 z"
       style="fill:#e3e4e5;fill-opacity:1;stroke:#010101;stroke-width:1;stroke-miterlimit:4;stroke-dasharray:none" />
    <path
       sodipodi:nodetypes="cssscc"
       id="path11783"
       d="M -291.9219,836.73704 C -293.3242,838.55074 -294.1345,840.83364 -293.9219,843.29954 C -293.4725,848.51164 -288.8864,852.37394 -283.6719,851.92454 C -278.4622,851.47534 -274.5974,846.88654 -275.0469,841.67454 C -275.3101,838.62224 -277.0898,836.17374 -279.4844,834.64324 C -283.65234,835.20839 -287.78574,835.98038 -291.9219,836.73704 z"
       style="fill:#e3e4e5;fill-opacity:1;stroke:#010101;stroke-width:1;stroke-miterlimit:4;stroke-dasharray:none" />
    <path
       id="path11702"
       rx="3.9327636"
       cy="-89.381149"
       ry="3.9327636"
       cx="-486.21375"
       type="arc"
       d="M -176.7592,870.18157 C -177.2088,864.96717 -173.3496,860.37957 -168.1351,859.92997 C -162.9255,859.48077 -158.3379,863.34007 -157.8883,868.55447 C -157.4389,873.76657 -161.2981,878.35407 -166.5078,878.80327 C -171.7222,879.25287 -176.3098,875.39377 -176.7592,870.18157 z"
       style="fill:#e3e4e5;fill-opacity:1;stroke:#010101;stroke-width:1;stroke-miterlimit:4;stroke-dasharray:none" />
    <path
       style="fill:#e3e4e5;fill-opacity:1;stroke:#010101;stroke-width:1;stroke-miterlimit:4;stroke-dasharray:none"
       d="M -188.6964,862.22417 C -189.146,857.00977 -185.2868,852.42217 -180.0723,851.97257 C -174.8626,851.52327 -170.2751,855.38257 -169.8254,860.59697 C -169.376,865.80907 -173.2353,870.39657 -178.4449,870.84577 C -183.6594,871.29547 -188.247,867.43627 -188.6964,862.22417 z"
       type="arc"
       cx="-486.21375"
       ry="3.9327636"
       cy="-89.381149"
       rx="3.9327636"
       id="path11704" />
    <path
       id="path11706"
       rx="3.9327636"
       cy="-89.381149"
       ry="3.9327636"
       cx="-486.21375"
       type="arc"
       d="M -200.8161,852.02867 C -201.2657,846.81427 -197.4065,842.22667 -192.192,841.77697 C -186.9824,841.32777 -182.3948,845.18707 -181.9452,850.40147 C -181.4957,855.61357 -185.355,860.20107 -190.5647,860.65027 C -195.7791,861.09987 -200.3667,857.24077 -200.8161,852.02867 z"
       style="fill:#e3e4e5;fill-opacity:1;stroke:#010101;stroke-width:1;stroke-miterlimit:4;stroke-dasharray:none" />
    <path
       style="fill:#e3e4e5;fill-opacity:1;stroke:#010101;stroke-width:1;stroke-miterlimit:4;stroke-dasharray:none"
       d="M -210.2733,840.31547 C -210.7229,835.10107 -206.8636,830.51347 -201.6492,830.06387 C -196.4395,829.61467 -191.8519,833.47397 -191.4023,838.68837 C -190.9529,843.90047 -194.8121,848.48797 -200.0218,848.93717 C -205.2363,849.38677 -209.8238,845.52767 -210.2733,840.31547 z"
       type="arc"
       cx="-486.21375"
       ry="3.9327636"
       cy="-89.381149"
       rx="3.9327636"
       id="path11708" />
    <path
       sodipodi:nodetypes="cscc"
       id="path11787"
       d="M -217.15089,829.03329 C -215.54959,832.60899 -211.5789,835.62828 -207.4531,835.27258 C -203.4482,834.92728 -200.2921,831.80919 -199.2344,828.16859 C -205.10399,828.49257 -210.91409,828.4684 -217.15089,829.03329 z"
       style="fill:#e3e4e5;fill-opacity:1;stroke:#010101;stroke-width:1;stroke-miterlimit:4;stroke-dasharray:none" />
    <path
       id="path11716"
       rx="3.9327636"
       cy="-89.381149"
       ry="3.9327636"
       cx="-486.21375"
       type="arc"
       d="M -285.8015,855.75687 C -286.2511,850.54247 -282.3919,845.95487 -277.1774,845.50527 C -271.9677,845.05597 -267.3802,848.91527 -266.9305,854.12967 C -266.4811,859.34177 -270.3404,863.92927 -275.55,864.37847 C -280.7645,864.82817 -285.3521,860.96897 -285.8015,855.75687 z"
       style="fill:#e3e4e5;fill-opacity:1;stroke:#010101;stroke-width:1;stroke-miterlimit:4;stroke-dasharray:none" />
    <path
       style="fill:#e3e4e5;fill-opacity:1;stroke:#010101;stroke-width:1;stroke-miterlimit:4;stroke-dasharray:none"
       d="M -273.8643,867.71427 C -274.3139,862.49987 -270.4547,857.91227 -265.2402,857.46267 C -260.0306,857.01347 -255.443,860.87277 -254.9934,866.08717 C -254.544,871.29927 -258.4032,875.88677 -263.6129,876.33597 C -268.8273,876.78557 -273.4149,872.92647 -273.8643,867.71427 z"
       type="arc"
       cx="-486.21375"
       ry="3.9327636"
       cy="-89.381149"
       rx="3.9327636"
       id="path11714" />
    <g
       id="g9126"
       transform="matrix(0.3926312,0,0,0.3724982,-1317.2429,515.76343)">
      <g
         transform="matrix(-0.748008,0.507597,0.4813713,0.8831979,3520.4688,-1419.3176)"
         id="g9134" />
    </g>
    <g
       transform="matrix(-0.3926312,0,0,0.3724982,1007.274,515.76343)"
       id="g9142">
      <g
         id="g9150"
         transform="matrix(-0.748008,0.507597,0.4813713,0.8831979,3520.4688,-1419.3176)" />
    </g>
  </g>
  <g
     transform="translate(-28.928569,76.640346)"
     id="layer3"
     style="display:inline" />
  <path
     style="fill:#eac102;fill-opacity:1;fill-rule:evenodd;stroke:#000000;stroke-width:0.99999994000000003;stroke-linecap:butt;stroke-linejoin:miter;marker:none;marker-start:none;marker-mid:none;marker-end:none;stroke-miterlimit:4;stroke-dasharray:none;stroke-dashoffset:0;stroke-opacity:1;visibility:visible;display:inline;overflow:visible;enable-background:accumulate"
     id="path13304"
     d="M 302.5,374 L 3,673.5 L 302.5,973 L 602,673.5 L 302.5,374 z" />
  <g
     style="stroke:#000000;stroke-width:0.57115746000000001;stroke-miterlimit:4;stroke-dasharray:none;stroke-opacity:1;fill:#0071bc"
     id="g3753"
     transform="matrix(1.7508307,0,0,1.7508307,222.99908,86.657331)">
    <path
       style="fill:#0071bc;fill-opacity:1;fill-rule:evenodd;stroke:#000000;stroke-width:0.57115746000000001;stroke-miterlimit:4;stroke-dasharray:none;stroke-opacity:1"
       d="M -29.453524,265.51868 C -23.08816,259.08814 -12.583764,260.52579 -5.0855236,256.07169 C -0.80815831,253.93514 5.1652239,253.56431 8.9964762,252.58069 C 8.338002,247.86475 14.20084,244.52918 18.372477,245.8577 C 16.064725,247.4566 14.956267,253.45196 14.862449,252.50823 C 17.381579,253.68386 24.167665,258.6376 21.772476,259.9317 C 27.01946,260.7368 31.039617,259.75309 34.012478,255.19269 C 43.365295,248.25082 55.57136,252.06397 66.061462,253.23369 C 69.394514,253.2314 72.800862,252.28486 75.440468,250.19769 C 71.404543,258.82128 60.393747,257.05697 52.824723,255.49047 C 47.66474,254.86508 41.793834,255.421 38.609467,260.12668 C 55.254189,260.40549 71.890292,261.10663 88.50647,262.11169 C 96.009072,254.1018 108.02247,257.75847 117.5291,258.6217 C 121.88566,258.73829 128.65355,254.61025 121.96547,259.84369 C 113.77569,264.46522 103.51749,256.44226 95.838463,262.5657 C 106.65899,263.47303 117.86808,264.22161 128.22447,267.27469 C 123.61717,269.47508 117.61708,267.12318 112.50978,267.59844 C 85.724236,266.65251 58.829727,266.20387 32.086475,267.86969 C 28.281344,267.65247 24.791197,274.76721 30.78666,273.35196 C 62.769494,275.87552 94.941592,275.96723 126.94947,274.90369 C 130.5247,276.11518 121.73345,277.21424 122.69947,277.02969 C 113.82131,278.66536 104.8345,279.63493 95.837463,280.32068 C 104.36533,287.24179 117.82525,275.92869 125.05147,285.93869 C 123.95388,285.63334 117.67232,283.21189 114.11485,284.53433 C 105.70356,286.01884 94.947314,287.70291 88.502464,280.77368 C 71.884545,281.75842 55.248832,282.40527 38.606464,282.7887 C 45.361688,291.72674 56.91477,285.22833 65.919464,286.1767 C 69.846797,286.73196 73.829279,288.91044 75.439468,292.7027 C 66.9517,285.81642 56.193715,293.02775 46.614922,291.60823 C 39.890476,291.83799 33.281822,288.67777 29.622477,282.93869 C 26.109108,283.31055 27.418862,277.07347 24.778477,275.02469 C 21.625702,270.41723 27.528094,278.64698 27.405914,281.02499 C 28.406946,284.86978 27.960321,288.99291 26.618477,292.69968 C 24.176525,288.31765 18.637968,287.19429 16.020475,283.33569 C 15.040518,280.70991 15.490247,277.81759 16.019476,275.1337 C 15.282616,278.77699 14.499543,284.22351 18.711475,286.00269 C 14.249931,294.57557 13.196176,308.48579 23.303476,313.4147 C 32.889022,317.13118 43.537813,314.61907 53.538036,316.44825 C 70.810826,317.97456 90.069111,320.79037 101.92277,334.85729 C 107.72277,341.21909 112.72156,352.15467 106.77447,359.80869 C 104.65617,358.29026 105.12303,354.73371 104.42347,352.37268 C 99.176683,361.08241 100.48271,372.86923 106.29847,380.6637 C 98.948658,392.81093 95.192364,407.14584 92.330467,421.09769 C 87.761923,420.72651 83.462338,423.24176 78.759468,421.69269 C 90.046759,410.94781 94.406981,392.67268 87.230469,378.59167 C 82.261153,372.69707 73.390483,370.76435 70.200462,363.09869 C 69.162284,361.97358 67.758006,355.01679 68.301468,357.6507 C 71.258644,363.04207 65.766573,360.18996 62.351467,360.11969 C 47.191158,357.90679 33.40653,366.34911 18.399619,366.39192 C 12.668415,367.65094 20.761492,361.23202 19.993477,358.0787 C 21.093154,351.87747 19.222669,363.65413 16.763475,365.1167 C 9.4411199,373.65958 7.7630451,385.33729 9.0584764,396.13168 C 4.836574,403.52814 4.6828779,412.66257 5.2914762,421.10168 C 0.69040414,420.7114 -3.6357926,423.25113 -8.3665237,421.69669 C -1.3314721,414.95563 -0.036550037,404.28399 0.61647642,394.99469 C 0.35531635,383.18509 -6.0714619,371.89818 -3.1785235,359.89468 C -1.2762769,351.29638 -3.8818679,361.64476 -3.7484437,365.18173 C -3.5234784,369.79085 -9.8184829,363.76713 -12.386524,362.70569 C -20.443679,358.05286 -25.732329,348.29005 -22.253159,339.1398 C -19.626873,326.49363 -12.676492,315.38059 -8.7197015,303.24226 C -7.2862728,297.2822 -6.9896272,291.07567 -7.5785236,284.9837 C -3.2993281,286.87852 2.4090438,285.63852 4.3224764,281.04068 C 0.68140075,289.21935 -11.625381,285.87472 -13.442524,278.05869 C -16.820497,272.48427 -25.392013,274.18698 -28.258524,267.98468 C -26.118124,270.16399 -20.552034,267.90644 -24.549524,265.60269 C -26.100315,264.94533 -27.855593,265.16208 -29.453524,265.51868 z M 3.7264764,265.43369 C 7.2161474,262.10631 1.4817925,259.93838 -0.3245236,263.30569 C -2.7017186,264.93444 2.8130502,266.24053 3.7264764,265.43369 z"
       id="path11" />
    <polygon
       style="fill:#000000;fill-opacity:1;fill-rule:evenodd;stroke:#000000;stroke-width:0.57115746000000001;stroke-miterlimit:4;stroke-dasharray:none;stroke-opacity:1"
       id="polygon13"
       transform="matrix(-1,0,0,1,222.75147,24.204693)"
       points="218.431,237.824 218.147,237.966 218.006,238.222 217.921,238.534 217.921,238.704 217.978,238.931 218.006,239.129 218.091,239.385 218.317,239.924 218.601,240.52 219.025,241.229 219.167,241.314 219.394,241.399 219.648,241.456 219.961,241.513 220.272,241.485 220.641,241.456 221.037,241.399 221.519,241.314 221.604,241.258 221.717,241.229 221.944,241.172 222.341,241.059 222.681,240.889 223.021,240.747 223.134,240.633 223.19,240.577 223.19,240.548 223.219,240.548 223.275,240.548 223.502,240.378 223.7,240.151 223.871,239.981 223.077,239.101 222.341,238.392 221.632,237.853 220.952,237.541 220.272,237.342 219.62,237.313 218.997,237.456 218.431,237.824 " />
    <polygon
       style="fill:#000000;fill-opacity:1;fill-rule:evenodd;stroke:#000000;stroke-width:0.57115746000000001;stroke-miterlimit:4;stroke-dasharray:none;stroke-opacity:1"
       id="polygon15"
       transform="matrix(-1,0,0,1,222.75147,24.204693)"
       points="252.205,241.314 251.553,241.172 250.958,241.087 250.392,241.002 249.882,241.002 249.343,240.974 248.89,241.002 248.437,241.059 248.04,241.172 247.644,241.258 247.303,241.399 246.963,241.57 246.68,241.797 246.396,242.024 246.17,242.308 245.943,242.591 245.802,242.932 245.802,243.244 245.887,243.556 246,243.812 246.17,244.039 246.34,244.208 246.595,244.379 246.85,244.492 247.189,244.578 247.501,244.606 247.898,244.606 248.295,244.549 248.776,244.492 249.258,244.351 249.797,244.208 250.363,244.01 251.015,243.783 251.213,243.669 251.241,243.613 251.298,243.584 251.411,243.528 251.582,243.329 251.752,243.13 251.865,242.847 251.922,242.676 251.922,242.62 251.922,242.591 251.95,242.591 252.007,242.535 252.092,242.194 252.205,241.825 252.233,241.542 252.205,241.314 " />
    <polygon
       style="fill:#0071bc;fill-opacity:1;fill-rule:evenodd;stroke:#000000;stroke-width:0.57115746000000001;stroke-miterlimit:4;stroke-dasharray:none;stroke-opacity:1"
       id="polygon17"
       transform="matrix(-1,0,0,1,222.75147,24.204693)"
       points="259.601,339.577 260.28,339.35 260.903,339.18 261.413,338.952 261.867,338.782 262.179,338.556 262.292,338.441 262.349,338.385 262.349,338.356 262.377,338.356 262.434,338.356 262.575,338.13 262.604,338.016 262.66,337.931 262.604,338.016 262.575,338.13 262.434,338.356 262.377,338.356 262.349,338.356 262.349,338.385 262.292,338.441 262.179,338.556 261.867,338.782 261.413,338.952 260.903,339.18 260.28,339.35 259.601,339.577 260.11,339.832 260.592,340.145 261.017,340.484 261.413,340.882 261.754,341.251 262.065,341.705 262.349,342.159 262.604,342.67 262.773,343.152 262.915,343.72 263,344.287 263.057,344.911 263.057,345.535 263.028,346.217 262.943,346.897 262.858,347.635 262.66,348.373 262.462,349.167 262.207,349.962 261.924,350.813 261.584,351.664 261.215,352.572 260.79,353.48 260.337,354.474 259.799,355.438 259.231,356.46 258.637,357.481 258.014,358.588 257.333,359.666 256.625,360.801 255.86,361.965 255.066,363.185 255.123,363.78 255.151,364.404 255.151,365.029 255.123,365.653 255.01,366.277 254.868,366.901 254.698,367.526 254.5,368.15 254.415,368.15 254.217,368.944 254.132,369.796 254.047,370.647 254.075,371.526 254.217,373.314 254.358,374.223 254.557,375.159 254.981,374.677 255.406,374.251 255.775,373.825 256.172,373.456 256.512,373.059 256.852,372.719 257.135,372.378 257.446,372.095 257.73,371.754 258.155,371.413 258.382,371.215 258.665,371.044 259.288,370.704 259.969,370.307 260.79,369.938 261.215,369.711 261.697,369.512 262.745,369.115 263.142,367.016 263.652,364.943 264.219,362.9 264.87,360.857 265.579,358.814 266.372,356.771 267.222,354.757 268.157,352.771 269.007,350.813 269.744,348.912 270.311,347.011 270.565,346.074 270.792,345.167 271.075,343.322 271.188,342.414 271.273,341.506 271.302,340.599 271.302,339.69 271.245,337.931 271.473,337.222 271.586,336.569 271.586,336.229 271.558,335.944 271.443,335.377 271.16,334.81 270.764,334.327 270.509,334.072 270.226,333.845 269.603,333.419 267.647,332.001 265.806,330.695 263.992,329.476 262.264,328.34 260.592,327.262 258.977,326.297 257.418,325.39 255.917,324.595 254.472,323.828 253.083,323.176 251.752,322.608 250.505,322.126 249.286,321.7 248.691,321.502 248.153,321.36 247.048,321.104 246.057,320.963 246.057,321.587 246.057,322.239 245.943,323.545 245.717,324.793 245.574,325.418 245.518,325.56 245.489,325.729 245.433,326.07 245.206,326.666 245.008,327.29 244.866,327.574 244.753,327.886 244.498,328.511 243.875,329.702 243.166,330.894 242.316,332.029 241.381,333.164 241.098,333.419 240.843,333.703 240.333,334.271 239.767,334.81 239.199,335.377 238.576,335.888 237.953,336.427 237.272,336.938 236.593,337.477 235.147,338.498 233.617,339.52 234.666,339.832 235.828,340.116 237.046,340.371 238.35,340.599 239.001,340.655 239.71,340.74 241.154,340.854 242.656,340.938 244.271,340.967 245.064,340.938 245.915,340.938 247.644,340.882 249.456,340.769 251.354,340.627 252.29,340.513 253.281,340.428 254.273,340.286 255.321,340.173 257.418,339.889 259.601,339.577 " />
    <polygon
       style="fill:#0071bc;fill-opacity:1;fill-rule:evenodd;stroke:#000000;stroke-width:0.57115746000000001;stroke-miterlimit:4;stroke-dasharray:none;stroke-opacity:1"
       id="polygon19"
       transform="matrix(-1,0,0,1,222.75147,24.204693)"
       points="254.415,368.15 254.019,367.838 253.564,367.64 253.253,367.555 252.97,367.526 252.29,367.497 251.468,367.526 251.015,367.555 250.562,367.64 249.541,367.838 248.408,368.15 248.153,369.427 248.04,370.108 247.983,370.846 247.898,372.321 247.87,373.938 247.898,375.642 247.983,377.457 248.153,379.358 248.408,381.401 249.712,380.408 250.307,379.926 250.873,379.472 251.383,379.018 251.865,378.592 252.715,377.826 253.395,377.06 253.679,376.691 253.934,376.351 254.132,376.01 254.302,375.698 254.443,375.414 254.557,375.159 254.358,374.223 254.217,373.314 254.075,371.526 254.047,370.647 254.132,369.796 254.217,368.944 254.415,368.15 " />
    <polygon
       style="fill:#0071bc;fill-opacity:1;fill-rule:evenodd;stroke:#000000;stroke-width:0.57115746000000001;stroke-miterlimit:4;stroke-dasharray:none;stroke-opacity:1"
       id="polygon21"
       transform="matrix(-1,0,0,1,222.75147,24.204693)"
       points="138.896,357.084 138.726,357.481 138.726,357.936 138.783,358.39 138.981,358.843 139.236,359.269 139.633,359.723 140.086,360.177 140.709,360.631 142.325,362.021 143.912,363.469 144.648,364.206 145.413,365.001 146.915,366.618 148.303,368.292 149.691,370.022 150.995,371.839 152.27,373.74 153.432,375.642 154.593,377.656 155.698,379.728 156.208,380.777 156.747,381.884 157.71,384.068 158.645,386.367 159.523,388.722 159.92,389.914 160.345,391.162 160.997,393.29 161.139,393.829 161.337,394.426 161.45,394.766 162.697,394.624 163.32,394.596 163.944,394.681 165.19,394.937 165.814,395.135 166.494,395.39 166.494,395.419 167.287,395.561 168.109,395.674 168.959,395.73 169.837,395.759 170.688,395.73 171.594,395.646 172.5,395.532 173.436,395.39 173.379,395.021 172.302,393.857 171.254,392.638 170.404,391.531 170.092,391.162 169.951,390.964 168.902,389.545 167.939,388.183 167.004,386.821 166.125,385.516 165.247,384.182 164.454,382.905 162.952,380.437 161.563,378.024 160.345,375.727 159.269,373.484 158.787,372.406 158.39,371.385 157.597,369.313 157.257,368.32 157.002,367.384 156.747,366.419 156.548,365.512 156.378,364.604 156.265,363.752 156.152,362.872 156.095,362.05 156.124,360.489 156.265,358.985 156.605,357.595 157.229,354.871 157.767,352.203 158.192,349.508 158.532,346.841 158.759,344.116 158.872,341.449 158.9,338.782 158.844,336.115 156.095,336.483 153.403,337.08 152.979,337.987 152.553,338.896 152.468,338.98 152.412,339.095 152.298,339.321 152.072,339.775 151.562,340.655 151.25,341.052 150.967,341.478 150.343,342.329 149.691,343.124 148.983,343.918 148.218,344.656 147.396,345.394 146.546,346.103 146.093,346.443 145.867,346.613 145.753,346.699 145.668,346.813 144.705,347.465 143.713,348.146 142.665,348.771 141.616,349.395 141.021,349.678 140.511,350.019 140.54,350.813 140.54,351.664 140.426,352.516 140.285,353.396 140.03,354.274 139.718,355.183 139.321,356.119 138.896,357.084 " />
    <polygon
       style="fill:#0071bc;fill-opacity:1;fill-rule:evenodd;stroke:#000000;stroke-width:0.57115746000000001;stroke-miterlimit:4;stroke-dasharray:none;stroke-opacity:1"
       id="polygon23"
       transform="matrix(-1,0,0,1,222.75147,24.204693)"
       points="223.134,397.632 222.936,397.802 222.794,398.029 222.652,398.256 222.567,398.568 222.426,399.221 222.397,400.016 222.426,400.923 222.567,401.973 222.652,402.541 222.794,403.165 222.936,403.789 223.134,404.498 223.843,404.612 224.607,404.726 225.372,404.811 226.194,404.924 227.016,404.98 227.895,405.037 228.772,405.065 229.736,405.095 230.671,405.065 231.662,405.037 232.654,404.98 233.73,404.924 234.779,404.811 235.885,404.726 237.018,404.612 238.208,404.498 237.103,402.994 236.055,401.661 235.063,400.498 234.581,399.987 234.156,399.562 233.277,398.738 232.513,398.143 232.116,397.887 231.776,397.717 231.436,397.575 231.124,397.49 230.048,397.66 228.999,397.802 227.979,397.887 226.987,397.943 225.996,397.915 225.032,397.887 224.069,397.773 223.134,397.632 " />
    <polygon
       style="fill:#0071bc;fill-opacity:1;fill-rule:evenodd;stroke:#000000;stroke-width:0.57115746000000001;stroke-miterlimit:4;stroke-dasharray:none;stroke-opacity:1"
       id="polygon25"
       transform="matrix(-1,0,0,1,222.75147,24.204693)"
       points="173.691,395.333 173.436,395.39 172.5,395.532 171.594,395.646 170.688,395.73 169.837,395.759 168.959,395.73 168.109,395.674 167.287,395.561 166.494,395.419 166.182,395.759 165.984,396.27 165.842,396.865 165.814,397.604 165.842,398.426 165.984,399.391 166.182,400.469 166.494,401.689 167.117,401.774 167.797,401.888 168.505,401.973 169.271,402.087 170.007,402.115 170.801,402.172 172.472,402.229 173.322,402.2 174.229,402.172 175.136,402.115 176.1,402.087 178.055,401.888 179.074,401.774 180.151,401.689 179.103,400.299 178.168,399.107 177.686,398.54 177.261,398.058 176.439,397.206 176.014,396.809 175.646,396.469 174.938,395.93 174.285,395.532 173.691,395.333 " />
    <polygon
       style="fill:#0071bc;fill-rule:evenodd;stroke:#000000;stroke-width:0.57115746000000001;stroke-miterlimit:4;stroke-dasharray:none;stroke-opacity:1"
       id="polygon27"
       transform="matrix(-1,0,0,1,222.75147,24.204693)"
       points="151.108,404.498 150.513,403.704 149.975,402.994 148.927,401.661 147.935,400.498 147.453,399.987 147.028,399.562 146.15,398.738 145.385,398.143 144.988,397.887 144.648,397.717 144.308,397.575 143.997,397.49 142.92,397.66 141.872,397.802 140.852,397.887 139.859,397.943 138.868,397.915 137.905,397.887 136.941,397.773 136.006,397.632 135.808,397.802 135.666,398.029 135.524,398.256 135.439,398.568 135.298,399.221 135.27,400.016 135.298,400.923 135.439,401.973 135.524,402.541 135.666,403.165 135.808,403.789 136.006,404.498 136.714,404.612 137.479,404.726 138.245,404.811 139.066,404.924 139.888,404.98 140.766,405.037 141.645,405.065 142.608,405.095 143.543,405.065 144.535,405.037 145.555,404.98 146.631,404.924 147.68,404.811 148.785,404.726 149.918,404.612 151.108,404.498 " />
    <polyline
       stroke-miterlimit="10"
       points="   224.976,331.404 225.344,332.795 225.684,334.242 225.939,335.689 226.194,337.165 226.336,338.641 226.478,340.145    226.534,341.677 226.563,343.237  "
       id="polyline35"
       style="fill:#0071bc;stroke:#000000;stroke-width:0.57115746000000001;stroke-linecap:square;stroke-miterlimit:4;stroke-dasharray:none;stroke-opacity:1"
       transform="matrix(-1,0,0,1,222.75147,24.204693)" />
    <polyline
       stroke-miterlimit="10"
       points="   158.844,336.115 156.095,336.483 153.403,337.08  "
       id="polyline75"
       style="fill:#0071bc;stroke:#000000;stroke-width:0.57115746000000001;stroke-linecap:square;stroke-miterlimit:4;stroke-dasharray:none;stroke-opacity:1"
       transform="matrix(-1,0,0,1,222.75147,24.204693)" />
    <polyline
       stroke-miterlimit="10"
       points="   166.494,395.419 167.287,395.561 168.109,395.674 168.959,395.73 169.837,395.759 170.688,395.73 171.594,395.646 172.5,395.532    173.436,395.39 173.691,395.333  "
       id="polyline87"
       style="fill:#0071bc;stroke:#000000;stroke-width:0.57115746000000001;stroke-linecap:square;stroke-miterlimit:4;stroke-dasharray:none;stroke-opacity:1"
       transform="matrix(-1,0,0,1,222.75147,24.204693)" />
    <polyline
       stroke-miterlimit="10"
       points="   143.997,397.49 144.308,397.575 144.648,397.717 144.988,397.887 145.385,398.143 146.15,398.738 147.028,399.562 147.453,399.987    147.935,400.498 148.927,401.661 149.975,402.994 150.513,403.704 151.108,404.498 149.918,404.612 148.785,404.726    147.68,404.811 146.631,404.924 145.555,404.98 144.535,405.037 143.543,405.065 142.608,405.095 141.645,405.065 140.766,405.037    139.888,404.98 139.066,404.924 138.245,404.811 137.479,404.726 136.714,404.612 136.006,404.498 135.808,403.789    135.666,403.165 135.524,402.541 135.439,401.973 135.298,400.923 135.27,400.016 135.298,399.221 135.439,398.568    135.524,398.256 135.666,398.029 135.808,397.802 136.006,397.632  "
       id="polyline93"
       style="fill:#0071bc;fill-opacity:1;stroke:#000000;stroke-width:0.57115746000000001;stroke-linecap:square;stroke-miterlimit:4;stroke-dasharray:none;stroke-opacity:1"
       transform="matrix(-1,0,0,1,222.75147,24.204693)" />
    <polyline
       stroke-miterlimit="10"
       points="   143.997,397.49 142.92,397.66 141.872,397.802 140.852,397.887 139.859,397.943 138.868,397.915 137.905,397.887 136.941,397.773    136.006,397.632  "
       id="polyline99"
       style="fill:#0071bc;stroke:#000000;stroke-width:0.57115746000000001;stroke-linecap:square;stroke-miterlimit:4;stroke-dasharray:none;stroke-opacity:1"
       transform="matrix(-1,0,0,1,222.75147,24.204693)" />
    <polyline
       stroke-miterlimit="10"
       points="   254.557,375.159 254.358,374.223 254.217,373.314 254.075,371.526 254.047,370.647 254.132,369.796 254.217,368.944    254.415,368.15  "
       id="polyline101"
       style="fill:#0071bc;stroke:#000000;stroke-width:0.57115746000000001;stroke-linecap:square;stroke-miterlimit:4;stroke-dasharray:none;stroke-opacity:1"
       transform="matrix(-1,0,0,1,222.75147,24.204693)" />
  </g>
  <g
     transform="translate(27.500153,-8.9406967e-8)"
     id="layer4" />
  <g
     transform="translate(27.500153,-8.9406967e-8)"
     id="layer5" />
  <g
     transform="translate(27.500153,-8.9406967e-8)"
     id="layer6" />
  <rect
     style="fill:none;fill-opacity:1;fill-rule:evenodd;stroke:#000000;stroke-width:3;stroke-linecap:butt;stroke-linejoin:miter;marker:none;marker-start:none;marker-mid:none;marker-end:none;stroke-miterlimit:4;stroke-dasharray:none;stroke-dashoffset:0;stroke-opacity:1;visibility:visible;display:inline;overflow:visible;enable-background:accumulate"
     id="rect12296"
     transform="matrix(0.7071068,-0.7071068,0.7071068,0.7071068,0,0)"
     y="478.35776"
     x="-474.11514"
     height="423.55695"
     width="423.55695" />
</svg>
