<?xml version="1.0" encoding="UTF-8" standalone="no"?>
<!-- Created with Inkscape (http://www.inkscape.org/) -->
<svg
   xmlns:svg="http://www.w3.org/2000/svg"
   xmlns="http://www.w3.org/2000/svg"
   version="1.0"
   width="620"
   height="1020"
   id="svg3194">
  <defs
     id="defs3196" />
  <path
     d=""
     id="path1887"
     style="opacity:0.63999999;fill:#009900;fill-opacity:1" />
  <path
     d=""
     id="path1883"
     style="opacity:0.63999999;fill:#009900;fill-opacity:1" />
  <path
     d=""
     id="path1881"
     style="opacity:0.63999999;fill:#009900;fill-opacity:1" />
  <g
     transform="translate(667.88175,23.76357)"
     id="g5190" />
  <g
     transform="translate(667.88175,23.76357)"
     id="g5192" />
  <g
     transform="translate(667.88175,23.76357)"
     id="g5194" />
  <g
     transform="translate(-329.28031,27.813987)"
     id="g4934"
     style="display:inline" />
  <path
     d=""
     id="path5344"
     style="opacity:0.63999999;fill:#009900;fill-opacity:1" />
  <path
     d=""
     id="path5346"
     style="opacity:0.63999999;fill:#009900;fill-opacity:1" />
  <path
     d=""
     id="path5348"
     style="opacity:0.63999999;fill:#009900;fill-opacity:1" />
  <g
     transform="translate(-272.85159,-48.826359)"
     id="g5598" />
  <g
     transform="translate(-272.85159,-48.826359)"
     id="g5600" />
  <g
     transform="translate(-272.85159,-48.826359)"
     id="g5602" />
  <g
     transform="translate(241.03197,-81.782195)"
     id="g4688" />
  <g
     transform="translate(241.03197,-81.782195)"
     id="g4738" />
  <g
     transform="translate(666.77059,-24.315409)"
     id="g4645" />
  <g
     transform="translate(666.77059,-24.315409)"
     id="g4647" />
  <g
     transform="translate(666.77059,-24.315409)"
     id="g4649" />
  <g
     transform="translate(26.296123,23.505495)"
     id="layer4" />
  <g
     transform="translate(26.296123,23.505495)"
     id="layer5" />
  <g
     transform="translate(26.296123,23.505495)"
     id="layer6" />
  <g
     transform="translate(8.70403,10.997222)"
     id="g3861">
    <path
       d="M 459.62327,123.57606 C 473.83972,105.72926 485.05123,90.966535 507.65574,75.222301 C 530.26035,59.478079 552.16094,46.061124 588.41656,25.848976 C 560.15645,53.463667 536.33513,63.926628 515.69236,78.523193 C 495.04957,93.119794 476.08231,113.54354 465.48481,125.43729 C 454.8873,137.331 453.33237,139.22995 450.83484,137.13514 C 449.37039,140.66837 448.14119,144.0111 446.65645,147.60417 C 448.76925,145.48534 452.48867,142.7507 453.98559,140.32547 C 494.1932,100.79152 544.09771,59.542623 602.09194,60.043953 C 536.05416,75.487607 509.50312,102.51679 461.59342,142.97091 C 458.35674,147.93529 446.56575,154.29389 444.79431,152.39621 C 441.54069,160.32788 438.152,167.72906 434.79712,174.5281 C 435.52878,175.27074 440.63438,169.19674 442.05798,166.8904 C 482.87219,131.1912 530.28896,83.695309 587.46317,93.213753 C 521.61795,102.02304 497.94342,131.30989 449.17684,169.58881 C 444.59144,173.18809 437.28917,180.09934 432.75586,179.21947 C 432.20283,180.90382 431.47257,182.55848 430.7883,184.14851 C 427.97272,191.50516 425.28782,199.17739 422.62192,207.81043 C 424.711,206.05238 428.78575,199.31688 430.26062,196.77994 C 457.20257,163.88851 512.19956,117.32206 556.94619,118.65313 C 563.95665,119.61991 570.8082,120.42545 577.80124,121.01615 C 510.59423,122.33996 483.64025,156.25294 437.7071,199.31132 C 433.41071,203.3388 422.89396,214.83895 420.99207,212.98082 C 417.1763,221.65358 416.25148,227.69046 414.21728,234.53768 C 415.96244,234.52442 418.98951,229.14614 420.26553,226.60177 C 444.32643,193.16975 501.48948,143.98445 544.7132,142.46864 C 551.52923,142.96296 558.18253,143.31163 564.95994,143.4441 C 500.23412,148.92806 468.98731,185.36442 426.01601,228.85411 C 423.29946,233.95396 417.10262,237.65721 413.04927,239.20002 C 411.18304,245.99014 411.24257,249.85735 410.17718,255.02151 C 410.17718,255.02151 411.24257,249.85735 409.89205,255.27154 C 410.17483,255.77559 412.08035,250.92356 413.4857,248.12145 C 437.54638,214.68946 492.71431,165.72021 535.93814,164.2044 C 542.75405,164.69873 549.4076,165.04738 556.18477,165.17986 C 491.45905,170.6638 464.11768,206.67724 421.14633,250.1669 C 418.42969,255.26678 411.19792,258.84592 409.21081,259.14694 C 407.2057,264.25567 406.94711,268.86102 406.80064,273.42043 C 406.80064,273.42043 407.54025,268.79678 406.549,274.0393 C 408.81956,273.12388 411.36571,268.82898 412.70576,266.15698 C 436.76655,232.72498 487.94428,184.18785 531.16791,182.67207 C 537.98392,183.16638 544.63737,183.51505 551.41467,183.64753 C 486.68893,189.13144 463.97443,224.6438 421.00314,268.13349 C 418.28669,273.23334 407.89342,278.80824 405.76594,278.58441 C 405.75232,280.36041 405.53606,281.91868 405.33114,283.46992 C 404.997,286.48598 404.76568,289.49437 404.43912,293.23516 C 406.99927,292.45042 410.23298,288.51094 411.58375,285.81755 C 434.39698,254.11898 482.9212,208.09843 523.90381,206.6612 C 530.36638,207.12994 536.67482,207.46052 543.10085,207.58612 C 481.73098,212.78573 460.3264,246.44248 419.58303,287.67726 C 417.00734,292.51272 406.60765,297.54793 404.28967,297.77659 C 404.3392,301.95236 404.36927,305.81124 404.45916,309.66305 C 404.45916,309.66305 404.36927,305.81124 404.46339,309.77943 C 407.96879,309.39598 409.63719,305.10183 410.88202,302.89002 C 434.14635,273.65346 482.67241,231.94708 521.98237,232.54005 C 528.15001,233.29892 534.17649,233.91822 540.32444,234.34701 C 481.3229,236.37516 460.68923,267.28102 419.82816,304.78163 C 417.1453,309.28494 408.49711,313.68291 404.59516,313.83044 C 404.70561,317.66593 404.85845,321.20261 405.045,325.09992 C 408.40827,324.57274 410.63383,320.64258 412.03152,318.39265 C 434.28169,292.87966 482.33293,256.2288 518.80399,266.8659 C 524.62841,267.46895 530.32054,267.95243 536.1292,268.26988 C 473.82417,269.35614 461.54689,286.90213 422.58802,319.72292 C 420.01227,323.64484 409.59151,327.10249 404.9334,327.90742 C 405.18659,329.09902 405.22883,330.18561 405.26852,331.27202 C 405.26852,331.27202 405.30746,332.81041 405.55186,334.83765 C 408.36328,335.16233 410.54091,331.98714 411.83916,330.41578 C 431.95606,312.86456 467.52762,289.48368 501.92886,299.77497 C 506.44504,300.89198 510.86936,301.90058 515.40237,302.7919 C 460.50291,299.57383 455.1651,310.42329 421.16227,331.85899 C 418.73368,334.6504 409.09668,338.52267 405.32994,338.36678 C 404.83463,339.94106 405.53249,341.94637 405.56158,344.30899 C 405.89756,372.15729 415.22963,405.03945 430.61531,428.67437 C 433.04678,432.28546 436.57137,436.19236 440.83235,440.89162 C 441.17279,444.01238 421.06019,438.911 414.9418,439.52668 C 410.80341,393.49295 398.14008,396.52385 395.81187,333.33826 C 395.26852,318.59251 394.20096,308.01635 395.5116,288.99959 C 397.6297,268.70047 402.28749,244.07323 408.35391,224.58111 C 415.00041,203.22467 424.83196,179.19608 436.32404,153.3644 C 442.00433,140.59641 448.17811,127.37839 454.97877,113.78092 C 455.53726,111.72624 459.47843,107.75468 460.05849,105.10771 C 465.72261,92.417174 476.97215,76.761825 484.56255,64.158192 C 498.21379,41.490427 501.72154,27.145024 511.63772,0.5 C 508.90199,22.25639 506.22505,41.505429 492.57055,64.616477 C 485.48804,76.603887 476.73138,89.922985 464.99731,105.66059 C 461.4768,111.20641 461.5759,113.37333 457.18574,116.12856 C 457.51947,118.97415 456.18968,122.36125 454.07201,125.56943 C 454.72542,123.43748 456.15977,121.42206 456.73301,119.74423 C 467.54851,101.4263 475.99172,86.347423 494.76633,68.838132 C 513.54084,51.328878 531.96022,36.054096 562.70229,12.60566 C 540.22108,41.789144 519.67056,54.605012 502.55267,70.795851 C 485.43487,86.986714 477.007,101.57166 462.4485,121.09232 C 460.53053,126.28825 451.60626,132.95331 451.23471,133.231 C 451.84021,133.16224 452.15028,132.28682 452.48531,131.40123"
       id="path3790"
       style="fill:#e3e4e5;fill-opacity:1;fill-rule:evenodd;stroke:#000000;stroke-width:1;stroke-linecap:butt;stroke-linejoin:miter;stroke-miterlimit:4;stroke-dasharray:none;stroke-opacity:1" />
    <path
       d="M 142.96867,123.57606 C 128.75224,105.72926 117.54071,90.966535 94.9362,75.222301 C 72.3316,59.478079 50.431,46.061124 14.17539,25.848976 C 42.4355,53.463667 66.25681,63.926628 86.89959,78.523193 C 107.54238,93.119794 126.50964,113.54354 137.10713,125.43729 C 147.70464,137.331 149.25957,139.22995 151.75711,137.13514 C 153.22155,140.66837 154.45076,144.0111 155.9355,147.60417 C 153.82268,145.48534 150.10328,142.7507 148.60636,140.32547 C 108.39874,100.79152 58.49424,59.542623 0.5,60.043953 C 66.53779,75.487607 93.08883,102.51679 140.99852,142.97091 C 144.23521,147.93529 156.02618,154.29389 157.79763,152.39621 C 161.05125,160.32788 164.43995,167.72906 167.79484,174.5281 C 167.06316,175.27074 161.95757,169.19674 160.53396,166.8904 C 119.71976,131.1912 72.30298,83.695309 15.12878,93.213753 C 80.97401,102.02304 104.64853,131.30989 153.4151,169.58881 C 158.00049,173.18809 165.30278,180.09934 169.83609,179.21947 C 170.38911,180.90382 171.11937,182.55848 171.80364,184.14851 C 174.61923,191.50516 177.30412,199.17739 179.97002,207.81043 C 177.88094,206.05238 173.8062,199.31688 172.33133,196.77994 C 145.38937,163.88851 90.39239,117.32206 45.64576,118.65313 C 38.6353,119.61991 31.78374,120.42545 24.79071,121.01615 C 91.99771,122.33996 118.95169,156.25294 164.88485,199.31132 C 169.18123,203.3388 179.69799,214.83895 181.59986,212.98082 C 185.41565,221.65358 186.34047,227.69046 188.37467,234.53768 C 186.6295,234.52442 183.60242,229.14614 182.32643,226.60177 C 158.26552,193.16975 101.10247,143.98445 57.87874,142.46864 C 51.06272,142.96296 44.40942,143.31163 37.63201,143.4441 C 102.35781,148.92806 133.60464,185.36442 176.57593,228.85411 C 179.29247,233.95396 185.48932,237.65721 189.54267,239.20002 C 191.40891,245.99014 191.34937,249.85735 192.41476,255.02151 C 192.41476,255.02151 191.34937,249.85735 192.69989,255.27154 C 192.41712,255.77559 190.51159,250.92356 189.10624,248.12145 C 165.04556,214.68946 109.87764,165.72021 66.65381,164.2044 C 59.8379,164.69873 53.18434,165.04738 46.40718,165.17986 C 111.13289,170.6638 138.47426,206.67724 181.44561,250.1669 C 184.16226,255.26678 191.39402,258.84592 193.38114,259.14694 C 195.38625,264.25567 195.64483,268.86102 195.79131,273.42043 C 195.79131,273.42043 195.0517,268.79678 196.04295,274.0393 C 193.77239,273.12388 191.22624,268.82898 189.88619,266.15698 C 165.82539,232.72498 114.64766,184.18785 71.42404,182.67207 C 64.60803,183.16638 57.95458,183.51505 51.17727,183.64753 C 115.90301,189.13144 138.61752,224.6438 181.58881,268.13349 C 184.30526,273.23334 194.69852,278.80824 196.82601,278.58441 C 196.83962,280.36041 197.05589,281.91868 197.26081,283.46992 C 197.59495,286.48598 197.82627,289.49437 198.15283,293.23516 C 195.59268,292.45042 192.35897,288.51094 191.0082,285.81755 C 168.19497,254.11898 119.67074,208.09843 78.68814,206.6612 C 72.22557,207.12994 65.91714,207.46052 59.49109,207.58612 C 120.86095,212.78573 142.26555,246.44248 183.00892,287.67726 C 185.58462,292.51272 195.9843,297.54793 198.30226,297.77659 C 198.25273,301.95236 198.22267,305.81124 198.13279,309.66305 C 198.13279,309.66305 198.22267,305.81124 198.12855,309.77943 C 194.62315,309.39598 192.95476,305.10183 191.70993,302.89002 C 168.4456,273.65346 119.91954,231.94708 80.60958,232.54005 C 74.44194,233.29892 68.41546,233.91822 62.26751,234.34701 C 121.26903,236.37516 141.90271,267.28102 182.76379,304.78163 C 185.44665,309.28494 194.09483,313.68291 197.99679,313.83044 C 197.88633,317.66593 197.7335,321.20261 197.54695,325.09992 C 194.18368,324.57274 191.95812,320.64258 190.56043,318.39265 C 168.31025,292.87966 120.25902,256.2288 83.78795,266.8659 C 77.96354,267.46895 72.27139,267.95243 66.46274,268.26988 C 128.76778,269.35614 141.04505,286.90213 180.00394,319.72292 C 182.57968,323.64484 193.00043,327.10249 197.65853,327.90742 C 197.40535,329.09902 197.36311,330.18561 197.32343,331.27202 C 197.32343,331.27202 197.28449,332.81041 197.04008,334.83765 C 194.22866,335.16233 192.05104,331.98714 190.75279,330.41578 C 170.63589,312.86456 135.06433,289.48368 100.6631,299.77497 C 96.14691,300.89198 91.72258,301.90058 87.18958,302.7919 C 142.08904,299.57383 147.42684,310.42329 181.42966,331.85899 C 183.85827,334.6504 193.49527,338.52267 197.26201,338.36678 C 197.75731,339.94106 197.05946,341.94637 197.03037,344.30899 C 196.69439,372.15729 187.36231,405.03945 171.97664,428.67437 C 169.54516,432.28546 166.02058,436.19236 161.7596,440.89162 C 161.41916,444.01238 181.53176,438.911 187.65015,439.52668 C 191.78854,393.49295 204.45186,396.52385 206.78007,333.33826 C 207.32342,318.59251 208.39098,308.01635 207.08035,288.99959 C 204.96225,268.70047 200.30445,244.07323 194.23804,224.58111 C 187.59153,203.22467 177.75999,179.19608 166.26791,153.3644 C 160.58762,140.59641 154.41383,127.37839 147.61317,113.78092 C 147.0547,111.72624 143.1135,107.75468 142.53346,105.10771 C 136.86934,92.417174 125.6198,76.761825 118.02939,64.158192 C 104.37815,41.490439 100.87041,27.145024 90.95423,0.5 C 93.68996,22.25639 96.36688,41.505429 110.02139,64.616477 C 117.10391,76.603887 125.86057,89.922985 137.59464,105.66059 C 141.11515,111.20641 141.01604,113.37333 145.40621,116.12856 C 145.07247,118.97415 146.40226,122.36125 148.51993,125.56943 C 147.86652,123.43748 146.43217,121.42206 145.85894,119.74423 C 135.04343,101.4263 126.60021,86.347423 107.82561,68.838132 C 89.05111,51.328878 70.63172,36.054096 39.88966,12.60566 C 62.37087,41.789144 82.92139,54.605012 100.03928,70.795851 C 117.15708,86.986714 125.58494,101.57166 140.14344,121.09232 C 142.06141,126.28825 150.98569,132.95331 151.35724,133.231 C 150.75173,133.16224 150.44167,132.28682 150.10664,131.40123"
       id="path5902"
       style="fill:#e3e4e5;fill-opacity:1;fill-rule:evenodd;stroke:#000000;stroke-width:1;stroke-linecap:butt;stroke-linejoin:miter;stroke-miterlimit:4;stroke-dasharray:none;stroke-opacity:1" />
    <g
       transform="translate(-83.34681,-94.014335)"
       id="layer1">
      <g
         transform="matrix(1,0,0,0.948723,1.98706,-70.025894)"
         id="g9124">
        <g
           transform="matrix(0.3926312,0,0,0.3926312,-779.60271,412.54467)"
           id="g9126">
          <g
             transform="matrix(-0.748008,0.507597,0.4813713,0.8831979,3520.4688,-1419.3176)"
             id="g9134" />
        </g>
        <g
           transform="matrix(-0.3926312,0,0,0.3926312,1544.9142,412.54467)"
           id="g9142">
          <g
             transform="matrix(-0.748008,0.507597,0.4813713,0.8831979,3520.4688,-1419.3176)"
             id="g9150" />
        </g>
      </g>
      <g
         transform="matrix(1.2925189,-7.10784e-2,7.10784e-2,1.2925189,89.76383,1276.342)"
         id="g9909"
         style="fill:#e3e4e5;fill-opacity:1" />
      <g
         id="g2981">
        <path
           d="M 596.59448,411.78516 C 588.47651,426.86818 578.76674,446.19247 571.26273,443.82892 C 569.64427,443.18225 569.11779,439.42758 571.53958,427.28173 L 586.2126,399.83441 C 588.24282,396.71456 594.01053,399.07728 594.37968,402.32963 L 596.59448,411.78516 z"
           id="path8972"
           style="fill:#eac102;fill-rule:evenodd;stroke:#000000;stroke-width:1px;stroke-linecap:butt;stroke-linejoin:miter;stroke-opacity:1" />
        <g
           id="g2970">
          <path
             d="M 172.6871,411.78516 C 180.80506,426.86818 190.51483,446.19247 198.01884,443.82892 C 199.6373,443.18225 200.16378,439.42758 197.74199,427.28173 L 183.06897,399.83441 C 181.03876,396.71456 175.27104,399.07728 174.90189,402.32963 L 172.6871,411.78516 z"
             id="path8966"
             style="fill:#eac102;fill-rule:evenodd;stroke:#000000;stroke-width:1px;stroke-linecap:butt;stroke-linejoin:miter;stroke-opacity:1" />
          <path
             d="M 185.11254,428.45914 L 187.78734,421.02082 C 182.36318,414.39971 173.98105,402.3284 165.00244,387.32137 C 163.1462,384.2158 156.78605,386.04834 158.30321,389.49816 C 170.42334,411.27491 179.03598,422.73117 185.11254,428.45914 z"
             id="path8968"
             style="fill:#eac102;fill-rule:evenodd;stroke:#000000;stroke-width:1px;stroke-linecap:butt;stroke-linejoin:miter;stroke-opacity:1" />
          <g
             transform="matrix(0.3926312,0,0,0.3487948,-776.35414,331.25864)"
             id="g8978">
            <path
               d="M 2259.2204,-21.283662 L 2272.7331,-31.983432 C 2311.4576,-42.015166 2345.9865,-5.1561647 2345.7584,10.682852 C 2355.4378,1.8771125 2365.1172,4.8946739 2374.7966,5.4031796 C 2369.0715,24.323836 2374.6588,38.417724 2367.933,58.727869 C 2376.9018,61.51248 2383.922,65.466286 2385.8839,72.455017 L 2394.8593,66.647377 L 2405.9466,66.11941 C 2408.0682,118.87278 2390.8664,107.27819 2394.3314,126.83564 L 2412.8102,104.13305 L 2432.873,106.24492 C 2442.6926,108.10919 2445.4997,119.70711 2456.1035,121.028 C 2448.6204,131.14379 2444.0648,148.93881 2437.0967,161.15351 C 2428.5411,167.36573 2421.0214,166.32701 2413.8661,162.73741 C 2437.1998,171.32522 2443.3152,191.47487 2452.4078,202.33495 C 2442.8483,202.86292 2434.266,203.91886 2430.2332,204.44683 C 2444.9709,225.47479 2453.3864,242.30591 2467.7188,254.07574 L 2459.2713,255.65964 L 2415.45,234.01299 L 2378.4923,195.99935 L 2333.0872,125.77971 L 2331.5033,14.90659 C 2308.3522,3.1126595 2311.8969,-24.252425 2259.2204,-21.283662 z"
               id="path8980"
               style="fill:#eac102;fill-rule:evenodd;stroke:#000000;stroke-width:2.70223188;stroke-linecap:round;stroke-linejoin:round;stroke-miterlimit:4;stroke-dasharray:none;stroke-opacity:1" />
            <path
               d="M 2257.8362,-20.616681 C 2320.8919,-14.029177 2320.8477,75.112868 2333.4215,127.79032 L 2373.7398,196.05653 C 2399.2369,220.69513 2415.7195,251.3466 2431.4908,254.96012 C 2446.7667,258.46014 2445.7086,251.94142 2461.2488,255.61765 C 2430.8241,242.09199 2444.7548,210.8707 2381.5285,191.93307 C 2401.9742,180.60654 2401.973,211.81094 2442.9223,202.92897 C 2431.6909,174.84125 2407.5516,173.48559 2396.6479,163.06883 C 2413.3552,157.67181 2415.1875,168.41133 2427.3448,163.52699 C 2440.8438,158.10362 2437.7298,137.19185 2448.4202,123.2087 C 2434.4273,117.03541 2423.0526,98.644076 2405.8111,107.63117 C 2399.8195,112.59968 2390.997,129.36741 2381.0704,133.28827 C 2376.8935,110.90798 2390.9375,108.9002 2393.8989,97.551597 C 2396.8332,86.306746 2392.1444,82.889922 2394.8152,66.854712 C 2349.3929,83.616844 2366.535,113.93871 2345.784,127.22348 C 2345.5707,95.009209 2354.6819,108.70922 2371.4489,73.268986 C 2365.119,63.848012 2360.6556,65.626272 2355.4133,62.73125 C 2363.7426,44.729945 2356.2087,33.76933 2365.0347,8.6680782 C 2348.3559,3.0956661 2342.6789,12.13391 2338.0031,17.831328 C 2336.3081,2.2387072 2299.8417,-48.125251 2257.8362,-20.616681 z"
               id="path8982"
               style="fill:#eac102;fill-rule:evenodd;stroke:#000000;stroke-width:2.70223212px;stroke-linecap:butt;stroke-linejoin:round;stroke-opacity:1" />
            <path
               d="M 2348.0296,39.81348 C 2334.5871,69.907521 2335.9366,100.00156 2336.9179,130.0956 M 2369.5584,114.12261 C 2366.8543,129.24347 2357.3088,137.52288 2347.3351,145.37411 M 2416.7829,136.3459 C 2392.8246,138.12342 2391.0707,153.39837 2355.6689,158.56919 M 2362.6136,168.29188 C 2379.7719,171.73644 2396.7323,175.37895 2408.4492,184.26487 M 2371.6419,189.8207 C 2395.0107,218.01822 2414.6198,220.55458 2421.6443,234.96176"
               id="path8984"
               style="fill:none;fill-rule:evenodd;stroke:#000000;stroke-width:1.35111606;stroke-linecap:butt;stroke-linejoin:miter;stroke-miterlimit:4;stroke-dasharray:none;stroke-opacity:1" />
            <g
               transform="matrix(-0.9278259,0.6104274,0.6104274,0.9278259,3844.2704,-1752.9019)"
               id="g8986">
              <path
                 d="M 2069.0625,730.6875 C 2069.2863,730.69541 2069.4934,730.78125 2069.7188,730.78125 C 2082.4774,730.78125 2092.8126,718.0152 2092.8125,702.28125 C 2092.8125,686.5473 2082.4773,673.78126 2069.7188,673.78125 C 2069.4934,673.78125 2069.2863,673.86709 2069.0625,673.875 L 2069.0625,730.6875 z"
                 id="path8988"
                 style="opacity:1;fill:#e3e4e5;fill-opacity:1;fill-rule:nonzero;stroke:#000000;stroke-width:2.43307877;stroke-linecap:butt;stroke-linejoin:miter;marker:none;marker-start:none;marker-mid:none;marker-end:none;stroke-miterlimit:4;stroke-dasharray:none;stroke-dashoffset:0;stroke-opacity:1;visibility:visible;display:inline;overflow:visible;enable-background:accumulate" />
              <path
                 d="M 2066.2861,668.73151 L 2073.2364,668.73151 L 2073.2364,735.26088 L 2066.2861,735.26088 C 2063.8276,709.57117 2063.4237,685.13585 2066.2861,668.73151 z"
                 id="path8990"
                 style="fill:#eac102;fill-opacity:1;fill-rule:nonzero;stroke:#000000;stroke-width:2.43307877;stroke-linecap:butt;stroke-linejoin:miter;marker:none;marker-start:none;marker-mid:none;marker-end:none;stroke-miterlimit:4;stroke-dashoffset:0;stroke-opacity:1;visibility:visible;display:inline;overflow:visible;enable-background:accumulate" />
            </g>
          </g>
        </g>
        <g
           id="g2960">
          <path
             d="M 581.41241,421.11394 L 584.08717,428.55227 C 590.16828,422.85274 598.80361,411.38029 610.98241,389.49816 C 612.49957,386.04834 606.13938,384.2158 604.28318,387.32137 C 595.26255,402.39861 586.83347,414.51402 581.41241,421.11394 z"
             id="path8974"
             style="fill:#eac102;fill-rule:evenodd;stroke:#000000;stroke-width:1px;stroke-linecap:butt;stroke-linejoin:miter;stroke-opacity:1" />
          <g
             transform="matrix(-0.3926312,0,0,0.3487948,1545.6397,331.25864)"
             id="g8992">
            <path
               d="M 2259.2204,-21.283662 L 2272.7331,-31.983432 C 2311.4576,-42.015166 2345.9865,-5.1561647 2345.7584,10.682852 C 2355.4378,1.8771125 2365.1172,4.8946739 2374.7966,5.4031796 C 2369.0715,24.323836 2374.6588,38.417724 2367.933,58.727869 C 2376.9018,61.51248 2383.922,65.466286 2385.8839,72.455017 L 2394.8593,66.647377 L 2405.9466,66.11941 C 2408.0682,118.87278 2390.8664,107.27819 2394.3314,126.83564 L 2412.8102,104.13305 L 2432.873,106.24492 C 2442.6926,108.10919 2445.4997,119.70711 2456.1035,121.028 C 2448.6204,131.14379 2444.0648,148.93881 2437.0967,161.15351 C 2428.5411,167.36573 2421.0214,166.32701 2413.8661,162.73741 C 2437.1998,171.32522 2443.3152,191.47487 2452.4078,202.33495 C 2442.8483,202.86292 2434.266,203.91886 2430.2332,204.44683 C 2444.9709,225.47479 2453.3864,242.30591 2467.7188,254.07574 L 2459.2713,255.65964 L 2415.45,234.01299 L 2378.4923,195.99935 L 2333.0872,125.77971 L 2331.5033,14.90659 C 2308.3522,3.1126595 2311.8969,-24.252425 2259.2204,-21.283662 z"
               id="path8994"
               style="fill:#eac102;fill-rule:evenodd;stroke:#000000;stroke-width:2.70223188;stroke-linecap:round;stroke-linejoin:round;stroke-miterlimit:4;stroke-dasharray:none;stroke-opacity:1" />
            <path
               d="M 2257.8362,-20.616681 C 2320.8919,-14.029177 2320.8477,75.112868 2333.4215,127.79032 L 2373.7398,196.05653 C 2399.2369,220.69513 2415.7195,251.3466 2431.4908,254.96012 C 2446.7667,258.46014 2445.7086,251.94142 2461.2488,255.61765 C 2430.8241,242.09199 2444.7548,210.8707 2381.5285,191.93307 C 2401.9742,180.60654 2401.973,211.81094 2442.9223,202.92897 C 2431.6909,174.84125 2407.5516,173.48559 2396.6479,163.06883 C 2413.3552,157.67181 2415.1875,168.41133 2427.3448,163.52699 C 2440.8438,158.10362 2437.7298,137.19185 2448.4202,123.2087 C 2434.4273,117.03541 2423.0526,98.644076 2405.8111,107.63117 C 2399.8195,112.59968 2390.997,129.36741 2381.0704,133.28827 C 2376.8935,110.90798 2390.9375,108.9002 2393.8989,97.551597 C 2396.8332,86.306746 2392.1444,82.889922 2394.8152,66.854712 C 2349.3929,83.616844 2366.535,113.93871 2345.784,127.22348 C 2345.5707,95.009209 2354.6819,108.70922 2371.4489,73.268986 C 2365.119,63.848012 2360.6556,65.626272 2355.4133,62.73125 C 2363.7426,44.729945 2356.2087,33.76933 2365.0347,8.6680782 C 2348.3559,3.0956661 2342.6789,12.13391 2338.0031,17.831328 C 2336.3081,2.2387072 2299.8417,-48.125251 2257.8362,-20.616681 z"
               id="path8996"
               style="fill:#eac102;fill-rule:evenodd;stroke:#000000;stroke-width:2.70223212px;stroke-linecap:butt;stroke-linejoin:round;stroke-opacity:1" />
            <path
               d="M 2348.0296,39.81348 C 2334.5871,69.907521 2335.9366,100.00156 2336.9179,130.0956 M 2369.5584,114.12261 C 2366.8543,129.24347 2357.3088,137.52288 2347.3351,145.37411 M 2416.7829,136.3459 C 2392.8246,138.12342 2391.0707,153.39837 2355.6689,158.56919 M 2362.6136,168.29188 C 2379.7719,171.73644 2396.7323,175.37895 2408.4492,184.26487 M 2371.6419,189.8207 C 2395.0107,218.01822 2414.6198,220.55458 2421.6443,234.96176"
               id="path8998"
               style="fill:none;fill-rule:evenodd;stroke:#000000;stroke-width:1.35111606;stroke-linecap:butt;stroke-linejoin:miter;stroke-miterlimit:4;stroke-dasharray:none;stroke-opacity:1" />
            <g
               transform="matrix(-0.9278259,0.6104274,0.6104274,0.9278259,3844.2704,-1752.9019)"
               id="g9000">
              <path
                 d="M 2069.0625,730.6875 C 2069.2863,730.69541 2069.4934,730.78125 2069.7188,730.78125 C 2082.4774,730.78125 2092.8126,718.0152 2092.8125,702.28125 C 2092.8125,686.5473 2082.4773,673.78126 2069.7188,673.78125 C 2069.4934,673.78125 2069.2863,673.86709 2069.0625,673.875 L 2069.0625,730.6875 z"
                 id="path9002"
                 style="opacity:1;fill:#e3e4e5;fill-opacity:1;fill-rule:nonzero;stroke:#000000;stroke-width:2.43307877;stroke-linecap:butt;stroke-linejoin:miter;marker:none;marker-start:none;marker-mid:none;marker-end:none;stroke-miterlimit:4;stroke-dasharray:none;stroke-dashoffset:0;stroke-opacity:1;visibility:visible;display:inline;overflow:visible;enable-background:accumulate" />
              <path
                 d="M 2066.2861,668.73151 L 2073.2364,668.73151 L 2073.2364,735.26088 L 2066.2861,735.26088 C 2063.8276,709.57117 2063.4237,685.13585 2066.2861,668.73151 z"
                 id="path9004"
                 style="fill:#eac102;fill-opacity:1;fill-rule:nonzero;stroke:#000000;stroke-width:2.43307877;stroke-linecap:butt;stroke-linejoin:miter;marker:none;marker-start:none;marker-mid:none;marker-end:none;stroke-miterlimit:4;stroke-dashoffset:0;stroke-opacity:1;visibility:visible;display:inline;overflow:visible;enable-background:accumulate" />
            </g>
          </g>
        </g>
        <path
           d="M 384.69173,355.7638 C 383.32303,355.7806 381.94003,356.64275 381.89423,358.28981 C 380.63393,374.59315 373.96163,400.00532 349.19532,404.60763 C 324.63092,409.17245 302.97252,374.47336 302.05512,360.67612 C 302.06872,358.6164 300.40212,357.81687 298.71772,357.90567 C 296.80882,358.00631 294.87132,359.24537 295.34352,361.0719 C 299.00732,379.90993 295.16109,403.86231 278.16592,408.19293 C 257.32442,413.50365 228.37874,369.0514 223.54102,343.43929 C 222.31952,338.71577 215.28752,340.56651 216.63312,344.03296 C 231.94655,370.00719 231.17945,412.28867 222.00742,416.14344 C 212.60532,419.00817 192.99392,396.14178 181.98352,375.98347 C 180.11102,373.25544 173.21622,374.67218 174.85482,378.1719 C 182.86812,393.65791 190.82592,409.14058 191.19812,424.88551 C 190.27862,423.97233 189.08892,422.60982 187.78712,421.02084 L 185.11232,428.45916 C 191.57282,434.54909 195.16402,434.15638 196.96492,432.545 C 200.56782,429.32131 200.63942,422.6543 195.81152,407.79715 C 204.69852,416.76649 218.66922,427.76945 227.66372,421.70763 C 236.65832,415.64582 237.48722,404.71805 236.66972,391.48871 C 247.67292,405.1519 264.40342,419.24744 279.41742,415.74766 C 294.62892,412.20184 301.26852,398.79633 303.30662,381.74555 C 311.68852,397.20028 328.96222,414.86916 350.25062,412.16237 C 370.70223,409.56197 382.45043,386.7482 384.64263,379.24283 C 386.83483,386.7482 398.59523,409.56197 419.04693,412.16237 C 440.33533,414.86916 457.59673,397.20028 465.97863,381.74555 C 468.01673,398.79633 474.65623,412.20184 489.86783,415.74766 C 504.88173,419.24744 521.61223,405.1519 532.61553,391.48871 C 531.79793,404.71805 532.62683,415.64582 541.62153,421.70763 C 550.61603,427.76945 564.58673,416.76649 573.47373,407.79715 C 568.64573,422.6543 568.71733,429.32131 572.32033,432.545 C 574.11303,434.14904 577.68203,434.55534 584.08703,428.55229 L 581.41223,421.11396 C 580.14253,422.65975 578.98873,423.99013 578.08713,424.88551 C 578.45933,409.14058 586.41703,393.65791 594.43033,378.1719 C 596.06903,374.67218 589.18643,373.25544 587.31393,375.98347 C 576.30353,396.14178 556.69223,419.00817 547.29013,416.14344 C 537.28503,412.85457 537.91478,371.00485 552.65203,344.03296 C 553.99773,340.56651 546.96573,338.71577 545.74423,343.43929 C 542.54387,369.45651 513.69125,412.9803 491.13153,408.19293 C 473.97532,404.55223 470.27783,379.90993 473.94163,361.0719 C 474.83053,357.63372 467.21333,356.28205 467.24243,360.67612 C 466.32503,374.47336 444.65433,409.17245 420.08983,404.60763 C 395.32363,400.00532 388.66383,374.59315 387.40333,358.28981 C 387.41453,356.57555 386.06033,355.747 384.69173,355.7638 z"
           id="path9006"
           style="fill:#eac102;fill-rule:evenodd;stroke:#000000;stroke-width:1.00000012px;stroke-linecap:butt;stroke-linejoin:miter;stroke-opacity:1" />
        <g
           id="g2938">
          <path
             d="M 338.43547,313.89342 C 338.43547,313.89342 349.79118,311.81732 355.93059,321.21911 C 361.96308,330.45708 376.67817,329.49005 376.67817,329.49005 L 370.45391,350.28557 L 330.34196,334.68893 C 330.06289,334.68893 332.8032,330.7653 337.94938,331.14424 C 343.09555,331.52318 346.01041,338.3325 353.85584,335.16156 L 338.43547,313.89342 z"
             id="path9038"
             style="fill:#eac102;fill-rule:evenodd;stroke:#000000;stroke-width:1.00000024px;stroke-linecap:butt;stroke-linejoin:miter;stroke-opacity:1" />
          <path
             d="M 430.84983,313.89342 C 430.84983,313.89342 419.49413,311.81732 413.35472,321.21911 C 407.32223,330.45708 392.60713,329.49005 392.60713,329.49005 L 398.8314,350.28557 L 438.94335,334.68893 C 439.22242,334.68893 436.48211,330.7653 431.33593,331.14424 C 426.18975,331.52318 423.2749,338.3325 415.42946,335.16156 L 430.84983,313.89342 z"
             id="path9040"
             style="fill:#eac102;fill-rule:evenodd;stroke:#000000;stroke-width:1.00000024px;stroke-linecap:butt;stroke-linejoin:miter;stroke-opacity:1" />
          <path
             d="M 384.54449,259.20374 C 377.64368,266.84489 370.60903,275.43357 370.22887,286.72065 C 364.69615,280.80895 359.16029,284.94325 353.62762,286.00265 C 356.40721,289.83798 353.54874,300.3492 357.31405,307.51735 C 353.28674,307.84191 351.46845,311.48489 349.01956,313.65181 C 350.66837,319.93922 369.48501,320.82908 372.76018,332.31971 C 352.27302,330.22539 358.76145,315.03267 338.18149,313.89114 C 334.89206,331.2648 347.99817,327.82548 349.01956,337.2827 C 342.76218,338.48561 341.19961,332.00635 335.74841,332.26932 C 328.10828,332.6379 324.80197,341.20329 319.97049,344.13515 C 327.41833,346.21502 330.21609,353.48522 337.68997,355.2452 C 341.72912,356.19637 343.63112,348.87419 349.94119,352.17167 C 343.75255,360.96892 337.57932,358.38424 340.7128,370.83958 C 364.13684,372.95895 354.56368,356.5971 370.22887,359.02413 C 346.56776,373.94772 359.56767,379.61913 353.62762,391.17021 C 365.81683,386.07591 370.2013,389.56158 384.64279,378.95167 C 399.08428,389.56158 403.46879,386.07591 415.65796,391.17021 C 409.71791,379.61913 422.71782,373.94772 399.05672,359.02413 C 414.72191,356.5971 405.14878,372.95895 428.57278,370.83958 C 431.70627,358.38424 425.53304,360.96892 419.34439,352.17167 C 425.65446,348.87419 427.55647,356.19637 431.59561,355.2452 C 439.06949,353.48522 441.86717,346.21502 449.3151,344.13515 C 444.48361,341.20329 441.17731,332.6379 433.53717,332.26932 C 428.08597,332.00635 426.5234,338.48561 420.26602,337.2827 C 421.28745,327.82548 434.39353,331.2648 431.10409,313.89114 C 410.52409,315.03267 417.01245,330.22539 396.52541,332.31971 C 399.80057,320.82908 418.61721,319.93922 420.26602,313.65181 C 417.81713,311.48489 415.99885,307.84191 411.97153,307.51735 C 415.73684,300.3492 412.87841,289.83798 415.65796,286.00265 C 410.12529,284.94325 404.58943,280.80895 399.05672,286.72065 C 398.67655,275.43357 391.64194,266.84489 384.7411,259.20374 L 384.64279,259.10297 L 384.54449,259.20374 z"
             id="path9042"
             style="fill:#eac102;fill-rule:evenodd;stroke:#000000;stroke-width:1.00000024px;stroke-linecap:butt;stroke-linejoin:miter;stroke-opacity:1" />
          <path
             d="M 384.8013,333.73678 C 384.08804,332.42063 384.8013,270.14161 384.8013,270.14161 M 381.06147,356.0246 C 379.21275,363.49278 372.63836,375.44826 364.92587,379.68837 M 373.02469,349.31938 C 366.90565,349.6375 355.58157,355.94695 351.0527,358.90719 M 371.95475,346.47368 C 350.32336,348.48842 341.4957,339.53266 334.80374,342.3237 M 372.85054,340.01955 C 372.85054,340.01955 367.53948,338.43155 361.31128,336.68579 C 357.30902,335.56395 354.88576,330.54207 352.33078,327.78257 M 381.8356,332.38491 C 381.8356,332.38491 381.51516,328.23236 376.66878,316.5956 C 371.97161,305.31749 365.86547,299.30249 365.86547,299.30249 M 388.22411,356.0246 C 390.07287,363.49278 396.64719,375.44826 404.35971,379.68837 M 396.26093,349.31938 C 402.37997,349.6375 413.70406,355.94695 418.23288,358.90719 M 397.33088,346.47368 C 418.96226,348.48842 427.78992,339.53266 434.48188,342.3237 M 396.43508,340.01955 C 396.43508,340.01955 401.74614,338.43155 407.97434,336.68579 C 411.97657,335.56395 414.39986,330.54207 416.95484,327.78257 M 387.44994,332.38491 C 387.44994,332.38491 387.77042,328.23236 392.61685,316.5956 C 397.31401,305.31749 403.42015,299.30249 403.42015,299.30249"
             id="path9044"
             style="fill:none;fill-rule:evenodd;stroke:#000000;stroke-width:0.50000012;stroke-linecap:round;stroke-linejoin:miter;stroke-miterlimit:4;stroke-dasharray:none;stroke-opacity:1" />
          <path
             d="M 2989.9221,81.516876 C 2989.9221,96.73464 2977.5857,109.07108 2962.3679,109.07108 C 2947.1501,109.07108 2934.8137,96.73464 2934.8137,81.516876 C 2934.8137,66.299112 2947.1501,53.962676 2962.3679,53.962676 C 2977.5857,53.962676 2989.9221,66.299112 2989.9221,81.516876 z"
             transform="matrix(0.5156884,0,0,0.4931367,-1142.6815,304.53326)"
             id="path9048"
             style="fill:#eac102;fill-opacity:1;fill-rule:evenodd;stroke:#000000;stroke-width:1.98300004;stroke-linecap:round;stroke-linejoin:round;marker:none;marker-start:none;marker-mid:none;marker-end:none;stroke-miterlimit:4;stroke-dasharray:none;stroke-dashoffset:0;stroke-opacity:1;visibility:visible;display:inline;overflow:visible;enable-background:accumulate" />
          <path
             d="M 2989.9221,81.516876 C 2989.9221,96.73464 2977.5857,109.07108 2962.3679,109.07108 C 2947.1501,109.07108 2934.8137,96.73464 2934.8137,81.516876 C 2934.8137,66.299112 2947.1501,53.962676 2962.3679,53.962676 C 2977.5857,53.962676 2989.9221,66.299112 2989.9221,81.516876 z"
             transform="matrix(0.409952,0,0,0.391925,-829.45159,312.78372)"
             id="path9050"
             style="fill:#e3e4e5;fill-opacity:1;fill-rule:evenodd;stroke:#000000;stroke-width:2.49477887;stroke-linecap:round;stroke-linejoin:round;marker:none;marker-start:none;marker-mid:none;marker-end:none;stroke-miterlimit:4;stroke-dasharray:none;stroke-dashoffset:0;stroke-opacity:1;visibility:visible;display:inline;overflow:visible;enable-background:accumulate" />
        </g>
        <path
           d="M 384.46833,410.76611 C 327.85572,411.33058 270.59252,411.3832 214.99332,422.70669 C 202.58582,426.44552 184.84722,428.53331 180.18972,441.77659 C 178.66182,452.838 192.69032,457.52597 201.45312,460.56594 C 243.19752,472.52938 287.30612,473.5422 330.55842,475.41244 C 397.84893,476.70113 465.57313,477.22427 532.36473,468.29064 C 550.61183,464.92542 570.70413,462.84845 585.70923,451.51081 C 594.66883,443.13191 584.75133,431.41591 574.84683,429.00607 C 540.86963,416.55925 503.81093,415.22362 467.87493,412.68946 C 440.10163,411.24245 412.28003,410.78449 384.46833,410.76611 z"
           id="path9052"
           style="fill:#eac102;fill-rule:evenodd;stroke:#000000;stroke-width:1.00000012px;stroke-linecap:butt;stroke-linejoin:miter;stroke-opacity:1" />
        <path
           d="M 384.64293,424.36335 C 353.78581,424.36335 327.76301,424.93715 305.83044,425.93467 C 301.44377,426.13418 297.20907,426.35638 293.14294,426.58692 C 244.37166,429.3537 218.22029,434.24488 204.20544,438.71278 C 203.03739,439.08519 201.92977,439.44472 200.92419,439.80974 C 195.91267,441.63094 192.83058,443.37454 190.95544,444.79054 C 190.58667,445.0691 190.26908,445.33665 189.98669,445.59102 C 189.6938,445.85485 189.44927,446.09747 189.23669,446.33221 C 187.98352,447.71544 188.01793,448.55578 188.01794,448.55578 L 198.67419,485.28915 L 233.51794,485.28915 L 535.76793,485.28915 L 570.61173,485.28915 L 581.26793,448.55578 C 581.26793,448.55578 581.30233,447.71544 580.04913,446.33221 C 579.83663,446.09747 579.59203,445.85485 579.29913,445.59102 C 577.58453,444.04179 574.37743,441.99588 568.36173,439.80974 C 568.35313,439.80665 568.33893,439.81284 568.33043,439.80974 C 555.25903,435.06547 528.97943,429.58431 476.14293,426.58692 C 476.13293,426.58635 476.12163,426.58749 476.11173,426.58692 C 472.04563,426.35638 467.84193,426.13418 463.45543,425.93467 C 441.52213,424.93714 415.50183,424.36335 384.64293,424.36335 z"
           id="path9054"
           style="fill:#eac102;fill-opacity:1;fill-rule:evenodd;stroke:#000000;stroke-width:1px;stroke-linecap:butt;stroke-linejoin:miter;stroke-opacity:1" />
        <path
           d="M 1796.3478,707.07074 C 1796.3478,719.80957 1786.0209,730.13644 1773.2821,730.13644 C 1760.5433,730.13644 1750.2164,719.80957 1750.2164,707.07074 C 1750.2164,694.33191 1760.5433,684.00504 1773.2821,684.00504 C 1786.0209,684.00504 1796.3478,694.33191 1796.3478,707.07074 z"
           transform="matrix(0.5526395,0,0,0.5685945,-519.95504,40.358676)"
           id="path9058"
           style="fill:#eac102;fill-opacity:1;fill-rule:evenodd;stroke:#000000;stroke-width:1.78393018px;stroke-linecap:round;stroke-linejoin:round;marker:none;marker-start:none;marker-mid:none;marker-end:none;stroke-miterlimit:4;stroke-dasharray:none;stroke-dashoffset:0;stroke-opacity:1;visibility:visible;display:inline;overflow:visible;enable-background:accumulate" />
        <path
           d="M 1796.3478,707.07074 C 1796.3478,719.80957 1786.0209,730.13644 1773.2821,730.13644 C 1760.5433,730.13644 1750.2164,719.80957 1750.2164,707.07074 C 1750.2164,694.33191 1760.5433,684.00504 1773.2821,684.00504 C 1786.0209,684.00504 1796.3478,694.33191 1796.3478,707.07074 z"
           transform="matrix(0.5401856,0,0,0.5685945,-496.50639,40.358676)"
           id="path9060"
           style="fill:#eac102;fill-opacity:1;fill-rule:evenodd;stroke:#000000;stroke-width:1.80437696px;stroke-linecap:round;stroke-linejoin:round;marker:none;marker-start:none;marker-mid:none;marker-end:none;stroke-miterlimit:4;stroke-dasharray:none;stroke-dashoffset:0;stroke-opacity:1;visibility:visible;display:inline;overflow:visible;enable-background:accumulate" />
        <path
           d="M 1796.3478,707.07074 C 1796.3478,719.80957 1786.0209,730.13644 1773.2821,730.13644 C 1760.5433,730.13644 1750.2164,719.80957 1750.2164,707.07074 C 1750.2164,694.33191 1760.5433,684.00504 1773.2821,684.00504 C 1786.0209,684.00504 1796.3478,694.33191 1796.3478,707.07074 z"
           transform="matrix(0.4779164,0,0,0.4918098,-385.79822,94.65086)"
           id="path9062"
           style="fill:#e3e4e5;fill-opacity:1;fill-rule:evenodd;stroke:#000000;stroke-width:2.06264997px;stroke-linecap:round;stroke-linejoin:round;marker:none;marker-start:none;marker-mid:none;marker-end:none;stroke-miterlimit:4;stroke-dasharray:none;stroke-dashoffset:0;stroke-opacity:1;visibility:visible;display:inline;overflow:visible;enable-background:accumulate" />
        <path
           d="M 1796.3478,707.07074 C 1796.3478,719.80957 1786.0209,730.13644 1773.2821,730.13644 C 1760.5433,730.13644 1750.2164,719.80957 1750.2164,707.07074 C 1750.2164,694.33191 1760.5433,684.00504 1773.2821,684.00504 C 1786.0209,684.00504 1796.3478,694.33191 1796.3478,707.07074 z"
           transform="matrix(-0.5526395,0,0,0.5685945,1289.2407,40.358676)"
           id="path9066"
           style="fill:#eac102;fill-opacity:1;fill-rule:evenodd;stroke:#000000;stroke-width:1.78393018px;stroke-linecap:round;stroke-linejoin:round;marker:none;marker-start:none;marker-mid:none;marker-end:none;stroke-miterlimit:4;stroke-dasharray:none;stroke-dashoffset:0;stroke-opacity:1;visibility:visible;display:inline;overflow:visible;enable-background:accumulate" />
        <path
           d="M 1796.3478,707.07074 C 1796.3478,719.80957 1786.0209,730.13644 1773.2821,730.13644 C 1760.5433,730.13644 1750.2164,719.80957 1750.2164,707.07074 C 1750.2164,694.33191 1760.5433,684.00504 1773.2821,684.00504 C 1786.0209,684.00504 1796.3478,694.33191 1796.3478,707.07074 z"
           transform="matrix(-0.5401856,0,0,0.5685945,1265.7921,40.358676)"
           id="path9068"
           style="fill:#eac102;fill-opacity:1;fill-rule:evenodd;stroke:#000000;stroke-width:1.80437696px;stroke-linecap:round;stroke-linejoin:round;marker:none;marker-start:none;marker-mid:none;marker-end:none;stroke-miterlimit:4;stroke-dasharray:none;stroke-dashoffset:0;stroke-opacity:1;visibility:visible;display:inline;overflow:visible;enable-background:accumulate" />
        <path
           d="M 1796.3478,707.07074 C 1796.3478,719.80957 1786.0209,730.13644 1773.2821,730.13644 C 1760.5433,730.13644 1750.2164,719.80957 1750.2164,707.07074 C 1750.2164,694.33191 1760.5433,684.00504 1773.2821,684.00504 C 1786.0209,684.00504 1796.3478,694.33191 1796.3478,707.07074 z"
           transform="matrix(-0.4779164,0,0,0.4918098,1155.0839,94.65086)"
           id="path9070"
           style="fill:#e3e4e5;fill-opacity:1;fill-rule:evenodd;stroke:#000000;stroke-width:2.06264997px;stroke-linecap:round;stroke-linejoin:round;marker:none;marker-start:none;marker-mid:none;marker-end:none;stroke-miterlimit:4;stroke-dasharray:none;stroke-dashoffset:0;stroke-opacity:1;visibility:visible;display:inline;overflow:visible;enable-background:accumulate" />
        <path
           d="M 269.11349,443.84929 L 248.69787,434.0072 L 247.39008,434.24485 L 266.86126,444.25856 L 269.11349,443.84929 z"
           id="path9074"
           style="fill:none;fill-rule:evenodd;stroke:#000000;stroke-width:0.99999982px;stroke-linecap:round;stroke-linejoin:round;stroke-opacity:1" />
        <path
           d="M 269.11349,443.84929 L 248.69787,461.1111 L 247.39008,461.34874 L 266.86126,444.25856 L 269.11349,443.84929 z"
           id="path9076"
           style="fill:none;fill-rule:evenodd;stroke:#000000;stroke-width:0.99999982px;stroke-linecap:round;stroke-linejoin:round;stroke-opacity:1" />
        <path
           d="M 247.36027,461.30749 L 229.02523,451.48147 L 247.31862,434.32732"
           id="path9078"
           style="fill:none;fill-opacity:1;fill-rule:evenodd;stroke:#000000;stroke-width:0.99999982px;stroke-linecap:round;stroke-linejoin:round;marker:none;marker-start:none;marker-mid:none;marker-end:none;stroke-miterlimit:4;stroke-dasharray:none;stroke-dashoffset:0;stroke-opacity:1;visibility:visible;display:inline;overflow:visible;enable-background:accumulate" />
        <path
           d="M 261.80059,445.31715 L 247.15156,458.47319 L 232.71695,450.53263 L 247.22302,437.61106 L 261.80059,445.31715 z"
           id="path9082"
           style="fill:#008f4c;fill-rule:evenodd;stroke:#000000;stroke-width:0.99999982px;stroke-linecap:round;stroke-linejoin:round;stroke-opacity:1" />
        <path
           d="M 251.94977,447.14009 L 244.20081,454.07508 L 236.56528,449.89911 L 244.23861,443.08767 L 251.94977,447.14009 z"
           id="path9084"
           style="fill:none;fill-rule:evenodd;stroke:#000000;stroke-width:0.5999999;stroke-linecap:round;stroke-linejoin:round;stroke-miterlimit:4;stroke-dasharray:none;stroke-opacity:1" />
        <path
           d="M 247.22302,458.39071 L 244.18594,454.07765"
           id="path9086"
           style="fill:none;fill-rule:evenodd;stroke:#000000;stroke-width:0.5999999;stroke-linecap:round;stroke-linejoin:round;stroke-miterlimit:4;stroke-dasharray:none;stroke-opacity:1" />
        <path
           d="M 232.93129,450.49369 L 236.59376,449.88039"
           id="path9088"
           style="fill:none;fill-rule:evenodd;stroke:#000000;stroke-width:0.5999999;stroke-linecap:round;stroke-linejoin:round;stroke-miterlimit:4;stroke-dasharray:none;stroke-opacity:1" />
        <path
           d="M 251.93928,447.10912 L 261.51475,445.36909"
           id="path9090"
           style="fill:none;fill-rule:evenodd;stroke:#000000;stroke-width:0.5999999;stroke-linecap:round;stroke-linejoin:round;stroke-miterlimit:4;stroke-dasharray:none;stroke-opacity:1" />
        <path
           d="M 244.20401,443.14635 L 247.22302,437.61106"
           id="path9092"
           style="fill:none;fill-rule:evenodd;stroke:#000000;stroke-width:0.5999999;stroke-linecap:round;stroke-linejoin:round;stroke-miterlimit:4;stroke-dasharray:none;stroke-opacity:1" />
        <path
           d="M 500.17189,443.84929 L 520.58751,434.0072 L 521.8953,434.24485 L 502.42412,444.25856 L 500.17189,443.84929 z"
           id="path9096"
           style="fill:none;fill-rule:evenodd;stroke:#000000;stroke-width:0.99999982px;stroke-linecap:round;stroke-linejoin:round;stroke-opacity:1" />
        <path
           d="M 500.17189,443.84929 L 520.58751,461.1111 L 521.8953,461.34874 L 502.42412,444.25856 L 500.17189,443.84929 z"
           id="path9098"
           style="fill:none;fill-rule:evenodd;stroke:#000000;stroke-width:0.99999982px;stroke-linecap:round;stroke-linejoin:round;stroke-opacity:1" />
        <path
           d="M 521.92511,461.30749 L 540.26015,451.48147 L 521.96676,434.32732"
           id="path9100"
           style="fill:none;fill-opacity:1;fill-rule:evenodd;stroke:#000000;stroke-width:0.99999982px;stroke-linecap:round;stroke-linejoin:round;marker:none;marker-start:none;marker-mid:none;marker-end:none;stroke-miterlimit:4;stroke-dasharray:none;stroke-dashoffset:0;stroke-opacity:1;visibility:visible;display:inline;overflow:visible;enable-background:accumulate" />
        <path
           d="M 507.48479,445.31715 L 522.13382,458.47319 L 536.56843,450.53263 L 522.06236,437.61106 L 507.48479,445.31715 z"
           id="path9104"
           style="fill:#008f4c;fill-rule:evenodd;stroke:#000000;stroke-width:0.99999982px;stroke-linecap:round;stroke-linejoin:round;stroke-opacity:1" />
        <path
           d="M 517.33561,447.14009 L 525.08457,454.07508 L 532.7201,449.89911 L 525.04677,443.08767 L 517.33561,447.14009 z"
           id="path9106"
           style="fill:none;fill-rule:evenodd;stroke:#000000;stroke-width:0.49999985;stroke-linecap:round;stroke-linejoin:round;stroke-miterlimit:4;stroke-dasharray:none;stroke-opacity:1" />
        <path
           d="M 522.06236,458.39071 L 525.09944,454.07765"
           id="path9108"
           style="fill:none;fill-rule:evenodd;stroke:#000000;stroke-width:0.49999985;stroke-linecap:round;stroke-linejoin:round;stroke-miterlimit:4;stroke-dasharray:none;stroke-opacity:1" />
        <path
           d="M 536.35409,450.49369 L 532.69162,449.88039"
           id="path9110"
           style="fill:none;fill-rule:evenodd;stroke:#000000;stroke-width:0.49999985;stroke-linecap:round;stroke-linejoin:round;stroke-miterlimit:4;stroke-dasharray:none;stroke-opacity:1" />
        <path
           d="M 517.3461,447.10912 L 507.77063,445.36909"
           id="path9112"
           style="fill:none;fill-rule:evenodd;stroke:#000000;stroke-width:0.49999985;stroke-linecap:round;stroke-linejoin:round;stroke-miterlimit:4;stroke-dasharray:none;stroke-opacity:1" />
        <path
           d="M 525.08137,443.14635 L 522.06236,437.61106"
           id="path9114"
           style="fill:none;fill-rule:evenodd;stroke:#000000;stroke-width:0.49999985;stroke-linecap:round;stroke-linejoin:round;stroke-miterlimit:4;stroke-dasharray:none;stroke-opacity:1" />
        <rect
           width="52.713264"
           height="26.649967"
           rx="13.479209"
           ry="13.324984"
           x="358.28619"
           y="427.55869"
           id="rect9118"
           style="fill:#eac102;fill-opacity:1;fill-rule:nonzero;stroke:#000000;stroke-width:1.00000024;stroke-linecap:butt;stroke-linejoin:miter;marker:none;marker-start:none;marker-mid:none;marker-end:none;stroke-miterlimit:4;stroke-dasharray:none;stroke-dashoffset:0;stroke-opacity:1;visibility:visible;display:inline;overflow:visible;enable-background:accumulate" />
        <rect
           width="47.431377"
           height="23.013342"
           rx="12.128588"
           ry="11.506671"
           x="360.92709"
           y="429.37701"
           id="rect9120"
           style="fill:#ed1c24;fill-opacity:1;fill-rule:nonzero;stroke:#000000;stroke-width:1.00000024;stroke-linecap:butt;stroke-linejoin:miter;marker:none;marker-start:none;marker-mid:none;marker-end:none;stroke-miterlimit:4;stroke-dasharray:none;stroke-dashoffset:0;stroke-opacity:1;visibility:visible;display:inline;overflow:visible;enable-background:accumulate" />
        <path
           d="M 186.98992,421.32734 L 184.28992,426.98929 C 184.94352,427.64796 185.63152,428.29029 186.34372,428.92118 L 188.13092,422.20183 C 187.83382,421.80406 187.38272,421.26314 186.98992,421.32734 z M 582.35013,421.30934 C 581.86143,421.31768 581.83613,421.33195 581.00133,422.36696 L 583.09143,428.80496 C 583.63233,428.33759 584.17873,427.815 584.70853,427.2732 L 582.35013,421.30934 z"
           id="path9122"
           style="fill:#eac102;fill-opacity:1;fill-rule:evenodd;stroke:#000000;stroke-width:1.00000012px;stroke-linecap:butt;stroke-linejoin:miter;stroke-opacity:0" />
        <g
           transform="matrix(-0.4483888,0.1357193,0.1430547,0.4253968,1021.2482,-112.99689)"
           id="g9170">
          <path
             d="M 2069.0625,730.6875 C 2069.2863,730.69541 2069.4934,730.78125 2069.7188,730.78125 C 2082.4774,730.78125 2092.8126,718.0152 2092.8125,702.28125 C 2092.8125,686.5473 2082.4773,673.78126 2069.7188,673.78125 C 2069.4934,673.78125 2069.2863,673.86709 2069.0625,673.875 L 2069.0625,730.6875 z"
             id="path9172"
             style="opacity:1;fill:#ed1c24;fill-opacity:1;fill-rule:nonzero;stroke:#000000;stroke-width:2.18135715;stroke-linecap:butt;stroke-linejoin:miter;marker:none;marker-start:none;marker-mid:none;marker-end:none;stroke-miterlimit:4;stroke-dasharray:none;stroke-dashoffset:0;stroke-opacity:1;visibility:visible;display:inline;overflow:visible;enable-background:accumulate" />
          <path
             d="M 2066.2861,668.73151 L 2073.2364,668.73151 L 2073.2364,735.26088 L 2066.2861,735.26088 C 2063.8276,709.57117 2063.4237,685.13585 2066.2861,668.73151 z"
             id="path9174"
             style="fill:#eac102;fill-opacity:1;fill-rule:nonzero;stroke:#000000;stroke-width:2.18135715;stroke-linecap:butt;stroke-linejoin:miter;marker:none;marker-start:none;marker-mid:none;marker-end:none;stroke-miterlimit:4;stroke-dashoffset:0;stroke-opacity:1;visibility:visible;display:inline;overflow:visible;enable-background:accumulate" />
        </g>
        <g
           transform="matrix(-0.4546188,0.1155684,0.1218147,0.4313073,1048.5404,-82.306701)"
           id="g9176">
          <path
             d="M 2030.1562,670.59375 C 2024.1464,672.34864 2019.4687,685.97673 2019.4688,702.5 C 2019.4688,719.02208 2024.147,732.61853 2030.1562,734.375 L 2030.4062,734.4375 C 2030.7581,734.52049 2031.1088,734.5625 2031.4688,734.5625 L 2042.3125,734.53901 L 2042.3125,716.1875 C 2043.0508,712.02671 2043.4687,707.4081 2043.4688,702.5 C 2043.4688,697.5919 2043.0508,692.94205 2042.3125,688.78125 L 2042.3125,670.60269 L 2030.1562,670.59375 z"
             id="path9178"
             style="opacity:1;fill:#eac102;fill-opacity:1;fill-rule:evenodd;stroke:#000000;stroke-width:2.18135715px;stroke-linecap:round;stroke-linejoin:round;marker:none;marker-start:none;marker-mid:none;marker-end:none;stroke-miterlimit:4;stroke-dasharray:none;stroke-dashoffset:0;stroke-opacity:1;visibility:visible;display:inline;overflow:visible;enable-background:accumulate" />
          <path
             d="M 2048.3786,702.48627 C 2048.3852,713.97377 2047.2299,724.60372 2045.3494,730.35764 C 2043.4689,736.11155 2041.1502,736.11155 2039.2697,730.35764 C 2037.3892,724.60372 2036.2339,713.97377 2036.2405,702.48627 C 2036.2339,690.99877 2037.3892,680.36882 2039.2697,674.6149 C 2041.1502,668.86099 2043.4689,668.86099 2045.3494,674.6149 C 2047.2299,680.36882 2048.3852,690.99877 2048.3786,702.48627 z"
             transform="matrix(1.9787234,0,0,0.9940993,-1999.3727,4.3345166)"
             id="path9180"
             style="opacity:1;fill:#eac102;fill-opacity:1;fill-rule:evenodd;stroke:#000000;stroke-width:1.55531836px;stroke-linecap:round;stroke-linejoin:round;marker:none;marker-start:none;marker-mid:none;marker-end:none;stroke-miterlimit:4;stroke-dasharray:none;stroke-dashoffset:0;stroke-opacity:1;visibility:visible;display:inline;overflow:visible;enable-background:accumulate" />
          <path
             d="M 2042.9551,674.40063 C 2068.1076,682.18138 2066.5129,724.06415 2042.9551,732.3797 C 2026.6088,728.90772 2028.8882,674.66099 2042.9551,674.40063 z"
             id="path9182"
             style="fill:#e3e4e5;fill-opacity:1;fill-rule:evenodd;stroke:#000000;stroke-width:2.18135715px;stroke-linecap:round;stroke-linejoin:round;marker:none;marker-start:none;marker-mid:none;marker-end:none;stroke-miterlimit:4;stroke-dashoffset:0;stroke-opacity:1;visibility:visible;display:inline;overflow:visible;enable-background:accumulate" />
        </g>
        <g
           transform="matrix(0.4483888,0.1357193,-0.1430547,0.4253968,-251.9626,-112.99689)"
           id="g9186">
          <path
             d="M 2069.0625,730.6875 C 2069.2863,730.69541 2069.4934,730.78125 2069.7188,730.78125 C 2082.4774,730.78125 2092.8126,718.0152 2092.8125,702.28125 C 2092.8125,686.5473 2082.4773,673.78126 2069.7188,673.78125 C 2069.4934,673.78125 2069.2863,673.86709 2069.0625,673.875 L 2069.0625,730.6875 z"
             id="path9188"
             style="opacity:1;fill:#ed1c24;fill-opacity:1;fill-rule:nonzero;stroke:#000000;stroke-width:2.18135715;stroke-linecap:butt;stroke-linejoin:miter;marker:none;marker-start:none;marker-mid:none;marker-end:none;stroke-miterlimit:4;stroke-dasharray:none;stroke-dashoffset:0;stroke-opacity:1;visibility:visible;display:inline;overflow:visible;enable-background:accumulate" />
          <path
             d="M 2066.2861,668.73151 L 2073.2364,668.73151 L 2073.2364,735.26088 L 2066.2861,735.26088 C 2063.8276,709.57117 2063.4237,685.13585 2066.2861,668.73151 z"
             id="path9190"
             style="fill:#eac102;fill-opacity:1;fill-rule:nonzero;stroke:#000000;stroke-width:2.18135715;stroke-linecap:butt;stroke-linejoin:miter;marker:none;marker-start:none;marker-mid:none;marker-end:none;stroke-miterlimit:4;stroke-dashoffset:0;stroke-opacity:1;visibility:visible;display:inline;overflow:visible;enable-background:accumulate" />
        </g>
        <g
           transform="matrix(0.4546188,0.1155684,-0.1218147,0.4313073,-279.2548,-82.306701)"
           id="g9192">
          <path
             d="M 2030.1562,670.59375 C 2024.1464,672.34864 2019.4687,685.97673 2019.4688,702.5 C 2019.4688,719.02208 2024.147,732.61853 2030.1562,734.375 L 2030.4062,734.4375 C 2030.7581,734.52049 2031.1088,734.5625 2031.4688,734.5625 L 2042.3125,734.53901 L 2042.3125,716.1875 C 2043.0508,712.02671 2043.4687,707.4081 2043.4688,702.5 C 2043.4688,697.5919 2043.0508,692.94205 2042.3125,688.78125 L 2042.3125,670.60269 L 2030.1562,670.59375 z"
             id="path9194"
             style="opacity:1;fill:#eac102;fill-opacity:1;fill-rule:evenodd;stroke:#000000;stroke-width:2.18135715px;stroke-linecap:round;stroke-linejoin:round;marker:none;marker-start:none;marker-mid:none;marker-end:none;stroke-miterlimit:4;stroke-dasharray:none;stroke-dashoffset:0;stroke-opacity:1;visibility:visible;display:inline;overflow:visible;enable-background:accumulate" />
          <path
             d="M 2048.3786,702.48627 C 2048.3852,713.97377 2047.2299,724.60372 2045.3494,730.35764 C 2043.4689,736.11155 2041.1502,736.11155 2039.2697,730.35764 C 2037.3892,724.60372 2036.2339,713.97377 2036.2405,702.48627 C 2036.2339,690.99877 2037.3892,680.36882 2039.2697,674.6149 C 2041.1502,668.86099 2043.4689,668.86099 2045.3494,674.6149 C 2047.2299,680.36882 2048.3852,690.99877 2048.3786,702.48627 z"
             transform="matrix(1.9787234,0,0,0.9940993,-1999.3727,4.3345166)"
             id="path9196"
             style="opacity:1;fill:#eac102;fill-opacity:1;fill-rule:evenodd;stroke:#000000;stroke-width:1.55531836px;stroke-linecap:round;stroke-linejoin:round;marker:none;marker-start:none;marker-mid:none;marker-end:none;stroke-miterlimit:4;stroke-dasharray:none;stroke-dashoffset:0;stroke-opacity:1;visibility:visible;display:inline;overflow:visible;enable-background:accumulate" />
          <path
             d="M 2042.9551,674.40063 C 2068.1076,682.18138 2066.5129,724.06415 2042.9551,732.3797 C 2026.6088,728.90772 2028.8882,674.66099 2042.9551,674.40063 z"
             id="path9198"
             style="fill:#e3e4e5;fill-opacity:1;fill-rule:evenodd;stroke:#000000;stroke-width:2.18135715px;stroke-linecap:round;stroke-linejoin:round;marker:none;marker-start:none;marker-mid:none;marker-end:none;stroke-miterlimit:4;stroke-dashoffset:0;stroke-opacity:1;visibility:visible;display:inline;overflow:visible;enable-background:accumulate" />
        </g>
        <path
           d="M 213.11794,486.90307 C 213.11794,486.90307 250.1795,469.03524 384.64256,469.03524 C 518.66011,469.03524 556.16709,486.90307 556.16709,486.90307 C 556.16709,486.90307 524.81971,504.77091 384.64256,504.77091 C 244.01962,504.77091 213.11794,486.90307 213.11794,486.90307 z"
           id="path9202"
           style="fill:#eac102;fill-rule:evenodd;stroke:#000000;stroke-width:1px;stroke-linecap:butt;stroke-linejoin:miter;stroke-opacity:1" />
        <path
           d="M 340.98501,507.62386 L 340.98501,466.28323"
           id="path9206"
           style="font-size:12px;fill:none;stroke:#000000;stroke-width:0.52008164" />
        <path
           d="M 333.10309,507.62386 L 333.10309,466.28323"
           id="path9208"
           style="font-size:12px;fill:none;stroke:#000000;stroke-width:0.76567769" />
        <path
           d="M 325.66264,507.62386 L 325.66264,466.28323"
           id="path9210"
           style="font-size:12px;fill:none;stroke:#000000;stroke-width:1.02572083" />
        <path
           d="M 318.28669,507.62386 L 318.28669,466.28323"
           id="path9212"
           style="font-size:12px;fill:none;stroke:#000000;stroke-width:1.28576362" />
        <path
           d="M 311.71439,507.62386 L 311.71439,466.28323"
           id="path9214"
           style="font-size:12px;fill:none;stroke:#000000;stroke-width:1.54580235" />
        <path
           d="M 299.17981,505.39489 L 299.00618,467.76809 M 305.12219,505.8899 L 305.12219,466.5323"
           id="path9216"
           style="font-size:12px;fill:none;stroke:#000000;stroke-width:1.80584526" />
        <path
           d="M 287.60739,503.70298 L 287.60739,469.03623 M 293.47051,504.69289 L 293.29688,467.80044"
           id="path9218"
           style="font-size:12px;fill:none;stroke:#000000;stroke-width:2.05144167" />
        <path
           d="M 272.08181,501.72316 L 272.08181,471.26519 M 277.17593,502.21812 L 277.17593,470.27522 M 282.42396,503.20803 L 282.42396,470.02614"
           id="path9220"
           style="font-size:12px;fill:none;stroke:#000000;stroke-width:2.31148434" />
        <path
           d="M 266.64033,501.47408 L 266.64033,472.00923"
           id="path9222"
           style="font-size:12px;fill:none;stroke:#000000;stroke-width:2.57152724" />
        <path
           d="M 261.56602,499.98915 L 261.56602,472.50419"
           id="path9224"
           style="font-size:12px;fill:none;stroke:#000000;stroke-width:2.8315661" />
        <path
           d="M 256.12463,499.24506 L 256.12463,473.73997"
           id="path9226"
           style="font-size:12px;fill:none;stroke:#000000;stroke-width:3.091609" />
        <path
           d="M 244.98383,497.01936 L 244.81013,476.71304 M 250.69301,498.00934 L 250.69301,475.22811"
           id="path9228"
           style="font-size:12px;fill:none;stroke:#000000;stroke-width:3.33720565" />
        <path
           d="M 239.27453,495.28534 L 239.27453,477.4538"
           id="path9230"
           style="font-size:12px;fill:none;stroke:#000000;stroke-width:3.52501416" />
        <path
           d="M 234.04641,493.83932 L 234.04641,478.99041"
           id="path9232"
           style="font-size:12px;fill:none;stroke:#000000;stroke-width:3.78505349" />
        <path
           d="M 228.33711,491.8595 L 228.33711,480.22947"
           id="path9234"
           style="font-size:12px;fill:none;stroke:#000000;stroke-width:4.03064871" />
        <path
           d="M 222.46911,490.86959 L 222.46911,482.20935"
           id="path9236"
           style="font-size:12px;fill:none;stroke:#000000;stroke-width:4.27626181" />
        <path
           d="M 216.25849,488.89165 L 216.25849,484.68312"
           id="path9238"
           style="font-size:12px;fill:none;stroke:#000000;stroke-width:5.04192257" />
        <path
           d="M 372.34381,505.39489 L 372.34381,467.52227 M 358.99083,506.63394 L 359.16437,466.5323 M 349.25869,507.12889 L 349.25869,466.28323"
           id="path9240"
           style="font-size:12px;fill:none;stroke:#000000;stroke-width:0.26004165" />
        <path
           d="M 428.30019,507.62386 L 428.30019,466.28323"
           id="path9242"
           style="font-size:12px;fill:none;stroke:#000000;stroke-width:0.52008164" />
        <path
           d="M 436.18201,507.62386 L 436.18201,466.28323"
           id="path9244"
           style="font-size:12px;fill:none;stroke:#000000;stroke-width:0.76567769" />
        <path
           d="M 443.62246,507.62386 L 443.62246,466.28323"
           id="path9246"
           style="font-size:12px;fill:none;stroke:#000000;stroke-width:1.02572083" />
        <path
           d="M 450.99841,507.62386 L 450.99841,466.28323"
           id="path9248"
           style="font-size:12px;fill:none;stroke:#000000;stroke-width:1.28576362" />
        <path
           d="M 457.57071,507.62386 L 457.57071,466.28323"
           id="path9250"
           style="font-size:12px;fill:none;stroke:#000000;stroke-width:1.54580235" />
        <path
           d="M 470.10538,505.39489 L 470.27901,467.76809 M 464.16291,505.8899 L 464.16291,466.5323"
           id="path9252"
           style="font-size:12px;fill:none;stroke:#000000;stroke-width:1.80584526" />
        <path
           d="M 481.67771,503.70298 L 481.67771,469.03623 M 475.81468,504.69289 L 475.98822,467.80044"
           id="path9254"
           style="font-size:12px;fill:none;stroke:#000000;stroke-width:2.05144167" />
        <path
           d="M 497.20339,501.72316 L 497.20339,471.26519 M 492.10917,502.21812 L 492.10917,470.27522 M 486.86114,503.20803 L 486.86114,470.02614"
           id="path9256"
           style="font-size:12px;fill:none;stroke:#000000;stroke-width:2.31148434" />
        <path
           d="M 502.64486,501.47408 L 502.64486,472.00923"
           id="path9258"
           style="font-size:12px;fill:none;stroke:#000000;stroke-width:2.57152724" />
        <path
           d="M 507.71917,499.98915 L 507.71917,472.50419"
           id="path9260"
           style="font-size:12px;fill:none;stroke:#000000;stroke-width:2.8315661" />
        <path
           d="M 513.16056,499.24506 L 513.16056,473.73997"
           id="path9262"
           style="font-size:12px;fill:none;stroke:#000000;stroke-width:3.091609" />
        <path
           d="M 524.3013,497.01936 L 524.47502,476.71304 M 518.59209,498.00934 L 518.59209,475.22811"
           id="path9264"
           style="font-size:12px;fill:none;stroke:#000000;stroke-width:3.33720565" />
        <path
           d="M 530.0106,495.28534 L 530.0106,477.4538"
           id="path9266"
           style="font-size:12px;fill:none;stroke:#000000;stroke-width:3.52501416" />
        <path
           d="M 535.23872,493.83932 L 535.23872,478.99041"
           id="path9268"
           style="font-size:12px;fill:none;stroke:#000000;stroke-width:3.78505349" />
        <path
           d="M 540.94802,491.8595 L 540.94802,480.22947"
           id="path9270"
           style="font-size:12px;fill:none;stroke:#000000;stroke-width:4.03064871" />
        <path
           d="M 546.81602,490.86959 L 546.81602,482.20935"
           id="path9272"
           style="font-size:12px;fill:none;stroke:#000000;stroke-width:4.27626181" />
        <path
           d="M 553.02659,488.89165 L 553.02659,484.68312"
           id="path9274"
           style="font-size:12px;fill:none;stroke:#000000;stroke-width:5.04192257" />
        <path
           d="M 396.94129,505.39489 L 396.94129,467.52227 M 410.29436,506.63394 L 410.12082,466.5323 M 420.02641,507.12889 L 420.02641,466.28323"
           id="path9276"
           style="font-size:12px;fill:none;stroke:#000000;stroke-width:0.26004165" />
        <path
           d="M 384.48911,456.76925 C 332.31429,457.28946 279.5455,457.34479 228.30455,467.78066 C 216.86955,471.22641 200.51331,473.14456 196.2209,485.34975 C 194.81268,495.54407 207.72917,499.87123 215.80518,502.67291 C 254.27727,513.69857 294.94648,514.63841 334.80836,516.36204 C 396.82416,517.54971 459.21663,518.01041 520.77263,509.77705 C 537.5894,506.67561 556.10598,504.76081 569.93488,494.31189 C 578.19216,486.58978 569.0693,475.79421 559.94119,473.57327 C 528.62736,462.10213 494.47643,460.88079 461.35744,458.54528 C 435.76121,457.21171 410.12073,456.78619 384.48911,456.76925 z M 384.63316,469.03755 C 518.65062,469.03757 556.16838,486.90719 556.16838,486.90719 C 556.16829,486.90718 524.81022,504.77683 384.63316,504.77683 C 244.01013,504.77683 213.12669,486.90719 213.12669,486.90719 C 213.12669,486.90718 250.17001,469.03755 384.63316,469.03755 z"
           id="path9278"
           style="fill:#eac102;fill-rule:evenodd;stroke:#000000;stroke-width:1px;stroke-linecap:butt;stroke-linejoin:miter;stroke-opacity:1" />
        <g
           id="g2933">
          <path
             d="M 231.25548,38.547443 C 231.25548,46.920403 224.46785,53.708028 216.0949,53.708028 C 207.72194,53.708028 200.93431,46.920403 200.93431,38.547443 C 200.93431,30.174483 207.72194,23.386858 216.0949,23.386858 C 224.46785,23.386858 231.25548,30.174483 231.25548,38.547443 z"
             transform="matrix(1.2202403,-6.7103587e-2,6.7103587e-2,1.2202403,-58.954035,323.52501)"
             id="path9911"
             style="fill:#e3e4e5;fill-opacity:1;fill-rule:evenodd;stroke:#000000;stroke-width:0.77251583;stroke-linecap:round;stroke-linejoin:miter;marker:none;marker-start:none;marker-mid:none;marker-end:none;stroke-miterlimit:4;stroke-dasharray:none;stroke-dashoffset:0;stroke-opacity:1;visibility:visible;display:inline;overflow:visible;enable-background:accumulate" />
          <path
             d="M 231.25548,38.547443 C 231.25548,46.920403 224.46785,53.708028 216.0949,53.708028 C 207.72194,53.708028 200.93431,46.920403 200.93431,38.547443 C 200.93431,30.174483 207.72194,23.386858 216.0949,23.386858 C 224.46785,23.386858 231.25548,30.174483 231.25548,38.547443 z"
             transform="matrix(1.2844633,-7.0635406e-2,7.0635406e-2,1.2844633,-65.722315,287.9293)"
             id="path9915"
             style="fill:#e3e4e5;fill-opacity:1;fill-rule:evenodd;stroke:#000000;stroke-width:0.77251583;stroke-linecap:round;stroke-linejoin:miter;marker:none;marker-start:none;marker-mid:none;marker-end:none;stroke-miterlimit:4;stroke-dasharray:none;stroke-dashoffset:0;stroke-opacity:1;visibility:visible;display:inline;overflow:visible;enable-background:accumulate" />
          <path
             d="M 231.25548,38.547443 C 231.25548,46.920403 224.46785,53.708028 216.0949,53.708028 C 207.72194,53.708028 200.93431,46.920403 200.93431,38.547443 C 200.93431,30.174483 207.72194,23.386858 216.0949,23.386858 C 224.46785,23.386858 231.25548,30.174483 231.25548,38.547443 z"
             transform="matrix(1.316575,-7.2401248e-2,7.2401248e-2,1.316575,-46.595113,314.87292)"
             id="path9913"
             style="fill:#e3e4e5;fill-opacity:1;fill-rule:evenodd;stroke:#000000;stroke-width:0.77251583;stroke-linecap:round;stroke-linejoin:miter;marker:none;marker-start:none;marker-mid:none;marker-end:none;stroke-miterlimit:4;stroke-dasharray:none;stroke-dashoffset:0;stroke-opacity:1;visibility:visible;display:inline;overflow:visible;enable-background:accumulate" />
        </g>
        <g
           id="g2928">
          <path
             d="M 231.25548,38.547443 C 231.25548,46.920403 224.46785,53.708028 216.0949,53.708028 C 207.72194,53.708028 200.93431,46.920403 200.93431,38.547443 C 200.93431,30.174483 207.72194,23.386858 216.0949,23.386858 C 224.46785,23.386858 231.25548,30.174483 231.25548,38.547443 z"
             transform="matrix(-1.2202402,-6.7103639e-2,-6.7103639e-2,1.2202402,828.23962,323.52501)"
             id="path9919"
             style="fill:#e3e4e5;fill-opacity:1;fill-rule:evenodd;stroke:#000000;stroke-width:0.77251583;stroke-linecap:round;stroke-linejoin:miter;marker:none;marker-start:none;marker-mid:none;marker-end:none;stroke-miterlimit:4;stroke-dasharray:none;stroke-dashoffset:0;stroke-opacity:1;visibility:visible;display:inline;overflow:visible;enable-background:accumulate" />
          <path
             d="M 231.25548,38.547443 C 231.25548,46.920403 224.46785,53.708028 216.0949,53.708028 C 207.72194,53.708028 200.93431,46.920403 200.93431,38.547443 C 200.93431,30.174483 207.72194,23.386858 216.0949,23.386858 C 224.46785,23.386858 231.25548,30.174483 231.25548,38.547443 z"
             transform="matrix(-1.2844634,-7.0635411e-2,-7.0635411e-2,1.2844634,835.00792,287.92929)"
             id="path9923"
             style="fill:#e3e4e5;fill-opacity:1;fill-rule:evenodd;stroke:#000000;stroke-width:0.77251583;stroke-linecap:round;stroke-linejoin:miter;marker:none;marker-start:none;marker-mid:none;marker-end:none;stroke-miterlimit:4;stroke-dasharray:none;stroke-dashoffset:0;stroke-opacity:1;visibility:visible;display:inline;overflow:visible;enable-background:accumulate" />
          <path
             d="M 231.25548,38.547443 C 231.25548,46.920403 224.46785,53.708028 216.0949,53.708028 C 207.72194,53.708028 200.93431,46.920403 200.93431,38.547443 C 200.93431,30.174483 207.72194,23.386858 216.0949,23.386858 C 224.46785,23.386858 231.25548,30.174483 231.25548,38.547443 z"
             transform="matrix(-1.316575,-7.2401297e-2,-7.2401297e-2,1.316575,815.8807,314.87293)"
             id="path9921"
             style="fill:#e3e4e5;fill-opacity:1;fill-rule:evenodd;stroke:#000000;stroke-width:0.77251583;stroke-linecap:round;stroke-linejoin:miter;marker:none;marker-start:none;marker-mid:none;marker-end:none;stroke-miterlimit:4;stroke-dasharray:none;stroke-dashoffset:0;stroke-opacity:1;visibility:visible;display:inline;overflow:visible;enable-background:accumulate" />
        </g>
      </g>
    </g>
    <g
       transform="translate(26.296123,23.505495)"
       id="layer2"
       style="fill:#ed1c24;display:inline">
      <rect
         width="423.55695"
         height="423.55695"
         x="-493.56067"
         y="458.91223"
         transform="matrix(0.7071068,-0.7071068,0.7071068,0.7071068,0,0)"
         id="rect12296"
         style="fill:#ed1c24;fill-opacity:1;fill-rule:evenodd;stroke:#000000;stroke-width:3;stroke-linecap:butt;stroke-linejoin:miter;marker:none;marker-start:none;marker-mid:none;marker-end:none;stroke-miterlimit:4;stroke-dasharray:none;stroke-dashoffset:0;stroke-opacity:1;visibility:visible;display:inline;overflow:visible;enable-background:accumulate" />
    </g>
    <g
       transform="matrix(1.048076,0,0,1.0192009,191.71791,493.27883)"
       id="g5384"
       style="fill:#e3e4e5">
      <path
         d=""
         id="path13227"
         style="opacity:0.63999999;fill:#e3e4e5;fill-opacity:1" />
      <path
         d=""
         id="path13229"
         style="opacity:0.63999999;fill:#e3e4e5;fill-opacity:1" />
      <path
         d=""
         id="path13231"
         style="opacity:0.63999999;fill:#e3e4e5;fill-opacity:1" />
      <path
         d=""
         id="path2491"
         style="fill:#e3e4e5;fill-opacity:1" />
      <path
         d=""
         id="path2489"
         style="fill:#e3e4e5;fill-opacity:1" />
      <path
         d=""
         id="path11521"
         style="opacity:0.63999999;fill:#e3e4e5;fill-opacity:1" />
      <path
         d=""
         id="path11523"
         style="opacity:0.63999999;fill:#e3e4e5;fill-opacity:1" />
      <path
         d=""
         id="path11525"
         style="opacity:0.63999999;fill:#e3e4e5;fill-opacity:1" />
      <path
         d=""
         id="path3872"
         style="opacity:0.63999999;fill:#e3e4e5;fill-opacity:1" />
      <path
         d=""
         id="path3874"
         style="opacity:0.63999999;fill:#e3e4e5;fill-opacity:1" />
      <path
         d=""
         id="path3876"
         style="opacity:0.63999999;fill:#e3e4e5;fill-opacity:1" />
      <path
         d=""
         id="path11125"
         style="opacity:0.63999999;fill:#e3e4e5;fill-opacity:1" />
      <path
         d=""
         id="path11127"
         style="opacity:0.63999999;fill:#e3e4e5;fill-opacity:1" />
      <path
         d=""
         id="path11129"
         style="opacity:0.63999999;fill:#e3e4e5;fill-opacity:1" />
      <path
         d=""
         id="path5400"
         style="opacity:0.63999999;fill:#e3e4e5;fill-opacity:1" />
      <path
         d=""
         id="path5402"
         style="opacity:0.63999999;fill:#e3e4e5;fill-opacity:1" />
      <path
         d=""
         id="path5404"
         style="opacity:0.63999999;fill:#e3e4e5;fill-opacity:1" />
      <g
         id="g4524"
         style="fill:#e3e4e5">
        <path
           d="M 0.50000311,363.31894 L 0.50000311,347.43433 L 11.788373,347.43433 L 11.788373,330.91452 L 23.076389,330.91452 L 23.076389,314.07671 L 34.364759,314.07671 L 34.364759,139.34679 L 23.076389,139.34679 L 23.076389,126.95673 L 34.364759,126.95673 L 34.364759,62.147627 L 23.076389,62.147627 L 23.076389,49.440094 L 37.372248,49.440094 L 37.372248,11.634972 L 55.17332,11.634972 L 55.17332,49.440094 L 76.239575,49.440094 L 76.239575,11.634972 L 94.040647,11.634972 L 94.040647,49.440094 L 115.10655,49.440094 L 115.10655,11.634972 L 132.8637,11.634972 L 132.8637,49.440094 L 155.21354,49.440094 L 155.21354,11.634972 L 173.01461,11.634972 L 173.01461,49.440094 L 187.31047,49.440094 L 187.31047,62.147627 L 176.0221,62.147627 L 176.0221,126.95673 L 187.31047,126.95673 L 187.31047,139.34679 L 176.0221,139.34679 L 176.0221,314.07671 L 187.31047,314.07671 L 187.31047,330.91452 L 197.3149,330.91452 L 197.3149,347.43433 L 208.60327,347.43433 L 208.60327,363.31894 L 0.50000311,363.31894 z"
           id="path2006"
           style="font-size:6.28429985px;font-weight:bold;letter-spacing:-0.00062843;word-spacing:0.0018853;fill:#e3e4e5;fill-opacity:1;fill-rule:evenodd;stroke:#000000;stroke-width:0.96755064;stroke-linecap:butt;stroke-linejoin:miter;stroke-miterlimit:4;stroke-dasharray:none;stroke-opacity:1" />
        <path
           d="M 195.27867,330.91294 L 16.037938,330.91294 M 207.05369,347.43054 L 7.7155494,347.43054 M 182.17543,314.07812 L 26.75075,314.07812 M 52.824402,347.43054 L 52.824402,363.95557 M 154.77357,347.43054 L 154.77357,363.95557 M 175.79542,156.50323 L 34.203758,156.50323 M 175.59975,139.34919 L 33.922023,139.34919 M 175.79542,186.36631 L 34.008091,186.36631 M 175.79542,218.453 L 34.008091,218.453 M 175.59975,249.26902 L 34.399426,249.26902 M 175.79542,282.30891 L 34.399426,282.30891 M 77.614472,330.91294 L 77.614472,347.46032 M 129.93922,330.91294 L 129.93922,347.30144 M 52.824402,314.07812 L 52.824402,330.87348 M 154.77357,314.07812 L 154.77357,330.6749 M 59.331924,139.34919 L 59.331924,156.28903 M 102.44882,139.34919 L 102.44882,156.28903 M 149.54998,139.34919 L 149.54998,156.28903 M 46.272961,156.50323 L 46.272961,171.75238 M 84.166267,156.50323 L 84.166267,171.75238 M 123.38743,156.50323 L 123.38743,171.75238 M 161.28074,156.50323 L 161.28074,171.75238 M 59.331924,171.43464 L 59.331924,186.68378 M 102.44882,171.43464 L 102.44882,186.68378 M 149.54998,171.43464 L 149.54998,186.68378 M 46.272961,186.36631 L 46.272961,202.56839 M 84.166267,186.36631 L 84.166267,202.56839 M 123.38743,186.36631 L 123.38743,202.56839 M 161.28074,186.36631 L 161.28074,202.56839 M 102.44882,202.56839 L 102.44882,217.81753 M 46.272961,249.26902 L 46.272961,265.47136 M 161.28074,249.26902 L 161.28074,265.47136 M 59.331924,266.10657 L 59.331924,282.30891 M 149.54998,266.10657 L 149.54998,282.30891 M 46.272961,282.30891 L 46.272961,298.51125 M 161.28074,282.30891 L 161.28074,298.51125 M 59.331924,298.19352 L 59.331924,314.09773 M 149.54998,298.19352 L 149.54998,313.99844 M 31.885788,126.95913 L 178.54534,126.95913 M 69.779094,126.95913 L 69.779094,138.96457 M 135.16281,126.95913 L 135.16281,138.96457 M 34.49758,94.553467 L 176.15492,94.553467 M 34.49758,62.145069 L 176.15492,62.145069 M 64.555509,49.441253 L 64.555509,61.509858 M 144.28212,49.441253 L 144.28212,61.509858 M 80.270538,62.145069 L 80.270538,78.986593 M 128.61101,62.145069 L 128.61101,78.986593 M 54.108339,78.66886 L 54.108339,94.8712 M 102.44882,78.66886 L 102.44882,94.8712 M 154.77357,78.66886 L 154.77357,94.8712 M 80.270538,94.553467 L 80.270538,110.75581 M 128.61101,94.553467 L 128.61101,110.75581 M 102.44882,111.39102 L 102.44882,127.27687 M 31.885788,49.441253 L 179.78465,49.441253"
           id="path2008"
           style="font-size:6.28429985px;font-weight:bold;letter-spacing:-0.00062843;word-spacing:0.0018853;fill:#e3e4e5;stroke:#000000;stroke-width:0.96755064;stroke-linecap:butt;stroke-linejoin:miter;stroke-miterlimit:4;stroke-dasharray:none;stroke-opacity:1" />
        <path
           d="M 108.365,17.644395 L 140.16914,17.644395 L 124.89605,0.50000908 L 108.365,17.644395 z"
           id="path2010"
           style="font-size:6.28429985px;font-weight:bold;letter-spacing:-0.00062843;word-spacing:0.0018853;fill:#e3e4e5;fill-opacity:1;fill-rule:evenodd;stroke:#000000;stroke-width:0.96755064;stroke-linecap:butt;stroke-linejoin:miter;stroke-miterlimit:4;stroke-dasharray:none;stroke-opacity:1" />
        <path
           d="M 148.1651,17.644395 L 181.2272,17.644395 L 164.69614,0.50000908 L 148.1651,17.644395 z"
           id="path2012"
           style="font-size:6.28429985px;font-weight:bold;letter-spacing:-0.00062843;word-spacing:0.0018853;fill:#e3e4e5;fill-opacity:1;fill-rule:evenodd;stroke:#000000;stroke-width:0.96755064;stroke-linecap:butt;stroke-linejoin:miter;stroke-miterlimit:4;stroke-dasharray:none;stroke-opacity:1" />
        <path
           d="M 69.912358,17.644395 L 101.71648,17.644395 L 86.443417,0.50000908 L 69.912358,17.644395 z"
           id="path2014"
           style="font-size:6.28429985px;font-weight:bold;letter-spacing:-0.00062843;word-spacing:0.0018853;fill:#e3e4e5;fill-opacity:1;fill-rule:evenodd;stroke:#000000;stroke-width:0.96755064;stroke-linecap:butt;stroke-linejoin:miter;stroke-miterlimit:4;stroke-dasharray:none;stroke-opacity:1" />
        <path
           d="M 30.111897,17.644395 L 63.173993,17.644395 L 46.642956,0.50000908 L 30.111897,17.644395 z"
           id="path2016"
           style="font-size:6.28429985px;font-weight:bold;letter-spacing:-0.00062843;word-spacing:0.0018853;fill:#e3e4e5;fill-opacity:1;fill-rule:evenodd;stroke:#000000;stroke-width:0.96755064;stroke-linecap:butt;stroke-linejoin:miter;stroke-miterlimit:4;stroke-dasharray:none;stroke-opacity:1" />
        <path
           d="M 45.531753,49.66597 L 45.531753,62.373758 M 85.144605,49.66597 L 85.144605,62.373758 M 123.97443,49.525548 L 123.97443,62.233336 M 164.41137,49.66597 L 164.41137,62.373758"
           id="path10177"
           style="font-size:6.28429985px;font-weight:bold;letter-spacing:-0.00062843;word-spacing:0.0018853;fill:#e3e4e5;stroke:#000000;stroke-width:0.96755064;stroke-linecap:butt;stroke-linejoin:miter;stroke-miterlimit:4;stroke-dasharray:none;stroke-opacity:1" />
        <path
           d="M 34.324692,111.21573 L 175.98533,111.21573"
           id="path10134"
           style="fill:#e3e4e5;fill-opacity:1;fill-rule:evenodd;stroke:#000000;stroke-width:0.96755064;stroke-linecap:butt;stroke-linejoin:miter;stroke-miterlimit:4;stroke-dasharray:none;stroke-opacity:1" />
        <path
           d="M 61.368334,126.95673 L 61.368334,94.87004 C 62.607643,89.151612 68.849522,85.656805 76.374984,85.656805 C 83.900446,85.656805 88.902663,90.104557 88.902663,94.87004 L 88.902663,126.95673 L 61.368334,126.95673 z"
           id="path2020"
           style="font-size:6.28429985px;font-weight:bold;letter-spacing:-0.00062843;word-spacing:0.0018853;fill:#000000;fill-opacity:1;fill-rule:evenodd;stroke:#000000;stroke-width:0.96755064;stroke-linecap:butt;stroke-linejoin:miter;stroke-miterlimit:4;stroke-dasharray:none;stroke-opacity:1" />
        <path
           d="M 120.20025,126.95673 L 120.20025,94.87004 C 121.39529,89.151612 127.68144,85.656805 135.2069,85.656805 C 142.73237,85.656805 147.73494,90.104557 147.73494,94.87004 L 147.73494,126.95673 L 120.20025,126.95673 z"
           id="path2022"
           style="font-size:6.28429985px;font-weight:bold;letter-spacing:-0.00062843;word-spacing:0.0018853;fill:#000000;fill-opacity:1;fill-rule:evenodd;stroke:#000000;stroke-width:0.96755064;stroke-linecap:butt;stroke-linejoin:miter;stroke-miterlimit:4;stroke-dasharray:none;stroke-opacity:1" />
        <path
           d="M 34.129046,202.3479 L 176.37664,202.3479"
           id="path10130"
           style="fill:#e3e4e5;fill-opacity:1;fill-rule:evenodd;stroke:#000000;stroke-width:0.96755064;stroke-linecap:butt;stroke-linejoin:miter;stroke-miterlimit:4;stroke-dasharray:none;stroke-opacity:1" />
        <path
           d="M 34.324692,298.25435 L 175.98533,298.25435"
           id="path10124"
           style="fill:#e3e4e5;fill-opacity:1;fill-rule:evenodd;stroke:#000000;stroke-width:0.96755064;stroke-linecap:butt;stroke-linejoin:miter;stroke-miterlimit:4;stroke-dasharray:none;stroke-opacity:1" />
        <path
           d="M 34.469179,265.95788 L 175.39833,265.95788"
           id="path10126"
           style="fill:#e3e4e5;fill-opacity:1;fill-rule:evenodd;stroke:#000000;stroke-width:0.96755064;stroke-linecap:butt;stroke-linejoin:miter;stroke-miterlimit:4;stroke-dasharray:none;stroke-opacity:1" />
        <path
           d="M 33.933379,171.59607 L 176.181,171.59607"
           id="path10128"
           style="fill:#e3e4e5;fill-opacity:1;fill-rule:evenodd;stroke:#000000;stroke-width:0.96755064;stroke-linecap:butt;stroke-linejoin:miter;stroke-miterlimit:4;stroke-dasharray:none;stroke-opacity:1" />
        <path
           d="M 34.129046,234.01674 L 175.98533,234.01674"
           id="path10132"
           style="fill:#e3e4e5;fill-opacity:1;fill-rule:evenodd;stroke:#000000;stroke-width:0.96755064;stroke-linecap:butt;stroke-linejoin:miter;stroke-miterlimit:4;stroke-dasharray:none;stroke-opacity:1" />
        <path
           d="M 59.675997,249.37634 C 59.675997,226.66667 73.288794,212.02697 104.61656,212.02697 C 133.72894,212.02697 148.90072,227.39531 149.22041,249.18138 L 59.675997,249.37634 z"
           id="path10138"
           style="font-size:6.28429985px;font-weight:bold;letter-spacing:-0.00062843;word-spacing:0.0018853;fill:#e3e4e5;fill-opacity:1;fill-rule:evenodd;stroke:#000000;stroke-width:0.96755064;stroke-linecap:butt;stroke-linejoin:miter;stroke-miterlimit:4;stroke-dasharray:none;stroke-opacity:1" />
        <path
           d="M 34.310768,78.973963 L 175.98652,78.973963"
           id="path10136"
           style="fill:#e3e4e5;fill-opacity:1;fill-rule:evenodd;stroke:#000000;stroke-width:0.96755064;stroke-linecap:butt;stroke-linejoin:miter;stroke-miterlimit:4;stroke-dasharray:none;stroke-opacity:1" />
        <path
           d="M 103.88378,61.721768 L 103.79563,49.665568"
           id="path2365"
           style="fill:#e3e4e5;fill-rule:evenodd;stroke:#000000;stroke-width:0.96755064;stroke-linecap:butt;stroke-linejoin:miter;stroke-miterlimit:4;stroke-dasharray:none;stroke-opacity:1;display:inline" />
        <path
           d="M 59.336625,201.97519 L 59.336625,218.43184"
           id="path2403"
           style="fill:#e3e4e5;fill-rule:evenodd;stroke:#000000;stroke-width:0.96755064;stroke-linecap:butt;stroke-linejoin:miter;stroke-miterlimit:4;stroke-dasharray:none;stroke-opacity:1" />
        <path
           d="M 149.33662,201.97519 L 149.33662,218.43184"
           id="path2405"
           style="fill:#e3e4e5;fill-rule:evenodd;stroke:#000000;stroke-width:0.96755064;stroke-linecap:butt;stroke-linejoin:miter;stroke-miterlimit:4;stroke-dasharray:none;stroke-opacity:1" />
        <path
           d="M 94.174935,207.39905 L 114.92836,207.39905 L 110.48649,227.15208 L 98.825035,227.27151 L 94.174935,207.39905 z"
           id="path3592"
           style="fill:#e3e4e5;fill-opacity:1;fill-rule:evenodd;stroke:#000000;stroke-width:0.96755064;stroke-linejoin:bevel;stroke-miterlimit:4;stroke-dasharray:none;stroke-opacity:1;enable-background:new" />
        <path
           d="M 73.979426,216.98208 L 87.431495,232.57414 C 84.67449,231.23522 77.954704,238.19714 78.851721,242.92614 L 63.942907,226.46512 C 65.613684,222.4801 69.217388,219.44611 73.979426,216.98208 z"
           id="path3939"
           style="fill:#e3e4e5;fill-opacity:1;fill-rule:evenodd;stroke:#000000;stroke-width:0.96755064;stroke-linejoin:bevel;stroke-miterlimit:4;stroke-dasharray:none;stroke-opacity:1;enable-background:new" />
        <path
           d="M 135.15192,216.98208 L 121.69985,232.57414 C 124.45685,231.23522 131.17664,238.19714 130.27962,242.92614 L 145.18843,226.46512 C 143.51766,222.4801 139.91395,219.44611 135.15192,216.98208 z"
           id="path3941"
           style="fill:#e3e4e5;fill-opacity:1;fill-rule:evenodd;stroke:#000000;stroke-width:0.96755064;stroke-linejoin:bevel;stroke-miterlimit:4;stroke-dasharray:none;stroke-opacity:1;enable-background:new" />
        <path
           d="M 74.410718,313.75925 L 74.410718,249.70099 C 74.410718,236.9932 88.222333,227.14501 105.75258,227.14501 C 122.04317,227.14501 135.85443,237.9464 134.61512,249.70099 L 134.61512,313.75925 L 74.410718,313.75925 z"
           id="path2038"
           style="font-size:6.28429985px;font-weight:bold;letter-spacing:-0.00062843;word-spacing:0.0018853;fill:#000000;fill-opacity:1;fill-rule:evenodd;stroke:#000000;stroke-width:0.96755064;stroke-linecap:butt;stroke-linejoin:miter;stroke-miterlimit:4;stroke-dasharray:none;stroke-opacity:1" />
        <path
           d="M 46.550423,218.05599 L 46.550423,234.51264"
           id="path4520"
           style="fill:#e3e4e5;fill-rule:evenodd;stroke:#000000;stroke-width:0.96755064;stroke-linecap:butt;stroke-linejoin:miter;stroke-miterlimit:4;stroke-dasharray:none;stroke-opacity:1" />
        <path
           d="M 161.648,217.92797 L 161.648,234.38462"
           id="path4522"
           style="fill:#e3e4e5;fill-rule:evenodd;stroke:#000000;stroke-width:0.96755064;stroke-linecap:butt;stroke-linejoin:miter;stroke-miterlimit:4;stroke-dasharray:none;stroke-opacity:1" />
      </g>
    </g>
    <path
       d="M 192.39008,380.33024 C 188.1416,397.93117 181.13055,414.93946 171.97664,429.00137 C 169.54516,432.61244 166.02058,436.19236 161.7596,440.89162 C 161.41916,444.01238 181.53176,438.911 187.65015,439.52668 C 190.39055,409.04357 196.21513,400.32038 200.95548,379.39259"
       id="path3845"
       style="fill:#e3e4e5;fill-opacity:1;fill-rule:evenodd;stroke:#000000;stroke-width:1;stroke-linecap:butt;stroke-linejoin:miter;stroke-miterlimit:4;stroke-dasharray:none;stroke-opacity:1" />
    <path
       d="M 410.32073,380.33024 C 414.56921,397.93117 421.58026,414.93946 430.73417,429.00137 C 433.16565,432.61244 436.69023,436.19236 440.95121,440.89162 C 441.29165,444.01238 421.17905,438.911 415.06066,439.52668 C 412.32026,409.04357 406.49568,400.32038 401.75533,379.39259"
       id="path3849"
       style="fill:#e3e4e5;fill-opacity:1;fill-rule:evenodd;stroke:#000000;stroke-width:1;stroke-linecap:butt;stroke-linejoin:miter;stroke-miterlimit:4;stroke-dasharray:none;stroke-opacity:1" />
  </g>
</svg>
