<?xml version="1.0" encoding="UTF-8" standalone="no"?>
<!-- Created with Inkscape (http://www.inkscape.org/) -->
<svg
   xmlns:dc="http://purl.org/dc/elements/1.1/"
   xmlns:cc="http://web.resource.org/cc/"
   xmlns:rdf="http://www.w3.org/1999/02/22-rdf-syntax-ns#"
   xmlns:svg="http://www.w3.org/2000/svg"
   xmlns="http://www.w3.org/2000/svg"
   xmlns:sodipodi="http://sodipodi.sourceforge.net/DTD/sodipodi-0.dtd"
   xmlns:inkscape="http://www.inkscape.org/namespaces/inkscape"
   id="svg2"
   sodipodi:version="0.32"
   inkscape:version="0.44"
   width="407.91223"
   height="567.93933"
   version="1.0"
   sodipodi:docbase="C:\Documents and Settings\Joan Borràs Comes\Escritorio"
   sodipodi:docname="Escut de Vinebre.svg">
  <metadata
     id="metadata7">
    <rdf:RDF>
      <cc:Work
         rdf:about="">
        <dc:format>image/svg+xml</dc:format>
        <dc:type
           rdf:resource="http://purl.org/dc/dcmitype/StillImage" />
      </cc:Work>
    </rdf:RDF>
  </metadata>
  <defs
     id="defs5" />
  <sodipodi:namedview
     inkscape:window-height="710"
     inkscape:window-width="1024"
     inkscape:pageshadow="2"
     inkscape:pageopacity="0.0"
     guidetolerance="10.0"
     gridtolerance="10.0"
     objecttolerance="10.0"
     borderopacity="1.0"
     bordercolor="#666666"
     pagecolor="#ffffff"
     id="base"
     inkscape:zoom="0.90150474"
     inkscape:cx="203.95612"
     inkscape:cy="283.96967"
     inkscape:window-x="-4"
     inkscape:window-y="-4"
     inkscape:current-layer="svg2" />
  <g
     id="g2926"
     transform="translate(-441.802,-4.313)">
    <path
       d="M 613.4219,554.27847 C 610.12048,553.03793 606.4219,549.76387 606.4219,548.08192 C 606.4219,546.84578 608.33612,545.48752 612.6719,543.64714 C 616.1094,542.18805 619.72985,540.99555 620.71735,540.99713 C 621.70485,540.99871 623.55234,539.96047 624.82287,538.68994 C 626.0934,537.41941 629.33545,534.95624 632.02742,533.21624 C 634.71938,531.47623 637.46152,529.59439 638.12106,529.03436 C 643.1952,524.7258 649.62554,524.20364 653.22942,527.80752 C 655.13487,529.71297 664.19753,536 665.03875,536 C 665.32288,536 666.98782,537.08996 668.73862,538.42214 C 670.48942,539.75432 673.2719,541.16476 674.9219,541.55645 C 680.83512,542.96018 683.15062,547.12842 679.85047,550.42857 C 677.39302,552.88603 665.61708,552.60586 662.95707,550.02665 C 655.54321,542.83801 653.48813,541.73698 646.63479,541.28181 C 640.1339,540.85005 639.72452,540.96577 633.6719,544.94591 C 630.2344,547.20637 627.4219,549.49989 627.4219,550.04262 C 627.4219,550.58535 625.9594,551.9211 624.1719,553.01096 C 621.03729,554.92217 616.54469,555.45188 613.4219,554.27847 z M 583.16398,541.91547 C 582.19712,541.35243 580.93984,541.1799 580.37,541.53207 C 578.85131,542.47068 574.4219,539.24428 574.4219,537.19945 C 574.4219,536.23451 573.72574,534.45111 572.87489,533.23634 C 572.02403,532.02157 571.45457,530.45894 571.60942,529.76383 C 571.76427,529.06873 571.39607,527.15 570.7912,525.5 C 569.18333,521.114 567.4219,513.32867 567.4219,510.60809 C 567.4219,509.30833 568.09742,507.68426 568.92305,506.99904 C 570.15993,505.97253 571.30525,506.34709 575.42861,509.1266 C 578.55308,511.23276 580.63177,513.43914 580.96214,515 C 581.25316,516.375 581.92566,518.88195 582.45658,520.571 C 582.98751,522.26005 583.4219,524.42969 583.4219,525.39243 C 583.4219,528.71652 585.99091,530 592.64441,530 C 598.77228,530 599.15121,529.85075 602.80018,526 C 607.20438,521.35224 611.60454,520.65822 615.23334,524.03896 C 617.73345,526.36817 618.01238,528.26505 616.08944,529.86095 C 612.85774,532.54303 588.89106,543.03729 586.1521,542.96959 C 585.47549,542.95287 584.13084,542.47851 583.16398,541.91547 z M 551.86303,528.5318 C 550.79541,527.7243 549.21284,527.0493 548.34621,527.0318 C 547.47959,527.01431 545.72083,525.88265 544.43787,524.517 C 542.60046,522.56117 542.01717,520.61587 541.69056,515.35457 C 541.37113,510.20898 540.70836,507.93105 538.80438,505.43481 C 535.79253,501.48607 532.93,500.67931 524.95959,501.53287 C 519.12422,502.15778 518.6842,502.04745 515.62866,499.19314 C 513.20908,496.93292 512.4219,495.34422 512.4219,492.72123 C 512.4219,490.80924 512.9844,488.83888 513.6719,488.34264 C 514.3594,487.8464 519.95597,487.6788 526.10872,487.97019 C 532.26148,488.26159 538.87358,488.23747 540.80229,487.91659 C 545.43139,487.14646 550.18577,489.23834 551.7103,492.71602 C 552.38154,494.24721 554.2102,497.63953 555.77398,500.25451 C 558.35226,504.56594 558.55343,505.55866 557.93268,510.90709 C 557.3935,515.55271 557.59885,517.34043 558.89972,519.3258 C 560.95838,522.46772 561.19607,527.89651 559.32679,529.07994 C 557.21969,530.41394 554.04299,530.18065 551.86303,528.5318 z M 522.55013,480.41187 C 520.70331,479.63534 517.77786,479 516.04913,479 C 512.92143,479 503.54829,474.68956 502.23106,472.64546 C 501.85109,472.05583 499.82609,471.09376 497.73106,470.50753 C 494.83528,469.69723 493.40171,468.4895 491.75251,465.47083 C 489.00028,460.43317 488.94735,458.87301 491.4219,455.72713 C 492.65911,454.15427 493.4219,451.67035 493.4219,449.21439 C 493.4219,447.03081 494.10452,443.6105 494.93884,441.6137 C 495.79153,439.57292 496.18115,436.88894 495.8286,435.48429 C 495.00888,432.21827 497.36,428.68249 501.48863,426.97236 C 504.46961,425.7376 504.84891,425.80912 506.56609,427.92974 C 507.58678,429.19024 508.4219,431.05054 508.4219,432.06373 C 508.4219,433.07692 508.96912,435.10691 509.63794,436.57482 C 510.7279,438.967 510.59329,439.4644 508.33975,441.37187 C 503.09859,445.80817 501.82236,454.0289 505.67879,458.51227 C 507.46297,460.5865 510.23823,461.69781 518.92879,463.81803 C 529.50665,466.39869 529.98619,466.63221 531.62387,470 C 533.12862,473.09443 534.06049,479 533.04402,479 C 532.83619,479 531.14556,479.63534 529.28707,480.41187 C 526.37718,481.6277 525.44173,481.6277 522.55013,480.41187 z M 479.05676,436.92742 C 475.78844,434.35656 475.64303,430.36673 478.34876,417.50141 C 480.10762,409.13834 480.12649,408.3085 478.61598,405.75141 C 477.72207,404.23813 476.72359,403 476.39713,403 C 476.07067,403 473.67978,401.1232 471.08404,398.82933 C 465.74363,394.11 462.50447,387.75602 462.26929,381.53819 C 461.9875,374.0883 464.23379,373.21491 471.32238,378.0182 C 473.74264,379.65819 476.13934,381 476.64837,381 C 477.1574,381 480.80218,384.12048 484.74789,387.93439 C 488.6936,391.74831 492.74211,395.60602 493.74459,396.50708 C 495.3106,397.91467 495.494,399.25455 495.0469,406.02156 C 494.4825,414.56405 493.22592,420.23017 490.91192,424.66681 C 490.09918,426.22506 489.43145,429.08737 489.42806,431.02749 C 489.41546,438.24184 484.37386,441.10985 479.05676,436.92742 z M 479.71588,376.5 C 477.67502,374.575 475.61683,373 475.14213,373 C 474.66743,373 473.69132,372.4375 472.973,371.75 C 472.25468,371.0625 470.65144,369.825 469.41025,369 C 468.16906,368.175 466.65142,366.86922 466.03772,366.09826 C 465.42402,365.32731 463.28516,363.03111 461.28469,360.99561 C 455.60044,355.21181 455.16435,345.41258 460.30052,338.88055 C 462.68277,335.85086 467.0537,328.4695 468.98874,324.20837 C 470.37505,321.15561 476.05635,315.09631 477.59517,315.02931 C 477.96548,315.01319 479.64445,316.15783 481.32623,317.57295 C 484.30126,320.07627 484.3794,320.36238 484.21387,328.14577 C 484.05247,335.73512 483.84818,336.40775 480.23282,341.25343 C 478.13681,344.06271 476.4219,347.20463 476.4219,348.23547 C 476.4219,352.15089 481.01681,360.22373 483.4219,360.53384 C 486.01022,360.86758 488.7053,362.55976 489.4768,364.33557 C 489.99398,365.52601 490.93206,367.21404 491.56143,368.08676 C 492.9878,370.06465 491.92791,376.35114 489.81119,378.46785 C 487.30794,380.9711 483.7132,380.27039 479.71588,376.5 z M 453.96885,324.75 C 453.7542,324.0625 453.36893,319.57559 453.11271,314.7791 C 452.7579,308.13708 452.9759,305.78511 454.0272,304.91261 C 454.78639,304.28254 455.87812,302.01944 456.45327,299.88351 C 457.02841,297.74758 458.11664,296 458.87155,296 C 461.11362,296 465.4219,290.08703 465.4219,287.00987 C 465.4219,285.10862 463.44333,281.5047 459.4219,276.08099 C 453.57007,268.18863 453.4219,267.83219 453.4219,261.6474 C 453.4219,251.47152 458.06845,248.20482 465.01079,253.5 C 466.8135,254.875 468.46554,256 468.68199,256 C 468.89843,256 468.88812,254.7232 468.65908,253.16266 C 468.39969,251.39529 467.19461,249.70624 465.46343,248.6836 C 463.41355,247.47271 462.51387,245.97663 462.03512,242.98267 C 461.62957,240.44652 460.73614,238.69431 459.65396,238.31272 C 453.26169,236.05874 451.55286,229.317 455.9219,223.58889 C 457.2969,221.78617 458.4219,219.79119 458.4219,219.15561 C 458.4219,218.52002 458.83974,218 459.35042,218 C 459.86111,218 461.71031,215.79103 463.45975,213.09119 C 466.05925,209.07948 467.40727,207.98931 470.83591,207.12597 C 473.83438,206.37095 475.9563,204.91849 478.27371,202.03478 C 482.91672,196.25717 487.7086,196.61037 489.37209,202.85282 C 491.31257,210.13468 487.49669,219 482.4219,219 C 480.34978,219 478.96314,219.77052 477.77672,221.58123 C 476.28319,223.86064 476.2362,224.76681 477.3748,229.33123 C 478.86291,235.29675 483.47667,245.29805 486.0547,248.14674 C 487.74612,250.01574 487.74348,250.2474 485.99357,253.49678 C 482.33492,260.29048 479.3032,261.93154 473.1719,260.43712 C 469.88375,259.63568 469.4939,261.32155 472.24728,264.43555 C 473.25124,265.571 476.40124,270.65896 479.24728,275.74212 C 485.04974,286.1056 485.96848,291.73839 482.57021,296.11514 C 481.55179,297.42681 479.73456,301.15042 478.53193,304.38983 C 475.47305,312.62924 470.7221,318.89608 466.1467,320.72679 C 464.06597,321.55933 461.91085,323.08639 461.35754,324.12025 C 460.20549,326.27289 454.59367,326.75119 453.96885,324.75 z M 460.77713,200.48332 C 460.45702,199.64915 460.50325,197.73665 460.87986,196.23332 C 461.25646,194.72999 461.80901,191.925 462.10774,190 C 462.66101,186.43483 464.92863,183 466.72903,183 C 467.27746,183 469.67141,181.5375 472.04891,179.75 C 479.29862,174.29939 481.26467,165.22987 477.08893,156.5 C 476.0311,154.2885 475.82057,151.55108 476.28792,146.08497 C 476.91934,138.69983 476.93802,138.6609 480.9219,136.42861 C 483.487,134.99131 485.32435,134.5182 486.04379,135.10976 C 486.66082,135.61713 488.14927,138.83749 489.35145,142.26612 C 490.55362,145.69475 492.41127,150.13627 493.47956,152.13615 C 495.06351,155.10138 495.4219,157.79551 495.4219,166.73722 C 495.4219,176.61692 495.16495,178.18697 492.82564,182.60106 C 489.34733,189.16434 488.77602,189.76331 485.25693,190.53623 C 482.39426,191.16498 470.12528,199.05289 468.88266,201.06349 C 467.91318,202.63214 461.42345,202.16762 460.77713,200.48332 z M 498.49863,151.41111 C 495.9437,149.26128 495.4219,148.09487 495.4219,144.53355 C 495.4219,142.06269 494.82416,139.74881 494.01167,139.0745 C 491.61979,137.08942 489.71844,115.16153 491.47634,109.83505 C 493.24816,104.46639 496.03935,102.38873 503.10227,101.18115 C 506.50148,100.59998 511.67648,99.019496 514.60227,97.668973 C 521.49569,94.487026 533.08587,93.422298 534.26005,95.863118 C 535.67228,98.798777 535.63315,112.74889 534.21015,113.65496 C 533.50161,114.10611 528.96807,114.56843 524.1356,114.68233 C 515.94364,114.87543 515.08119,115.10179 511.38561,118.02875 C 506.78555,121.67206 506.44863,123.73704 509.9219,127 C 512.16272,129.10514 512.42151,130.13402 512.41816,136.92431 C 512.41526,142.8096 511.94957,145.28097 510.33112,148 C 506.36047,154.67079 503.39018,155.52708 498.49863,151.41111 z M 519.4219,91.214889 C 518.0469,91.035392 515.4594,90.428714 513.6719,89.866714 C 510.77394,88.955578 510.42431,88.447101 510.44414,85.172448 C 510.46937,81.004093 512.46396,78.109847 517.15644,75.432528 C 519.83542,73.904026 520.95186,73.775185 523.65644,74.682408 C 528.3621,76.260869 535.68953,75.645797 538.63341,73.425226 C 542.13875,70.781141 543.76193,66.626044 542.95979,62.350305 C 541.91755,56.794678 544.23068,49.300504 547.34862,48.131195 C 551.69818,46.499993 557.71739,46.000346 559.10867,47.155006 C 560.69647,48.47276 560.82627,53.375911 559.34655,56.140784 C 558.75511,57.245899 558.13893,62.278816 557.97725,67.325042 C 557.71598,75.479496 556.78255,80.132675 554.43261,84.995165 C 554.03519,85.817505 551.52979,87.612318 548.86506,88.983637 C 544.57699,91.190352 542.75006,91.480639 532.971,91.509095 C 526.89399,91.526778 520.7969,91.394386 519.4219,91.214889 z M 568.07689,70.171259 C 566.1025,67.989586 565.77708,58.04482 567.61978,56.202122 C 568.27861,55.543289 569.1106,52.174002 569.46863,48.714817 C 569.99437,43.635413 570.8401,41.42252 573.86456,37.212695 C 577.51879,32.126274 577.73035,32 582.59773,32 C 589.83556,32 607.95365,38.594493 610.44225,42.134652 C 610.72845,42.541776 612.19095,43.341892 613.69225,43.912688 C 616.11385,44.833378 616.4219,45.464672 616.4219,49.506634 C 616.4219,52.644156 615.95251,54.242891 614.91437,54.641263 C 612.25303,55.662516 606.2716,53.940872 604.01263,51.503395 C 602.80702,50.202524 600.60165,48.832235 599.11181,48.458308 C 597.62197,48.084381 596.1557,47.378292 595.85343,46.889221 C 595.03063,45.557894 592.32754,45.892986 588.52232,47.798032 C 585.66658,49.227731 584.73279,50.619813 582.6852,56.5 C 581.34456,60.35 580.28542,64.947445 580.33155,66.716545 C 580.38926,68.929274 579.81281,70.25561 578.48441,70.966545 C 575.39435,72.620296 569.91427,72.201539 568.07689,70.171259 z M 641.9219,51 C 640.2719,49.907248 637.9094,49.010213 636.6719,49.006589 C 635.4344,49.002965 634.4219,48.584526 634.4219,48.076725 C 634.4219,46.090076 629.21777,41.114076 626.52045,40.521645 C 624.95439,40.17768 622.63811,38.794597 621.37317,37.448127 C 620.09081,36.083115 617.93372,34.998346 616.49759,34.996262 C 612.86071,34.990984 607.4219,31.436897 607.4219,29.06559 C 607.4219,27.985496 608.94837,25.937484 610.81407,24.514451 C 613.4955,22.469222 615.38606,21.913028 619.83728,21.85986 C 624.91678,21.799188 625.98028,22.184084 630.69511,25.789489 C 637.93772,31.327864 642.56898,33.994521 644.9219,33.981206 C 648.62949,33.960224 654.72549,31.266271 657.83404,28.275051 C 663.35547,22.962033 666.18745,21.666667 672.28156,21.666667 C 679.04091,21.666667 683.4219,23.990377 683.4219,27.575583 C 683.4219,28.865643 682.8594,30.394261 682.1719,30.972511 C 676.70131,35.573774 672.84068,37.908924 669.18033,38.83061 C 666.50393,39.504534 663.59784,41.264491 661.41294,43.534606 C 658.47393,46.588246 647.70869,53.015186 645.56928,52.993411 C 645.21322,52.989787 643.5719,52.092752 641.9219,51 z M 708.3522,541.91547 C 709.31906,541.35243 710.57634,541.1799 711.14618,541.53207 C 712.66487,542.47068 717.09428,539.24428 717.09428,537.19945 C 717.09428,536.23451 717.79044,534.45111 718.64129,533.23634 C 719.49215,532.02157 720.06161,530.45894 719.90676,529.76383 C 719.75191,529.06873 720.12011,527.15 720.72498,525.5 C 722.33285,521.114 724.09428,513.32867 724.09428,510.60809 C 724.09428,509.30833 723.41876,507.68426 722.59313,506.99904 C 721.35625,505.97253 720.21093,506.34709 716.08757,509.1266 C 712.9631,511.23276 710.88441,513.43914 710.55404,515 C 710.26302,516.375 709.59052,518.88195 709.0596,520.571 C 708.52867,522.26005 708.09428,524.42969 708.09428,525.39243 C 708.09428,528.71652 705.52527,530 698.87177,530 C 692.7439,530 692.36497,529.85075 688.716,526 C 684.3118,521.35224 679.91164,520.65822 676.28284,524.03896 C 673.78273,526.36817 673.5038,528.26505 675.42674,529.86095 C 678.65844,532.54303 702.62512,543.03729 705.36408,542.96959 C 706.04069,542.95287 707.38534,542.47851 708.3522,541.91547 z M 739.65315,528.5318 C 740.72077,527.7243 742.30334,527.0493 743.16997,527.0318 C 744.03659,527.01431 745.79535,525.88265 747.07831,524.517 C 748.91572,522.56117 749.49901,520.61587 749.82562,515.35457 C 750.14505,510.20898 750.80782,507.93105 752.7118,505.43481 C 755.72365,501.48607 758.58618,500.67931 766.55659,501.53287 C 772.39196,502.15778 772.83198,502.04745 775.88752,499.19314 C 778.3071,496.93292 779.09428,495.34422 779.09428,492.72123 C 779.09428,490.80924 778.53178,488.83888 777.84428,488.34264 C 777.15678,487.8464 771.56021,487.6788 765.40746,487.97019 C 759.2547,488.26159 752.6426,488.23747 750.71389,487.91659 C 746.08479,487.14646 741.33041,489.23834 739.80588,492.71602 C 739.13464,494.24721 737.30598,497.63953 735.7422,500.25451 C 733.16392,504.56594 732.96275,505.55866 733.5835,510.90709 C 734.12268,515.55271 733.91733,517.34043 732.61646,519.3258 C 730.5578,522.46772 730.32011,527.89651 732.18939,529.07994 C 734.29649,530.41394 737.47319,530.18065 739.65315,528.5318 z M 768.96605,480.41187 C 770.81287,479.63534 773.73832,479 775.46705,479 C 778.59475,479 787.96789,474.68956 789.28512,472.64546 C 789.66509,472.05583 791.69009,471.09376 793.78512,470.50753 C 796.6809,469.69723 798.11447,468.4895 799.76367,465.47083 C 802.5159,460.43317 802.56883,458.87301 800.09428,455.72713 C 798.85707,454.15427 798.09428,451.67035 798.09428,449.21439 C 798.09428,447.03081 797.41166,443.6105 796.57734,441.6137 C 795.72465,439.57292 795.33503,436.88894 795.68758,435.48429 C 796.5073,432.21827 794.15618,428.68249 790.02755,426.97236 C 787.04657,425.7376 786.66727,425.80912 784.95009,427.92974 C 783.9294,429.19024 783.09428,431.05054 783.09428,432.06373 C 783.09428,433.07692 782.54706,435.10691 781.87824,436.57482 C 780.78828,438.967 780.92289,439.4644 783.17643,441.37187 C 788.41759,445.80817 789.69382,454.0289 785.83739,458.51227 C 784.05321,460.5865 781.27795,461.69781 772.58739,463.81803 C 762.00953,466.39869 761.52999,466.63221 759.89231,470 C 758.38756,473.09443 757.45569,479 758.47216,479 C 758.67999,479 760.37062,479.63534 762.22911,480.41187 C 765.139,481.6277 766.07445,481.6277 768.96605,480.41187 z M 812.45942,436.92742 C 815.72774,434.35656 815.87315,430.36673 813.16742,417.50141 C 811.40856,409.13834 811.38969,408.3085 812.9002,405.75141 C 813.79411,404.23813 814.79259,403 815.11905,403 C 815.44551,403 817.8364,401.1232 820.43214,398.82933 C 825.77255,394.11 829.01171,387.75602 829.24689,381.53819 C 829.52868,374.0883 827.28239,373.21491 820.1938,378.0182 C 817.77354,379.65819 815.37684,381 814.86781,381 C 814.35878,381 810.714,384.12048 806.76829,387.93439 C 802.82258,391.74831 798.77407,395.60602 797.77159,396.50708 C 796.20558,397.91467 796.02218,399.25455 796.46928,406.02156 C 797.03368,414.56405 798.29026,420.23017 800.60426,424.66681 C 801.417,426.22506 802.08473,429.08737 802.08812,431.02749 C 802.10072,438.24184 807.14232,441.10985 812.45942,436.92742 z M 811.8003,376.5 C 813.84116,374.575 815.89935,373 816.37405,373 C 816.84875,373 817.82486,372.4375 818.54318,371.75 C 819.2615,371.0625 820.86474,369.825 822.10593,369 C 823.34712,368.175 824.86476,366.86922 825.47846,366.09826 C 826.09216,365.32731 828.23102,363.03111 830.23149,360.99561 C 835.91574,355.21181 836.35183,345.41258 831.21566,338.88055 C 828.83341,335.85086 824.46248,328.4695 822.52744,324.20837 C 821.14113,321.15561 815.45983,315.09631 813.92101,315.02931 C 813.5507,315.01319 811.87173,316.15783 810.18995,317.57295 C 807.21492,320.07627 807.13678,320.36238 807.30231,328.14577 C 807.46371,335.73512 807.668,336.40775 811.28336,341.25343 C 813.37937,344.06271 815.09428,347.20463 815.09428,348.23547 C 815.09428,352.15089 810.49937,360.22373 808.09428,360.53384 C 805.50596,360.86758 802.81088,362.55976 802.03938,364.33557 C 801.5222,365.52601 800.58412,367.21404 799.95475,368.08676 C 798.52838,370.06465 799.58827,376.35114 801.70499,378.46785 C 804.20824,380.9711 807.80298,380.27039 811.8003,376.5 z M 837.54733,324.75 C 837.76198,324.0625 838.14725,319.57559 838.40347,314.7791 C 838.75828,308.13708 838.54028,305.78511 837.48898,304.91261 C 836.72979,304.28254 835.63806,302.01944 835.06291,299.88351 C 834.48777,297.74758 833.39954,296 832.64463,296 C 830.40256,296 826.09428,290.08703 826.09428,287.00987 C 826.09428,285.10862 828.07285,281.5047 832.09428,276.08099 C 837.94611,268.18863 838.09428,267.83219 838.09428,261.6474 C 838.09428,251.47152 833.44773,248.20482 826.50539,253.5 C 824.70268,254.875 823.05064,256 822.83419,256 C 822.61775,256 822.62806,254.7232 822.8571,253.16266 C 823.11649,251.39529 824.32157,249.70624 826.05275,248.6836 C 828.10263,247.47271 829.00231,245.97663 829.48106,242.98267 C 829.88661,240.44652 830.78004,238.69431 831.86222,238.31272 C 838.25449,236.05874 839.96332,229.317 835.59428,223.58889 C 834.21928,221.78617 833.09428,219.79119 833.09428,219.15561 C 833.09428,218.52002 832.67644,218 832.16576,218 C 831.65507,218 829.80587,215.79103 828.05643,213.09119 C 825.45693,209.07948 824.10891,207.98931 820.68027,207.12597 C 817.6818,206.37095 815.55988,204.91849 813.24247,202.03478 C 808.59946,196.25717 803.80758,196.61037 802.14409,202.85282 C 800.20361,210.13468 804.01949,219 809.09428,219 C 811.1664,219 812.55304,219.77052 813.73946,221.58123 C 815.23299,223.86064 815.27998,224.76681 814.14138,229.33123 C 812.65327,235.29675 808.03951,245.29805 805.46148,248.14674 C 803.77006,250.01574 803.7727,250.2474 805.52261,253.49678 C 809.18126,260.29048 812.21298,261.93154 818.34428,260.43712 C 821.63243,259.63568 822.02228,261.32155 819.2689,264.43555 C 818.26494,265.571 815.11494,270.65896 812.2689,275.74212 C 806.46644,286.1056 805.5477,291.73839 808.94597,296.11514 C 809.96439,297.42681 811.78162,301.15042 812.98425,304.38983 C 816.04313,312.62924 820.79408,318.89608 825.36948,320.72679 C 827.45021,321.55933 829.60533,323.08639 830.15864,324.12025 C 831.31069,326.27289 836.92251,326.75119 837.54733,324.75 z M 830.73905,200.48332 C 831.05916,199.64915 831.01293,197.73665 830.63632,196.23332 C 830.25972,194.72999 829.70717,191.925 829.40844,190 C 828.85517,186.43483 826.58755,183 824.78715,183 C 824.23872,183 821.84477,181.5375 819.46727,179.75 C 812.21756,174.29939 810.25151,165.22987 814.42725,156.5 C 815.48508,154.2885 815.69561,151.55108 815.22826,146.08497 C 814.59684,138.69983 814.57816,138.6609 810.59428,136.42861 C 808.02918,134.99131 806.19183,134.5182 805.47239,135.10976 C 804.85536,135.61713 803.36691,138.83749 802.16473,142.26612 C 800.96256,145.69475 799.10491,150.13627 798.03662,152.13615 C 796.45267,155.10138 796.09428,157.79551 796.09428,166.73722 C 796.09428,176.61692 796.35123,178.18697 798.69054,182.60106 C 802.16885,189.16434 802.74016,189.76331 806.25925,190.53623 C 809.12192,191.16498 821.3909,199.05289 822.63352,201.06349 C 823.603,202.63214 830.09273,202.16762 830.73905,200.48332 z M 793.01755,151.41111 C 795.57248,149.26128 796.09428,148.09487 796.09428,144.53355 C 796.09428,142.06269 796.69202,139.74881 797.50451,139.0745 C 799.89639,137.08942 801.79774,115.16153 800.03984,109.83505 C 798.26802,104.46639 795.47683,102.38873 788.41391,101.18115 C 785.0147,100.59998 779.8397,99.019496 776.91391,97.668973 C 770.02049,94.487026 758.43031,93.422298 757.25613,95.863118 C 755.8439,98.798777 755.88303,112.74889 757.30603,113.65496 C 758.01457,114.10611 762.54811,114.56843 767.38058,114.68233 C 775.57254,114.87543 776.43499,115.10179 780.13057,118.02875 C 784.73063,121.67206 785.06755,123.73704 781.59428,127 C 779.35346,129.10514 779.09467,130.13402 779.09802,136.92431 C 779.10092,142.8096 779.56661,145.28097 781.18506,148 C 785.15571,154.67079 788.126,155.52708 793.01755,151.41111 z M 772.09428,91.214889 C 773.46928,91.035392 776.05678,90.428714 777.84428,89.866714 C 780.74224,88.955578 781.09187,88.447101 781.07204,85.172448 C 781.04681,81.004093 779.05222,78.109847 774.35974,75.432528 C 771.68076,73.904026 770.56432,73.775185 767.85974,74.682408 C 763.15408,76.260869 755.82665,75.645797 752.88277,73.425226 C 749.37743,70.781141 747.75425,66.626044 748.55639,62.350305 C 749.59863,56.794678 747.2855,49.300504 744.16756,48.131195 C 739.818,46.499993 733.79879,46.000346 732.40751,47.155006 C 730.81971,48.47276 730.68991,53.375911 732.16963,56.140784 C 732.76107,57.245899 733.37725,62.278816 733.53893,67.325042 C 733.8002,75.479496 734.73363,80.132675 737.08357,84.995165 C 737.48099,85.817505 739.98639,87.612318 742.65112,88.983637 C 746.93919,91.190352 748.76612,91.480639 758.54518,91.509095 C 764.62219,91.526778 770.71928,91.394386 772.09428,91.214889 z M 723.43929,70.171259 C 725.41368,67.989586 725.7391,58.04482 723.8964,56.202122 C 723.23757,55.543289 722.40558,52.174002 722.04755,48.714817 C 721.52181,43.635413 720.67608,41.42252 717.65162,37.212695 C 713.99739,32.126274 713.78583,32 708.91845,32 C 701.68062,32 683.56253,38.594493 681.07393,42.134652 C 680.78773,42.541776 679.32523,43.341892 677.82393,43.912688 C 675.40233,44.833378 675.09428,45.464672 675.09428,49.506634 C 675.09428,52.644156 675.56367,54.242891 676.60181,54.641263 C 679.26315,55.662516 685.24458,53.940872 687.50355,51.503395 C 688.70916,50.202524 690.91453,48.832235 692.40437,48.458308 C 693.89421,48.084381 695.36048,47.378292 695.66275,46.889221 C 696.48555,45.557894 699.18864,45.892986 702.99386,47.798032 C 705.8496,49.227731 706.78339,50.619813 708.83098,56.5 C 710.17162,60.35 711.23076,64.947445 711.18463,66.716545 C 711.12692,68.929274 711.70337,70.25561 713.03177,70.966545 C 716.12183,72.620296 721.60191,72.201539 723.43929,70.171259 z "
       style="fill:#19684f"
       id="path2114" />
    <g
       id="g2763">
      <path
         sodipodi:type="arc"
         style="opacity:1;fill:#fcd48e;fill-opacity:1;fill-rule:evenodd;stroke:#103370;stroke-width:9.84917259;stroke-linecap:butt;stroke-linejoin:miter;stroke-opacity:1"
         id="path2118"
         sodipodi:cx="205.20753"
         sodipodi:cy="287.93359"
         sodipodi:rx="139.24797"
         sodipodi:ry="219.34172"
         d="M 344.45551 287.93359 A 139.24797 219.34172 0 1 1  65.959564,287.93359 A 139.24797 219.34172 0 1 1  344.45551 287.93359 z"
         transform="matrix(1.018741,0,0,1.011898,436.4079,-3.949399)" />
      <g
         id="g2759">
        <path
           d="M 645,396.375 C 643.94938,396.51323 642.52081,397.18956 639.90625,398.46875 C 636.87928,399.94973 633.95314,401.97813 633.40625,403 C 632.03607,405.56016 632.17049,411.35799 633.625,412.8125 C 635.22843,414.41593 639.71502,414.30579 643.8125,412.59375 C 648.16844,410.77375 650.4375,407.46511 650.4375,402.8125 C 650.43753,399.91044 649.84026,398.67346 647.90625,397.40625 C 646.71762,396.62743 646.05062,396.23677 645,396.375 z M 606.875,401.03125 C 603.40253,401.11764 602.46137,401.72074 599.78125,404.5625 C 596.25346,408.30305 595.46138,412.3117 597.46875,416.0625 C 598.62806,418.22872 603.27926,418.67791 606.53125,416.9375 C 610.12761,415.01277 617.4375,407.37432 617.4375,405.53125 C 617.43753,402.6336 614.31821,401.06545 608.53125,401.03125 C 607.91944,401.02764 607.37107,401.01891 606.875,401.03125 z M 690.71875,409.21875 C 689.88443,409.18821 688.84252,409.30492 687.5,409.5 C 681.75608,410.33466 680.41064,411.60857 679.6875,417 C 679.22539,420.44521 679.48843,421.57382 680.96875,422.65625 C 683.29453,424.35689 684.65029,424.33283 688.8125,422.59375 C 694.76183,420.10798 697.25811,413.97686 693.75,410.46875 C 692.94022,409.65896 692.10929,409.26965 690.71875,409.21875 z M 574.15625,417.21875 C 567.91427,417.55017 562.31991,423.74354 565.4375,427.5 C 567.35148,429.80619 570.73868,429.2734 575.34375,425.9375 C 578.7596,423.46308 579.47141,422.3767 579.21875,420.1875 C 578.95388,417.89237 578.4136,417.45045 575.4375,417.21875 C 575.01815,417.1861 574.57238,417.19666 574.15625,417.21875 z M 643.96875,422.0625 C 642.2779,422.21622 640.54836,422.88914 639.4375,424 C 638.33753,425.1 636.7744,426 635.96875,426 C 633.87482,426 632.25458,429.53002 633,432.5 C 634.1087,436.91753 637.06254,437.61695 643.78125,435.0625 C 648.51738,433.26182 651.17229,426.14104 648.21875,423.1875 C 647.29302,422.26178 645.6596,421.90878 643.96875,422.0625 z M 596.5,429.03125 C 595.77373,429.04194 594.98268,429.13633 594.15625,429.34375 C 590.64703,430.2245 585.42233,435.06689 585.4375,437.40625 C 585.46173,441.14109 586.59309,443.89536 588.28125,444.34375 C 591.35283,445.15959 594.5586,445.00776 596.5,443.96875 C 597.56387,443.39941 598.4375,442.49042 598.4375,441.9375 C 598.43753,441.38458 599.39178,439.61474 600.5625,438.03125 C 603.99914,433.38297 601.58388,428.95644 596.5,429.03125 z M 717.46875,435.03125 C 715.12214,435.07261 706.4375,443.26748 706.4375,445.4375 C 706.43753,447.78119 709.20611,451 711.21875,451 C 712.03108,451 714.19675,450.05935 716.0625,448.90625 C 717.92823,447.75314 720.16629,445.48722 721,443.875 C 722.37792,441.21043 722.34592,440.67044 720.75,437.96875 C 719.78435,436.33408 718.31267,435.01637 717.46875,435.03125 z M 735.0625,441.375 C 732.5128,441.43898 730.44089,443.0593 729.78125,445.6875 C 728.93841,449.0457 730.48846,451.49305 733.53125,451.59375 C 734.84349,451.63718 736.5,451.74967 737.1875,451.84375 C 744.68126,461.56737 739.5342,447.24958 739.4375,445.5625 C 739.43753,442.83452 738.96951,442.11159 736.90625,441.59375 C 736.27904,441.43633 735.65089,441.36023 735.0625,441.375 z M 572.34375,443 C 568.70189,443 564.0566,448.30055 565,451.375 C 565.78931,453.94732 565.33871,453.51212 568.9375,454.78125 C 573.1626,456.27123 572.98508,456.33484 575.84375,452.9375 C 577.26764,451.2453 578.4375,449.12699 578.4375,448.25 C 578.43753,445.67527 575.31757,443 572.34375,443 z M 625.625,444 C 620.21762,444 617.0083,453.57985 621.6875,455.75 C 624.23459,456.9313 629.54888,456.24082 630.65625,454.59375 C 633.06121,451.01665 629.73405,444 625.625,444 z M 654.4375,450.03125 C 650.76576,449.98337 646.82198,450.27603 645,450.96875 C 643.58919,451.50514 642.4375,452.62622 642.4375,453.4375 C 642.43753,454.24877 641.78121,455.24767 641,455.6875 C 639.28327,456.65402 638.10062,461.08596 639.15625,462.59375 C 640.39577,464.36419 643.8258,465.96583 645.4375,465.53125 C 646.26252,465.30881 649.1875,464.79545 651.9375,464.40625 C 660.0497,463.25814 666.27324,455.24199 662.21875,451.1875 C 661.4928,450.46155 658.10924,450.07913 654.4375,450.03125 z M 596.375,452 C 593.32429,452 591.51559,463.34157 593.84375,467.84375 C 595.98492,471.98437 598.44938,471.86861 602.3125,467.46875 C 604.01948,465.52461 605.4375,462.99899 605.4375,461.875 C 605.43753,459.90405 598.17841,452 596.375,452 z M 691.03125,468.0625 C 689.73179,468.08754 688.10871,468.62124 686.125,469.625 C 683.12245,471.14426 678.54875,475.664 678.46875,477.1875 C 678.44894,477.56419 678.86986,479.0267 679.40625,480.4375 C 680.7019,483.84535 684.01136,483.78437 689.875,480.25 C 694.8599,477.2453 696.28964,474.22816 694.5625,470.4375 C 693.83169,468.83354 692.70199,468.03031 691.03125,468.0625 z M 606.65625,479.65625 C 603.53539,479.59959 601.53666,482.09366 604.65625,485 C 607.25554,487.42162 610.70468,487.57588 612.53125,485.375 C 613.68363,483.98644 613.48168,483.44649 611.21875,481.5 C 609.72781,480.21756 608.07482,479.68201 606.65625,479.65625 z M 656.37891,481.09375 C 652.70717,481.04587 648.76339,481.33853 646.94141,482.03125 C 645.5306,482.56764 644.37891,483.68872 644.37891,484.5 C 644.37894,485.31127 643.72262,486.31017 642.94141,486.75 C 641.22468,487.71652 640.04203,492.14846 641.09766,493.65625 C 642.33718,495.42669 645.76721,497.02833 647.37891,496.59375 C 648.20393,496.37131 651.12891,495.85795 653.87891,495.46875 C 661.99111,494.32064 668.21465,486.30449 664.16016,482.25 C 663.43421,481.52405 660.05065,481.14163 656.37891,481.09375 z M 675.79297,491.63281 C 672.12123,491.58493 668.17745,491.87759 666.35547,492.57031 C 664.94466,493.1067 663.79297,494.22778 663.79297,495.03906 C 663.793,495.85033 663.13668,496.84923 662.35547,497.28906 C 660.63874,498.25558 659.45609,502.68752 660.51172,504.19531 C 661.75124,505.96575 665.18127,507.56739 666.79297,507.13281 C 667.61799,506.91037 670.54297,506.39701 673.29297,506.00781 C 681.40517,504.8597 687.62871,496.84355 683.57422,492.78906 C 682.84827,492.06311 679.46471,491.68069 675.79297,491.63281 z M 621.98828,489.96875 C 618.31654,489.92087 614.37276,490.21353 612.55078,490.90625 C 611.13997,491.44264 609.98828,492.56372 609.98828,493.375 C 609.98831,494.18627 609.33199,495.18517 608.55078,495.625 C 606.83405,496.59152 605.6514,501.02346 606.70703,502.53125 C 607.94655,504.30169 611.37658,505.90333 612.98828,505.46875 C 613.8133,505.24631 616.73828,504.73295 619.48828,504.34375 C 627.60048,503.19564 633.82402,495.17949 629.76953,491.125 C 629.04358,490.39905 625.66002,490.01663 621.98828,489.96875 z M 603.68359,483.58984 C 600.01185,483.54196 596.06807,483.83462 594.24609,484.52734 C 592.83528,485.06373 591.68359,486.18481 591.68359,486.99609 C 591.68362,487.80736 591.0273,488.80626 590.24609,489.24609 C 588.52936,490.21261 587.34671,494.64455 588.40234,496.15234 C 589.64186,497.92278 593.07189,499.52442 594.68359,499.08984 C 595.50861,498.8674 598.43359,498.35404 601.18359,497.96484 C 609.29579,496.81673 615.51933,488.80058 611.46484,484.74609 C 610.73889,484.02014 607.35533,483.63772 603.68359,483.58984 z M 629.12616,262.06583 L 651.87511,262.06583 C 652.34705,303.64785 658.81943,375.23208 651.87511,379.73281 L 629.12616,379.73281 C 640.12293,349.93629 631.62337,303.42862 629.12616,262.06583 z "
           style="fill:white"
           id="path2486" />
        <path
           sodipodi:nodetypes="cssccssssssssssssssssssssssssssssssssssscccssssssssssssscccssssssssssssssssssssssssscccssssssssssssssssssssssssssssssssssssssssssssssssssssssssscccsscccsssssssssssssssssssssssssssssssssssssssssssssssssssssssssssssssssssssssssssssssssssssssssssssssssssssssssssssssssccssccssccssssccsssccssssssccssccssssccsssssccsssssccssssccsssccssssccssssccsssssccssssssccssc"
           style="fill:#6b0c13"
           d="M 674.88078,506.93347 C 673.96044,505.44432 675.02751,504.63468 676.94215,505.3694 C 677.82573,505.70846 678.26858,506.43905 677.92627,506.99294 C 677.11569,508.30448 675.71116,508.27705 674.88078,506.93347 z M 622.08911,505.33388 C 621.64451,504.88927 620.525,504.51977 619.60132,504.51275 C 618.405,504.50367 617.9219,503.63749 617.9219,501.50164 C 617.9219,498.73962 617.56719,498.4368 613.4219,497.65998 C 610.9469,497.19617 606.8969,496.7265 604.4219,496.61627 C 600.14797,496.42591 599.9219,496.26724 599.9219,493.45792 C 599.9219,490.72951 599.61252,490.47482 595.93458,490.17549 C 593.74155,489.997 591.37905,489.3794 590.68458,488.80304 C 589.7919,488.06219 588.96994,488.13021 587.87952,489.03517 C 585.93371,490.65005 584.67673,489.42613 584.24885,485.5 C 583.97635,482.99965 583.42225,482.44363 580.9219,482.16151 C 576.87502,481.70491 575.4219,480.30887 575.4219,476.87756 C 575.4219,474.27546 575.09858,474 572.04434,474 C 568.27995,474 566.78093,472.70516 566.26772,469.01022 C 566.05357,467.4684 565.16042,466.38205 563.9219,466.15698 C 560.91248,465.61009 558.4219,462.97823 558.4219,460.34501 C 558.4219,458.54254 557.87183,458 556.04434,458 C 553.31137,458 550.91604,455.62752 551.95376,453.94845 C 552.97208,452.30077 550.38487,448 548.37537,448 C 547.43565,448 546.25555,447.4375 545.75292,446.75 C 544.12216,444.51944 542.37074,438.29689 542.94931,436.78917 C 543.63815,434.99408 541.74309,433.30953 538.51318,432.84582 C 536.65844,432.57953 536.0419,431.81003 535.83246,429.5 C 535.68287,427.85 535.24504,424.11665 534.85951,421.20366 C 534.17132,416.00394 534.10165,415.91273 531.04022,416.20366 C 528.24892,416.46892 527.95106,416.24044 528.19999,414.02492 C 525.23727,395.74511 533.04547,406.38708 530.77699,409.16012 C 529.41073,410.66982 529.46852,411.04662 531.35577,412.93387 C 533.77973,415.35783 537.25551,414.94632 540.00329,411.91006 C 540.95401,410.85953 542.84652,410 544.20885,410 C 546.35195,410 552.94599,406.77568 554.4219,405.00608 C 555.40798,403.82377 573.09755,395.74663 577.4219,394.50417 C 578.7969,394.10911 582.04305,392.44764 584.63556,390.81201 C 587.22807,389.17639 591.50307,387.22329 594.13556,386.4718 C 601.08916,384.48676 608.46142,381.98811 612.07303,380.39232 C 613.80615,379.62655 615.84996,379 616.61482,379 C 618.95266,379 625.9941,370.83205 628.91181,364.7357 L 631.6706,358.97139 L 631.14405,329.2357 C 630.85446,312.88106 630.09913,296.575 629.46555,293 C 625.81332,272.39212 625.28824,270.57371 621.57711,265.68196 C 615.40199,257.54235 612.74778,256.44278 600.22683,256.83707 C 592.7484,257.07256 587.93626,256.71599 584.22683,255.65149 C 571.81449,252.0895 564.30764,251.2501 557.9219,252.71012 C 547.41767,255.11179 546.49707,255.23568 543.9347,254.59257 C 541.72919,254.03902 541.4219,253.426 541.4219,249.57972 C 541.4219,245.63154 541.76852,244.99304 544.9219,243.1325 C 549.33231,240.5303 549.33231,238.79619 544.9219,235.4322 C 539.31088,231.15247 540.82825,226 547.69961,226 C 550.99475,226 561.36493,229.62954 564.4219,231.85277 C 565.7969,232.85276 568.21634,233.99284 569.79844,234.38628 C 571.38053,234.77972 574.7079,236.65388 577.1926,238.55109 C 586.12065,245.36816 593.94119,245.54136 600.95383,239.07734 L 605.31593,235.05649 L 609.61892,236.49922 C 611.98556,237.29272 615.0469,238.18566 616.4219,238.48354 C 617.92402,238.80895 620.51851,241.17804 622.9219,244.41884 C 629.89201,253.81753 636.38296,255.40157 638.3852,248.19249 C 640.44678,240.76974 639.26398,236.67915 634.72681,235.54039 C 631.98283,234.8517 625.4219,228.94022 625.4219,227.15655 C 625.4219,225.74517 622.78234,225 617.78293,225 C 615.32147,225 611.25882,224.48413 608.75484,223.85362 C 605.33804,222.99326 602.9676,222.9922 599.25414,223.84937 C 595.21346,224.78207 593.78967,224.72442 591.48958,223.535 C 587.61506,221.53141 576.0159,219.55798 569.65961,219.82094 C 564.41669,220.03785 559.34494,218.30226 557.7216,215.73567 C 557.28177,215.04027 554.5594,212.52335 551.6719,210.14253 C 547.32986,206.5624 546.4219,205.25915 546.4219,202.60688 C 546.4219,200.8431 546.9619,198.86 547.6219,198.2 C 549.60748,196.21442 558.78288,196.70951 561.63928,198.95635 C 564.93696,201.5503 574.3838,205.2286 576.07819,204.5784 C 579.04046,203.44167 576.96019,200.21476 567.05516,190.58189 C 561.35346,185.03685 556.36614,179.46547 555.97223,178.20104 C 554.90662,174.78042 557.74871,171 561.38594,171 C 562.9908,171 564.58198,171.45 564.9219,172 C 565.26182,172.55 566.34461,173 567.3281,173 C 568.3116,173 569.52254,173.85535 570.01909,174.90079 C 570.51563,175.94622 572.94084,178.32699 575.40842,180.19138 C 578.29007,182.36862 580.43633,185.02237 581.40842,187.6101 C 583.38445,192.87031 592.61028,204.52893 596.31135,206.44283 C 597.90668,207.26781 601.12038,208.24796 603.4529,208.62095 L 607.69384,209.2991 L 606.98724,204.58712 C 606.51606,201.44508 606.67814,199.39618 607.47371,198.43757 C 609.98414,195.41269 612.89591,196.95048 622.43406,206.33858 C 627.65237,211.47479 632.90482,216.19979 634.10616,216.83858 C 639.22545,219.56063 643.3406,217.21609 640.91222,212.96094 C 640.13978,211.60742 639.04959,209.4875 638.48959,208.25 C 637.92959,207.0125 637.07146,206 636.58265,206 C 636.09384,206 634.47155,204.23615 632.97757,202.08033 C 631.48359,199.92451 628.38489,196.89332 626.09157,195.34436 C 619.37446,190.80744 612.4219,184.78247 612.4219,183.49845 C 612.4219,180.57769 604.93256,177.40871 591.9219,174.82424 C 582.94514,173.04108 573.4219,166.63739 573.4219,162.38434 C 573.4219,159.68649 575.88726,157 578.36306,157 C 579.35212,157 582.93726,157.88679 586.33003,158.97065 C 589.7228,160.05451 594.84393,161.2067 597.7103,161.53108 C 606.11332,162.48203 607.22292,162.8729 610.43621,166.01399 C 613.69091,169.19556 617.16095,169.80442 620.42417,167.76651 C 624.49039,165.22712 631.4219,171.30352 631.4219,177.40751 C 631.4219,178.67988 632.4344,181.2462 633.6719,183.11045 C 634.9094,184.9747 636.54767,187.71363 637.31249,189.19696 C 639.19821,192.85417 641.06576,193.35614 643.54875,190.87315 C 645.1655,189.2564 645.48003,188.08929 644.9575,185.64583 C 644.5875,183.91562 643.8929,179.86364 643.41394,176.64143 C 642.93031,173.38777 641.73806,169.93636 640.73251,168.87904 C 639.73667,167.83195 638.0219,166.05082 636.9219,164.92098 C 634.81946,162.7615 626.08626,158.02618 624.08974,157.96311 C 623.44743,157.94282 620.01651,155.01782 616.46549,151.46311 C 612.91446,147.9084 609.5749,145 609.04423,145 C 608.51356,145 607.27267,144.26993 606.28668,143.37763 C 603.35256,140.72229 595.98516,139.81323 591.12432,141.50676 C 585.25044,143.55324 583.11063,143.36763 580.06792,140.54775 C 576.90249,137.61413 576.8149,136.50781 579.41094,132.25 C 581.16103,129.37964 581.90413,129 585.77234,129 C 591.02753,129 594.6027,126.52609 597.47012,120.90547 C 599.25198,117.41274 599.85671,117.00162 603.19222,117.01531 C 607.61956,117.03349 608.4506,117.549 610.4219,121.5 C 611.24515,123.15 612.16998,124.725 612.47708,125 C 612.78418,125.275 613.64556,127.00731 614.39124,128.84959 C 616.01715,132.8665 622.21534,140 624.07967,140 C 624.811,140 626.7925,141.9125 628.48301,144.25 C 631.86452,148.92567 633.38171,149.82499 638.06491,149.92971 C 642.53826,150.02975 643.08404,147.5816 639.70017,142.59454 C 638.17212,140.34254 636.2469,137.97459 635.4219,137.33241 C 634.2868,136.44886 633.83817,133.41646 633.57771,124.86698 C 633.34618,117.26723 632.77335,112.91215 631.82771,111.56206 C 631.05451,110.45817 630.4219,107.21076 630.4219,104.34559 C 630.4219,99.736858 630.75679,98.897727 633.32627,97.068094 C 638.27341,93.54542 641.42982,94.517927 645.87685,100.93499 C 648.22582,104.32456 648.59434,105.67768 648.12385,109.18543 C 647.67508,112.5313 648.07268,114.25434 650.0865,117.69066 C 651.4755,120.0608 652.96672,122 653.40034,122 C 654.78686,122 655.20519,127.01594 654.16157,131.12748 C 653.00624,135.67915 654.3649,140 656.95149,140 C 659.1612,140 661.4219,133.98073 661.4219,128.09722 C 661.4219,121.17881 662.79493,118 665.78321,118 C 667.57619,118 668.63984,118.9395 669.93366,121.66603 C 672.34591,126.74947 671.61377,142.37543 668.62952,149.5 C 664.37884,159.64804 662.14213,170.05108 662.82794,176.48335 C 663.18077,179.79251 663.43668,186.8875 663.39664,192.25 L 663.32383,202 L 665.84718,202 C 667.68968,202 668.81474,201.12308 670.01681,198.75 C 670.92226,196.9625 672.38756,194.67493 673.27303,193.66651 C 674.63763,192.11244 674.88595,188.75972 674.90244,171.66651 L 674.9219,151.5 L 677.9219,146.11535 C 679.5719,143.15379 681.63262,139.38965 682.50127,137.75059 C 683.36992,136.11153 684.78116,134.37845 685.63734,133.89931 C 686.49352,133.42016 687.47215,131.55931 687.81207,129.76407 C 688.15199,127.96883 689.47538,125.19417 690.75294,123.59816 C 692.64867,121.22989 693.56729,120.81968 695.74884,121.36721 C 698.00208,121.93274 698.4219,122.58163 698.4219,125.49882 C 698.4219,127.40221 697.67988,130.81401 696.77297,133.0806 C 695.4113,136.48375 695.30625,138.18582 696.16997,142.85084 C 697.07108,147.71782 696.9373,149.26153 695.20373,154 C 690.34774,167.27324 689.31877,170.7685 689.00353,175.06116 C 688.8193,177.5698 687.91106,181.08718 686.98522,182.87756 C 684.97268,186.76937 685.26535,190.8872 687.6611,192.38721 C 690.5739,194.21095 694.23381,189.57665 695.49252,182.47079 C 696.96685,174.14767 699.34499,166.92278 701.52369,164.14785 C 702.53941,162.85416 706.08202,160.4728 709.39617,158.85593 C 712.71032,157.23906 715.4227,155.59753 715.42369,155.20809 C 715.42797,153.51067 724.35158,149 727.70533,149 C 731.47053,149 734.4219,151.07389 734.4219,153.71965 C 734.4219,155.42295 726.40213,163.31596 717.1719,170.69699 C 714.0094,173.22592 711.4219,175.84876 711.4219,176.52554 C 711.4219,177.20233 710.4094,178.44403 709.1719,179.28488 C 707.33511,180.53293 707.12407,181.15219 708.02276,182.65685 C 709.7923,185.61955 714.1814,185.57546 716.54451,182.57125 C 717.65691,181.15706 719.22523,180 720.02966,180 C 722.10799,180 726.4219,176.99989 726.4219,175.55451 C 726.4219,174.886 728.34518,172.95785 730.69585,171.26972 C 738.06121,165.98032 750.4219,165.79637 750.4219,170.97617 C 750.4219,173.39964 749.61341,173.86866 744.28092,174.53865 C 737.02945,175.44976 736.40973,178.36633 743.20698,179.59289 C 748.28767,180.5097 750.4219,181.75261 750.4219,183.79464 C 750.4219,186.99304 746.42479,188.43067 737.31489,188.50879 C 730.46383,188.56755 728.14005,188.98221 725.92462,190.5413 C 724.39383,191.61859 722.44691,192.95 721.59814,193.5 C 720.74937,194.05 718.65517,195.85 716.94438,197.5 C 715.23358,199.15 711.82865,201.47562 709.37787,202.66804 C 701.61967,206.44276 693.22083,209.99978 692.05106,210.00616 C 691.43002,210.00955 689.71471,210.64214 688.23926,211.41191 C 686.76381,212.18168 684.06381,213.13151 682.23926,213.52262 C 677.86105,214.46116 671.43851,221.2028 666.88062,229.64437 C 662.70338,237.38092 660.32014,251.20868 662.29508,256.25 C 663.91556,260.38648 667.22362,259.85293 671.59518,254.75 C 681.54317,243.1377 688.4219,233.974 688.4219,232.33382 C 688.4219,230.55122 699.31498,218 700.86208,218 C 701.58529,218 702.7429,217.31815 703.43453,216.48478 C 705.26292,214.28171 713.62636,210.28278 722.86767,207.19294 C 727.2975,205.71182 733.16164,203.0375 735.8991,201.25 C 738.63655,199.4625 741.16337,198 741.51424,198 C 741.86511,198 743.33787,198.93266 744.78704,200.07258 C 748.2253,202.77712 748.39275,207.79518 745.13914,210.62416 C 742.43739,212.97331 736.42499,215.45816 731.10955,216.42243 C 728.2544,216.94038 727.38146,217.53909 727.63279,218.80701 C 727.89135,220.11147 728.881,220.44253 731.94513,220.24956 C 740.33559,219.72117 750.3038,219.82774 752.31912,220.46738 C 755.64359,221.52252 754.79348,223.8084 749.92943,226.89309 C 745.85547,229.47671 744.29509,229.80806 733.17943,230.4499 C 719.15231,231.25987 705.99863,234.16763 702.02355,237.33725 C 698.36602,240.25366 697.15571,247.46335 700.1634,248.41796 C 702.66329,249.21139 704.96025,248.33234 708.17701,245.35115 C 709.78551,243.86045 711.93399,243 714.04769,243 C 715.88124,243 719.19041,242.27619 721.4014,241.39153 C 726.11377,239.50601 730.4219,240.19395 730.4219,242.83196 C 730.4219,248.40194 707.00183,260.00139 690.66884,262.52079 C 687.37122,263.02945 685.12475,264.38899 680.66884,268.57266 C 677.50802,271.54036 674.05647,274.25564 672.99871,274.6066 C 670.88215,275.30887 670.36287,275.67763 665.78879,279.72658 C 659.99972,284.85105 659.05417,288.06442 659.27023,301.87942 C 659.37672,308.6881 659.74972,314.7214 660.09912,315.28675 C 660.44852,315.85209 661.06455,321.86098 661.46806,328.63983 C 662.04878,338.39552 662.65895,341.84221 664.39489,345.17269 C 665.60113,347.48691 667.64059,353.62951 668.92702,358.8229 C 670.9842,367.12784 671.77538,368.78446 675.49414,372.57361 C 677.81963,374.94311 681.11721,377.44109 682.8221,378.12468 C 684.52699,378.80827 687.0469,380.46368 688.4219,381.80337 C 691.70022,384.9975 698.98997,390 700.3662,390 C 700.96238,390 703.93631,392.025 706.97494,394.5 C 710.01357,396.975 713.01571,399 713.64636,399 C 714.27701,399 715.722,399.84327 716.85745,400.87394 C 719.88646,403.62343 727.27325,407.41779 732.4219,408.8689 C 738.31159,410.52887 749.08796,415.60829 753.11041,418.62037 C 756.63753,421.26154 756.86628,421.12409 757.82929,415.78508 C 760.32482,407.14913 762.36164,415.47762 761.32843,419.98766 C 760.23114,424.26905 759.79109,424.81152 757.53391,424.66535 C 755.14681,424.51076 754.92518,424.89052 754.12886,430.5 C 753.66039,433.8 753.14211,437.4 752.97712,438.5 C 752.81214,439.6 752.61972,440.9275 752.54952,441.45 C 752.47933,441.9725 751.8819,441.86 751.2219,441.2 C 748.20489,438.18299 743.75903,441.24351 744.25736,445.99437 C 744.44819,447.81367 743.98842,448.95236 742.89332,449.37259 C 740.40747,450.3265 739.4219,449.24105 739.4219,445.54939 C 739.4219,442.8214 738.96464,442.10205 736.90138,441.58421 C 733.55626,440.74463 730.59831,442.44893 729.78645,445.68364 C 728.9436,449.04185 730.49321,451.47826 733.536,451.57896 C 734.84825,451.62238 736.4844,451.73488 737.1719,451.82896 C 738.77882,452.04884 738.78912,455.23278 737.18809,456.83381 C 736.5095,457.5124 735.88598,459.42592 735.80248,461.08608 C 735.61566,464.80076 734.88407,465.62846 733.09786,464.14603 C 731.22505,462.59174 728.14959,465.99988 728.59451,469.13653 C 728.87073,471.08384 728.37489,471.53761 725.4219,472.0399 C 720.30286,472.91062 716.85914,475.04486 714.19138,479 C 712.57856,481.39111 711.05301,482.50599 709.37625,482.5189 C 707.8837,482.53039 706.9219,483.11821 706.9219,484.0189 C 706.9219,484.98089 707.71051,485.39035 709.1719,485.18714 C 710.4094,485.01507 711.4219,485.12153 711.4219,485.42372 C 711.4219,486.36661 704.3001,489 701.75012,489 C 700.41497,489 697.88243,489.76643 696.12224,490.70317 C 694.36205,491.63991 692.30059,492.28168 691.54121,492.12932 C 690.55173,491.93079 690.30307,492.59804 690.66363,494.48418 C 691.03637,496.43407 690.81111,496.97959 689.79432,496.58942 C 689.03949,496.29976 688.4219,496.49865 688.4219,497.03138 C 688.4219,497.56412 685.8344,498.00391 682.6719,498.00869 C 672.14163,498.02461 666.4219,499.08343 666.4219,501.01685 C 666.4219,504.80812 664.14236,505.24261 645.67953,504.97044 C 635.91284,504.82646 626.7914,505.03121 625.40969,505.42545 C 624.02797,505.81968 622.53371,505.77848 622.08911,505.33388 z M 655.66786,491.86836 C 657.7155,490.7725 657.72319,490.69348 655.91099,489.36836 C 652.40489,486.80464 648.51438,488.19265 649.8019,491.54789 C 650.46981,493.28843 652.77875,493.41457 655.66786,491.86836 z M 612.51696,485.38546 C 613.66935,483.99691 613.48861,483.45413 611.22568,481.50764 C 606.45471,477.40383 600.10701,480.76544 604.64459,484.99284 C 607.24388,487.41445 610.69039,487.58634 612.51696,485.38546 z M 689.86065,480.25 C 694.84556,477.2453 696.29739,474.21692 694.57025,470.42626 C 693.27104,467.57479 690.65644,467.32507 686.12224,469.61937 C 683.1197,471.13864 678.53786,475.6614 678.45786,477.1849 C 678.43808,477.5616 678.86076,479.0241 679.39715,480.4349 C 680.69281,483.84276 683.99701,483.78437 689.86065,480.25 z M 602.31831,467.4652 C 604.02528,465.52107 605.4219,463.01079 605.4219,461.8868 C 605.4219,459.91586 598.17889,452 596.37548,452 C 593.32478,452 591.50659,463.3293 593.83475,467.83148 C 595.97595,471.9721 598.45519,471.86506 602.31831,467.4652 z M 651.9219,464.40628 C 660.03407,463.25817 666.27639,455.25449 662.2219,451.2 C 660.77002,449.74812 648.63096,449.58982 644.987,450.97525 C 643.57619,451.51164 642.4219,452.61428 642.4219,453.42556 C 642.4219,454.23684 641.78273,455.26048 641.00152,455.70031 C 639.2848,456.66684 638.10632,461.07767 639.16195,462.58546 C 640.40145,464.35589 643.8102,465.95296 645.4219,465.51838 C 646.2469,465.29593 649.1719,464.79548 651.9219,464.40628 z M 630.65659,454.59275 C 633.06158,451.01564 629.71951,444 625.61046,444 C 620.20309,444 616.9927,453.56774 621.6719,455.73789 C 624.21896,456.91918 629.54922,456.23982 630.65659,454.59275 z M 575.83301,452.92327 C 577.2569,451.23108 578.4219,449.12901 578.4219,448.25202 C 578.4219,445.67728 575.32963,443 572.35581,443 C 568.71397,443 564.07148,448.28941 565.01488,451.36386 C 565.8042,453.93618 565.32311,453.51502 568.9219,454.78415 C 573.14697,456.27413 572.97434,456.32061 575.83301,452.92327 z M 716.07811,448.90346 C 717.94386,447.75036 720.15252,445.48782 720.98623,443.8756 C 722.36413,441.21104 722.3423,440.67384 720.74638,437.97215 C 719.78075,436.33747 718.30021,435.01218 717.45629,435.02706 C 715.10969,435.06843 706.4219,443.25568 706.4219,445.4257 C 706.4219,447.76938 709.19621,451 711.20885,451 C 712.02119,451 714.21236,450.05656 716.07811,448.90346 z M 596.48764,443.96482 C 597.55148,443.39547 598.4219,442.47724 598.4219,441.92432 C 598.4219,441.3714 599.37977,439.62343 600.55049,438.03994 C 604.47806,432.72763 600.77692,427.69014 594.16547,429.34951 C 590.65625,430.23027 585.42038,435.05567 585.43555,437.39503 C 585.45978,441.12986 586.58637,443.88205 588.27453,444.33044 C 591.34612,445.14628 594.54624,445.00383 596.48764,443.96482 z M 643.77688,435.05514 C 648.51299,433.25447 651.17544,426.15354 648.2219,423.2 C 646.37047,421.34857 641.64362,421.77828 639.4219,424 C 638.3219,425.1 636.76273,426 635.95708,426 C 633.86316,426 632.26389,429.52227 633.00931,432.49225 C 634.11804,436.90978 637.05817,437.60959 643.77688,435.05514 z M 575.33338,425.94916 C 578.74922,423.47474 579.48608,422.38836 579.23342,420.19916 C 578.96853,417.90403 578.398,417.45921 575.4219,417.22751 C 568.71233,416.70513 562.10725,423.5061 565.43268,427.51299 C 567.34666,429.81919 570.72831,429.28506 575.33338,425.94916 z M 688.82333,422.60563 C 694.77263,420.11985 697.26916,413.99012 693.76105,410.48201 C 692.4654,409.18636 691.09109,408.96779 687.51105,409.48801 C 681.76713,410.32267 680.41625,411.6232 679.69311,417.01463 C 679.23101,420.45983 679.48063,421.56978 680.96095,422.65221 C 683.28672,424.35286 684.66112,424.34471 688.82333,422.60563 z M 606.53104,416.94159 C 610.12743,415.01686 617.4219,407.37473 617.4219,405.53166 C 617.4219,402.634 614.32694,401.066 608.53998,401.0318 C 603.64553,401.00288 602.85298,401.32347 599.78998,404.5712 C 596.26219,408.31175 595.44971,412.31494 597.45708,416.06574 C 598.6164,418.23195 603.27905,418.682 606.53104,416.94159 z M 643.82333,412.60563 C 648.17924,410.78562 650.4219,407.45316 650.4219,402.80055 C 650.4219,399.89848 649.85386,398.67391 647.91985,397.4067 C 645.5426,395.84906 645.14332,395.9016 639.91419,398.45997 C 636.88721,399.94094 633.96313,401.98871 633.41624,403.01058 C 632.04608,405.57075 632.16739,411.34549 633.6219,412.8 C 635.22532,414.40342 639.72585,414.31767 643.82333,412.60563 z M 644.39099,370.51951 C 650.43446,366.70444 650.86927,363.27035 649.49635,330.19829 C 647.21171,275.16392 646.52093,269.72892 641.46696,267.02411 C 638.84806,265.62252 635.12066,268.06796 634.01855,271.91081 C 632.88773,275.85372 634.70092,299.62859 636.88528,309.5 C 637.82153,313.73102 637.63813,361.03612 636.68076,362.25283 C 635.39725,363.88403 634.36727,370.69405 635.11095,372.63206 C 635.84901,374.55542 639.20955,373.79041 644.39099,370.51951 z M 718.6219,480.8 C 716.91352,479.09162 717.13815,477.79794 719.07742,478.17668 C 719.98796,478.3545 720.84814,479.2875 720.98894,480.25 C 721.2866,482.28488 720.32923,482.50733 718.6219,480.8 z "
           id="path1887" />
      </g>
      <path
         transform="matrix(1.018741,0,0,1.011898,436.9626,-3.949399)"
         d="M 344.45551 287.93359 A 139.24797 219.34172 0 1 1  65.959564,287.93359 A 139.24797 219.34172 0 1 1  344.45551 287.93359 z"
         sodipodi:ry="219.34172"
         sodipodi:rx="139.24797"
         sodipodi:cy="287.93359"
         sodipodi:cx="205.20753"
         id="path2392"
         style="opacity:1;fill:none;fill-opacity:1;fill-rule:evenodd;stroke:#103370;stroke-width:9.84917259;stroke-linecap:butt;stroke-linejoin:miter;stroke-opacity:1"
         sodipodi:type="arc" />
    </g>
  </g>
</svg>
