<?xml version="1.0" encoding="utf-8"?><!DOCTYPE svg PUBLIC "-//W3C//DTD SVG 1.1//EN" "http://www.w3.org/Graphics/SVG/1.1/DTD/svg11.dtd"><svg viewBox="0 0 600 600" xmlns="http://www.w3.org/2000/svg"><g stroke="#000" stroke-linecap="round" stroke-linejoin="round"><path d="m.5 300 299.5 299.5 299.5-299.5-299.5-299.5z" fill="#eac102"/><path d="m333.278 33.7773v276.2227h33.278v-242.9453z" fill="#ed1c24"/><path d="m399.833 100.334v209.666h33.2783v-176.3887z" fill="#ed1c24"/><path d="m532.944 233.4453v76.5547h33.278v-43.2773z" fill="#ed1c24"/><path d="m466.3887 166.8887v143.1113h33.2783v-109.834z" fill="#ed1c24"/><path d="m.5 300h299.5v-299.5z" fill="#eac102"/><path d="m300 599.5 299.5-299.5h-299.5z" fill="#eac102"/></g><g stroke="#000" stroke-linecap="round" stroke-linejoin="round"><g><path d="m232.22 207.4793c.9677.3797 2.5891.9808 3.5173.8958-2.0432-3.6167-3.7435-8.0434-4.5106-11.8425 1.1343.1739 2.1242.3826 3.4566.048-1.7077-3.2919-4.121-7.8533-4.96-11.8218l3.2466.2394c-1.3661-3.634-2.2739-9.1452-2.1397-12.6595 1.2423.3627 2.1961.3494 3.3573.1698-.9625-3.8558-1.6836-6.5407-1.6969-11.5213 1.46 1.3495 3.108 1.571 4.7503 1.6573-1.3408-3.1809-2.6026-7.5914-2.6134-10.9937 1.5142 1.5185 2.9803 2.215 4.8994 2.8961-3.1012-3.9434-3.3775-9.3178-3.083-13.3703.9497 1.3372 2.3065 3.0848 4.3069 4.0509-1.0979-2.3941-2.6587-8.4505-2.691-12.0161.9119.98 2.7369 2.5837 3.7453 2.4955-.933-1.9627-2.0239-7.8105-2.0599-11.0733 1.1576 2.0161 2.5453 3.428 3.8685 3.9895-.6968-3.2799-1.1999-8.7198-1.1999-12.5838 1.1337 1.3428 2.3026 2.2007 3.5482 2.8444-.5792-3.1048-1.2003-6.3669-1.2561-10.0213.8275.9509 2.2187 2.223 3.6173 2.6752-.863-2.3851-2.4562-5.5501-1.9311-9.1114.9555 1.4975 1.9742 2.7372 3.0288 3.8277-.506-2.4744-1.0372-5.1318-.7895-8.9238.6242 1.2425 1.2181 2.3729 2.1499 2.5776.1647-1.8088.2468-4.2073.942-7.2788.6286 1.4654.9734 3.8039 1.0805 5.7228.5019-.3471.9369-1.1465 1.4792-2.0033.2415 1.5398.5784 3.6017.4552 5.629l1.4551-2.6977c.4486 2.9123.017 5.9105-.549 8.191.8033-.9839 1.5098-1.9413 2.0652-2.8565.5372 2.8823-.091 5.6224-.5371 7.9341.9624-.133 1.8668-.5048 2.6314-1.4504.1965 2.811-.7122 5.7221-1.2113 7.3642.7741-.3475 1.6553-.9229 2.4145-1.7308.1853 2.9155.084 6.4432-.1671 9.2646.6113-.2915 1.1752-.5834 2.0392-1.374-.054 3.6184-.6063 7.5056-1.2489 10.3594.6929-.2316 1.851-.5189 2.8733-1.3739.1204 4.0587-.2055 7.8223-.7484 10.8728.8243.086 2.2079-.08 3.2426-.7801-.022 2.493-.4163 5.4417-1.4908 8.1263 1.2683-.057 2.1743-.3273 3.5037-.86-.7333 3.5506-1.5334 7.2263-3.1816 10.7571 1.6678-.2378 3.028-.8334 4.5735-1.8363-.4293 3.4317-1.8586 8.0669-4.0845 11.2907 1.7746-.3385 3.2703-.6591 5.1914-1.8163-.7795 5.7449-.8788 8.193-1.7455 12.132 1.5159-.4555 2.7645-1.7704 3.9594-2.86-.6642 3.4557-1.7351 6.4779-3.2923 8.982.708.8555 1.9968 1.2432 3.2923.9245-.6664 3.8484-2.9405 7.4399-4.258 9.7632.9555-.051 2.1241-.01 3.2817-.4209-.5557 4.774-1.8522 7.4179-3.3949 9.3539.5113 1.2269 1.4776 1.7454 2.403 2.1782-.7538 2.1246-2.6204 4.3833-4.0281 4.8964.5279.4058 1.0706.7315 1.8206 1.1308-1.3547 4.7595-4.6827 17.9253-17.8243 20.8303-8.1919-1.6638-14.6843-10.7729-17.7702-20.6492.6743-.3546 1.3893-.7796 1.8419-1.4084-1.6064-1.4543-3.4153-5.3053-3.575-6.7351z" fill="#008f4c"/><path d="m250.9047 113.5034c.5488-2.1352.9528-6.1558 1.2386-8.0436 1.1147 2.9941 1.1692 7.001 1.2686 9.8711" fill="none"/><path d="m248.3232 111.5376c.9804 2.253 1.6811 3.702 2.8658 5.9957" fill="none"/><path d="m253.7594 124.0436c.8728-.7156 1.453-1.5014 1.9609-2.5966.429 1.7442.2896 4.29-.089 5.8163.7132.074 1.4263-.4648 2.1394-1.3501-.076 1.7658-.5595 3.5312-1.3371 5.297.8617.3236 1.7231.1182 2.5849-.5193.186 2.2945-.5612 4.1485-1.3369 5.4009" fill="none"/><path d="m243.6137 128.6231c.6336 3.2123 1.4372 4.5775 2.6895 6.3004" fill="none"/><path d="m248.0576 139.0427c-.066-2.358-.1625-6.7425.4033-9.5555.2142 1.1004.6207 1.73 1.0751 2.1812.2944-2.4396.5231-5.6537.672-7.9978.7806 1.2632 1.148 3.6238 1.2766 4.9858.3361.2263.7116.1596 1.0081-.1038.3227 3.3235.4078 6.6473.2015 9.9708" fill="none"/><path d="m263.755 144.4802c-.3507 1.8884-1.2062 4.9983-2.1761 6.14" fill="none"/><path d="m250.944 150.9507c-1.5532-1.4143-3.8324-5.0382-5.3478-7.0627-.2388 4.1891 1.4949 9.3712 2.674 12.5677-1.6428-1.0893-2.9967-1.9106-4.0109-3.5311-.1492 2.8514.5977 5.9629 1.7827 8.7242" fill="none"/><path d="m255.0866 160.3049c1.1558-.9706 2.1189-2.9945 2.4956-5.1931.7261 1.5526.7986 4.4208.5349 6.8551 1.7735-2.9639 3.3875-6.0213 4.1891-9.5555 1.1745 5.4231.5385 9.6067.089 13.9179" fill="none"/><path d="m252.966 183.4671c.4456-1.9888.9391-9.1392-.3564-13.9182-.4171.9776-1.1918 1.6322-2.1391 1.9734.587-1.9398.8944-4.7004.1782-7.5819-.7726 2.3334-1.545 4.4199-2.3174 5.6085" fill="none"/><path d="m245.0004 177.7544c-.8365-2.5438-1.4324-6.1627-1.4263-9.244-.6422.487-1.1759 1.2718-1.426 2.285-.9489-2.1467-1.4597-4.293-1.4259-6.4396-.8421.5777-1.4509 1.6323-1.3372 3.4272" fill="none"/><path d="m236.8709 183.9864c-.2369-1.9508-.2064-3.8492.5347-5.609.352 1.8007.9965 3.6009 2.05 5.4012.2845-.6355.8702-1.3236 1.5151-1.4542.062 2.017.4975 3.7904.8913 5.0896" fill="none"/><path d="m245.6889 192.307c-.039-2.1018.3888-6.351 1.2477-8.1482.2903 2.249 1.2897 7.1448 2.112 9.0563" fill="none"/><path d="m256.3344 175.2617c1.1095-1.3072 1.9-3.2523 2.1391-5.7128.9523 1.9937 1.92 5.3258 2.0943 7.9283" fill="none"/><path d="m256.7672 192.4768c.642-1.3079 1.2511-3.6816 1.7827-6.1281.4596.7022.7001 1.9369.7128 2.9081 1.0585-1.8113 2.367-4.1871 3.2087-6.6473.2031 1.016.2604 2.1204.2676 3.0123 1.2007-1.8894 2.7111-4.8283 3.9218-7.3748.1166 5.4318-2.3834 16.4458-4.5732 20.6755" fill="none"/><path d="m258.1356 195.5153c-.9163 2.6911-1.2851 6.3221-.3564 9.6597" fill="none"/><path d="m266.3179 171.1779c-.8975 1.3718-2.4768 3.1981-3.4895 4.0874" fill="none"/><path d="m253.5901 207.46c-.4873-2.2832-.4662-6.2338-.3565-7.6862-2.7717 2.2941-5.3928 6.447-6.5958 9.4521-1.2807-1.8736-2.3497-3.904-2.8523-6.1281-.9042.4454-1.6011 2.0385-1.8718 3.4272" fill="none"/><path d="m234.6833 196.5806c1.1994 2.2074 3.2028 5.4543 4.4259 7.2324" fill="none"/><path d="m235.7373 208.3751c1.5508 2.9063 3.1088 4.9488 5.1631 6.8435" fill="none"/><path d="m261.077 208.4986c2.2247-2.1 3.847-3.9239 6.15-6.7513-.1275 4.3021-.9004 6.9129-1.6936 9.0362" fill="none"/><path d="m245.4163 222.6676c.8573-2.4018 1.9119-5.79 2.4065-9.2443.3425 2.4377.6755 5.825.7128 9.0366.7129-1.7824 1.8449-4.2851 2.3176-7.0631.5762 1.7995.7269 3.9139.5347 5.1934" fill="none"/><path d="m254.0356 223.559c1.1274-1.8969 2.6404-5.0958 3.2087-8.3088 1.1653 1.6792 1.7322 4.8968 1.8718 7.7896.8213-.3293 1.8145-1.7435 2.05-3.0119.6185.6007.9234 1.5232.9804 2.7004" fill="none"/><path d="m264.0075 215.479c1.4738-.3047 2.5913-.6954 3.7195-1.1681" fill="none"/><path d="m257.0941 122.2616c.4892-1.0218 1.1279-2.4714 1.4984-3.7995" fill="none"/><path d="m260.0199 146.0876c-.1063-1.6702-.7197-3.4115-1.2996-4.4143-.9758 2.7167-2.3298 5.8461-3.476 8.2055" fill="none"/><path d="m244.4652 271.629h3.7004c.4816 0 .9622-.4183 1.4434-.522.081.091.2651.522.5751.522h3.0259c.4237 0 .5913-.4239.8815-.522.3545.1631 1.0492.522 1.6843.522h3.2062c-2.0939-.5918-3.5519-1.5473-3.5519-4.4316 0-2.6377-.093-23.044-.093-25.3237 0-2.7405.1368-4.6449.5561-5.6979.7711-1.9367 2.6689-4.7044 4.1696-6.0657l-1.7865-2.1353-4.7092 4.0859-.3031-4.4317h-3.6051l-.223 4.1138-4.4208-3.768-1.6313 2.2237c1.356 1.2114 3.587 3.7703 4.1699 5.9772.5828 2.2069.5558 3.1338.5558 5.698 0 2.1673-.093 22.4066-.093 25.3237 0 2.8611-1.193 3.8081-3.5519 4.4316z" fill="#c87137"/><path d="m210.3974 196.7128h-47.2318l-33.9966 31.1419h47.2318z" fill="#ed1c24" fill-rule="evenodd"/><path d="m269.1814 284.034v-59.3598h-27.3266l-2 28.6799 2 30.6799z" fill="#e5e5e5" fill-rule="evenodd"/><path d="m200.1834 284.034-2-30.6799 2-28.6799h41.6714v59.3598z" fill="#e5e5e5" fill-rule="evenodd"/><path d="m200.1834 284.034v-59.3598l-30.5525-27.9615-30.5525 27.9615v59.3598z" fill="#e5e5e5" fill-rule="evenodd"/><path d="m209.1501 203.2587h38.4488l26.9889 24.596h-38.4488z" fill="#ed1c24" fill-rule="evenodd"/><path d="m163.1656 196.7128h48.4319l33.9965 31.1419h-48.4319z" fill="#ed1c24" fill-rule="evenodd"/><path d="m162.1819 284.034v-31.834h14.8981v31.834z" fill-rule="evenodd"/><path d="m165.1272 234.3226v-14.4195h9.0074v14.4195z" fill-rule="evenodd"/><path d="m210.4167 250.4126v-14.4195h6.9313v14.4195z" fill-rule="evenodd"/><path d="m224.6901 250.4126v-14.4195h6.9313v14.4195z" fill-rule="evenodd"/><path d="m250.5078 247.5579v-11.5649h6.9313v11.5649z" fill-rule="evenodd"/><path d="m196.1463 210.2482 2-8.6425-2-10.3294h-4.7554v14.3842z" fill="#e5e5e5" fill-rule="evenodd"/><path d="m196.1463 210.2482v-18.9719h7.1909v18.9719z" fill="#e5e5e5" fill-rule="evenodd"/><path d="m241.8555 267.9297-14.7305 14.1035h-208.6582l-17.9668 17.9668h299.5v-32.0703z" fill="#c87137"/></g><g><path d="m237.6545 456.3544c-3.5009.7848-6.4196.613-8.5367-.0723-4.2688.4101-7.9232-.0204-9.6688.1225-3.2433-.4883-4.7436-1.8925-6.9354-2.263-3.4491-.8069-6.81-1.0999-10.5506-3.0987-3.0999-3.3956-5.9903-6.6555-7.6313-8.9555-3.7179-.858-7.3172-5.9391-9.985-6.9308-1.2515-1.3629-1.1943-3.5167-2.173-5.3242-.6898-1.2739-2.2105-2.4686-2.795-3.4832-3.2848-2.3285-5.2023-5.4926-7.8668-7.6697-2.179-3.082-1.1693-5.8324-.6316-8.5525-2.8842-2.8007-4.2578-7.1124-6.6175-10.1285-1.4022-2.2899-1.7867-5.4044-.7342-7.4101-1.338-3.8532-.6182-6.3122-.278-9.6997-5.4813-3.4769-4.7689-7.0459-6.6112-8.982-.5893-3.0561-1.4184-5.8948 1.157-9.7564-1.2494-1.7135.0216-4.0323.0468-6.052-1.2782-6.0957-.3903-8.8837.0453-13.0279-2.138-4.7408 1.7697-7.9397 2.8793-11.9105.7872-1.1452 1.6936-2.2411 2.6584-3.2022 2.1223-2.1141 4.8728-3.7155 7.1565-3.2262 5.0294-3.7123 15.1847 1.7535 16.69 3.5566 3.0291-1.4758 6.2273-1.0187 10.1959 2.0827 2.9394.4303 5.5938 1.6106 8.0782 3.2051 1.8009 2.1195 5.4938 1.6402 7.0342 6.0333 4.1705-.4206 8.345-.8727 11.6034 5.7603 4.0099-.3806 6.0507 4.7223 8.2002 4.5022 2.4236 2.2142 6.6361 1.4033 9.7058 5.9552 3.5492 1.9431 6.9549 4.3016 9.5091 9.1248 3.1089 1.6178 6.2292 3.3752 9.5249 7.3068.9346.2383 1.5828.6389 2.0495 1.1074.6204.6228.7514 1.7725.3379 3.0691 2.799 2.8594 6.4542 3.8308 7.7236 10.0638 1.3816 4.3923 5.2246 6.9968 3.2682 13.8141-.2632 2.8146.5635 4.791-.14 8.0852-1.521 2.154.8043 5.1173-1.4793 9.2652-.0537 2.7356-1.886 7.1267-2.7669 9.0725-1.7475 1.585-4.3074 7.9712-8.0244 10.1751-1.4456 2.5484-4.7577 5.3938-6.4727 7.4885-3.7869 2.4071-7.554 5.4637-9.4691 6.165-2.783.9439-5.6735 3.3502-8.497 3.7899z" fill="#c87137"/><path d="m262.0927 438.9114c-6.534-1.7176-13.617 1.3653-18.7368 2.1144-1.619 3.1254-.9571 7.3404 2.7954 11.5388" fill="none"/><path d="m258.4452 438.0189c2.7602-6.4464 4.2306-13.5226 6.6095-16.0312 2.0247-1.9036 4.6804-2.722 7.8293-2.3238" fill="none"/><path d="m244.625 440.6407c-1.5608-7.1836 2.2233-10.9239 3.2432-15.2922 4.1522-3.3454 9.7879-2.3391 15.82-1.6118" fill="none"/><path d="m242.6251 442.6301c-7.9975-2.5441-9.8435.1811-14.0402 1.4061-3.093 3.1761-1.5469 6.4616.5329 12.2461" fill="none"/><path d="m266.4372 420.7068c-2.6763-10.6697 1.7319-17.1022 8.0659-18.3934" fill="none"/><path d="m249.1416 424.355c-.6381-9.1937 3.997-14.4286 5.6192-17.2988 3.3949-.8591 7.2046-2.9425 13.7992-1.4183" fill="none"/><path d="m246.9823 427.6441c-9.0724-1.5497-9.5433-.2113-13.8784-.2262-1.7319 5.5029-6.7769 11.9601-3.7006 16.1891" fill="none"/><path d="m227.5642 445.2454c-8.0866-3.0691-12.3069-.1336-16.0296-.521-.006 3.6658-.9349 8.1444.9791 9.4174" fill="none"/><path d="m252.5631 410.5027c-8.7472-.6346-12.1285 1.6751-15.9607 1.5062-1.6996 5.1492-6.6465 10.6393-2.9132 15.2179" fill="none"/><path d="m232.6275 428.6997c-7.6951-3.408-13.5519-.0446-19.9349 1.3805-.7878 5.2157-2.7094 11.5142.2672 14.5734" fill="none"/><path d="m271.2878 403.2713c-2.7515-2.6718-.2631-9.6845-.053-14.7719" fill="none"/><path d="m255.633 406.6067c-2.0831-5.8544 2.2315-11.274 5.3763-16.7733 3.2503-.1236 5.8093-2.2922 9.9608.2507" fill="none"/><path d="m262.7953 389.597c-4.0153-1.8992-1.2394-7.0012.7164-11.1615" fill="none"/><path d="m260.6555 390.3245c-4.0805-2.6054-11.5689 3.8694-15.9075 4.0694-3.5274 6.0961-9.0811 12.3329-6.2481 17.3379" fill="none"/><path d="m235.9884 413.0198c-9.123-1.4974-11.5442 1.2791-17.0283.8095-2.6222 5.7576-6.464 12.1924-5.6825 16.0596" fill="none"/><path d="m212.3318 431.5118c-4.2927-2.5907-5.8081-2.8169-14.2126-4.1802-.8915 4.3581-5.4633 6.1298-1.6908 14.2895" fill="none"/><path d="m211.7313 442.9297c-7.3209.4738-12.7243-1.6842-17.3996-.8422" fill="none"/><path d="m246.3629 393.7312c-3.2374-4.5163.5826-12.683 3.3603-19.7962 2.5952-.5468 6.4291-.5221 11.401.3241" fill="none"/><path d="m220.8766 413.8008c.5911-5.1766 2.3089-11.2389 5.6031-17.1317 5.6905-1.2355 11.4729-3.6916 17.6155-1.2219" fill="none"/><path d="m196.5948 430.5326c-2.8386-2.539 1.1448-11.1917 3.7707-17.7003 6.5543-1.1896 12.6995-.1376 17.9851 2.0872" fill="none"/><path d="m195.5133 427.1189c-4.6686-.2855-9.5514-.6005-13.3396 2.7137" fill="none"/><path d="m251.0785 373.6806c-.2627-2.031-.356-4.4917.5207-6.7285" fill="none"/><path d="m249.9953 373.9712c-6.4432-2.0218-11.7628 1.2119-16.1998 1.4744-2.6552 4.3834-3.6632 9.9614-6.4177 20.805" fill="none"/><path d="m227.7315 394.1764c-8.5127-1.0622-12.6888 1.1934-17.6761 2.7263-1.7679 2.7999-6.2701 6.477-8.0909 15.4697" fill="none"/><path d="m200.3 412.8397c-4.7275-2.191-10.4852.0483-15.4606-.192-4.173 4.4138-3.1281 10.8596-5.461 13.7022" fill="none"/><path d="m242.0902 357.8274c-1.3156-.2283-2.9877-.7223-3.7279-.2045-.1202 6.5221-6.188 13.6681-3.9866 17.7178-6.7814-2.058-11.5514 2.3112-17.7939 1.8477-1.1077 4.2175-6.3775 14.2457-4.3548 18.9353" fill="none"/><path d="m208.7482 398.4856c-6.6025-2.9961-11.8005-1.8517-16.3892-2.9985-2.1163 4.6534-8.8758 10.6386-6.1089 17.1824" fill="none"/><path d="m185.8109 411.5021c-6.9822-2.4396-10.6313-.9001-14.9309-1.3747" fill="none"/><path d="m238.1045 359.5047c-7.1241-1.7355-11.4243.9568-15.6835 1.5104-.9408 4.0367-6.7358 13.6654-4.5126 16.1054" fill="none"/><path d="m216.1465 378.2068c-6.9254-2.6469-11.2615-.3543-15.982-1.7254-2.4747 6.2608-8.7061 13.9321-6.6958 19.178" fill="none"/><path d="m191.6266 396.5296c-5.9639-3.7714-10.5289-1.5928-15.4128-1.7135-4.7569 4.3096-7.2257 9.1691-7.1135 13.0535" fill="none"/><path d="m223.4347 360.7466c-3.8568-3.3723-.3602-8.6885.7496-13.3766" fill="none"/><path d="m222.2305 360.4517c-6.6401-2.9832-10.3996.2742-15.3017 1.0559-2.4934 5.0994-6.465 10.8672-5.4304 15.1203" fill="none"/><path d="m199.0763 378.5529c-8.1277-2.5171-11.979 1.8807-19.4456 1.3817-1.1759 5.1674-5.4024 9.8534-4.4285 15.8244" fill="none"/><path d="m174.1521 396.6873c-3.9998-3.0557-7.5686-3.8378-10.6237-4.0984" fill="none"/><path d="m207.7468 361.1899c-1.8113-5.326 2.863-13.1668 4.8341-19.5802" fill="none"/><path d="m206.4105 362.326c-5.0931-1.9914-11.3485.1367-18.5188.1434-2.0236 6.0017-6.4393 10.9185-6.7494 17.4138" fill="none"/><path d="m179.2046 380.8917c-4.4222-1.9442-8.7889-2.0876-13.2291-1.5652-1.6446 1.0814-2.531 2.2882-2.7252 3.5628" fill="none"/><path d="m189.7676 362.3879c1.3121-7.6734 3.5308-11.5634 5.8343-16.5151 5.0203-.3907 8.9643-1.4314 15.8236-.9389" fill="none"/><path d="m186.5893 365.3985c-7.3268-1.2835-13.5756.9573-16.1901-.2814-2.9246 4.8649-6.5357 10.0235-5.5768 15.0613" fill="none"/><path d="m196.7259 345.6352c-2.2193-4.2805-.0609-9.0596.7425-13.264" fill="none"/><path d="m194.8124 347.3819c-10.1552-1.7955-10.7445-.3668-16.0295-.5209-1.5027 7.5129-7.0858 10.8138-7.6181 18.4299" fill="none"/><path d="m169.9248 365.8067c-4.3384-2.9749-8.2677-2.5933-12.1286-1.6558" fill="none"/><path d="m181.7425 346.5825c2.8466-5.4612 4.5509-10.9422 5.5301-16.2939" fill="none"/><path d="m178.3735 348.508c-4.5138.262-8.9805-.3099-12.5518-1.3554-3.1873 5.3902-5.4894 7.8188-7.9787 10.9463" fill="none"/><path d="m186.6524 333.3009c-5.104.5586-11.9113-.7552-15.3731 1.9324-2.7624 4.0295-3.771 8.4066-4.2563 12.0249" fill="none"/><path d="m172.1163 334.5852c-2.1441-3.0587-2.5666-5.5724-1.5337-7.853" fill="none"/><path d="m170.7781 335.9425c-4.3584-1.9184-7.9156-2.9556-10.0104-2.782" fill="none"/><path d="m165.2268 348.0951c-2.6513-2.2588-5.0723-2.8945-7.3384-3.0241" fill="none"/><path d="m219.3699 400.1112c-2.6112 1.7728-3.0114 2.6002-3.8558 4.349-1.622.4258-3.3357 1.4355-5.0113 2.6702" fill="none"/><path d="m235.7744 400.5608c-2.1908 1.4447-2.4813 2.1866-3.0939 3.7546-1.4158.2649-2.8661 1.0693-4.264 2.0872" fill="none"/><path d="m228.5735 418.2838c-2.1894.861-2.5602 1.5012-3.3421 2.855-1.3175-.0831-2.7446.3413-4.1557.9825" fill="none"/><path d="m251.7814 397.9921c-1.9823 1.7229-2.1708 2.495-2.5682 4.1268-1.3713.4526-2.704 1.4431-3.9558 2.6373" fill="none"/><path d="m244.8182 416.0912c-1.9807 1.2808-2.2162 1.9799-2.7128 3.4574-1.313.1846-2.6315.8862-3.8904 1.7958" fill="none"/><path d="m262.5157 410.3317c-2.1034 1.0609-2.413 1.7318-3.0659 3.1505-1.3221.0411-2.706.5968-4.0535 1.3664" fill="none"/><path d="m239.3953 431.62c-1.4901 1.2372-1.5639 1.8954-1.7194 3.286-1.1127.1997-2.133.8826-3.0619 1.7584" fill="none"/><path d="m257.1964 427.6624c-2.2413 1.317-2.3665 2.2567-2.6305 4.2423-1.6572-.0783-3.1881.5821-4.5883 1.5561" fill="none"/><path d="m236.8503 448.9821c-.8932 1.7146-.7019 2.343-.2973 3.6701-.953.6211-1.3952-.0655-1.9109 1.0985" fill="none"/><path d="m252.9073 442.6463c-1.49 1.2372-1.5638 1.8955-1.7192 3.286-1.1128.1998-2.1331.8825-3.062 1.7584" fill="none"/><path d="m270.117 428.7365c-1.0199-.4564-2.4558-.3516-3.7049-.1372" fill="none"/><path d="m274.3632 410.3988c-1.1129.1995-2.305.8849-3.2341 1.7606" fill="none"/><path d="m266.9598 393.6084c-1.2878.8098-1.3383 1.382-1.4434 2.5926-.9787-.0419-1.8643.3659-2.665.9637" fill="none"/><path d="m221.4078 433.402c-1.4976 1.3456-1.563 2.0204-1.6997 3.4467-1.13.2664-2.1583 1.02-3.0905 1.9653" fill="none"/><path d="m218.4818 447.7409c-1.0403.9888-.9999 1.5812-.9135 2.8334-.8892.0786-1.627.6058-2.2598 1.3171" fill="none"/><path d="m203.5941 447.4669c-1.4976 1.3455-1.4942 2.1501-1.631 3.5762" fill="none"/><path d="m203.8388 432.6552c-1.2878.8099-1.3383 1.3821-1.4433 2.5926-.9787-.0419-1.8644.3658-2.6651.9638" fill="none"/><path d="m208.2003 417.0312c-1.8123 1.1223-2.0065 1.782-2.4157 3.1764-1.2273.1044-2.4396.7063-3.5879 1.5117" fill="none"/><path d="m186.7254 431.4172c-1.4977 1.3456-2.2421 2.3131-2.3786 3.7396" fill="none"/><path d="m256.5541 378.2299c-1.4077.5679-1.5603 1.1236-1.8809 2.3005-.9513-.2174-1.8926.0255-2.7847.4719" fill="none"/><path d="m242.154 379.2827c-2.1909 1.4447-2.4813 2.1867-3.0939 3.7547-1.4159.2649-2.8662 1.0692-4.264 2.0872" fill="none"/><path d="m245.5922 363.3464c-1.1153.3397-1.1756.8237-1.3017 1.8488-.8272-.3145-1.5897-.2108-2.2858.0828" fill="none"/><path d="m192.1489 416.8157c-1.8122 1.1224-2.0065 1.782-2.4157 3.1764-1.2272.1044-2.4395.7064-3.5879 1.5117" fill="none"/><path d="m225.4928 381.4107c-2.1908 1.4447-2.4812 2.1866-3.0937 3.7547-1.4159.2648-2.8662 1.0692-4.264 2.0872" fill="none"/><path d="m206.5272 382.7892c-1.9805 1.2808-2.2161 1.9798-2.7128 3.4574-1.3129.1845-2.6314.8862-3.8904 1.7958" fill="none"/><path d="m198.8314 401.5104c-1.8047.8824-2.0551 1.5163-2.5836 2.8562-1.1527-.0579-2.3443.3835-3.4976 1.0368" fill="none"/><path d="m174.5958 415.5983c-1.8781.7046-2.4294 1.7963-3.0819 3.0839" fill="none"/><path d="m182.5063 400.2623c-2.0065.7005-2.3403 1.3044-3.0449 2.581-1.2141-.168-2.5237.1547-3.8157.691" fill="none"/><path d="m188.6096 382.8406c-2.1908 1.4448-2.4812 2.1867-3.0937 3.7547-1.4159.2649-2.8661 1.0693-4.264 2.0873" fill="none"/><path d="m214.3315 365.2108c-1.8122 1.1225-2.0064 1.7821-2.4157 3.1765-1.2272.1045-2.4395.7064-3.5878 1.5118" fill="none"/><path d="m230.0729 364.7642c-1.5209 1.3192-1.5983 1.9929-1.7602 3.4171-1.134.2466-2.1751.9821-3.1236 1.911" fill="none"/><path d="m232.3844 351.8723c-1.1341.2464-2.1946 1.0546-3.1431 1.9834" fill="none"/><path d="m197.0484 366.9185c-2.1908 1.4448-2.4812 2.1866-3.0939 3.7547-1.4158.2649-2.866 1.0692-4.2639 2.0873" fill="none"/><path d="m203.2474 349.1354c-1.4392 1.1792-1.5474 1.854-1.7748 3.2807-1.0309.1317-2.0066.7687-2.9106 1.6117" fill="none"/><path d="m186.5154 351.7571c-1.8124 1.1224-2.0066 1.7821-2.4157 3.1766-1.2272.1044-2.4396.7062-3.5879 1.5116" fill="none"/><path d="m177.4327 370.1557c-1.9657.8133-2.2651 1.4343-2.8961 2.7479-1.2234-.0983-2.5139.2982-3.775.9067" fill="none"/><path d="m172.8525 383.9168c-1.9657.8134-2.265 1.4345-2.8961 2.7479-1.2233-.0982-2.5138.2984-3.7748.9069" fill="none"/><path d="m205.5467 335.5765c-.9091.7328-1.5315 1.9254-1.9632 3.175" fill="none"/><path d="m193.5235 332.9466c-1.0202.8523-1.0162 1.4397-1.0067 2.6816-.8288-.026-1.5428.4069-2.1696 1.0337" fill="none"/><path d="m170.7718 353.2906c-1.7584.5837-2.1037 1.1783-2.833 2.4358-1-.2514-2.133-.008-3.2747.4547" fill="none"/><path d="m160.4123 371.0822c-1.9707.3329-2.8857 1.6847-3.7733 2.8249" fill="none"/><path d="m177.6947 337.411c-1.3321.7479-1.4001 1.3094-1.5432 2.496-.9928-.0784-1.9045.289-2.7355.8469" fill="none"/><path d="m218.0879 344.8003c-.6444.9771-.3769 1.3782.1896 2.2259-.8454.3014-1.3692.8734-1.7186 1.5444" fill="none"/><path d="m272.3831 457.6587-6.826 6.7996c-1.0376-6.199-7.8451-14.0629-10.7693-17.4697-.0494-2.7859 3.0773-5.9609 5.7498-5.7415 4.3808 4.3979 9.1107 10.3477 11.8427 16.4089z" fill="#c87137" fill-rule="evenodd"/></g><g><path d="m404.4649 451.3187c-2.6555-3.6454-4.7595-7.2387-6.0866-10.7156l-22.7574-40.9201-26.5795-6.4361-21.6355 47.9641c-.9046 6.6134 4.6344 11.4409 5.7081 13.6103 2.8533 2.1874 22.6278 16.4287 26.9864 20.9856 4.3027 4.4981 8.8003 3.5711 12.8742 8.1515z" fill="#ffb380" fill-rule="evenodd"/><path d="m373.1354 383.5263c-3.8562-9.8633-8.5536-25.4011-1.8156-34.8589 8.9512 12.0596 6.4922 20.8063 1.8156 34.8589z" fill="#008f4c"/><path d="m372.8945 386.4207c.5495-5.2326-.1124-29.1779-1.5747-37.7533" fill="none"/><path d="m414.1072 351.9993c14.069-3.7849 22.576-3.8455 37.4317 2.0062-12.4902 4.3334-24.286 4.5218-37.4317-2.0062z" fill="#008f4c"/><path d="m398.4249 360.9285c17.5799-3.493 22.5307-4.8662 40.1638 1.6175-15.6989 4.1063-24.688 5.5143-40.1638-1.6175z" fill="#008f4c"/><path d="m398.4249 360.9285c2.9781.0967 34.6509 2.0179 40.1638 1.6175" fill="none"/><path d="m408.219 369.0215c-4.036-.0711-7.2842-2.1003-7.2548-4.5323.0293-2.4321 3.3245-4.3462 7.3605-4.2751 4.0349.071 7.2841 2.1003 7.2547 4.5323-.0293 2.432-3.3245 4.3461-7.3604 4.2751z"/><path d="m379.6299 374.7324c14.6918-1.2696 23.9652-9.8647 43.0595-3.5205-15.2891 8.7785-27.0612 7.7486-43.0595 3.5205z" fill="#008f4c"/><path d="m363.7712 334.8631s-5.9075 14.7437-6.2679 19.2067c-.3638 4.5051 3.5373 9.621 3.5373 9.621s3.6763-5.137 4.515-9.9267c.8352-4.7722-1.7845-18.9009-1.7845-18.9009z" fill="#008f4c"/><path d="m333.7645 367.9357s18.9967 3.9499 22.9642 6.0251c4.005 2.0948 6.2522 8.1232 6.2522 8.1232s-6.306.3703-10.8051-1.4746c-4.4824-1.8384-18.4113-12.6737-18.4113-12.6737z" fill="#008f4c"/><path d="m333.7645 367.9357c2.7419.4767 24.8661 10.7688 31.5191 15.5699" fill="none"/><path d="m328.3949 342.1928s15.6226 2.8655 19.5901 4.9407c4.0051 2.0948 6.2522 8.1231 6.2522 8.1231s-6.306.3703-10.8051-1.4746c-4.4823-1.8384-15.0372-11.5893-15.0372-11.5893z" fill="#008f4c"/><path d="m328.3949 342.1928c2.7419.4767 21.492 9.6843 28.145 14.4855" fill="none"/><path d="m369.0681 389.5658s8.1751-5.793 16.8005-6.6349c8.4705-.8268 20.2479.7107 20.2479.7107s-10.6312 5.3529-18.0776 7.5346c-7.355 2.1549-18.9708-1.6103-18.9708-1.6103z" fill="#008f4c"/><path d="m369.2415 386.974c-2.8673-15.603-10.158-33.9862-26.4138-48.0508 12.6319 16.2724 18.4825 33.104 21.6145 53.8538z" fill="#008f4c"/><path d="m364.2898 390.1784c3.1426-.5073 36.2738-5.0694 41.8266-6.5369" fill="none"/><path d="m388.0616 337.7878s3.4068 14.1025 1.9487 20.3873-8.0085 17.6229-8.0085 17.6229-3.2442-9.3062-2.313-15.8973c.937-6.6329 8.3727-22.1129 8.3727-22.1129z" fill="#008f4c"/><path d="m380.5238 374.9876c15.8359 1.25 32.849-1.4265 42.1655-3.7758" fill="none"/><path d="m425.696 345.6719c5.8913-5.6277 10.4174-5.2056 14.1721-9.7441 1.2582-1.5208 4.4513-10.9697 4.4513-10.9697-11.0896 5.8242-17.369 11.736-18.6233 20.7137z" fill="#008f4c"/><path d="m429.4685 344.0957c13.536-5.3888 21.9787-6.4342 37.4121-2.3424-11.9043 5.7508-23.5989 7.3041-37.4121 2.3424z" fill="#008f4c"/><path d="m426.2608 344.8465c2.7329-5.8982 12.1436-13.3925 18.0585-19.8883" fill="none"/><path d="m407.4074 353.1391s5.9568-20.4934 16.5437-28.1808c3.4454 9.6666-2.8705 25.1299-16.5437 28.1808z" fill="#008f4c"/><path d="m394.9765 364.0512c-.999-10.5431-1.2485-26.7735 7.828-34.0171 5.295 14.0542.5283 21.7893-7.828 34.0171z" fill="#008f4c"/><path d="m423.951 324.9583c-3.2742 8.0754-9.9786 23.5051-18.2629 30.0305" fill="none"/><path d="m429.4684 344.0957c2.421-.2582 33.038-1.3133 37.4121-2.3424" fill="none"/><path d="m414.1071 351.9993c2.4346.0239 32.9678 2.5218 37.4317 2.0062" fill="none"/><path d="m388.0616 337.7878c.2935 2.9668-2.5247 24.4503-6.0593 37.8025" fill="none"/><path d="m393.9499 366.7681c1.9654-4.8805 7.9054-28.0867 8.8545-36.734" fill="none"/><path d="m324.9583 473.3719c17.6838-61.6685 48.3808-116.5362 131.2232-140.5365-75.7407 31.2749-106.9408 77.5312-125.7157 142.8128z" fill="#008f4c"/><path d="m360.1283 366.7258s-16.4862-12.7531-26.2239-10.4773c2.16 8.8334 15.1458 13.6775 26.2239 10.4773z" fill="#008f4c"/><path d="m333.9044 356.2485c8.2919 4.046 18.703 10.6411 28.7093 10.9498" fill="none"/><path d="m449.4913 335.0939c13.8036 1.2621 18.9662-4.9966 24.4671-10.1356-9.8844 0-18.1909.4264-24.4671 10.1356z" fill="#008f4c"/><path d="m449.4912 335.0939c2.4765-.1912 17.0264-7.2958 24.4671-10.1356" fill="none"/><path d="m363.7712 334.8631c-1.0591 2.5736-3.2694 23.3453-2.7561 31.5338" fill="none"/><path d="m346.5335 342.8474c-10.2402-4.702-11.3065-11.6583-13.0707-17.8891 0 0 11.6793 2.9759 13.0707 17.8891z" fill="#008f4c"/><path d="m346.5335 342.8474c-1.6657-1.1661-8.9962-12.6361-13.0707-17.8891" fill="none"/><path d="m353.943 351.6454c-5.5456-9.7238-6.6015-15.754-2.3029-26.6872 5.9268 8.5668 7.4987 16.9212 2.3029 26.6872z" fill="#008f4c"/><path d="m353.943 351.6455c-.2597-1.7286-1.2499-23.5557-2.3029-26.6872" fill="none"/><path d="m389.5923 384.7177c-4.036-.0711-7.2842-2.1003-7.2548-4.5323.0293-2.4321 3.3245-4.3462 7.3605-4.2751 4.0349.0709 7.2841 2.1003 7.2547 4.5323-.0293 2.432-3.3245 4.3461-7.3604 4.2751z"/><path d="m427.967 340.7288c-1.2499 3.8382-4.1413 6.3498-6.4581 5.6094-2.317-.7403-3.1821-4.4516-1.9322-8.2898 1.2496-3.8372 4.1413-6.3497 6.4582-5.6093 2.3168.7402 3.182 4.4515 1.9321 8.2897z"/><path d="m369.8417 364.5367c-.7148 3.9729-3.2367 6.8552-5.6329 6.4378s-3.7594-3.976-3.0446-7.9488c.7144-3.9718 3.2367-6.8551 5.6328-6.4377s3.7594 3.9759 3.0447 7.9487z"/><path d="m345.8763 450.6815c8.5283 3.4916 11.1641-7.4872 4.6307-10.3243-10.6809-4.6381-12.644-5.2572-19.1227-11.9465-5.1026-5.2683-9.2517 9.3579-3.9782 12.8003 6.9728 4.5516 10.3256 6.1359 18.4702 9.4705z" fill="#ffb380"/><path d="m352.3725 441.802c8.5283 3.4915 11.2909-7.7988 4.6308-10.3243-21.5796-8.1826-17.587-9.934-23.5359-17.5377-4.5199-5.7771-8.9612 7.2803-5.2035 12.3365 6.0112 8.0882 15.964 12.1909 24.1086 15.5255z" fill="#ffb380"/><path d="m356.6631 431.3966c8.4818 3.6031 11.05-7.7522 4.6675-10.9142-20.7833-10.2965-15.5092-7.5768-23.1583-18.0481-4.3269-5.9234-13.2827.7412-5.3015 13.089 6.2871 9.727 6.7399 8.6295 23.7922 15.8733z" fill="#ffb380"/><path d="m360.4179 419.9532c8.0684 4.4523 11.6182-6.9266 5.4025-10.4051-16.5409-9.2568-16.7573-10.3858-24.4054-19.8621-2.3325-2.8901-9.6676 4.4808-4.4065 12.6815 8.2332 12.8336 9.2537 9.7742 23.4094 17.5857z" fill="#ffb380"/><path d="m398.3783 440.6032c1.9852-17.7066.009-25.2393-10.7915-37.4902-6.3536-7.2078-13.7189-17.2101-23.536-19.3426-3.7566-.816-7.0511 1.8934-10.8701 1.3304-8.4758-1.2495-12.1381-1.997-12.8855-.9013-4.6933 9.2596 5.5458 15.7713 18.6118 15.8799 1.7935 4.0912 7.3847 9.7379 11.4521 13.3427-7.3941 11.4677-3.912 21.5635 2.7472 31.4936" fill="#ffb380"/><path d="m349.4711 384.5519c.7938 2.6695-.5419 4.6645-.728 5.7239-4.3189-.2349-5.3362.3607-6.7302-1.54-1.2474-1.7384-1.1135-3.2446-.8295-5.017 2.2215-.1728 5.6663.3976 8.2877.8331z" fill="#e5e5e5"/><path d="m363.5707 396.4828c-.2301 2.3779-3.2117 3.5682-4.6636 3.5966" fill="none"/><path d="m367.7316 415.5178c.3072 2.5821-1.7582 3.5252-3.0774 3.9747-3.2143-.8732-4.5286-2.4781-5.0367-3.76.5501-1.4577 1.8977-3.8282 3.2758-3.8143 1.9091.6832 3.3563 2.0351 4.8383 3.5996z" fill="#e5e5e5"/><path d="m363.5862 426.7853c.6433 2.5907-1.2664 3.8028-2.5064 4.4214-3.2808-.4963-4.7869-1.9695-5.4565-3.212.3495-1.5508 1.3639-4.1282 2.723-4.2824 1.9701.463 3.5738 1.6616 5.2399 3.073z" fill="#e5e5e5"/><path d="m359.5528 437.4421c.8904 2.4792-.8724 3.7732-2.0335 4.4496-3.2835-.2837-4.914-1.6241-5.697-2.7916.191-1.5286.9363-4.0953 2.2608-4.3275 1.988.3308 3.6874 1.3992 5.4697 2.6695z" fill="#e5e5e5"/><path d="m352.6568 446.1963c.72 2.0993-.698 3.297-1.632 3.9342-2.6445-.0943-3.9592-1.1768-4.5912-2.1486.1521-1.3282.7491-3.578 1.8154-3.8392 1.6014.1945 2.9714 1.0383 4.4079 2.0536z" fill="#e5e5e5"/></g></g><path d="m1.5 300 298.5 298.5 298.5-298.5-298.5-298.5z" fill="none" stroke="#000" stroke-linecap="round" stroke-linejoin="round" stroke-width="3"/></svg>