<?xml version="1.0" encoding="utf-8"?><!DOCTYPE svg PUBLIC "-//W3C//DTD SVG 1.1//EN" "http://www.w3.org/Graphics/SVG/1.1/DTD/svg11.dtd"><svg viewBox="0 0 600 600" xmlns="http://www.w3.org/2000/svg"><path d="m.5 300 299.5 299.5 299.5-299.5-299.5-299.5z" fill="#e5e5e5" stroke="#000" stroke-linecap="round" stroke-linejoin="round"/><g stroke="#000" stroke-linecap="round" stroke-linejoin="round"><path d="m300 449.981c-46.7703 0-93.5399 5.7967-135.7481 13.771l135.7481 135.748 135.7481-135.748c-42.2082-7.9743-88.9778-13.771-135.7481-13.771z" fill="#c87137"/><path d="m173 272.6032 100.174 44.4865 23.3345 27.5059h13.1722l30.0214-21.5352 87.2979-42.9328-32.3803-107.4724-116.3181-48.0596-97.223 89.4073z" fill="#008f4c"/><path d="m277.6295 293.1027c-3.656.7077-9.2354 9.115-5.1296 11.469 4.1051 2.3535-.5367 3.2477 2.1089 7.9832 2.846 5.0939.4537 9.9116-3.5743 16.5416-1.3392 2.2044-7.9906-2.1785-6.8078 3.023 1.0875 4.7835-2.6481-.3412-3.62 1.4496-2.823 5.2003-7.1365.009-9.3311 2.6373-3.4364 4.1136-2.9022 2.287-6.5202 2.2853-4.9881-.002-6.6926 7.8131-12.837 6.6754-3.944-.7303-6.6367 8.7292-9.6347 3.1582-3.1279-5.8122-4.6482 4.7704-8.7244 4.7704-.5845 0-1.2074-.3904-1.8916-1.093-2.1068-2.1635-6.3871 1.093-8.9109 1.093-.8154 0-1.0013-1.1261-.0705-3.3581 3.0603-7.3325-7.3645.9891-7.6-1.0496-.2976-2.5734 3.8364-8.0462-1.3483-3.8726-2.1844 1.7589-3.2676-5.3108-4.8959.5523-1.4311 5.1523-8.2332-1.8363-8.4946-1.5151-4.7537 5.8374-10.1229 3.2987-8.1881-2.6438.7142-2.193-7.2937 9.4052-7.575 3.8919-.2562-5.0181-1.2388-1.0819-4.0186-.6885-5.2063.7368 3.5902-11.9038-1.6142-5.3085-4.8991 6.2082-6.6533-3.2917-2.1036-6.4462 2.5996-1.8024 1.2859-1.61-.1593-3.663-1.7323-2.4592 2.947-4.609-1.3569-2.1183-4.652 2.6923-1.384-1.9686-1.7309-5.1214-.4901-4.4532-6.5714 5.5674-7.8753-.2172-1.4711-6.5279-9.4847 9.0986-8.179.0665.5672-3.9243-1.5175-8.8223 5.5173-9.672 4.9035-.5923 7.5634-10.1105 2.9172-8.3734-3.4569 1.2926-2.3334 5.7342-4.5713 2.2135-2.0311-3.1951-.7702 3.8214-6.2083 2.657-3.5563-.7615-4.7016-4.4219-4.7016-7.2759 0-3.8939 7.3659-3.6067 5.9559-8.2981-.9458-3.1478 7.6314-1.5249 7.9565-6.1294.349-4.94 5.9275-1.706 2.7855-7.677-2.2822-4.3378-2.6984-1.8268-5.912-3.941-3.6548-2.4044 13.38-2.5544 6.6817-5.6411-5.8979-2.7179 5.275-3.742 6.2629-8.6091 1.0336-5.0934 9.5225 2.1308 11.9262.2448 1.153-.9049-.284-2.4481-.0478-3.7625" fill="#008f4c" fill-rule="evenodd"/><path d="m175.1293 266.7131c-1.3025-1.6337-4.0009 2.8198-6.1618-.1449-2.9336-4.0243-3.9963 5.616-8.1933 3.1374-2.3807-1.406-.1524-4.429-4.8434-2.4276-5.0054 2.1359 2.8442-3.1695-3.0894-1.571-5.5946 1.5071.5624-4.5416-6.1596-2.9187-2.5596.6179 2.3366-4.7085-3.2103-4.4291-6.3705.3208-.0364-4.9636-5.6884-5.0408-6.9661-.095 5.1524-5.577-2.0986-4.3345-5.0001.8568-2.8296-.9285-2.9736-3.204-.0819-1.2796-2.2106-2.9167-2.2106-4.6751 0-1.9437.6421-2.8342 2.5851-3.4459 1.6661-.5244 3.9938-3.7656 2.2918-4.1929-4.7451-1.1911 2.5764-3.8031.1615-4.8503-5.7157-2.4789 6.9174-4.3182 1.2898-5.0106-5.9114-.7273-6.3284-2.3581-6.3284-3.9346 0-2.0649 13.5521-2.6934 6.4813-3.5524-6.4094-.7787 1.6902-3.4254 5.5171-2.9463 4.5105.5647 7.1163-1.37 5.1731-2.6513-2.5709-1.6953 2.4991-1.2291 4.9854-1.9441 2.8069-.8072-3.4078-1.6783-2.8658-2.9293.9674-2.2309 5.4452-3.1872.1706-3.8063-6.4269-.7543 3.9906-2.5158 6.1329-3.4108 4.3219-1.8054 3.5274 2.5237 8.4147 3.0113 3.2018.3195 7.0285-2.9319 1.3722-1.9171-4.0691.7301 4.6787-3.3616-2.0513-2.8311-3.1998.2523-1.3603-4.3423 2.9352-3.5884 3.3493.5877-.1001-3.6791 4.0885-1.7364 2.5384 1.1772 3.4762.7126 6.6685-.0749 2.4308-.5998 2.2615 3.295 6.5479 2.3722 3.5074-.755 2.9623 1.2975 2.626 3.3327-.2207 1.3367 1.872 2.1134 3.188-.0301 1.2812-2.0857.8172-4.1988 2.317-4.0184 5.2397.6304 1.9394-2.3974 3.7568-2.8976 3.2671-.8992 3.6639 6.2483 5.8087 2.0822" fill="#008f4c" fill-rule="evenodd"/><path d="m317.2136 160.4553c-2.967-1.1173 5.2823-4.1432-.2375-6.0191-7.1707-2.4368 10.1391-4.5404 5.7459-8.3257-2.8283-2.4368-8.0846.3129-4.3945-4.5077 3.8824-5.0723-6.4867 4.2854-3.547-1.6868 2.7637-5.6147-13.6178 8.883-10.5506 1.9642 1.0875-2.4537-1.1471-8.6043-.6125-14.0756.6111-6.2568-10.4785-.0693-10.593-5.5934-.1411-6.814-10.1591 5.5492-7.8762-1.6366 1.5933-5.0157-1.6268-2.683-5.816-2.6033-2.1389.0408-3.3921-1.8746-5.5992-1.8746-.7451 0-1.26.7257-1.432 2.7106-.6204 7.1543-6.3921-1.6206-7.7458.316-1.525 2.1817-.3599 8.0914-3.3029 3.5553-1.1863-1.8283-5.0563 6.7975-3.443.8128 1.2652-4.6952-5.3637.888-5.419.6254-1.2882-6.124-8.1984-3.8198-9.1239 1.7469-.3247 1.9538-1.1665-7.5802-4.4559-2.1866-2.4224 3.9719-1.1931 1.341-3.9561.2222-4.7126-1.9078-2.9589 11.8701-4.4937 5.0094-1.3854-6.1901-7.6767 2.9383-5.2086 6.3117 1.1949 1.6336.1866-.2277-2.6547 1.4545-3.1732 1.8786.5415 4.3079-2.9081 1.6774-3.2048-2.4436-2.3129 2.6894-3.5602 5.0692-1.5988 3.0505-3.3377-3.0895-5.3171-2.5233-3.8733 1.1081 3.4132 6.9048-2.2804 5.3801-4.447-1.1909-2.8091 1.337-4.447 3.5203-3.3065 4.4064-2.0511.4685-1.171 5.2908.5693 3.1187-4.83 5.7975-4.3872-.1914.3927-5.3187-7.6136 1.0252-4.678 4.4051 2.0711 2.3847-4.8409.8536-6.4187 4.3482-1.0921 2.4175 6.0435 1.7495 4.2851 6.1816-1.348 3.3982-1.5439 6.2095 2.1221 5.6897 2.252-.3194.3367 1.6641-3.4769 3.1246-3.5286 1.3514-7.6582 1.1371-7.3217 2.6563 1.1221 5.0642-4.2835 1.9579-5.2891 3.9582-1.5776 3.1388 11.3638 2.98 3.7618 5.4865-6.5661 2.1649 3.3067 3.5219 1.6434 8.8455-1.3301 4.2573 11.0339-1.5147 11.2275 1.2796.0387.5665-2.4708 9.0351 3.1655 5.9114 2.8187-1.5621 2.9247 5.1957 2.7448 5.7423" fill="#008f4c" fill-rule="evenodd"/><path d="m395.7304 201.142c-1.1872-2.4016 6.5027 1.0397 4.1119-3.3898-2.9914-5.5431 9.9543 3.0901 9.7402-1.0073-.1752-3.3666-6.8594-2.0706-.8971-2.4385 6.1132-.3772-6.0699-1.833.1411-3.2751 5.8151-1.35-5.5485-7.0047 1.7155-8.962 2.5459-.686-7.6776-3.7156-3.4414-6.3422 4.85-3.0073-4.2266-6.8307-.3825-9.8808 4.7385-3.7593-10.6915-3.1757-4.0944-5.6587 4.6545-1.7518.7176-2.5212-2.0351-4.9309-2.2358-1.9575-.9888-6.5381-5.2845-3.8122-5.4934 3.4863-2.9543-4.7664-5.3924-4.5269-2.4592.2415-5.9314 3.9825-4.726-.0852.5583-1.8847-7.7231-.8042-2.2508-3.1183 4.1975-1.7751-6.4826-4.838-6.3339-5.0128 3.4835-4.0835-2.7586-7.0289-7.3267-4.5898-1.6067.8579 5.9168-6.4479-.3472-5.4964-4.2823.6505-1.9064-.3436-2.798-2.2784-1.8447-4.0026-10.3438 4.5463-6.5516-.0301 3.5293-4.2581-6.8499-3.6612-7.6284-.2003-.3322 1.4778-.5074 1.6788-3.8789.7891-2.9222-.771-2.7277 2.3828-3.1304-.8587-.4318-3.475-3.2888.016-5.9716.576-3.7989.7936-.3078-3.8316-1.7576-4.5847-2.9275-1.5207-7.8587-.5209-4.9997-3.9124 1.1833-1.4036.9148-2.0201-.0774-2.0201-2.6158 0-6.8171 1.534-8.5774 1.6568-5.3348.3723.7588 4.5259-2.0078 7.5867-2.0356 2.2522-8.9366.7049-3.4164-1.2935 3.6755-1.3304-7.7654-.9712-2.1999-4.0542 1.9855-1.0998-1.1833-3.8959-4.3233-3.8959-.9435 0-1.7988.8719-2.3268 1.6658-1.5435 2.3209-3.6892-2.2612-4.1315 2.0918-.2505 2.4662-1.4425.5399-5.6945 1.6573-2.9768.7823 3.0214 4.5372-1.5257 5.9328-3.2879 1.009-.1524 3.0926 2.4431 4.8841 1.7016 1.1739 1.5705 3.2754-2.2624 1.6433-2.7773-1.1826-5.7218-4.2645-6.7705-3.0058-2.9962 3.5968-3.7529-1.6527-6.3373-1.0718-3.2542.7315 5.5903 8.5565-1.3813 5.2413-5.7783-2.7477.3394 3.6624-5.1774 5.7662-4.2812 1.6327 8.4971 5.8222 6.5841 7.4988-.7595.6655-2.3343.1832-3.3602.5579" fill="#008f4c" fill-rule="evenodd"/><path d="m416.1136 272.5585c-2.6563-5.2705 5.4379-.7988 6.6986-8.2471 1.8618-11.0015 15.3711-4.194 16.49-4.1939 2.0454.0003 5.5748.1518 5.4588 2.5454-.2833 5.8285 5.7842 1.1242 9.0015 5.843 1.7901 2.6255-4.3829 5.1704 3.6542 5.4 7.339.2097-6.5063 1.968 1.1594 3.171 8.4632 1.3282-5.0513 4.7476 4.4835 6.4843 3.5145.6401-7.4011 3.5869-1.1089 6.4017 5.2859 2.3647 1.0272 5.0936 2.3054 7.9639 1.6486 3.7023 7.2758 4.9428.3065 5.8338-7.1377.9125 4.9376.7734 4.9376 3.7145 0 .9795-.6882 1.8058-2.3291 2.2379-5.2811 1.3906 2.5682 8.7861-6.2237 5.432-10.1916-3.888 1.7755 7.1784-6.2472 4.1577-3.4239-1.2891-6.5923-2.4704-3.5006.8334 1.5628 1.6701-8.5867 1.2629-1.4709 3.1622 6.5807 1.7564-4.695 5.2733-4.5599 5.3516 5.394 3.1267 2.4624 6.7524-4.9596 4.9022-4.1194-1.027 10.5422 5.184 2.3735 5.5127-4.4018.1771-5.0345-2.3536-2.8378 2.2087 1.6961 3.5231-11.5388-.9937-10.6771-.631 7.6557 3.2219 1.1446 6.1946-4.3767 3.1504-3.1306-1.726-3.7288-3.4412-7.8882-2.5219-4.9248 1.0885-3.0797-1.9596-2.9816 1.4769.1456 5.1441-10.6471-3.2603-6.5181 1.801 5.0038 6.1333-10.2417 1.2819-1.5471 6.1736 2.5236 1.4199 2.2185 2.3731.6416 2.3731-4.0926 0-9.3728-1.6211-11.5642-1.8359-5.5949-.5482-.675-4.659-5.8147-7.5952-3.694-2.1103-10.6123-.3655-2.7129 1.7067 3.4787.9126-8.9325 1.0964-1.0548 3.9817 2.1125.7737.2439 3.7426-2.887 3.7426-1.0909 0-2.2945-.1964-3.4553-1.0444-2.9018-2.1202-3.6719 1.0444-5.3694 1.0444-.5003 0-1.0477-.5763-1.748-1.7121-1.5904-2.5798-3.0053-2.4282-7.486-3.2863-2.9466-.5643.6352-4.5053-5.0659-5.918-7.7652-1.9242 5.3867-6.4338-1.1194-7.9075-2.6908-.6094-7.8696.8773-8.0061 2.177-.4407 4.1923-2.5741-.5692-5.0065.5826-2.2247 1.0534-2.2281 4.6558-3.8794.7661-1.1003-2.5914 2.193-6.2891-2.7896-3.2868-6.0808 3.6639-3.6726-3.6473-10.1625-5.7794-4.7303-1.5541 2.8929-5.3922 1.417-7.3502-.4041-.5363-7.2289.5198-9.3573-1.6024-2.353-2.3462-.4032-7.4788-1.2655-7.6786" fill="#008f4c" fill-rule="evenodd"/><path d="m378.8043 288.0213c-1.8959-2.2554 5.3375-1.1855 1.4736-5.1463-5.1967-5.3273 10.2214.3674 6.8483-4.4433-2.2044-3.1443-5.6816-3.5198-1.6372-5.7529 3.7609-2.0767-5.7935.2169-1.8697-3.3762 3.7083-3.396-6.2626-2.5332-2.3553-7.3257 1.8204-2.2327-13.9525.4702-12.3016-4.1444 1.7999-5.0313-5.5516-4.0466-4.007-9.5929.9799-3.5187-9.7812-3.3364-5.2882-8.5374 4.0466-4.6841-.0978-2.409-1.601-7.5719-1.2168-4.1768-4.6523 6.8511-6.8592.8321-1.0099-2.7545-2.4813-4.9543-4.0255-1.4641-1.3201 2.9832-1.0714 1.7963-2.6624-.9076-.7274-1.236-5.6226 1.1477-3.1425-2.0275 2.8619-3.6637-7.0708-3.6099-7.0453-3.7469.8236-4.4079-3.6025-7.3651-6.9438-3.205-1.7762 2.2113 2.6676-7.9369-2.8949-5.8721-2.8665 1.0639-1.7507 2.5979-3.5113-1.2451-1.7316-3.7806-6.4012 4.3902-6.0674 3.5927 2.0795-4.9668-4.4714-6.3366-5.1894-1.7376-1.1892 7.619-4.5217 5.761-5.8561 4.065-3.5429-4.503-6.0149 7.5883-7.4198.6488-1.0646-5.2573-7.238 1.9451-5.9382-4.5155 1.3021-6.4735-7.6555.0734-7.0974 2.1096 4.1517 15.1489-5.2586 7.6496-4.4648 4.5884.6257-2.4118-5.8774-4.9257-6.0322-.7581-.1388 3.7492-5.7758-2.5956-3.8521 2.6237 1.0052 2.7273-.2139 2.6109-1.9976 5.2201-1.8718 2.7382 3.5352 4.399 1.5071 7.3744-3.0412 4.462 10.076 4.0714 5.6725 7.2974-3.0653 2.2455-5.2948 1.4733-8.2966-1.5959-.8989-.9191-.0865 4.5427-3.964 1.4588" fill="#008f4c" fill-rule="evenodd"/><path d="m379.0397 199.6076c2.7778.7896 1.6879-4.6173 6.431-3.1078 6.6449 2.1147-.9137-7.1665 5.6056-7.1359 3.4144.0159 4.0905 3.8916 7.1015-.3558 3.2467-4.5798-.1001 4.3492 4.5508-.2067 4.394-4.304 3.5575 4.2881 8.8825-.6053 2.1457-1.9721 1.784 5.4691 7.2023 2.3071 6.2412-3.6423 7.5288 2.8642 13.38-.0392 7.2066-3.5759-.3581 7.7549 5.9812 2.8062 4.334-3.3832 3.7538-.6153 5.8765 1.3267 1.8813 1.7212 8.5148.5246 2.935 3.7328-7.1791 4.1278 5.0855 2.2169 3.866 3.7884-1.5332 1.976-8.2978 4.4983-1.9341 3.4446 2.4561-.4067-1.8722 5.3323 3.2995 1.5415 4.397-3.2229 3.8221 4.5736 4.1251 4.4597 7.1108-2.6704 8.4693 1.7672 3.114 5.1969-1.8975 1.2152 11.1055-4.1774 7.3841.0784-2.9832 3.4118 2.6592.3014 2.6592 2.9842 0 1.9441-9.5382.7333-3.5595 3.7611 2.1892 1.1088 3.5595 1.7055 3.5595 3.6841 0 1.8843-4.1365 1.5448-6.5962 1.8733-2.3637.3157-2.5143.3468-2.7648 2.8541-.3024 3.0282-4.9596 2.0431-.1797 2.2561 4.0352.1798-1.3854 2.3373-3.3795 4.3739-2.041 2.0843 4.9107-.4319 5.5232 1.1351 1.0159 2.5986-5.0193 5.3346 1.4079 4.929 6.8963-.4353-.0683 2.9585-1.4691 4.8927-2.8221 3.8989-5.917-.3923-11.2714 1.7069-3.5725 1.4006-4.5151 6.2798.2924 2.45 3.5772-2.8497-1.7153 5.4306 4.6031 1.4752 3.107-1.9449 5.2422 3.1981.1729 4.7788-3.9281 1.2248 3.3415 3.2667-2.6465 3.7148-3.646.2727-4.3426 1.3301-6.7554 3.5716-2.0028 1.8605-5.3143-1.7097-8.7967 1.3021-2.9884 2.5846-4.1793.3846-5.6345-1.6254-1.0234-1.4135-3.8034-1.0111-3.2348 1.7021.5638 2.6911 2.8522 4.2266 1.1856 4.842-5.9428 2.1943.0523 3.266-1.2798 4.5874-2.636 2.6166-9.2775-3.7136-7.7843 1.1751 1.2998 4.2565-6.0171.7557-10.1518 3.9605-3.9695 3.0768-4.3522-5.9847-7.4237-4.5627-1.1219.5194-1.2629 1.7085-2.2224 2.4686" fill="#008f4c" fill-rule="evenodd"/><path d="m203.4622 231.1887s1.0998.576.9058.9361c-.6801 1.2605-4.3133-.6396-5.222.5301-1.24 1.5957 5.6811 6.6513 2.4824 5.251-4.293-1.8793-13.9156-2.2048-10.9925-.4432 1.852 1.1162 5.7755 1.5325 5.5567 3.3487-.2318 1.9209-6.9946.72-6.6214 2.6273.2598 1.3277 4.544-.5955 5.1.6759.5872 1.3435-3.8578 1.7132-3.7094 3.1279.1911 1.8269 5.6431 1.5481 5.5687 3.3802-.0455 1.1395-3.6853.7869-3.6284 1.926.0978 1.9357 5.4434 1.1274 6.472 2.8911 1.0937 1.875-2.3205 4.0876-1.5542 6.0585.6127 1.575 3.8987 1.909 4.4823 3.4906.5884 1.5952-2.6012 3.4652-1.432 4.8527 1.4805 1.7567 7.0696-.8356 7.9583 1.1487.7476 1.6698-4.9062 2.2651-4.473 4.001.4523 1.8104 4.754 1.1322 6.3323 2.5069 1.3674 1.191.2253 3.96 2.1605 4.4885 2.3737.6481 4.1115-3.6689 6.4804-3.0107 2.4162.6712.1524 5.0953 2.6237 5.6346 2.1623.4721 3.2169-4.0195 5.2543-3.2841 1.2186.44-.7895 2.3589.1069 3.138 1.2552 1.0903 5.1492-.8304 5.5887.5935.3436 1.1118-2.4108 1.3055-3.6162 1.9582-3.2223 1.7449 5.7282 1.1586 8.7012 3.063 2.484 1.5911-1.3708 7.1134 1.7073 6.0919 2.2538-.748 4.5073-1.496 6.7611-2.244 2.4488-.8128-4.5226 3.2452-1.5956 6.0635 1.6661 1.6041 4.941-2.7152 6.5284-1.4581.8991.7118-1.7521 1.9973-1.1194 2.8655.6876.9433 2.7143 1.0745 4.0553.7819 2.1009-.4584 3.7581-5.2938 4.6125-3.6176 1.2787 2.5081-.7763 7.4679 4.291 4.2728 2.1168-1.3346.5749-5.5855 3.2826-5.8365.9494-.0879.7774 1.7644 1.7332 1.78 1.4657.0239 1.3892-2.9343 2.8051-2.638 1.4547.3045-.1866 2.5517.749 3.4714.817.8034 2.4103 1.5546 3.6401 1.1895 1.472-.4373.5058-3.0271 2.0351-3.3229 1.3949-.27 3.0674.926 3.4614 2.0026.3131.8554-1.8943 1.7423-1.2591 2.4815 1.3069 1.5207 5.5405-1.3244 7.0476.0802 1.5644 1.458-3.1158 4.4546-1.1931 5.6242 1.9321 1.1754 4.5515-1.4295 6.7495-2.2754 1.5995-.6154 4.2359-.685 4.6723-2.0322.4523-1.3959-2.6349-2.2285-2.978-3.6433-.3581-1.4761-.4054-3.4962 1.1126-4.4225 1.4427-.8801 4.7433-1.0965 5.4907.2065.6921 1.2062-3.7861 1.8348-3.2078 3.0766.7281 1.5628 5.6695-.6377 6.2843.9543.3963 1.0269-3.0144 1.184-2.945 2.2547.1047 1.6239 2.7994 3.1246 4.8848 3.052 1.9642-.0684 2.2902-3.0856 4.2518-3.183 1.4345-.0713 2.1632 2.4828 3.4617 2.0025 2.452-.9068.1843-2.8782 2.2642-4.2363 1.0088-.6586 3.1716 1.2451 3.9151.3992 1.3132-1.4941-3.9486-3.0176-3.3454-4.7661.3253-.9426.6418-2.7984 1.3185-3.6198.7442-.9032 1.212-2.2901.4769-3.198-.7938-.981-3.2007-.2865-4.2254-1.1277-1.0473-.8601-.8336-2.2805-1.2504-3.4206-.8866-2.4265 6.2713-1.3723 7.8714.793.7142.9663.7112 2.9011 2.1428 2.8992 1.4616-.001.7151-2.815 2.1632-2.971 2.1009-.2265 3.0157 2.3238 4.5237 3.4857 2.1585 1.6631.3963-4.4475-4.1752-7.0355-2.6831-1.519 5.2511 2.9347 7.0539 1.6384 1.9705-1.4169-3.7543-4.9644-1.6773-6.1288 3.5418-1.9854 2.6039-.8352 1.1189-2.8647-1.7933-2.4502-8.6218-2.3314-8.4686-3.8486.1524-1.5025 1.2989-3.2016 4.8008-1.6807" fill="#008f4c" fill-rule="evenodd"/><path d="m351.044 214.8482c-1.7514-1.5758 7.7369-.2736 4.0844-3.304-4.1718-3.4611 11.9465.9294 10.8637-2.5705-.9437-3.0503-7.2573-2.475-.5622-3.8631 6.8462-1.4194-7.1995-.2346-.3952-2.4764 6.3459-2.0908-8.5287-1.9333-.4393-4.821 2.1218-.7574-9.3751-1.3177-4.9717-4.1042 4.9353-3.1231-5.9339-4.3313-2.105-7.3232 4.7421-3.7054-12.5548-.4222-5.5962-3.4702 5.0584-2.2155.7155-1.8999-3.1397-3.3102-2.5396-.929-2.1707-4.7443-6.631-1.8673-5.5762 3.5967-4.1758-3.0105-6.8751-2.3814-2.6513.6178-6.0863 4.2811-5.369.8182.3017-1.4561-9.1648.9717-3.0767-1.9136 3.9872-1.8896-8.1608-2.4137-8.0236-2.57 3.2574-3.7073-4.384-4.7059-9.0768-2.0677-1.6029.9011 5.6565-5.9408-1.3235-4.0478-4.5353 1.2301-2.2219.0939-3.555-1.1831-3.0963-2.9655-11.096 5.5072-7.4257 1.2049 3.1347-3.6745-8.387-1.3921-8.6757 1.2742-.1456 1.3344-1.4054 1.3405-4.2609 1.3146-3.0399-.0269-2.6583 2.3572-3.6912-.0597-1.1403-2.6682-4.5817.8928-6.6672 1.5451-4.0184 1.257-1.351-2.869-2.7673-3.1035-3.9695-.6573-9.0929 1.1942-6.3259-1.9947 3.211-3.7005-6.9061.7122-9.8645 1.3424-5.9803 1.2738 1.9874 2.8568-.9906 6.0515-1.6115 1.7288-10.2173 2.2854-4.0887-.3309 3.5609-1.52-9.3332.945-3.178-2.6232 2.2267-1.2907-6.1739-3.0218-7.911-.4283-1.4639 2.1854-5.9341-2.1255-5.6995 1.1891.1388 1.9436-.3527 1.8847-4.7981 3.4491-2.1942.7723 4.3497 2.7707-.7246 4.7246-3.1259 1.2038-.0228 2.2455 3.5943 3.1992 1.715.4528 1.5828 2.0755-2.2849 1.6515-3.6155-.3963-7.3463-1.9575-8.1781-.9871-2.5027 2.9196-4.7576-.4627-7.3604.3804-2.9504.9557 7.5729 5.3304-.6782 4.1792-7.1995-1.0046 1.2231 2.5816-4.8891 5.2815-3.3224 1.4676 10.4385 2.9185 8.7273 4.3828-.88.7532-2.6137.5719-3.7126 1.0442" fill="#008f4c" fill-rule="evenodd"/><path d="m353.6701 455.0956h-23.7077c-4.6966 0-9.8335-2.5871-12.4542-3.7629-2.1454.7073-3.3848 3.7629-6.5177 3.7629h-22.3736c-2.2922 0-3.6543-3.104-4.2526-3.7629-3.5572.7474-7.1113 3.7629-10.6719 3.7629h-27.3616c17.4415-4.4953 26.264-11.3223 26.264-31.9507 0-4.2848.0686-15.8333 1.368-20.7665 1.8158-6.8827-1.368-22.48-1.368-29.1413 0-4.3889.9663-16.7587.5958-21.5961-.6486-8.4602-.1325-10.4281-1.9771-17.0162-3.3574-11.9823-8.5758-18-20.4577-22.1098-9.7358 10.468-19.6186 13.1978-34.1524 16.9438l-1.1035-4.6502c16.0331-6.6278 24.8387-8.8212 27.9005-21.0036-3.5725-7.6011-5.9847-14.689-8.3105-22.5355l4.3134-1.3403c4.8398 5.1468 9.0632 17.295 13.2686 23.2751 7.2848 1.444 22.0655 10.2028 26.3498 11.6692.7774-1.2815 2.0095-14.838 4.436-22.5119 1.0884-3.4416-9.4759-11.9905-11.8844-13.9765-2.6451-2.1809-5.4475-4.4394-7.9965-7.2419l3.4124-2.0476c3.3231 3.162 17.6342 12.9287 19.2786 12.748 4.0485-5.2703 16.6397-12.6309 20.9948-12.748l2.3626 3.2946c-.8455.6208-16.1242 10.178-16.6154 14.1769-.9798 7.9781-1.5861 14.5749-2.2909 17.3893-1.1204 4.4747-2.0086 14.7716-1.0056 16.096 2.6949 3.558 7.404 7.3296 10.2864 9.8678-1.8481 4.4549-4.0813 9.027-3.7806 14.8857-.3021-5.8655 1.9216-10.4139 3.7806-14.8857 4.2684-10.7869 10.8427-22.0261 17.0156-30.4508.1987-1.2641-3.6618-12.467-3.6449-14.2207l4.4582-2.1031c1.8384 1.9618 4.7183 8.1229 5.8616 8.4958 6.2743-5.1069 10.2284-12.399 14.5795-14.9736l4.5137 3.6577c-7.1896 6.4598-23.3784 27.2101-26.8112 37.8109-1.1122 3.4345-.5225 7.5929-.8569 13.5602 3.4551.0229 14.6537-6.2364 21.2926-11.5608 2.3144-1.8559 11.5779-21.2072 23.351-26.323l4.7702 1.7009c-1.9129 1.7849-18.0499 17.4879-12.0276 19.7003 4.6749 1.7169 29.2466-.5329 30.703.807l1.2954 3.6125c-5.3128 1.6498-29.9587 1.5457-38.5169 5.2347-11.1305 4.7983-13.034 18.5534-16.4348 26.7728-1.7051 4.1212-2.1427 12.0692-2.1427 21.5961 0 4.1748-1.822 18.4156-.5961 26.0982.4536 2.8418.5961 19.1721.5961 23.8096 0 20.7953 10.7824 27.6839 26.2644 31.9507z" fill="#c87137"/><path d="m416.1574 296.6863c0-1.4714-.9784-2.5157-2.1-2.5157-1.0441 0-2.133.8037-2.7549 2.8687-.9966 3.3091-10.8426 9.7606-10.8426 20.1176 0 7.7783 4.7411 10.4387 10.0918 10.4387.8874 0 1.7912-.0853 2.6927-.2034 1.0036.1381 2.0033.2034 2.9795.2034 5.7512 0 10.776-2.8434 10.776-10.7916 0-8.7345-10.8426-17.5916-10.8426-20.1177z" fill="#800080"/><path d="m409.9703 300.9198c-3.5447 6.7807-7.9925 15.9494-4.17 23.0436" fill="none"/><path d="m413.6826 301.6008c-.9166 8.4241-1.4616 17.5995-1.0854 24.0392" fill="none"/><path d="m417.0907 300.7906c3.5447 6.7807 8.1641 17.01 4.3416 24.1043" fill="none"/><path d="m188.6974 296.6863c0-1.4714-.9784-2.5157-2.1-2.5157-1.0441 0-2.133.8037-2.7549 2.8687-.9966 3.3091-10.8426 9.7606-10.8426 20.1176 0 7.7783 4.7411 10.4387 10.0918 10.4387.8874 0 1.7912-.0853 2.6927-.2034 1.0036.1381 2.0033.2034 2.9795.2034 5.7512 0 10.776-2.8434 10.776-10.7916 0-8.7345-10.8426-17.5916-10.8426-20.1177z" fill="#800080"/><path d="m182.5103 300.9198c-3.5447 6.7807-7.9925 15.9494-4.17 23.0436" fill="none"/><path d="m186.2226 301.6008c-.9166 8.4241-1.4616 17.5995-1.0854 24.0392" fill="none"/><path d="m189.6307 300.7906c3.5447 6.7807 8.1641 17.01 4.3416 24.1043" fill="none"/><path d="m222.9851 252.9261c0-1.4714-.9784-2.5157-2.1-2.5157-1.0441 0-2.133.8037-2.7549 2.8687-.9966 3.3091-10.8426 9.7606-10.8426 20.1176 0 7.7783 4.7411 10.4387 10.0918 10.4387.8874 0 1.7912-.0853 2.6927-.2034 1.0036.1381 2.0033.2034 2.9795.2034 5.7512 0 10.776-2.8434 10.776-10.7916 0-8.7345-10.8426-17.5916-10.8426-20.1177z" fill="#800080"/><path d="m216.798 257.1595c-3.5447 6.7807-7.9925 15.9494-4.17 23.0436" fill="none"/><path d="m220.5103 257.8406c-.9166 8.4241-1.4616 17.5995-1.0854 24.0392" fill="none"/><path d="m223.9184 257.0303c3.5447 6.7807 8.1641 17.01 4.3416 24.1043" fill="none"/><path d="m277.7018 238.6274c0-1.4714-.9784-2.5157-2.1-2.5157-1.0441 0-2.133.8037-2.7549 2.8687-.9966 3.3091-10.8426 9.7606-10.8426 20.1176 0 7.7783 4.7411 10.4387 10.0918 10.4387.8874 0 1.7912-.0853 2.6927-.2034 1.0036.1381 2.0033.2034 2.9795.2034 5.7512 0 10.776-2.8434 10.776-10.7916 0-8.7345-10.8426-17.5916-10.8426-20.1177z" fill="#800080"/><path d="m271.5147 242.8608c-3.5447 6.7807-7.9925 15.9494-4.17 23.0436" fill="none"/><path d="m275.227 243.5419c-.9166 8.4241-1.4616 17.5995-1.0854 24.0392" fill="none"/><path d="m278.6351 242.7316c3.5447 6.7807 8.1641 17.01 4.3416 24.1043" fill="none"/><path d="m343.725 217.9991c0-1.4714-.9784-2.5157-2.1-2.5157-1.0441 0-2.133.8037-2.7549 2.8687-.9966 3.3091-10.8426 9.7606-10.8426 20.1176 0 7.7783 4.7411 10.4387 10.0918 10.4387.8874 0 1.7912-.0853 2.6927-.2034 1.0036.1381 2.0033.2034 2.9795.2034 5.7512 0 10.776-2.8434 10.776-10.7916 0-8.7345-10.8426-17.5916-10.8426-20.1177z" fill="#800080"/><path d="m337.5379 222.2325c-3.5447 6.7807-7.9925 15.9494-4.17 23.0436" fill="none"/><path d="m341.2502 222.9135c-.9166 8.4241-1.4616 17.5995-1.0854 24.0392" fill="none"/><path d="m344.6583 222.1033c3.5447 6.7807 8.1641 17.01 4.3416 24.1043" fill="none"/><path d="m416.1574 220.093c0-1.4714-.9784-2.5157-2.1-2.5157-1.0441 0-2.133.8037-2.7549 2.8687-.9966 3.3091-10.8426 9.7606-10.8426 20.1176 0 7.7783 4.7411 10.4387 10.0918 10.4387.8874 0 1.7912-.0853 2.6927-.2034 1.0036.1381 2.0033.2034 2.9795.2034 5.7512 0 10.776-2.8434 10.776-10.7916 0-8.7345-10.8426-17.5916-10.8426-20.1177z" fill="#800080"/><path d="m409.9703 224.3264c-3.5447 6.7807-7.9925 15.9494-4.17 23.0436" fill="none"/><path d="m413.6826 225.0075c-.9166 8.4241-1.4616 17.5995-1.0854 24.0392" fill="none"/><path d="m417.0907 224.1972c3.5447 6.7807 8.1641 17.01 4.3416 24.1043" fill="none"/><path d="m362.9562 262.5986c0-1.4714-.9784-2.5157-2.1-2.5157-1.0441 0-2.133.8037-2.7549 2.8687-.9966 3.3091-10.8426 9.7606-10.8426 20.1176 0 7.7783 4.7411 10.4387 10.0918 10.4387.8874 0 1.7912-.0853 2.6927-.2034 1.0036.1381 2.0033.2034 2.9795.2034 5.7512 0 10.776-2.8434 10.776-10.7916 0-8.7345-10.8426-17.5916-10.8426-20.1177z" fill="#800080"/><path d="m356.7691 266.832c-3.5447 6.7807-7.9925 15.9494-4.17 23.0436" fill="none"/><path d="m360.4814 267.5131c-.9166 8.4241-1.4616 17.5995-1.0854 24.0392" fill="none"/><path d="m363.8895 266.7028c3.5447 6.7807 8.1641 17.01 4.3416 24.1043" fill="none"/><path d="m362.6524 165.071c0-1.4714-.9784-2.5157-2.1-2.5157-1.0441 0-2.133.8037-2.7549 2.8687-.9966 3.3091-10.8426 9.7606-10.8426 20.1176 0 7.7783 4.7411 10.4387 10.0918 10.4387.8874 0 1.7912-.0853 2.6927-.2034 1.0036.1381 2.0033.2034 2.9795.2034 5.7512 0 10.776-2.8434 10.776-10.7916 0-8.7345-10.8426-17.5916-10.8426-20.1177z" fill="#800080"/><path d="m356.4653 169.3044c-3.5447 6.7807-7.9925 15.9494-4.17 23.0436" fill="none"/><path d="m360.1776 169.9854c-.9166 8.4241-1.4616 17.5995-1.0854 24.0392" fill="none"/><path d="m363.5857 169.1752c3.5447 6.7807 8.1641 17.01 4.3416 24.1043" fill="none"/><path d="m287.2392 144.1113c0-1.4714-.9784-2.5157-2.1-2.5157-1.0441 0-2.133.8037-2.7549 2.8687-.9966 3.3091-10.8426 9.7606-10.8426 20.1176 0 7.7783 4.7411 10.4387 10.0918 10.4387.8874 0 1.7912-.0853 2.6927-.2034 1.0036.1381 2.0033.2034 2.9795.2034 5.7512 0 10.776-2.8434 10.776-10.7916 0-8.7345-10.8426-17.5916-10.8426-20.1177z" fill="#800080"/><path d="m281.0521 148.3448c-3.5447 6.7807-7.9925 15.9494-4.17 23.0436" fill="none"/><path d="m284.7644 149.0258c-.9166 8.4241-1.4616 17.5995-1.0854 24.0392" fill="none"/><path d="m288.1725 148.2156c3.5447 6.7807 8.1641 17.01 4.3416 24.1043" fill="none"/><path d="m241.6369 188.2791c0-1.4714-.9784-2.5157-2.1-2.5157-1.0441 0-2.133.8037-2.7549 2.8687-.9966 3.3091-10.8426 9.7606-10.8426 20.1176 0 7.7783 4.7411 10.4387 10.0918 10.4387.8874 0 1.7912-.0853 2.6927-.2034 1.0036.1381 2.0033.2034 2.9795.2034 5.7512 0 10.776-2.8434 10.776-10.7916 0-8.7345-10.8426-17.5916-10.8426-20.1177z" fill="#800080"/><path d="m235.4498 192.5125c-3.5447 6.7807-7.9925 15.9494-4.17 23.0436" fill="none"/><path d="m239.1621 193.1935c-.9166 8.4241-1.4616 17.5995-1.0854 24.0392" fill="none"/><path d="m242.5702 192.3833c3.5447 6.7807 8.1641 17.01 4.3416 24.1043" fill="none"/><path d="m188.6974 206.8852c0-1.4714-.9784-2.5157-2.1-2.5157-1.0441 0-2.133.8037-2.7549 2.8687-.9966 3.3091-10.8426 9.7606-10.8426 20.1176 0 7.7783 4.7411 10.4387 10.0918 10.4387.8874 0 1.7912-.0853 2.6927-.2034 1.0036.1381 2.0033.2034 2.9795.2034 5.7512 0 10.776-2.8434 10.776-10.7916 0-8.7345-10.8426-17.5916-10.8426-20.1177z" fill="#800080"/><path d="m182.5103 211.1187c-3.5447 6.7807-7.9925 15.9494-4.17 23.0436" fill="none"/><path d="m186.2226 211.7997c-.9166 8.4241-1.4616 17.5995-1.0854 24.0392" fill="none"/><path d="m189.6307 210.9895c3.5447 6.7807 8.1641 17.01 4.3416 24.1043" fill="none"/><path d="m306.0689 191.3688c0-1.4714-.9784-2.5157-2.1-2.5157-1.0441 0-2.133.8037-2.7549 2.8687-.9966 3.3091-10.8426 9.7606-10.8426 20.1176 0 7.7783 4.7411 10.4387 10.0918 10.4387.8874 0 1.7912-.0853 2.6927-.2034 1.0036.1381 2.0033.2034 2.9795.2034 5.7512 0 10.776-2.8434 10.776-10.7916 0-8.7345-10.8426-17.5916-10.8426-20.1177z" fill="#800080"/><path d="m299.8818 195.6023c-3.5447 6.7807-7.9925 15.9494-4.17 23.0436" fill="none"/><path d="m303.5941 196.2833c-.9166 8.4241-1.4616 17.5995-1.0854 24.0392" fill="none"/><path d="m307.0022 195.4731c3.5447 6.7807 8.1641 17.01 4.3416 24.1043" fill="none"/></g><path d="m1.5 300 298.5 298.5 298.5-298.5-298.5-298.5z" fill="none" stroke="#000" stroke-linecap="round" stroke-linejoin="round" stroke-width="3"/></svg>