<?xml version="1.0" encoding="utf-8"?><!DOCTYPE svg PUBLIC "-//W3C//DTD SVG 1.1//EN" "http://www.w3.org/Graphics/SVG/1.1/DTD/svg11.dtd"><svg viewBox="0 0 600 720" xmlns="http://www.w3.org/2000/svg"><g stroke="#000" stroke-linecap="round" stroke-linejoin="round"><path d="m473.8071 113c0 7.0122-38.1058 21.2714-173.8071 21.2714s-173.8071-14.2592-173.8071-21.2714 38.1058-21.2715 173.8071-21.2715 173.8071 14.2593 173.8071 21.2715z" fill="#eac102"/><g fill="none"><path d="m147.422 103.829v18.341" stroke-width="5.5"/><path d="m153.859 102.34v21.319" stroke-width="5.25"/><path d="m160.296 101.363v23.273" stroke-width="5"/><path d="m166.733 100.154v25.692" stroke-width="4.75"/><path d="m173.171 99.084v27.832" stroke-width="4.5"/><path d="m179.608 98.153v29.693" stroke-width="4.25"/><path d="m186.045 97.223v31.553" stroke-width="4"/><path d="m192.482 96.432v33.135" stroke-width="3.75"/><path d="m198.92 95.92v34.159" stroke-width="3.5"/><path d="m205.357 95.316v35.368" stroke-width="3.25"/><path d="m211.794 94.385v37.229" stroke-width="3"/><path d="m218.232 93.873v38.253" stroke-width="2.75"/><path d="m224.669 93.641v38.718" stroke-width="2.5"/><path d="m231.106 93.082v39.834" stroke-width="2.25"/><path d="m237.543 92.617v40.765" stroke-width="2"/><path d="m243.981 92.338v41.323" stroke-width="1.75"/><path d="m250.418 91.92v42.16" stroke-width="1.5"/><path d="m256.855 91.64v42.719" stroke-width="1.25"/><path d="m263.292 90.803v44.394"/><path d="m269.73 90.803v44.394" stroke-width=".75"/><path d="m276.167 90.803v44.394" stroke-width=".5"/><path d="m282.604 90.803v44.394" stroke-width=".25"/><path d="m134.547 108.248v9.502" stroke-width="6"/><path d="m140.984 105.876v14.248" stroke-width="5.75"/><path d="m452.579 103.829v18.341" stroke-width="5.5"/><path d="m446.142 102.34v21.319" stroke-width="5.25"/><path d="m439.704 101.363v23.273" stroke-width="5"/><path d="m433.267 100.154v25.692" stroke-width="4.75"/><path d="m426.83 99.084v27.832" stroke-width="4.5"/><path d="m420.393 98.153v29.693" stroke-width="4.25"/><path d="m413.955 97.223v31.553" stroke-width="4"/><path d="m407.518 96.432v33.135" stroke-width="3.75"/><path d="m401.081 95.92v34.159" stroke-width="3.5"/><path d="m394.643 95.316v35.368" stroke-width="3.25"/><path d="m388.206 94.385v37.229" stroke-width="3"/><path d="m381.769 93.873v38.253" stroke-width="2.75"/><path d="m375.332 93.641v38.718" stroke-width="2.5"/><path d="m368.894 93.082v39.834" stroke-width="2.25"/><path d="m362.457 92.617v40.765" stroke-width="2"/><path d="m356.02 92.338v41.323" stroke-width="1.75"/><path d="m349.583 91.92v42.16" stroke-width="1.5"/><path d="m343.145 91.64v42.719" stroke-width="1.25"/><path d="m336.708 90.803v44.394"/><path d="m330.271 90.803v44.394" stroke-width=".75"/><path d="m323.834 90.803v44.394" stroke-width=".5"/><path d="m317.396 90.803v44.394" stroke-width=".25"/><path d="m465.453 108.248v9.502" stroke-width="6"/><path d="m459.016 105.876v14.248" stroke-width="5.75"/></g><g><path d="m458.2 38.5284c0 13.4758 10.9243 24.4 24.4 24.4s24.4-10.9243 24.4-24.4-10.9243-24.4-24.4-24.4-24.4 10.9243-24.4 24.4z" fill="#e5e5e5" fill-rule="evenodd"/><path d="m342.4188 24.9c0 13.4758 10.9243 24.4 24.4 24.4s24.4-10.9243 24.4-24.4-10.9243-24.4-24.4-24.4-24.4 10.9243-24.4 24.4z" fill="#e5e5e5" fill-rule="evenodd"/><path d="m257.5812 24.9c0 13.4758-10.9243 24.4-24.4 24.4s-24.4-10.9243-24.4-24.4 10.9243-24.4 24.4-24.4 24.4 10.9243 24.4 24.4z" fill="#e5e5e5" fill-rule="evenodd"/><path d="m141.8 38.5284c0 13.4758-10.9243 24.4-24.4 24.4s-24.4-10.9243-24.4-24.4 10.9242-24.4 24.4-24.4 24.4 10.9243 24.4 24.4z" fill="#e5e5e5" fill-rule="evenodd"/><path d="m429.0719 46.0303c0 5.4676-4.4324 9.9-9.9 9.9s-9.9-4.4324-9.9-9.9 4.4324-9.9 9.9-9.9 9.9 4.4324 9.9 9.9z" fill="#e5e5e5" fill-rule="evenodd"/><path d="m440.3714 43.8376c0 5.4676-4.4324 9.9-9.9 9.9s-9.9-4.4324-9.9-9.9 4.4324-9.9 9.9-9.9 9.9 4.4324 9.9 9.9z" fill="#e5e5e5" fill-rule="evenodd"/><path d="m329.0803 44.1889c0 5.4676-4.4324 9.9-9.9 9.9s-9.9-4.4324-9.9-9.9 4.4324-9.9 9.9-9.9 9.9 4.4324 9.9 9.9z" fill="#e5e5e5" fill-rule="evenodd"/><path d="m339.8603 40.4c0 5.4676-4.4324 9.9-9.9 9.9s-9.9-4.4324-9.9-9.9 4.4324-9.9 9.9-9.9 9.9 4.4324 9.9 9.9z" fill="#e5e5e5" fill-rule="evenodd"/><path d="m218.6685 46.143c0 5.4676-4.4324 9.9-9.9 9.9s-9.9-4.4324-9.9-9.9 4.4324-9.9 9.9-9.9 9.9 4.4324 9.9 9.9z" fill="#e5e5e5" fill-rule="evenodd"/><path d="m229.2147 41.5237c0 5.4676-4.4324 9.9-9.9 9.9s-9.9-4.4324-9.9-9.9 4.4324-9.9 9.9-9.9 9.9 4.4324 9.9 9.9z" fill="#e5e5e5" fill-rule="evenodd"/><path d="m130.1721 59.9645c0 5.4676-4.4324 9.9-9.9 9.9s-9.9-4.4324-9.9-9.9 4.4324-9.9 9.9-9.9 9.9 4.4324 9.9 9.9z" fill="#e5e5e5" fill-rule="evenodd"/><path d="m135.6545 52.4919c0 5.4676-4.4324 9.9-9.9 9.9s-9.9-4.4324-9.9-9.9 4.4324-9.9 9.9-9.9 9.9 4.4324 9.9 9.9z" fill="#e5e5e5" fill-rule="evenodd"/><path d="m179.438 132.7588c0 4.7773-3.8727 8.65-8.65 8.65s-8.65-3.8727-8.65-8.65 3.8727-8.65 8.65-8.65 8.65 3.8727 8.65 8.65z" fill="#e5e5e5" fill-rule="evenodd"/><path d="m219.1061 99.5577c0 4.7773-3.8727 8.65-8.65 8.65s-8.65-3.8727-8.65-8.65 3.8727-8.65 8.65-8.65 8.65 3.8727 8.65 8.65z" fill="#e5e5e5" fill-rule="evenodd"/><path d="m300.0001 92.2117c-139.8158 0-182.5692-15.8896-182.5692-18.2644s42.7534-18.2645 182.5692-18.2645 182.5693 15.8897 182.5693 18.2645c0 2.3747-42.7535 18.2644-182.5693 18.2644zm-137.8858 3.1594c-32.5558-4.273-56.6142-10.9941-56.6142-21.4237 0-24.2391 129.9445-28.4474 194.5-28.4474s194.5 4.2083 194.5 28.4474c0 10.4296-24.0585 17.1507-56.6143 21.4237z" fill="#eac102" fill-rule="evenodd"/><path d="m147.1414 108.2692c0 4.7773-3.8727 8.65-8.65 8.65s-8.65-3.8727-8.65-8.65 3.8727-8.65 8.65-8.65 8.65 3.8727 8.65 8.65z" fill="#e5e5e5" fill-rule="evenodd"/><path d="m318.4697 99.9735c0 4.7773-3.8727 8.65-8.65 8.65s-8.65-3.8727-8.65-8.65 3.8727-8.65 8.65-8.65 8.65 3.8727 8.65 8.65z" fill="#e5e5e5" fill-rule="evenodd"/><path d="m422.5844 102.7998c0 4.7773-3.8727 8.65-8.65 8.65s-8.65-3.8727-8.65-8.65 3.8727-8.65 8.65-8.65 8.65 3.8727 8.65 8.65z" fill="#e5e5e5" fill-rule="evenodd"/><path d="m196.4966 95.3715-69.0588 14.6048c-2.583-12.3267-5.022-23.5271-10.9304-35.0537-3.1408-6.1274 59.7743-20.0364 183.4926-20.0364 123.7184 0 186.6334 13.9091 183.4926 20.0364-5.9084 11.5267-8.3474 22.7269-10.9304 35.0537l-69.0588-14.6048z" fill="#eac102"/><path d="m115.9821 91.6525 3.9988-8.9213 13.0006 2.2327-8.6657 11.4659z" fill="#ed1c24"/><path d="m115.9821 91.6525 16.9994-6.6887" fill="none"/><path d="m177.7763 70.281 35.8427-3.3618c3.5853-.3363 6.7423 2.2793 7.0786 5.8646s-2.2793 6.7423-5.8646 7.0786l-35.8427 3.3618c-3.5853.3363-6.7423-2.2793-7.0786-5.8646s2.2793-6.7423 5.8646-7.0786z" fill="#008f4c" fill-rule="evenodd"/><path d="m484.0179 91.6525-3.9988-8.9213-13.0006 2.2327 8.6657 11.4659z" fill="#ed1c24"/><path d="m484.0179 91.6525-16.9994-6.6887" fill="none"/><path d="m422.2237 70.281-35.8427-3.3618c-3.5853-.3363-6.7423 2.2793-7.0786 5.8646s2.2793 6.7423 5.8646 7.0786l35.8427 3.3618c3.5853.3363 6.7423-2.2793 7.0786-5.8646s-2.2793-6.7423-5.8646-7.0786z" fill="#008f4c" fill-rule="evenodd"/><path d="m280.5889 64.2484-10.0858 6.7241 10.0858 6.7232h38.8224l10.0858-6.7232-10.0858-6.7241z" fill="#ed1c24"/><path d="m280.5889 64.2484 9.3228 6.018-9.3228 7.4293" fill="none"/><path d="m270.503 70.9725 19.4086-.7061h20.1771l19.4085.7061" fill="none"/><path d="m319.4113 64.2484-9.3227 6.018 9.3227 7.4293" fill="none"/><path d="m194.6857 103.4557c0 5.4676-4.4324 9.9-9.9 9.9s-9.9-4.4324-9.9-9.9 4.4324-9.9 9.9-9.9 9.9 4.4324 9.9 9.9z" fill="#e5e5e5" fill-rule="evenodd"/><path d="m185.9602 109.1227c0 5.4676-4.4324 9.9-9.9 9.9s-9.9-4.4324-9.9-9.9 4.4324-9.9 9.9-9.9 9.9 4.4324 9.9 9.9z" fill="#e5e5e5" fill-rule="evenodd"/><path d="m262.1237 139.4626c0 4.7773-3.8727 8.65-8.65 8.65s-8.65-3.8727-8.65-8.65 3.8727-8.65 8.65-8.65 8.65 3.8727 8.65 8.65z" fill="#e5e5e5" fill-rule="evenodd"/><path d="m361.4856 139.8741c0 4.7773-3.8727 8.65-8.65 8.65s-8.65-3.8727-8.65-8.65 3.8727-8.65 8.65-8.65 8.65 3.8727 8.65 8.65z" fill="#e5e5e5" fill-rule="evenodd"/><path d="m450.8769 132.3227c0 4.7773-3.8727 8.65-8.65 8.65s-8.65-3.8727-8.65-8.65 3.8727-8.65 8.65-8.65 8.65 3.8727 8.65 8.65z" fill="#e5e5e5" fill-rule="evenodd"/><path d="m292.2503 99.573c0 5.4676-4.4324 9.9-9.9 9.9s-9.9-4.4324-9.9-9.9 4.4324-9.9 9.9-9.9 9.9 4.4324 9.9 9.9z" fill="#e5e5e5" fill-rule="evenodd"/><path d="m281.7041 104.1922c0 5.4676-4.4324 9.9-9.9 9.9s-9.9-4.4324-9.9-9.9 4.4324-9.9 9.9-9.9 9.9 4.4324 9.9 9.9z" fill="#e5e5e5" fill-rule="evenodd"/><path d="m399.6013 101.5271c0 5.4676-4.4324 9.9-9.9 9.9s-9.9-4.4324-9.9-9.9 4.4324-9.9 9.9-9.9 9.9 4.4324 9.9 9.9z" fill="#e5e5e5" fill-rule="evenodd"/><path d="m388.8213 105.5679c0 5.4676-4.4324 9.9-9.9 9.9s-9.9-4.4324-9.9-9.9 4.4324-9.9 9.9-9.9 9.9 4.4324 9.9 9.9z" fill="#e5e5e5" fill-rule="evenodd"/><path d="m468.4893 113c0 2.2122-39.4563 17.0141-168.4893 17.0141s-168.4893-14.8019-168.4893-17.0141c0-2.2123 39.4563-17.0142 168.4893-17.0142s168.4893 14.8018 168.4893 17.0142zm11.0107 0c0 22.5798-119.923 26.5-179.5 26.5s-179.5-3.9202-179.5-26.5 119.923-26.5 179.5-26.5 179.5 3.9203 179.5 26.5z" fill="#eac102" fill-rule="evenodd"/><path d="m151.1769 119.7147c0 4.7773-3.8727 8.65-8.65 8.65s-8.65-3.8727-8.65-8.65 3.8727-8.65 8.65-8.65 8.65 3.8727 8.65 8.65z" fill="#e5e5e5" fill-rule="evenodd"/><path d="m158.4308 132.1047c0 4.7773-3.8727 8.65-8.65 8.65s-8.65-3.8727-8.65-8.65 3.8727-8.65 8.65-8.65 8.65 3.8727 8.65 8.65z" fill="#e5e5e5" fill-rule="evenodd"/><path d="m425.5048 116.8752c0 4.7773-3.8727 8.65-8.65 8.65s-8.65-3.8727-8.65-8.65 3.8727-8.65 8.65-8.65 8.65 3.8727 8.65 8.65z" fill="#e5e5e5" fill-rule="evenodd"/><path d="m431.8419 130.6562c0 4.7773-3.8727 8.65-8.65 8.65s-8.65-3.8727-8.65-8.65 3.8727-8.65 8.65-8.65 8.65 3.8727 8.65 8.65z" fill="#e5e5e5" fill-rule="evenodd"/><path d="m325.1898 113.0118c0 4.7773-3.8727 8.65-8.65 8.65s-8.65-3.8727-8.65-8.65 3.8727-8.65 8.65-8.65 8.65 3.8727 8.65 8.65z" fill="#e5e5e5" fill-rule="evenodd"/><path d="m331.9115 126.0543c0 4.7773-3.8727 8.65-8.65 8.65s-8.65-3.8727-8.65-8.65 3.8727-8.65 8.65-8.65 8.65 3.8727 8.65 8.65z" fill="#e5e5e5" fill-rule="evenodd"/><path d="m340.3139 138.6761c0 4.7773-3.8727 8.65-8.65 8.65s-8.65-3.8727-8.65-8.65 3.8727-8.65 8.65-8.65 8.65 3.8727 8.65 8.65z" fill="#e5e5e5" fill-rule="evenodd"/><path d="m352.3789 44.5349c0 5.4676-4.4324 9.9-9.9 9.9s-9.9-4.4324-9.9-9.9 4.4324-9.9 9.9-9.9 9.9 4.4324 9.9 9.9z" fill="#e5e5e5" fill-rule="evenodd"/><path d="m358.9863 57.5486c0 5.4676-4.4324 9.9-9.9 9.9s-9.9-4.4324-9.9-9.9 4.4324-9.9 9.9-9.9 9.9 4.4324 9.9 9.9z" fill="#e5e5e5" fill-rule="evenodd"/><path d="m364.3253 71.9843c0 5.4676-4.4324 9.9-9.9 9.9s-9.9-4.4324-9.9-9.9 4.4324-9.9 9.9-9.9 9.9 4.4324 9.9 9.9z" fill="#e5e5e5" fill-rule="evenodd"/><path d="m369.6954 87.367c0 5.4676-4.4324 9.9-9.9 9.9s-9.9-4.4324-9.9-9.9 4.4324-9.9 9.9-9.9 9.9 4.4324 9.9 9.9z" fill="#e5e5e5" fill-rule="evenodd"/><path d="m241.9678 45.2251c0 5.4676-4.4324 9.9-9.9 9.9s-9.9-4.4324-9.9-9.9 4.4324-9.9 9.9-9.9 9.9 4.4324 9.9 9.9z" fill="#e5e5e5" fill-rule="evenodd"/><path d="m249.2947 57.861c0 5.4676-4.4324 9.9-9.9 9.9s-9.9-4.4324-9.9-9.9 4.4324-9.9 9.9-9.9 9.9 4.4324 9.9 9.9z" fill="#e5e5e5" fill-rule="evenodd"/><path d="m255.4747 71.9843c0 5.4676-4.4324 9.9-9.9 9.9s-9.9-4.4324-9.9-9.9 4.4324-9.9 9.9-9.9 9.9 4.4324 9.9 9.9z" fill="#e5e5e5" fill-rule="evenodd"/><path d="m261.6241 87.0546c0 5.4676-4.4324 9.9-9.9 9.9s-9.9-4.4324-9.9-9.9 4.4324-9.9 9.9-9.9 9.9 4.4324 9.9 9.9z" fill="#e5e5e5" fill-rule="evenodd"/><path d="m146.9642 54.3437c0 5.4676-4.4324 9.9-9.9 9.9s-9.9-4.4324-9.9-9.9 4.4324-9.9 9.9-9.9 9.9 4.4324 9.9 9.9z" fill="#e5e5e5" fill-rule="evenodd"/><path d="m154.319 66.6656c0 5.4676-4.4324 9.9-9.9 9.9s-9.9-4.4324-9.9-9.9 4.4324-9.9 9.9-9.9 9.9 4.4324 9.9 9.9z" fill="#e5e5e5" fill-rule="evenodd"/><path d="m160.8496 80.5115c0 5.4676-4.4324 9.9-9.9 9.9s-9.9-4.4324-9.9-9.9 4.4324-9.9 9.9-9.9 9.9 4.4324 9.9 9.9z" fill="#e5e5e5" fill-rule="evenodd"/><path d="m167.2957 94.9486c0 5.4676-4.4324 9.9-9.9 9.9s-9.9-4.4324-9.9-9.9 4.4324-9.9 9.9-9.9 9.9 4.4324 9.9 9.9z" fill="#e5e5e5" fill-rule="evenodd"/><path d="m451.9408 50.5407c0 5.4676-4.4324 9.9-9.9 9.9s-9.9-4.4324-9.9-9.9 4.4324-9.9 9.9-9.9 9.9 4.4324 9.9 9.9z" fill="#e5e5e5" fill-rule="evenodd"/><path d="m456.2198 64.9661c0 5.4676-4.4324 9.9-9.9 9.9s-9.9-4.4324-9.9-9.9 4.4324-9.9 9.9-9.9 9.9 4.4324 9.9 9.9z" fill="#e5e5e5" fill-rule="evenodd"/><path d="m458.9505 80.5115c0 5.4676-4.4324 9.9-9.9 9.9s-9.9-4.4324-9.9-9.9 4.4324-9.9 9.9-9.9 9.9 4.4324 9.9 9.9z" fill="#e5e5e5" fill-rule="evenodd"/><path d="m461.7626 96.6449c0 5.4676-4.4324 9.9-9.9 9.9s-9.9-4.4324-9.9-9.9 4.4324-9.9 9.9-9.9 9.9 4.4324 9.9 9.9z" fill="#e5e5e5" fill-rule="evenodd"/><path d="m376.3027 100.8812c0 5.4676-4.4324 9.9-9.9 9.9s-9.9-4.4324-9.9-9.9 4.4324-9.9 9.9-9.9 9.9 4.4324 9.9 9.9z" fill="#e5e5e5" fill-rule="evenodd"/><path d="m268.951 100.1909c0 5.4676-4.4324 9.9-9.9 9.9s-9.9-4.4324-9.9-9.9 4.4324-9.9 9.9-9.9 9.9 4.4324 9.9 9.9z" fill="#e5e5e5" fill-rule="evenodd"/><path d="m174.6506 107.2704c0 5.4676-4.4324 9.9-9.9 9.9s-9.9-4.4324-9.9-9.9 4.4324-9.9 9.9-9.9 9.9 4.4324 9.9 9.9z" fill="#e5e5e5" fill-rule="evenodd"/><path d="m466.0417 111.0703c0 5.4676-4.4324 9.9-9.9 9.9s-9.9-4.4324-9.9-9.9 4.4324-9.9 9.9-9.9 9.9 4.4324 9.9 9.9z" fill="#e5e5e5" fill-rule="evenodd"/><path d="m351.1408 144.85c0 4.7773-3.8727 8.65-8.65 8.65s-8.65-3.8727-8.65-8.65 3.8727-8.65 8.65-8.65 8.65 3.8727 8.65 8.65z" fill="#e5e5e5" fill-rule="evenodd"/><path d="m225.8278 112.6003c0 4.7773-3.8727 8.65-8.65 8.65s-8.65-3.8727-8.65-8.65 3.8727-8.65 8.65-8.65 8.65 3.8727 8.65 8.65z" fill="#e5e5e5" fill-rule="evenodd"/><path d="m232.5495 125.6429c0 4.7773-3.8727 8.65-8.65 8.65s-8.65-3.8727-8.65-8.65 3.8727-8.65 8.65-8.65 8.65 3.8727 8.65 8.65z" fill="#e5e5e5" fill-rule="evenodd"/><path d="m240.9519 138.2647c0 4.7773-3.8727 8.65-8.65 8.65s-8.65-3.8727-8.65-8.65 3.8727-8.65 8.65-8.65 8.65 3.8727 8.65 8.65z" fill="#e5e5e5" fill-rule="evenodd"/><path d="m251.7772 144.1192c0 4.7773-3.8727 8.65-8.65 8.65s-8.65-3.8727-8.65-8.65 3.8727-8.65 8.65-8.65 8.65 3.8727 8.65 8.65z" fill="#e5e5e5" fill-rule="evenodd"/><path d="m169.7905 138.5317c0 4.7773-3.8727 8.65-8.65 8.65s-8.65-3.8727-8.65-8.65 3.8727-8.65 8.65-8.65 8.65 3.8727 8.65 8.65z" fill="#e5e5e5" fill-rule="evenodd"/><path d="m442.5106 137.1673c0 4.7773-3.8727 8.65-8.65 8.65s-8.65-3.8727-8.65-8.65 3.8727-8.65 8.65-8.65 8.65 3.8727 8.65 8.65z" fill="#e5e5e5" fill-rule="evenodd"/></g></g><path d="m.5 420 299.5 299.5 299.5-299.5-299.5-299.5z" fill="#0071bc" stroke="#000" stroke-linecap="round" stroke-linejoin="round"/><g stroke="#000" stroke-linecap="round" stroke-linejoin="round"><path d="m298.5026 220.5h2.9949c2.8443 0 5.1341 2.2898 5.1341 5.1341v144.6109h-13.2631v-144.6109c0-2.8443 2.2898-5.1341 5.1341-5.1341z" fill="#c87137"/><path d="m160.5 350.9804h279c0 18.4171-38.5154 56.561-64.639 63.131h-198.7274c-13.0333-18.5727-15.6336-43.5606-15.6336-63.131z" fill="#c87137"/><path d="m82.1816 394.8613c-9.7141-.0004-19.2018 2.9622-27.2265 8.5-8.0247 5.5379-17.5143 8.4996-27.2285 8.5-5.5659.0003-11.0556-.9754-16.2403-2.8476l-10.9863 10.9863 25.0879 25.0879c.7116.032 1.4241.051 2.1387.051 9.7142-.0004 19.2038-2.9621 27.2285-8.5s17.5124-8.5005 27.2265-8.5 19.2019 2.9621 27.2266 8.5 17.5143 8.5005 27.2285 8.5 19.2019-2.9621 27.2266-8.5 17.5144-8.5005 27.2285-8.5 19.202 2.9621 27.2266 8.5 17.5124 8.5005 27.2265 8.5 19.2038-2.9621 27.2285-8.5 17.5125-8.5005 27.2266-8.5 19.2019 2.9621 27.2266 8.5 17.5144 8.5005 27.2285 8.5 19.2019-2.9621 27.2265-8.5 17.5125-8.5005 27.2266-8.5 19.2038 2.9621 27.2285 8.5 17.5125 8.5005 27.2266 8.5 19.2038-2.9621 27.2285-8.5 17.5124-8.5005 27.2266-8.5 19.2018 2.9621 27.2265 8.5 17.5143 8.5005 27.2285 8.5c.7152 0 1.4284-.021 2.1407-.053l25.0859-25.086-10.9883-10.9883c-5.1844 1.8718-10.6729 2.8494-16.2383 2.8496-9.7142.0005-19.2038-2.9621-27.2285-8.5-8.0247-5.5378-17.5123-8.4995-27.2265-8.5-9.7142-.0004-19.2019 2.9622-27.2266 8.5-8.0247 5.5379-17.5144 8.4996-27.2285 8.5-9.7141.0005-19.2019-2.9621-27.2266-8.5-8.0247-5.5378-17.5144-8.4995-27.2285-8.5-9.7141-.0004-19.202 2.9622-27.2266 8.5-8.0246 5.5379-17.5124 8.4996-27.2265 8.5-9.7141.0005-19.2038-2.9621-27.2285-8.5-8.0247-5.5378-17.5125-8.4995-27.2266-8.5-9.7141-.0004-19.2019 2.9622-27.2266 8.5-8.0247 5.5379-17.5144 8.4996-27.2285 8.5-9.7141.0005-19.2019-2.9621-27.2265-8.5-8.0246-5.5378-17.5125-8.4995-27.2266-8.5-9.7141-.0004-19.2038 2.9622-27.2285 8.5-8.0247 5.5379-17.5124 8.4996-27.2266 8.5-9.7142.0005-19.2038-2.9621-27.2285-8.5-8.0247-5.5378-17.5125-8.4995-27.2266-8.5z" fill="#e5e5e5"/><path d="m112.813 382.562-37.438 37.438 187.188 187.187-37.438 37.438 37.4375 37.4375 37.4375-37.4375 37.4375 37.4375 37.4375-37.4375-37.438-37.438 187.188-187.187-37.438-37.438-187.187 187.188z" fill="#c87137"/></g><path d="m1.5 420 298.5 298.5 298.5-298.5-298.5-298.5z" fill="none" stroke="#000" stroke-linecap="round" stroke-linejoin="round" stroke-width="3"/></svg>