<?xml version="1.0" encoding="UTF-8" standalone="no"?>
<!-- Created with Inkscape (http://www.inkscape.org/) -->
<svg
   xmlns:svg="http://www.w3.org/2000/svg"
   xmlns="http://www.w3.org/2000/svg"
   version="1.0"
   width="602"
   height="602.00006"
   id="svg2">
  <defs
     id="defs4" />
  <g
     transform="translate(-682.66778,-437.40444)"
     id="g5299" />
  <g
     transform="translate(-1817.0451,-268.3298)"
     id="g9393" />
  <path
     d="M 301,1.5 L 266.84375,35.65625 L 266.84375,566.34376 L 301,600.50006 L 335.15625,566.34376 L 335.15625,35.65625 L 301,1.5 z M 201.4375,101.0625 L 133.09375,169.40626 L 133.09375,432.59376 L 201.4375,500.93751 L 201.4375,101.0625 z M 400.5625,101.0625 L 400.5625,500.93751 L 468.90625,432.59376 L 468.90625,169.40626 L 400.5625,101.0625 z M 67.71875,234.78126 L 1.5,301.00001 L 67.71875,367.21876 L 67.71875,234.78126 z M 534.28125,234.78126 L 534.28125,367.21876 L 600.5,301.00001 L 534.28125,234.78126 z"
     id="path4792"
     style="fill:#eac102;fill-opacity:1;fill-rule:evenodd;stroke:none;stroke-width:0.99999994;stroke-linecap:butt;stroke-linejoin:miter;marker:none;marker-start:none;marker-mid:none;marker-end:none;stroke-miterlimit:4;stroke-dasharray:none;stroke-dashoffset:0;stroke-opacity:1;visibility:visible;display:inline;overflow:visible;enable-background:accumulate" />
  <path
     d="M 266.84375,35.65626 L 201.4375,101.06251 L 201.4375,500.93752 L 266.84375,566.34376 L 266.84375,35.65626 z M 335.15625,35.65626 L 335.15625,566.34376 L 400.5625,500.93752 L 400.5625,101.06251 L 335.15625,35.65626 z M 133.09375,169.40627 L 67.71875,234.78127 L 67.71875,367.21877 L 133.09375,432.59377 L 133.09375,169.40627 z M 468.90625,169.40627 L 468.90625,432.59377 L 534.28125,367.21877 L 534.28125,234.78127 L 468.90625,169.40627 z"
     id="path4790"
     style="fill:#ed1c24;fill-opacity:1;fill-rule:evenodd;stroke:#000000;stroke-width:0.99999994;stroke-linecap:butt;stroke-linejoin:miter;marker:none;marker-start:none;marker-mid:none;marker-end:none;stroke-miterlimit:4;stroke-dasharray:none;stroke-dashoffset:0;stroke-opacity:1;visibility:visible;display:inline;overflow:visible;enable-background:accumulate" />
  <path
     d="M 301,1.5 L 266.84375,35.65625 L 201.4375,101.0625 L 133.09375,169.40626 L 67.71875,234.78126 L 1.5,301.00001 L 67.71875,367.21876 L 133.09375,432.59381 L 201.4375,500.93751 L 266.84375,566.34376 L 301,600.50006 L 335.15625,566.34376 L 400.5625,500.93751 L 468.90625,432.59381 L 534.28125,367.21876 L 600.5,301.00001 L 534.28125,234.78126 L 468.90625,169.40626 L 400.5625,101.0625 L 335.15625,35.65625 L 301,1.5 z"
     id="path12876"
     style="fill:none;fill-opacity:1;fill-rule:evenodd;stroke:#000000;stroke-width:3;stroke-linecap:butt;stroke-linejoin:miter;marker:none;marker-start:none;marker-mid:none;marker-end:none;stroke-miterlimit:4;stroke-dasharray:none;stroke-dashoffset:0;stroke-opacity:1;visibility:visible;display:inline;overflow:visible;enable-background:accumulate" />
  <g
     transform="matrix(1.4496668,0,0,1.3341487,-693.05723,-35.475208)"
     id="layer1">
    <g
       transform="translate(415.31862,-344.7496)"
       id="g8185"
       style="display:inline">
      <g
         transform="matrix(-0.4301779,-1.1826212,1.0508279,-0.5527392,122.75566,1777.6819)"
         id="g21321"
         style="fill:#008f4c;fill-opacity:1;stroke:#000000;stroke-width:0.821854;stroke-miterlimit:4;stroke-dasharray:none;stroke-opacity:1">
        <path
           d="M 801.81831,465.43339 C 808.34645,467.97754 814.98964,476.77881 821.18937,453.53024 C 823.76748,443.86249 820.24386,428.91888 820.24386,428.91888 C 820.24386,428.91888 815.29419,434.86593 815.30744,435.19931 C 815.72081,445.59052 810.56688,452.05788 808.67318,448.97218 C 807.74276,447.78068 808.48886,445.72843 804.39531,446.16088 L 799.4196,451.15273 C 799.4196,451.15273 799.46565,448.35382 798.31388,448.47207 C 797.16209,448.59032 794.81245,451.6258 794.81245,451.6258 L 794.62815,450.04894 L 792.78531,451.46812 C 792.78531,451.46812 793.33818,450.00952 791.67959,450.3643 C 790.02102,450.7191 786.15103,452.8873 786.15103,452.8873 C 786.15103,452.8873 788.17815,447.32883 787.62531,445.94909 C 787.07245,444.56932 783.93961,447.36825 783.93961,447.36825 C 783.93961,447.36825 784.49244,445.39719 783.75531,445.16064 C 783.01817,444.92411 780.99101,446.42213 780.99101,446.42213 C 780.99101,446.42213 781.54387,444.5299 780.80673,444.5299 C 780.06959,444.5299 773.25103,445.00295 773.25103,445.00295 C 773.25103,445.00295 776.1996,441.84921 775.83102,440.58772 C 775.46244,439.32622 771.77674,439.95698 771.77674,439.95698 C 771.77674,439.95698 773.66566,439.01086 773.4353,438.53779 C 773.20496,438.06472 770.85531,438.06472 770.85531,438.06472 C 770.85531,438.06472 776.93673,439.01085 771.22388,436.96093 C 765.51102,434.91099 765.14244,434.75329 765.14244,434.75329 C 765.14244,434.75329 771.22388,433.80718 770.85531,432.38799 C 770.48673,430.96881 763.66815,429.07657 763.66815,429.07657 C 763.66815,429.07657 767.95279,429.1554 767.53816,427.34202 C 767.4115,426.78809 764.22101,426.86895 764.22101,426.86895 C 764.22101,426.86895 766.66282,425.33151 765.14244,424.34595 C 763.62208,423.36041 757.03389,422.92678 758.1396,422.92678 C 759.24532,422.92678 772.14531,421.82296 772.14531,421.82296 C 772.14531,421.82296 769.55779,420.26715 771.77674,420.24611 C 774.1462,420.22364 783.89704,424.51898 785.03989,418.35386 C 786.31892,411.45401 771.55042,415.84353 771.03959,416.14624 C 771.03959,416.14624 774.44888,414.41169 773.06675,413.46554 C 771.6846,412.51944 765.51102,412.36175 765.51102,412.36175 C 765.51102,412.36175 768.18317,411.2185 767.72245,410.4695 C 767.26174,409.72049 763.66815,409.3657 763.66815,409.3657 C 763.66815,409.3657 765.78746,408.18305 765.32674,407.47345 C 764.86602,406.76386 761.8253,406.52734 761.8253,406.52734 C 761.8253,406.52734 763.2996,405.06873 763.1153,404.31971 C 762.93103,403.57071 761.08816,403.53128 761.08816,403.53128 L 761.27246,403.53128 L 760.35102,400.8506 C 760.35102,400.8506 764.74227,402.59637 766.58511,401.96562 C 769.74469,400.44879 765.55851,398.3478 763.66815,397.2238 C 763.66815,397.2238 766.06387,397.53919 765.8796,396.75075 C 765.69531,395.96231 763.85247,394.54313 763.85247,394.54313 C 763.85247,394.54313 765.64925,395.05562 765.69531,393.91238 C 765.74139,392.76914 764.03673,389.9702 764.03673,389.9702 C 764.26642,390.46153 769.50783,393.7894 768.64387,389.65482 C 768.48169,388.87872 767.35388,386.97414 767.35388,386.97414 C 767.35388,386.97414 768.82817,388.31447 769.19673,386.97414 C 769.5653,385.63383 768.82816,381.61279 768.82816,381.61279 C 768.89206,382.05011 773.20831,386.76074 773.80387,381.92818 C 773.97814,380.51409 773.4353,377.51293 773.4353,377.51293 C 773.4353,377.51293 774.86353,378.22254 775.46245,377.51293 C 776.06138,376.80334 774.9096,374.67456 775.83102,374.67456 C 776.75245,374.67456 777.53568,375.463 778.22673,374.51688 C 778.91779,373.57076 777.67388,371.04777 778.59532,370.89008 C 779.51673,370.73239 780.43817,365.37104 780.80673,366.00178 C 781.17531,366.63253 784.03173,372.30928 785.59816,373.57076 C 787.1646,374.83225 787.07245,371.04777 787.07245,371.04777 L 787.99388,375.14762 C 787.99388,375.14762 790.20531,371.99389 790.3896,372.62463 C 790.57388,373.25538 789.83673,380.03592 789.83673,380.03592 L 791.4953,379.72054 L 793.15388,386.97414 L 795.54959,385.39729 L 795.54959,391.07401 L 796.65531,391.07401 L 797.20816,395.96231 C 797.71315,397.71899 797.50562,404.10224 800.70959,402.76526 C 802.92102,404.34749 806.86735,402.14707 806.68308,399.60031 C 806.54592,397.70514 803.47388,394.38543 803.47388,394.38543 L 798.68245,391.38938 L 799.4196,390.60095 L 796.47102,386.02804 L 797.94533,385.87035 L 793.70673,381.61279 L 798.31388,381.61279 L 795.73388,377.986 C 795.73388,377.986 797.23215,379.62891 798.68245,378.30137 C 800.66352,376.48798 798.49816,373.76785 799.2353,371.36313 C 801.63102,372.39292 806.60673,378.57113 807.52816,373.72845 C 807.82513,372.1677 806.60673,370.89008 806.60673,370.89008 L 809.37101,370.57471 L 807.71244,364.10954 C 807.71244,364.10954 810.52281,366.67197 811.21387,366.00178 C 811.90495,365.33162 810.47673,361.42886 810.47673,361.42886 C 810.47673,361.42886 812.27353,363.08456 812.87245,362.37499 C 813.47138,361.66538 812.13529,358.59049 812.87245,358.59049 C 813.60958,358.59049 815.49851,360.12793 816.37388,359.37893 C 817.24924,358.62992 815.45244,355.59445 816.37388,355.59445 C 817.2953,355.59445 818.44708,357.44727 819.50672,356.06751 C 820.56638,354.68774 820.61245,350.07539 820.61245,350.07539 C 820.61245,350.07539 823.10029,353.78104 824.48244,354.64832 C 825.86458,355.51561 825.95672,352.91376 826.14101,353.54451 C 826.32531,354.17526 826.78602,356.10692 828.16817,356.69826 C 829.55029,357.28958 831.66958,355.90983 831.66958,355.90983 C 831.66958,355.90983 830.84031,359.18183 832.03816,359.852 C 833.23601,360.52217 836.46102,358.59049 836.46102,358.59049 C 836.46102,358.59049 836.13851,361.70481 836.82959,362.53266 C 837.52065,363.36053 839.2253,361.90192 839.2253,361.90192 C 839.2253,361.90192 838.53422,365.44988 839.59386,366.31716 C 840.65349,367.18444 843.46386,365.37104 843.46386,365.37104 C 843.46386,365.37104 841.81991,368.4078 842.17388,369.62859 C 843.4178,373.91864 848.43958,368.16304 848.43958,368.05172 C 848.43958,368.05172 847.01137,373.72845 847.14959,375.46301 C 847.2878,377.19757 849.0385,373.8073 848.99243,374.98993 C 848.94635,376.1726 846.85301,379.55059 846.9653,380.19361 C 847.70244,384.41478 857.28529,377.52714 857.28529,377.35524 C 857.28529,377.35524 856.22565,381.65221 856.73243,383.03198 C 857.23921,384.41174 859.31244,382.87429 859.31244,382.87429 C 859.31244,382.87429 857.19314,385.35785 857.46957,386.02804 C 857.746,386.6982 861.15529,385.08192 860.41815,385.55497 C 859.681,386.02804 857.51564,388.15681 857.101,389.02409 C 856.68638,389.89136 860.60243,388.07796 858.75957,389.02409 L 846.9653,395.80462 C 844.48161,398.09951 840.37989,402.03749 842.35816,404.17323 C 847.20697,409.40806 852.49019,403.64011 852.4685,397.86576 L 855.25815,392.49318 L 858.57529,390.44326 C 858.57529,390.44326 858.43708,392.05955 859.49673,391.38938 C 860.55637,390.71921 862.81385,387.76258 862.81385,387.76258 C 862.81385,387.76258 863.551,390.44326 864.28814,389.81252 C 865.02529,389.18177 868.06596,386.26457 869.4481,386.02804 C 870.83022,385.7915 869.07957,389.33947 869.81673,388.8664 C 870.55387,388.39333 874.60816,386.34341 874.60816,386.34341 C 874.60816,386.34341 872.76534,390.1279 875.71386,388.39333 C 878.66245,386.65878 881.42676,386.18571 881.42676,386.18571 C 881.42676,386.18571 879.16923,388.66928 878.8467,390.1279 C 878.5242,391.5865 880.13667,392.02014 880.13667,392.02014 C 880.13667,392.02014 877.69493,393.87295 877.92532,395.0162 C 878.15567,396.15942 881.05814,396.59305 881.05814,396.59305 C 881.05814,396.59305 878.1556,398.52471 878.29385,399.7468 C 878.43209,400.96887 882.71676,400.37755 881.61097,401.48137 C 880.5053,402.58515 877.1421,403.88609 877.37247,405.89658 C 877.60283,407.90709 883.26959,409.52338 882.53244,409.52338 C 881.7953,409.52338 880.78172,410.11471 880.5053,410.78488 C 880.22888,411.45505 882.16383,412.20406 881.42676,412.20406 C 880.68961,412.20406 878.84677,411.57331 878.66245,412.20406 C 878.47816,412.83481 880.68961,414.72706 880.68961,414.72706 C 880.68961,414.72706 876.86568,414.88475 877.37247,416.46161 C 877.87926,418.03848 882.71676,421.03453 882.71676,421.03453 C 882.71676,421.03453 878.93889,421.78356 877.92532,422.7691 C 876.91175,423.75462 879.39962,424.97672 878.66245,424.97672 C 877.92532,424.97672 876.08247,424.97672 876.08247,424.97672 C 876.08247,424.97672 877.37247,427.34202 876.08247,427.18433 C 874.28579,425.25865 860.85285,421.07527 860.73975,425.4656 C 860.6444,429.16645 875.34532,430.42742 875.34532,429.39194 C 875.34532,429.39194 872.58103,429.23425 873.68671,430.18037 C 874.79241,431.12651 882.71676,435.38404 882.71676,435.38404 C 882.71676,435.38404 876.17467,435.22638 874.05534,435.85711 C 871.93607,436.48786 874.9767,437.90704 874.23955,437.90704 C 873.5024,437.90704 870.50782,436.88208 869.81673,437.74936 C 869.12564,438.61664 871.47526,441.37615 871.47526,441.37615 L 866.68387,439.95698 C 866.68387,439.95698 868.89528,444.3722 867.60528,444.3722 C 866.31529,444.3722 862.62958,441.73095 860.97101,441.84921 C 859.31244,441.96749 862.26102,444.84527 860.97101,444.84527 C 859.681,444.84527 856.54815,443.89914 856.54815,443.89914 C 856.54815,443.89914 860.78673,448.62975 859.12815,448.62975 C 857.46957,448.62975 851.75673,447.99901 851.75673,447.99901 C 851.75673,447.99901 853.231,449.2605 852.49385,449.2605 C 851.75673,449.2605 848.80815,448.15669 848.80815,448.15669 L 849.36101,451.6258 C 849.36101,451.6258 846.19458,448.96284 844.20101,449.10282 C 840.00294,449.39757 842.35816,454.93723 842.35816,454.93723 L 838.67244,451.31043 L 836.27673,449.89125 L 835.53959,452.25656 L 833.32815,449.10282 L 830.56387,451.31043 L 832.00112,445.3566 C 832.00112,445.3566 827.96024,451.36838 827.30453,451.03988 C 825.61719,450.19452 825.86951,441.36202 828.16817,435.22638 C 829.78717,430.90486 822.27102,428.60351 822.27102,428.60351 C 822.27102,428.60351 826.18156,444.25108 823.02636,454.82575 C 816.35738,477.17692 810.19328,471.65332 802.61443,468.93457 L 801.81831,465.43339 z"
           id="path21323"
           style="fill:#eac102;fill-opacity:1;fill-rule:evenodd;stroke:#000000;stroke-width:0.821854;stroke-linecap:butt;stroke-linejoin:miter;stroke-miterlimit:4;stroke-dasharray:none;stroke-opacity:1;display:inline" />
        <g
           id="g21325"
           style="fill:#008f4c;fill-opacity:1;stroke:#000000;stroke-width:0.821854;stroke-linecap:round;stroke-miterlimit:4;stroke-dasharray:none;stroke-opacity:1">
          <path
             d="M 823.5,359 L 823.25,358.5 C 827.07306,365.8906 826.78662,374.50852 825.25,382.25 C 822.15465,397.84431 820.61276,412.83719 821.25,428.5 C 838.615,413.22148 852.72951,418.44194 859.75,412.25 C 866.45803,406.33365 871.79082,399.15986 874,393.25"
             id="path21327"
             style="fill:none;fill-opacity:1;fill-rule:evenodd;stroke:#000000;stroke-width:0.821854;stroke-linecap:round;stroke-linejoin:miter;stroke-miterlimit:4;stroke-dasharray:none;stroke-opacity:1" />
          <path
             d="M 822.25,427.75 C 805.49027,412.69054 785.19769,417.04597 783,396 C 781.79477,389.92287 781.90542,386.4775 782,383"
             id="path21329"
             style="fill:none;fill-opacity:1;fill-rule:evenodd;stroke:#000000;stroke-width:0.821854;stroke-linecap:round;stroke-linejoin:miter;stroke-miterlimit:4;stroke-dasharray:none;stroke-opacity:1" />
          <path
             d="M 821,427.25 C 809.51138,432.8834 784.66562,433.72244 778.75,430"
             id="path21331"
             style="fill:#eac102;fill-opacity:1;fill-rule:evenodd;stroke:#000000;stroke-width:0.821854;stroke-linecap:round;stroke-linejoin:miter;stroke-miterlimit:4;stroke-dasharray:none;stroke-opacity:1" />
          <path
             d="M 822.5,427.5 C 829.4141,426.75171 835.78562,426.36514 838.75,428.25 C 851.29096,433.45934 862.41126,434.72664 864.75,434.75"
             id="path21333"
             style="fill:#eac102;fill-opacity:1;fill-rule:evenodd;stroke:#000000;stroke-width:0.821854;stroke-linecap:round;stroke-linejoin:miter;stroke-miterlimit:4;stroke-dasharray:none;stroke-opacity:1" />
        </g>
      </g>
      <g
         transform="matrix(1.1205628,0.3582767,-0.2416901,1.2290714,-539.39948,-313.38356)"
         id="g21311"
         style="fill:#008f4c;fill-opacity:1;stroke:#000000;stroke-width:0.82651865;stroke-linecap:round;stroke-miterlimit:4;stroke-dasharray:none;stroke-opacity:1" />
      <g
         transform="matrix(-1.0065722,0.7946216,-0.8673322,-1.0126776,1506.4128,390.38846)"
         id="g20384"
         style="fill:#008f4c;fill-opacity:1;stroke:#000000;stroke-width:0.76504713;stroke-miterlimit:4;stroke-dasharray:none;stroke-opacity:1">
        <path
           d="M 821.34959,472.91356 L 820.24386,428.91888 C 820.24386,428.91888 815.29419,434.86593 815.30744,435.19931 C 815.72081,445.59052 810.56688,452.05788 808.67318,448.97218 C 807.74276,447.78068 808.48886,445.72843 804.39531,446.16088 L 799.4196,451.15273 C 799.4196,451.15273 799.46565,448.35382 798.31388,448.47207 C 797.16209,448.59032 794.81245,451.6258 794.81245,451.6258 L 794.62815,450.04894 L 792.78531,451.46812 C 792.78531,451.46812 793.33818,450.00952 791.67959,450.3643 C 790.02102,450.7191 786.15103,452.8873 786.15103,452.8873 C 786.15103,452.8873 788.17815,447.32883 787.62531,445.94909 C 787.07245,444.56932 783.93961,447.36825 783.93961,447.36825 C 783.93961,447.36825 784.49244,445.39719 783.75531,445.16064 C 783.01817,444.92411 780.99101,446.42213 780.99101,446.42213 C 780.99101,446.42213 781.54387,444.5299 780.80673,444.5299 C 780.06959,444.5299 773.25103,445.00295 773.25103,445.00295 C 773.25103,445.00295 776.1996,441.84921 775.83102,440.58772 C 775.46244,439.32622 771.77674,439.95698 771.77674,439.95698 C 771.77674,439.95698 773.66566,439.01086 773.4353,438.53779 C 773.20496,438.06472 770.85531,438.06472 770.85531,438.06472 C 770.85531,438.06472 776.93673,439.01085 771.22388,436.96093 C 765.51102,434.91099 765.14244,434.75329 765.14244,434.75329 C 765.14244,434.75329 771.22388,433.80718 770.85531,432.38799 C 770.48673,430.96881 763.66815,429.07657 763.66815,429.07657 C 763.66815,429.07657 767.95279,429.1554 767.53816,427.34202 C 767.4115,426.78809 764.22101,426.86895 764.22101,426.86895 C 764.22101,426.86895 766.66282,425.33151 765.14244,424.34595 C 763.62208,423.36041 757.03389,422.92678 758.1396,422.92678 C 759.24532,422.92678 772.14531,421.82296 772.14531,421.82296 C 772.14531,421.82296 769.55779,420.26715 771.77674,420.24611 C 774.1462,420.22364 783.89704,424.51898 785.03989,418.35386 C 786.31892,411.45401 771.55042,415.84353 771.03959,416.14624 C 771.03959,416.14624 774.44888,414.41169 773.06675,413.46554 C 771.6846,412.51944 765.51102,412.36175 765.51102,412.36175 C 765.51102,412.36175 768.18317,411.2185 767.72245,410.4695 C 767.26174,409.72049 763.66815,409.3657 763.66815,409.3657 C 763.66815,409.3657 765.78746,408.18305 765.32674,407.47345 C 764.86602,406.76386 761.8253,406.52734 761.8253,406.52734 C 761.8253,406.52734 763.2996,405.06873 763.1153,404.31971 C 762.93103,403.57071 761.08816,403.53128 761.08816,403.53128 L 761.27246,403.53128 L 760.35102,400.8506 C 760.35102,400.8506 764.74227,402.59637 766.58511,401.96562 C 769.74469,400.44879 765.55851,398.3478 763.66815,397.2238 C 763.66815,397.2238 766.06387,397.53919 765.8796,396.75075 C 765.69531,395.96231 763.85247,394.54313 763.85247,394.54313 C 763.85247,394.54313 765.64925,395.05562 765.69531,393.91238 C 765.74139,392.76914 764.03673,389.9702 764.03673,389.9702 C 764.26642,390.46153 769.50783,393.7894 768.64387,389.65482 C 768.48169,388.87872 767.35388,386.97414 767.35388,386.97414 C 767.35388,386.97414 768.82817,388.31447 769.19673,386.97414 C 769.5653,385.63383 768.82816,381.61279 768.82816,381.61279 C 768.89206,382.05011 773.20831,386.76074 773.80387,381.92818 C 773.97814,380.51409 773.4353,377.51293 773.4353,377.51293 C 773.4353,377.51293 774.86353,378.22254 775.46245,377.51293 C 776.06138,376.80334 774.9096,374.67456 775.83102,374.67456 C 776.75245,374.67456 777.53568,375.463 778.22673,374.51688 C 778.91779,373.57076 777.67388,371.04777 778.59532,370.89008 C 779.51673,370.73239 780.43817,365.37104 780.80673,366.00178 C 781.17531,366.63253 784.03173,372.30928 785.59816,373.57076 C 787.1646,374.83225 787.07245,371.04777 787.07245,371.04777 L 787.99388,375.14762 C 787.99388,375.14762 790.20531,371.99389 790.3896,372.62463 C 790.57388,373.25538 789.83673,380.03592 789.83673,380.03592 L 791.4953,379.72054 L 793.15388,386.97414 L 795.54959,385.39729 L 795.54959,391.07401 L 796.65531,391.07401 L 797.20816,395.96231 C 797.71315,397.71899 797.50562,404.10224 800.70959,402.76526 C 802.92102,404.34749 806.86735,402.14707 806.68308,399.60031 C 806.54592,397.70514 803.47388,394.38543 803.47388,394.38543 L 798.68245,391.38938 L 799.4196,390.60095 L 796.47102,386.02804 L 797.94533,385.87035 L 793.70673,381.61279 L 798.31388,381.61279 L 795.73388,377.986 C 795.73388,377.986 797.23215,379.62891 798.68245,378.30137 C 800.66352,376.48798 798.49816,373.76785 799.2353,371.36313 C 801.63102,372.39292 806.60673,378.57113 807.52816,373.72845 C 807.82513,372.1677 806.60673,370.89008 806.60673,370.89008 L 809.37101,370.57471 L 807.71244,364.10954 C 807.71244,364.10954 810.52281,366.67197 811.21387,366.00178 C 811.90495,365.33162 810.47673,361.42886 810.47673,361.42886 C 810.47673,361.42886 812.27353,363.08456 812.87245,362.37499 C 813.47138,361.66538 812.13529,358.59049 812.87245,358.59049 C 813.60958,358.59049 815.49851,360.12793 816.37388,359.37893 C 817.24924,358.62992 815.45244,355.59445 816.37388,355.59445 C 817.2953,355.59445 818.44708,357.44727 819.50672,356.06751 C 820.56638,354.68774 820.61245,350.07539 820.61245,350.07539 C 820.61245,350.07539 823.10029,353.78104 824.48244,354.64832 C 825.86458,355.51561 825.95672,352.91376 826.14101,353.54451 C 826.32531,354.17526 826.78602,356.10692 828.16817,356.69826 C 829.55029,357.28958 831.66958,355.90983 831.66958,355.90983 C 831.66958,355.90983 830.84031,359.18183 832.03816,359.852 C 833.23601,360.52217 836.46102,358.59049 836.46102,358.59049 C 836.46102,358.59049 836.13851,361.70481 836.82959,362.53266 C 837.52065,363.36053 839.2253,361.90192 839.2253,361.90192 C 839.2253,361.90192 838.53422,365.44988 839.59386,366.31716 C 840.65349,367.18444 843.46386,365.37104 843.46386,365.37104 C 843.46386,365.37104 841.81991,368.4078 842.17388,369.62859 C 843.4178,373.91864 848.43958,368.16304 848.43958,368.05172 C 848.43958,368.05172 847.01137,373.72845 847.14959,375.46301 C 847.2878,377.19757 849.0385,373.8073 848.99243,374.98993 C 848.94635,376.1726 846.85301,379.55059 846.9653,380.19361 C 847.70244,384.41478 857.28529,377.52714 857.28529,377.35524 C 857.28529,377.35524 856.22565,381.65221 856.73243,383.03198 C 857.23921,384.41174 859.31244,382.87429 859.31244,382.87429 C 859.31244,382.87429 857.19314,385.35785 857.46957,386.02804 C 857.746,386.6982 861.15529,385.08192 860.41815,385.55497 C 859.681,386.02804 857.51564,388.15681 857.101,389.02409 C 856.68638,389.89136 860.60243,388.07796 858.75957,389.02409 L 846.9653,395.80462 C 844.48161,398.09951 840.37989,402.03749 842.35816,404.17323 C 847.20697,409.40806 852.49019,403.64011 852.4685,397.86576 L 855.25815,392.49318 L 858.57529,390.44326 C 858.57529,390.44326 858.43708,392.05955 859.49673,391.38938 C 860.55637,390.71921 862.81385,387.76258 862.81385,387.76258 C 862.81385,387.76258 863.551,390.44326 864.28814,389.81252 C 865.02529,389.18177 868.06596,386.26457 869.4481,386.02804 C 870.83022,385.7915 869.07957,389.33947 869.81673,388.8664 C 870.55387,388.39333 874.60816,386.34341 874.60816,386.34341 C 874.60816,386.34341 872.76534,390.1279 875.71386,388.39333 C 878.66245,386.65878 881.42676,386.18571 881.42676,386.18571 C 881.42676,386.18571 879.16923,388.66928 878.8467,390.1279 C 878.5242,391.5865 880.13667,392.02014 880.13667,392.02014 C 880.13667,392.02014 877.69493,393.87295 877.92532,395.0162 C 878.15567,396.15942 881.05814,396.59305 881.05814,396.59305 C 881.05814,396.59305 878.1556,398.52471 878.29385,399.7468 C 878.43209,400.96887 882.71676,400.37755 881.61097,401.48137 C 880.5053,402.58515 877.1421,403.88609 877.37247,405.89658 C 877.60283,407.90709 883.26959,409.52338 882.53244,409.52338 C 881.7953,409.52338 880.78172,410.11471 880.5053,410.78488 C 880.22888,411.45505 882.16383,412.20406 881.42676,412.20406 C 880.68961,412.20406 878.84677,411.57331 878.66245,412.20406 C 878.47816,412.83481 880.68961,414.72706 880.68961,414.72706 C 880.68961,414.72706 876.86568,414.88475 877.37247,416.46161 C 877.87926,418.03848 882.71676,421.03453 882.71676,421.03453 C 882.71676,421.03453 878.93889,421.78356 877.92532,422.7691 C 876.91175,423.75462 879.39962,424.97672 878.66245,424.97672 C 877.92532,424.97672 876.08247,424.97672 876.08247,424.97672 C 876.08247,424.97672 877.37247,427.34202 876.08247,427.18433 C 874.28579,425.25865 860.85285,421.07527 860.73975,425.4656 C 860.6444,429.16645 875.34532,430.42742 875.34532,429.39194 C 875.34532,429.39194 872.58103,429.23425 873.68671,430.18037 C 874.79241,431.12651 882.71676,435.38404 882.71676,435.38404 C 882.71676,435.38404 876.17467,435.22638 874.05534,435.85711 C 871.93607,436.48786 874.9767,437.90704 874.23955,437.90704 C 873.5024,437.90704 870.50782,436.88208 869.81673,437.74936 C 869.12564,438.61664 871.47526,441.37615 871.47526,441.37615 L 866.68387,439.95698 C 866.68387,439.95698 868.89528,444.3722 867.60528,444.3722 C 866.31529,444.3722 862.62958,441.73095 860.97101,441.84921 C 859.31244,441.96749 862.26102,444.84527 860.97101,444.84527 C 859.681,444.84527 856.54815,443.89914 856.54815,443.89914 C 856.54815,443.89914 860.78673,448.62975 859.12815,448.62975 C 857.46957,448.62975 851.75673,447.99901 851.75673,447.99901 C 851.75673,447.99901 853.231,449.2605 852.49385,449.2605 C 851.75673,449.2605 848.80815,448.15669 848.80815,448.15669 L 849.36101,451.6258 C 849.36101,451.6258 846.19458,448.96284 844.20101,449.10282 C 840.00294,449.39757 842.35816,454.93723 842.35816,454.93723 L 838.67244,451.31043 L 836.27673,449.89125 L 835.53959,452.25656 L 833.32815,449.10282 L 830.56387,451.31043 L 832.00112,445.3566 C 832.00112,445.3566 827.96024,451.36838 827.30453,451.03988 C 825.61719,450.19452 825.86951,441.36202 828.16817,435.22638 C 829.78717,430.90486 822.27102,428.60351 822.27102,428.60351 L 823.56101,473.38661 L 821.34959,472.91356 z"
           id="path10836"
           style="fill:#eac102;fill-opacity:1;fill-rule:evenodd;stroke:#000000;stroke-width:0.76504713;stroke-linecap:butt;stroke-linejoin:miter;stroke-miterlimit:4;stroke-dasharray:none;stroke-opacity:1;display:inline" />
        <g
           id="g19493"
           style="fill:#008f4c;fill-opacity:1;stroke:#000000;stroke-width:0.76504713;stroke-linecap:round;stroke-miterlimit:4;stroke-dasharray:none;stroke-opacity:1">
          <path
             d="M 823.5,359 L 823.25,358.5 C 827.07306,365.8906 826.78662,374.50852 825.25,382.25 C 822.15465,397.84431 820.61276,412.83719 821.25,428.5 C 838.615,413.22148 852.72951,418.44194 859.75,412.25 C 866.45803,406.33365 871.79082,399.15986 874,393.25"
             id="path18600"
             style="fill:none;fill-opacity:1;fill-rule:evenodd;stroke:#000000;stroke-width:0.76504713;stroke-linecap:round;stroke-linejoin:miter;stroke-miterlimit:4;stroke-dasharray:none;stroke-opacity:1" />
          <path
             d="M 822.25,427.75 C 805.49027,412.69054 785.19769,417.04597 783,396 C 781.79477,389.92287 781.90542,386.4775 782,383"
             id="path18602"
             style="fill:none;fill-opacity:1;fill-rule:evenodd;stroke:#000000;stroke-width:0.76504713;stroke-linecap:round;stroke-linejoin:miter;stroke-miterlimit:4;stroke-dasharray:none;stroke-opacity:1" />
          <path
             d="M 821,427.25 C 809.51138,432.8834 784.66562,433.72244 778.75,430"
             id="path18604"
             style="fill:#eac102;fill-opacity:1;fill-rule:evenodd;stroke:#000000;stroke-width:0.76504713;stroke-linecap:round;stroke-linejoin:miter;stroke-miterlimit:4;stroke-dasharray:none;stroke-opacity:1" />
          <path
             d="M 822.5,427.5 C 829.4141,426.75171 835.78562,426.36514 838.75,428.25 C 851.29096,433.45934 862.41126,434.72664 864.75,434.75"
             id="path18606"
             style="fill:#008f4c;fill-opacity:1;fill-rule:evenodd;stroke:#000000;stroke-width:0.76504713;stroke-linecap:round;stroke-linejoin:miter;stroke-miterlimit:4;stroke-dasharray:none;stroke-opacity:1" />
        </g>
      </g>
      <path
         d="M 783.94189,599.6351 C 773.91604,596.25971 768.4251,585.0968 771.67563,574.69817 C 774.92617,564.29954 785.68805,558.60044 795.71669,561.9669 C 805.74534,565.33336 811.24552,576.49138 808.00359,586.8929 C 804.76167,597.29442 794.00451,603.0031 783.97308,599.64557"
         transform="matrix(0.6036853,0,0,0.6989676,-158.6793,250.93501)"
         id="path11535"
         style="fill:#630b57;fill-opacity:1;fill-rule:evenodd;stroke:#000000;stroke-width:1.53945208;stroke-linecap:round;stroke-linejoin:round;stroke-miterlimit:4;stroke-dasharray:none;stroke-dashoffset:0;stroke-opacity:1" />
      <path
         d="M 783.94189,599.6351 C 773.91604,596.25971 768.4251,585.0968 771.67563,574.69817 C 774.92617,564.29954 785.68805,558.60044 795.71669,561.9669 C 805.74534,565.33336 811.24552,576.49138 808.00359,586.8929 C 804.76167,597.29442 794.00451,603.0031 783.97308,599.64557"
         transform="matrix(0.6036853,0,0,0.6989676,-162.59438,238.08464)"
         id="path11505"
         style="fill:#630b57;fill-opacity:1;fill-rule:evenodd;stroke:#000000;stroke-width:1.53945208;stroke-linecap:round;stroke-linejoin:round;stroke-miterlimit:4;stroke-dasharray:none;stroke-dashoffset:0;stroke-opacity:1" />
      <path
         d="M 783.94189,599.6351 C 773.91604,596.25971 768.4251,585.0968 771.67563,574.69817 C 774.92617,564.29954 785.68805,558.60044 795.71669,561.9669 C 805.74534,565.33336 811.24552,576.49138 808.00359,586.8929 C 804.76167,597.29442 794.00451,603.0031 783.97308,599.64557"
         transform="matrix(0.6036853,0,0,0.6989676,-184.79159,213.37236)"
         id="path11507"
         style="fill:#630b57;fill-opacity:1;fill-rule:evenodd;stroke:#000000;stroke-width:1.53945208;stroke-linecap:round;stroke-linejoin:round;stroke-miterlimit:4;stroke-dasharray:none;stroke-dashoffset:0;stroke-opacity:1" />
      <path
         d="M 783.94189,599.6351 C 773.91604,596.25971 768.4251,585.0968 771.67563,574.69817 C 774.92617,564.29954 785.68805,558.60044 795.71669,561.9669 C 805.74534,565.33336 811.24552,576.49138 808.00359,586.8929 C 804.76167,597.29442 794.00451,603.0031 783.97308,599.64557"
         transform="matrix(0.6036853,0,0,0.6989676,-219.79493,215.34939)"
         id="path11509"
         style="fill:#630b57;fill-opacity:1;fill-rule:evenodd;stroke:#000000;stroke-width:1.53945208;stroke-linecap:round;stroke-linejoin:round;stroke-miterlimit:4;stroke-dasharray:none;stroke-dashoffset:0;stroke-opacity:1" />
      <path
         d="M 783.94189,599.6351 C 773.91604,596.25971 768.4251,585.0968 771.67563,574.69817 C 774.92617,564.29954 785.68805,558.60044 795.71669,561.9669 C 805.74534,565.33336 811.24552,576.49138 808.00359,586.8929 C 804.76167,597.29442 794.00451,603.0031 783.97308,599.64557"
         transform="matrix(0.6036853,0,0,0.6989676,-171.13175,202.49901)"
         id="path11513"
         style="fill:#630b57;fill-opacity:1;fill-rule:evenodd;stroke:#000000;stroke-width:1.53945208;stroke-linecap:round;stroke-linejoin:round;stroke-miterlimit:4;stroke-dasharray:none;stroke-dashoffset:0;stroke-opacity:1" />
      <path
         d="M 783.94189,599.6351 C 773.91604,596.25971 768.4251,585.0968 771.67563,574.69817 C 774.92617,564.29954 785.68805,558.60044 795.71669,561.9669 C 805.74534,565.33336 811.24552,576.49138 808.00359,586.8929 C 804.76167,597.29442 794.00451,603.0031 783.97308,599.64557"
         transform="matrix(0.6036853,0,0,0.6989676,-160.03312,215.34939)"
         id="path11515"
         style="fill:#630b57;fill-opacity:1;fill-rule:evenodd;stroke:#000000;stroke-width:1.53945208;stroke-linecap:round;stroke-linejoin:round;stroke-miterlimit:4;stroke-dasharray:none;stroke-dashoffset:0;stroke-opacity:1" />
      <path
         d="M 783.94189,599.6351 C 773.91604,596.25971 768.4251,585.0968 771.67563,574.69817 C 774.92617,564.29954 785.68805,558.60044 795.71669,561.9669 C 805.74534,565.33336 811.24552,576.49138 808.00359,586.8929 C 804.76167,597.29442 794.00451,603.0031 783.97308,599.64557"
         transform="matrix(0.6036853,0,0,0.6989676,-221.5024,264.77381)"
         id="path11523"
         style="fill:#630b57;fill-opacity:1;fill-rule:evenodd;stroke:#000000;stroke-width:1.53945208;stroke-linecap:round;stroke-linejoin:round;stroke-miterlimit:4;stroke-dasharray:none;stroke-dashoffset:0;stroke-opacity:1" />
      <path
         d="M 783.94189,599.6351 C 773.91604,596.25971 768.4251,585.0968 771.67563,574.69817 C 774.92617,564.29954 785.68805,558.60044 795.71669,561.9669 C 805.74534,565.33336 811.24552,576.49138 808.00359,586.8929 C 804.76167,597.29442 794.00451,603.0031 783.97308,599.64557"
         transform="matrix(0.6036853,0,0,0.6989676,-212.96501,248.95799)"
         id="path11519"
         style="fill:#630b57;fill-opacity:1;fill-rule:evenodd;stroke:#000000;stroke-width:1.53945208;stroke-linecap:round;stroke-linejoin:round;stroke-miterlimit:4;stroke-dasharray:none;stroke-dashoffset:0;stroke-opacity:1" />
      <path
         d="M 783.94189,599.6351 C 773.91604,596.25971 768.4251,585.0968 771.67563,574.69817 C 774.92617,564.29954 785.68805,558.60044 795.71669,561.9669 C 805.74534,565.33336 811.24552,576.49138 808.00359,586.8929 C 804.76167,597.29442 794.00451,603.0031 783.97308,599.64557"
         transform="matrix(0.6036853,0,0,0.6989676,-222.50263,239.07311)"
         id="path11521"
         style="fill:#630b57;fill-opacity:1;fill-rule:evenodd;stroke:#000000;stroke-width:1.53945208;stroke-linecap:round;stroke-linejoin:round;stroke-miterlimit:4;stroke-dasharray:none;stroke-dashoffset:0;stroke-opacity:1" />
      <path
         d="M 269.82491,571.3939 C 266.40995,571.3939 264.2756,570.89965 264.2756,570.89965 C 232.5741,594.52517 207.22272,627.49537 184.45093,658.87523 L 179.75535,652.94429 C 276.93385,528.27685 317.52868,534.64965 324.46427,525.42914 L 330.44044,529.87735 C 300.50347,544.40766 294.18494,544.87321 270.67865,565.46297 C 274.94735,567.5068 279.64292,568.42092 283.91162,585.727 L 285.6191,613.40471 L 281.3504,613.40471 C 279.68899,600.17188 282.14669,577.9128 269.82491,571.3939 z"
         id="path11555"
         style="fill:#eac102;fill-opacity:1;fill-rule:evenodd;stroke:#000000;stroke-width:0.99999994;stroke-linecap:butt;stroke-linejoin:miter;stroke-miterlimit:4;stroke-dasharray:none;stroke-opacity:1" />
      <path
         d="M 783.94189,599.6351 C 773.91604,596.25971 768.4251,585.0968 771.67563,574.69817 C 774.92617,564.29954 785.68805,558.60044 795.71669,561.9669 C 805.74534,565.33336 811.24552,576.49138 808.00359,586.8929 C 804.76167,597.29442 794.00451,603.0031 783.97308,599.64557"
         transform="matrix(0.6036853,0,0,0.6989676,-178.31531,227.21121)"
         id="path11531"
         style="fill:#630b57;fill-opacity:1;fill-rule:evenodd;stroke:#000000;stroke-width:1.53945208;stroke-linecap:round;stroke-linejoin:round;stroke-miterlimit:4;stroke-dasharray:none;stroke-dashoffset:0;stroke-opacity:1" />
      <path
         d="M 783.94189,599.6351 C 773.91604,596.25971 768.4251,585.0968 771.67563,574.69817 C 774.92617,564.29954 785.68805,558.60044 795.71669,561.9669 C 805.74534,565.33336 811.24552,576.49138 808.00359,586.8929 C 804.76167,597.29442 794.00451,603.0031 783.97308,599.64557"
         transform="matrix(0.6036853,0,0,0.6989676,-208.69631,229.18825)"
         id="path11533"
         style="fill:#630b57;fill-opacity:1;fill-rule:evenodd;stroke:#000000;stroke-width:1.53945208;stroke-linecap:round;stroke-linejoin:round;stroke-miterlimit:4;stroke-dasharray:none;stroke-dashoffset:0;stroke-opacity:1" />
      <path
         d="M 783.94189,599.6351 C 773.91604,596.25971 768.4251,585.0968 771.67563,574.69817 C 774.92617,564.29954 785.68805,558.60044 795.71669,561.9669 C 805.74534,565.33336 811.24552,576.49138 808.00359,586.8929 C 804.76167,597.29442 794.00451,603.0031 783.97308,599.64557"
         transform="matrix(0.6036853,0,0,0.6989676,-201.69089,213.61686)"
         id="path11511"
         style="fill:#630b57;fill-opacity:1;fill-rule:evenodd;stroke:#000000;stroke-width:1.53945208;stroke-linecap:round;stroke-linejoin:round;stroke-miterlimit:4;stroke-dasharray:none;stroke-dashoffset:0;stroke-opacity:1" />
      <path
         d="M 783.94189,599.6351 C 773.91604,596.25971 768.4251,585.0968 771.67563,574.69817 C 774.92617,564.29954 785.68805,558.60044 795.71669,561.9669 C 805.74534,565.33336 811.24552,576.49138 808.00359,586.8929 C 804.76167,597.29442 794.00451,603.0031 783.97308,599.64557"
         transform="matrix(0.6036853,0,0,0.6989676,-163.44811,292.45152)"
         id="path11543"
         style="fill:#630b57;fill-opacity:1;fill-rule:evenodd;stroke:#000000;stroke-width:1.53945208;stroke-linecap:round;stroke-linejoin:round;stroke-miterlimit:4;stroke-dasharray:none;stroke-dashoffset:0;stroke-opacity:1" />
      <path
         d="M 783.94189,599.6351 C 773.91604,596.25971 768.4251,585.0968 771.67563,574.69817 C 774.92617,564.29954 785.68805,558.60044 795.71669,561.9669 C 805.74534,565.33336 811.24552,576.49138 808.00359,586.8929 C 804.76167,597.29442 794.00451,603.0031 783.97308,599.64557"
         transform="matrix(0.6036853,0,0,0.6989676,-175.40048,295.00758)"
         id="path11541"
         style="fill:#630b57;fill-opacity:1;fill-rule:evenodd;stroke:#000000;stroke-width:1.53945208;stroke-linecap:round;stroke-linejoin:round;stroke-miterlimit:4;stroke-dasharray:none;stroke-dashoffset:0;stroke-opacity:1" />
      <path
         d="M 783.94189,599.6351 C 773.91604,596.25971 768.4251,585.0968 771.67563,574.69817 C 774.92617,564.29954 785.68805,558.60044 795.71669,561.9669 C 805.74534,565.33336 811.24552,576.49138 808.00359,586.8929 C 804.76167,597.29442 794.00451,603.0031 783.97308,599.64557"
         transform="matrix(0.6036853,0,0,0.6989676,-168.42405,270.70476)"
         id="path11537"
         style="fill:#630b57;fill-opacity:1;fill-rule:evenodd;stroke:#000000;stroke-width:1.53945208;stroke-linecap:round;stroke-linejoin:round;stroke-miterlimit:4;stroke-dasharray:none;stroke-dashoffset:0;stroke-opacity:1" />
      <path
         d="M 783.94189,599.6351 C 773.91604,596.25971 768.4251,585.0968 771.67563,574.69817 C 774.92617,564.29954 785.68805,558.60044 795.71669,561.9669 C 805.74534,565.33336 811.24552,576.49138 808.00359,586.8929 C 804.76167,597.29442 794.00451,603.0031 783.97308,599.64557"
         transform="matrix(0.6036853,0,0,0.6989676,-206.13509,291.46304)"
         id="path11547"
         style="fill:#630b57;fill-opacity:1;fill-rule:evenodd;stroke:#000000;stroke-width:1.53945208;stroke-linecap:round;stroke-linejoin:round;stroke-miterlimit:4;stroke-dasharray:none;stroke-dashoffset:0;stroke-opacity:1" />
      <path
         d="M 783.94189,599.6351 C 773.91604,596.25971 768.4251,585.0968 771.67563,574.69817 C 774.92617,564.29954 785.68805,558.60044 795.71669,561.9669 C 805.74534,565.33336 811.24552,576.49138 808.00359,586.8929 C 804.76167,597.29442 794.00451,603.0031 783.97308,599.64557"
         transform="matrix(0.6036853,0,0,0.6989676,-204.57408,271.69324)"
         id="path11525"
         style="fill:#630b57;fill-opacity:1;fill-rule:evenodd;stroke:#000000;stroke-width:1.53945208;stroke-linecap:round;stroke-linejoin:round;stroke-miterlimit:4;stroke-dasharray:none;stroke-dashoffset:0;stroke-opacity:1" />
      <path
         d="M 783.94189,599.6351 C 773.91604,596.25971 768.4251,585.0968 771.67563,574.69817 C 774.92617,564.29954 785.68805,558.60044 795.71669,561.9669 C 805.74534,565.33336 811.24552,576.49138 808.00359,586.8929 C 804.76167,597.29442 794.00451,603.0031 783.97308,599.64557"
         transform="matrix(0.6036853,0,0,0.6989676,-183.93786,315.18678)"
         id="path11549"
         style="fill:#630b57;fill-opacity:1;fill-rule:evenodd;stroke:#000000;stroke-width:1.53945208;stroke-linecap:round;stroke-linejoin:round;stroke-miterlimit:4;stroke-dasharray:none;stroke-dashoffset:0;stroke-opacity:1" />
      <path
         d="M 783.94189,599.6351 C 773.91604,596.25971 768.4251,585.0968 771.67563,574.69817 C 774.92617,564.29954 785.68805,558.60044 795.71669,561.9669 C 805.74534,565.33336 811.24552,576.49138 808.00359,586.8929 C 804.76167,597.29442 794.00451,603.0031 783.97308,599.64557"
         transform="matrix(0.6036853,0,0,0.6989676,-189.91403,334.95659)"
         id="path11551"
         style="fill:#630b57;fill-opacity:1;fill-rule:evenodd;stroke:#000000;stroke-width:1.53945208;stroke-linecap:round;stroke-linejoin:round;stroke-miterlimit:4;stroke-dasharray:none;stroke-dashoffset:0;stroke-opacity:1" />
      <path
         d="M 783.94189,599.6351 C 773.91604,596.25971 768.4251,585.0968 771.67563,574.69817 C 774.92617,564.29954 785.68805,558.60044 795.71669,561.9669 C 805.74534,565.33336 811.24552,576.49138 808.00359,586.8929 C 804.76167,597.29442 794.00451,603.0031 783.97308,599.64557"
         transform="matrix(0.6036853,0,0,0.6989676,-201.01265,318.15229)"
         id="path11553"
         style="fill:#ed1c24;fill-opacity:1;fill-rule:evenodd;stroke:#000000;stroke-width:1.53945208;stroke-linecap:round;stroke-linejoin:round;stroke-miterlimit:4;stroke-dasharray:none;stroke-dashoffset:0;stroke-opacity:1" />
      <path
         d="M 783.94189,599.6351 C 773.91604,596.25971 768.4251,585.0968 771.67563,574.69817 C 774.92617,564.29954 785.68805,558.60044 795.71669,561.9669 C 805.74534,565.33336 811.24552,576.49138 808.00359,586.8929 C 804.76167,597.29442 794.00451,603.0031 783.97308,599.64557"
         transform="matrix(0.6036853,0,0,0.6989676,-201.01265,318.15229)"
         id="path11503"
         style="fill:#630b57;fill-opacity:1;fill-rule:evenodd;stroke:#000000;stroke-width:1.53945208;stroke-linecap:round;stroke-linejoin:round;stroke-miterlimit:4;stroke-dasharray:none;stroke-dashoffset:0;stroke-opacity:1" />
      <path
         d="M 783.94189,599.6351 C 773.91604,596.25971 768.4251,585.0968 771.67563,574.69817 C 774.92617,564.29954 785.68805,558.60044 795.71669,561.9669 C 805.74534,565.33336 811.24552,576.49138 808.00359,586.8929 C 804.76167,597.29442 794.00451,603.0031 783.97308,599.64557"
         transform="matrix(0.6036853,0,0,0.6989676,-195.59726,300.59932)"
         id="path11545"
         style="fill:#630b57;fill-opacity:1;fill-rule:evenodd;stroke:#000000;stroke-width:1.53945208;stroke-linecap:round;stroke-linejoin:round;stroke-miterlimit:4;stroke-dasharray:none;stroke-dashoffset:0;stroke-opacity:1" />
      <path
         d="M 783.94189,599.6351 C 773.91604,596.25971 768.4251,585.0968 771.67563,574.69817 C 774.92617,564.29954 785.68805,558.60044 795.71669,561.9669 C 805.74534,565.33336 811.24552,576.49138 808.00359,586.8929 C 804.76167,597.29442 794.00451,603.0031 783.97308,599.64557"
         transform="matrix(0.6036853,0,0,0.6989676,-189.06029,284.54362)"
         id="path11539"
         style="fill:#630b57;fill-opacity:1;fill-rule:evenodd;stroke:#000000;stroke-width:1.53945208;stroke-linecap:round;stroke-linejoin:round;stroke-miterlimit:4;stroke-dasharray:none;stroke-dashoffset:0;stroke-opacity:1" />
      <path
         d="M 783.94189,599.6351 C 773.91604,596.25971 768.4251,585.0968 771.67563,574.69817 C 774.92617,564.29954 785.68805,558.60044 795.71669,561.9669 C 805.74534,565.33336 811.24552,576.49138 808.00359,586.8929 C 804.76167,597.29442 794.00451,603.0031 783.97308,599.64557"
         transform="matrix(0.6036853,0,0,0.6989676,-183.08413,263.78533)"
         id="path11527"
         style="fill:#630b57;fill-opacity:1;fill-rule:evenodd;stroke:#000000;stroke-width:1.53945208;stroke-linecap:round;stroke-linejoin:round;stroke-miterlimit:4;stroke-dasharray:none;stroke-dashoffset:0;stroke-opacity:1" />
      <path
         d="M 783.94189,599.6351 C 773.91604,596.25971 768.4251,585.0968 771.67563,574.69817 C 774.92617,564.29954 785.68805,558.60044 795.71669,561.9669 C 805.74534,565.33336 811.24552,576.49138 808.00359,586.8929 C 804.76167,597.29442 794.00451,603.0031 783.97308,599.64557"
         transform="matrix(0.6036853,0,0,0.6989676,-180.52287,248.95799)"
         id="path11529"
         style="fill:#630b57;fill-opacity:1;fill-rule:evenodd;stroke:#000000;stroke-width:1.53945208;stroke-linecap:round;stroke-linejoin:round;stroke-miterlimit:4;stroke-dasharray:none;stroke-dashoffset:0;stroke-opacity:1" />
      <path
         d="M 783.94189,599.6351 C 773.91604,596.25971 768.4251,585.0968 771.67563,574.69817 C 774.92617,564.29954 785.68805,558.60044 795.71669,561.9669 C 805.74534,565.33336 811.24552,576.49138 808.00359,586.8929 C 804.76167,597.29442 794.00451,603.0031 783.97308,599.64557"
         transform="matrix(0.6036853,0,0,0.6989676,-196.74395,253.90046)"
         id="path11501"
         style="fill:#630b57;fill-opacity:1;fill-rule:evenodd;stroke:#000000;stroke-width:1.53945208;stroke-linecap:round;stroke-linejoin:round;stroke-miterlimit:4;stroke-dasharray:none;stroke-dashoffset:0;stroke-opacity:1" />
      <path
         d="M 783.94189,599.6351 C 773.91604,596.25971 768.4251,585.0968 771.67563,574.69817 C 774.92617,564.29954 785.68805,558.60044 795.71669,561.9669 C 805.74534,565.33336 811.24552,576.49138 808.00359,586.8929 C 804.76167,597.29442 794.00451,603.0031 783.97308,599.64557"
         transform="matrix(0.6036853,0,0,0.6989676,-192.47525,233.14216)"
         id="path11517"
         style="fill:#630b57;fill-opacity:1;fill-rule:evenodd;stroke:#000000;stroke-width:1.53945208;stroke-linecap:round;stroke-linejoin:round;stroke-miterlimit:4;stroke-dasharray:none;stroke-dashoffset:0;stroke-opacity:1" />
    </g>
  </g>
</svg>
