<?xml version="1.0" encoding="UTF-8" standalone="no"?>
<!-- Created with Inkscape (http://www.inkscape.org/) -->
<svg
   xmlns:svg="http://www.w3.org/2000/svg"
   xmlns="http://www.w3.org/2000/svg"
   version="1.0"
   width="669.90106"
   height="841.46576"
   id="svg3194">
  <defs
     id="defs3196" />
  <g
     transform="translate(3.5218136,-104.25357)"
     id="layer1"
     style="stroke-width:1;stroke-miterlimit:4;stroke-dasharray:none;display:inline">
    <path
       d="M 81.979878,345.22979 C 82.184157,465.98288 81.569036,586.72885 82.292388,707.47349 C 86.139278,815.83758 169.07336,914.83435 274.98616,937.71948 C 293.85892,942.31739 313.15642,944.39658 332.42552,944.21937 C 413.19722,943.47622 493.3107,902.37001 537.96345,834.06504 C 571.08564,786.75103 583.28979,728.22037 580.55859,671.22412 C 580.55858,562.55824 580.55859,453.89567 580.55859,345.22979 C 497.85261,345.2298 415.13148,345.22979 332.42552,345.22979 C 248.93833,345.2298 165.46713,345.22979 81.979878,345.22979 z"
       id="path5214"
       style="fill:#eac102;fill-opacity:1;fill-rule:evenodd;stroke:#000000;stroke-width:1;stroke-linecap:butt;stroke-linejoin:miter;marker:none;marker-start:none;marker-mid:none;marker-end:none;stroke-miterlimit:4;stroke-dasharray:none;stroke-dashoffset:0;stroke-opacity:1;visibility:visible;display:inline;overflow:visible;enable-background:accumulate" />
  </g>
  <g
     transform="translate(59.950535,-180.89391)"
     id="layer4"
     style="stroke-width:1;stroke-miterlimit:4;stroke-dasharray:none;display:inline">
    <g
       transform="translate(873.00016,-55.320157)"
       id="g5818"
       style="stroke-width:1;stroke-miterlimit:4;stroke-dasharray:none" />
    <g
       transform="translate(873.00016,-55.320157)"
       id="g5820"
       style="stroke-width:1;stroke-miterlimit:4;stroke-dasharray:none" />
    <g
       transform="translate(873.00016,-55.320157)"
       id="g5822"
       style="stroke-width:1;stroke-miterlimit:4;stroke-dasharray:none" />
    <path
       d="M 80.5625,421.85972 L 80.5625,926.92222 C 96.426968,946.71298 115.19474,964.09416 136.125,978.35972 L 136.125,421.85972 C 117.60413,421.85972 99.083906,421.85972 80.5625,421.85972 z M 191.65625,421.85972 L 191.65625,1006.5472 C 200.45061,1009.629 209.38671,1012.3771 218.5625,1014.3597 C 228.02938,1016.6661 237.59532,1018.319 247.21875,1019.391 L 247.21875,421.85972 C 228.69686,421.85972 210.17728,421.85972 191.65625,421.85972 z M 302.78125,421.85972 L 302.78125,1019.0472 C 321.71623,1016.7968 340.37039,1012.3679 358.34375,1005.9535 L 358.34375,421.85972 C 339.82194,421.85972 321.30221,421.85972 302.78125,421.85972 z M 413.875,421.85972 L 413.875,978.20347 C 434.87411,964.25878 453.71707,947.15541 469.4375,927.29722 L 469.4375,421.85972 C 450.91603,421.85972 432.39698,421.85972 413.875,421.85972 z"
       id="path4838"
       style="fill:#ed1c24;fill-opacity:1;fill-rule:evenodd;stroke:#000000;stroke-width:1;stroke-linecap:butt;stroke-linejoin:miter;marker:none;marker-start:none;marker-mid:none;marker-end:none;stroke-miterlimit:4;stroke-dasharray:none;stroke-dashoffset:0;stroke-opacity:1;visibility:visible;display:inline;overflow:visible;enable-background:accumulate" />
  </g>
  <g
     transform="translate(59.950535,-180.89391)"
     id="layer5"
     style="display:inline">
    <g
       transform="translate(-582.73933,640.16742)"
       id="g5438"
       style="display:inline" />
    <g
       transform="translate(-526.31061,563.52708)"
       id="g5440"
       style="display:inline" />
    <g
       transform="translate(-526.31061,563.52708)"
       id="g5559" />
    <g
       transform="translate(-526.31061,563.52708)"
       id="g5561"
       style="display:inline" />
  </g>
  <g
     transform="translate(59.950535,-180.89391)"
     id="layer6"
     style="display:inline" />
  <g
     transform="translate(59.95054,-180.89391)"
     id="layer2"
     style="stroke:#000000;stroke-width:3;stroke-miterlimit:4;stroke-dasharray:none;stroke-opacity:1;display:inline">
    <path
       d="M 25.551338,421.8597 C 25.755618,542.60442 25.140218,663.36252 25.863568,784.09879 C 29.710448,892.45536 112.65087,991.42494 218.56342,1014.3084 C 316.54625,1038.1783 426.23573,995.28134 481.54083,910.68722 C 514.66293,863.37649 526.86093,804.82707 524.12973,747.83477 C 524.12973,639.17641 524.12973,530.51805 524.12973,421.8597 C 357.93693,421.8597 191.7442,421.8597 25.551338,421.8597 z"
       id="path2302"
       style="fill:none;fill-opacity:1;fill-rule:evenodd;stroke:#000000;stroke-width:3;stroke-linecap:butt;stroke-linejoin:miter;marker:none;marker-start:none;marker-mid:none;marker-end:none;stroke-miterlimit:4;stroke-dasharray:none;stroke-dashoffset:0;stroke-opacity:1;visibility:visible;display:inline;overflow:visible;enable-background:accumulate" />
  </g>
  <path
     d="M 201.62269,697.59134 L 201.62269,682.70617 C 215.35794,681.84683 224.53618,680.47184 226.90048,678.58122 C 228.47661,677.20626 229.65875,674.97192 230.44688,671.87818 C 231.68526,667.75326 231.34488,646.45917 231.68268,621.53755 C 232.35814,580.28814 232.69589,549.17916 232.69593,528.21051 L 232.35818,419.1571 C 232.35814,390.28274 231.73893,373.61108 230.50054,369.14206 C 229.825,366.56429 228.75545,364.67369 227.29189,363.47026 C 225.04017,361.40811 217.04802,352.66074 202.18693,350.7698 L 201.62269,335.88463 C 219.41096,336.74436 232.58331,337.17404 241.13975,337.17368 C 250.59677,337.17404 261.34854,336.74436 273.39513,335.88463 C 299.28938,386.41561 328.56125,441.24304 361.21081,500.36708 C 382.93937,539.89802 396.60649,568.60422 412.36849,594.38504 L 412.93273,496.24213 C 412.9325,457.57095 413.15899,424.22762 412.48371,396.21206 C 412.03315,379.54069 412.26095,367.62155 410.91016,363.84001 C 410.23444,361.77787 408.99601,360.31695 407.19489,359.45726 C 405.39332,358.59823 400.89785,351.18851 386.93762,349.64132 L 386.37338,335.88463 C 398.64485,336.74436 410.86022,337.17404 423.01954,337.17368 C 439.68175,337.17404 454.76803,336.74436 468.2784,335.88463 L 467.14993,350.20556 C 454.54022,351.40901 448.06927,360.11906 445.48009,361.66558 C 444.01624,362.52528 442.83411,363.72839 441.93369,365.27492 C 441.03276,366.82211 440.35726,368.79864 439.90717,371.20454 C 439.11883,375.32981 438.6685,388.56402 438.55616,410.9072 L 438.04953,514.03098 L 437.71178,617.92821 C 437.71153,645.77168 436.97711,671.35814 437.76545,699.20154 L 454.18984,706.19629 C 440.56692,702.41508 416.27084,705.00106 410.64185,703.79794 C 381.70752,654.81418 343.92898,587.07711 302.94848,512.99976 C 282.2329,475.53166 265.51415,443.99299 252.79222,418.38367 L 252.79222,518.67156 C 252.79215,545.99952 253.07361,578.91317 253.63659,617.4126 C 253.97429,645.77168 254.19813,670.56314 255.43663,674.85994 C 255.8869,676.75056 256.73128,678.21148 257.96977,679.24269 C 260.1088,681.13333 268.77909,680.03087 282.8522,681.5777 L 282.8522,697.59134 C 264.61348,696.38823 251.55373,695.78667 243.6729,695.78667 C 237.14296,695.78667 223.12624,696.38823 201.62269,697.59134 L 201.62269,697.59134 z"
     id="text2598"
     style="font-size:427.3303833px;font-style:normal;font-variant:normal;font-weight:bold;font-stretch:normal;text-align:start;line-height:125%;writing-mode:lr-tb;text-anchor:start;fill:#e3e4e5;fill-opacity:1;stroke:#000000;stroke-width:1;stroke-linecap:butt;stroke-linejoin:miter;stroke-miterlimit:4;stroke-dasharray:none;stroke-opacity:1;font-family:Book Antiqua" />
  <g
     transform="translate(59.950538,-128.53423)"
     id="g3641"
     style="stroke-width:1;stroke-miterlimit:4;stroke-dasharray:none">
    <path
       d="M -59.597187,309.41187 C 232.45923,168.04886 306.05114,254.47895 488.8753,227.01249 L 475.29084,236.00151 C 296.99483,264.96614 225.08825,179.95086 -59.597187,322.89541 L -59.597187,309.41187 z"
       id="path3504"
       style="fill:#008f4c;fill-rule:evenodd;stroke:#000000;stroke-width:1;stroke-linecap:butt;stroke-linejoin:miter;stroke-miterlimit:4;stroke-dasharray:none;stroke-opacity:1" />
    <g
       transform="matrix(0.6514918,0,0,0.6365618,-27.741097,57.073062)"
       id="g3499"
       style="stroke:#000000;stroke-width:1.55283475;stroke-miterlimit:4;stroke-dasharray:none;stroke-opacity:1">
      <path
         d="M 118.73245,321.36424 C 111.30681,313.66685 117.41507,305.6264 118.31766,296.47979 C 129.44646,275.52627 136.60069,262.37754 159.76203,236.84614 C 182.92337,211.31471 250.59891,157.78692 284.69521,154.07616 C 318.79151,150.36539 328.22494,146.1919 346.40259,145.36205 C 364.58023,144.53219 378.18349,146.11958 393.56294,150.11733 C 399.0958,152.63985 423.42041,151.66689 407.297,153.31212 C 391.93517,172.40776 368.81285,192.07024 359.1682,209.78378 C 349.52355,227.49728 343.93187,225.95111 328.85844,243.4026 C 313.78501,260.85408 285.10591,281.00442 252.345,292.14502 C 219.5841,303.28562 174.34812,336.34908 149.49061,337.68867 C 124.63309,339.02825 127.2707,331.04304 122.38561,325.72106 C 119.53585,325.18553 106.77353,331.32136 105.61135,328.85586 C 103.91814,325.26379 98.049546,330.70954 99.797357,330.00565 C 101.59024,328.66601 117.43178,323.24601 118.73245,321.36424 z"
         id="path8593"
         style="fill:#008f4c;fill-rule:evenodd;stroke:#000000;stroke-width:1.55283475;stroke-linecap:butt;stroke-linejoin:miter;stroke-miterlimit:4;stroke-dasharray:none;stroke-opacity:1" />
      <path
         d="M 121.39181,323.6744 C 128.96333,317.83459 130.3719,315.32547 153.67649,299.19413 C 177.21173,282.90315 216.74475,263.01789 239.10094,244.09983 C 261.92673,224.78447 274.59875,209.34668 297.93324,196.37151 C 320.60952,183.76234 331.45284,177.44104 357.22703,170.30162 C 383.8192,162.93563 409.73592,151.92284 409.73592,151.92284"
         id="path8596"
         style="fill:#008f4c;fill-rule:evenodd;stroke:#000000;stroke-width:1.55283475;stroke-linecap:butt;stroke-linejoin:miter;stroke-miterlimit:4;stroke-dasharray:none;stroke-opacity:1" />
      <path
         d="M 171.96186,287.70891 C 184.66044,296.10247 207.81722,295.70144 220.78517,299.74417 M 202.89568,268.44494 C 221.81664,280.19506 242.56078,275.55738 259.43369,279.60598 M 235.79186,246.59871 C 237.36473,252.52435 289.51334,263.86666 290.28412,261.68871 M 259.51546,227.33893 C 265.9706,239.53003 314.70753,245.68222 314.73875,245.17796 M 281.02234,207.49125 C 299.1015,221.6274 313.8901,220.80021 330.27094,227.21351 M 309.54488,190.78172 C 316.76943,200.25007 333.40459,203.28785 340.9208,208.04551 M 336.97506,177.1589 C 343.63197,186.09133 355.3134,186.65268 362.23313,191.34017 M 145.17934,305.42742 C 141.33265,292.27142 144.16163,277.27561 145.91297,264.46621 M 162.59472,293.43771 C 158.89619,279.68994 159.6053,256.75209 162.53753,243.41487 M 183.74027,279.42582 C 178.78413,267.78603 180.27996,235.76264 179.86531,225.56176 M 206.17695,266.39497 C 200.63405,250.86893 201.29271,225.9093 201.65433,208.43525 M 227.71583,253.30869 C 224.67185,236.97285 227.2328,207.32793 228.99694,188.94893 M 256.20638,229.8378 C 252.8848,212.80889 258.17802,185.04781 260.46304,168.36602 M 294.11966,199.74035 C 291.64323,186.75024 294.55943,170.89155 296.62111,159.33921 M 313.80734,187.44064 C 313.02969,174.45877 320.38818,163.63462 325.00888,152.08439 M 330.04698,179.88431 C 329.0086,169.24985 341.33449,156.52933 347.75969,148.53616 M 367.353,166.87294 C 364.45092,160.38454 372.6303,154.58226 378.84508,148.65833 M 151.2652,301.74859 C 164.72123,310.03841 178.55872,312.16722 192.2904,316.00494"
         id="path2299"
         style="fill:#008f4c;fill-rule:evenodd;stroke:#000000;stroke-width:1.55283475;stroke-linecap:butt;stroke-linejoin:miter;stroke-miterlimit:4;stroke-dasharray:none;stroke-opacity:1" />
    </g>
    <g
       transform="matrix(0.6464759,7.4128341e-2,-8.581416e-2,0.6316609,282.64534,11.642798)"
       id="g3506"
       style="stroke:#000000;stroke-width:1.55283475;stroke-miterlimit:4;stroke-dasharray:none;stroke-opacity:1">
      <path
         d="M 118.73245,321.36424 C 111.30681,313.66685 117.41507,305.6264 118.31766,296.47979 C 129.44646,275.52627 136.60069,262.37754 159.76203,236.84614 C 182.92337,211.31471 250.59891,157.78692 284.69521,154.07616 C 318.79151,150.36539 328.22494,146.1919 346.40259,145.36205 C 364.58023,144.53219 378.18349,146.11958 393.56294,150.11733 C 399.0958,152.63985 423.42041,151.66689 407.297,153.31212 C 391.93517,172.40776 368.81285,192.07024 359.1682,209.78378 C 349.52355,227.49728 343.93187,225.95111 328.85844,243.4026 C 313.78501,260.85408 285.10591,281.00442 252.345,292.14502 C 219.5841,303.28562 174.34812,336.34908 149.49061,337.68867 C 124.63309,339.02825 127.2707,331.04304 122.38561,325.72106 C 119.53585,325.18553 110.75827,332.46294 107.97135,333.10026 C 106.956,333.3324 102.79461,333.89638 101.15309,332.55513 C 102.94597,331.21549 117.43178,323.24601 118.73245,321.36424 z"
         id="path3508"
         style="fill:#008f4c;fill-rule:evenodd;stroke:#000000;stroke-width:1.55283475;stroke-linecap:butt;stroke-linejoin:miter;stroke-miterlimit:4;stroke-dasharray:none;stroke-opacity:1" />
      <path
         d="M 119.48163,323.51896 C 127.05315,317.67915 130.3719,315.32547 153.67649,299.19413 C 177.21173,282.90315 216.74475,263.01789 239.10094,244.09983 C 261.92673,224.78447 274.59875,209.34668 297.93324,196.37151 C 320.60952,183.76234 331.45284,177.44104 357.22703,170.30162 C 383.8192,162.93563 409.73592,151.92284 409.73592,151.92284"
         id="path3510"
         style="fill:#008f4c;fill-rule:evenodd;stroke:#000000;stroke-width:1.55283475;stroke-linecap:butt;stroke-linejoin:miter;stroke-miterlimit:4;stroke-dasharray:none;stroke-opacity:1" />
      <path
         d="M 171.96186,287.70891 C 184.66044,296.10247 207.81722,295.70144 220.78517,299.74417 M 202.89568,268.44494 C 221.81664,280.19506 242.56078,275.55738 259.43369,279.60598 M 235.79186,246.59871 C 237.36473,252.52435 289.51334,263.86666 290.28412,261.68871 M 259.51546,227.33893 C 265.9706,239.53003 314.70753,245.68222 314.73875,245.17796 M 281.02234,207.49125 C 299.1015,221.6274 313.8901,220.80021 330.27094,227.21351 M 309.54488,190.78172 C 316.76943,200.25007 333.40459,203.28785 340.9208,208.04551 M 336.97506,177.1589 C 343.63197,186.09133 355.3134,186.65268 362.23313,191.34017 M 145.17934,305.42742 C 141.33265,292.27142 144.16163,277.27561 145.91297,264.46621 M 162.59472,293.43771 C 158.89619,279.68994 159.6053,256.75209 162.53753,243.41487 M 183.74027,279.42582 C 178.78413,267.78603 180.27996,235.76264 179.86531,225.56176 M 206.17695,266.39497 C 200.63405,250.86893 201.29271,225.9093 201.65433,208.43525 M 227.71583,253.30869 C 224.67185,236.97285 227.2328,207.32793 228.99694,188.94893 M 256.20638,229.8378 C 252.8848,212.80889 258.17802,185.04781 260.46304,168.36602 M 294.11966,199.74035 C 291.64323,186.75024 294.55943,170.89155 296.62111,159.33921 M 313.80734,187.44064 C 313.02969,174.45877 320.38818,163.63462 325.00888,152.08439 M 330.04698,179.88431 C 329.0086,169.24985 341.33449,156.52933 347.75969,148.53616 M 367.353,166.87294 C 364.45092,160.38454 372.6303,154.58226 378.84508,148.65833 M 151.2652,301.74859 C 164.72123,310.03841 178.55872,312.16722 192.2904,316.00494"
         id="path3512"
         style="fill:#008f4c;fill-rule:evenodd;stroke:#000000;stroke-width:1.55283475;stroke-linecap:butt;stroke-linejoin:miter;stroke-miterlimit:4;stroke-dasharray:none;stroke-opacity:1" />
    </g>
    <g
       transform="matrix(0.623949,-0.1721919,-0.1993368,-0.6096502,19.910586,504.76453)"
       id="g3514"
       style="stroke:#000000;stroke-width:1.55283475;stroke-miterlimit:4;stroke-dasharray:none;stroke-opacity:1">
      <path
         d="M 118.73245,321.36424 C 111.30681,313.66685 117.41507,305.6264 118.31766,296.47979 C 129.44646,275.52627 136.60069,262.37754 159.76203,236.84614 C 182.92337,211.31471 250.59891,157.78692 284.69521,154.07616 C 318.79151,150.36539 328.22494,146.1919 346.40259,145.36205 C 364.58023,144.53219 378.18349,146.11958 393.56294,150.11733 C 399.0958,152.63985 423.42041,151.66689 407.297,153.31212 C 391.93517,172.40776 368.81285,192.07024 359.1682,209.78378 C 349.52355,227.49728 343.93187,225.95111 328.85844,243.4026 C 313.78501,260.85408 285.10591,281.00442 252.345,292.14502 C 219.5841,303.28562 174.34812,336.34908 149.49061,337.68867 C 124.63309,339.02825 127.2707,331.04304 122.38561,325.72106 C 119.53585,325.18553 109.07614,335.2296 106.28922,335.86692 C 105.27387,336.09906 102.79461,333.89638 101.15309,332.55513 C 102.94597,331.21549 117.43178,323.24601 118.73245,321.36424 z"
         id="path3516"
         style="fill:#008f4c;fill-rule:evenodd;stroke:#000000;stroke-width:1.55283475;stroke-linecap:butt;stroke-linejoin:miter;stroke-miterlimit:4;stroke-dasharray:none;stroke-opacity:1" />
      <path
         d="M 123.57372,322.57115 C 131.14524,316.73134 130.3719,315.32547 153.67649,299.19413 C 177.21173,282.90315 216.74475,263.01789 239.10094,244.09983 C 261.92673,224.78447 274.59875,209.34668 297.93324,196.37151 C 320.60952,183.76234 331.45284,177.44104 357.22703,170.30162 C 383.8192,162.93563 409.73592,151.92284 409.73592,151.92284"
         id="path3518"
         style="fill:#008f4c;fill-rule:evenodd;stroke:#000000;stroke-width:1.55283475;stroke-linecap:butt;stroke-linejoin:miter;stroke-miterlimit:4;stroke-dasharray:none;stroke-opacity:1" />
      <path
         d="M 171.96186,287.70891 C 184.66044,296.10247 207.81722,295.70144 220.78517,299.74417 M 202.89568,268.44494 C 221.81664,280.19506 242.56078,275.55738 259.43369,279.60598 M 235.79186,246.59871 C 237.36473,252.52435 289.51334,263.86666 290.28412,261.68871 M 259.51546,227.33893 C 265.9706,239.53003 314.70753,245.68222 314.73875,245.17796 M 281.02234,207.49125 C 299.1015,221.6274 313.8901,220.80021 330.27094,227.21351 M 309.54488,190.78172 C 316.76943,200.25007 333.40459,203.28785 340.9208,208.04551 M 336.97506,177.1589 C 343.63197,186.09133 355.3134,186.65268 362.23313,191.34017 M 145.17934,305.42742 C 141.33265,292.27142 144.16163,277.27561 145.91297,264.46621 M 162.59472,293.43771 C 158.89619,279.68994 159.6053,256.75209 162.53753,243.41487 M 183.74027,279.42582 C 178.78413,267.78603 180.27996,235.76264 179.86531,225.56176 M 206.17695,266.39497 C 200.63405,250.86893 201.29271,225.9093 201.65433,208.43525 M 227.71583,253.30869 C 224.67185,236.97285 227.2328,207.32793 228.99694,188.94893 M 256.20638,229.8378 C 252.8848,212.80889 258.17802,185.04781 260.46304,168.36602 M 294.11966,199.74035 C 291.64323,186.75024 294.55943,170.89155 296.62111,159.33921 M 313.80734,187.44064 C 313.02969,174.45877 320.38818,163.63462 325.00888,152.08439 M 330.04698,179.88431 C 329.0086,169.24985 341.33449,156.52933 347.75969,148.53616 M 367.353,166.87294 C 364.45092,160.38454 372.6303,154.58226 378.84508,148.65833 M 151.2652,301.74859 C 164.72123,310.03841 178.55872,312.16722 192.2904,316.00494"
         id="path3520"
         style="fill:#008f4c;fill-rule:evenodd;stroke:#000000;stroke-width:1.55283475;stroke-linecap:butt;stroke-linejoin:miter;stroke-miterlimit:4;stroke-dasharray:none;stroke-opacity:1" />
    </g>
    <g
       transform="matrix(0.588272,0,0,0.4571109,699.8261,54.635725)"
       id="g3535"
       style="fill:#cd9615;fill-opacity:1;stroke-width:1.92841327;stroke-miterlimit:4;stroke-dasharray:none">
      <path
         d="M -398.77213,353.32635 C -374.52483,304.77676 -321.23736,291.86931 -267.16409,291.32233 C -246.32665,291.81544 -225.48125,292.72255 -204.66037,293.27574 C -160.95113,306.3911 -157.79001,359.73025 -153.23946,367.33311 C -157.67007,372.87336 -168.0293,426.24458 -178.39432,432.96565 C -234.4379,471.96715 -278.35037,475.6911 -345.48968,461.48588 C -365.74623,449.77715 -398.66803,402.50682 -404.70388,399.73095 C -400.72043,394.89474 -399.67029,373.8115 -398.77213,353.32635 z"
         id="path3522"
         style="fill:#cd9615;fill-opacity:1;fill-rule:evenodd;stroke:#000000;stroke-width:1.92841327;stroke-linecap:butt;stroke-linejoin:miter;stroke-miterlimit:4;stroke-dasharray:none;stroke-opacity:1" />
      <path
         d="M -403.60513,399.81147 C -324.06049,383.69802 -232.1151,387.61505 -153.65678,368.05574"
         id="path3525"
         style="fill:#cd9615;fill-opacity:1;fill-rule:evenodd;stroke:#000000;stroke-width:1.92841327;stroke-linecap:butt;stroke-linejoin:miter;stroke-miterlimit:4;stroke-dasharray:none;stroke-opacity:1" />
      <path
         d="M -358.53248,321.44653 C -271.3515,287.11392 -180.8028,307.10522 -180.8028,307.10522"
         id="path3527"
         style="fill:#cd9615;fill-opacity:1;fill-rule:evenodd;stroke:#000000;stroke-width:1.92841327;stroke-linecap:butt;stroke-linejoin:miter;stroke-miterlimit:4;stroke-dasharray:none;stroke-opacity:1" />
      <path
         d="M -381.06395,406.57917 C -290.57657,398.74331 -198.56976,381.30267 -160.82742,381.88485"
         id="path3529"
         style="fill:#cd9615;fill-opacity:1;fill-rule:evenodd;stroke:#000000;stroke-width:1.92841327;stroke-linecap:butt;stroke-linejoin:miter;stroke-miterlimit:4;stroke-dasharray:none;stroke-opacity:1" />
      <path
         d="M -401.08042,387.89058 C -342.60892,367.98381 -289.4313,379.96095 -232.65519,373.61725"
         id="path3531"
         style="fill:#cd9615;fill-opacity:1;fill-rule:evenodd;stroke:#000000;stroke-width:1.92841327;stroke-linecap:butt;stroke-linejoin:miter;stroke-miterlimit:4;stroke-dasharray:none;stroke-opacity:1" />
      <path
         d="M -173.65878,422.62234 C -235.30192,456.2046 -290.52148,443.45836 -339.70513,454.02365"
         id="path3533"
         style="fill:#cd9615;fill-opacity:1;fill-rule:evenodd;stroke:#000000;stroke-width:1.92841327;stroke-linecap:butt;stroke-linejoin:miter;stroke-miterlimit:4;stroke-dasharray:none;stroke-opacity:1" />
    </g>
    <g
       transform="matrix(0.2101272,0.5182766,-0.4605096,0.1438851,562.95908,385.33157)"
       id="g3543"
       style="fill:#cd9615;fill-opacity:1;stroke-width:1.92841339;stroke-miterlimit:4;stroke-dasharray:none">
      <path
         d="M -398.77213,353.32635 C -374.52483,304.77676 -321.23736,291.86931 -267.16409,291.32233 C -246.32665,291.81544 -225.48125,292.72255 -204.66037,293.27574 C -160.95113,306.3911 -157.79001,359.73025 -153.23946,367.33311 C -157.67007,372.87336 -168.0293,426.24458 -178.39432,432.96565 C -234.4379,471.96715 -278.35037,475.6911 -345.48968,461.48588 C -365.74623,449.77715 -398.66803,402.50682 -404.70388,399.73095 C -400.72043,394.89474 -399.67029,373.8115 -398.77213,353.32635 z"
         id="path3545"
         style="fill:#cd9615;fill-opacity:1;fill-rule:evenodd;stroke:#000000;stroke-width:1.92841339;stroke-linecap:butt;stroke-linejoin:miter;stroke-miterlimit:4;stroke-dasharray:none;stroke-opacity:1" />
      <path
         d="M -403.60513,399.81147 C -324.06049,383.69802 -232.1151,387.61505 -153.65678,368.05574"
         id="path3547"
         style="fill:#cd9615;fill-opacity:1;fill-rule:evenodd;stroke:#000000;stroke-width:1.92841339;stroke-linecap:butt;stroke-linejoin:miter;stroke-miterlimit:4;stroke-dasharray:none;stroke-opacity:1" />
      <path
         d="M -358.53248,321.44653 C -271.3515,287.11392 -180.8028,307.10522 -180.8028,307.10522"
         id="path3549"
         style="fill:#cd9615;fill-opacity:1;fill-rule:evenodd;stroke:#000000;stroke-width:1.92841339;stroke-linecap:butt;stroke-linejoin:miter;stroke-miterlimit:4;stroke-dasharray:none;stroke-opacity:1" />
      <path
         d="M -381.06395,406.57917 C -290.57657,398.74331 -198.56976,381.30267 -160.82742,381.88485"
         id="path3551"
         style="fill:#cd9615;fill-opacity:1;fill-rule:evenodd;stroke:#000000;stroke-width:1.92841339;stroke-linecap:butt;stroke-linejoin:miter;stroke-miterlimit:4;stroke-dasharray:none;stroke-opacity:1" />
      <path
         d="M -401.08042,387.89058 C -342.60892,367.98381 -289.4313,379.96095 -232.65519,373.61725"
         id="path3553"
         style="fill:#cd9615;fill-opacity:1;fill-rule:evenodd;stroke:#000000;stroke-width:1.92841339;stroke-linecap:butt;stroke-linejoin:miter;stroke-miterlimit:4;stroke-dasharray:none;stroke-opacity:1" />
      <path
         d="M -173.65878,422.62234 C -235.30192,456.2046 -290.52148,443.45836 -339.70513,454.02365"
         id="path3555"
         style="fill:#cd9615;fill-opacity:1;fill-rule:evenodd;stroke:#000000;stroke-width:1.92841339;stroke-linecap:butt;stroke-linejoin:miter;stroke-miterlimit:4;stroke-dasharray:none;stroke-opacity:1" />
    </g>
    <g
       transform="matrix(0.2913609,-0.4695073,0.4322439,0.2263991,-75.340608,17.361475)"
       id="g3557"
       style="fill:#cd9615;fill-opacity:1;stroke-width:1.92841339;stroke-miterlimit:4;stroke-dasharray:none">
      <path
         d="M -398.77213,353.32635 C -374.52483,304.77676 -321.23736,291.86931 -267.16409,291.32233 C -246.32665,291.81544 -225.48125,292.72255 -204.66037,293.27574 C -160.95113,306.3911 -157.79001,359.73025 -153.23946,367.33311 C -157.67007,372.87336 -168.0293,426.24458 -178.39432,432.96565 C -234.4379,471.96715 -278.35037,475.6911 -345.48968,461.48588 C -365.74623,449.77715 -398.66803,402.50682 -404.70388,399.73095 C -400.72043,394.89474 -399.67029,373.8115 -398.77213,353.32635 z"
         id="path3559"
         style="fill:#cd9615;fill-opacity:1;fill-rule:evenodd;stroke:#000000;stroke-width:1.92841339;stroke-linecap:butt;stroke-linejoin:miter;stroke-miterlimit:4;stroke-dasharray:none;stroke-opacity:1" />
      <path
         d="M -403.60513,399.81147 C -324.06049,383.69802 -232.1151,387.61505 -153.65678,368.05574"
         id="path3561"
         style="fill:#cd9615;fill-opacity:1;fill-rule:evenodd;stroke:#000000;stroke-width:1.92841339;stroke-linecap:butt;stroke-linejoin:miter;stroke-miterlimit:4;stroke-dasharray:none;stroke-opacity:1" />
      <path
         d="M -358.53248,321.44653 C -271.3515,287.11392 -180.8028,307.10522 -180.8028,307.10522"
         id="path3563"
         style="fill:#cd9615;fill-opacity:1;fill-rule:evenodd;stroke:#000000;stroke-width:1.92841339;stroke-linecap:butt;stroke-linejoin:miter;stroke-miterlimit:4;stroke-dasharray:none;stroke-opacity:1" />
      <path
         d="M -381.06395,406.57917 C -290.57657,398.74331 -198.56976,381.30267 -160.82742,381.88485"
         id="path3565"
         style="fill:#cd9615;fill-opacity:1;fill-rule:evenodd;stroke:#000000;stroke-width:1.92841339;stroke-linecap:butt;stroke-linejoin:miter;stroke-miterlimit:4;stroke-dasharray:none;stroke-opacity:1" />
      <path
         d="M -401.08042,387.89058 C -342.60892,367.98381 -289.4313,379.96095 -232.65519,373.61725"
         id="path3567"
         style="fill:#cd9615;fill-opacity:1;fill-rule:evenodd;stroke:#000000;stroke-width:1.92841339;stroke-linecap:butt;stroke-linejoin:miter;stroke-miterlimit:4;stroke-dasharray:none;stroke-opacity:1" />
      <path
         d="M -173.65878,422.62234 C -235.30192,456.2046 -290.52148,443.45836 -339.70513,454.02365"
         id="path3569"
         style="fill:#cd9615;fill-opacity:1;fill-rule:evenodd;stroke:#000000;stroke-width:1.92841339;stroke-linecap:butt;stroke-linejoin:miter;stroke-miterlimit:4;stroke-dasharray:none;stroke-opacity:1" />
    </g>
  </g>
</svg>
