<?xml version="1.0" encoding="utf-8"?><!DOCTYPE svg PUBLIC "-//W3C//DTD SVG 1.1//EN" "http://www.w3.org/Graphics/SVG/1.1/DTD/svg11.dtd"><svg viewBox="0 0 600 600" xmlns="http://www.w3.org/2000/svg"><g stroke="#000" stroke-linecap="round" stroke-linejoin="round"><path d="m.5 300 299.5 299.5 299.5-299.5-299.5-299.5z" fill="#eac102"/><path d="m150.25 441.1621c-2.6277-.0001-5.2333.2776-7.7793.8086l40.1328 40.1328c3.3745.9608 6.8827 1.4631 10.4316 1.4629 7.6325-.0004 15.0875-2.2924 21.3926-6.5762s13.762-6.5746 21.3945-6.5742 15.0875 2.2904 21.3926 6.5742 13.7601 6.5766 21.3926 6.5762 15.0875-2.2924 21.3926-6.5762v-29.252c-6.3051 4.2838-13.7601 6.5738-21.3926 6.5742s-15.0875-2.2904-21.3926-6.5742-13.76-6.5758-21.3926-6.5762-15.0894 2.2924-21.3945 6.5762-13.76 6.5738-21.3926 6.5742-15.0875-2.2904-21.3926-6.5742-13.7601-6.5758-21.3926-6.5762z" fill="#ed1c24" fill-rule="evenodd"/><path d="m150.25 382.6582c-7.6325-.0004-15.0875 2.2904-21.3926 6.5742s-13.7601 6.5758-21.3926 6.5762c-4.7135.0002-9.3598-.8753-13.709-2.5527l28.7207 28.7207c2.2233-.9534 4.3616-2.1183 6.3809-3.4902 6.3051-4.2838 13.7601-6.5766 21.3926-6.5762s15.0875 2.2924 21.3926 6.5762 13.7601 6.5746 21.3926 6.5742 15.0875-2.2904 21.3926-6.5742 13.762-6.5766 21.3945-6.5762 15.0875 2.2924 21.3926 6.5762 13.7601 6.5746 21.3926 6.5742 15.0875-2.2904 21.3926-6.5742v-29.2539c-6.3051 4.2838-13.7601 6.5758-21.3926 6.5762s-15.0875-2.2924-21.3926-6.5762-13.76-6.5738-21.3926-6.5742-15.0894 2.2904-21.3945 6.5742-13.76 6.5758-21.3926 6.5762-15.0875-2.2924-21.3926-6.5762-13.7601-6.5738-21.3926-6.5742z" fill="#ed1c24" fill-rule="evenodd"/><path d="m364.1777 308.0508c-7.6325-.0004-15.0875 2.2924-21.3926 6.5762s-13.7601 6.5738-21.3926 6.5742-15.087-2.2902-21.3926-6.5742v29.252c6.3056 4.284 13.7601 6.5746 21.3926 6.5742s15.0875-2.2904 21.3926-6.5742 13.7601-6.5766 21.3926-6.5762 15.0895 2.2924 21.3945 6.5762 13.7601 6.5746 21.3926 6.5742 15.0875-2.2904 21.3926-6.5742 13.7601-6.5766 21.3926-6.5762 15.0875 2.2924 21.3926 6.5762 13.7601 6.5746 21.3926 6.5742 15.0875-2.2904 21.3926-6.5742 13.762-6.5766 21.3945-6.5762c7.3683.0004 14.5679 2.1426 20.7305 6.1445l22.25-22.25c-.0652.0003-.1301.004-.1953.004-7.6325.0004-15.0875-2.2904-21.3926-6.5742s-13.76-6.5758-21.3926-6.5762-15.0894 2.2924-21.3945 6.5762-13.76 6.5738-21.3926 6.5742c-7.6325.0004-15.0875-2.2904-21.3926-6.5742s-13.7601-6.5758-21.3926-6.5762-15.0875 2.2924-21.3926 6.5762-13.7601 6.5738-21.3926 6.5742-15.0875-2.2904-21.3926-6.5742-13.762-6.5758-21.3945-6.5762z" fill="#ed1c24" fill-rule="evenodd"/><path d="m364.1777 249.5469c-7.6325-.0004-15.0875 2.2904-21.3926 6.5742s-13.7601 6.5758-21.3926 6.5762-15.087-2.2922-21.3926-6.5762v29.252c6.3056 4.284 13.7601 6.5766 21.3926 6.5762s15.0875-2.2924 21.3926-6.5762 13.7601-6.5746 21.3926-6.5742 15.0895 2.2904 21.3945 6.5742 13.7601 6.5766 21.3926 6.5762 15.0875-2.2924 21.3926-6.5762 13.7601-6.5746 21.3926-6.5742 15.0875 2.2904 21.3926 6.5742 13.7601 6.5766 21.3926 6.5762 15.0875-2.2924 21.3926-6.5762 13.762-6.5746 21.3945-6.5742 15.0875 2.2904 21.3926 6.5742 13.7601 6.5766 21.3926 6.5762c3.9409-.0002 7.8325-.6163 11.5449-1.7969l-35.7754-35.7754c-5.6528-3.1548-12.0378-4.8298-18.5547-4.8301-7.6325-.0004-15.0894 2.2904-21.3945 6.5742s-13.76 6.5758-21.3926 6.5762-15.0875-2.2924-21.3926-6.5762-13.7601-6.5738-21.3926-6.5742-15.0875 2.2904-21.3926 6.5742-13.7601 6.5758-21.3926 6.5762-15.0875-2.2924-21.3926-6.5762-13.762-6.5738-21.3945-6.5742z" fill="#ed1c24" fill-rule="evenodd"/><path d="m300 366.556h232.945l-232.945 232.944z" fill="#008f4c"/><path d="m300 233.444h232.945" fill="none"/><path d="m.5 300 66.555 66.556h232.945v-133.112h-232.945z" fill="#008f4c"/></g><g stroke="#000" stroke-linecap="round" stroke-linejoin="round"><g><path d="m382.4936 393.1034c-1.7279-1.1561-5.6447-1.9969-8.5491-1.9969s-6.8212.8408-8.5491 1.9969l8.5491 7.7794z" fill="#eac102"/><path d="m344.9052 396.4306c3.1257-3.2314 15.5415-5.7225 21.2572-3.7476 5.4317 1.8768 5.6734 5.0424 5.643 7.3046l-13.9552 2.6669z" fill="#eac102"/><path d="m343.7529 469.8593c-7.0463 1.8995-24.3084-12.2667-24.3084-34.5837 0-25.7747 16.9396-38.5416 26.4468-39.5807 8.787-.9604 13.071.6073 17.4769 5.1861z" fill="#eac102"/><path d="m402.9838 396.4306c-3.1256-3.2314-15.5415-5.7225-21.2572-3.7476-5.4317 1.8768-5.6734 5.0424-5.643 7.3046l13.9552 2.6669z" fill="#eac102"/><path d="m404.1361 469.8593c7.0463 1.8995 24.3084-12.2667 24.3084-34.5837 0-25.7747-16.9396-38.5416-26.4468-39.5807-8.787-.9604-13.0711.6073-17.477 5.1861z" fill="#eac102"/><path d="m374.4868 407.0307c-6.0466 0-15.2187-2.4942-15.2187-4.4111 0-5.5109 10.6185.3558 10.6185-10.2147 0-4.2843-1.4576-6.8895-5.7315-7.9035l2.0705-5.0018c3.8092.6963 11.5971 3.9267 11.5971 12.9052 0 10.9376 10.798 4.9233 10.798 10.2147 0 2.8895-8.4215 4.4111-14.134 4.4111z" fill="#c87137"/><path d="m355.2147 473.6796c-6.1104 1.458-11.0838-1.505-12.9958-3.8204-22.3689-27.0869-12.1731-61.9018 5.2881-68.5423 4.5809-1.7421 13.8957-.8529 14.4705 2.7144z" fill="#eac102"/><path d="m368.2443 475.6697c-3.8108 1.1351-11.7277.7015-13.687-1.9376-18.9705-25.5518-12.0103-64.5825 3.4737-69.6548 4.483-1.4686 10.4263-.9986 10.6912 1.0823z" fill="#eac102"/><path d="m392.6743 473.6796c6.1104 1.458 11.0838-1.505 12.9958-3.8204 22.3689-27.0869 12.1731-61.9018-5.288-68.5423-4.5809-1.7421-13.8957-.8529-14.4705 2.7144z" fill="#eac102"/><path d="m379.6447 475.6697c3.8108 1.1351 11.7276.7015 13.687-1.9376 18.9705-25.5518 12.0103-64.5825-3.4737-69.6548-4.483-1.4686-10.4263-.9986-10.6912 1.0823z" fill="#eac102"/><path d="m367.1486 476.0902c-5.9859-3.1705-12.5652-58.5776.1796-70.4695 2.0795-1.9403 3.3764-2.1564 6.6163-2.1564s4.5369.2161 6.6163 2.1564c12.7448 11.892 6.1656 67.299.1796 70.4695-2.2066 1.1687-4.8377 1.4099-6.796 1.4099s-4.5894-.2411-6.7959-1.4099z" fill="#eac102"/></g><g><path d="m183.7991 264.6036c-1.7279-1.1561-5.6447-1.9969-8.5491-1.9969s-6.8212.8408-8.5491 1.9969l8.5491 7.7794z" fill="#eac102"/><path d="m146.2107 267.9307c3.1257-3.2314 15.5415-5.7225 21.2572-3.7476 5.4317 1.8768 5.6734 5.0424 5.643 7.3046l-13.9552 2.6669z" fill="#eac102"/><path d="m145.0584 341.3594c-7.0463 1.8995-24.3084-12.2667-24.3084-34.5837 0-25.7747 16.9396-38.5416 26.4468-39.5807 8.787-.9604 13.071.6073 17.4769 5.1861z" fill="#eac102"/><path d="m204.2893 267.9307c-3.1256-3.2314-15.5415-5.7225-21.2572-3.7476-5.4317 1.8768-5.6734 5.0424-5.643 7.3046l13.9552 2.6669z" fill="#eac102"/><path d="m205.4416 341.3594c7.0463 1.8995 24.3084-12.2667 24.3084-34.5837 0-25.7747-16.9396-38.5416-26.4468-39.5807-8.787-.9604-13.0711.6073-17.477 5.1861z" fill="#eac102"/><path d="m175.7924 278.5309c-6.0466 0-15.2187-2.4942-15.2187-4.4111 0-5.5109 10.6185.3558 10.6185-10.2147 0-4.2843-1.4576-6.8895-5.7315-7.9035l2.0705-5.0018c3.8092.6963 11.5971 3.9267 11.5971 12.9052 0 10.9376 10.798 4.9233 10.798 10.2147 0 2.8895-8.4215 4.4111-14.134 4.4111z" fill="#c87137"/><path d="m156.5202 345.1798c-6.1104 1.458-11.0838-1.505-12.9958-3.8204-22.3689-27.0869-12.1731-61.9018 5.2881-68.5423 4.5809-1.7421 13.8957-.8529 14.4705 2.7144z" fill="#eac102"/><path d="m169.5498 347.1699c-3.8108 1.1351-11.7277.7015-13.687-1.9376-18.9705-25.5518-12.0103-64.5825 3.4737-69.6548 4.483-1.4686 10.4263-.9986 10.6912 1.0823z" fill="#eac102"/><path d="m193.9798 345.1798c6.1104 1.458 11.0838-1.505 12.9958-3.8204 22.3689-27.0869 12.1731-61.9018-5.288-68.5423-4.5809-1.7421-13.8957-.8529-14.4705 2.7144z" fill="#eac102"/><path d="m180.9502 347.1699c3.8108 1.1351 11.7276.7015 13.687-1.9376 18.9705-25.5518 12.0103-64.5825-3.4737-69.6548-4.483-1.4686-10.4263-.9986-10.6912 1.0823z" fill="#eac102"/><path d="m168.4541 347.5903c-5.9859-3.1705-12.5652-58.5776.1796-70.4695 2.0795-1.9403 3.3764-2.1564 6.6163-2.1564s4.5369.2161 6.6163 2.1564c12.7448 11.892 6.1656 67.299.1796 70.4695-2.2066 1.1687-4.8377 1.4099-6.796 1.4099s-4.5894-.2411-6.7959-1.4099z" fill="#eac102"/></g><g><path d="m265.2677 142.5012c-13.959.3457-45.9776-5.7208-45.9776-27.3938 0-11.8655 6.555-17.448 15.3923-17.448 3.1672 0 6.2858 1.5568 7.6349 4.1455 3.1753 6.0929-1.3075 9.5189-.2711 10.7078 1.0527 1.2078 5.919-6.3048 2.6619-12.0594-2.2364-3.9511-6.0383-6.0093-10.0257-6.0093-12.0104 0-19.1824 7.3663-19.1824 20.6634 0 26.6888 35.5164 31.0667 42.2983 32.0262" fill="#e5e5e5"/><path d="m252.8638 157.9703c.0004 3.2793.3991 4.9871 1.7996 7.7624 3.195 6.331 13.2981 12.8888 18.8323 18.8813 1.5742 1.7045 1.5053 3.4384.9113 5.002-1.6432 4.3253-3.8413 9.4091-5.1083 12.4698-.3263.7883-1.1489 2.0791-.6977 3.7271.2114.7722.5759 1.7122 1.2401 2.8539 2.2393 3.8494 6.0235 9.8948 9.1914 15.7215.7781 1.4311 2.4789 9.0558 5.6672 9.0558h4.3246c.9802-.0001 1.5597-.6311 1.4215-1.2811 1.0786-.4185 1.8368-.8617 2.357-1.2919 1.1789-.9748.9915-2.0235.1674-3.0195-1.3369-1.616-2.7958-2.7631-5.9599-2.9085-1.2316-.0564-2.5349-1.6973-3.2496-2.7894-1.0019-1.5308-1.9052-2.921-2.6908-4.2284-1.6291-2.7116-3.5216-6.827-4.5448-9.8942-.3173-.9511-.8597-2.6942-.1674-3.9241 1.8942-3.3649 5.1011-8.7752 8.8264-15.0575 1.9494-3.2876 2.1724-7.2009 1.8619-9.5722-1.377-10.5174-7.5779-22.5509-11.7206-27.3325" fill="#e5e5e5"/><path d="m358.1528 152.0306c2.4651 5.9989-.6874 16.0652-1.8728 21.4487-1.428 6.485-2.6454 19.7992-4.3257 26.545-.4784 1.92.2793 4.5462.7671 6.6021 1.3817 5.8232 2.7322 12.2292 3.8632 16.5676.2712 1.0404 1.051 2.4316 2.302 2.5816 2.8302.3395 5.1612.8946 6.1068 2.412.6761 1.085.6001 2.3487-.656 3.1305-.5541.3449-1.3212.6214-2.3363.777.0704.4095-.0856.7304-.4177.9371-.4417.275-1.0561.4118-1.7602.4118h-3.5766c-2.3198 0-5.1976-5.6861-4.9669-10.6731.1497-3.2374-3.3783-12.7746-5.543-17.0176-.6566-1.2869-1.6643-2.8822-1.2617-4.8967.8049-4.0267-1.3585-11.6499-.5764-22.5627.3101-4.3257-4.9845-13.2642-4.0389-21.5023" fill="#e5e5e5"/><path d="m352.3226 97.0005c1.0083-1.4048 1.879-1.8362 3.4017-1.9406 1.8921-.1296 3.7519-.6158 4.8533-.6158 1.0762 0 1.3237 2.2683 1.486 3.7694" fill="#e5e5e5"/><path d="m282.6761 164.3153c-3.609 1.5837-2.2083 5.1742-5.1076 4.5026-3.331-.7716-10.7267-.0754-12.9748-.1054l2.5318-6.6558" fill="#e5e5e5" fill-rule="evenodd"/><path d="m375.5068 115.8089c4.4137 1.0509 3.5543-.3758 4.2135-.7524 2.0583.3178 9.2762-.1555 8.4079-2.2291l.3119-2.9883c-5.2265-2.2153-6.9744-4.6463-12.2268-6.2488-1.2845-.3919-3.9553-1.109-4.2987-2.638-.2638-1.1751-1.1089-2.0687-2.2632-2.5423-4.2374-1.7383-8.3118-1.6942-11.5885-1.1608-4.2521.6922-7.0972 3.3579-8.0837 4.2688-9.3463 8.6289 2.6136 32.5992-30.582 36.7197-16.3014 2.0235-29.8139 3.5989-43.2355 2.3652-13.0413-1.1988-22.0276 5.2134-25.8405 11.9361l.0003 7.0437 17.7199 5.2152c19.7864-1.1214 38.565 7.9546 64.5307 7.9546 10.8507 0 22.9058-4.8256 27.7276-13.3364 6.3604-11.2267-3.341-24.1812 1.2641-43.2946 4.1292-.2601 8.9706-1.4966 13.9429-.3127z" fill="#e5e5e5"/><path d="m388.4401 109.8392c-.5425-.1652-1.7288.1262-3.4035.7706-.057 1.8886 2.7363 1.1491 3.0916 2.2177.7375-1.1326 1.3718-1.5605 1.3718-2.212 0-.3173-.2797-.5386-1.06-.7763z" fill-rule="evenodd"/><path d="m379.7203 115.0565c-4.3738-.8312-5.765-3.6003-10.6555-3.1451" fill="none"/><path d="m369.658 104.8796c-.1244.1544-.5181-2.0044.4548-2.3903-1.4311-.5854-2.2637-.5725-4.7624.7664 2.0765 1.0714 2.4178 1.5448 4.3076 1.6239z" fill="#e5e5e5"/><path d="m368.3381 103.3553c-.106.6139.1134 1.1739.4898 1.2506.3765.0769.7675-.3587.8734-.9725.106-.614-.1134-1.1738-.4898-1.2505-.3765-.0769-.7675.3586-.8734.9725z"/><path d="m354.5295 154.6731c1.0584 6.3983-4.2696 15.5034-6.6312 20.4849-2.8448 6.0007-7.0145 18.7045-10.1637 24.9028-.8964 1.7641-.7465 4.4933-.7317 6.6061.0419 5.9846-.0849 12.1677.0541 16.6489.0343 1.109.9944 2.2031 2.2454 2.3532 2.8301.3395 5.3747 1.0013 6.3203 2.5188.6761 1.085.6 2.3487-.656 3.1305-.5541.3449-1.3212.6214-2.3363.777.0704.4095-.0855.7304-.4177.9371-.4418.275-1.0561.4118-1.7603.4118h-3.5765c-2.3199 0-5.7003-6.0103-4.9392-11.0212.6113-4.0247-.3866-13.5502-1.5456-18.17-.3515-1.4012-.9763-3.1815-.1324-5.0547 1.6867-3.7442 1.2863-11.6581 4.4938-22.1187 1.2714-4.1465-1.8859-14.0428.8817-21.8601" fill="#e5e5e5"/><path d="m361.5638 116.1214c-1.3402.0845-2.6109.0917-3.7757-.1716-2.8801-.651-5.4552-1.8855-5.987-3.5789" fill="#e5e5e5"/><path d="m357.1931 98.2134c-.1623-1.5011-.4098-3.7694-1.486-3.7694-1.7987 0-4.9514 3.4635-5.1241 6.2444" fill="#e5e5e5"/><path d="m328.5417 153.531c-.5293 6.136.192 11.6575 3.7689 15.7757" fill="none"/><path d="m322.0994 153.6509c-.4127 6.1462.4133 11.6509 4.0677 15.6904" fill="none"/><path d="m315.3356 152.967c-.4894 6.1398.2677 11.6558 3.8713 15.7473" fill="none"/><path d="m355.7071 94.444c-.5545 0-1.0485.5534-1.1678 1.6533-.2275 2.0975-1.8712 3.4275-2.8012 5.1443-1.074 1.9828-2.2537 4.4337-3.2091 5.9555-.5601.8922-1.21 1.4775-1.9111 1.4936-2.016.0465-.1694-3.2415-.1883-6.6696-.0105-2.0051.4303-4.1956 1.0225-5.0207 1.0083-1.4048 1.879-1.8362 3.4017-1.9406 1.8921-.1296 3.7519-.6158 4.8533-.6158z" fill="#e5e5e5"/><path d="m342.6307 232.0951c-.4488-3.356-3.0327-3.18-6.738-3.5262" fill="none"/><path d="m362.0011 232.0951c-.4488-3.356-3.0327-3.18-6.738-3.5262" fill="none"/><path d="m250.3215 152.539c-1.3932 2.969-1.758 4.6844-1.6695 7.7915.2021 7.0877 6.5621 17.3129 9.0258 25.0871.7008 2.2113-.0983 3.7518-1.3006 4.9153-3.3257 3.2184-7.6577 6.8202-10.0256 9.1377-.6099.5969-1.7547 1.736-1.7547 3.4445 0 .8006.1034 1.8034.4424 3.0798 1.1433 4.3036 3.2338 11.876 4.7469 18.3326.7272 3.1033 2.4916 9.1166 5.68 9.1166h4.3246c.9802-.0001 1.5596-.6311 1.4214-1.2811 1.0786-.4185 1.8368-.8621 2.357-1.2919 1.1792-.9744.9915-2.0234.1674-3.0195-1.3368-1.616-2.7958-2.7631-5.9599-2.9085-1.2316-.0564-2.095-1.0323-2.5685-2.2312-.6784-1.7179-1.3712-3.3565-1.7836-4.8248-.8552-3.0452-2.0063-7.1209-1.7705-10.7423.0795-1.2218-.0506-2.7185 1.0623-3.5164 3.1392-2.2502 7.7063-5.1511 13.6584-9.2343 3.1526-2.1628 5.0268-5.5972 5.7534-7.8757 3.2228-10.1062 2.7225-23.6325 1.004-29.7198" fill="#e5e5e5"/><path d="m261.2123 232.163c-.6925-2.5987-.7042-3.8243-5.7176-3.5742" fill="none"/><path d="m290.4457 232.163c-.6925-2.5987-.7042-3.8243-5.7176-3.5742" fill="none"/></g></g><path d="m1.5 300 298.5 298.5 298.5-298.5-298.5-298.5z" fill="none" stroke="#000" stroke-linecap="round" stroke-linejoin="round" stroke-width="3"/></svg>