<?xml version="1.0" encoding="utf-8"?><!DOCTYPE svg PUBLIC "-//W3C//DTD SVG 1.1//EN" "http://www.w3.org/Graphics/SVG/1.1/DTD/svg11.dtd"><svg viewBox="0 0 600 810" xmlns="http://www.w3.org/2000/svg"><g stroke="#000" stroke-linecap="round" stroke-linejoin="round"><path d="m473.8071 203c0 7.0122-38.1058 21.2714-173.8071 21.2714s-173.8071-14.2592-173.8071-21.2714 38.1058-21.2715 173.8071-21.2715 173.8071 14.2593 173.8071 21.2715z" fill="#eac102"/><g fill="none"><path d="m147.422 193.829v18.341" stroke-width="5.5"/><path d="m153.859 192.34v21.319" stroke-width="5.25"/><path d="m160.296 191.363v23.273" stroke-width="5"/><path d="m166.733 190.154v25.692" stroke-width="4.75"/><path d="m173.171 189.084v27.832" stroke-width="4.5"/><path d="m179.608 188.153v29.693" stroke-width="4.25"/><path d="m186.045 187.223v31.553" stroke-width="4"/><path d="m192.482 186.432v33.135" stroke-width="3.75"/><path d="m198.92 185.92v34.159" stroke-width="3.5"/><path d="m205.357 185.316v35.368" stroke-width="3.25"/><path d="m211.794 184.385v37.229" stroke-width="3"/><path d="m218.232 183.873v38.253" stroke-width="2.75"/><path d="m224.669 183.641v38.718" stroke-width="2.5"/><path d="m231.106 183.082v39.834" stroke-width="2.25"/><path d="m237.543 182.617v40.765" stroke-width="2"/><path d="m243.981 182.338v41.323" stroke-width="1.75"/><path d="m250.418 181.92v42.16" stroke-width="1.5"/><path d="m256.855 181.64v42.719" stroke-width="1.25"/><path d="m263.292 180.803v44.394"/><path d="m269.73 180.803v44.394" stroke-width=".75"/><path d="m276.167 180.803v44.394" stroke-width=".5"/><path d="m282.604 180.803v44.394" stroke-width=".25"/><path d="m134.547 198.248v9.502" stroke-width="6"/><path d="m140.984 195.876v14.248" stroke-width="5.75"/><path d="m452.579 193.829v18.341" stroke-width="5.5"/><path d="m446.142 192.34v21.319" stroke-width="5.25"/><path d="m439.704 191.363v23.273" stroke-width="5"/><path d="m433.267 190.154v25.692" stroke-width="4.75"/><path d="m426.83 189.084v27.832" stroke-width="4.5"/><path d="m420.393 188.153v29.693" stroke-width="4.25"/><path d="m413.955 187.223v31.553" stroke-width="4"/><path d="m407.518 186.432v33.135" stroke-width="3.75"/><path d="m401.081 185.92v34.159" stroke-width="3.5"/><path d="m394.643 185.316v35.368" stroke-width="3.25"/><path d="m388.206 184.385v37.229" stroke-width="3"/><path d="m381.769 183.873v38.253" stroke-width="2.75"/><path d="m375.332 183.641v38.718" stroke-width="2.5"/><path d="m368.894 183.082v39.834" stroke-width="2.25"/><path d="m362.457 182.617v40.765" stroke-width="2"/><path d="m356.02 182.338v41.323" stroke-width="1.75"/><path d="m349.583 181.92v42.16" stroke-width="1.5"/><path d="m343.145 181.64v42.719" stroke-width="1.25"/><path d="m336.708 180.803v44.394"/><path d="m330.271 180.803v44.394" stroke-width=".75"/><path d="m323.834 180.803v44.394" stroke-width=".5"/><path d="m317.396 180.803v44.394" stroke-width=".25"/><path d="m465.453 198.248v9.502" stroke-width="6"/><path d="m459.016 195.876v14.248" stroke-width="5.75"/></g><g><path d="m418.459 117.1259c16.9383-13.8178 35.633-34.5719 48.1799-57.5675l11.4263-7.9287 11.9579-.1129-11.4136 36.0031-30.3785 33.0079z" fill="#eac102"/><path d="m490.2272 141.2903c5.2951-23.5962 15.96-47.8435 27.3182-72.1748l-12.5476-13.2878-14.9748-4.311c-12.5196 24.1444-24.7951 48.4857-41.7921 69.011z" fill="#eac102"/><path d="m475.7088 46.5874-.0001-3.1504-5.6168-3.6019-2.1845 8.0539z" fill="#eac102"/><path d="m498.6324 48.9249v-5.6873l5.4752-2.6102 2.0631 7.0995z" fill="#eac102"/><path d="m512.3987 57.7528v-5.6873l5.4752-2.6102 2.2452 6.8568z" fill="#eac102"/><path d="m512.5662 79.6352-28.2018-17.0454-23.0812 6.2958" fill="none"/><path d="m507.877 90.1549-29.3014-16.4912-23.6821 4.5491" fill="none"/><path d="m503.4288 100.6747-30.9633-15.9379-12.4503 2.162" fill="none"/><path d="m499.2657 111.1944-33.3971-15.3837-12.1847.6582" fill="none"/><path d="m495.5644 121.7142-36.8934-14.8305-11.7731-1.1739" fill="none"/><path d="m489.4282 119.3944-8.5365 17.2075" fill="none"/><path d="m498.0018 56.7755-5.3003 10.684" fill="none"/><path d="m509.4053 64.0133-5.2024 10.4868" fill="none"/><path d="m498.3523 71.1811-5.2734 10.6299" fill="none"/><path d="m509.9019 78.1244-5.0807 10.2417" fill="none"/><path d="m486.7938 64.2557-5.4129 10.9113" fill="none"/><path d="m498.8577 85.2748-5.1211 10.3226" fill="none"/><path d="m487.16 78.6298-5.3838 10.8526" fill="none"/><path d="m499.6299 98.8303-5.0664 10.2127" fill="none"/><path d="m487.6651 92.724-5.3353 10.7545" fill="none"/><path d="m475.7468 86.5238-5.576 11.2397" fill="none"/><path d="m485.8334 42.5697-.0001-3.1504-5.6168-3.6019-1.9417 8.1752z" fill="#eac102"/><path d="m517.5454 69.1155c1.1688-2.2443 3.7164-4.0537 6.9543-3.8424l-17.5284-13.5452-16.6302-8.3595-12.6552 2.96-12.4671 7.0099c1.1386.6832 2.9722 3.449 1.4201 6.2202l23.3842-8.0417z" fill="#eac102"/><path d="m490.3412 43.3683c1.2388 1.9731 1.1271 5.3619-.3181 8.1484" fill="none"/><path d="m466.3795 75.9236 6.4443-10.1269" fill="none"/><path d="m484.1771 53.6257-5.5831 10.467" fill="none"/><path d="m472.485 57.602-5.7156 9.6407" fill="none"/><path d="m472.6551 74.8768-6.6691 10.8565" fill="none"/><path d="m460.8141 77.1399-6.8821 10.8565" fill="none"/><path d="m452.6861 106.2233 7.432-9.9179" fill="none"/><path d="m485.0969 98.7829c-4.8885-2.5379-10.6714-.9645-12.9658 3.5278l-10.6191 20.7919 17.6489 9.1622 10.6191-20.7919c2.2944-4.4924.2058-10.152-4.6831-12.69z" fill="#eac102"/><path d="m464.9384 124.8813 10.7962 5.6047 10.619-20.7918c1.4103-2.7613.1381-6.2341-2.8525-7.7867-2.9906-1.5525-6.5334-.5794-7.9437 2.182z"/><path d="m497.9556 80.3772-5.092 10.0168 5.3923 2.9393 5.474-10.2226c.9398-1.755.5531-3.919-1.157-4.878-1.7103-.9591-3.7157.3709-4.6173 2.1445z"/><path d="m486.2414 73.7664-5.092 10.0168 5.3923 2.9393 5.474-10.2226c.9398-1.755.5531-3.919-1.157-4.878-1.7103-.9591-3.7157.3709-4.6173 2.1445z"/><path d="m490.3412 43.3687-25.1223 9.9692v-11.5688l4.8732-1.9338.0001 5.7846 5.2514-2.0841v-5.7843l4.8731-1.9338.0002 5.7846 5.2512-2.0841v-5.7843l4.8733-1.9338 1.699 6.0871z" fill="#eac102"/><path d="m490.3412 43.3687 34.1585 21.9045.0003-11.5688-6.6261-4.2491v5.7846l-7.1402-4.5789v-5.7843l-6.6261-4.2491v5.7846l-7.1399-4.5789-.0001-5.7843-6.6261-4.2491z" fill="#eac102"/><path d="m181.541 117.1259c-16.9383-13.8178-35.633-34.5719-48.1799-57.5675l-11.4263-7.9287-11.9579-.1129 11.4136 36.0031 30.3785 33.0079z" fill="#eac102"/><path d="m109.7728 141.2903c-5.2951-23.5962-15.96-47.8435-27.3182-72.1748l12.5475-13.2878 14.9748-4.311c12.5196 24.1444 24.7951 48.4857 41.7921 69.011z" fill="#eac102"/><path d="m124.2912 46.5874.0001-3.1504 5.6168-3.6019 2.1845 8.0539z" fill="#eac102"/><path d="m101.3676 48.9249v-5.6873l-5.4752-2.6102-2.0631 7.0995z" fill="#eac102"/><path d="m87.6012 57.7528v-5.6873l-5.4752-2.6102-2.2452 6.8568z" fill="#eac102"/><path d="m87.4337 79.6352 28.2019-17.0454 23.0813 6.2958" fill="none"/><path d="m92.123 90.1549 29.3014-16.4912 23.6821 4.5491" fill="none"/><path d="m96.5712 100.6747 30.9633-15.9379 12.4503 2.162" fill="none"/><path d="m100.7343 111.1944 33.3971-15.3837 12.1847.6582" fill="none"/><path d="m104.4356 121.7142 36.8935-14.8305 11.7731-1.1739" fill="none"/><path d="m110.5718 119.3944 8.5365 17.2075" fill="none"/><path d="m135.5705 109.3367 7.6418 15.4039" fill="none"/><path d="m101.9982 56.7755 5.3003 10.684" fill="none"/><path d="m90.5947 64.0133 5.2024 10.4867" fill="none"/><path d="m101.6477 71.1811 5.2735 10.6299" fill="none"/><path d="m90.0981 78.1244 5.0807 10.2417" fill="none"/><path d="m113.2062 64.2557 5.4129 10.9113" fill="none"/><path d="m101.1423 85.2748 5.121 10.3226" fill="none"/><path d="m112.84 78.6298 5.3838 10.8526" fill="none"/><path d="m100.3701 98.8303 5.0664 10.2127" fill="none"/><path d="m112.3349 92.724 5.3353 10.7545" fill="none"/><path d="m124.2532 86.5238 5.5759 11.2397" fill="none"/><path d="m114.1666 42.5697.0001-3.1504 5.6168-3.6019 1.9417 8.1752z" fill="#eac102"/><path d="m82.4546 69.1155c-1.1688-2.2443-3.7164-4.0537-6.9543-3.8424l17.5284-13.5452 16.6302-8.3595 12.6552 2.96 12.4672 7.0099c-1.1386.6832-2.9722 3.449-1.4201 6.2202l-23.3842-8.0417z" fill="#eac102"/><path d="m109.6588 43.3683c-1.2388 1.9731-1.1271 5.3619.3181 8.1484" fill="none"/><path d="m133.6205 75.9236-6.4443-10.1267" fill="none"/><path d="m115.8229 53.6257 5.5831 10.467" fill="none"/><path d="m127.515 57.602 5.7156 9.6407" fill="none"/><path d="m127.3449 74.8768 6.6691 10.8565" fill="none"/><path d="m139.1859 77.1399 6.8821 10.8565" fill="none"/><path d="m147.3139 106.2233-7.432-9.9179" fill="none"/><path d="m114.9031 98.7829c4.8885-2.5379 10.6714-.9645 12.9658 3.5278l10.6191 20.7919-17.6489 9.1622-10.6191-20.7919c-2.2944-4.4924-.2058-10.152 4.6831-12.69z" fill="#eac102"/><path d="m135.0616 124.8813-10.7962 5.6047-10.619-20.7918c-1.4103-2.7613-.1381-6.2341 2.8525-7.7867 2.9906-1.5525 6.5334-.5794 7.9437 2.182z"/><path d="m102.0444 80.3772 5.092 10.0168-5.3923 2.9393-5.474-10.2226c-.9398-1.755-.5531-3.919 1.157-4.878 1.7103-.9591 3.7157.3709 4.6173 2.1445z"/><path d="m113.7586 73.7664 5.092 10.0168-5.3923 2.9393-5.474-10.2226c-.9398-1.755-.5531-3.919 1.157-4.878 1.7103-.9591 3.7157.3709 4.6173 2.1445z"/><path d="m109.6584 43.3687 25.1228 9.9692v-11.5688l-4.8732-1.9338-.0001 5.7846-5.2514-2.0841v-5.7843l-4.8731-1.9338-.0002 5.7846-5.2512-2.0841v-5.7843l-4.8737-1.9338-1.6986 6.0871z" fill="#eac102"/><path d="m109.6584 43.3687-34.1584 21.9045v-11.5688l6.6261-4.2491v5.7846l7.1402-4.5789v-5.7843l6.6261-4.2491v5.7846l7.1398-4.5789.0002-5.7843 6.6259-4.2491z" fill="#eac102"/><path d="m417.9137 139.3047c15.1768-15.689 32.3599-36.2383 42.1016-52.4059-25.8501-8.2056-82.8623-19.0537-160.0153-19.0537s-134.1651 10.8481-160.0153 19.0537c9.7417 16.1676 26.9248 36.7169 42.1016 52.4059z" fill="#eac102"/><path d="m437.0512 103.4882-4.482 13.3796" fill="none"/><path d="m146.3161 96.4689c26.8426-7.0167 79.7089-16.2617 153.684-16.2617 73.975 0 126.8414 9.245 153.684 16.2617" fill="none"/><path d="m299.9999 92.2857v-12.0758" fill="none"/><path d="m265.6567 80.9441.8564 11.8784" fill="none"/><path d="m282.377 68.0607.4427 12.296" fill="none"/><path d="m283.2553 92.4566.3985 11.0684" fill="none"/><path d="m233.0043 82.8867 1.6594 11.4527" fill="none"/><path d="m202.1373 86.1522 2.3787 10.8545" fill="none"/><path d="m173.1221 90.6182 3.0563 10.3384" fill="none"/><path d="m247.987 69.599 1.3186 12.0722" fill="none"/><path d="m250.5887 93.5108 1.2151 11.2137" fill="none"/><path d="m215.3842 72.4811 2.1585 11.8738" fill="none"/><path d="m219.5717 95.5156 2.0754 11.4161" fill="none"/><path d="m184.6413 76.7489 2.9426 11.4474" fill="none"/><path d="m190.2997 98.7615 3.1724 12.3412" fill="none"/><path d="m155.9276 82.5287 3.625 10.8212" fill="none"/><path d="m446.8978 105.7098c-29.0896-7.2474-76.3643-13.4105-146.8978-13.4105-70.5336 0-117.8082 6.1632-146.8978 13.4105" fill="none"/><path d="m334.3433 80.9441-.8564 11.8784" fill="none"/><path d="m317.623 68.0607-.4427 12.296" fill="none"/><path d="m316.7448 92.4566-.3985 11.0684" fill="none"/><path d="m366.9957 82.8867-1.6594 11.4527" fill="none"/><path d="m397.8627 86.1522-2.3786 10.8545" fill="none"/><path d="m426.8779 90.6182-3.0563 10.3384" fill="none"/><path d="m352.0133 69.599-1.319 12.0722" fill="none"/><path d="m349.4113 93.5108-1.2151 11.2137" fill="none"/><path d="m384.6158 72.4811-2.1585 11.8738" fill="none"/><path d="m380.4283 95.5156-2.0754 11.4161" fill="none"/><path d="m415.3587 76.7489-2.9426 11.4475" fill="none"/><path d="m409.7004 98.7615-3.1725 12.3412" fill="none"/><path d="m444.0724 82.5287-3.625 10.8212" fill="none"/><path d="m162.9488 103.4882 4.482 13.3796" fill="none"/><path d="m335.5517 106.0819c-7.8509-22.4453-10.5472-50.3284-10.5472-81.4926l-25.0045-3.7606-25.0045 3.7606c0 31.1641-2.6964 59.0473-10.5473 81.4926z" fill="#eac102"/><path d="m269.3066 90.4681h61.3868" fill="#008f4c"/><path d="m271.6926 77.2923h56.6151" fill="#008f4c"/><path d="m273.3364 64.1166h53.3275" fill="#008f4c"/><path d="m274.9195 37.7651h50.1612" fill="#008f4c"/><path d="m300 37.7651v13.1759" fill="#008f4c"/><path d="m278.939 50.941v-13.1759" fill="#008f4c"/><path d="m321.061 50.941v-13.1759" fill="#008f4c"/><path d="m279.7612.5-2.7913 10.3118 5.6728.4853v-5.9667z" fill="#eac102"/><path d="m320.2398.5 2.67 10.6756-5.5511.1213v-5.9667z" fill="#eac102"/><path d="m325.0046 24.589c0-3.235 6.2436-6.7466 8.7279-7.6143l-33.7322-3.6393-33.7323 3.6393c2.4842.8678 8.7277 4.3794 8.7277 7.6143z" fill="#eac102"/><path d="m300.0002 64.1166v13.1759" fill="#008f4c"/><path d="m278.939 77.2925v-13.1759" fill="#008f4c"/><path d="m321.061 77.2925v-13.1759" fill="#008f4c"/><path d="m278.939 105.1241v-14.656" fill="#008f4c"/><path d="m321.061 105.1241v-14.656" fill="#008f4c"/><path d="m310.5307 24.5893v13.1759" fill="#008f4c"/><path d="m289.4695 37.7652v-13.1759" fill="#008f4c"/><path d="m310.5307 50.9407v13.1759" fill="#008f4c"/><path d="m289.4695 64.1166v-13.1759" fill="#008f4c"/><path d="m274.378 50.9408h51.2439" fill="#008f4c"/><path d="m314.5454 59.487h-8.0297v-12.9333c0-2.3041 1.7906-4.1591 4.0149-4.1591s4.0149 1.8549 4.0149 4.1591z" fill-rule="evenodd"/><path d="m293.4842 59.487h-8.0297v-12.9333c0-2.3041 1.7906-4.1591 4.0149-4.1591s4.0149 1.8549 4.0149 4.1591z" fill-rule="evenodd"/><path d="m266.2679.5v16.4747h67.4648v-16.4747h-13.4928v8.2376h-13.4935v-8.2376h-13.4926v8.2376h-13.4926v-8.2376z" fill="#eac102"/><path d="m464.4295 109.3367-7.6418 15.4039" fill="none"/><path d="m300 70.7045c7.2893 0 13.1576 5.8659 13.1576 13.152v29.3192h-26.3152v-29.3192c0-7.2863 5.8683-13.152 13.1576-13.152z" fill="#eac102" fill-rule="evenodd"/><path d="m300 75.7436c4.4591 0 8.0489 3.6185 8.0489 8.1133v29.3189h-16.0978v-29.3189c0-4.4947 3.5898-8.1133 8.0489-8.1133z" fill-rule="evenodd"/><path d="m111.3227 149.0595c-11.1229-3.151-12.2645-13.3069-2.5117-19.5729 20.2853-13.033 85.6152-26.8424 191.189-26.8424s170.9037 13.8094 191.189 26.8424c9.7527 6.266 8.6112 16.4219-2.5117 19.5729l-188.6773-23.5929z" fill="#eac102"/><path d="m315.8392 102.7482c-14.0857 0-28.5886 4.1953-21.8932 13.8113" fill="none"/><path d="m497.7838 140.5209c-1.1739-12.1891-24.3176-12.9398-24.2917-3.1232" fill="none"/><path d="m350.4113 103.7861c-14.0841-.5526-30.299 3.4408-23.7503 13.1546" fill="none"/><path d="m383.3857 105.9069c-13.8997-1.1587-31.9143 2.5434-25.6141 12.4158" fill="none"/><path d="m416.3652 109.541c-13.3539-1.8122-33.4004 1.4737-27.3878 11.519" fill="none"/><path d="m447.9874 114.9315c-13.3823-2.8752-34.935-.3322-29.3938 9.9736" fill="none"/><path d="m478.1845 123.2728c-12.6585-4.1906-36.0679-4.0603-31.4841 6.6933" fill="none"/><path d="m133.9036 119.363c-12.116 4.3389-15.315 11.599-7.4669 17.9129" fill="none"/><path d="m282.2243 102.776c-14.0773.4786-26.872 5.1456-19.8448 14.5284" fill="none"/><path d="m249.3745 103.7957c-14.047 1.0289-26.3114 6.3572-18.9125 15.4579" fill="none"/><path d="m219.5185 105.6687c-14.6642 1.4681-24.5421 7.7036-16.632 16.3757" fill="none"/><path d="m189.8116 108.7077c-14.2376 1.8024-21.9876 8.5544-13.7587 16.9331" fill="none"/><path d="m160.3374 113.2712c-13.7521 3.0061-19.6742 9.6336-11.0282 17.5929" fill="none"/><path d="m110.3906 128.5102c-5.2218 2.7302-7.7871 13.7319 2.0872 17.0103" fill="none"/><path d="m111.3227 149.0595c6.5748 14.1798 11.48 29.703 16.4385 48.2625l46.7777-10.1615 125.4611-7.3098 125.4611 7.3098 46.7777 10.1615c4.9585-18.5595 9.8637-34.0827 16.4385-48.2625 5.7421-12.3838-78.4913-32.5721-188.6773-32.5721s-194.4193 20.1884-188.6773 32.5721z" fill="#eac102"/><path d="m124.8172 186.6681c-2.7776-9.4377 69.6649-21.4427 175.1828-21.4427s177.9604 12.0051 175.1828 21.4427" fill="none"/><path d="m121.8745 176.8556c-3.5085-10.9098 72.5414-23.8147 178.1255-23.8147s181.634 12.905 178.1255 23.8147" fill="none"/><path d="m300 165.2546v12.1494" fill="#008f4c" fill-rule="evenodd"/><path d="m118.7763 167.5551c-4.5225-12.3411 75.8054-26.6988 181.2237-26.6988 105.4184 0 185.7462 14.3577 181.2237 26.6988" fill="none"/><path d="m300 116.5642v12.1494" fill="#008f4c" fill-rule="evenodd"/><path d="m300 140.8468v12.1494" fill="#008f4c" fill-rule="evenodd"/><path d="m244.9269 130.2518 1.2727 11.79" fill="none"/><path d="m247.4881 154.2563 1.2803 11.8923" fill="none"/><path d="m261.8713 117.3769.846 11.9318" fill="none"/><path d="m263.5704 141.5585.8657 11.9966" fill="none"/><path d="m265.2969 165.6958.8344 11.7694" fill="none"/><path d="m225.5443 119.6955 1.6308 11.4457" fill="none"/><path d="m228.9209 143.1783 1.6496 11.7935" fill="none"/><path d="m232.3217 167.0154 1.5989 11.2208" fill="none"/><path d="m191.1644 123.5069 2.3343 10.9437" fill="none"/><path d="m196.0763 145.9957 2.4425 11.5159" fill="none"/><path d="m201.0557 169.2138 2.4146 11.2744" fill="none"/><path d="m158.9869 128.7523 2.98 10.4003" fill="none"/><path d="m165.1477 150.0803 3.1577 10.9603" fill="none"/><path d="m171.7049 172.5169 3.213 11.062" fill="none"/><path d="m129.3913 136.3686 3.4355 9.6027" fill="none"/><path d="m136.5491 156.2694 3.6417 10.2248" fill="none"/><path d="m144.0817 177.2886 4.0312 11.3047" fill="none"/><path d="m281.3495 128.9203.4317 12.0696" fill="none"/><path d="m282.2119 153.1571.4325 12.2146" fill="none"/><path d="m210.365 132.797 2.0197 11.4874" fill="none"/><path d="m214.5113 156.1805 2.094 11.7135" fill="none"/><path d="m177.7169 136.6647 2.8178 11.1474" fill="none"/><path d="m183.3964 159.1308 2.8864 11.4201" fill="none"/><path d="m147.2939 142.1923 3.4602 10.5039" fill="none"/><path d="m154.3511 163.526 3.5855 10.8811" fill="none"/><path d="m120.6981 150.927 3.4645 9.9083" fill="none"/><path d="m127.6551 170.8065 3.5885 10.2217" fill="none"/><path d="m300 137.7039c7.3705 0 13.3041 5.9315 13.3041 13.2992v29.6473h-26.6082v-29.6473c0-7.3678 5.9337-13.2992 13.3041-13.2992z" fill="#eac102" fill-rule="evenodd"/><path d="m300 142.7993c4.5087 0 8.1385 3.659 8.1385 8.204v29.647h-16.277v-29.647c0-4.545 3.6298-8.204 8.1385-8.204z" fill-rule="evenodd"/><path d="m484.689 158.3061c5.7378-13.3135-79.275-29.6342-184.689-29.6342s-190.4269 16.3208-184.689 29.6342" fill="none"/><path d="m355.0731 130.2518-1.2727 11.79" fill="none"/><path d="m352.5119 154.2563-1.2803 11.8923" fill="none"/><path d="m338.1287 117.3769-.846 11.9318" fill="none"/><path d="m336.4296 141.5585-.8657 11.9966" fill="none"/><path d="m334.7031 165.6958-.8344 11.7694" fill="none"/><path d="m374.4558 119.6955-1.6308 11.4457" fill="none"/><path d="m371.0791 143.1783-1.6496 11.7935" fill="none"/><path d="m367.6783 167.0154-1.5988 11.2208" fill="none"/><path d="m408.8356 123.5069-2.3343 10.9437" fill="none"/><path d="m403.9237 145.9957-2.4425 11.5159" fill="none"/><path d="m398.9443 169.2138-2.4146 11.2744" fill="none"/><path d="m441.0131 128.7523-2.98 10.4003" fill="none"/><path d="m434.8523 150.0803-3.1577 10.9603" fill="none"/><path d="m428.2951 172.5169-3.213 11.062" fill="none"/><path d="m470.6087 136.3686-3.4355 9.6027" fill="none"/><path d="m463.4509 156.2694-3.6417 10.2248" fill="none"/><path d="m455.9183 177.2886-4.0312 11.3047" fill="none"/><path d="m318.6506 128.9203-.4317 12.0696" fill="none"/><path d="m317.7881 153.1571-.4325 12.2146" fill="none"/><path d="m389.635 132.797-2.0197 11.4874" fill="none"/><path d="m385.4887 156.1805-2.094 11.7135" fill="none"/><path d="m422.2831 136.6647-2.8178 11.1474" fill="none"/><path d="m416.6036 159.1308-2.8864 11.4201" fill="none"/><path d="m452.7062 142.1923-3.4602 10.5039" fill="none"/><path d="m445.6489 163.526-3.5855 10.8811" fill="none"/><path d="m479.302 150.927-3.4645 9.9083" fill="none"/><path d="m472.3449 170.8065-3.5885 10.2217" fill="none"/><path d="m442.4111 186.0085 18.8671 5.5459 8.8101-25.6517c1.7028-4.958-.9804-10.1975-6.163-11.7993-5.1823-1.6017-10.8305 1.0635-12.5464 6.0169z" fill="#eac102"/><path d="m446.201 186.8947 11.445 3.5371 8.8101-25.6516c1.0467-3.0475-.5903-6.2643-3.7606-7.2441s-6.6376.6594-7.6843 3.707z"/><path d="m157.5889 186.0085-18.8671 5.5459-8.8101-25.6517c-1.7028-4.958.9804-10.1975 6.163-11.7993 5.1823-1.6017 10.8305 1.0635 12.5464 6.0169z" fill="#eac102"/><path d="m153.7991 186.8947-11.445 3.5371-8.8101-25.6516c-1.0467-3.0475.5903-6.2643 3.7606-7.2441s6.6376.6594 7.6843 3.707z"/><path d="m468.4893 203c0 2.2122-39.4563 17.0141-168.4893 17.0141s-168.4893-14.8019-168.4893-17.0141c0-2.2123 39.4563-17.0142 168.4893-17.0142s168.4893 14.8018 168.4893 17.0142zm11.0107 0c0 22.5798-119.923 26.5-179.5 26.5s-179.5-3.9202-179.5-26.5 119.923-26.5 179.5-26.5 179.5 3.9203 179.5 26.5z" fill="#eac102" fill-rule="evenodd"/></g></g><path d="m.5 510 299.5 299.5 299.5-299.5-299.5-299.5z" fill="#e5e5e5" stroke="#000" stroke-linecap="round" stroke-linejoin="round"/><g stroke-linecap="round" stroke-linejoin="round"><path d="m300 552.786c-72.6751 0-114.6816 51.8295-139.2481 117.466l139.2481 139.248 139.2481-139.248c-24.5665-65.6365-66.573-117.466-139.2481-117.466z" fill="#ed1c24" stroke="#000"/><g><path d="m124.0456 523.5109c2.4544 2.6446 3.0889 8.9646-1.2171 11.1875l-10.8788 5.6161c-3.9004 2.0135-6.5444 3.8323-6.5444 7.3638 0 1.9308.1819 4.3217 3.9916 4.3217h61.2063c3.8097 0 3.9916-2.3909 3.9916-4.3217 0-3.5315-2.644-5.3503-6.5444-7.3638l-10.8788-5.6161c-4.306-2.2229-3.6715-8.5429-1.2171-11.1875z" stroke="#000"/><path d="m179.5 468v20.221c0 16.7399-13.7935 30.2165-30.927 30.2165h-17.1459c-17.1336 0-30.9271-13.4766-30.9271-30.2165v-20.221z" fill-rule="evenodd" stroke="#000"/><path d="m125.0141 517.6097h29.9718c2.0984 0 3.7877 1.6826 3.7877 3.7725 0 2.09-1.6893 3.7725-3.7877 3.7725h-29.9718c-2.0984 0-3.7877-1.6826-3.7877-3.7725 0-2.09 1.6893-3.7725 3.7877-3.7725z" fill-rule="evenodd" stroke="#e5e5e5"/></g><g fill="#008f4c" stroke="#000"><path d="m455.9433 431.7422c-6.7065-5.92-15.4433-18.8066-15.4433-21.2422 5.5958 2.8697 14.2225 12.0622 15.4433 21.2422z"/><path d="m458.5184 440.0437c-7.6902-4.5156-17.7157-15.4162-18.0184-17.6476 6.1351 1.731 15.5163 8.8531 18.0184 17.6476z"/><path d="m458.2777 437.6618c-2.9408-9.5623-3.004-17.3358-2.6227-20.7286 4.3342 6.5722 6.6484 10.3965 2.6227 20.7286z"/><path d="m460.4051 576.9086c9.4194-4.1254 16.0639-8.3834 21.2805-12.794-1.742 7.2618-13.4428 17.5312-21.2805 12.794z"/><path d="m455.4961 588.8174c8.6346-3.0416 16.7792-6.8071 21.7216-10.3374-2.0875 6.2053-15.1537 14.9002-21.7216 10.3374z"/><path d="m455.4986 587.9961c-2.2443-10.1989-2.0956-19.4827-2.6787-20.1899 6.4694 6.1882 4.8411 10.0073 2.6787 20.1899z"/><path d="m467.6978 555.2798c8.4452-7.3883 15.8699-14.703 20.9042-20.3431-.9871 7.3521-12.4812 22.2259-20.9042 20.3431z"/><path d="m464.1191 568.4442c9.2322-8.1094 17.0891-15.1822 22.5973-21.2344-1.1037 7.3439-13.4244 22.2664-22.5973 21.2344z"/><path d="m466.9077 561.3374c-6.3818-11.1038-16.3507-28.0439-17.4433-31.2473 10.2929 6.9125 16.853 18.8007 17.4433 31.2473z"/><path d="m462.0603 573.5491c-1.1775-6.747-12.1992-28.4234-13.1335-30.7001 9.5952 6.3268 16.7754 21.7311 13.1335 30.7001z"/><path d="m473.7086 507.157c2.6181-13.2205 10.1574-29.216 11.7857-40.2733 3.5949 8.8969-1.9991 28.824-11.7857 40.2733z"/><path d="m473.0923 521.2672c5.0185-12.9603 12.4274-26.2255 14.4553-37.9844 3.1723 9.6061-3.2298 28.2976-14.4553 37.9844z"/><path d="m474.3941 511.4449c-8.3393-9.798-21.7846-31.8973-22.0309-33.8533 10.0814 5.2049 18.5402 19.5247 22.0309 33.8533z"/><path d="m473.1723 527.1504c-7.0156-11.1543-19.6826-33.3714-20.1078-35.2019 10.4608 6.47 18.1256 20.1147 20.1078 35.2019z"/><path d="m470.364 475.2815c1.3684-12.5871 6.1719-29.4815 8.3803-31.9538 1.7248 8.8911.8481 21.6447-8.3803 31.9538z"/><path d="m472.6503 490.0189c3.4317-14.4635 6.6703-27.4923 10.3416-37.3758 2.246 8.8075-.236 24.7833-10.3416 37.3758z"/><path d="m473.2815 484.6971c-6.5369-9.287-22.851-28.2036-24.7994-29.0584 10.2663 1.9672 19.9219 14.228 24.7994 29.0584z"/><path d="m463.5933 449.8721c-2.1372-11.3866-.2914-23.5607 1.4463-26.0101 3.3652 7.2603 4.3568 15.167-1.4463 26.0101z"/><path d="m467.1097 463.4596c.2421-12.5662 3.4204-29.1911 5.2805-31.8502 2.6642 8.6508 2.8511 20.7825-5.2805 31.8502z"/><path d="m469.3299 467.6176c-8.876-6.3881-22.0092-20.2514-22.7683-22.2893 9.5048 3.3742 16.6835 10.3887 22.7683 22.2893z"/><path d="m472.1366 533.101c7.1138-11.3645 14.5685-22.0659 17.3634-31.9985 0 11.1499-5.924 28.4173-17.3634 31.9985z"/><path d="m470.6922 544.53c7.2882-8.96 14.6944-18.781 18.8078-25.3469 0 8.9613-9.8068 25.5791-18.8078 25.3469z"/><path d="m471.9977 540.7043c-7.081-10.0104-18.7816-31.8181-19.2071-33.7872 10.4864 5.8769 17.1487 19.7106 19.2071 33.7872z"/><path d="m468.8783 552.4107c-5.2203-11.9376-16.3305-32.6311-17.2981-33.5467 10.7155 5.7198 16.8286 19.7015 17.2981 33.5467z"/><path d="m473.7117 496.9971c-8.7169-9.6309-22.0611-28.8483-22.5102-30.7743 10.7072 4.9461 18.4536 16.4446 22.5102 30.7743z"/><path d="m465.5108 454.9306c-9.3161-5.5096-21.0565-18.203-21.4735-20.0243 9.1671 2.6074 16.206 8.8554 21.4735 20.0243z"/><path d="m456.7408 431.5655c-2.6966-4.6052-3.0855-3.2535-1.1422.9136 29.8117 63.9266 12.8317 127.7187-1.2208 154.8776-3.1334 6.0559-10.2753 17.8342-13.8778 19.9393l5.4491 2.2041c3.3691-6.4319 8.7099-15.0284 11.7806-20.8995 17.0529-32.6052 30.4805-103.2904-.989-157.035z"/></g><g><path d="m262.6326 473.5543c-6.1635 7.016-15.1 10.4634-25.3074 10.2496 6.2376-8.1892 11.6003-10.6439 21.5776-12.2563" fill="#008f4c" stroke="#000"/><path d="m224.3337 455.9211c-8.5345-3.9808-14.2113-12.3461-16.6777-22.0421 9.7107 3.743 16.1756 11.8202 20.3822 20.8199" fill="#008f4c" stroke="#000"/><path d="m231.2201 457.4653c-6.5885 6.6358-18.5573 11.3528-28.7324 10.5313 6.7354-7.8024 14.9584-11.3504 25.0175-12.3653" fill="#008f4c" stroke="#000"/><path d="m243.383 461.6566c-2.1666 9.0063-8.2259 14.1495-17.3856 18.5633 1.6799-10.0811 6.2855-14.5257 14.3812-20.4562" fill="#008f4c" stroke="#000"/><path d="m289.2287 448.1345c-7.9-1.0117-15.8745-5.1095-22.9167-13.6348 11.4072-.6973 17.6562 3.8625 26.0947 10.9026" fill="#008f4c" stroke="#000"/><path d="m271.9797 426.2751c-5.6529 6.4116-12.8484 8.307-22.2101 8.1117 5.7208-7.4838 10.7944-8.8946 19.9451-10.3681" fill="#008f4c" stroke="#000"/><path d="m269.3664 395.7251c-6.847 3.5712-13.0247 2.3231-20.4009-1.6206 7.294-4.5213 13.403-3.591 18.6502-1.6633" fill="#008f4c" stroke="#000"/><path d="m271.1103 394.6776c-2.016-5.9759-2.5929-11.8085 2.1348-19.6859 4.9422 8.0744 3.5833 14.3993.6764 22.8129" fill="#008f4c" stroke="#000"/><path d="m255.0084 368.3103c4.3419-8.2191 13.0117-14.3312 22.9937-16.4297-3.8003 8.6141-10.4528 14.1761-18.7406 17.988" fill="#008f4c" stroke="#000"/><path d="m240.9072 385.3606c4.1293-4.4233 8.3459-5.6732 15.4915-5.6192-3.6088 6.2161-10.5455 8.1374-17.3642 9.4526" fill="#008f4c" stroke="#000"/><path d="m283.5356 372.0537a5.874 4.1316 28.9741 0 0 -3.4887 1.6397 5.874 4.1316 28.9741 0 0 2.9075 6.4813 5.874 4.1316 28.9741 0 0 6.7773.01l8.1396 4.3818v-2.1955l-7.3037-3.7115a5.874 4.1316 28.9741 0 0 -3.283-5.5267 5.874 4.1316 28.9741 0 0 -3.749-1.0784z" fill-rule="evenodd" stroke="#000"/><path d="m267.1842 404.5804a3.5241 5.116 89.6915 0 0 -1.8474 2.7104 3.5241 5.116 89.6915 0 0 5.1085 3.515 3.5241 5.116 89.6915 0 0 5.0418-2.9149l8.0427-.2853-.9984-1.6153-7.1166.4181a3.5241 5.116 89.6915 0 0 -4.9534-2.6507 3.5241 5.116 89.6915 0 0 -3.277.8229z" fill-rule="evenodd" stroke="#000"/><path d="m233.7643 383.9733c.4029-1.2658.2213-2.4461-.4955-3.2218-1.3345-1.4432-4.1086-1.1023-6.196.7614-1.831 1.6352-2.5591 3.9425-1.7279 5.4757l-3.0205 2.889.8288 1.4342 3.2641-3.2737c1.4967.7807 3.7571.2457 5.4874-1.2989.8842-.7894 1.5422-1.7682 1.8596-2.766z" fill-rule="evenodd" stroke="#000"/><path d="m205.3669 388.5074a4.1097 5.9053 89.5244 0 0 -2.123 3.1669 4.1097 5.9053 89.5244 0 0 5.9089 4.082 4.1097 5.9053 89.5244 0 0 5.8094-3.4159l9.2825-.3594-1.1581-1.8804-8.2131.5112a4.1097 5.9053 89.5244 0 0 -5.7269-3.0747 4.1097 5.9053 89.5244 0 0 -3.7797.9705z" fill-rule="evenodd" stroke="#000"/><path d="m243.5759 425.3386c-.2807 1.297.0124 2.4557.8 3.1626 1.4661 1.3153 4.1957.723 6.0967-1.3229 1.6675-1.795 2.1728-4.1586 1.1993-5.6094l4.1897-4.6005-1.8921-.3673-3.4651 4.0207c-1.5645-.6409-3.7641.0978-5.3399 1.7934-.8052.8666-1.3672 1.9011-1.5882 2.9235z" fill-rule="evenodd" stroke="#000"/><path d="m243.6795 437.5605c-.0914-1.3227-.6962-2.3593-1.651-2.8292-1.777-.8741-4.2381.4242-5.497 2.8998-1.1041 2.172-.9316 4.5809.4093 5.7169l-2.749 5.5443 1.9228-.1516 2.2135-4.7931c1.6838.199 3.5942-1.0987 4.6378-3.1506.5332-1.0487.7857-2.1939.7134-3.2365z" fill-rule="evenodd" stroke="#000"/><path d="m337.3674 473.5543c6.1636 7.016 15.1 10.4634 25.3074 10.2496-6.2376-8.1892-11.6003-10.6439-21.5777-12.2563" fill="#008f4c" stroke="#000"/><path d="m375.6664 455.9211c8.5345-3.9808 14.2113-12.3461 16.6777-22.0421-9.7107 3.743-16.1756 11.8202-20.3822 20.8199" fill="#008f4c" stroke="#000"/><path d="m368.7799 457.4653c6.5885 6.6358 18.5573 11.3528 28.7324 10.5313-6.7354-7.8024-14.9584-11.3504-25.0175-12.3653" fill="#008f4c" stroke="#000"/><path d="m356.6171 461.6566c2.1666 9.0063 8.2259 14.1495 17.3856 18.5633-1.6799-10.0811-6.2856-14.5257-14.3812-20.4562" fill="#008f4c" stroke="#000"/><path d="m310.7713 448.1345c7.9-1.0117 15.8745-5.1095 22.9167-13.6348-11.4072-.6973-17.6562 3.8625-26.0947 10.9026" fill="#008f4c" stroke="#000"/><path d="m328.0203 426.2751c5.6529 6.4116 12.8484 8.307 22.2101 8.1117-5.7208-7.4838-10.7944-8.8946-19.9451-10.3681" fill="#008f4c" stroke="#000"/><path d="m330.6336 395.7251c6.847 3.5712 13.0247 2.3231 20.4009-1.6206-7.294-4.5213-13.403-3.591-18.6502-1.6633" fill="#008f4c" stroke="#000"/><path d="m328.8897 394.6776c2.016-5.9759 2.5929-11.8085-2.1348-19.6859-4.9422 8.0744-3.5833 14.3993-.6764 22.8129" fill="#008f4c" stroke="#000"/><path d="m344.9916 368.3103c-4.3419-8.2191-13.0117-14.3312-22.9937-16.4297 3.8004 8.6141 10.4528 14.1761 18.7406 17.988" fill="#008f4c" stroke="#000"/><path d="m359.0929 385.3606c-4.1293-4.4233-8.3459-5.6732-15.4915-5.6192 3.6088 6.2161 10.5455 8.1374 17.3642 9.4526" fill="#008f4c" stroke="#000"/><path d="m316.4644 372.0537a4.1316 5.874 61.0259 0 1 3.4887 1.6397 4.1316 5.874 61.0259 0 1 -2.9075 6.4813 4.1316 5.874 61.0259 0 1 -6.7773.01l-8.1396 4.3818v-2.1955l7.3037-3.7115a4.1316 5.874 61.0259 0 1 3.283-5.5267 4.1316 5.874 61.0259 0 1 3.749-1.0784z" fill-rule="evenodd" stroke="#000"/><path d="m332.8158 404.5804a5.116 3.5241.3085 0 1 1.8474 2.7104 5.116 3.5241.3085 0 1 -5.1085 3.515 5.116 3.5241.3085 0 1 -5.0418-2.9149l-8.0427-.2853.9984-1.6153 7.1166.4181a5.116 3.5241.3085 0 1 4.9535-2.6507 5.116 3.5241.3085 0 1 3.277.8229z" fill-rule="evenodd" stroke="#000"/><path d="m366.2357 383.9733c-.4029-1.2658-.2213-2.4461.4956-3.2218 1.3345-1.4432 4.1086-1.1023 6.196.7614 1.831 1.6352 2.5591 3.9425 1.7279 5.4757l3.0205 2.889-.8288 1.4342-3.2641-3.2737c-1.4967.7807-3.7571.2457-5.4874-1.2989-.8842-.7894-1.5422-1.7682-1.8596-2.766z" fill-rule="evenodd" stroke="#000"/><path d="m394.6332 388.5074a5.9053 4.1097.4756 0 1 2.123 3.1669 5.9053 4.1097.4756 0 1 -5.9089 4.082 5.9053 4.1097.4756 0 1 -5.8094-3.4159l-9.2825-.3594 1.1581-1.8804 8.213.5112a5.9053 4.1097.4756 0 1 5.7269-3.0747 5.9053 4.1097.4756 0 1 3.7797.9705z" fill-rule="evenodd" stroke="#000"/><path d="m356.4241 425.3386c.2807 1.297-.0124 2.4557-.8 3.1626-1.466 1.3153-4.1957.723-6.0967-1.3229-1.6675-1.795-2.1728-4.1586-1.1993-5.6094l-4.1897-4.6005 1.8921-.3673 3.4652 4.0207c1.5645-.6409 3.7641.0978 5.3399 1.7934.8052.8666 1.3672 1.9011 1.5882 2.9235z" fill-rule="evenodd" stroke="#000"/><path d="m356.3205 437.5605c.0914-1.3227.6962-2.3593 1.651-2.8292 1.777-.8741 4.2381.4242 5.497 2.8998 1.1041 2.172.9316 4.5809-.4093 5.7169l2.7489 5.5443-1.9228-.1516-2.2134-4.7931c-1.6838.199-3.5942-1.0987-4.6378-3.1506-.5332-1.0487-.7857-2.1939-.7134-3.2365z" fill-rule="evenodd" stroke="#000"/><path d="m312.568 553.3c-2.4472-.9026-5.2733-3.4956-5.265-6.5578.0619-22.8574-.5654-44.4879-.555-64.7701.001-2.7178 2.7624-3.0357 5.059-3.0823 19.7301-.4017 35.9473-7.9134 46.5302-18.0748 6.2966-2.8158 10.0861-2.3598 18.0959-3.499 9.4436.4393 16.2111-2.5974 23.0669-10.0014-10.3654-1.1928-15.8513.5026-23.9046 6.4883-2.8234.382-7.0948.8203-11.4367.5846 4.7143-6.002 7.9777-12.492 9.8449-18.8124 8.8982-6.3958 16.9238-20.9269 17.5693-32.6062-10.3019 6.3726-20.3505 21.036-23.1502 32.2847-10.0262 29.1986-40.4903 39.1057-55.5073 37.8914-2.3362-.189-6.344-1.7503-6.4064-4.1041-.0962-3.6304-.1707-7.2609-.3142-10.8989-.2959-7.4976 11.7265 1.3218 25.6388-3.2259 8.655-.5724 16.8828-6.838 22.3343-14.2746-9.5764-.0179-17.4733 3.9927-24.169 10.2629-8.7412 1.5311-24.0759-1.7868-24.46-11.4914-.1991-5.0301 5.3989-7.2501 7.0774-7.5983 24.5668-5.0958 66.2106-27.1857 70.235-48.4022 8.2618-4.4981 14.8101-11.7096 16.6487-21.5382-9.451 4.3332-16.9266 10.6877-20.5467 19.9285-1.2839 4.6896-4.8019 9.6402-9.7024 14.4625-6.5864-14.3439-13.2105-20.6405-21.3047-26.2669 1.7498-8.2312-.021-18.1396-5.1092-25.6984-3.6049 9.121-3.6484 17.2401-.1226 25.9886 8.8766 6.4006 16.9167 15.0458 22.736 29.4599-14.7575 12.6608-37.9147 23.7297-53.2136 25.7725-2.0716.2766-7.1886-.7391-7.4389-3.9372-.7987-10.2076 14.8378-5.2416 31.0101-32.2908 4.8772-2.714 6.2775-5.2793 7.2169-13.0165-7.5631 3.0268-7.9514 7.028-9.5534 11.403-9.7231 12.4242-28.7489 27.9314-29.5136 16.4556-.681-10.2206-.5978-21.5876-1.305-32.8778 2.8285-8.4353 2.3109-17.9977-2.653-26.9573-4.9639 8.9596-5.4815 18.522-2.653 26.9573-.7072 11.2902-.624 22.6572-1.305 32.8778-.7646 11.4758-19.7904-4.0314-29.5136-16.4556-1.602-4.3749-1.9903-8.3762-9.5534-11.403.9394 7.7372 2.3397 10.3025 7.2169 13.0165 16.1724 27.0492 31.8088 22.0832 31.0101 32.2908-.2502 3.1981-5.3673 4.2138-7.4388 3.9372-15.2988-2.0428-38.4561-13.1117-53.2136-25.7725 5.8193-14.4141 13.8593-23.0593 22.736-29.4599 3.5258-8.7484 3.4823-16.8676-.1226-25.9886-5.0882 7.5588-6.859 17.4673-5.1092 25.6984-8.0942 5.6264-14.7183 11.923-21.3047 26.2669-4.9006-4.8223-8.4185-9.7729-9.7024-14.4625-3.62-9.2408-11.0956-15.5953-20.5467-19.9285 1.8386 9.8286 8.3869 17.0401 16.6487 21.5382 4.0244 21.2164 45.6682 43.3064 70.235 48.4022 1.6785.3482 7.2765 2.5682 7.0774 7.5983-.3841 9.7046-15.7188 13.0225-24.46 11.4914-6.6957-6.2702-14.5927-10.2807-24.169-10.2629 5.4516 7.4365 13.6793 13.7022 22.3343 14.2746 13.9123 4.5477 25.9347-4.2716 25.6388 3.2259-.1436 3.638-.218 7.2685-.3142 10.8989-.0624 2.3538-4.0701 3.9151-6.4064 4.1041-15.017 1.2143-45.481-8.6928-55.5072-37.8914-2.7997-11.2486-12.8483-25.9121-23.1502-32.2847.6455 11.6793 8.6711 26.2104 17.5693 32.6062 1.8672 6.3204 5.1306 12.8105 9.8449 18.8124-4.3419.2357-8.6133-.2025-11.4367-.5846-8.0532-5.9856-13.5392-7.6811-23.9046-6.4883 6.8559 7.404 13.6234 10.4407 23.0669 10.0014 8.0098 1.1392 11.7993.6832 18.0959 3.499 10.5829 10.1615 26.8001 17.6732 46.5302 18.0748 2.2966.0458 5.058.3646 5.059 3.0823.0104 20.2822-.6169 41.9127-.555 64.7701.009 3.0623-2.8178 5.6552-5.265 6.5578z" fill="#008f4c" stroke="#010000"/><path d="m370.8276 433.6242c-.7651-8.0379-4.5024-15.0064-11.6118-20.6304-.632 10.1954 2.193 18.159 8.7537 25.6901" fill="#008f4c" stroke="#000"/><path d="m319.0059 477.7476c4.3184 6.3185 12.7082 9.4642 21.0816 10.2947-4.2579-7.2811-8.6245-9.0824-16.6211-11.377" fill="#008f4c" stroke="#000"/><path d="m314.8425 454.5347c2.5254 7.1887 7.8501 11.5219 15.7286 14.4187-2.0133-7.3641-5.2947-10.3762-11.2285-14.0297" fill="#008f4c" stroke="#000"/><path d="m326.8137 455.0731c6.0199 4.8038 12.8661 6.165 21.1208 4.5591-5.3581-4.922-9.5874-5.9704-15.9354-6.1076" fill="#008f4c" stroke="#000"/><path d="m348.7215 413.7313c6.8712-5.1473 7.4322-9.5156 7.7813-18.6733-7.9688 5.1508-10.124 11.1375-12.1629 19.9913" fill="#008f4c" stroke="#000"/><path d="m313.1108 407.5786c5.4609-6.5493 4.992-11.9656 2.1326-20.6622-6.6219 6.8258-6.8017 13.3628-5.8389 22.1942" fill="#008f4c" stroke="#000"/><path d="m381.4586 379.5855c5.5579-8.4624 8.0039-20.5017 4.6226-30.8875-6.7829 8.898-8.7963 18.2735-7.4283 28.9838" fill="#008f4c" stroke="#000"/><path d="m379.0759 383.1564c-7.1696-6.0313-11.2455-15.6977-11.0283-25.6874 8.3684 6.1036 12.7796 13.4201 14.4281 23.1844" fill="#008f4c" stroke="#000"/><path d="m344.0159 370.1629c-6.847 3.5712-15.8181 1.6535-23.1943-2.2902 7.294-4.5213 14.3435-3.9323 22.1634-1.5947" fill="#008f4c" stroke="#000"/><path d="m360.3692 382.8515c3.913-9.0518 3.001-20.1071-2.2328-29.4699-4.5024 8.6496-4.4077 15.4055-2.026 24.3349" fill="#008f4c" stroke="#000"/><path d="m374.0516 435.5462c4.5767-11.0299 2.8297-20.5645-.2436-30.9704-6.5025 10.0877-7.7983 19.3435-5.3853 30.6777" fill="#008f4c" stroke="#000"/><path d="m280.9942 477.7476c-4.3184 6.3185-12.7082 9.4642-21.0816 10.2947 4.2579-7.2811 8.6245-9.0824 16.6211-11.377" fill="#008f4c" stroke="#000"/><path d="m285.1575 454.5347c-2.5254 7.1887-7.8501 11.5219-15.7286 14.4187 2.0133-7.3641 5.2947-10.3762 11.2285-14.0297" fill="#008f4c" stroke="#000"/><path d="m273.1863 455.0731c-6.0199 4.8038-12.8661 6.165-21.1208 4.5591 5.3581-4.922 9.5874-5.9704 15.9354-6.1076" fill="#008f4c" stroke="#000"/><path d="m229.1724 433.6242c.7651-8.0379 4.5024-15.0064 11.6118-20.6304.632 10.1954-2.193 18.159-8.7537 25.6901" fill="#008f4c" stroke="#000"/><path d="m225.9484 435.5462c-4.5767-11.0299-2.8297-20.5645.2436-30.9704 6.5025 10.0877 7.7983 19.3435 5.3854 30.6777" fill="#008f4c" stroke="#000"/><path d="m251.2785 413.7313c-6.8712-5.1473-7.4322-9.5156-7.7813-18.6733 7.9688 5.1508 10.124 11.1375 12.1629 19.9913" fill="#008f4c" stroke="#000"/><path d="m218.5414 379.5855c-5.5579-8.4624-8.0039-20.5017-4.6226-30.8875 6.7829 8.898 8.7963 18.2735 7.4283 28.9838" fill="#008f4c" stroke="#000"/><path d="m220.9241 383.1564c7.1696-6.0313 11.2456-15.6977 11.0283-25.6874-8.3684 6.1036-12.7796 13.4201-14.4281 23.1844" fill="#008f4c" stroke="#000"/><path d="m286.8893 407.5786c-5.4609-6.5493-4.992-11.9656-2.1327-20.6622 6.6219 6.8258 6.8017 13.3628 5.8389 22.1942" fill="#008f4c" stroke="#000"/><path d="m239.6308 382.8515c-3.913-9.0518-3.001-20.1071 2.2328-29.4699 4.5025 8.6496 4.4077 15.4055 2.026 24.3349" fill="#008f4c" stroke="#000"/><path d="m255.9841 370.1629c6.847 3.5712 15.8181 1.6535 23.1943-2.2902-7.294-4.5213-14.3435-3.9323-22.1634-1.5947" fill="#008f4c" stroke="#000"/><path d="m297.9382 374.2709c-8.3041-4.5313-12.3511-12.1344-13.0246-22.1536 7.735 3.5057 10.6682 7.4799 12.9118 13.8046" fill="#008f4c" stroke="#000"/><path d="m302.0619 374.2709c8.3041-4.5313 12.3511-12.1344 13.0246-22.1536-7.735 3.5057-10.6682 7.4799-12.9118 13.8046" fill="#008f4c" stroke="#000"/></g></g><path d="m1.5 510 298.5 298.5 298.5-298.5-298.5-298.5z" fill="none" stroke="#000" stroke-linecap="round" stroke-linejoin="round" stroke-width="3"/></svg>