<?xml version="1.0" encoding="UTF-8" standalone="no"?>
<svg
   xmlns:dc="http://purl.org/dc/elements/1.1/"
   xmlns:cc="http://creativecommons.org/ns#"
   xmlns:rdf="http://www.w3.org/1999/02/22-rdf-syntax-ns#"
   xmlns:svg="http://www.w3.org/2000/svg"
   xmlns="http://www.w3.org/2000/svg"
   xmlns:sodipodi="http://sodipodi.sourceforge.net/DTD/sodipodi-0.dtd"
   xmlns:inkscape="http://www.inkscape.org/namespaces/inkscape"
   inkscape:version="1.0 (4035a4fb49, 2020-05-01)"
   sodipodi:docname="Escut_de_Pau.svg"
   id="svg3194"
   height="725.13623"
   width="603.24261"
   version="1.0">
  <metadata
     id="metadata52493">
    <rdf:RDF>
      <cc:Work
         rdf:about="">
        <dc:format>image/svg+xml</dc:format>
        <dc:type
           rdf:resource="http://purl.org/dc/dcmitype/StillImage" />
      </cc:Work>
    </rdf:RDF>
  </metadata>
  <sodipodi:namedview
     inkscape:current-layer="svg3194"
     inkscape:window-maximized="1"
     inkscape:window-y="0"
     inkscape:window-x="0"
     inkscape:cy="237.51488"
     inkscape:cx="301.62133"
     inkscape:zoom="0.56512821"
     showgrid="false"
     id="namedview52491"
     inkscape:window-height="691"
     inkscape:window-width="1366"
     inkscape:pageshadow="2"
     inkscape:pageopacity="0"
     guidetolerance="10"
     gridtolerance="10"
     objecttolerance="10"
     borderopacity="1"
     bordercolor="#666666"
     pagecolor="#ffffff" />
  <defs
     id="defs3196" />
  <g
     id="g4391"
     transform="translate(457.60584,-729.44526)">
    <path
       style="fill:#e3e4e5;fill-opacity:1;stroke:#010101;stroke-width:1;stroke-miterlimit:4;stroke-dasharray:none"
       id="path3446"
       d="m 33.911427,811.98627 c 2.1863,-4.7552 7.8086,-6.8359 12.5639,-4.6495 4.7508,2.1843 6.8315,7.8067 4.6452,12.5619 -2.1854,4.7531 -7.8076,6.8337 -12.5586,4.6494 -4.7552,-2.1864 -6.836,-7.8086 -4.6505,-12.5618 z" />
    <path
       style="fill:#eac102;fill-rule:evenodd;stroke:#000000;stroke-width:1px;stroke-linecap:butt;stroke-linejoin:miter;stroke-opacity:1"
       id="path9052"
       d="m -155.15896,769.16481 c -56.61261,0.56447 -113.87581,0.61709 -169.47501,11.94058 -12.4075,3.73883 -30.1461,5.82662 -34.8036,19.0699 -1.5279,11.06141 12.5006,15.74938 21.2634,18.78935 41.7444,11.96344 85.853,12.97626 129.1053,14.8465 67.29051,1.28869 135.01471,1.81183 201.80631,-7.1218 18.2471,-3.36522 38.3394,-5.44219 53.3445,-16.77983 8.9596,-8.3789 -0.9579,-20.0949 -10.8624,-22.50474 -33.9772,-12.44682 -71.0359,-13.78245 -106.9719,-16.31661 -27.7733,-1.44701 -55.5949,-1.90497 -83.4066,-1.92335 z" />
    <path
       style="fill:#eac102;fill-opacity:1;fill-rule:evenodd;stroke:#000000;stroke-width:1px;stroke-linecap:butt;stroke-linejoin:miter;stroke-opacity:1"
       id="path9054"
       d="m -154.98436,782.76205 c -30.85712,0 -56.87992,0.5738 -78.81249,1.57132 -4.38667,0.19951 -8.62137,0.42171 -12.6875,0.65225 -48.77128,2.76678 -74.92265,7.65796 -88.9375,12.12586 -1.16805,0.37241 -2.27567,0.73194 -3.28125,1.09696 -5.01152,1.8212 -8.09361,3.5648 -9.96875,4.9808 -0.36877,0.27856 -0.68636,0.54611 -0.96875,0.80048 -0.29289,0.26383 -0.53742,0.50645 -0.75,0.74119 -1.25317,1.38323 -1.21876,2.22357 -1.21875,2.22357 l 10.65625,36.73337 h 34.84375 302.24999 34.8438 l 10.6562,-36.73337 c 0,0 0.0344,-0.84034 -1.2188,-2.22357 -0.2125,-0.23474 -0.4571,-0.47736 -0.75,-0.74119 -1.7146,-1.54923 -4.9217,-3.59514 -10.9374,-5.78128 -0.0086,-0.003 -0.0228,0.003 -0.0313,0 -13.0714,-4.74427 -39.351,-10.22543 -92.1875,-13.22282 -0.01,-5.7e-4 -0.0213,5.7e-4 -0.0312,0 -4.0661,-0.23054 -8.2698,-0.45274 -12.6563,-0.65225 -21.9333,-0.99753 -47.9536,-1.57132 -78.8125,-1.57132 z" />
    <path
       style="display:inline;overflow:visible;visibility:visible;fill:#eac102;fill-opacity:1;fill-rule:evenodd;stroke:#000000;stroke-width:1.78393px;stroke-linecap:round;stroke-linejoin:round;stroke-miterlimit:4;stroke-dasharray:none;stroke-dashoffset:0;stroke-opacity:1;marker:none;marker-start:none;marker-mid:none;marker-end:none;enable-background:accumulate"
       id="path9058"
       transform="matrix(0.5526395,0,0,0.5685945,-1059.5823,398.75738)"
       d="m 1796.3478,707.07074 c 0,12.73883 -10.3269,23.0657 -23.0657,23.0657 -12.7388,0 -23.0657,-10.32687 -23.0657,-23.0657 0,-12.73883 10.3269,-23.0657 23.0657,-23.0657 12.7388,0 23.0657,10.32687 23.0657,23.0657 z" />
    <path
       style="display:inline;overflow:visible;visibility:visible;fill:#eac102;fill-opacity:1;fill-rule:evenodd;stroke:#000000;stroke-width:1.80438px;stroke-linecap:round;stroke-linejoin:round;stroke-miterlimit:4;stroke-dasharray:none;stroke-dashoffset:0;stroke-opacity:1;marker:none;marker-start:none;marker-mid:none;marker-end:none;enable-background:accumulate"
       id="path9060"
       transform="matrix(0.5401856,0,0,0.5685945,-1036.1337,398.75738)"
       d="m 1796.3478,707.07074 c 0,12.73883 -10.3269,23.0657 -23.0657,23.0657 -12.7388,0 -23.0657,-10.32687 -23.0657,-23.0657 0,-12.73883 10.3269,-23.0657 23.0657,-23.0657 12.7388,0 23.0657,10.32687 23.0657,23.0657 z" />
    <path
       style="display:inline;overflow:visible;visibility:visible;fill:#e3e4e5;fill-opacity:1;fill-rule:evenodd;stroke:#000000;stroke-width:2.06265px;stroke-linecap:round;stroke-linejoin:round;stroke-miterlimit:4;stroke-dasharray:none;stroke-dashoffset:0;stroke-opacity:1;marker:none;marker-start:none;marker-mid:none;marker-end:none;enable-background:accumulate"
       id="path9062"
       transform="matrix(0.4779164,0,0,0.4918098,-925.42551,453.04956)"
       d="m 1796.3478,707.07074 c 0,12.73883 -10.3269,23.0657 -23.0657,23.0657 -12.7388,0 -23.0657,-10.32687 -23.0657,-23.0657 0,-12.73883 10.3269,-23.0657 23.0657,-23.0657 12.7388,0 23.0657,10.32687 23.0657,23.0657 z" />
    <path
       style="display:inline;overflow:visible;visibility:visible;fill:#eac102;fill-opacity:1;fill-rule:evenodd;stroke:#000000;stroke-width:1.78393px;stroke-linecap:round;stroke-linejoin:round;stroke-miterlimit:4;stroke-dasharray:none;stroke-dashoffset:0;stroke-opacity:1;marker:none;marker-start:none;marker-mid:none;marker-end:none;enable-background:accumulate"
       id="path9066"
       transform="matrix(-0.5526395,0,0,0.5685945,749.61341,398.75738)"
       d="m 1796.3478,707.07074 c 0,12.73883 -10.3269,23.0657 -23.0657,23.0657 -12.7388,0 -23.0657,-10.32687 -23.0657,-23.0657 0,-12.73883 10.3269,-23.0657 23.0657,-23.0657 12.7388,0 23.0657,10.32687 23.0657,23.0657 z" />
    <path
       style="display:inline;overflow:visible;visibility:visible;fill:#eac102;fill-opacity:1;fill-rule:evenodd;stroke:#000000;stroke-width:1.80438px;stroke-linecap:round;stroke-linejoin:round;stroke-miterlimit:4;stroke-dasharray:none;stroke-dashoffset:0;stroke-opacity:1;marker:none;marker-start:none;marker-mid:none;marker-end:none;enable-background:accumulate"
       id="path9068"
       transform="matrix(-0.5401856,0,0,0.5685945,726.16481,398.75738)"
       d="m 1796.3478,707.07074 c 0,12.73883 -10.3269,23.0657 -23.0657,23.0657 -12.7388,0 -23.0657,-10.32687 -23.0657,-23.0657 0,-12.73883 10.3269,-23.0657 23.0657,-23.0657 12.7388,0 23.0657,10.32687 23.0657,23.0657 z" />
    <path
       style="display:inline;overflow:visible;visibility:visible;fill:#e3e4e5;fill-opacity:1;fill-rule:evenodd;stroke:#000000;stroke-width:2.06265px;stroke-linecap:round;stroke-linejoin:round;stroke-miterlimit:4;stroke-dasharray:none;stroke-dashoffset:0;stroke-opacity:1;marker:none;marker-start:none;marker-mid:none;marker-end:none;enable-background:accumulate"
       id="path9070"
       transform="matrix(-0.4779164,0,0,0.4918098,615.45661,453.04956)"
       d="m 1796.3478,707.07074 c 0,12.73883 -10.3269,23.0657 -23.0657,23.0657 -12.7388,0 -23.0657,-10.32687 -23.0657,-23.0657 0,-12.73883 10.3269,-23.0657 23.0657,-23.0657 12.7388,0 23.0657,10.32687 23.0657,23.0657 z" />
    <path
       style="fill:none;fill-rule:evenodd;stroke:#000000;stroke-width:1px;stroke-linecap:round;stroke-linejoin:round;stroke-opacity:1"
       id="path9074"
       d="m -270.5138,802.24799 -20.41562,-9.84209 -1.30779,0.23765 19.47118,10.01371 z" />
    <path
       style="fill:none;fill-rule:evenodd;stroke:#000000;stroke-width:1px;stroke-linecap:round;stroke-linejoin:round;stroke-opacity:1"
       id="path9076"
       d="m -270.5138,802.24799 -20.41562,17.26181 -1.30779,0.23764 19.47118,-17.09018 z" />
    <path
       style="display:inline;overflow:visible;visibility:visible;fill:none;fill-opacity:1;fill-rule:evenodd;stroke:#000000;stroke-width:1px;stroke-linecap:round;stroke-linejoin:round;stroke-miterlimit:4;stroke-dasharray:none;stroke-dashoffset:0;stroke-opacity:1;marker:none;marker-start:none;marker-mid:none;marker-end:none;enable-background:accumulate"
       id="path9078"
       d="m -292.26702,819.70619 -18.33504,-9.82602 18.29339,-17.15415" />
    <path
       style="fill:#008f4c;fill-rule:evenodd;stroke:#000000;stroke-width:1px;stroke-linecap:round;stroke-linejoin:round;stroke-opacity:1"
       id="path9082"
       d="m -277.8267,803.71585 -14.64903,13.15604 -14.43461,-7.94056 14.50607,-12.92157 z" />
    <path
       style="fill:none;fill-rule:evenodd;stroke:#000000;stroke-width:0.6;stroke-linecap:round;stroke-linejoin:round;stroke-miterlimit:4;stroke-dasharray:none;stroke-opacity:1"
       id="path9084"
       d="m -287.67752,805.53879 -7.74896,6.93499 -7.63553,-4.17597 7.67333,-6.81144 z" />
    <path
       style="fill:none;fill-rule:evenodd;stroke:#000000;stroke-width:0.6;stroke-linecap:round;stroke-linejoin:round;stroke-miterlimit:4;stroke-dasharray:none;stroke-opacity:1"
       id="path9086"
       d="m -292.40427,816.78941 -3.03708,-4.31306" />
    <path
       style="fill:none;fill-rule:evenodd;stroke:#000000;stroke-width:0.6;stroke-linecap:round;stroke-linejoin:round;stroke-miterlimit:4;stroke-dasharray:none;stroke-opacity:1"
       id="path9088"
       d="m -306.696,808.89239 3.66247,-0.6133" />
    <path
       style="fill:none;fill-rule:evenodd;stroke:#000000;stroke-width:0.6;stroke-linecap:round;stroke-linejoin:round;stroke-miterlimit:4;stroke-dasharray:none;stroke-opacity:1"
       id="path9090"
       d="m -287.68801,805.50782 9.57547,-1.74003" />
    <path
       style="fill:none;fill-rule:evenodd;stroke:#000000;stroke-width:0.6;stroke-linecap:round;stroke-linejoin:round;stroke-miterlimit:4;stroke-dasharray:none;stroke-opacity:1"
       id="path9092"
       d="m -295.42328,801.54505 3.01901,-5.53529" />
    <path
       style="fill:none;fill-rule:evenodd;stroke:#000000;stroke-width:1px;stroke-linecap:round;stroke-linejoin:round;stroke-opacity:1"
       id="path9096"
       d="m -39.4554,802.24799 20.41562,-9.84209 1.30779,0.23765 -19.47118,10.01371 z" />
    <path
       style="fill:none;fill-rule:evenodd;stroke:#000000;stroke-width:1px;stroke-linecap:round;stroke-linejoin:round;stroke-opacity:1"
       id="path9098"
       d="m -39.4554,802.24799 20.41562,17.26181 1.30779,0.23764 -19.47118,-17.09018 z" />
    <path
       style="display:inline;overflow:visible;visibility:visible;fill:none;fill-opacity:1;fill-rule:evenodd;stroke:#000000;stroke-width:1px;stroke-linecap:round;stroke-linejoin:round;stroke-miterlimit:4;stroke-dasharray:none;stroke-dashoffset:0;stroke-opacity:1;marker:none;marker-start:none;marker-mid:none;marker-end:none;enable-background:accumulate"
       id="path9100"
       d="M -17.70218,819.70619 0.63286,809.88017 -17.66053,792.72602" />
    <path
       style="fill:#008f4c;fill-rule:evenodd;stroke:#000000;stroke-width:1px;stroke-linecap:round;stroke-linejoin:round;stroke-opacity:1"
       id="path9104"
       d="m -32.1425,803.71585 14.64903,13.15604 14.43461,-7.94056 -14.50607,-12.92157 z" />
    <path
       style="fill:none;fill-rule:evenodd;stroke:#000000;stroke-width:0.5;stroke-linecap:round;stroke-linejoin:round;stroke-miterlimit:4;stroke-dasharray:none;stroke-opacity:1"
       id="path9106"
       d="m -22.29168,805.53879 7.74896,6.93499 7.63553,-4.17597 -7.67333,-6.81144 z" />
    <path
       style="fill:none;fill-rule:evenodd;stroke:#000000;stroke-width:0.5;stroke-linecap:round;stroke-linejoin:round;stroke-miterlimit:4;stroke-dasharray:none;stroke-opacity:1"
       id="path9108"
       d="m -17.56493,816.78941 3.03708,-4.31306" />
    <path
       style="fill:none;fill-rule:evenodd;stroke:#000000;stroke-width:0.5;stroke-linecap:round;stroke-linejoin:round;stroke-miterlimit:4;stroke-dasharray:none;stroke-opacity:1"
       id="path9110"
       d="m -3.2732,808.89239 -3.66247,-0.6133" />
    <path
       style="fill:none;fill-rule:evenodd;stroke:#000000;stroke-width:0.5;stroke-linecap:round;stroke-linejoin:round;stroke-miterlimit:4;stroke-dasharray:none;stroke-opacity:1"
       id="path9112"
       d="m -22.28119,805.50782 -9.57547,-1.74003" />
    <path
       style="fill:none;fill-rule:evenodd;stroke:#000000;stroke-width:0.5;stroke-linecap:round;stroke-linejoin:round;stroke-miterlimit:4;stroke-dasharray:none;stroke-opacity:1"
       id="path9114"
       d="m -14.54592,801.54505 -3.01901,-5.53529" />
    <rect
       style="display:inline;overflow:visible;visibility:visible;fill:#eac102;fill-opacity:1;fill-rule:nonzero;stroke:#000000;stroke-width:1;stroke-linecap:butt;stroke-linejoin:miter;stroke-miterlimit:4;stroke-dasharray:none;stroke-dashoffset:0;stroke-opacity:1;marker:none;marker-start:none;marker-mid:none;marker-end:none;enable-background:accumulate"
       id="rect9118"
       y="785.9574"
       x="-181.34109"
       ry="13.324984"
       rx="13.479209"
       height="26.649967"
       width="52.713264" />
    <rect
       style="display:inline;overflow:visible;visibility:visible;fill:#ed1c24;fill-opacity:1;fill-rule:nonzero;stroke:#000000;stroke-width:1;stroke-linecap:butt;stroke-linejoin:miter;stroke-miterlimit:4;stroke-dasharray:none;stroke-dashoffset:0;stroke-opacity:1;marker:none;marker-start:none;marker-mid:none;marker-end:none;enable-background:accumulate"
       id="rect9120"
       y="787.7757"
       x="-178.7002"
       ry="11.506671"
       rx="12.128588"
       height="23.013342"
       width="47.431377" />
    <path
       style="display:inline;overflow:visible;visibility:visible;fill:#ed1c24;fill-opacity:1;fill-rule:nonzero;stroke:#000000;stroke-width:1;stroke-linecap:butt;stroke-linejoin:miter;stroke-miterlimit:4;stroke-dasharray:none;stroke-dashoffset:0;stroke-opacity:1;marker:none;marker-start:none;marker-mid:none;marker-end:none;enable-background:accumulate"
       id="path9172"
       d="m -341.59526,837.04565 c -0.0992,0.0337 -0.1798,0.0984 -0.28087,0.12895 -5.72081,1.73159 -12.18124,-2.29636 -14.43201,-8.98955 -2.25082,-6.69317 0.55713,-13.52649 6.2779,-15.25807 0.10106,-0.0306 0.2062,-0.0222 0.30768,-0.0492 z" />
    <path
       style="display:inline;overflow:visible;visibility:visible;fill:#eac102;fill-opacity:1;fill-rule:nonzero;stroke:#000000;stroke-width:1;stroke-linecap:butt;stroke-linejoin:miter;stroke-miterlimit:4;stroke-dashoffset:0;stroke-opacity:1;marker:none;marker-start:none;marker-mid:none;marker-end:none;enable-background:accumulate"
       id="path9174"
       d="m -349.21345,810.31296 -3.11644,0.94329 9.51734,28.30138 3.11644,-0.94329 c -2.57267,-11.26199 -5.88715,-21.71151 -9.51734,-28.30138 z" />
    <path
       style="display:inline;overflow:visible;visibility:visible;fill:#eac102;fill-opacity:1;fill-rule:evenodd;stroke:#000000;stroke-width:1px;stroke-linecap:round;stroke-linejoin:round;stroke-miterlimit:4;stroke-dasharray:none;stroke-dashoffset:0;stroke-opacity:1;marker:none;marker-start:none;marker-mid:none;marker-end:none;enable-background:accumulate"
       id="path9178"
       d="m -332.34589,799.94588 c 2.94594,0.0624 6.73261,5.39966 8.74534,12.52628 2.01264,7.12609 1.54209,13.53099 -0.97585,14.98304 l -0.10604,0.0558 c -0.14987,0.0765 -0.30418,0.13511 -0.46785,0.17672 l -4.93261,1.24306 -2.23548,-7.91515 c -0.84249,-1.70925 -1.59509,-3.65299 -2.19302,-5.76988 -0.59788,-2.1169 -0.97427,-4.17072 -1.14547,-6.05063 l -2.21441,-7.84055 z" />
    <path
       style="display:inline;overflow:visible;visibility:visible;fill:#eac102;fill-opacity:1;fill-rule:evenodd;stroke:#000000;stroke-width:1.55532px;stroke-linecap:round;stroke-linejoin:round;stroke-miterlimit:4;stroke-dasharray:none;stroke-dashoffset:0;stroke-opacity:1;marker:none;marker-start:none;marker-mid:none;marker-end:none;enable-background:accumulate"
       id="path9180"
       transform="matrix(-0.8995649,0.2286779,0.1210959,0.4287623,1418.3935,46.897205)"
       d="m 2048.3786,702.48627 c 0.01,11.4875 -1.1487,22.11745 -3.0292,27.87137 -1.8805,5.75391 -4.1992,5.75391 -6.0797,0 -1.8805,-5.75392 -3.0358,-16.38387 -3.0292,-27.87137 -0.01,-11.4875 1.1487,-22.11745 3.0292,-27.87137 1.8805,-5.75391 4.1992,-5.75391 6.0797,0 1.8805,5.75392 3.0358,16.38387 3.0292,27.87137 z" />
    <path
       style="display:inline;overflow:visible;visibility:visible;fill:#e3e4e5;fill-opacity:1;fill-rule:evenodd;stroke:#000000;stroke-width:1px;stroke-linecap:round;stroke-linejoin:round;stroke-miterlimit:4;stroke-dashoffset:0;stroke-opacity:1;marker:none;marker-start:none;marker-mid:none;marker-end:none;enable-background:accumulate"
       id="path9182"
       d="m -337.70078,803.06697 c -10.48699,6.26273 -4.66007,24.14277 7.06271,25.00679 7.00839,-3.3866 -0.63591,-26.52019 -7.06271,-25.00679 z" />
    <path
       style="display:inline;overflow:visible;visibility:visible;fill:#ed1c24;fill-opacity:1;fill-rule:nonzero;stroke:#000000;stroke-width:1;stroke-linecap:butt;stroke-linejoin:miter;stroke-miterlimit:4;stroke-dasharray:none;stroke-dashoffset:0;stroke-opacity:1;marker:none;marker-start:none;marker-mid:none;marker-end:none;enable-background:accumulate"
       id="path9188"
       d="m 31.62628,837.04565 c 0.09922,0.0337 0.1798,0.0984 0.280867,0.12895 5.720813,1.73159 12.181244,-2.29636 14.432015,-8.98955 2.250815,-6.69317 -0.55713,-13.52649 -6.277898,-15.25807 -0.101066,-0.0306 -0.206207,-0.0222 -0.307688,-0.0492 z" />
    <path
       style="display:inline;overflow:visible;visibility:visible;fill:#eac102;fill-opacity:1;fill-rule:nonzero;stroke:#000000;stroke-width:1;stroke-linecap:butt;stroke-linejoin:miter;stroke-miterlimit:4;stroke-dashoffset:0;stroke-opacity:1;marker:none;marker-start:none;marker-mid:none;marker-end:none;enable-background:accumulate"
       id="path9190"
       d="m 39.244469,810.31296 3.116437,0.94329 -9.517339,28.30138 -3.116437,-0.94329 c 2.57267,-11.26199 5.887153,-21.71151 9.517339,-28.30138 z" />
    <path
       style="fill:#e3e4e5;fill-opacity:1;stroke:#010101;stroke-width:1;stroke-miterlimit:4;stroke-dasharray:none"
       id="path10153"
       d="m 49.666502,812.66967 c -5.2333,-0.0689 -9.4162,-4.3635 -9.3473,-9.5968 0.0689,-5.2286 4.3635,-9.4115 9.5968,-9.3425 5.231,0.0689 9.4138,4.3634 9.3449,9.592 -0.069,5.2333 -4.3634,9.4163 -9.5944,9.3473 z" />
    <path
       style="display:inline;overflow:visible;visibility:visible;fill:#eac102;fill-opacity:1;fill-rule:evenodd;stroke:#000000;stroke-width:1px;stroke-linecap:round;stroke-linejoin:round;stroke-miterlimit:4;stroke-dasharray:none;stroke-dashoffset:0;stroke-opacity:1;marker:none;marker-start:none;marker-mid:none;marker-end:none;enable-background:accumulate"
       id="path9194"
       d="m 22.376909,799.94588 c -2.945939,0.0624 -6.732612,5.39966 -8.745343,12.52628 -2.012632,7.12609 -1.542082,13.53099 0.975849,14.98304 l 0.106041,0.0558 c 0.149871,0.0765 0.304189,0.13511 0.467852,0.17672 l 4.932611,1.24306 2.235484,-7.91515 c 0.84249,-1.70925 1.59509,-3.65299 2.193014,-5.76988 0.597879,-2.1169 0.974268,-4.17072 1.14547,-6.05063 l 2.214415,-7.84055 z" />
    <path
       style="display:inline;overflow:visible;visibility:visible;fill:#eac102;fill-opacity:1;fill-rule:evenodd;stroke:#000000;stroke-width:1.55532px;stroke-linecap:round;stroke-linejoin:round;stroke-miterlimit:4;stroke-dasharray:none;stroke-dashoffset:0;stroke-opacity:1;marker:none;marker-start:none;marker-mid:none;marker-end:none;enable-background:accumulate"
       id="path9196"
       transform="matrix(0.8995649,0.2286779,-0.1210959,0.4287623,-1728.3625,46.897205)"
       d="m 2048.3786,702.48627 c 0.01,11.4875 -1.1487,22.11745 -3.0292,27.87137 -1.8805,5.75391 -4.1992,5.75391 -6.0797,0 -1.8805,-5.75392 -3.0358,-16.38387 -3.0292,-27.87137 -0.01,-11.4875 1.1487,-22.11745 3.0292,-27.87137 1.8805,-5.75391 4.1992,-5.75391 6.0797,0 1.8805,5.75392 3.0358,16.38387 3.0292,27.87137 z" />
    <path
       style="display:inline;overflow:visible;visibility:visible;fill:#e3e4e5;fill-opacity:1;fill-rule:evenodd;stroke:#000000;stroke-width:1px;stroke-linecap:round;stroke-linejoin:round;stroke-miterlimit:4;stroke-dashoffset:0;stroke-opacity:1;marker:none;marker-start:none;marker-mid:none;marker-end:none;enable-background:accumulate"
       id="path9198"
       d="m 27.731796,803.06697 c 10.486989,6.26273 4.660072,24.14277 -7.062703,25.00679 -7.008398,-3.3866 0.63591,-26.52019 7.062703,-25.00679 z" />
    <path
       style="fill:#e3e4e5;fill-opacity:1;stroke:#010101;stroke-width:1;stroke-miterlimit:4;stroke-dasharray:none"
       id="path10145"
       d="m -156.74138,878.9593 c -5.23329,-0.069 -9.41618,-4.36354 -9.34724,-9.59683 0.0689,-5.22861 4.36344,-9.41143 9.59675,-9.34248 5.231,0.0688 9.41378,4.36342 9.34491,9.59203 -0.0689,5.23329 -4.36339,9.41623 -9.59442,9.34728 z" />
    <path
       style="fill:#e3e4e5;fill-opacity:1;stroke:#010101;stroke-width:1;stroke-miterlimit:4;stroke-dasharray:none"
       id="path10143"
       d="m -74.715108,877.39292 c -5.233292,-0.0689 -9.416181,-4.36353 -9.347242,-9.59682 0.06887,-5.22861 4.36344,-9.41143 9.596743,-9.34248 5.231009,0.0688 9.413784,4.36341 9.344913,9.59203 -0.06894,5.23329 -4.363394,9.41622 -9.594414,9.34727 z" />
    <path
       style="fill:#e3e4e5;fill-opacity:1;stroke:#010101;stroke-width:1;stroke-miterlimit:4;stroke-dasharray:none"
       id="path10147"
       d="m -252.334,876.71811 c -5.2333,-0.0689 -9.41619,-4.36353 -9.34725,-9.59682 0.0689,-5.22861 4.36344,-9.41143 9.59675,-9.34248 5.23101,0.0688 9.41378,4.36341 9.34491,9.59203 -0.0689,5.23329 -4.36339,9.41622 -9.59441,9.34727 z" />
    <path
       style="fill:#e3e4e5;fill-opacity:1;stroke:#010101;stroke-width:1;stroke-miterlimit:4;stroke-dasharray:none"
       id="path10149"
       d="m -332.11915,864.23586 c -5.23329,-0.0689 -9.41618,-4.36353 -9.34724,-9.59682 0.0689,-5.22861 4.36344,-9.41143 9.59674,-9.34248 5.23101,0.0688 9.41379,4.36341 9.34492,9.59203 -0.0689,5.23329 -4.3634,9.41622 -9.59442,9.34727 z" />
    <path
       style="fill:#eac102;fill-rule:evenodd;stroke:#000000;stroke-width:1px;stroke-linecap:butt;stroke-linejoin:miter;stroke-opacity:1"
       id="path9202"
       d="m -326.50935,845.30177 c 0,0 37.06156,-17.86783 171.52462,-17.86783 134.01755,0 171.52453,17.86783 171.52453,17.86783 0,0 -31.34738,17.86784 -171.52453,17.86784 -140.62294,0 -171.52462,-17.86784 -171.52462,-17.86784 z" />
    <path
       style="font-size:12px;fill:none;stroke:#000000;stroke-width:0.520082"
       id="path9206"
       d="M -198.64228,866.02256 V 824.68193" />
    <path
       style="font-size:12px;fill:none;stroke:#000000;stroke-width:0.765678"
       id="path9208"
       d="M -206.5242,866.02256 V 824.68193" />
    <path
       style="font-size:12px;fill:none;stroke:#000000;stroke-width:1.02572"
       id="path9210"
       d="M -213.96465,866.02256 V 824.68193" />
    <path
       style="font-size:12px;fill:none;stroke:#000000;stroke-width:1.28576"
       id="path9212"
       d="M -221.3406,866.02256 V 824.68193" />
    <path
       style="font-size:12px;fill:none;stroke:#000000;stroke-width:1.5458"
       id="path9214"
       d="M -227.9129,866.02256 V 824.68193" />
    <path
       style="font-size:12px;fill:none;stroke:#000000;stroke-width:1.80585"
       id="path9216"
       d="m -240.44748,863.79359 -0.17363,-37.6268 m 6.11601,38.12181 V 824.931" />
    <path
       style="font-size:12px;fill:none;stroke:#000000;stroke-width:2.05144"
       id="path9218"
       d="m -252.0199,862.10168 v -34.66675 m 5.86312,35.65666 -0.17363,-36.89245" />
    <path
       style="font-size:12px;fill:none;stroke:#000000;stroke-width:2.31148"
       id="path9220"
       d="m -267.54548,860.12186 v -30.45797 m 5.09412,30.95293 v -31.9429 m 5.24803,32.93281 v -33.18189" />
    <path
       style="font-size:12px;fill:none;stroke:#000000;stroke-width:2.57153"
       id="path9222"
       d="M -272.98696,859.87278 V 830.40793" />
    <path
       style="font-size:12px;fill:none;stroke:#000000;stroke-width:2.83157"
       id="path9224"
       d="M -278.06127,858.38785 V 830.90289" />
    <path
       style="font-size:12px;fill:none;stroke:#000000;stroke-width:3.09161"
       id="path9226"
       d="M -283.50266,857.64376 V 832.13867" />
    <path
       style="font-size:12px;fill:none;stroke:#000000;stroke-width:3.33721"
       id="path9228"
       d="m -294.64346,855.41806 -0.1737,-20.30632 m 5.88288,21.2963 v -22.78123" />
    <path
       style="font-size:12px;fill:none;stroke:#000000;stroke-width:3.52501"
       id="path9230"
       d="M -300.35276,853.68404 V 835.8525" />
    <path
       style="font-size:12px;fill:none;stroke:#000000;stroke-width:3.78505"
       id="path9232"
       d="M -305.58088,852.23802 V 837.38911" />
    <path
       style="font-size:12px;fill:none;stroke:#000000;stroke-width:4.03065"
       id="path9234"
       d="M -311.29018,850.2582 V 838.62817" />
    <path
       style="font-size:12px;fill:none;stroke:#000000;stroke-width:4.27626"
       id="path9236"
       d="m -317.15818,849.26829 v -8.66024" />
    <path
       style="font-size:12px;fill:none;stroke:#000000;stroke-width:5.04192"
       id="path9238"
       d="m -323.3688,847.29035 v -4.20853" />
    <path
       style="font-size:12px;fill:none;stroke:#000000;stroke-width:0.260042"
       id="path9240"
       d="m -167.28348,863.79359 v -37.87262 m -13.35298,39.11167 0.17354,-40.10164 m -9.90568,40.59659 v -40.84566" />
    <path
       style="font-size:12px;fill:none;stroke:#000000;stroke-width:0.520082"
       id="path9242"
       d="M -111.3271,866.02256 V 824.68193" />
    <path
       style="font-size:12px;fill:none;stroke:#000000;stroke-width:0.765678"
       id="path9244"
       d="M -103.44528,866.02256 V 824.68193" />
    <path
       style="font-size:12px;fill:none;stroke:#000000;stroke-width:1.02572"
       id="path9246"
       d="M -96.00483,866.02256 V 824.68193" />
    <path
       style="font-size:12px;fill:none;stroke:#000000;stroke-width:1.28576"
       id="path9248"
       d="M -88.62888,866.02256 V 824.68193" />
    <path
       style="font-size:12px;fill:none;stroke:#000000;stroke-width:1.5458"
       id="path9250"
       d="M -82.05658,866.02256 V 824.68193" />
    <path
       style="font-size:12px;fill:none;stroke:#000000;stroke-width:1.80585"
       id="path9252"
       d="m -69.52191,863.79359 0.17363,-37.6268 m -6.1161,38.12181 V 824.931" />
    <path
       style="font-size:12px;fill:none;stroke:#000000;stroke-width:2.05144"
       id="path9254"
       d="m -57.94958,862.10168 v -34.66675 m -5.86303,35.65666 0.17354,-36.89245" />
    <path
       style="font-size:12px;fill:none;stroke:#000000;stroke-width:2.31148"
       id="path9256"
       d="m -42.4239,860.12186 v -30.45797 m -5.09422,30.95293 v -31.9429 m -5.24803,32.93281 v -33.18189" />
    <path
       style="font-size:12px;fill:none;stroke:#000000;stroke-width:2.57153"
       id="path9258"
       d="M -36.98243,859.87278 V 830.40793" />
    <path
       style="font-size:12px;fill:none;stroke:#000000;stroke-width:2.83157"
       id="path9260"
       d="M -31.90812,858.38785 V 830.90289" />
    <path
       style="font-size:12px;fill:none;stroke:#000000;stroke-width:3.09161"
       id="path9262"
       d="M -26.46673,857.64376 V 832.13867" />
    <path
       style="font-size:12px;fill:none;stroke:#000000;stroke-width:3.33721"
       id="path9264"
       d="m -15.32599,855.41806 0.17372,-20.30632 m -5.88293,21.2963 v -22.78123" />
    <path
       style="font-size:12px;fill:none;stroke:#000000;stroke-width:3.52501"
       id="path9266"
       d="M -9.61669,853.68404 V 835.8525" />
    <path
       style="font-size:12px;fill:none;stroke:#000000;stroke-width:3.78505"
       id="path9268"
       d="M -4.38857,852.23802 V 837.38911" />
    <path
       style="font-size:12px;fill:none;stroke:#000000;stroke-width:4.03065"
       id="path9270"
       d="M 1.32073,850.2582 V 838.62817" />
    <path
       style="font-size:12px;fill:none;stroke:#000000;stroke-width:4.27626"
       id="path9272"
       d="m 7.18873,849.26829 v -8.66024" />
    <path
       style="font-size:12px;fill:none;stroke:#000000;stroke-width:5.04192"
       id="path9274"
       d="m 13.3993,847.29035 v -4.20853" />
    <path
       style="font-size:12px;fill:none;stroke:#000000;stroke-width:0.260042"
       id="path9276"
       d="m -142.686,863.79359 v -37.87262 m 13.35307,39.11167 -0.17354,-40.10164 m 9.90559,40.59659 v -40.84566" />
    <path
       style="fill:#e3e4e5;fill-opacity:1;stroke:#010101;stroke-width:1;stroke-miterlimit:4;stroke-dasharray:none"
       id="path11736"
       d="m 11.496502,850.26797 c 2.1863,-4.7552 7.8086,-6.8359 12.5639,-4.6495 4.7508,2.1843 6.8315,7.8067 4.6452,12.5619 -2.1854,4.7531 -7.8076,6.8337 -12.5586,4.6494 -4.7552,-2.1864 -6.836,-7.8086 -4.6505,-12.5618 z" />
    <path
       style="fill:#eac102;fill-rule:evenodd;stroke:#000000;stroke-width:1px;stroke-linecap:butt;stroke-linejoin:miter;stroke-opacity:1"
       id="path9278"
       d="m -155.13818,815.16795 c -52.17482,0.52021 -104.94361,0.57554 -156.18456,11.01141 -11.435,3.44575 -27.79124,5.3639 -32.08365,17.56909 -1.40822,10.19432 11.50827,14.52148 19.58428,17.32316 38.47209,11.02566 79.1413,11.9655 119.00318,13.68913 62.0158,1.18767 124.40827,1.64837 185.96427,-6.58499 16.81677,-3.10144 35.33335,-5.01624 49.16225,-15.46516 8.25728,-7.72211 -0.86558,-18.51768 -9.99369,-20.73862 -31.31383,-11.47114 -65.46476,-12.69248 -98.58375,-15.02799 -25.59623,-1.33357 -51.23671,-1.75909 -76.86833,-1.77603 z m 0.14405,12.2683 c 134.01746,2e-5 171.53522,17.86964 171.53522,17.86964 -9e-5,-10e-6 -31.35816,17.86964 -171.53522,17.86964 -140.62303,0 -171.50647,-17.86964 -171.50647,-17.86964 0,-10e-6 37.04332,-17.86964 171.50647,-17.86964 z" />
    <path
       style="fill:#e3e4e5;fill-opacity:1;stroke:#010101;stroke-width:1;stroke-miterlimit:4;stroke-dasharray:none"
       id="path11795"
       d="m -4.578098,839.19855 c -0.4011,0.5337 -0.8038,0.38083 -1.0938,1.01153 -2.1853,4.7531 -0.0991,10.3762 4.6563,12.5625 4.7509,2.1843 10.377,0.0968 12.5625,-4.6562 0.9127,-1.9853 0.9294,-2.52278 0.4687,-4.49708 -7.128572,-2.16395 -13.0278934,-3.94986 -16.5937,-4.42075 z" />
    <path
       style="fill:#e3e4e5;fill-opacity:1;stroke:#010101;stroke-width:1;stroke-miterlimit:4;stroke-dasharray:none"
       id="path10141"
       d="m 12.39527,866.01911 c -5.233292,-0.069 -9.416181,-4.36354 -9.347242,-9.59683 0.068871,-5.22861 4.36344,-9.41143 9.596743,-9.34248 5.231009,0.0688 9.413785,4.36342 9.344914,9.59203 -0.06894,5.23329 -4.363394,9.41623 -9.594415,9.34728 z" />
    <path
       style="fill:#e3e4e5;fill-opacity:1;stroke:#010101;stroke-width:1;stroke-miterlimit:4;stroke-dasharray:none"
       id="path10261"
       d="m 48.974802,799.39097 c -5.2333,-0.069 -9.4162,-4.3636 -9.3473,-9.5968 0.0689,-5.2287 4.3635,-9.4115 9.5968,-9.3425 5.231,0.0688 9.4137,4.3634 9.3449,9.592 -0.069,5.2333 -4.3634,9.4162 -9.5944,9.3473 z" />
    <path
       style="fill:#e3e4e5;fill-opacity:1;stroke:#010101;stroke-width:1;stroke-miterlimit:4;stroke-dasharray:none"
       id="path10211"
       d="m 63.015319,769.31548 c 0,12.39811 -10.05264,22.44791 -22.457219,22.44791 -12.406885,0 -22.461842,-10.0474 -22.461842,-22.44791 0,-12.39572 10.052651,-22.44541 22.461842,-22.44541 12.404579,0 22.457219,10.0474 22.457219,22.44541 z" />
    <path
       style="fill:#e3e4e5;fill-opacity:1;stroke:#010101;stroke-width:1;stroke-miterlimit:4;stroke-dasharray:none"
       id="path10213"
       d="m -330.06528,771.3153 c 0,12.39812 -10.05725,22.44792 -22.46183,22.44792 -12.40227,0 -22.45723,-10.04752 -22.45723,-22.44792 0,-12.39572 10.05266,-22.44551 22.45723,-22.44551 12.40458,0 22.46183,10.04751 22.46183,22.44551 z" />
    <path
       style="fill:#e3e4e5;fill-opacity:1;stroke:#010101;stroke-width:1;stroke-miterlimit:4;stroke-dasharray:none"
       id="path10217"
       d="m -205.35312,752.39272 c 0,12.39823 -10.05495,22.44792 -22.45722,22.44792 -12.40227,0 -22.46184,-10.0474 -22.46184,-22.44792 0,-12.39572 10.05726,-22.4454 22.46184,-22.4454 12.40227,0 22.45722,10.04968 22.45722,22.4454 z" />
    <path
       style="fill:#e3e4e5;fill-opacity:1;stroke:#010101;stroke-width:1;stroke-miterlimit:4;stroke-dasharray:none"
       id="path10219"
       d="m -59.696823,752.39295 c 0,12.39583 -10.052651,22.44792 -22.45723,22.44792 -12.402273,0 -22.457217,-10.04969 -22.457217,-22.44792 0,-12.398 10.054944,-22.44769 22.457217,-22.44769 12.404579,0.002 22.45723,10.05197 22.45723,22.44769 z" />
    <path
       style="fill:#e3e4e5;fill-opacity:1;stroke:#010101;stroke-width:1;stroke-miterlimit:4;stroke-dasharray:none"
       id="path10223"
       d="m -197.61802,762.82594 c 0,5.23375 -4.23907,9.47285 -9.47288,9.47285 -5.229,0 -9.46808,-4.2391 -9.46808,-9.47285 0,-5.23146 4.23908,-9.47045 9.46808,-9.47045 5.23381,0 9.47288,4.23899 9.47288,9.47045 z" />
    <path
       style="fill:#e3e4e5;fill-opacity:1;stroke:#010101;stroke-width:1;stroke-miterlimit:4;stroke-dasharray:none"
       id="path10225"
       d="m -184.24417,767.95869 c 0,5.23375 -4.23907,9.47285 -9.47288,9.47285 -5.229,0 -9.46808,-4.2391 -9.46808,-9.47285 0,-5.23146 4.23908,-9.47045 9.46808,-9.47045 5.23381,0 9.47288,4.23899 9.47288,9.47045 z" />
    <path
       style="fill:#e3e4e5;fill-opacity:1;stroke:#010101;stroke-width:1;stroke-miterlimit:4;stroke-dasharray:none"
       id="path10227"
       d="m -173.04513,779.15771 c 0,5.23374 -4.23908,9.47284 -9.47288,9.47284 -5.229,0 -9.46808,-4.2391 -9.46808,-9.47284 0,-5.23147 4.23908,-9.47046 9.46808,-9.47046 5.2338,0 9.47288,4.23899 9.47288,9.47046 z" />
    <path
       style="fill:#e3e4e5;fill-opacity:1;stroke:#010101;stroke-width:1;stroke-miterlimit:4;stroke-dasharray:none"
       id="path10229"
       d="m -164.62919,791.63996 c 0,5.23375 -4.23908,9.47285 -9.47288,9.47285 -5.229,0 -9.46808,-4.2391 -9.46808,-9.47285 0,-5.23147 4.23908,-9.47045 9.46808,-9.47045 5.2338,0 9.47288,4.23898 9.47288,9.47045 z" />
    <path
       style="fill:#e3e4e5;fill-opacity:1;stroke:#010101;stroke-width:1;stroke-miterlimit:4;stroke-dasharray:none"
       id="path10231"
       d="m -158.38806,805.90545 c 0,5.23375 -4.23908,9.47285 -9.47289,9.47285 -5.229,0 -9.46807,-4.2391 -9.46807,-9.47285 0,-5.23146 4.23907,-9.47045 9.46807,-9.47045 5.23381,0 9.47289,4.23899 9.47289,9.47045 z" />
    <path
       style="fill:#e3e4e5;fill-opacity:1;stroke:#010101;stroke-width:1;stroke-miterlimit:4;stroke-dasharray:none"
       id="path10233"
       d="m -153.93011,821.0624 c 0,5.23375 -4.23908,9.47285 -9.47289,9.47285 -5.229,0 -9.46807,-4.2391 -9.46807,-9.47285 0,-5.23147 4.23907,-9.47045 9.46807,-9.47045 5.23381,0 9.47289,4.23898 9.47289,9.47045 z" />
    <path
       style="fill:#e3e4e5;fill-opacity:1;stroke:#010101;stroke-width:1;stroke-miterlimit:4;stroke-dasharray:none"
       id="path10235"
       d="m -319.3137,777.99307 c 1.1831,5.0983 -1.9881,10.1858 -7.0864,11.3689 -5.0937,1.182 -10.1813,-1.9891 -11.3643,-7.0875 -1.1825,-5.096 1.9886,-10.1835 7.0823,-11.3655 5.0983,-1.1831 10.1859,1.988 11.3684,7.0841 z" />
    <path
       style="fill:#e3e4e5;fill-opacity:1;stroke:#010101;stroke-width:1;stroke-miterlimit:4;stroke-dasharray:none"
       id="path10237"
       d="m -304.6737,781.91817 c 1.1831,5.0983 -1.9881,10.1859 -7.0864,11.3689 -5.0937,1.182 -10.1813,-1.9892 -11.3643,-7.0874 -1.1825,-5.0961 1.9886,-10.1836 7.0823,-11.3656 5.0983,-1.183 10.1859,1.988 11.3684,7.0841 z" />
    <path
       style="fill:#e3e4e5;fill-opacity:1;stroke:#010101;stroke-width:1;stroke-miterlimit:4;stroke-dasharray:none"
       id="path10239"
       d="m -291.2331,790.29577 c 1.1831,5.0984 -1.988,10.1859 -7.0864,11.369 -5.0937,1.182 -10.1812,-1.9891 -11.3643,-7.0875 -1.1825,-5.0961 1.9887,-10.1835 7.0823,-11.3655 5.0984,-1.1831 10.1859,1.988 11.3684,7.084 z" />
    <path
       style="fill:#e3e4e5;fill-opacity:1;stroke:#010101;stroke-width:1;stroke-miterlimit:4;stroke-dasharray:none"
       id="path10241"
       d="m -279.3218,800.55267 c 1.183,5.0983 -1.9881,10.1859 -7.0865,11.3689 -5.0936,1.182 -10.1812,-1.9892 -11.3643,-7.0874 -1.1825,-5.0961 1.9887,-10.1836 7.0823,-11.3656 5.0984,-1.183 10.1859,1.988 11.3685,7.0841 z" />
    <path
       style="fill:#e3e4e5;fill-opacity:1;stroke:#010101;stroke-width:1;stroke-miterlimit:4;stroke-dasharray:none"
       id="path10243"
       d="m -269.8008,811.92967 c 1.183,5.0984 -1.9881,10.1859 -7.0865,11.369 -5.0936,1.182 -10.1812,-1.9892 -11.3643,-7.0875 -1.1825,-5.0961 1.9887,-10.1835 7.0823,-11.3655 5.0984,-1.1831 10.1859,1.988 11.3685,7.084 z" />
    <path
       style="fill:#e3e4e5;fill-opacity:1;stroke:#010101;stroke-width:1;stroke-miterlimit:4;stroke-dasharray:none"
       id="path10249"
       d="m -54.178068,765.28327 c -1.166867,5.10202 -6.244356,8.28931 -11.346426,7.12243 -5.097385,-1.16581 -8.284654,-6.24331 -7.117786,-11.34533 1.166359,-5.09979 6.243822,-8.28697 11.341207,-7.12116 5.10207,1.16688 8.289364,6.24427 7.123005,11.34406 z" />
    <path
       style="fill:#e3e4e5;fill-opacity:1;stroke:#010101;stroke-width:1;stroke-miterlimit:4;stroke-dasharray:none"
       id="path10251"
       d="m -42.73109,773.21819 c -1.166868,5.10202 -6.244357,8.28932 -11.346427,7.12243 -5.097384,-1.1658 -8.284653,-6.24331 -7.117786,-11.34532 1.166359,-5.09979 6.243822,-8.28698 11.341207,-7.12117 5.10207,1.16688 8.289364,6.24428 7.123006,11.34406 z" />
    <path
       style="fill:#e3e4e5;fill-opacity:1;stroke:#010101;stroke-width:1;stroke-miterlimit:4;stroke-dasharray:none"
       id="path10253"
       d="m -34.310762,786.63216 c -1.166868,5.10201 -6.244357,8.28931 -11.346427,7.12243 -5.097385,-1.16581 -8.284653,-6.24331 -7.117786,-11.34533 1.166359,-5.09979 6.243822,-8.28697 11.341207,-7.12116 5.10207,1.16688 8.289364,6.24427 7.123006,11.34406 z" />
    <path
       style="fill:#e3e4e5;fill-opacity:1;stroke:#010101;stroke-width:1;stroke-miterlimit:4;stroke-dasharray:none"
       id="path10255"
       d="m -28.88958,800.67657 c -1.166868,5.10201 -6.244357,8.28931 -11.346426,7.12243 -5.097385,-1.16581 -8.284654,-6.24331 -7.117786,-11.34533 1.166358,-5.09979 6.243822,-8.28697 11.341206,-7.12116 5.10207,1.16688 8.289364,6.24427 7.123006,11.34406 z" />
    <path
       style="fill:#e3e4e5;fill-opacity:1;stroke:#010101;stroke-width:1;stroke-miterlimit:4;stroke-dasharray:none"
       id="path10257"
       d="m -25.986046,815.97446 c -1.166868,5.10202 -6.244357,8.28931 -11.346426,7.12243 -5.097385,-1.16581 -8.284654,-6.24331 -7.117786,-11.34533 1.166358,-5.09978 6.243822,-8.28697 11.341206,-7.12116 5.10207,1.16688 8.289365,6.24427 7.123006,11.34406 z" />
    <path
       style="fill:#e3e4e5;fill-opacity:1;stroke:#010101;stroke-width:1;stroke-miterlimit:4;stroke-dasharray:none"
       id="path10259"
       d="m -25.019554,831.74381 c -1.166868,5.10201 -6.244357,8.28931 -11.346426,7.12243 -5.097385,-1.16581 -8.284654,-6.24332 -7.117786,-11.34533 1.166358,-5.09979 6.243822,-8.28697 11.341206,-7.12117 5.10207,1.16689 8.289364,6.24428 7.123006,11.34407 z" />
    <path
       style="fill:#e3e4e5;fill-opacity:1;stroke:#010101;stroke-width:1;stroke-miterlimit:4;stroke-dasharray:none"
       id="path11675"
       d="m -94.121498,868.74437 c -0.4496,-5.2144 3.4096,-9.802 8.6241,-10.2516 5.2096,-0.4492 9.7972,3.4101 10.2468,8.6245 0.4494,5.2121 -3.4098,9.7996 -8.6195,10.2488 -5.2144,0.4496 -9.802,-3.4095 -10.2514,-8.6217 z" />
    <path
       style="fill:#e3e4e5;fill-opacity:1;stroke:#010101;stroke-width:1;stroke-miterlimit:4;stroke-dasharray:none"
       id="path11677"
       d="m -106.0587,860.78697 c -0.4496,-5.2144 3.4096,-9.802 8.624102,-10.2516 5.2097,-0.4493 9.7972,3.41 10.2469,8.6244 0.4494,5.2121 -3.4099,9.7996 -8.6195,10.2488 -5.214502,0.4497 -9.802102,-3.4095 -10.251502,-8.6216 z" />
    <path
       style="fill:#e3e4e5;fill-opacity:1;stroke:#010101;stroke-width:1;stroke-miterlimit:4;stroke-dasharray:none"
       id="path11679"
       d="m -118.1784,850.59147 c -0.4496,-5.2144 3.4096,-9.802 8.6241,-10.2517 5.2096,-0.4492 9.797202,3.4101 10.246802,8.6245 0.4495,5.2121 -3.409802,9.7996 -8.619502,10.2488 -5.2144,0.4496 -9.802,-3.4095 -10.2514,-8.6216 z" />
    <path
       style="fill:#e3e4e5;fill-opacity:1;stroke:#010101;stroke-width:1;stroke-miterlimit:4;stroke-dasharray:none"
       id="path11681"
       d="m -127.6356,838.87827 c -0.4496,-5.2144 3.4097,-9.802 8.6241,-10.2516 5.2097,-0.4492 9.7973,3.4101 10.2469,8.6245 0.4494,5.2121 -3.4098,9.7996 -8.6195,10.2488 -5.2145,0.4496 -9.802,-3.4095 -10.2515,-8.6217 z" />
    <path
       style="fill:#e3e4e5;fill-opacity:1;stroke:#010101;stroke-width:1;stroke-miterlimit:4;stroke-dasharray:none"
       id="path11791"
       d="m -136.46814,827.96615 c 1.5909,3.83221 5.4318,6.36579 9.75269,5.83232 3.49498,-0.43149 6.17652,-2.77713 7.44732,-5.80938 -5.58809,-0.0708 -11.32002,-0.0801 -17.20001,-0.0229 z" />
    <path
       style="fill:#e3e4e5;fill-opacity:1;stroke:#010101;stroke-width:1;stroke-miterlimit:4;stroke-dasharray:none"
       id="path11783"
       d="m -291.9219,836.73704 c -1.4023,1.8137 -2.2126,4.0966 -2,6.5625 0.4494,5.2121 5.0355,9.0744 10.25,8.625 5.2097,-0.4492 9.0745,-5.038 8.625,-10.25 -0.2632,-3.0523 -2.0429,-5.5008 -4.4375,-7.0313 -4.16794,0.56515 -8.30134,1.33714 -12.4375,2.0938 z" />
    <path
       style="fill:#e3e4e5;fill-opacity:1;stroke:#010101;stroke-width:1;stroke-miterlimit:4;stroke-dasharray:none"
       id="path10245"
       d="m -263.8153,826.57827 c 1.183,5.0983 -1.9881,10.1859 -7.0865,11.3689 -5.0936,1.182 -10.1812,-1.9892 -11.3642,-7.0874 -1.1826,-5.0961 1.9886,-10.1836 7.0823,-11.3656 5.0983,-1.183 10.1858,1.9881 11.3684,7.0841 z" />
    <path
       style="fill:#e3e4e5;fill-opacity:1;stroke:#010101;stroke-width:1;stroke-miterlimit:4;stroke-dasharray:none"
       id="path11702"
       d="m -176.7592,870.18157 c -0.4496,-5.2144 3.4096,-9.802 8.6241,-10.2516 5.2096,-0.4492 9.7972,3.4101 10.2468,8.6245 0.4494,5.2121 -3.4098,9.7996 -8.6195,10.2488 -5.2144,0.4496 -9.802,-3.4095 -10.2514,-8.6217 z" />
    <path
       style="fill:#e3e4e5;fill-opacity:1;stroke:#010101;stroke-width:1;stroke-miterlimit:4;stroke-dasharray:none"
       id="path11704"
       d="m -188.6964,862.22417 c -0.4496,-5.2144 3.4096,-9.802 8.6241,-10.2516 5.2097,-0.4493 9.7972,3.41 10.2469,8.6244 0.4494,5.2121 -3.4099,9.7996 -8.6195,10.2488 -5.2145,0.4497 -9.8021,-3.4095 -10.2515,-8.6216 z" />
    <path
       style="fill:#e3e4e5;fill-opacity:1;stroke:#010101;stroke-width:1;stroke-miterlimit:4;stroke-dasharray:none"
       id="path11706"
       d="m -200.8161,852.02867 c -0.4496,-5.2144 3.4096,-9.802 8.6241,-10.2517 5.2096,-0.4492 9.7972,3.4101 10.2468,8.6245 0.4495,5.2121 -3.4098,9.7996 -8.6195,10.2488 -5.2144,0.4496 -9.802,-3.4095 -10.2514,-8.6216 z" />
    <path
       style="fill:#e3e4e5;fill-opacity:1;stroke:#010101;stroke-width:1;stroke-miterlimit:4;stroke-dasharray:none"
       id="path11708"
       d="m -210.2733,840.31547 c -0.4496,-5.2144 3.4097,-9.802 8.6241,-10.2516 5.2097,-0.4492 9.7973,3.4101 10.2469,8.6245 0.4494,5.2121 -3.4098,9.7996 -8.6195,10.2488 -5.2145,0.4496 -9.802,-3.4095 -10.2515,-8.6217 z" />
    <path
       style="fill:#e3e4e5;fill-opacity:1;stroke:#010101;stroke-width:1;stroke-miterlimit:4;stroke-dasharray:none"
       id="path11787"
       d="m -217.15089,829.03329 c 1.6013,3.5757 5.57199,6.59499 9.69779,6.23929 4.0049,-0.3453 7.161,-3.46339 8.2187,-7.10399 -5.86959,0.32398 -11.67969,0.29981 -17.91649,0.8647 z" />
    <path
       style="fill:#e3e4e5;fill-opacity:1;stroke:#010101;stroke-width:1;stroke-miterlimit:4;stroke-dasharray:none"
       id="path11716"
       d="m -285.8015,855.75687 c -0.4496,-5.2144 3.4096,-9.802 8.6241,-10.2516 5.2097,-0.4493 9.7972,3.41 10.2469,8.6244 0.4494,5.2121 -3.4099,9.7996 -8.6195,10.2488 -5.2145,0.4497 -9.8021,-3.4095 -10.2515,-8.6216 z" />
    <path
       style="fill:#e3e4e5;fill-opacity:1;stroke:#010101;stroke-width:1;stroke-miterlimit:4;stroke-dasharray:none"
       id="path11714"
       d="m -273.8643,867.71427 c -0.4496,-5.2144 3.4096,-9.802 8.6241,-10.2516 5.2096,-0.4492 9.7972,3.4101 10.2468,8.6245 0.4494,5.2121 -3.4098,9.7996 -8.6195,10.2488 -5.2144,0.4496 -9.802,-3.4095 -10.2514,-8.6217 z" />
    <g
       id="g9126"
       transform="matrix(0.3926312,0,0,0.3724982,-1317.2429,515.76343)">
      <g
         id="g9134"
         transform="matrix(-0.748008,0.507597,0.4813713,0.8831979,3520.4688,-1419.3176)" />
    </g>
    <g
       id="g9142"
       transform="matrix(-0.3926312,0,0,0.3724982,1007.274,515.76343)">
      <g
         id="g9150"
         transform="matrix(-0.748008,0.507597,0.4813713,0.8831979,3520.4688,-1419.3176)" />
    </g>
  </g>
  <g
     style="display:inline"
     id="layer3"
     transform="translate(-29.807234,-173.34477)" />
  <g
     style="display:inline"
     id="g4847"
     transform="translate(521.42215,-15.13702)" />
  <path
     style="opacity:0.64;fill:#009900;fill-opacity:1"
     id="path4849"
     d="" />
  <path
     style="opacity:0.64;fill:#009900;fill-opacity:1"
     id="path4851"
     d="" />
  <path
     style="opacity:0.64;fill:#009900;fill-opacity:1"
     id="path4853"
     d="" />
  <g
     id="g4855"
     transform="translate(577.85087,-91.77736)" />
  <g
     id="g4857"
     transform="translate(577.85087,-91.77736)" />
  <g
     id="g4859"
     transform="translate(577.85087,-91.77736)" />
  <g
     style="display:inline"
     id="g4861"
     transform="translate(-103.36601,-125.73403)" />
  <g
     style="display:inline"
     id="g5358"
     transform="translate(826.86278,-170.36068)" />
  <path
     style="opacity:0.64;fill:#009900;fill-opacity:1"
     id="path5654"
     d="" />
  <path
     style="opacity:0.64;fill:#009900;fill-opacity:1"
     id="path5656"
     d="" />
  <path
     style="opacity:0.64;fill:#009900;fill-opacity:1"
     id="path5658"
     d="" />
  <g
     id="g5190"
     transform="translate(1524.8772,-246.74294)" />
  <g
     id="g5192"
     transform="translate(1524.8772,-246.74294)" />
  <g
     id="g5194"
     transform="translate(1524.8772,-246.74294)" />
  <g
     style="display:inline"
     id="g4934"
     transform="translate(527.71508,-242.69253)" />
  <path
     style="opacity:0.64;fill:#009900;fill-opacity:1"
     id="path5344"
     d="" />
  <path
     style="opacity:0.64;fill:#009900;fill-opacity:1"
     id="path5346"
     d="" />
  <path
     style="opacity:0.64;fill:#009900;fill-opacity:1"
     id="path5348"
     d="" />
  <g
     id="g5598"
     transform="translate(584.1438,-319.33287)" />
  <g
     id="g5600"
     transform="translate(584.1438,-319.33287)" />
  <g
     id="g5602"
     transform="translate(584.1438,-319.33287)" />
  <path
     style="opacity:0.64;fill:#009900;fill-opacity:1"
     id="path3467"
     d="" />
  <path
     style="opacity:0.64;fill:#009900;fill-opacity:1"
     id="path3469"
     d="" />
  <path
     style="opacity:0.64;fill:#009900;fill-opacity:1"
     id="path3471"
     d="" />
  <g
     id="g3473"
     transform="translate(897.73978,-776.2591)" />
  <g
     id="g3475"
     transform="translate(897.73978,-776.2591)" />
  <g
     id="g3477"
     transform="translate(897.73978,-776.2591)" />
  <g
     style="display:inline"
     id="g3479"
     transform="translate(-99.422242,-772.2086)" />
  <path
     style="opacity:0.64;fill:#009900;fill-opacity:1"
     id="path3481"
     d="" />
  <path
     style="opacity:0.64;fill:#009900;fill-opacity:1"
     id="path3483"
     d="" />
  <path
     style="opacity:0.64;fill:#009900;fill-opacity:1"
     id="path3485"
     d="" />
  <g
     id="g3732"
     transform="translate(-42.993522,-848.849)" />
  <g
     id="g3734"
     transform="translate(-42.993522,-848.849)" />
  <g
     id="g3736"
     transform="translate(-42.993522,-848.849)" />
  <g
     id="g5698"
     transform="translate(883.29148,-247.00102)" />
  <g
     id="g5700"
     transform="translate(883.29148,-247.00102)" />
  <g
     id="g5702"
     transform="translate(883.29148,-247.00102)" />
  <g
     style="display:inline"
     id="layer5"
     transform="translate(26.621488,-249.98512)">
    <g
       style="display:inline"
       id="g3784"
       transform="translate(-492.32361,16.91623)" />
    <path
       style="opacity:0.64;fill:#009900;fill-opacity:1"
       id="path1887"
       d="" />
    <path
       style="opacity:0.64;fill:#009900;fill-opacity:1"
       id="path1883"
       d="" />
    <path
       style="opacity:0.64;fill:#009900;fill-opacity:1"
       id="path1881"
       d="" />
    <g
       id="g3789"
       transform="translate(-435.89488,-59.72412)" />
    <g
       id="g3791"
       transform="translate(-435.89488,-59.72412)" />
    <g
       id="g3793"
       transform="translate(-435.89488,-59.72412)" />
    <g
       style="display:inline"
       id="g4574"
       transform="translate(-1117.1118,-93.68079)" />
    <g
       style="display:inline"
       id="g4631"
       transform="translate(-929.21173,-283.25311)" />
    <g
       id="g4681"
       transform="translate(-872.78301,-359.89346)" />
    <g
       id="g4683"
       transform="translate(-872.78301,-359.89346)" />
    <g
       id="g4685"
       transform="translate(-872.78301,-359.89346)" />
  </g>
  <g
     id="layer6"
     transform="translate(26.621488,-249.98512)" />
  <g
     style="display:inline;fill:#e3e4e5;stroke:#000000;stroke-width:3;stroke-miterlimit:4;stroke-dasharray:none;stroke-opacity:1"
     id="layer2"
     transform="translate(26.621488,-249.98512)">
    <rect
       style="display:inline;overflow:visible;visibility:visible;fill:#e3e4e5;fill-opacity:1;fill-rule:evenodd;stroke:#000000;stroke-width:3;stroke-linecap:butt;stroke-linejoin:miter;stroke-miterlimit:4;stroke-dasharray:none;stroke-dashoffset:0;stroke-opacity:1;marker:none;marker-start:none;marker-mid:none;marker-end:none;enable-background:accumulate"
       id="rect12296"
       transform="rotate(-45)"
       y="458.9122"
       x="-493.56067"
       height="423.55695"
       width="423.55695" />
  </g>
  <g
     style="display:inline"
     id="g3782"
     transform="translate(-29.807234,-173.34477)" />
  <g
     style="fill:#0071bc;stroke:#000000;stroke-width:0.377506;stroke-opacity:1"
     id="g4059"
     transform="matrix(2.6523092,0,0,2.6456207,-1669.6152,-911.96312)">
    <path
       style="fill:#0071bc;fill-rule:evenodd;stroke:#000000;stroke-width:0.377506px;stroke-linecap:butt;stroke-linejoin:miter;stroke-opacity:1"
       id="path4011"
       d="m 736.04951,522.41514 0.0759,9.58576 -2.35826,3.42349 c -6.00978,-0.81956 -6.07738,-0.72319 -8.21637,-0.22823 -3.88641,1.58122 -5.20001,5.36771 -7.0752,8.67283 2.97592,-2.77835 5.98987,-6.05123 8.67283,-5.02112 -4.05296,0.8321 -5.07729,5.5762 -6.84697,9.35753 2.63457,-3.48724 5.26758,-6.97678 9.58576,-7.98813 -3.93289,2.69578 -5.26465,6.25861 -5.24935,10.27046 3.26355,-4.33959 6.68209,-7.0458 10.72693,-7.98814 3.96109,-1.80028 7.76933,0.22063 11.63985,0.6847 -3.68084,-1.84305 -6.12847,-4.40005 -11.52535,-5.24961 l 4.90661,-4.79262 c 1.54835,-3.09713 0.85253,-6.67515 1.14116,-10.04222" />
    <path
       style="fill:#0071bc;fill-rule:evenodd;stroke:#000000;stroke-width:0.377506px;stroke-linecap:butt;stroke-linejoin:miter;stroke-opacity:1"
       id="path4057"
       d="m 739.569,419.00471 -0.76633,-5.54463 1.29225,-0.19534 1.0368,5.57468" />
    <path
       style="fill:#0071bc;fill-rule:evenodd;stroke:#000000;stroke-width:0.377506px;stroke-linecap:butt;stroke-linejoin:miter;stroke-opacity:1"
       id="path4055"
       d="m 743.95662,418.26843 0.46581,-5.22908 1.23214,0.18032 -0.31555,5.36431" />
    <path
       style="fill:#0071bc;fill-rule:evenodd;stroke:#000000;stroke-width:0.377506px;stroke-linecap:butt;stroke-linejoin:miter;stroke-opacity:1"
       id="path4053"
       d="m 747.1121,419.03476 c 0.015,-0.0601 2.11868,-4.37259 2.11868,-4.37259 l 0.91659,0.61607 -1.95339,4.37259" />
    <path
       style="fill:#0071bc;fill-rule:evenodd;stroke:#000000;stroke-width:0.377506px;stroke-linecap:butt;stroke-linejoin:miter;stroke-opacity:1"
       id="path3239"
       d="m 743.04916,481.86192 c 8.12518,-18.73171 13.47503,-37.21111 10.76883,-54.95815 -1.9921,-11.52653 -17.45379,-10.62775 -23.39435,-1.48536 -6.35472,-0.7161 -9.50439,2.84119 -12.99686,5.94142 3.25582,0.49512 3.6306,0.99024 10.39749,1.48536 3.82175,1.98561 6.114,4.48106 12.62552,5.57008 2.06592,0.19266 2.83993,-0.42213 4.08473,-0.74267 -2.22901,25.44174 -23.45584,24.62493 -32.67783,41.21861 -10.30271,18.53829 -4.91683,29.24991 3.34206,36.76256 8.05781,7.32974 27.97793,10.96676 32.12081,10.86165 4.63405,0.95918 10.55042,3.54282 12.81119,13.64671 -5.76248,-0.90749 -8.2511,3.0958 -12.25418,4.82741 3.8178,-0.83936 8.07399,-2.0374 9.28347,-0.74268 -6.30183,2.28728 -4.51566,6.78038 -5.94142,10.39749 2.56929,-3.42676 4.28094,-8.09233 8.91213,-8.54079 -3.03027,2.68001 -2.37812,6.35754 -1.20685,10.02615 2.8386,-8.15944 5.63685,-14.71539 17.17443,-14.11088 -3.88133,-1.48599 -8.40998,-3.47154 -12.53269,-1.57819 0.18523,-2.81599 -0.65362,-5.35347 -1.20686,-8.16946 1.8989,0.15649 3.75191,0.22694 3.7134,-3.24921 l -0.37134,-2.59938 c 6.3869,0.19771 11.80544,-2.18688 16.71025,-5.94142 1.44821,11.90951 1.55819,19.78957 -10.21183,33.97751 -11.72298,14.13124 -31.17572,-0.0336 -30.82113,-0.37134 -7.75591,-1.21209 -7.79329,2.58242 -6.49842,7.24111 -5.12721,0.15593 -10.00234,0.52091 -5.19875,8.91214 -9.02395,7.76489 -2.93065,11.88392 2.59938,13.73954 -2.09803,3.14219 -2.67387,7.73803 4.08472,7.79811 26.14072,-5.83769 60.71598,-17.253 60.52825,-73.5251 l 14.48221,8.16945 c 0.73646,-35.34462 -22.82038,-56.31364 -44.6535,-53.75131 -11.76214,0.24814 -17.07138,5.1893 -23.67286,9.19064 z" />
    <path
       style="fill:#0071bc;fill-rule:evenodd;stroke:#000000;stroke-width:0.377506px;stroke-linecap:butt;stroke-linejoin:miter;stroke-opacity:1"
       id="path4013"
       d="m 796.85433,518.28836 c -6.69679,-6.33314 -40.72984,3.59358 -55.32725,-18.23999" />
    <path
       style="fill:#0071bc;fill-rule:evenodd;stroke:#000000;stroke-width:0.377506px;stroke-linecap:butt;stroke-linejoin:miter;stroke-opacity:1"
       id="path4015"
       d="m 718.70384,430.89395 c 2.58954,-0.98756 5.25096,-1.93917 11.41162,-1.14116" />
    <path
       style="fill:#e3e4e5;fill-rule:evenodd;stroke:#000000;stroke-width:0.377506px;stroke-linecap:butt;stroke-linejoin:miter;stroke-opacity:1"
       id="path4017"
       d="m 736.04951,424.27521 c 2.11844,-1.97038 4.739,-1.86372 7.30343,-0.45647 -1.20648,2.91884 -4.98945,3.51073 -7.30343,0.45647 z" />
    <path
       style="fill:#000000;stroke:#000000;stroke-width:0.377506;stroke-opacity:1"
       id="path4019"
       d="m 740.72152,424.52325 c 0,0.68487 -0.47525,1.24006 -1.06149,1.24006 -0.58624,0 -1.06149,-0.55519 -1.06149,-1.24006 0,-0.68487 0.47525,-1.24006 1.06149,-1.24006 0.58624,0 1.06149,0.55519 1.06149,1.24006 z" />
    <path
       style="fill:#0071bc;fill-rule:evenodd;stroke:#000000;stroke-width:0.377506px;stroke-linecap:butt;stroke-linejoin:miter;stroke-opacity:1"
       id="path4021"
       d="M 811.3662,518.64931 C 796.9106,508.07614 783.93949,507.59756 770.96906,507.12357" />
    <path
       style="fill:#0071bc;fill-rule:evenodd;stroke:#000000;stroke-width:0.377506px;stroke-linecap:butt;stroke-linejoin:miter;stroke-opacity:1"
       id="path4023"
       d="m 810.11092,512.82938 c -12.72139,-8.90827 -24.84601,-10.65538 -36.97365,-12.43867 -3.86325,-0.79629 -3.72217,-6.14182 -0.11412,-7.41755 -6.97276,-1.44381 -4.7173,-5.41184 -2.51055,-6.96109" />
    <path
       style="fill:#0071bc;fill-rule:evenodd;stroke:#000000;stroke-width:0.377506px;stroke-linecap:butt;stroke-linejoin:miter;stroke-opacity:1"
       id="path4025"
       d="m 808.62741,506.89534 c -9.39695,-6.52989 -17.952,-11.49644 -26.13261,-12.55278" />
    <path
       style="fill:#0071bc;fill-rule:evenodd;stroke:#000000;stroke-width:0.377506px;stroke-linecap:butt;stroke-linejoin:miter;stroke-opacity:1"
       id="path4027"
       d="m 807.37213,501.64599 c -16.2376,-14.65622 -24.4376,-13.96795 -34.34898,-16.54685" />
    <path
       style="fill:#0071bc;fill-rule:evenodd;stroke:#000000;stroke-width:0.377506px;stroke-linecap:butt;stroke-linejoin:miter;stroke-opacity:1"
       id="path4029"
       d="M 805.43216,497.19546 C 794.22469,484.85209 783.63985,481.84809 773.02315,478.36629" />
    <path
       style="fill:#0071bc;fill-rule:evenodd;stroke:#000000;stroke-width:0.377506px;stroke-linecap:butt;stroke-linejoin:miter;stroke-opacity:1"
       id="path4031"
       d="m 760.12802,510.77529 c -1.25126,-2.05409 -1.57047,-4.10819 3.19526,-6.16228 -3.54274,-3.17161 -1.99274,-4.64563 0.79881,-5.70581" />
    <path
       style="fill:none;fill-rule:evenodd;stroke:#000000;stroke-width:0.377506px;stroke-linecap:butt;stroke-linejoin:miter;stroke-opacity:1"
       id="path4033"
       d="m 734.90835,561.32877 c 36.39805,20.59599 53.08211,-12.48445 52.8358,-37.20189" />
    <path
       style="fill:none;fill-rule:evenodd;stroke:#000000;stroke-width:0.377506px;stroke-linecap:butt;stroke-linejoin:miter;stroke-opacity:1"
       id="path4035"
       d="m 729.659,570.45806 c 27.41185,9.83294 40.99748,-2.7218 48.84173,-10.15634" />
    <path
       style="fill:none;fill-rule:evenodd;stroke:#000000;stroke-width:0.377506px;stroke-linecap:butt;stroke-linejoin:miter;stroke-opacity:1"
       id="path4037"
       d="m 732.5119,583.92377 c 19.16968,0.83316 38.92562,-11.19744 51.00995,-25.90437" />
    <path
       style="fill:#0071bc;fill-rule:evenodd;stroke:#000000;stroke-width:0.377506px;stroke-linecap:butt;stroke-linejoin:miter;stroke-opacity:1"
       id="path4039"
       d="m 737.19067,589.97193 c -3.25813,-0.7678 -4.69716,-1.33391 -0.6847,-4.2223 -0.35506,1.61735 -1.50038,2.32272 0.6847,4.2223 z" />
    <path
       style="fill:#0071bc;fill-rule:evenodd;stroke:#000000;stroke-width:0.377506px;stroke-linecap:butt;stroke-linejoin:miter;stroke-opacity:1"
       id="path4041"
       d="m 732.85425,581.07087 c -4.92398,-2.49354 -6.07878,-4.88521 0.22823,-7.07521 -0.96928,2.3584 -2.46658,4.71681 -0.22823,7.07521 z" />
    <path
       style="fill:#0071bc;fill-rule:evenodd;stroke:#000000;stroke-width:0.377506px;stroke-linecap:butt;stroke-linejoin:miter;stroke-opacity:1"
       id="path4043"
       d="m 735.13658,570.45806 c -7.07642,-2.4597 -4.28855,-6.7 1.25527,-6.50462 -2.45617,1.72883 -5.2156,2.75059 -1.25527,6.50462 z" />
    <path
       style="fill:#0071bc;fill-rule:evenodd;stroke:#000000;stroke-width:0.377506px;stroke-linecap:butt;stroke-linejoin:miter;stroke-opacity:1"
       id="path4045"
       d="m 738.56006,561.557 c -3.25655,-4.96248 -0.4274,-5.36068 3.5376,-4.907 -2.51143,0.89554 -3.76455,2.49014 -3.5376,4.907 z" />
    <path
       style="fill:#0071bc;stroke:#000000;stroke-width:0.377506;stroke-opacity:1"
       id="path4047"
       d="m 741.25772,411.58215 c 0,1.25856 -0.93865,2.27883 -2.09652,2.27883 -1.15788,0 -2.09653,-1.02027 -2.09653,-2.27883 0,-1.25856 0.93865,-2.27883 2.09653,-2.27883 1.15787,0 2.09652,1.02027 2.09652,2.27883 z" />
    <path
       style="fill:#0071bc;stroke:#000000;stroke-width:0.377506;stroke-opacity:1"
       id="path4049"
       d="m 747.2738,411.21756 c 0,1.25856 -0.97946,2.27883 -2.18768,2.27883 -1.20822,0 -2.18768,-1.02027 -2.18768,-2.27883 0,-1.25856 0.97946,-2.27883 2.18768,-2.27883 1.20822,0 2.18768,1.02027 2.18768,2.27883 z" />
    <path
       style="fill:#0071bc;stroke:#000000;stroke-width:0.377506;stroke-opacity:1"
       id="path4051"
       transform="translate(-0.1823064,-1.458451)"
       d="m 752.92529,414.22559 c 0,1.30891 -0.97946,2.36999 -2.18768,2.36999 -1.20822,0 -2.18768,-1.06108 -2.18768,-2.36999 0,-1.30891 0.97946,-2.36999 2.18768,-2.36999 1.20822,0 2.18768,1.06108 2.18768,2.36999 z" />
  </g>
</svg>
