<?xml version="1.0" encoding="utf-8"?><!DOCTYPE svg PUBLIC "-//W3C//DTD SVG 1.1//EN" "http://www.w3.org/Graphics/SVG/1.1/DTD/svg11.dtd"><svg viewBox="0 0 600 780" xmlns="http://www.w3.org/2000/svg"><g stroke="#000" stroke-linecap="round" stroke-linejoin="round"><path d="m473.8071 173c0 7.0122-38.1058 21.2714-173.8071 21.2714s-173.8071-14.2592-173.8071-21.2714 38.1058-21.2715 173.8071-21.2715 173.8071 14.2593 173.8071 21.2715z" fill="#eac102"/><g fill="none"><path d="m147.422 163.829v18.341" stroke-width="5.5"/><path d="m153.859 162.34v21.319" stroke-width="5.25"/><path d="m160.296 161.363v23.273" stroke-width="5"/><path d="m166.733 160.154v25.692" stroke-width="4.75"/><path d="m173.171 159.084v27.832" stroke-width="4.5"/><path d="m179.608 158.153v29.693" stroke-width="4.25"/><path d="m186.045 157.223v31.553" stroke-width="4"/><path d="m192.482 156.432v33.135" stroke-width="3.75"/><path d="m198.92 155.92v34.159" stroke-width="3.5"/><path d="m205.357 155.316v35.368" stroke-width="3.25"/><path d="m211.794 154.385v37.229" stroke-width="3"/><path d="m218.232 153.873v38.253" stroke-width="2.75"/><path d="m224.669 153.641v38.718" stroke-width="2.5"/><path d="m231.106 153.082v39.834" stroke-width="2.25"/><path d="m237.543 152.617v40.765" stroke-width="2"/><path d="m243.981 152.338v41.323" stroke-width="1.75"/><path d="m250.418 151.92v42.16" stroke-width="1.5"/><path d="m256.855 151.64v42.719" stroke-width="1.25"/><path d="m263.292 150.803v44.394"/><path d="m269.73 150.803v44.394" stroke-width=".75"/><path d="m276.167 150.803v44.394" stroke-width=".5"/><path d="m282.604 150.803v44.394" stroke-width=".25"/><path d="m134.547 168.248v9.502" stroke-width="6"/><path d="m140.984 165.876v14.248" stroke-width="5.75"/><path d="m452.579 163.829v18.341" stroke-width="5.5"/><path d="m446.142 162.34v21.319" stroke-width="5.25"/><path d="m439.704 161.363v23.273" stroke-width="5"/><path d="m433.267 160.154v25.692" stroke-width="4.75"/><path d="m426.83 159.084v27.832" stroke-width="4.5"/><path d="m420.393 158.153v29.693" stroke-width="4.25"/><path d="m413.955 157.223v31.553" stroke-width="4"/><path d="m407.518 156.432v33.135" stroke-width="3.75"/><path d="m401.081 155.92v34.159" stroke-width="3.5"/><path d="m394.643 155.316v35.368" stroke-width="3.25"/><path d="m388.206 154.385v37.229" stroke-width="3"/><path d="m381.769 153.873v38.253" stroke-width="2.75"/><path d="m375.332 153.641v38.718" stroke-width="2.5"/><path d="m368.894 153.082v39.834" stroke-width="2.25"/><path d="m362.457 152.617v40.765" stroke-width="2"/><path d="m356.02 152.338v41.323" stroke-width="1.75"/><path d="m349.583 151.92v42.16" stroke-width="1.5"/><path d="m343.145 151.64v42.719" stroke-width="1.25"/><path d="m336.708 150.803v44.394"/><path d="m330.271 150.803v44.394" stroke-width=".75"/><path d="m323.834 150.803v44.394" stroke-width=".5"/><path d="m317.396 150.803v44.394" stroke-width=".25"/><path d="m465.453 168.248v9.502" stroke-width="6"/><path d="m459.016 165.876v14.248" stroke-width="5.75"/></g><g><path d="m125.0938 122.7813c-8.0052-3.422-21.7351-20.1327-28.1498-28.8125l-8 6c10.3764 13.7807 18.7019 22.4544 25.0248 27.5313 3.1615 2.5384 5.9207 4.2391 8.8125 5.0938z" fill="#eac102"/><path d="m474.9063 122.7813c8.0052-3.422 21.735-20.1327 28.1497-28.8125l8 6c-10.3764 13.7807-18.7018 22.4544-25.0247 27.5313-3.1615 2.5384-5.9207 4.2391-8.8125 5.0938z" fill="#eac102"/><path d="m305 54.9324v16.654c0 33.4354 51.1844 34.4812 54.5938-.2213.2475-2.5189 3.0219-4.3753 5.5072-4.074 2.4854.3013 4.7003 2.7619 4.399 5.2749-4.1358 34.496 41.594 36.4475 48.1875 2.4966l3.0625-15.7692c.4944-2.5455 3.3114-4.337 5.8296-3.8423s4.4764 3.2244 3.983 5.77l-3.0625 15.8007c-7.0147 36.1916 28.6416 34.2673 45.3438 5.5303 1.3295-2.2875 4.6253-3.1036 6.8752-1.7384 2.25 1.3652 3.0207 4.6491 1.7185 6.9526-19.3323 34.1985 5.7024 27.7663 21.2188 6.6995l11.2188-15.2319c1.5678-2.1287 4.9132-2.6161 7.016-1.0275 2.1027 1.5885 2.5859 4.9685 1.0153 7.095l-11.25 15.2319c-19.4649 26.3545-44.7446 27.7583-46.0313 5.8937-16.952 12.3658-39.8595 10.5176-46.4063-10.0018-16.5868 19.1242-46.8885 16.5074-56-5.1827-17.3933 22.7946-49.8176 19.2712-62.219-1.0875-12.4014 20.3587-44.8257 23.8821-62.219 1.0875-9.1115 21.6901-39.4132 24.3069-56 5.1827-6.5468 20.5194-29.4543 22.3676-46.4063 10.0018-1.2867 21.8646-26.5664 20.4608-46.0313-5.8937l-11.25-15.2319c-1.5706-2.1265-1.0874-5.5065 1.0153-7.095 2.1028-1.5886 5.4482-1.1012 7.016 1.0275l11.2188 15.2319c15.5164 21.0668 40.5511 27.499 21.2188-6.6995-1.3022-2.3035-.5315-5.5874 1.7185-6.9526 2.2499-1.3652 5.5457-.5491 6.8752 1.7384 16.7022 28.737 52.3585 30.6613 45.3438-5.5303l-3.0625-15.8007c-.4934-2.5456 1.4648-5.2753 3.983-5.77s5.3352 1.2968 5.8296 3.8423l3.0625 15.7692c6.5935 33.9509 52.3233 31.9994 48.1875-2.4966-.3013-2.513 1.9136-4.9736 4.399-5.2749 2.4853-.3013 5.2597 1.5551 5.5072 4.074 3.4094 34.7025 54.5938 33.6567 54.5938.2213v-16.654c0-2.6584 2.3504-5.1511 5.0001-5.1511s5.0001 2.4927 5.0001 5.1511z" fill="#eac102"/><path d="m300.0001 152.2117c-139.8158 0-182.5692-15.8896-182.5692-18.2644s42.7534-18.2645 182.5692-18.2645 182.5693 15.8897 182.5693 18.2645c0 2.3747-42.7535 18.2644-182.5693 18.2644zm-137.8858 3.1594c-32.5558-4.273-56.6142-10.9941-56.6142-21.4237 0-24.2391 129.9445-28.4474 194.5-28.4474s194.5 4.2083 194.5 28.4474c0 10.4296-24.0585 17.1507-56.6143 21.4237z" fill="#eac102" fill-rule="evenodd"/><path d="m196.4966 155.3715-69.0588 14.6048c-2.583-12.3267-5.022-23.5271-10.9304-35.0537-3.1408-6.1274 59.7743-20.0364 183.4926-20.0364 123.7184 0 186.6334 13.9091 183.4926 20.0364-5.9084 11.5267-8.3474 22.7269-10.9304 35.0537l-69.0588-14.6048z" fill="#eac102"/><path d="m115.9821 151.6525 3.9988-8.9213 13.0006 2.2327-8.6657 11.4659z" fill="#ed1c24"/><path d="m115.9821 151.6525 16.9994-6.6887" fill="none"/><path d="m177.7763 130.281 35.8427-3.3618c3.5853-.3363 6.7423 2.2793 7.0786 5.8646s-2.2793 6.7423-5.8646 7.0786l-35.8427 3.3618c-3.5853.3363-6.7423-2.2793-7.0786-5.8646s2.2793-6.7423 5.8646-7.0786z" fill="#008f4c" fill-rule="evenodd"/><path d="m158.8496 140.5115c0 4.363-3.537 7.9-7.9 7.9s-7.9-3.537-7.9-7.9c0-4.3631 3.537-7.9 7.9-7.9s7.9 3.5369 7.9 7.9z" fill="#e5e5e5" fill-rule="evenodd"/><path d="m253.4747 131.9843c0 4.363-3.537 7.9-7.9 7.9s-7.9-3.537-7.9-7.9c0-4.3631 3.537-7.9 7.9-7.9s7.9 3.5369 7.9 7.9z" fill="#e5e5e5" fill-rule="evenodd"/><path d="m484.0179 151.6525-3.9988-8.9213-13.0006 2.2327 8.6657 11.4659z" fill="#ed1c24"/><path d="m484.0179 151.6525-16.9994-6.6887" fill="none"/><path d="m422.2237 130.281-35.8427-3.3618c-3.5853-.3363-6.7423 2.2793-7.0786 5.8646s2.2793 6.7423 5.8646 7.0786l35.8427 3.3618c3.5853.3363 6.7423-2.2793 7.0786-5.8646s-2.2793-6.7423-5.8646-7.0786z" fill="#008f4c" fill-rule="evenodd"/><path d="m441.1505 140.5115c0 4.363 3.537 7.9 7.9 7.9s7.9-3.537 7.9-7.9c0-4.3631-3.537-7.9-7.9-7.9s-7.9 3.5369-7.9 7.9z" fill="#e5e5e5" fill-rule="evenodd"/><path d="m346.5253 131.9843c0 4.363 3.537 7.9 7.9 7.9s7.9-3.537 7.9-7.9c0-4.3631-3.537-7.9-7.9-7.9s-7.9 3.5369-7.9 7.9z" fill="#e5e5e5" fill-rule="evenodd"/><path d="m280.5889 124.2484-10.0858 6.7241 10.0858 6.7232h38.8224l10.0858-6.7232-10.0858-6.7241z" fill="#ed1c24"/><path d="m280.5889 124.2484 9.3228 6.018-9.3228 7.4293" fill="none"/><path d="m270.503 130.9725 19.4086-.7061h20.1771l19.4085.7061" fill="none"/><path d="m319.4113 124.2484-9.3227 6.018 9.3227 7.4293" fill="none"/><path d="m293.762 58.2733-5.9561 5.6704c-5.0807 4.837-10.1051 2.1442-22.1737 7.1856-.4947-3.8079-.279-6.9575 2.3269-9.7609-7.8194-.4714-14.0504-4.5216-19.1324-9.3824 5.0821-4.8598 11.3132-8.911 19.1324-9.3825-2.6058-2.8035-2.8215-5.9522-2.3269-9.7599 12.0687 5.0405 17.0921 2.3488 22.1737 7.1858l5.9561 5.6694z" fill="#eac102"/><path d="m290.8552 51.9859h-34.8042" fill="none"/><path d="m292.3653 55.9967c-10.2044 6.3639-14.4016 4.4882-21.9439 9.7922" fill="none"/><path d="m292.3653 47.9752c-10.2044-6.3639-14.4016-4.4883-21.9439-9.7922" fill="none"/><path d="m306.2492 45.7099 5.636-5.9925c4.8076-5.1117 2.1312-10.1657 7.1421-22.3081-3.7847-.4977-6.9153-.2807-9.7017 2.341-.4686-7.8671-4.4944-14.1362-9.3256-19.2503-4.8312 5.1141-8.857 11.3832-9.3256 19.2503-2.7864-2.6217-5.9169-2.8387-9.7017-2.341 5.0109 12.1424 2.3345 17.1964 7.1421 22.3081l5.636 5.9925z" fill="#eac102"/><path d="m300 42.7863v-35.0168" fill="none"/><path d="m296.0135 44.3046c-6.3263-10.2667-4.4611-14.4895-9.7328-22.0769" fill="none"/><path d="m468.4893 173c0 2.2122-39.4563 17.0141-168.4893 17.0141s-168.4893-14.8019-168.4893-17.0141c0-2.2123 39.4563-17.0142 168.4893-17.0142s168.4893 14.8018 168.4893 17.0142zm11.0107 0c0 22.5798-119.923 26.5-179.5 26.5s-179.5-3.9202-179.5-26.5 119.923-26.5 179.5-26.5 179.5 3.9203 179.5 26.5z" fill="#eac102" fill-rule="evenodd"/><path d="m69.2421 71.7354c-6.9071-9.8558-12.6261-16.1839-33.7421-18.0121 7.2242-10.9269 22.2693-14.0897 32.055-4.1188.9257-2.7287 1.4965-3.6181 4.084-6.1389 2.3071 7.1161 12.5812 12.4927 8.5051 25.2347l-4.0056 12.5219z" fill="#eac102"/><path d="m74.4292 79.187c3.8096-6.8364 4.5595-10.5908 7.4141-14.3119 2.8499-3.715 7.5109-6.9787 10.8958-9.8962 1.4854 3.4273 2.3343 6.4215 1.6259 9.6984 4.8897-1.5425 9.9388.6844 14.5341 3.931-1.5709 5.8239-4.09 11.1833-8.6864 13.6053 2.4529 1.9555 3.5641 4.8397 4.4484 8.5183 0 0-10.5557-.8543-15.1514.2019-5.2482 1.2062-9.2341-1.0487-10.0958-1.8998z" fill="#eac102"/><path d="m73.319 77.3831c-.6153-5.2111 1.1682-9.9124.8501-14.0958-.5819-7.6541-3.075-10.1759-2.7454-14.1846" fill="none"/><path d="m77.0298 83.6723c8.2134-6.6819 15.7327-7.9014 25.62-13.5456" fill="none"/><path d="m75.6091 79.9715c3.5924-6.0782 10.9851-9.4662 14.9751-18.9212" fill="none"/><path d="m78.1785 87.1097c7.0653.9722 11.3499-3.1477 19.8024-.0606" fill="none"/><path d="m79.4139 89.034c-1.3223.6355-2.7727 1.0058-4.3378 1.0058-5.5781 0-10.1-4.5219-10.1-10.1 0-3.4008 1.6898-6.3742 4.266-8.2044 5.0748 3.2253 9.3857 11.0399 10.1718 17.2986z" fill="#ed1c24" fill-rule="evenodd"/><path d="m530.7579 71.7354c6.9071-9.8558 12.6261-16.1839 33.7421-18.0121-7.2242-10.9269-22.2693-14.0897-32.055-4.1188-.9257-2.7287-1.4965-3.6181-4.084-6.1389-2.3071 7.1161-12.5812 12.4927-8.5051 25.2347l4.0056 12.5219z" fill="#eac102"/><path d="m525.5708 79.187c-3.8096-6.8364-4.5595-10.5908-7.4141-14.3119-2.8499-3.715-7.5109-6.9787-10.8958-9.8962-1.4854 3.4273-2.3343 6.4215-1.6259 9.6984-4.8897-1.5425-9.9388.6844-14.5341 3.931 1.5709 5.8239 4.09 11.1833 8.6864 13.6053-2.4529 1.9555-3.5641 4.8397-4.4484 8.5183 0 0 10.5557-.8543 15.1514.2019 5.2482 1.2062 9.2341-1.0487 10.0958-1.8998z" fill="#eac102"/><path d="m526.681 77.3831c.6153-5.2111-1.1682-9.9124-.8501-14.0958.5819-7.6541 3.075-10.1759 2.7454-14.1846" fill="none"/><path d="m522.9702 83.6723c-8.2134-6.6819-15.7327-7.9014-25.62-13.5456" fill="none"/><path d="m524.3909 79.9715c-3.5924-6.0782-10.9851-9.4662-14.9751-18.9212" fill="none"/><path d="m521.8215 87.1097c-7.0653.9722-11.3499-3.1477-19.8024-.0606" fill="none"/><path d="m520.5861 89.034c1.3223.6355 2.7727 1.0058 4.3378 1.0058 5.5781 0 10.1-4.5219 10.1-10.1 0-3.4008-1.6898-6.3742-4.266-8.2044-5.0748 3.2253-9.3857 11.0399-10.1718 17.2986z" fill="#ed1c24" fill-rule="evenodd"/><path d="m306.238 58.2733 5.9561 5.6704c5.0807 4.837 10.1051 2.1442 22.1737 7.1856.4947-3.8079.279-6.9575-2.3269-9.7609 7.8194-.4714 14.0504-4.5216 19.1324-9.3824-5.0821-4.8598-11.3132-8.911-19.1324-9.3825 2.6058-2.8035 2.8215-5.9522 2.3269-9.7599-12.0687 5.0405-17.0921 2.3488-22.1737 7.1858l-5.9561 5.6694z" fill="#eac102"/><path d="m309.1448 51.9859h34.8042" fill="none"/><path d="m307.6347 55.9967c10.2044 6.3639 14.4016 4.4882 21.9439 9.7922" fill="none"/><path d="m307.6347 47.9752c10.2044-6.3639 14.4016-4.4883 21.9439-9.7922" fill="none"/><path d="m303.9865 44.3046c6.3263-10.2667 4.4611-14.4895 9.7328-22.0769" fill="none"/><path d="m310.1 51.9859c0 5.5781-4.5219 10.1-10.1 10.1s-10.1-4.5219-10.1-10.1 4.5219-10.1 10.1-10.1 10.1 4.5219 10.1 10.1z" fill="#ed1c24" fill-rule="evenodd"/><path d="m178.0776 67.418c0 9.2784-7.5216 16.8-16.8 16.8s-16.8-7.5216-16.8-16.8 7.5216-16.8 16.8-16.8 16.8 7.5216 16.8 16.8z" fill="#e5e5e5" fill-rule="evenodd"/><path d="m185.541 40.3934c0 9.2784-7.5216 16.8-16.8 16.8s-16.8-7.5216-16.8-16.8 7.5216-16.8 16.8-16.8 16.8 7.5216 16.8 16.8z" fill="#e5e5e5" fill-rule="evenodd"/><path d="m205.4662 61.487c0 9.2784-7.5216 16.8-16.8 16.8s-16.8-7.5216-16.8-16.8 7.5216-16.8 16.8-16.8 16.8 7.5216 16.8 16.8z" fill="#e5e5e5" fill-rule="evenodd"/><path d="m455.5224 67.418c0 9.2784-7.5216 16.8-16.8 16.8s-16.8-7.5216-16.8-16.8 7.5216-16.8 16.8-16.8 16.8 7.5216 16.8 16.8z" fill="#e5e5e5" fill-rule="evenodd"/><path d="m448.059 40.3934c0 9.2784-7.5216 16.8-16.8 16.8s-16.8-7.5216-16.8-16.8 7.5216-16.8 16.8-16.8 16.8 7.5216 16.8 16.8z" fill="#e5e5e5" fill-rule="evenodd"/><path d="m428.1338 61.487c0 9.2784-7.5216 16.8-16.8 16.8s-16.8-7.5216-16.8-16.8 7.5216-16.8 16.8-16.8 16.8 7.5216 16.8 16.8z" fill="#e5e5e5" fill-rule="evenodd"/></g></g><g stroke="#000" stroke-linecap="round" stroke-linejoin="round"><path d="m.5 480 299.5 299.5 299.5-299.5-299.5-299.5z" fill="#0071bc"/><path d="m.5 480 299.5 299.5v-599z" fill="#eac102"/><path d="m266.722 213.7813-33.278 33.2813v465.875l33.278 33.2813z" fill="#ed1c24" fill-rule="evenodd"/><path d="m200.167 280.3438-33.278 33.2813v332.75l33.278 33.2813z" fill="#ed1c24" fill-rule="evenodd"/><path d="m133.611 346.875-33.278 33.2813v199.6875l33.278 33.2813z" fill="#ed1c24" fill-rule="evenodd"/><path d="m67.056 413.4375-33.278 33.2813v66.5625l33.278 33.2813z" fill="#ed1c24" fill-rule="evenodd"/></g><g stroke="#000" stroke-linecap="round" stroke-linejoin="round"><g><path d="m404.75 373.4514c2.6917 0 4.8586 2.176 4.8586 4.879v15.3026h-9.7172v-15.3026c0-2.703 2.1669-4.879 4.8586-4.879zm25.7878 41.0486v-53.0707l11.2122-6.7273v-14.202h-14.8v7.1011h-14.8v-7.1011h-14.8v7.1011h-14.8v-7.1011h-14.8v14.202l11.2121 6.7273v53.0707z" fill="#e5e5e5"/><path d="m421.9419 405.6551v8.8449" fill="none"/><path d="m387.5581 405.6551v8.8449" fill="none"/><path d="m387.5581 370.2747v8.8448" fill="none"/><path d="m367.75 354.702h74" fill="none"/><path d="m421.9419 370.2747v8.8448" fill="none"/><path d="m396.154 379.1198v8.8448" fill="none"/><path d="m413.3459 379.1198v8.8448" fill="none"/><path d="m387.5581 387.9649v8.8448" fill="none"/><path d="m421.9419 387.9649v8.8448" fill="none"/><path d="m396.154 396.81v8.8449" fill="none"/><path d="m413.3459 396.81v8.8449" fill="none"/><path d="m378.9621 361.4293h51.5757" fill="none"/><path d="m396.154 361.4293v8.8448" fill="none"/><path d="m413.3459 361.4293v8.8448" fill="none"/><path d="m404.75 405.6551v8.8449" fill="none"/><path d="m378.9621 370.2744h51.5757" fill="none"/><path d="m409.6085 379.1195h20.9293" fill="none"/><path d="m409.6085 387.9646h20.9293" fill="none"/><path d="m378.9621 396.8097h51.5757" fill="none"/><path d="m378.9621 405.6549h51.5757" fill="none"/><path d="m404.75 370.2747v3.177" fill="none"/><path d="m404.75 393.6327v3.177" fill="none"/><path d="m404.75 373.4514c2.6917 0 4.8586 2.176 4.8586 4.879v15.3026h-9.7172v-15.3026c0-2.703 2.1669-4.879 4.8586-4.879z"/><path d="m378.9621 379.1195h20.9293" fill="none"/><path d="m378.9621 387.9646h20.9293" fill="none"/></g><g><path d="m429.7221 457.2149c3.9199 0 7.0756 3.1366 7.0756 7.0326v19.9296h-14.151v-19.9296c0-3.8961 3.1557-7.0326 7.0755-7.0326zm-49.9442 0c3.9198 0 7.0756 3.1366 7.0756 7.0326v19.9296h-14.1511v-19.9296c0-3.8961 3.1557-7.0326 7.0756-7.0326zm99.4721 122.2851v-34.0771c-12.4155-7.6173-24.5557-42.2429-24.5557-68.9037v-46.0607l12.0698-7.4896v-22.4689h-24.8057v11.2347h-24.8056v-11.2347h-24.8057v11.2347h-24.8057v-11.2347h-24.8057v22.4689l12.0699 7.4896v46.0607c0 26.6608-12.1403 61.2864-24.5558 68.9037v34.0771h61.1816v-29.6188c0-7.2558 5.94-13.0971 13.3184-13.0971s13.3185 5.8413 13.3185 13.0971v29.6188z" fill="#e5e5e5"/><path d="m342.6732 422.9689h124.1551" fill="none"/><path d="m330.25 568.141h52.4413" fill="none"/><path d="m330.25 556.782h52.4413" fill="none"/><path d="m330.25 545.4229h52.5245" fill="none"/><path d="m340.19 533.9265h49.1529" fill="none"/><path d="m345.6503 522.43h118.1995" fill="none"/><path d="m392.264 510.9336-1.6648 11.4964" fill="none"/><path d="m349.6191 510.9336h110.2619" fill="none"/><path d="m352.4162 499.4371h104.6677" fill="none"/><path d="m354.1947 487.9407h101.1107" fill="none"/><path d="m354.8058 476.4443h17.8967" fill="none"/><path d="m354.8058 464.9478h17.8967" fill="none"/><path d="m354.8058 453.4513h99.8885" fill="none"/><path d="m354.8058 441.9549h99.8885" fill="none"/><path d="m429.7221 430.4585v11.4964" fill="none"/><path d="m404.75 430.4585v11.4964" fill="none"/><path d="m379.7779 430.4585v11.4964" fill="none"/><path d="m356.4706 499.4371-1.6648 11.4965" fill="none"/><path d="m453.0295 499.4371 1.6648 11.4965" fill="none"/><path d="m367.2919 510.9336-2.4973 11.4964" fill="none"/><path d="m417.2361 510.9336 1.6648 11.4964" fill="none"/><path d="m442.2082 510.9336 2.4972 11.4964" fill="none"/><path d="m379.7779 522.43-2.4972 11.4965" fill="none"/><path d="m429.7221 522.43 2.4972 11.4965" fill="none"/><path d="m354.8058 522.43-4.162 11.4965" fill="none"/><path d="m454.6943 522.43 4.162 11.4965" fill="none"/><path d="m363.9622 533.9265-4.9944 11.4964" fill="none"/><path d="m445.5378 533.9265 4.162 11.4964" fill="none"/><path d="m370.6214 545.4229v11.3591" fill="none"/><path d="m354.8058 430.4585h99.8885" fill="none"/><path d="m436.7976 476.4443h17.8967" fill="none"/><path d="m436.7976 464.9478h17.8967" fill="none"/><path d="m386.8533 464.9478h35.7934" fill="none"/><path d="m386.8533 476.4443h35.7934" fill="none"/><path d="m426.7255 545.4229h52.5245" fill="none"/><path d="m426.8087 568.141h52.4413" fill="none"/><path d="m426.8087 556.782h52.4413" fill="none"/><path d="m442.2082 441.9549v11.4964" fill="none"/><path d="m417.2361 441.9549v11.4964" fill="none"/><path d="m367.2919 441.9549v11.4964" fill="none"/><path d="m392.264 441.9549v11.4964" fill="none"/><path d="m429.7221 453.4513v3.7635" fill="none"/><path d="m404.75 453.4513v11.4965" fill="none"/><path d="m379.7779 453.4513v3.7635" fill="none"/><path d="m442.2082 464.9478v11.4965" fill="none"/><path d="m417.2361 464.9478v11.4965" fill="none"/><path d="m367.2919 464.9478v11.4965" fill="none"/><path d="m392.264 464.9478v11.4965" fill="none"/><path d="m442.2082 487.9407v11.4964" fill="none"/><path d="m417.2361 487.9407v11.4964" fill="none"/><path d="m367.2919 487.9407v11.4964" fill="none"/><path d="m392.264 487.9407v11.4964" fill="none"/><path d="m429.7221 484.1772v3.7635" fill="none"/><path d="m404.75 476.4443v11.4964" fill="none"/><path d="m379.7779 484.1772v3.7635" fill="none"/><path d="m429.7221 499.4371v11.4965" fill="none"/><path d="m404.75 499.4371v11.4965" fill="none"/><path d="m379.7779 499.4371v11.4965" fill="none"/><path d="m404.75 522.43v5.3925" fill="none"/><path d="m357.303 556.782v11.359" fill="none"/><path d="m370.6214 568.141v11.359" fill="none"/><path d="m343.9845 568.141v11.359" fill="none"/><path d="m343.9845 545.4229v11.3591" fill="none"/><path d="m438.8786 545.4229v11.3591" fill="none"/><path d="m452.1971 556.782v11.359" fill="none"/><path d="m438.8786 568.141v11.359" fill="none"/><path d="m465.5155 568.141v11.359" fill="none"/><path d="m465.5155 545.4229v11.3591" fill="none"/><path d="m382.6913 579.5v-29.6188c0-12.2206 9.8382-22.0587 22.0587-22.0587 12.2206 0 22.0587 9.8381 22.0587 22.0587v29.6188" fill="none"/><path d="m404.75 536.7841c7.3784 0 13.3185 5.8413 13.3185 13.0971v29.6188h-26.6369v-29.6188c0-7.2558 5.94-13.0971 13.3184-13.0971z"/><path d="m382.6913 549.8814h8.7403" fill="none"/><path d="m418.0684 549.8814h8.7403" fill="none"/><path d="m415.5248 542.053 7.0711-5.1376" fill="none"/><path d="m386.9042 536.9154 7.0711 5.1376" fill="none"/><path d="m397.9335 528.9021 2.7009 8.3126" fill="none"/><path d="m408.8656 537.2146 2.701-8.3125" fill="none"/><path d="m382.6913 557.286h8.7403" fill="none"/><path d="m382.6913 564.6906h8.7403" fill="none"/><path d="m382.6913 572.0953h8.7403" fill="none"/><path d="m418.0684 557.286h8.7403" fill="none"/><path d="m418.0684 564.6906h8.7403" fill="none"/><path d="m418.0684 572.0953h8.7403" fill="none"/><path d="m379.7779 457.2152c3.9198 0 7.0756 3.1363 7.0756 7.0323v19.9296l-14.1511.0001v-19.9297c0-3.8961 3.1557-7.0323 7.0756-7.0323z"/><path d="m429.7221 457.2149c3.9199 0 7.0756 3.1366 7.0756 7.0326v19.9296h-14.151v-19.9296c0-3.8961 3.1557-7.0326 7.0755-7.0326z"/><path d="m420.1571 533.9265h49.1529" fill="none"/></g></g><path d="m1.5 480 298.5 298.5 298.5-298.5-298.5-298.5z" fill="none" stroke="#000" stroke-linecap="round" stroke-linejoin="round" stroke-width="3"/></svg>