<?xml version="1.0" encoding="UTF-8" standalone="no"?>
<!-- Created with Inkscape (http://www.inkscape.org/) -->
<svg
   xmlns:svg="http://www.w3.org/2000/svg"
   xmlns="http://www.w3.org/2000/svg"
   version="1.0"
   width="602"
   height="1266.1375"
   id="svg3194">
  <defs
     id="defs3196" />
  <g
     transform="translate(-30.428555,224.69005)"
     id="layer3"
     style="display:inline">
    <g
       transform="matrix(0.3926312,0,0,0.3724982,-829.82983,-96.23348)"
       id="g9126">
      <g
         transform="matrix(-0.748008,0.507597,0.4813713,0.8831979,3520.4688,-1419.3176)"
         id="g9134" />
    </g>
    <g
       transform="matrix(-0.3926312,0,0,0.3724982,1494.6871,-96.23348)"
       id="g9142">
      <g
         transform="matrix(-0.748008,0.507597,0.4813713,0.8831979,3520.4688,-1419.3176)"
         id="g9150" />
    </g>
  </g>
  <g
     transform="translate(-30.428555,224.69005)"
     id="layer1"
     style="display:inline" />
  <g
     transform="translate(520.80084,382.89781)"
     id="g4847"
     style="display:inline" />
  <path
     d=""
     id="path4849"
     style="opacity:0.63999999;fill:#009900;fill-opacity:1" />
  <path
     d=""
     id="path4851"
     style="opacity:0.63999999;fill:#009900;fill-opacity:1" />
  <path
     d=""
     id="path4853"
     style="opacity:0.63999999;fill:#009900;fill-opacity:1" />
  <g
     transform="translate(577.22956,306.25747)"
     id="g4855" />
  <g
     transform="translate(577.22956,306.25747)"
     id="g4857" />
  <g
     transform="translate(577.22956,306.25747)"
     id="g4859" />
  <g
     transform="translate(-103.98732,272.3008)"
     id="g4861"
     style="display:inline" />
  <g
     transform="translate(826.24147,227.67415)"
     id="g5358"
     style="display:inline" />
  <path
     d=""
     id="path5654"
     style="opacity:0.63999999;fill:#009900;fill-opacity:1" />
  <path
     d=""
     id="path5656"
     style="opacity:0.63999999;fill:#009900;fill-opacity:1" />
  <path
     d=""
     id="path5658"
     style="opacity:0.63999999;fill:#009900;fill-opacity:1" />
  <g
     transform="translate(1524.2559,151.29189)"
     id="g5190" />
  <g
     transform="translate(1524.2559,151.29189)"
     id="g5192" />
  <g
     transform="translate(1524.2559,151.29189)"
     id="g5194" />
  <g
     transform="translate(527.09377,155.3423)"
     id="g4934"
     style="display:inline" />
  <path
     d=""
     id="path5344"
     style="opacity:0.63999999;fill:#009900;fill-opacity:1" />
  <path
     d=""
     id="path5346"
     style="opacity:0.63999999;fill:#009900;fill-opacity:1" />
  <path
     d=""
     id="path5348"
     style="opacity:0.63999999;fill:#009900;fill-opacity:1" />
  <g
     transform="translate(583.52249,78.701955)"
     id="g5598" />
  <g
     transform="translate(583.52249,78.701955)"
     id="g5600" />
  <g
     transform="translate(583.52249,78.701955)"
     id="g5602" />
  <path
     d=""
     id="path3467"
     style="opacity:0.63999999;fill:#009900;fill-opacity:1" />
  <path
     d=""
     id="path3469"
     style="opacity:0.63999999;fill:#009900;fill-opacity:1" />
  <path
     d=""
     id="path3471"
     style="opacity:0.63999999;fill:#009900;fill-opacity:1" />
  <g
     transform="translate(897.11847,-378.22427)"
     id="g3473" />
  <g
     transform="translate(897.11847,-378.22427)"
     id="g3475" />
  <g
     transform="translate(897.11847,-378.22427)"
     id="g3477" />
  <g
     transform="translate(-100.04356,-374.17377)"
     id="g3479"
     style="display:inline" />
  <path
     d=""
     id="path3481"
     style="opacity:0.63999999;fill:#009900;fill-opacity:1" />
  <path
     d=""
     id="path3483"
     style="opacity:0.63999999;fill:#009900;fill-opacity:1" />
  <path
     d=""
     id="path3485"
     style="opacity:0.63999999;fill:#009900;fill-opacity:1" />
  <g
     transform="translate(-43.614843,-450.81417)"
     id="g3732" />
  <g
     transform="translate(-43.614843,-450.81417)"
     id="g3734" />
  <g
     transform="translate(-43.614843,-450.81417)"
     id="g3736" />
  <g
     transform="translate(882.67017,151.03381)"
     id="g5698" />
  <g
     transform="translate(882.67017,151.03381)"
     id="g5700" />
  <g
     transform="translate(882.67017,151.03381)"
     id="g5702" />
  <g
     transform="translate(379.26446,123.95356)"
     id="g6272">
    <rect
       width="34.115768"
       height="99.739708"
       x="-94.145447"
       y="163.27824"
       id="rect24434"
       style="fill:#eac102;fill-opacity:1;fill-rule:nonzero;stroke:#000000;stroke-width:1;stroke-linecap:square;stroke-linejoin:round;stroke-miterlimit:4;stroke-dasharray:none;stroke-dashoffset:0;stroke-opacity:1" />
    <path
       d="M -43.344758,220.30186 C -43.344758,238.93527 -58.451918,254.04064 -77.087548,254.04064 C -95.723178,254.04064 -110.83035,238.93527 -110.83035,220.30186 C -110.83035,201.66845 -95.723178,186.56308 -77.087548,186.56308 C -58.451918,186.56308 -43.344758,201.66845 -43.344758,220.30186 z"
       id="path24436"
       style="fill:#eac102;fill-opacity:1;fill-rule:nonzero;stroke:#000000;stroke-width:0.99999994;stroke-linecap:square;stroke-linejoin:round;stroke-miterlimit:4;stroke-dasharray:none;stroke-dashoffset:0;stroke-opacity:1" />
    <rect
       width="45.611317"
       height="7.4155874"
       x="-99.893219"
       y="177.86247"
       id="rect3388"
       style="fill:#eac102;fill-opacity:1;fill-rule:nonzero;stroke:#000000;stroke-width:1;stroke-linecap:square;stroke-linejoin:round;stroke-miterlimit:4;stroke-dasharray:none;stroke-dashoffset:0;stroke-opacity:1" />
    <rect
       width="59.702602"
       height="5.1909051"
       x="-106.93884"
       y="-268.57953"
       transform="scale(1,-1)"
       id="rect3400"
       style="fill:#eac102;fill-opacity:1;fill-rule:nonzero;stroke:#000000;stroke-width:1;stroke-linecap:square;stroke-linejoin:round;stroke-miterlimit:4;stroke-dasharray:none;stroke-dashoffset:0;stroke-opacity:1" />
    <rect
       width="45.611317"
       height="7.4155874"
       x="-99.89325"
       y="-263.38861"
       transform="scale(1,-1)"
       id="rect3402"
       style="fill:#eac102;fill-opacity:1;fill-rule:nonzero;stroke:#000000;stroke-width:1;stroke-linecap:square;stroke-linejoin:round;stroke-miterlimit:4;stroke-dasharray:none;stroke-dashoffset:0;stroke-opacity:1" />
    <g
       transform="matrix(2.1677964,0,0,2.167539,-900.68684,-888.32026)"
       id="g24442"
       style="fill:#eac102;stroke:#000000;stroke-width:0.46132532;stroke-miterlimit:4;stroke-dasharray:none;stroke-opacity:1">
      <path
         d="M 302.63644,376.69187 C 297.53519,378.08514 300.56518,393.77491 303.96697,399.19002 C 306.08573,402.56274 306.54926,408.97509 305.66038,416.7289 C 306.6888,423.31608 309.35483,424.00786 311.95019,424.95403 C 313.64202,423.52132 314.42854,421.095 318.48191,421.93009 C 323.1184,422.88532 323.40857,427.67883 321.86873,430.51809 C 320.81781,432.45586 317.79065,433.55916 314.36934,431.96958 L 312.67593,446.96835 L 311.10348,446.84739 L 311.22444,434.75161 C 310.26133,435.27181 308.96882,433.81539 308.46579,437.09644 C 307.2469,439.76265 307.77446,443.78601 309.65199,446.96835 C 307.37364,443.90409 305.07619,440.83982 304.81368,437.77556 C 304.61304,434.71168 307.08642,432.98497 308.80528,430.88096 C 298.1092,423.70604 292.05106,415.75814 289.08916,407.29419 C 284.61055,408.26958 282.37288,404.01551 279.29158,401.73013 L 279.29158,400.15768 C 282.59776,401.80676 285.90394,406.40133 289.21012,403.90737 C 288.235,388.90405 292.6448,379.76078 302.63644,376.69187 z"
         id="path24444"
         style="fill:#eac102;fill-opacity:1;fill-rule:evenodd;stroke:#000000;stroke-width:0.46132532;stroke-linecap:butt;stroke-linejoin:miter;stroke-miterlimit:4;stroke-dasharray:none;stroke-opacity:1" />
      <path
         d="M 356.58362,412.49538 C 357.65642,407.90618 358.94753,403.34124 362.87343,399.06906 C 359.78795,400.1649 354.62726,401.30604 353.12125,403.66546 L 356.58362,412.49538 z"
         id="path24446"
         style="fill:#eac102;fill-opacity:1;fill-rule:evenodd;stroke:#000000;stroke-width:0.46132532;stroke-linecap:butt;stroke-linejoin:round;stroke-miterlimit:4;stroke-dasharray:none;stroke-opacity:1" />
      <path
         d="M 306.45897,361.97141 C 305.65196,357.89385 301.46398,355.51365 298.64483,352.87333 C 304.73414,355.59104 311.26581,356.76049 317.99808,357.22782 L 306.45897,361.97141 z"
         id="path24448"
         style="fill:#eac102;fill-opacity:1;fill-rule:evenodd;stroke:#000000;stroke-width:0.46132532;stroke-linecap:butt;stroke-linejoin:round;stroke-miterlimit:4;stroke-dasharray:none;stroke-opacity:1" />
      <path
         d="M 335.29504,408.75584 C 336.77786,405.9926 340.71642,403.71557 339.64953,400.40975 C 338.46828,396.7496 338.92954,393.01522 338.82891,389.37782 C 341.97381,391.54833 343.76209,393.64373 346.90699,398.59539 C 343.9532,404.50358 339.4715,406.21001 335.29504,408.75584 z"
         id="path24450"
         style="fill:#eac102;fill-opacity:1;fill-rule:evenodd;stroke:#000000;stroke-width:0.46132532;stroke-linecap:butt;stroke-linejoin:round;stroke-miterlimit:4;stroke-dasharray:none;stroke-opacity:1" />
      <path
         d="M 334.66597,420.01843 C 337.71983,419.30557 342.03142,420.75725 343.80778,417.77208 C 345.77452,414.46694 348.66395,411.58348 351.32766,409.10448 C 351.77653,412.89922 352.37895,416.58202 350.74032,422.21444 C 344.3539,423.90126 339.33651,421.47106 334.66597,420.01843 z"
         id="path24452"
         style="fill:#eac102;fill-opacity:1;fill-rule:evenodd;stroke:#000000;stroke-width:0.46132532;stroke-linecap:butt;stroke-linejoin:round;stroke-miterlimit:4;stroke-dasharray:none;stroke-opacity:1" />
      <path
         d="M 324.77996,433.02857 C 327.10937,435.12813 328.38042,439.49638 331.84536,439.24942 C 335.68166,438.97601 340.30821,439.48689 343.86448,440.25741 C 341.006,442.7933 337.43411,444.85817 331.8749,446.7302 C 326.84256,442.45148 326.25526,437.692 324.77996,433.02857 z"
         id="path24454"
         style="fill:#eac102;fill-opacity:1;fill-rule:evenodd;stroke:#000000;stroke-width:0.46132532;stroke-linecap:butt;stroke-linejoin:round;stroke-miterlimit:4;stroke-dasharray:none;stroke-opacity:1" />
    </g>
    <path
       d="M -59.288038,173.117 C -59.288038,173.117 -60.923028,64.206655 -59.288038,-4.6510252 C -58.062358,-56.269367 -111.29748,-114.76749 -190.09259,-116.1125 C -260.74775,-117.86664 -358.42844,-29.085241 -291.30637,66.466205 C -263.18221,106.50229 -188.30296,121.85921 -141.9992,65.840955 C -126.45209,44.605315 -124.37053,1.3729748 -130.89631,-9.4498952 C -137.27878,-33.561816 -162.53109,-76.299876 -223.65571,-56.859631 C -235.90784,-50.297363 -243.86093,-45.798847 -248.15572,-40.662495 L -245.6815,-32.214647 C -220.93849,-62.655695 -168.80277,-54.80036 -151.11299,-27.495395 C -151.64136,-27.374598 -129.06017,-3.7142152 -146.04099,46.963945 C -153.06543,67.927905 -173.94775,76.710405 -191.14143,84.455805 C -223.59818,91.501265 -252.57902,86.295135 -270.32943,67.414055 C -297.25834,38.769825 -307.34885,-7.9128552 -284.29799,-43.795592 C -267.86478,-69.376778 -235.72173,-81.409871 -218.41147,-87.59839 C -167.63766,-105.75034 -95.224248,-67.628897 -94.033038,-5.3186352 C -92.988488,49.320495 -94.475228,172.89981 -94.475228,172.89981 L -59.288038,173.117 z"
       id="path24440"
       style="fill:#eac102;fill-opacity:1;fill-rule:evenodd;stroke:#000000;stroke-width:1;stroke-linecap:butt;stroke-linejoin:miter;stroke-miterlimit:4;stroke-dasharray:none;stroke-opacity:1" />
    <g
       transform="translate(-410.91582,104.44204)"
       id="g5861"
       style="display:inline">
      <path
         d="M 522.3245,201.07088 C 524.5108,196.31568 530.1331,194.23498 534.8884,196.42138 C 539.6392,198.60568 541.7199,204.22808 539.5336,208.98328 C 537.3482,213.73638 531.726,215.81698 526.975,213.63268 C 522.2198,211.44628 520.139,205.82408 522.3245,201.07088 z"
         id="path5863"
         style="fill:#e3e4e5;fill-opacity:1;stroke:#010101;stroke-width:0.99999994;stroke-miterlimit:4;stroke-dasharray:none" />
      <path
         d="M 333.25411,158.24942 C 276.6415,158.81389 219.3783,158.86651 163.7791,170.19 C 151.3716,173.92883 133.633,176.01662 128.9755,189.2599 C 127.4476,200.32131 141.4761,205.00928 150.2389,208.04925 C 191.9833,220.01269 236.0919,221.02551 279.3442,222.89575 C 346.63471,224.18444 414.35891,224.70758 481.15051,215.77395 C 499.39761,212.40873 519.48991,210.33176 534.49501,198.99412 C 543.45461,190.61522 533.53711,178.89922 523.63261,176.48938 C 489.65541,164.04256 452.59671,162.70693 416.66071,160.17277 C 388.88741,158.72576 361.06581,158.2678 333.25411,158.24942 z"
         id="path5865"
         style="fill:#eac102;fill-rule:evenodd;stroke:#000000;stroke-width:1.00000012px;stroke-linecap:butt;stroke-linejoin:miter;stroke-opacity:1" />
      <path
         d="M 333.42871,171.84666 C 302.57159,171.84666 276.54879,172.42046 254.61622,173.41798 C 250.22955,173.61749 245.99485,173.83969 241.92872,174.07023 C 193.15744,176.83701 167.00607,181.72819 152.99122,186.19609 C 151.82317,186.5685 150.71555,186.92803 149.70997,187.29305 C 144.69845,189.11425 141.61636,190.85785 139.74122,192.27385 C 139.37245,192.55241 139.05486,192.81996 138.77247,193.07433 C 138.47958,193.33816 138.23505,193.58078 138.02247,193.81552 C 136.7693,195.19875 136.80371,196.03909 136.80372,196.03909 L 147.45997,232.77246 L 182.30372,232.77246 L 484.55371,232.77246 L 519.39751,232.77246 L 530.05371,196.03909 C 530.05371,196.03909 530.08811,195.19875 528.83491,193.81552 C 528.62241,193.58078 528.37781,193.33816 528.08491,193.07433 C 526.37031,191.5251 523.16321,189.47919 517.14751,187.29305 C 517.13891,187.28996 517.12471,187.29615 517.11621,187.29305 C 504.04481,182.54878 477.76521,177.06762 424.92871,174.07023 C 424.91871,174.06966 424.90741,174.0708 424.89751,174.07023 C 420.83141,173.83969 416.62771,173.61749 412.24121,173.41798 C 390.30791,172.42045 364.28761,171.84666 333.42871,171.84666 z"
         id="path5867"
         style="fill:#eac102;fill-opacity:1;fill-rule:evenodd;stroke:#000000;stroke-width:1px;stroke-linecap:butt;stroke-linejoin:miter;stroke-opacity:1" />
      <path
         d="M 1796.3478,707.07074 C 1796.3478,719.80957 1786.0209,730.13644 1773.2821,730.13644 C 1760.5433,730.13644 1750.2164,719.80957 1750.2164,707.07074 C 1750.2164,694.33191 1760.5433,684.00504 1773.2821,684.00504 C 1786.0209,684.00504 1796.3478,694.33191 1796.3478,707.07074 z"
         transform="matrix(0.5526395,0,0,0.5685945,-571.16923,-212.15801)"
         id="path5869"
         style="fill:#eac102;fill-opacity:1;fill-rule:evenodd;stroke:#000000;stroke-width:1.78393018px;stroke-linecap:round;stroke-linejoin:round;marker:none;marker-start:none;marker-mid:none;marker-end:none;stroke-miterlimit:4;stroke-dasharray:none;stroke-dashoffset:0;stroke-opacity:1;visibility:visible;display:inline;overflow:visible;enable-background:accumulate" />
      <path
         d="M 1796.3478,707.07074 C 1796.3478,719.80957 1786.0209,730.13644 1773.2821,730.13644 C 1760.5433,730.13644 1750.2164,719.80957 1750.2164,707.07074 C 1750.2164,694.33191 1760.5433,684.00504 1773.2821,684.00504 C 1786.0209,684.00504 1796.3478,694.33191 1796.3478,707.07074 z"
         transform="matrix(0.5401856,0,0,0.5685945,-547.72063,-212.15801)"
         id="path5871"
         style="fill:#eac102;fill-opacity:1;fill-rule:evenodd;stroke:#000000;stroke-width:1.80437696px;stroke-linecap:round;stroke-linejoin:round;marker:none;marker-start:none;marker-mid:none;marker-end:none;stroke-miterlimit:4;stroke-dasharray:none;stroke-dashoffset:0;stroke-opacity:1;visibility:visible;display:inline;overflow:visible;enable-background:accumulate" />
      <path
         d="M 1796.3478,707.07074 C 1796.3478,719.80957 1786.0209,730.13644 1773.2821,730.13644 C 1760.5433,730.13644 1750.2164,719.80957 1750.2164,707.07074 C 1750.2164,694.33191 1760.5433,684.00504 1773.2821,684.00504 C 1786.0209,684.00504 1796.3478,694.33191 1796.3478,707.07074 z"
         transform="matrix(0.4779164,0,0,0.4918098,-437.01244,-157.86583)"
         id="path5873"
         style="fill:#e3e4e5;fill-opacity:1;fill-rule:evenodd;stroke:#000000;stroke-width:2.06264997px;stroke-linecap:round;stroke-linejoin:round;marker:none;marker-start:none;marker-mid:none;marker-end:none;stroke-miterlimit:4;stroke-dasharray:none;stroke-dashoffset:0;stroke-opacity:1;visibility:visible;display:inline;overflow:visible;enable-background:accumulate" />
      <path
         d="M 1796.3478,707.07074 C 1796.3478,719.80957 1786.0209,730.13644 1773.2821,730.13644 C 1760.5433,730.13644 1750.2164,719.80957 1750.2164,707.07074 C 1750.2164,694.33191 1760.5433,684.00504 1773.2821,684.00504 C 1786.0209,684.00504 1796.3478,694.33191 1796.3478,707.07074 z"
         transform="matrix(-0.5526395,0,0,0.5685945,1238.0265,-212.15801)"
         id="path5875"
         style="fill:#eac102;fill-opacity:1;fill-rule:evenodd;stroke:#000000;stroke-width:1.78393018px;stroke-linecap:round;stroke-linejoin:round;marker:none;marker-start:none;marker-mid:none;marker-end:none;stroke-miterlimit:4;stroke-dasharray:none;stroke-dashoffset:0;stroke-opacity:1;visibility:visible;display:inline;overflow:visible;enable-background:accumulate" />
      <path
         d="M 1796.3478,707.07074 C 1796.3478,719.80957 1786.0209,730.13644 1773.2821,730.13644 C 1760.5433,730.13644 1750.2164,719.80957 1750.2164,707.07074 C 1750.2164,694.33191 1760.5433,684.00504 1773.2821,684.00504 C 1786.0209,684.00504 1796.3478,694.33191 1796.3478,707.07074 z"
         transform="matrix(-0.5401856,0,0,0.5685945,1214.5779,-212.15801)"
         id="path5877"
         style="fill:#eac102;fill-opacity:1;fill-rule:evenodd;stroke:#000000;stroke-width:1.80437696px;stroke-linecap:round;stroke-linejoin:round;marker:none;marker-start:none;marker-mid:none;marker-end:none;stroke-miterlimit:4;stroke-dasharray:none;stroke-dashoffset:0;stroke-opacity:1;visibility:visible;display:inline;overflow:visible;enable-background:accumulate" />
      <path
         d="M 1796.3478,707.07074 C 1796.3478,719.80957 1786.0209,730.13644 1773.2821,730.13644 C 1760.5433,730.13644 1750.2164,719.80957 1750.2164,707.07074 C 1750.2164,694.33191 1760.5433,684.00504 1773.2821,684.00504 C 1786.0209,684.00504 1796.3478,694.33191 1796.3478,707.07074 z"
         transform="matrix(-0.4779164,0,0,0.4918098,1103.8697,-157.86583)"
         id="path5879"
         style="fill:#e3e4e5;fill-opacity:1;fill-rule:evenodd;stroke:#000000;stroke-width:2.06264997px;stroke-linecap:round;stroke-linejoin:round;marker:none;marker-start:none;marker-mid:none;marker-end:none;stroke-miterlimit:4;stroke-dasharray:none;stroke-dashoffset:0;stroke-opacity:1;visibility:visible;display:inline;overflow:visible;enable-background:accumulate" />
      <path
         d="M 217.89927,191.3326 L 197.48365,181.49051 L 196.17586,181.72816 L 215.64704,191.74187 L 217.89927,191.3326 z"
         id="path5881"
         style="fill:none;fill-rule:evenodd;stroke:#000000;stroke-width:0.99999982px;stroke-linecap:round;stroke-linejoin:round;stroke-opacity:1" />
      <path
         d="M 217.89927,191.3326 L 197.48365,208.59441 L 196.17586,208.83205 L 215.64704,191.74187 L 217.89927,191.3326 z"
         id="path5883"
         style="fill:none;fill-rule:evenodd;stroke:#000000;stroke-width:0.99999982px;stroke-linecap:round;stroke-linejoin:round;stroke-opacity:1" />
      <path
         d="M 196.14605,208.7908 L 177.81101,198.96478 L 196.1044,181.81063"
         id="path5885"
         style="fill:none;fill-opacity:1;fill-rule:evenodd;stroke:#000000;stroke-width:0.99999982px;stroke-linecap:round;stroke-linejoin:round;marker:none;marker-start:none;marker-mid:none;marker-end:none;stroke-miterlimit:4;stroke-dasharray:none;stroke-dashoffset:0;stroke-opacity:1;visibility:visible;display:inline;overflow:visible;enable-background:accumulate" />
      <path
         d="M 210.58637,192.80046 L 195.93734,205.9565 L 181.50273,198.01594 L 196.0088,185.09437 L 210.58637,192.80046 z"
         id="path5887"
         style="fill:#008f4c;fill-rule:evenodd;stroke:#000000;stroke-width:0.99999982px;stroke-linecap:round;stroke-linejoin:round;stroke-opacity:1" />
      <path
         d="M 200.73555,194.6234 L 192.98659,201.55839 L 185.35106,197.38242 L 193.02439,190.57098 L 200.73555,194.6234 z"
         id="path5889"
         style="fill:none;fill-rule:evenodd;stroke:#000000;stroke-width:0.5999999;stroke-linecap:round;stroke-linejoin:round;stroke-miterlimit:4;stroke-dasharray:none;stroke-opacity:1" />
      <path
         d="M 196.0088,205.87402 L 192.97172,201.56096"
         id="path5891"
         style="fill:none;fill-rule:evenodd;stroke:#000000;stroke-width:0.5999999;stroke-linecap:round;stroke-linejoin:round;stroke-miterlimit:4;stroke-dasharray:none;stroke-opacity:1" />
      <path
         d="M 181.71707,197.977 L 185.37954,197.3637"
         id="path5893"
         style="fill:none;fill-rule:evenodd;stroke:#000000;stroke-width:0.5999999;stroke-linecap:round;stroke-linejoin:round;stroke-miterlimit:4;stroke-dasharray:none;stroke-opacity:1" />
      <path
         d="M 200.72506,194.59243 L 210.30053,192.8524"
         id="path5895"
         style="fill:none;fill-rule:evenodd;stroke:#000000;stroke-width:0.5999999;stroke-linecap:round;stroke-linejoin:round;stroke-miterlimit:4;stroke-dasharray:none;stroke-opacity:1" />
      <path
         d="M 192.98979,190.62966 L 196.0088,185.09437"
         id="path5897"
         style="fill:none;fill-rule:evenodd;stroke:#000000;stroke-width:0.5999999;stroke-linecap:round;stroke-linejoin:round;stroke-miterlimit:4;stroke-dasharray:none;stroke-opacity:1" />
      <path
         d="M 448.95767,191.3326 L 469.37329,181.49051 L 470.68108,181.72816 L 451.2099,191.74187 L 448.95767,191.3326 z"
         id="path5899"
         style="fill:none;fill-rule:evenodd;stroke:#000000;stroke-width:0.99999982px;stroke-linecap:round;stroke-linejoin:round;stroke-opacity:1" />
      <path
         d="M 448.95767,191.3326 L 469.37329,208.59441 L 470.68108,208.83205 L 451.2099,191.74187 L 448.95767,191.3326 z"
         id="path5901"
         style="fill:none;fill-rule:evenodd;stroke:#000000;stroke-width:0.99999982px;stroke-linecap:round;stroke-linejoin:round;stroke-opacity:1" />
      <path
         d="M 470.71089,208.7908 L 489.04593,198.96478 L 470.75254,181.81063"
         id="path5903"
         style="fill:none;fill-opacity:1;fill-rule:evenodd;stroke:#000000;stroke-width:0.99999982px;stroke-linecap:round;stroke-linejoin:round;marker:none;marker-start:none;marker-mid:none;marker-end:none;stroke-miterlimit:4;stroke-dasharray:none;stroke-dashoffset:0;stroke-opacity:1;visibility:visible;display:inline;overflow:visible;enable-background:accumulate" />
      <path
         d="M 456.27057,192.80046 L 470.9196,205.9565 L 485.35421,198.01594 L 470.84814,185.09437 L 456.27057,192.80046 z"
         id="path5905"
         style="fill:#008f4c;fill-rule:evenodd;stroke:#000000;stroke-width:0.99999982px;stroke-linecap:round;stroke-linejoin:round;stroke-opacity:1" />
      <path
         d="M 466.12139,194.6234 L 473.87035,201.55839 L 481.50588,197.38242 L 473.83255,190.57098 L 466.12139,194.6234 z"
         id="path5907"
         style="fill:none;fill-rule:evenodd;stroke:#000000;stroke-width:0.49999985;stroke-linecap:round;stroke-linejoin:round;stroke-miterlimit:4;stroke-dasharray:none;stroke-opacity:1" />
      <path
         d="M 470.84814,205.87402 L 473.88522,201.56096"
         id="path5909"
         style="fill:none;fill-rule:evenodd;stroke:#000000;stroke-width:0.49999985;stroke-linecap:round;stroke-linejoin:round;stroke-miterlimit:4;stroke-dasharray:none;stroke-opacity:1" />
      <path
         d="M 485.13987,197.977 L 481.4774,197.3637"
         id="path5911"
         style="fill:none;fill-rule:evenodd;stroke:#000000;stroke-width:0.49999985;stroke-linecap:round;stroke-linejoin:round;stroke-miterlimit:4;stroke-dasharray:none;stroke-opacity:1" />
      <path
         d="M 466.13188,194.59243 L 456.55641,192.8524"
         id="path5913"
         style="fill:none;fill-rule:evenodd;stroke:#000000;stroke-width:0.49999985;stroke-linecap:round;stroke-linejoin:round;stroke-miterlimit:4;stroke-dasharray:none;stroke-opacity:1" />
      <path
         d="M 473.86715,190.62966 L 470.84814,185.09437"
         id="path5915"
         style="fill:none;fill-rule:evenodd;stroke:#000000;stroke-width:0.49999985;stroke-linecap:round;stroke-linejoin:round;stroke-miterlimit:4;stroke-dasharray:none;stroke-opacity:1" />
      <rect
         width="52.713264"
         height="26.649967"
         rx="13.479209"
         ry="13.324984"
         x="307.07196"
         y="175.04201"
         id="rect5917"
         style="fill:#eac102;fill-opacity:1;fill-rule:nonzero;stroke:#000000;stroke-width:1.00000024;stroke-linecap:butt;stroke-linejoin:miter;marker:none;marker-start:none;marker-mid:none;marker-end:none;stroke-miterlimit:4;stroke-dasharray:none;stroke-dashoffset:0;stroke-opacity:1;visibility:visible;display:inline;overflow:visible;enable-background:accumulate" />
      <rect
         width="47.431377"
         height="23.013342"
         rx="12.128588"
         ry="11.506671"
         x="309.71286"
         y="176.86031"
         id="rect5919"
         style="fill:#ed1c24;fill-opacity:1;fill-rule:nonzero;stroke:#000000;stroke-width:1.00000024;stroke-linecap:butt;stroke-linejoin:miter;marker:none;marker-start:none;marker-mid:none;marker-end:none;stroke-miterlimit:4;stroke-dasharray:none;stroke-dashoffset:0;stroke-opacity:1;visibility:visible;display:inline;overflow:visible;enable-background:accumulate" />
      <path
         d="M 146.81781,226.13026 C 146.71859,226.164 146.63801,226.22862 146.53694,226.25921 C 140.81613,227.9908 134.3557,223.96285 132.10493,217.26966 C 129.85411,210.57649 132.66206,203.74317 138.38283,202.01159 C 138.48389,201.981 138.58903,201.98941 138.69051,201.9624 L 146.81781,226.13026 z"
         id="path5921"
         style="fill:#ed1c24;fill-opacity:1;fill-rule:nonzero;stroke:#000000;stroke-width:1.00000048;stroke-linecap:butt;stroke-linejoin:miter;marker:none;marker-start:none;marker-mid:none;marker-end:none;stroke-miterlimit:4;stroke-dasharray:none;stroke-dashoffset:0;stroke-opacity:1;visibility:visible;display:inline;overflow:visible;enable-background:accumulate" />
      <path
         d="M 139.19962,199.39757 L 136.08318,200.34086 L 145.60052,228.64224 L 148.71696,227.69895 C 146.14429,216.43696 142.82981,205.98744 139.19962,199.39757 z"
         id="path5923"
         style="fill:#eac102;fill-opacity:1;fill-rule:nonzero;stroke:#000000;stroke-width:1.00000048;stroke-linecap:butt;stroke-linejoin:miter;marker:none;marker-start:none;marker-mid:none;marker-end:none;stroke-miterlimit:4;stroke-dashoffset:0;stroke-opacity:1;visibility:visible;display:inline;overflow:visible;enable-background:accumulate" />
      <path
         d="M 156.06718,189.03049 C 159.01312,189.09285 162.79979,194.43015 164.81252,201.55677 C 166.82516,208.68286 166.35461,215.08776 163.83667,216.53981 L 163.73063,216.59566 C 163.58076,216.67212 163.42645,216.73077 163.26278,216.77238 L 158.33017,218.01544 L 156.09469,210.10029 C 155.2522,208.39104 154.4996,206.4473 153.90167,204.33041 C 153.30379,202.21351 152.9274,200.15969 152.7562,198.27978 L 150.54179,190.43923 L 156.06718,189.03049 z"
         id="path5925"
         style="fill:#eac102;fill-opacity:1;fill-rule:evenodd;stroke:#000000;stroke-width:1.00000024px;stroke-linecap:round;stroke-linejoin:round;marker:none;marker-start:none;marker-mid:none;marker-end:none;stroke-miterlimit:4;stroke-dasharray:none;stroke-dashoffset:0;stroke-opacity:1;visibility:visible;display:inline;overflow:visible;enable-background:accumulate" />
      <path
         d="M 2048.3786,702.48627 C 2048.3852,713.97377 2047.2299,724.60372 2045.3494,730.35764 C 2043.4689,736.11155 2041.1502,736.11155 2039.2697,730.35764 C 2037.3892,724.60372 2036.2339,713.97377 2036.2405,702.48627 C 2036.2339,690.99877 2037.3892,680.36882 2039.2697,674.6149 C 2041.1502,668.86099 2043.4689,668.86099 2045.3494,674.6149 C 2047.2299,680.36882 2048.3852,690.99877 2048.3786,702.48627 z"
         transform="matrix(-0.8995649,0.2286779,0.1210959,0.4287623,1906.8066,-564.01818)"
         id="path5927"
         style="fill:#eac102;fill-opacity:1;fill-rule:evenodd;stroke:#000000;stroke-width:1.55531836px;stroke-linecap:round;stroke-linejoin:round;marker:none;marker-start:none;marker-mid:none;marker-end:none;stroke-miterlimit:4;stroke-dasharray:none;stroke-dashoffset:0;stroke-opacity:1;visibility:visible;display:inline;overflow:visible;enable-background:accumulate" />
      <path
         d="M 150.71229,192.15158 C 140.2253,198.41431 146.05222,216.29435 157.775,217.15837 C 164.78339,213.77177 157.13909,190.63818 150.71229,192.15158 z"
         id="path5929"
         style="fill:#e3e4e5;fill-opacity:1;fill-rule:evenodd;stroke:#000000;stroke-width:1.00000024px;stroke-linecap:round;stroke-linejoin:round;marker:none;marker-start:none;marker-mid:none;marker-end:none;stroke-miterlimit:4;stroke-dashoffset:0;stroke-opacity:1;visibility:visible;display:inline;overflow:visible;enable-background:accumulate" />
      <path
         d="M 520.03935,226.13026 C 520.13857,226.164 520.21915,226.22862 520.32022,226.25921 C 526.04103,227.9908 532.50146,223.96285 534.75223,217.26966 C 537.00305,210.57649 534.1951,203.74317 528.47433,202.01159 C 528.37327,201.981 528.26813,201.98941 528.16665,201.9624 L 520.03935,226.13026 z"
         id="path5931"
         style="fill:#ed1c24;fill-opacity:1;fill-rule:nonzero;stroke:#000000;stroke-width:1.00000048;stroke-linecap:butt;stroke-linejoin:miter;marker:none;marker-start:none;marker-mid:none;marker-end:none;stroke-miterlimit:4;stroke-dasharray:none;stroke-dashoffset:0;stroke-opacity:1;visibility:visible;display:inline;overflow:visible;enable-background:accumulate" />
      <path
         d="M 527.65754,199.39757 L 530.77398,200.34086 L 521.25664,228.64224 L 518.1402,227.69895 C 520.71287,216.43696 524.02735,205.98744 527.65754,199.39757 z"
         id="path5933"
         style="fill:#eac102;fill-opacity:1;fill-rule:nonzero;stroke:#000000;stroke-width:1.00000048;stroke-linecap:butt;stroke-linejoin:miter;marker:none;marker-start:none;marker-mid:none;marker-end:none;stroke-miterlimit:4;stroke-dashoffset:0;stroke-opacity:1;visibility:visible;display:inline;overflow:visible;enable-background:accumulate" />
      <path
         d="M 538.07957,201.75428 C 532.84627,201.68538 528.66337,197.39078 528.73227,192.15748 C 528.80117,186.92888 533.09577,182.74598 538.32907,182.81498 C 543.56007,182.88388 547.74287,187.17838 547.67397,192.40698 C 547.60497,197.64028 543.31057,201.82328 538.07957,201.75428 z"
         id="path5935"
         style="fill:#e3e4e5;fill-opacity:1;stroke:#010101;stroke-width:1.00000012;stroke-miterlimit:4;stroke-dasharray:none" />
      <path
         d="M 510.78998,189.03049 C 507.84404,189.09285 504.05737,194.43015 502.04464,201.55677 C 500.032,208.68286 500.50255,215.08776 503.02049,216.53981 L 503.12653,216.59566 C 503.2764,216.67212 503.43072,216.73077 503.59438,216.77238 L 508.52699,218.01544 L 510.76247,210.10029 C 511.60496,208.39104 512.35756,206.4473 512.95549,204.33041 C 513.55337,202.21351 513.92976,200.15969 514.10096,198.27978 L 516.31537,190.43923 L 510.78998,189.03049 z"
         id="path5937"
         style="fill:#eac102;fill-opacity:1;fill-rule:evenodd;stroke:#000000;stroke-width:1.00000024px;stroke-linecap:round;stroke-linejoin:round;marker:none;marker-start:none;marker-mid:none;marker-end:none;stroke-miterlimit:4;stroke-dasharray:none;stroke-dashoffset:0;stroke-opacity:1;visibility:visible;display:inline;overflow:visible;enable-background:accumulate" />
      <path
         d="M 2048.3786,702.48627 C 2048.3852,713.97377 2047.2299,724.60372 2045.3494,730.35764 C 2043.4689,736.11155 2041.1502,736.11155 2039.2697,730.35764 C 2037.3892,724.60372 2036.2339,713.97377 2036.2405,702.48627 C 2036.2339,690.99877 2037.3892,680.36882 2039.2697,674.6149 C 2041.1502,668.86099 2043.4689,668.86099 2045.3494,674.6149 C 2047.2299,680.36882 2048.3852,690.99877 2048.3786,702.48627 z"
         transform="matrix(0.8995649,0.2286779,-0.1210959,0.4287623,-1239.9494,-564.01818)"
         id="path5939"
         style="fill:#eac102;fill-opacity:1;fill-rule:evenodd;stroke:#000000;stroke-width:1.55531836px;stroke-linecap:round;stroke-linejoin:round;marker:none;marker-start:none;marker-mid:none;marker-end:none;stroke-miterlimit:4;stroke-dasharray:none;stroke-dashoffset:0;stroke-opacity:1;visibility:visible;display:inline;overflow:visible;enable-background:accumulate" />
      <path
         d="M 516.14487,192.15158 C 526.63185,198.41431 520.80494,216.29435 509.08216,217.15837 C 502.07376,213.77177 509.71807,190.63818 516.14487,192.15158 z"
         id="path5941"
         style="fill:#e3e4e5;fill-opacity:1;fill-rule:evenodd;stroke:#000000;stroke-width:1.00000024px;stroke-linecap:round;stroke-linejoin:round;marker:none;marker-start:none;marker-mid:none;marker-end:none;stroke-miterlimit:4;stroke-dashoffset:0;stroke-opacity:1;visibility:visible;display:inline;overflow:visible;enable-background:accumulate" />
      <path
         d="M 331.67169,268.04391 C 326.4384,267.97495 322.25551,263.68037 322.32445,258.44708 C 322.39332,253.21847 326.68789,249.03565 331.9212,249.1046 C 337.1522,249.17344 341.33498,253.46802 341.26611,258.69663 C 341.19717,263.92992 336.90272,268.11286 331.67169,268.04391 z"
         id="path5943"
         style="fill:#e3e4e5;fill-opacity:1;stroke:#010101;stroke-width:1.00000012;stroke-miterlimit:4;stroke-dasharray:none" />
      <path
         d="M 413.69796,266.47753 C 408.46467,266.40858 404.28178,262.114 404.35072,256.88071 C 404.41959,251.6521 408.71416,247.46928 413.94746,247.53823 C 419.17847,247.60706 423.36125,251.90164 423.29238,257.13026 C 423.22344,262.36355 418.92898,266.54648 413.69796,266.47753 z"
         id="path5945"
         style="fill:#e3e4e5;fill-opacity:1;stroke:#010101;stroke-width:1.00000012;stroke-miterlimit:4;stroke-dasharray:none" />
      <path
         d="M 236.07907,265.80272 C 230.84577,265.73377 226.66288,261.43919 226.73182,256.2059 C 226.80069,250.97729 231.09526,246.79447 236.32857,246.86342 C 241.55958,246.93225 245.74235,251.22683 245.67348,256.45545 C 245.60454,261.68874 241.31009,265.87167 236.07907,265.80272 z"
         id="path5947"
         style="fill:#e3e4e5;fill-opacity:1;stroke:#010101;stroke-width:1.00000012;stroke-miterlimit:4;stroke-dasharray:none" />
      <path
         d="M 156.29392,253.32047 C 151.06063,253.25152 146.87774,248.95694 146.94668,243.72365 C 147.01555,238.49504 151.31012,234.31222 156.54342,234.38117 C 161.77443,234.45 165.95721,238.74458 165.88834,243.9732 C 165.8194,249.20649 161.52494,253.38942 156.29392,253.32047 z"
         id="path5949"
         style="fill:#e3e4e5;fill-opacity:1;stroke:#010101;stroke-width:1.00000012;stroke-miterlimit:4;stroke-dasharray:none" />
      <path
         d="M 161.90372,234.38638 C 161.90372,234.38638 198.96528,216.51855 333.42834,216.51855 C 467.44589,216.51855 504.95287,234.38638 504.95287,234.38638 C 504.95287,234.38638 473.60549,252.25422 333.42834,252.25422 C 192.8054,252.25422 161.90372,234.38638 161.90372,234.38638 z"
         id="path5951"
         style="fill:#eac102;fill-rule:evenodd;stroke:#000000;stroke-width:1px;stroke-linecap:butt;stroke-linejoin:miter;stroke-opacity:1" />
      <path
         d="M 289.77079,255.10717 L 289.77079,213.76654"
         id="path5953"
         style="font-size:12px;fill:none;stroke:#000000;stroke-width:0.52008164" />
      <path
         d="M 281.88887,255.10717 L 281.88887,213.76654"
         id="path5955"
         style="font-size:12px;fill:none;stroke:#000000;stroke-width:0.76567769" />
      <path
         d="M 274.44842,255.10717 L 274.44842,213.76654"
         id="path5957"
         style="font-size:12px;fill:none;stroke:#000000;stroke-width:1.02572083" />
      <path
         d="M 267.07247,255.10717 L 267.07247,213.76654"
         id="path5959"
         style="font-size:12px;fill:none;stroke:#000000;stroke-width:1.28576362" />
      <path
         d="M 260.50017,255.10717 L 260.50017,213.76654"
         id="path5961"
         style="font-size:12px;fill:none;stroke:#000000;stroke-width:1.54580235" />
      <path
         d="M 247.96559,252.8782 L 247.79196,215.2514 M 253.90797,253.37321 L 253.90797,214.01561"
         id="path5963"
         style="font-size:12px;fill:none;stroke:#000000;stroke-width:1.80584526" />
      <path
         d="M 236.39317,251.18629 L 236.39317,216.51954 M 242.25629,252.1762 L 242.08266,215.28375"
         id="path5965"
         style="font-size:12px;fill:none;stroke:#000000;stroke-width:2.05144167" />
      <path
         d="M 220.86759,249.20647 L 220.86759,218.7485 M 225.96171,249.70143 L 225.96171,217.75853 M 231.20974,250.69134 L 231.20974,217.50945"
         id="path5967"
         style="font-size:12px;fill:none;stroke:#000000;stroke-width:2.31148434" />
      <path
         d="M 215.42611,248.95739 L 215.42611,219.49254"
         id="path5969"
         style="font-size:12px;fill:none;stroke:#000000;stroke-width:2.57152724" />
      <path
         d="M 210.3518,247.47246 L 210.3518,219.9875"
         id="path5971"
         style="font-size:12px;fill:none;stroke:#000000;stroke-width:2.8315661" />
      <path
         d="M 204.91041,246.72837 L 204.91041,221.22328"
         id="path5973"
         style="font-size:12px;fill:none;stroke:#000000;stroke-width:3.091609" />
      <path
         d="M 193.76961,244.50267 L 193.59591,224.19635 M 199.47879,245.49265 L 199.47879,222.71142"
         id="path5975"
         style="font-size:12px;fill:none;stroke:#000000;stroke-width:3.33720565" />
      <path
         d="M 188.06031,242.76865 L 188.06031,224.93711"
         id="path5977"
         style="font-size:12px;fill:none;stroke:#000000;stroke-width:3.52501416" />
      <path
         d="M 182.83219,241.32263 L 182.83219,226.47372"
         id="path5979"
         style="font-size:12px;fill:none;stroke:#000000;stroke-width:3.78505349" />
      <path
         d="M 177.12289,239.34281 L 177.12289,227.71278"
         id="path5981"
         style="font-size:12px;fill:none;stroke:#000000;stroke-width:4.03064871" />
      <path
         d="M 171.25489,238.3529 L 171.25489,229.69266"
         id="path5983"
         style="font-size:12px;fill:none;stroke:#000000;stroke-width:4.27626181" />
      <path
         d="M 165.04427,236.37496 L 165.04427,232.16643"
         id="path5985"
         style="font-size:12px;fill:none;stroke:#000000;stroke-width:5.04192257" />
      <path
         d="M 321.12959,252.8782 L 321.12959,215.00558 M 307.77661,254.11725 L 307.95015,214.01561 M 298.04447,254.6122 L 298.04447,213.76654"
         id="path5987"
         style="font-size:12px;fill:none;stroke:#000000;stroke-width:0.26004165" />
      <path
         d="M 377.08597,255.10717 L 377.08597,213.76654"
         id="path5989"
         style="font-size:12px;fill:none;stroke:#000000;stroke-width:0.52008164" />
      <path
         d="M 384.96779,255.10717 L 384.96779,213.76654"
         id="path5991"
         style="font-size:12px;fill:none;stroke:#000000;stroke-width:0.76567769" />
      <path
         d="M 392.40824,255.10717 L 392.40824,213.76654"
         id="path5993"
         style="font-size:12px;fill:none;stroke:#000000;stroke-width:1.02572083" />
      <path
         d="M 399.78419,255.10717 L 399.78419,213.76654"
         id="path5995"
         style="font-size:12px;fill:none;stroke:#000000;stroke-width:1.28576362" />
      <path
         d="M 406.35649,255.10717 L 406.35649,213.76654"
         id="path5997"
         style="font-size:12px;fill:none;stroke:#000000;stroke-width:1.54580235" />
      <path
         d="M 418.89116,252.8782 L 419.06479,215.2514 M 412.94869,253.37321 L 412.94869,214.01561"
         id="path5999"
         style="font-size:12px;fill:none;stroke:#000000;stroke-width:1.80584526" />
      <path
         d="M 430.46349,251.18629 L 430.46349,216.51954 M 424.60046,252.1762 L 424.774,215.28375"
         id="path6001"
         style="font-size:12px;fill:none;stroke:#000000;stroke-width:2.05144167" />
      <path
         d="M 445.98917,249.20647 L 445.98917,218.7485 M 440.89495,249.70143 L 440.89495,217.75853 M 435.64692,250.69134 L 435.64692,217.50945"
         id="path6003"
         style="font-size:12px;fill:none;stroke:#000000;stroke-width:2.31148434" />
      <path
         d="M 451.43064,248.95739 L 451.43064,219.49254"
         id="path6005"
         style="font-size:12px;fill:none;stroke:#000000;stroke-width:2.57152724" />
      <path
         d="M 456.50495,247.47246 L 456.50495,219.9875"
         id="path6007"
         style="font-size:12px;fill:none;stroke:#000000;stroke-width:2.8315661" />
      <path
         d="M 461.94634,246.72837 L 461.94634,221.22328"
         id="path6009"
         style="font-size:12px;fill:none;stroke:#000000;stroke-width:3.091609" />
      <path
         d="M 473.08708,244.50267 L 473.2608,224.19635 M 467.37787,245.49265 L 467.37787,222.71142"
         id="path6011"
         style="font-size:12px;fill:none;stroke:#000000;stroke-width:3.33720565" />
      <path
         d="M 478.79638,242.76865 L 478.79638,224.93711"
         id="path6013"
         style="font-size:12px;fill:none;stroke:#000000;stroke-width:3.52501416" />
      <path
         d="M 484.0245,241.32263 L 484.0245,226.47372"
         id="path6015"
         style="font-size:12px;fill:none;stroke:#000000;stroke-width:3.78505349" />
      <path
         d="M 489.7338,239.34281 L 489.7338,227.71278"
         id="path6017"
         style="font-size:12px;fill:none;stroke:#000000;stroke-width:4.03064871" />
      <path
         d="M 495.6018,238.3529 L 495.6018,229.69266"
         id="path6019"
         style="font-size:12px;fill:none;stroke:#000000;stroke-width:4.27626181" />
      <path
         d="M 501.81237,236.37496 L 501.81237,232.16643"
         id="path6021"
         style="font-size:12px;fill:none;stroke:#000000;stroke-width:5.04192257" />
      <path
         d="M 345.72707,252.8782 L 345.72707,215.00558 M 359.08014,254.11725 L 358.9066,214.01561 M 368.81219,254.6122 L 368.81219,213.76654"
         id="path6023"
         style="font-size:12px;fill:none;stroke:#000000;stroke-width:0.26004165" />
      <path
         d="M 499.90957,239.35258 C 502.09587,234.59738 507.71817,232.51668 512.47347,234.70308 C 517.22427,236.88738 519.30497,242.50978 517.11867,247.26498 C 514.93327,252.01808 509.31107,254.09868 504.56007,251.91438 C 499.80487,249.72798 497.72407,244.10578 499.90957,239.35258 z"
         id="path6025"
         style="fill:#e3e4e5;fill-opacity:1;stroke:#010101;stroke-width:0.99999994;stroke-miterlimit:4;stroke-dasharray:none" />
      <path
         d="M 333.27489,204.25256 C 281.10007,204.77277 228.33128,204.8281 177.09033,215.26397 C 165.65533,218.70972 149.29909,220.62787 145.00668,232.83306 C 143.59846,243.02738 156.51495,247.35454 164.59096,250.15622 C 203.06305,261.18188 243.73226,262.12172 283.59414,263.84535 C 345.60994,265.03302 408.00241,265.49372 469.55841,257.26036 C 486.37518,254.15892 504.89176,252.24412 518.72066,241.7952 C 526.97794,234.07309 517.85508,223.27752 508.72697,221.05658 C 477.41314,209.58544 443.26221,208.3641 410.14322,206.02859 C 384.54699,204.69502 358.90651,204.2695 333.27489,204.25256 z M 333.41894,216.52086 C 467.4364,216.52088 504.95416,234.3905 504.95416,234.3905 C 504.95407,234.39049 473.596,252.26014 333.41894,252.26014 C 192.79591,252.26014 161.91247,234.3905 161.91247,234.3905 C 161.91247,234.39049 198.95579,216.52086 333.41894,216.52086 z"
         id="path6027"
         style="fill:#eac102;fill-rule:evenodd;stroke:#000000;stroke-width:1px;stroke-linecap:butt;stroke-linejoin:miter;stroke-opacity:1" />
      <path
         d="M 483.83497,228.28316 C 483.43387,228.81686 483.03117,228.66399 482.74117,229.29469 C 480.55587,234.04779 482.64207,239.67089 487.39747,241.85719 C 492.14837,244.04149 497.77447,241.95399 499.95997,237.20099 C 500.87267,235.21569 500.88937,234.67821 500.42867,232.70391 C 493.3001,230.53996 487.40078,228.75405 483.83497,228.28316 z"
         id="path6029"
         style="fill:#e3e4e5;fill-opacity:1;stroke:#010101;stroke-width:1;stroke-miterlimit:4;stroke-dasharray:none" />
      <path
         d="M 500.80834,255.10372 C 495.57505,255.03476 491.39216,250.74018 491.4611,245.50689 C 491.52997,240.27828 495.82454,236.09546 501.05784,236.16441 C 506.28885,236.23325 510.47163,240.52783 510.40276,245.75644 C 510.33382,250.98973 506.03936,255.17267 500.80834,255.10372 z"
         id="path6031"
         style="fill:#e3e4e5;fill-opacity:1;stroke:#010101;stroke-width:1.00000012;stroke-miterlimit:4;stroke-dasharray:none" />
      <path
         d="M 537.38787,188.47558 C 532.15457,188.40658 527.97167,184.11198 528.04057,178.87878 C 528.10947,173.65008 532.40407,169.46728 537.63737,169.53628 C 542.86837,169.60508 547.05107,173.89968 546.98227,179.12828 C 546.91327,184.36158 542.61887,188.54448 537.38787,188.47558 z"
         id="path6033"
         style="fill:#e3e4e5;fill-opacity:1;stroke:#010101;stroke-width:1.00000012;stroke-miterlimit:4;stroke-dasharray:none" />
      <path
         d="M 551.42839,158.40009 C 551.42839,170.7982 541.37575,180.848 528.97117,180.848 C 516.56429,180.848 506.50933,170.8006 506.50933,158.40009 C 506.50933,146.00437 516.56198,135.95468 528.97117,135.95468 C 541.37575,135.95468 551.42839,146.00208 551.42839,158.40009 z"
         id="path6035"
         style="fill:#e3e4e5;fill-opacity:1;stroke:#010101;stroke-width:1.00000012;stroke-miterlimit:4;stroke-dasharray:none" />
      <path
         d="M 158.34779,160.39991 C 158.34779,172.79803 148.29054,182.84783 135.88596,182.84783 C 123.48369,182.84783 113.42873,172.80031 113.42873,160.39991 C 113.42873,148.00419 123.48139,137.9544 135.88596,137.9544 C 148.29054,137.9544 158.34779,148.00191 158.34779,160.39991 z"
         id="path6037"
         style="fill:#e3e4e5;fill-opacity:1;stroke:#010101;stroke-width:1.00000012;stroke-miterlimit:4;stroke-dasharray:none" />
      <path
         d="M 283.05995,141.47733 C 283.05995,153.87556 273.005,163.92525 260.60273,163.92525 C 248.20046,163.92525 238.14089,153.87785 238.14089,141.47733 C 238.14089,129.08161 248.19815,119.03193 260.60273,119.03193 C 273.005,119.03193 283.05995,129.08161 283.05995,141.47733 z"
         id="path6039"
         style="fill:#e3e4e5;fill-opacity:1;stroke:#010101;stroke-width:1.00000012;stroke-miterlimit:4;stroke-dasharray:none" />
      <path
         d="M 428.71625,141.47756 C 428.71625,153.87339 418.6636,163.92548 406.25902,163.92548 C 393.85674,163.92548 383.8018,153.87579 383.8018,141.47756 C 383.8018,129.07956 393.85674,119.02987 406.25902,119.02987 C 418.6636,119.03216 428.71625,129.08184 428.71625,141.47756 z"
         id="path6041"
         style="fill:#e3e4e5;fill-opacity:1;stroke:#010101;stroke-width:1.00000012;stroke-miterlimit:4;stroke-dasharray:none" />
      <path
         d="M 290.79505,151.91055 C 290.79505,157.1443 286.55598,161.3834 281.32217,161.3834 C 276.09317,161.3834 271.85409,157.1443 271.85409,151.91055 C 271.85409,146.67909 276.09317,142.4401 281.32217,142.4401 C 286.55598,142.4401 290.79505,146.67909 290.79505,151.91055 z"
         id="path6043"
         style="fill:#e3e4e5;fill-opacity:1;stroke:#010101;stroke-width:0.99999994;stroke-miterlimit:4;stroke-dasharray:none" />
      <path
         d="M 315.36794,168.24232 C 315.36794,173.47606 311.12886,177.71516 305.89506,177.71516 C 300.66606,177.71516 296.42698,173.47606 296.42698,168.24232 C 296.42698,163.01085 300.66606,158.77186 305.89506,158.77186 C 311.12886,158.77186 315.36794,163.01085 315.36794,168.24232 z"
         id="path6045"
         style="fill:#e3e4e5;fill-opacity:1;stroke:#010101;stroke-width:0.99999994;stroke-miterlimit:4;stroke-dasharray:none" />
      <path
         d="M 323.78388,180.72457 C 323.78388,185.95832 319.5448,190.19742 314.311,190.19742 C 309.082,190.19742 304.84292,185.95832 304.84292,180.72457 C 304.84292,175.4931 309.082,171.25412 314.311,171.25412 C 319.5448,171.25412 323.78388,175.4931 323.78388,180.72457 z"
         id="path6047"
         style="fill:#e3e4e5;fill-opacity:1;stroke:#010101;stroke-width:0.99999994;stroke-miterlimit:4;stroke-dasharray:none" />
      <path
         d="M 330.02501,194.99006 C 330.02501,200.22381 325.78593,204.46291 320.55212,204.46291 C 315.32312,204.46291 311.08405,200.22381 311.08405,194.99006 C 311.08405,189.7586 315.32312,185.51961 320.55212,185.51961 C 325.78593,185.51961 330.02501,189.7586 330.02501,194.99006 z"
         id="path6049"
         style="fill:#e3e4e5;fill-opacity:1;stroke:#010101;stroke-width:0.99999994;stroke-miterlimit:4;stroke-dasharray:none" />
      <path
         d="M 169.09937,167.07768 C 170.28247,172.17598 167.11127,177.26348 162.01297,178.44658 C 156.91927,179.62858 151.83167,176.45748 150.64867,171.35908 C 149.46617,166.26308 152.63727,161.17558 157.73097,159.99358 C 162.82927,158.81048 167.91687,161.98158 169.09937,167.07768 z"
         id="path6051"
         style="fill:#e3e4e5;fill-opacity:1;stroke:#010101;stroke-width:0.99999994;stroke-miterlimit:4;stroke-dasharray:none" />
      <path
         d="M 183.73937,171.00278 C 184.92247,176.10108 181.75127,181.18868 176.65297,182.37168 C 171.55927,183.55368 166.47167,180.38248 165.28867,175.28428 C 164.10617,170.18818 167.27727,165.10068 172.37097,163.91868 C 177.46927,162.73568 182.55687,165.90668 183.73937,171.00278 z"
         id="path6053"
         style="fill:#e3e4e5;fill-opacity:1;stroke:#010101;stroke-width:0.99999994;stroke-miterlimit:4;stroke-dasharray:none" />
      <path
         d="M 197.17997,179.38038 C 198.36307,184.47878 195.19197,189.56628 190.09357,190.74938 C 184.99987,191.93138 179.91237,188.76028 178.72927,183.66188 C 177.54677,178.56578 180.71797,173.47838 185.81157,172.29638 C 190.90997,171.11328 195.99747,174.28438 197.17997,179.38038 z"
         id="path6055"
         style="fill:#e3e4e5;fill-opacity:1;stroke:#010101;stroke-width:0.99999994;stroke-miterlimit:4;stroke-dasharray:none" />
      <path
         d="M 209.09127,189.63728 C 210.27427,194.73558 207.10317,199.82318 202.00477,201.00618 C 196.91117,202.18818 191.82357,199.01698 190.64047,193.91878 C 189.45797,188.82268 192.62917,183.73518 197.72277,182.55318 C 202.82117,181.37018 207.90867,184.54118 209.09127,189.63728 z"
         id="path6057"
         style="fill:#e3e4e5;fill-opacity:1;stroke:#010101;stroke-width:0.99999994;stroke-miterlimit:4;stroke-dasharray:none" />
      <path
         d="M 218.61227,201.01428 C 219.79527,206.11268 216.62417,211.20018 211.52577,212.38328 C 206.43217,213.56528 201.34457,210.39408 200.16147,205.29578 C 198.97897,200.19968 202.15017,195.11228 207.24377,193.93028 C 212.34217,192.74718 217.42967,195.91828 218.61227,201.01428 z"
         id="path6059"
         style="fill:#e3e4e5;fill-opacity:1;stroke:#010101;stroke-width:0.99999994;stroke-miterlimit:4;stroke-dasharray:none" />
      <path
         d="M 434.235,154.36788 C 433.06813,159.4699 427.99065,162.65719 422.88858,161.49031 C 417.79119,160.3245 414.60392,155.247 415.77079,150.14498 C 416.93715,145.04519 422.01461,141.85801 427.112,143.02382 C 432.21407,144.1907 435.40136,149.26809 434.235,154.36788 z"
         id="path6061"
         style="fill:#e3e4e5;fill-opacity:1;stroke:#010101;stroke-width:1;stroke-miterlimit:4;stroke-dasharray:none" />
      <path
         d="M 445.68198,162.3028 C 444.51511,167.40482 439.43762,170.59212 434.33555,169.42523 C 429.23817,168.25943 426.0509,163.18192 427.21777,158.07991 C 428.38413,152.98012 433.46159,149.79293 438.55897,150.95874 C 443.66104,152.12562 446.84834,157.20302 445.68198,162.3028 z"
         id="path6063"
         style="fill:#e3e4e5;fill-opacity:1;stroke:#010101;stroke-width:1;stroke-miterlimit:4;stroke-dasharray:none" />
      <path
         d="M 454.10231,175.71677 C 452.93544,180.81878 447.85795,184.00608 442.75588,182.8392 C 437.6585,181.67339 434.47123,176.59589 435.6381,171.49387 C 436.80445,166.39408 441.88192,163.2069 446.9793,164.37271 C 452.08137,165.53959 455.26867,170.61698 454.10231,175.71677 z"
         id="path6065"
         style="fill:#e3e4e5;fill-opacity:1;stroke:#010101;stroke-width:1;stroke-miterlimit:4;stroke-dasharray:none" />
      <path
         d="M 459.52349,189.76118 C 458.35662,194.86319 453.27913,198.05049 448.17706,196.88361 C 443.07968,195.7178 439.89241,190.6403 441.05928,185.53828 C 442.22564,180.43849 447.3031,177.25131 452.40048,178.41712 C 457.50255,179.584 460.68985,184.66139 459.52349,189.76118 z"
         id="path6067"
         style="fill:#e3e4e5;fill-opacity:1;stroke:#010101;stroke-width:1;stroke-miterlimit:4;stroke-dasharray:none" />
      <path
         d="M 462.42702,205.05907 C 461.26016,210.16109 456.18267,213.34838 451.0806,212.1815 C 445.98321,211.01569 442.79594,205.93819 443.96281,200.83617 C 445.12917,195.73639 450.20663,192.5492 455.30402,193.71501 C 460.40609,194.88189 463.59338,199.95928 462.42702,205.05907 z"
         id="path6069"
         style="fill:#e3e4e5;fill-opacity:1;stroke:#010101;stroke-width:1;stroke-miterlimit:4;stroke-dasharray:none" />
      <path
         d="M 463.39352,220.82842 C 462.22665,225.93043 457.14916,229.11773 452.04709,227.95085 C 446.9497,226.78504 443.76244,221.70753 444.9293,216.60552 C 446.09566,211.50573 451.17313,208.31855 456.27051,209.48435 C 461.37258,210.65124 464.55987,215.72863 463.39352,220.82842 z"
         id="path6071"
         style="fill:#e3e4e5;fill-opacity:1;stroke:#010101;stroke-width:1;stroke-miterlimit:4;stroke-dasharray:none" />
      <path
         d="M 394.29157,257.82898 C 393.84197,252.61458 397.70117,248.02698 402.91567,247.57738 C 408.12527,247.12818 412.71287,250.98748 413.16247,256.20188 C 413.61187,261.41398 409.75267,266.00148 404.54297,266.45068 C 399.32857,266.90028 394.74097,263.04118 394.29157,257.82898 z"
         id="path6073"
         style="fill:#e3e4e5;fill-opacity:1;stroke:#010101;stroke-width:1;stroke-miterlimit:4;stroke-dasharray:none" />
      <path
         d="M 382.35437,249.87158 C 381.90477,244.65718 385.76397,240.06958 390.97847,239.61998 C 396.18817,239.17068 400.77567,243.02998 401.22537,248.24438 C 401.67477,253.45648 397.81547,258.04398 392.60587,258.49318 C 387.39137,258.94288 382.80377,255.08368 382.35437,249.87158 z"
         id="path6075"
         style="fill:#e3e4e5;fill-opacity:1;stroke:#010101;stroke-width:1;stroke-miterlimit:4;stroke-dasharray:none" />
      <path
         d="M 370.23467,239.67608 C 369.78507,234.46168 373.64427,229.87408 378.85877,229.42438 C 384.06837,228.97518 388.65597,232.83448 389.10557,238.04888 C 389.55507,243.26098 385.69577,247.84848 380.48607,248.29768 C 375.27167,248.74728 370.68407,244.88818 370.23467,239.67608 z"
         id="path6077"
         style="fill:#e3e4e5;fill-opacity:1;stroke:#010101;stroke-width:1;stroke-miterlimit:4;stroke-dasharray:none" />
      <path
         d="M 360.77747,227.96288 C 360.32787,222.74848 364.18717,218.16088 369.40157,217.71128 C 374.61127,217.26208 379.19887,221.12138 379.64847,226.33578 C 380.09787,231.54788 376.23867,236.13538 371.02897,236.58458 C 365.81447,237.03418 361.22697,233.17508 360.77747,227.96288 z"
         id="path6079"
         style="fill:#e3e4e5;fill-opacity:1;stroke:#010101;stroke-width:1;stroke-miterlimit:4;stroke-dasharray:none" />
      <path
         d="M 351.94493,217.05076 C 353.53583,220.88297 357.37673,223.41655 361.69762,222.88308 C 365.1926,222.45159 367.87414,220.10595 369.14494,217.0737 C 363.55685,217.00293 357.82492,216.99359 351.94493,217.05076 z"
         id="path6081"
         style="fill:#e3e4e5;fill-opacity:1;stroke:#010101;stroke-width:1;stroke-miterlimit:4;stroke-dasharray:none" />
      <path
         d="M 196.49117,225.82165 C 195.08887,227.63535 194.27857,229.91825 194.49117,232.38415 C 194.94057,237.59625 199.52667,241.45855 204.74117,241.00915 C 209.95087,240.55995 213.81567,235.97115 213.36617,230.75915 C 213.10297,227.70685 211.32327,225.25835 208.92867,223.72785 C 204.76073,224.293 200.62733,225.06499 196.49117,225.82165 z"
         id="path6083"
         style="fill:#e3e4e5;fill-opacity:1;stroke:#010101;stroke-width:1;stroke-miterlimit:4;stroke-dasharray:none" />
      <path
         d="M 224.59777,215.66288 C 225.78077,220.76118 222.60967,225.84878 217.51127,227.03178 C 212.41767,228.21378 207.33007,225.04258 206.14707,219.94438 C 204.96447,214.84828 208.13567,209.76078 213.22937,208.57878 C 218.32767,207.39578 223.41517,210.56688 224.59777,215.66288 z"
         id="path6085"
         style="fill:#e3e4e5;fill-opacity:1;stroke:#010101;stroke-width:0.99999994;stroke-miterlimit:4;stroke-dasharray:none" />
      <path
         d="M 311.65387,259.26618 C 311.20427,254.05178 315.06347,249.46418 320.27797,249.01458 C 325.48757,248.56538 330.07517,252.42468 330.52477,257.63908 C 330.97417,262.85118 327.11497,267.43868 321.90527,267.88788 C 316.69087,268.33748 312.10327,264.47838 311.65387,259.26618 z"
         id="path6087"
         style="fill:#e3e4e5;fill-opacity:1;stroke:#010101;stroke-width:1;stroke-miterlimit:4;stroke-dasharray:none" />
      <path
         d="M 299.71667,251.30878 C 299.26707,246.09438 303.12627,241.50678 308.34077,241.05718 C 313.55047,240.60788 318.13797,244.46718 318.58767,249.68158 C 319.03707,254.89368 315.17777,259.48118 309.96817,259.93038 C 304.75367,260.38008 300.16607,256.52088 299.71667,251.30878 z"
         id="path6089"
         style="fill:#e3e4e5;fill-opacity:1;stroke:#010101;stroke-width:1;stroke-miterlimit:4;stroke-dasharray:none" />
      <path
         d="M 287.59697,241.11328 C 287.14737,235.89888 291.00657,231.31128 296.22107,230.86158 C 301.43067,230.41238 306.01827,234.27168 306.46787,239.48608 C 306.91737,244.69818 303.05807,249.28568 297.84837,249.73488 C 292.63397,250.18448 288.04637,246.32538 287.59697,241.11328 z"
         id="path6091"
         style="fill:#e3e4e5;fill-opacity:1;stroke:#010101;stroke-width:1;stroke-miterlimit:4;stroke-dasharray:none" />
      <path
         d="M 278.13977,229.40008 C 277.69017,224.18568 281.54947,219.59808 286.76387,219.14848 C 291.97357,218.69928 296.56117,222.55858 297.01077,227.77298 C 297.46017,232.98508 293.60097,237.57258 288.39127,238.02178 C 283.17677,238.47138 278.58927,234.61228 278.13977,229.40008 z"
         id="path6093"
         style="fill:#e3e4e5;fill-opacity:1;stroke:#010101;stroke-width:1;stroke-miterlimit:4;stroke-dasharray:none" />
      <path
         d="M 271.26218,218.1179 C 272.86348,221.6936 276.83417,224.71289 280.95997,224.35719 C 284.96487,224.01189 288.12097,220.8938 289.17867,217.2532 C 283.30908,217.57718 277.49898,217.55301 271.26218,218.1179 z"
         id="path6095"
         style="fill:#e3e4e5;fill-opacity:1;stroke:#010101;stroke-width:1;stroke-miterlimit:4;stroke-dasharray:none" />
      <path
         d="M 202.61157,244.84148 C 202.16197,239.62708 206.02117,235.03948 211.23567,234.58988 C 216.44537,234.14058 221.03287,237.99988 221.48257,243.21428 C 221.93197,248.42638 218.07267,253.01388 212.86307,253.46308 C 207.64857,253.91278 203.06097,250.05358 202.61157,244.84148 z"
         id="path6097"
         style="fill:#e3e4e5;fill-opacity:1;stroke:#010101;stroke-width:1;stroke-miterlimit:4;stroke-dasharray:none" />
      <path
         d="M 214.54877,256.79888 C 214.09917,251.58448 217.95837,246.99688 223.17287,246.54728 C 228.38247,246.09808 232.97007,249.95738 233.41967,255.17178 C 233.86907,260.38388 230.00987,264.97138 224.80017,265.42058 C 219.58577,265.87018 214.99817,262.01108 214.54877,256.79888 z"
         id="path6099"
         style="fill:#e3e4e5;fill-opacity:1;stroke:#010101;stroke-width:1;stroke-miterlimit:4;stroke-dasharray:none" />
      <g
         transform="matrix(0.3926312,0,0,0.3724982,-829.82983,-96.23348)"
         id="g6101">
        <g
           transform="matrix(-0.748008,0.507597,0.4813713,0.8831979,3520.4688,-1419.3176)"
           id="g6103" />
      </g>
      <g
         transform="matrix(-0.3926312,0,0,0.3724982,1494.6871,-96.23348)"
         id="g6105">
        <g
           transform="matrix(-0.748008,0.507597,0.4813713,0.8831979,3520.4688,-1419.3176)"
           id="g6107" />
      </g>
      <path
         d="M 315.81095,217.09819 C 329.39057,216.35197 335.4429,215.88963 350.59967,217.11643 L 349.41528,860.43638 L 316.77567,862.80355 L 315.81095,217.09819 z"
         id="path6109"
         style="fill:#eac102;fill-opacity:1;fill-rule:nonzero;stroke:#000000;stroke-width:1;stroke-miterlimit:4;stroke-dasharray:none;stroke-opacity:1;display:inline" />
      <path
         d="M 334.48296,210.14701 C 334.48296,215.38076 330.24388,219.61986 325.01007,219.61986 C 319.78107,219.61986 315.542,215.38076 315.542,210.14701 C 315.542,204.91554 319.78107,200.67656 325.01007,200.67656 C 330.24388,200.67656 334.48296,204.91554 334.48296,210.14701 z"
         id="path6111"
         style="fill:#e3e4e5;fill-opacity:1;stroke:#010101;stroke-width:0.99999994;stroke-miterlimit:4;stroke-dasharray:none" />
      <path
         d="M 304.1689,157.0433 C 304.1689,162.27705 299.92983,166.51615 294.69602,166.51615 C 289.46702,166.51615 285.22794,162.27705 285.22794,157.0433 C 285.22794,151.81184 289.46702,147.57285 294.69602,147.57285 C 299.92983,147.57285 304.1689,151.81184 304.1689,157.0433 z"
         id="path6113"
         style="fill:#e3e4e5;fill-opacity:1;stroke:#010101;stroke-width:0.99999994;stroke-miterlimit:4;stroke-dasharray:none" />
    </g>
    <path
       d="M -29.126418,651.64588 C -28.878038,651.64588 -28.629618,651.64588 -29.126418,651.64588 z"
       id="path6115"
       style="fill:#feed01;fill-opacity:1;fill-rule:evenodd;stroke:#000000;stroke-width:1.5;stroke-linecap:butt;stroke-linejoin:miter;marker:none;marker-start:none;marker-mid:none;marker-end:none;stroke-miterlimit:4;stroke-dasharray:none;stroke-dashoffset:0;stroke-opacity:1;visibility:visible;display:inline;overflow:visible;enable-background:accumulate" />
    <g
       transform="translate(-623.6514,-345.41878)"
       id="g4412">
      <path
         d="M 523.76977,1354.3105 C 537.34939,1354.2321 551.40172,1354.1836 566.55849,1354.3124 L 559.3741,1423.3375 L 530.73449,1423.376 L 523.76977,1354.3105 z"
         id="path4488"
         style="fill:#eac102;fill-opacity:1;fill-rule:nonzero;stroke:#000000;stroke-width:1;stroke-miterlimit:4;stroke-dasharray:none;stroke-opacity:1;display:inline" />
      <path
         d="M 528.18109,1416.7946 C 523.33681,1423.3246 525.98279,1410.5504 508.75381,1416.7946 C 538.84958,1430.0794 544.67008,1486.5586 544.79635,1487.1027 C 544.9658,1486.5317 552.31853,1434.1126 581.57446,1416.7946 C 564.38706,1413.1795 567.17886,1422.5884 562.38654,1416.7946 C 561.70415,1402.875 548.23793,1393.7811 543.96225,1394.1077 C 539.68657,1394.4344 528.23296,1404.4948 528.18109,1416.7946 z"
         id="path3573"
         style="fill:#eac102;fill-opacity:1;fill-rule:evenodd;stroke:#000000;stroke-width:1;stroke-linecap:butt;stroke-linejoin:miter;stroke-miterlimit:4;stroke-dasharray:none;stroke-opacity:1" />
      <path
         d="M 588.78841,1310.5671 C 587.91249,1326.1249 580.62693,1365.5871 543.8225,1365.8395 C 507.63763,1366.0877 500.78416,1325.9341 501.53022,1311.1656 C 502.3173,1295.5852 510.367,1295.7512 546.49612,1295.5034 C 580.61762,1295.2694 589.71002,1294.1977 588.78841,1310.5671 z"
         id="path3575"
         style="fill:#eac102;fill-opacity:1;fill-rule:nonzero;stroke:#000000;stroke-width:1;stroke-miterlimit:4;stroke-dasharray:none;stroke-opacity:1" />
      <path
         d="M 596.57373,1314.5115 C 596.29075,1324.2346 572.70617,1324.2726 544.32751,1324.4672 C 515.94888,1324.6619 493.5846,1324.4463 493.75255,1315.2167 C 493.92973,1305.4798 517.62012,1305.4556 545.99876,1305.261 C 574.37741,1305.0663 596.87148,1304.2811 596.57373,1314.5115 z"
         id="path3577"
         style="fill:#eac102;fill-opacity:1;fill-rule:nonzero;stroke:#000000;stroke-width:1;stroke-miterlimit:4;stroke-dasharray:none;stroke-opacity:1" />
    </g>
    <rect
       width="59.702602"
       height="5.1909051"
       x="-107.30969"
       y="172.67159"
       id="rect3382"
       style="fill:#eac102;fill-opacity:1;fill-rule:nonzero;stroke:#000000;stroke-width:1;stroke-linecap:square;stroke-linejoin:round;stroke-miterlimit:4;stroke-dasharray:none;stroke-dashoffset:0;stroke-opacity:1" />
  </g>
  <g
     transform="translate(26.000167,148.04971)"
     id="layer5"
     style="display:inline">
    <g
       transform="translate(-492.32361,16.91623)"
       id="g3784"
       style="display:inline" />
    <path
       d=""
       id="path1887"
       style="opacity:0.63999999;fill:#009900;fill-opacity:1" />
    <path
       d=""
       id="path1883"
       style="opacity:0.63999999;fill:#009900;fill-opacity:1" />
    <path
       d=""
       id="path1881"
       style="opacity:0.63999999;fill:#009900;fill-opacity:1" />
    <g
       transform="translate(-435.89488,-59.72412)"
       id="g3789" />
    <g
       transform="translate(-435.89488,-59.72412)"
       id="g3791" />
    <g
       transform="translate(-435.89488,-59.72412)"
       id="g3793" />
    <g
       transform="translate(-1117.1118,-93.68079)"
       id="g4574"
       style="display:inline" />
    <g
       transform="translate(-929.21173,-283.25311)"
       id="g4631"
       style="display:inline" />
    <g
       transform="translate(-872.78301,-359.89346)"
       id="g4681" />
    <g
       transform="translate(-872.78301,-359.89346)"
       id="g4683" />
    <g
       transform="translate(-872.78301,-359.89346)"
       id="g4685" />
  </g>
  <g
     transform="translate(26.000167,148.04971)"
     id="layer6" />
  <g
     transform="translate(26.000167,148.04971)"
     id="layer2"
     style="display:inline">
    <rect
       width="423.55695"
       height="423.55695"
       x="-452.5488"
       y="417.90033"
       transform="matrix(0.7071068,-0.7071068,0.7071068,0.7071068,0,0)"
       id="rect12296"
       style="fill:#008f4c;fill-opacity:1;fill-rule:evenodd;stroke:#000000;stroke-width:3;stroke-linecap:butt;stroke-linejoin:miter;marker:none;marker-start:none;marker-mid:none;marker-end:none;stroke-miterlimit:4;stroke-dasharray:none;stroke-dashoffset:0;stroke-opacity:1;visibility:visible;display:inline;overflow:visible;enable-background:accumulate" />
  </g>
  <g
     transform="matrix(0.9686386,0,0,0.9686386,34.624548,167.35316)"
     id="g5840">
    <g
       transform="matrix(0.3701262,0.3701262,-0.3701262,0.3701262,328.68595,317.71551)"
       id="g3540"
       style="fill:#eac102;fill-opacity:1;stroke:#000000;stroke-width:1.97230208;stroke-miterlimit:4;stroke-dasharray:none;stroke-opacity:1">
      <path
         d="M 329.90625,111.59375 C 292.30843,111.59375 261.78124,164.32428 261.78125,215.65625 C 261.78125,254.93369 283.97586,283.43467 309.21002,294.00726 C 318.12632,299.21754 318.43104,302.88976 318.03052,310.38087 C 325.94363,378.22307 308.48913,648.67004 300.03125,826.46875 C 318.63188,850.18751 338.54295,850.09989 359.75,826.46875 C 345.654,648.46211 334.80675,370.35488 343.28925,311.18719 C 344.81888,303.39779 343.6419,300.5042 352.90625,294.625 C 378.14041,284.05241 398.00001,254.93369 398,215.65625 C 398,164.32427 367.50407,111.59375 329.90625,111.59375 z"
         id="path2386"
         style="fill:#eac102;fill-opacity:1;stroke:#000000;stroke-width:1.97230208;stroke-linecap:butt;stroke-linejoin:round;stroke-miterlimit:4;stroke-dasharray:none;stroke-dashoffset:0.85049999;stroke-opacity:1" />
      <path
         d="M 386.12289,213.21503 C 386.12289,257.47562 360.93498,283.83551 329.89987,283.83551 C 298.86476,283.83551 273.67685,257.47562 273.67685,213.21503 C 273.67685,168.95444 298.86476,123.47105 329.89987,123.47105 C 360.93498,123.47105 386.12289,168.95444 386.12289,213.21503 z"
         id="path2383"
         style="fill:#eac102;fill-opacity:1;stroke:#000000;stroke-width:1.97230208;stroke-linecap:butt;stroke-linejoin:round;stroke-miterlimit:4;stroke-dasharray:none;stroke-dashoffset:0.85049999;stroke-opacity:1" />
    </g>
    <g
       transform="matrix(0.3701262,-0.3701262,0.3701262,0.3701262,-22.784654,561.81387)"
       id="g3544"
       style="fill:#eac102;fill-opacity:1;stroke:#000000;stroke-width:1.97230208;stroke-miterlimit:4;stroke-dasharray:none;stroke-opacity:1;display:inline">
      <path
         d="M 329.90625,111.59375 C 292.30843,111.59375 261.78124,164.32428 261.78125,215.65625 C 261.78125,254.93369 283.97586,283.43467 309.21002,294.00726 C 318.12632,299.21754 318.43104,302.88976 318.03052,310.38087 C 325.94363,378.22307 308.48913,648.67004 300.03125,826.46875 C 318.63188,850.18751 338.54295,850.09989 359.75,826.46875 C 345.654,648.46211 334.80675,370.35488 343.28925,311.18719 C 344.81888,303.39779 343.6419,300.5042 352.90625,294.625 C 378.14041,284.05241 398.00001,254.93369 398,215.65625 C 398,164.32427 367.50407,111.59375 329.90625,111.59375 z"
         id="path3546"
         style="fill:#eac102;fill-opacity:1;stroke:#000000;stroke-width:1.97230208;stroke-linecap:butt;stroke-linejoin:round;stroke-miterlimit:4;stroke-dasharray:none;stroke-dashoffset:0.85049999;stroke-opacity:1" />
      <path
         d="M 386.12289,213.21503 C 386.12289,257.47562 360.93498,283.83551 329.89987,283.83551 C 298.86476,283.83551 273.67685,257.47562 273.67685,213.21503 C 273.67685,168.95444 298.86476,123.47105 329.89987,123.47105 C 360.93498,123.47105 386.12289,168.95444 386.12289,213.21503 z"
         id="path3548"
         style="fill:#eac102;fill-opacity:1;stroke:#000000;stroke-width:1.97230208;stroke-linecap:butt;stroke-linejoin:round;stroke-miterlimit:4;stroke-dasharray:none;stroke-dashoffset:0.85049999;stroke-opacity:1" />
    </g>
  </g>
</svg>
