<?xml version="1.0" encoding="UTF-8" standalone="no"?>
<!-- Created with Inkscape (http://www.inkscape.org/) -->

<svg
   xmlns:dc="http://purl.org/dc/elements/1.1/"
   xmlns:cc="http://creativecommons.org/ns#"
   xmlns:rdf="http://www.w3.org/1999/02/22-rdf-syntax-ns#"
   xmlns:svg="http://www.w3.org/2000/svg"
   xmlns="http://www.w3.org/2000/svg"
   xmlns:sodipodi="http://sodipodi.sourceforge.net/DTD/sodipodi-0.dtd"
   xmlns:inkscape="http://www.inkscape.org/namespaces/inkscape"
   version="1.0"
   width="602"
   height="602.00006"
   id="svg2"
   inkscape:version="0.48.0 r9654"
   sodipodi:docname="La Vilella Baixa.svg">
  <metadata
     id="metadata18">
    <rdf:RDF>
      <cc:Work
         rdf:about="">
        <dc:format>image/svg+xml</dc:format>
        <dc:type
           rdf:resource="http://purl.org/dc/dcmitype/StillImage" />
      </cc:Work>
    </rdf:RDF>
  </metadata>
  <sodipodi:namedview
     pagecolor="#ffffff"
     bordercolor="#666666"
     borderopacity="1"
     objecttolerance="10"
     gridtolerance="10"
     guidetolerance="10"
     inkscape:pageopacity="0"
     inkscape:pageshadow="2"
     inkscape:window-width="1280"
     inkscape:window-height="954"
     id="namedview16"
     showgrid="false"
     inkscape:zoom="1.1963253"
     inkscape:cx="301"
     inkscape:cy="301.00003"
     inkscape:window-x="-4"
     inkscape:window-y="-4"
     inkscape:window-maximized="1"
     inkscape:current-layer="svg2" />
  <defs
     id="defs4" />
  <g
     transform="translate(-99.45084,-437.40444)"
     id="layer1">
    <g
       transform="translate(-583.21694,0)"
       id="g5299" />
    <g
       transform="translate(-1717.5943,169.07464)"
       id="g9393" />
    <path
       d="M 400.45084,438.90444 L 366.29459,473.06069 L 366.29459,1003.7482 L 400.45084,1037.9045 L 434.60709,1003.7482 L 434.60709,473.06069 L 400.45084,438.90444 z M 300.88834,538.46694 L 232.54459,606.8107 L 232.54459,869.9982 L 300.88834,938.34195 L 300.88834,538.46694 z M 500.01334,538.46694 L 500.01334,938.34195 L 568.35709,869.9982 L 568.35709,606.8107 L 500.01334,538.46694 z M 167.16959,672.1857 L 100.95084,738.40445 L 167.16959,804.6232 L 167.16959,672.1857 z M 633.73209,672.1857 L 633.73209,804.6232 L 699.95084,738.40445 L 633.73209,672.1857 z"
       id="path4792"
       style="fill:#ffdc14;fill-opacity:1;fill-rule:evenodd;stroke:none;stroke-width:0.99999994000000003;stroke-linecap:butt;stroke-linejoin:miter;marker:none;marker-start:none;marker-mid:none;marker-end:none;stroke-miterlimit:4;stroke-dasharray:none;stroke-dashoffset:0;stroke-opacity:1;visibility:visible;display:inline;overflow:visible;enable-background:accumulate" />
    <path
       d="M 366.29459,473.0607 L 300.88834,538.46695 L 300.88834,938.34196 L 366.29459,1003.7482 L 366.29459,473.0607 z M 434.60709,473.0607 L 434.60709,1003.7482 L 500.01334,938.34196 L 500.01334,538.46695 L 434.60709,473.0607 z M 232.54459,606.81071 L 167.16959,672.18571 L 167.16959,804.62321 L 232.54459,869.99821 L 232.54459,606.81071 z M 568.35709,606.81071 L 568.35709,869.99821 L 633.73209,804.62321 L 633.73209,672.18571 L 568.35709,606.81071 z"
       id="path4790"
       style="fill:#ff1e00;fill-opacity:1;fill-rule:evenodd;stroke:#000000;stroke-width:0.99999994000000003;stroke-linecap:butt;stroke-linejoin:miter;marker:none;marker-start:none;marker-mid:none;marker-end:none;stroke-miterlimit:4;stroke-dasharray:none;stroke-dashoffset:0;stroke-opacity:1;visibility:visible;display:inline;overflow:visible;enable-background:accumulate" />
    <path
       d="M 400.45084,438.90444 L 366.29459,473.06069 L 300.88834,538.46694 L 232.54459,606.8107 L 167.16959,672.1857 L 100.95084,738.40445 L 167.16959,804.6232 L 232.54459,869.99825 L 300.88834,938.34195 L 366.29459,1003.7482 L 400.45084,1037.9045 L 434.60709,1003.7482 L 500.01334,938.34195 L 568.35709,869.99825 L 633.73209,804.6232 L 699.95084,738.40445 L 633.73209,672.1857 L 568.35709,606.8107 L 500.01334,538.46694 L 434.60709,473.06069 L 400.45084,438.90444 z"
       id="path12876"
       style="fill:none;fill-opacity:1;fill-rule:evenodd;stroke:#000000;stroke-width:3;stroke-linecap:butt;stroke-linejoin:miter;marker:none;marker-start:none;marker-mid:none;marker-end:none;stroke-miterlimit:4;stroke-dasharray:none;stroke-dashoffset:0;stroke-opacity:1;visibility:visible;display:inline;overflow:visible;enable-background:accumulate" />
    <g
       transform="matrix(0.6323481,0,0,0.6323481,688.00117,539.81953)"
       id="g2861"
       style="stroke:#000000;stroke-width:1.58140743;stroke-miterlimit:4;stroke-dasharray:none;stroke-opacity:1">
      <path
         d="M -478.70299,62.465541 L -478.70299,240.34054 C -482.5701,241.59913 -486.31664,243.17281 -489.89049,244.99679 L -615.67174,119.21554 L -649.57799,153.09054 L -523.76549,278.90304 C -525.59539,282.48762 -527.16074,286.21094 -528.42174,290.09054 L -706.32799,290.09054 L -706.32799,337.99679 L -528.42174,337.99679 C -527.15784,341.88531 -525.60085,345.62346 -523.76549,349.21554 L -649.57799,474.99679 L -615.67174,508.87179 L -489.89049,383.09054 C -486.31664,384.91452 -482.5701,386.4882 -478.70299,387.74679 L -478.70299,565.62183 L -430.76549,565.62183 L -430.76549,387.74679 C -426.89838,386.4882 -423.15184,384.91452 -419.57799,383.09054 L -293.76549,508.87179 L -259.89049,474.99679 L -385.70299,349.21554 C -383.86763,345.62346 -382.31064,341.88531 -381.04674,337.99679 L -203.14049,337.99679 L -203.14049,290.09054 L -381.04674,290.09054 C -382.30774,286.21094 -383.87309,282.48762 -385.70299,278.90304 L -259.89049,153.09054 L -293.76549,119.21554 L -419.57799,244.99679 C -423.15184,243.17281 -426.89838,241.59913 -430.76549,240.34054 L -430.76549,62.465541 L -478.70299,62.465541 z"
         id="rect2844"
         style="opacity:1;fill:#ff1e00;fill-opacity:1;fill-rule:nonzero;stroke:#000000;stroke-width:1.58140743000000010;stroke-linecap:butt;stroke-linejoin:miter;marker:none;marker-start:none;marker-mid:none;marker-end:none;stroke-miterlimit:4;stroke-dasharray:none;stroke-dashoffset:0;stroke-opacity:1;visibility:visible;display:inline;overflow:visible;enable-background:accumulate" />
      <path
         d="M -454.79965,27.438403 C -567.51202,25.889773 -676.13795,98.366703 -718.89339,202.5009 C -763.49677,304.82537 -740.37802,431.93387 -662.2337,511.7296 C -586.30617,593.52044 -460.60857,622.75754 -356.29964,583.21964 C -249.23531,545.36754 -171.24124,438.76348 -168.41777,325.11287 C -162.60352,213.52865 -229.51471,103.04446 -330.58089,55.719653 C -369.1532,37.080513 -411.96384,27.366533 -454.79965,27.438403 z M -454.79965,80.532123 C -373.23063,78.560643 -288.14832,118.53533 -249.87793,192.93022 C -209.96084,270.38046 -211.1653,369.30837 -255.38411,444.74113 C -298.02007,517.61438 -385.90072,552.41114 -467.78088,547.25944 C -548.97646,545.88604 -630.84366,500.82015 -664.79472,425.16462 C -702.53623,341.27052 -696.47464,234.39591 -638.52362,160.94787 C -594.93779,105.81721 -523.69287,79.778213 -454.79965,80.532123 z"
         id="path2834"
         style="opacity:1;fill:#ff1e00;fill-opacity:1;fill-rule:nonzero;stroke:#000000;stroke-width:1.58140743000000010;stroke-linecap:butt;stroke-linejoin:miter;marker:none;marker-start:none;marker-mid:none;marker-end:none;stroke-miterlimit:4;stroke-dasharray:none;stroke-dashoffset:0;stroke-opacity:1;visibility:visible;display:inline;overflow:visible;enable-background:accumulate" />
      <path
         d="M -454.71861,15.449916 C -619.53601,15.449916 -753.31233,149.22627 -753.31236,314.04367 C -753.31236,478.86107 -619.53601,612.63746 -454.71861,612.63746 C -289.90121,612.63746 -156.15611,478.86107 -156.15611,314.04367 C -156.15611,149.22627 -289.90121,15.449916 -454.71861,15.449916 z M -454.71861,27.449916 C -296.51785,27.449906 -168.12486,155.84291 -168.12486,314.04367 C -168.12486,472.24443 -296.51785,600.63746 -454.71861,600.63746 C -612.91937,600.63746 -741.34361,472.24443 -741.34361,314.04367 C -741.34361,155.8429 -612.91937,27.449916 -454.71861,27.449916 z"
         id="path2815"
         style="opacity:1;fill:#000000;fill-opacity:1;fill-rule:nonzero;stroke:#000000;stroke-width:1.58140743;stroke-linecap:butt;stroke-linejoin:miter;marker:none;marker-start:none;marker-mid:none;marker-end:none;stroke-miterlimit:4;stroke-dasharray:none;stroke-dashoffset:0;stroke-opacity:1;visibility:visible;display:inline;overflow:visible;enable-background:accumulate" />
      <path
         d="m -454.73108,253.73239 c -33.29055,0 -60.31129,27.02074 -60.3113,60.31129 0,33.29057 27.02075,60.3113 60.3113,60.3113 33.29055,0 60.30498,-27.02073 60.30498,-60.3113 0,-33.29055 -27.01443,-60.31129 -60.30498,-60.31129 z m 0,6.42381 c 31.95409,-1e-5 53.88748,21.93339 53.88748,53.88748 0,31.95407 -21.93339,53.88747 -53.88748,53.88747 -31.9541,0 -53.8938,-21.9334 -53.8938,-53.88747 0,-31.9541 21.9397,-53.88748 53.8938,-53.88748 z"
         id="path2857"
         style="fill:#000000;fill-opacity:1;fill-rule:nonzero;stroke:#000000;stroke-width:1.58140743;stroke-linecap:butt;stroke-linejoin:miter;stroke-miterlimit:4;stroke-opacity:1;stroke-dasharray:none;stroke-dashoffset:0;marker:none;visibility:visible;display:inline;overflow:visible;enable-background:accumulate"
         inkscape:connector-curvature="0" />
      <path
         d="M -489.33269,251.08083 C -489.33269,268.28782 -503.28171,282.23685 -520.4887,282.23685 C -537.6957,282.23685 -551.64472,268.28782 -551.64472,251.08083 C -551.64472,233.87384 -537.6957,219.92481 -520.4887,219.92481 C -503.28171,219.92481 -489.33269,233.87384 -489.33269,251.08083 L -489.33269,251.08083 z"
         transform="translate(65.754472,62.96286)"
         id="path2859"
         style="opacity:1;fill:#000000;fill-opacity:1;fill-rule:nonzero;stroke:#000000;stroke-width:1.58140743;stroke-linecap:butt;stroke-linejoin:miter;marker:none;marker-start:none;marker-mid:none;marker-end:none;stroke-miterlimit:4;stroke-dasharray:none;stroke-dashoffset:0;stroke-opacity:1;visibility:visible;display:inline;overflow:visible;enable-background:accumulate" />
    </g>
  </g>
</svg>
