<?xml version="1.0" encoding="utf-8"?><svg xmlns="http://www.w3.org/2000/svg" version="1.1" viewBox="0 0 500 500"><path d="m.5 250c0 137.795 111.705 249.5 249.5 249.5s249.5-111.705 249.5-249.5-111.705-249.5-249.5-249.5-249.5 111.705-249.5 249.5z" fill="#e5e5e5" stroke="#000" stroke-linecap="round" stroke-linejoin="round"/><g stroke="#000" stroke-linecap="round" stroke-linejoin="round"><g><path d="m351.2188 60.1875c-8.8926 0-20.1517 30.6309-29 46.8125-5.6187-5.3904-14.1621-12.875-19.5313-12.875-10.9548 0-52.6875 119.6467-52.6875 155.875h249.5c0-14.5911-1.2841-28.8769-3.6875-42.7813-43.8025-16.7715-35.2387-31.9609-74.5938-57.9375-9.6736-6.3851-12.6787-38.9688-19.2188-38.9688-5.6191 0-14.4755 13.0909-27.375 15.7188-7.7774-21.9217-11.0294-65.8438-23.4063-65.8438z" fill="#c87137"/><path d="m309.738 147.3934c17.4362-5.0169 32.8678-5.4602 40.4516 12" fill="none"/><path d="m366.1265 198.6109c12.2631-6.9378 13.7755-26 20.2258-26 6.2389 0 9.5814 11.9919 20.7581 19.5 22.5414 15.1425 28.8194 6.5248 41.5161 24.5" fill="none"/><path d="m322.2217 106.996c5.7143 5.1724 11.3206 10.3526 15.4599 13.1474" fill="none"/><path d="m374.6326 126.0289c2.7914 8.2651 5.5827 13.4519 8.3741 19.5338" fill="none"/></g><path d="m.5 250h249.5" fill="none"/><path d="m250 .5v499" fill="none"/><g fill-rule="evenodd"><path d="m124.1011 93.0675-3.9771-.061c-1.2196-1.383-.3558-2.3567-3.1012-3.8675.9116-.184 1.8376-.572 2.7056-.1331-.2567-.9633-.3759-1.9624-.1886-3.0414.6452.8352 1.3756 1.4611 2.1968 1.8639.1343-1.0237.8328-1.8597 1.5226-2.6986-.2148 3.0179 1.124 2.1728 1.8644 4.0389z" fill="#800080"/><path d="m127.3231 95.263-1.924-1.7694c.2363-1.8429.2858-2.8436-.2755-4.3249-.1981.8944-.4207 1.7599-1.0156 2.1887-.8265-.002-1.4664-.3604-1.9564-1.0055-.2263.711-.1552 1.4435.126 2.1912-.5454.5196-1.3633.4624-2.1536.4634 1.109 1.2991 2.7657 1.2527 4.0858 1.3645l3.2555 3.6615" fill="#008f4c"/><path d="m130.7779 83.3675 3.9736-.1797c1.1792-1.4188.2876-2.3663 2.9881-3.9584-.9166-.1567-1.8533-.5168-2.7083-.0523.2288-.9705.3191-1.9727.1006-3.0457-.6208.8541-1.3328 1.5016-2.142 1.9287-.1638-1.0192-.8862-1.834-1.5999-2.6519.3019 3.0102-1.0607 2.2054-1.7469 4.0928z" fill="#800080"/><path d="m127.9764 85.2281 1.5163-1.3959c-.2894-1.8351-.3679-2.8339.1504-4.3313.2238.8881.4714 1.7466 1.0784 2.1574.8261-.0265 1.4554-.4041 1.9265-1.0635.2467.7039.1968 1.4383-.0627 2.194.5602.5031 1.376.4215 2.1661.3989-1.071 1.3316-2.7283 1.3347-4.0446 1.4859l-2.3885 3.1392" fill="#008f4c"/><path d="m124.4926 75.8448-3.9512-.4642c-1.0778-1.4999-.1227-2.381-2.706-4.1629.9252-.0906 1.8845-.3826 2.7052.1421-.1608-.9845-.1814-1.9907.111-3.0453.5599.8965 1.2252 1.5934 2.0028 2.0775.2341-1.005 1.0112-1.7659 1.7799-2.5306-.5101 2.9811.905 2.276 1.4586 4.2079z" fill="#800080"/><path d="m126.9989 78.2313-1.2566-1.8308c.416-1.8097.5636-2.8005.1505-4.3312-.2849.8698-.5914 1.7085-1.2254 2.0747-.8222-.0857-1.4237-.5074-1.8479-1.199-.295.6845-.2961 1.4206-.0898 2.193-.5937.4616-1.4019.3218-2.1884.2426.9759 1.4051 2.6289 1.5271 3.9314 1.7723l2.2719 3.5874" fill="#008f4c"/><path d="m129.2174 66.6354 3.9234-.665c1.0024-1.5529.005-2.3843 2.4972-4.2956-.9285-.0433-1.9011-.2861-2.6948.2798.1121-.9915.083-1.9975-.261-3.0359-.515.924-1.1451 1.6538-1.8978 2.177-.2834-.9917-1.0971-1.7121-1.9025-2.4367.6565 2.9513-.7916 2.3192-1.2492 4.277z" fill="#800080"/><path d="m127.3887 68.2136.608-.9595c-.5048-1.7862-.701-2.7682-.364-4.3181.3274.8542.6749 1.6762 1.3262 2.0096.817-.1276 1.3969-.5794 1.7864-1.2917.3283.6686.3658 1.4037.1978 2.1857.6157.4308 1.416.2499 2.1976.1307-.9053 1.4531-2.5503 1.6591-3.8391 1.9705l-2.1483 3.9609" fill="#008f4c"/><path d="m143.3203 183.0287c9.1041 1.9189 19.2021-.71 19.1658-1.0648-.0316-.3093-7.5472-.2418-15.7456-1.5868" fill="#008f4c"/><path d="m148.6255 178.1551c-2.6467-9.0611.0137-17.8888.3645-17.8819.3058.006.0479 7.4946 2.0558 15.6864" fill="#008f4c"/><path d="m156.788 171.5458c9.1891-1.4407 17.1655-6.8567 17.0094-7.1761-.1361-.2785-6.5761 2.4016-14.7192 4.0578" fill="#008f4c"/><path d="m160.9903 164.9717c-3.7619-8.6439-2.3661-16.8916-2.0174-16.9302.3041-.0333.6148 6.1724 3.6342 14.037" fill="#008f4c"/><path d="m167.7892 156.329c9.1177-1.851 15.3528-8.2338 15.183-8.5459-.148-.2721-4.7827 2.8464-12.8461 4.8659" fill="#008f4c"/><path d="m171.3768 148.2453c-3.7619-8.6439-2.7753-17.1384-2.4265-17.177.3041-.0333.6847 6.081 3.7041 13.9457" fill="#008f4c"/><path d="m175.6381 139.1556c8.6815-3.3839 13.8619-10.3666 13.8619-10.7233 0-.6303-3.9023 3.4107-11.5166 6.7803" fill="#008f4c"/><path d="m179.5452 130.6797c-3.6697-8.6847-2.7558-17.1104-2.4066-17.1452.3045-.0299.4053 5.619 3.3408 13.5163" fill="#008f4c"/><path d="m134.5058 187.5797c36.979-10.8304 51.6155-74.2845 50.3594-74.8005-1.0952-.45-16.202 61.8519-50.3105 71.1532" fill="#008f4c"/><path d="m179.7836 130.3805c7.9133-4.9625 9.7164-11.8722 9.7164-12.2288 0-.4344-1.4095 3.5238-8.2767 8.271" fill="#008f4c"/><path d="m172.5284 147.6892c8.9859-2.4276 14.1853-8.6355 13.9966-8.9362-.1645-.2622-4.5981 3.1452-12.5213 5.6738" fill="#008f4c"/><path d="m162.8684 164.2123c9.1234-1.822 15.5879-7.5541 15.4191-7.8667-.1472-.2726-5.3605 2.821-13.4301 4.8148" fill="#008f4c"/><path d="m175.6996 139.075c-3.7619-8.6439-2.4653-16.1661-2.1165-16.2047.3041-.0333.5096 5.017 3.5289 12.8816" fill="#008f4c"/><path d="m166.3617 156.8174c-3.7619-8.6439-2.4129-15.8681-2.0641-15.9067.3041-.0333.6706 5.0675 3.6899 12.9321" fill="#008f4c"/><path d="m155.1628 171.7959c-3.7619-8.6439-1.8579-16.4897-1.5091-16.5283.3041-.0333.6148 6.1724 3.6342 14.037" fill="#008f4c"/><path d="m151.0276 177.4199c9.2825.5412 18.8922-3.5644 18.8051-3.9099-.0759-.3012-7.5005.8857-15.8043.7772" fill="#008f4c"/><path d="m141.7027 182.4317c-2.6467-9.0611.0137-17.8888.3645-17.8819.3058.006.0479 7.4946 2.0558 15.6864" fill="#008f4c"/><path d="m120.4323 146.379c-9.2787-.6043-16.9473-5.2194-16.8197-5.5517.1112-.2897 6.0102 1.7393 14.2659 2.6528" fill="#008f4c"/><path d="m116.4216 140.2692c2.991-8.9497.8794-17.0386.5286-17.0455-.3059-.006-.0725 6.2035-2.392 14.3099" fill="#008f4c"/><path d="m109.0502 131.6302c-9.2435-1.0195-16.1685-6.1683-16.0267-6.4945.1237-.2844 5.0127 2.4028 13.2208 3.6854" fill="#008f4c"/><path d="m104.6132 124.5479c2.991-8.9497 1.2653-17.3213.9145-17.3283-.3059-.006-.1502 6.1188-2.4696 14.2252" fill="#008f4c"/><path d="m99.5738 115.8795c-8.9431-2.5857-14.9008-9.1339-14.707-9.4312.169-.2592 4.1472 3.0478 12.0261 5.7158" fill="#008f4c"/><path d="m94.9409 107.7903c2.8956-8.9821 1.2483-17.2918.8975-17.2948-.3059-.003.0877 5.6334-2.1454 13.7648" fill="#008f4c"/><path d="m132.2176 158.3916c-32.8312-26.5165-45.3473-67.3224-44.1413-67.95 1.0515-.5472 15.5152 41.2316 43.4269 62.9864" fill="#008f4c"/><path d="m94.3723 107.2709c-8.316-4.2275-11.7788-11.7506-11.5341-12.0062.2134-.2229 2.4986 4.0865 9.7539 8.1941" fill="#008f4c"/><path d="m103.4176 124.0981c-9.1626-1.6057-14.8844-7.3191-14.7228-7.6356.1409-.276 4.855 2.7171 12.968 4.5194" fill="#008f4c"/><path d="m114.4845 139.6826c-9.2466-.9901-16.1869-6.1151-16.046-6.4418.1228-.2848 5.586 2.3253 13.798 3.5818" fill="#008f4c"/><path d="m99.6701 115.0507c2.991-8.9497.877-15.5708.5262-15.5778-.3058-.006.0959 4.2891-2.2236 12.3955" fill="#008f4c"/><path d="m110.3583 132.6327c2.991-8.9497 1.0154-16.0233.6647-16.0302-.3059-.006-.2247 5.108-2.5442 13.2144" fill="#008f4c"/><path d="m122.7982 146.8663c2.991-8.9497.4083-16.5924.0575-16.5993-.3058-.006-.0725 6.2035-2.392 14.3099" fill="#008f4c"/><path d="m125.853 152.0206c-9.2678.7574-17.5092-2.6896-17.4299-3.037.0691-.3029 7.002.5249 15.3011.2229" fill="#008f4c"/><path d="m130.9944 129.474c8.8273-2.9685 15.0998-9.4039 14.8938-9.6926-.1796-.2517-5.3828 3.2269-13.1434 6.2317" fill="#008f4c"/><path d="m133.1175 122.0069c-5.1187-7.8908-4.8477-15.7344-4.51-15.8312.2944-.0844 1.3736 5.4582 5.6329 12.7056" fill="#008f4c"/><path d="m138.3408 112.2797c8.69-3.3611 14.1104-10.1219 13.8921-10.4011-.1904-.2434-4.2527 3.6126-11.8756 6.9623" fill="#008f4c"/><path d="m140.8732 104.2874c-5.1186-7.8908-5.53-16.4341-5.1923-16.5309.2944-.0845 1.3736 5.4582 5.6329 12.7056" fill="#008f4c"/><path d="m142.9391 94.378c8.01-4.7993 12.8017-12.4378 12.5403-12.6757-.2279-.2074-3.5944 4.2884-10.5543 8.8939" fill="#008f4c"/><path d="m146.066 85.5888c-5.0344-7.9466-5.5062-16.4098-5.1675-16.5029.2953-.0811 1.3155 5.4731 5.4974 12.7669" fill="#008f4c"/><path d="m129.8011 133.8405c18.0183-31.5718 19.917-66.5034 18.5941-66.8007-1.1534-.2593-3.2413 30.2059-18.0865 59.1039" fill="#008f4c"/><path d="m146.2557 85.0106c6.9952-6.2267 8.7068-14.4656 8.4065-14.65-.2618-.1608-1.633 4.6662-7.6317 10.5044" fill="#008f4c"/><path d="m141.9182 103.5451c8.466-3.9075 12.5819-10.9054 12.3468-11.1702-.205-.2308-4.022 3.8762-11.4236 7.7043" fill="#008f4c"/><path d="m135.0845 121.4669c8.7003-3.3335 14.1414-10.0751 13.9239-10.355-.1896-.244-4.2639 3.5991-11.8969 6.9245" fill="#008f4c"/><path d="m143.295 93.8285c-5.1186-7.8908-4.7191-14.8401-4.3815-14.937.2944-.0845.665 4.2684 4.9243 11.5157" fill="#008f4c"/><path d="m136.9084 113.0291c-5.1187-7.8908-4.5496-14.6856-4.212-14.7825.2944-.0845 1.0712 4.3278 5.3305 11.5752" fill="#008f4c"/><path d="m105.0472 194.6695c5.366-6.8825 29.0381-2.1248 28.4372-8.2528-5.9606-60.7865-9.0908-131.8872-6.9639-131.894 1.8593-.006 3.2231 71.0904 10.525 132.0379.7151 5.9684 24.6252 2.224 28.6745 8.1088-5.8688-1.4754-14.6819-.547-22.4134-1.1577 5.2884 1.7875 10.8597 2.5816 13.1082 5.9882-6.3793-2.5971-14.6653-3.6811-18.6616-5.9882-2.0802.8104-1.3 3.96-2.8147 5.9882.002-2.0816-2.3371-3.3509-1.5469-5.9882-4.9079 1.0211-11.4328 3.1951-18.6316 5.9882.7759-2.2212 5.0135-4.2254 10.5019-5.9882-6.8523.0221-14.5793-.1921-20.2147 1.1577z" fill="#008f4c"/><path d="m127.774 125.1585c-8.9913-2.4066-15.644-8.4344-15.456-8.7356.1639-.2625 5.5691 2.8815 13.4981 5.3916" fill="#008f4c"/><path d="m125.1997 117.8395c4.6278-8.1982 3.8791-16.0096 3.5362-16.0849-.299-.0658-1.0382 5.5343-4.8475 13.0361" fill="#008f4c"/><path d="m119.3934 108.4602c-8.8782-2.8072-14.7004-9.2134-14.4995-9.5058.1752-.2549 4.4648 3.3378 12.2772 6.2007" fill="#008f4c"/><path d="m116.3787 100.6428c4.6278-8.1981 4.5175-16.7509 4.1746-16.8263-.299-.0658-1.0382 5.5343-4.8475 13.0361" fill="#008f4c"/><path d="m113.7126 90.8825c-8.2872-4.2854-13.5354-11.6073-13.289-11.8612.2149-.2214 3.8489 4.0537 11.0762 8.2119" fill="#008f4c"/><path d="m110.0559 82.3073c4.5402-8.2486 4.4952-16.7252 4.1515-16.7967-.2997-.0624-.9793 5.5454-4.7085 13.0887" fill="#008f4c"/><path d="m130.0334 131.1097c-19.9084-30.3758-24.7351-66.789-23.433-67.1691 1.1354-.3315 5.8787 31.6119 22.4571 59.519" fill="#008f4c"/><path d="m109.8314 81.7422c-7.3613-5.774-9.5719-13.8892-9.2835-14.0922.2515-.177 1.9144 4.5543 8.2574 10.0034" fill="#008f4c"/><path d="m115.2904 99.9677c-8.688-3.3666-13.2226-10.0917-13.0041-10.3708.1905-.2433 4.2506 3.6153 11.8713 6.9697" fill="#008f4c"/><path d="m123.2036 117.4245c-8.8868-2.7789-14.7284-9.1648-14.5284-9.4578.1744-.2555 4.4751 3.3235 12.2962 6.1616" fill="#008f4c"/><path d="m113.3239 90.3566c4.6278-8.1981 3.8053-15.1089 3.4624-15.1843-.299-.0658-.4035 4.3021-4.2128 11.8039" fill="#008f4c"/><path d="m120.8688 109.1178c4.6277-8.1981 3.6456-14.9441 3.3027-15.0194-.299-.0658-.8054 4.387-4.6146 11.8888" fill="#008f4c"/><path d="m142.8839 148.4065c9.4989-1.7333 16.873-7.4101 16.703-7.7375-.1482-.2854-5.9968 2.5127-14.4048 4.4424" fill="#008f4c"/><path d="m146.3128 141.6259c-4.1205-8.8717-2.8792-17.4661-2.5182-17.5152.3147-.0425.7929 6.3888 4.1233 14.4711" fill="#008f4c"/><path d="m152.9147 131.8349c9.4145-2.1572 15.9601-8.2954 15.776-8.6149-.1605-.2785-4.8913 3.0776-13.2076 5.3823" fill="#008f4c"/><path d="m156.6705 124.0004c-4.1205-8.8717-3.3099-17.7116-2.949-17.7607.3147-.0425.8631 6.2922 4.1935 14.3746" fill="#008f4c"/><path d="m160.8641 114.458c8.9234-3.7365 14.3093-11.2021 14.0751-11.4856-.2043-.2471-3.9241 3.6393-11.7405 7.3333" fill="#008f4c"/><path d="m164.7055 105.5616c-4.0258-8.9165-3.289-17.6831-2.9275-17.7282.3152-.0389.5616 5.82 3.8058 13.9385" fill="#008f4c"/><path d="m132.9809 161.1562c30.7882-31.2733 38.1119-73.804 36.7955-74.3069-1.1477-.4385-10.3673 43.3285-36.6334 69.1027" fill="#008f4c"/><path d="m165.2317 104.958c8.0866-5.3545 10.7868-13.5271 10.5049-13.7614-.2458-.2043-2.1037 4.5132-9.1103 9.6172" fill="#008f4c"/><path d="m157.8514 123.3935c9.2632-2.752 14.5026-9.3286 14.2992-9.6357-.1773-.2678-4.6922 3.3828-12.8503 6.2121" fill="#008f4c"/><path d="m148.2425 140.7892c9.4211-2.1273 15.9851-8.2428 15.8021-8.5628-.1596-.279-5.4915 3.0663-13.8148 5.3444" fill="#008f4c"/><path d="m160.6688 113.6148c-4.1205-8.8717-2.7068-15.9528-2.3459-16.0019.3147-.0425.3976 4.4347 3.728 12.5171" fill="#008f4c"/><path d="m151.6817 133.0252c-4.1205-8.8717-2.902-16.4028-2.541-16.4519.3147-.0425.823 5.2409 4.1534 13.3232" fill="#008f4c"/><path d="m140.5004 149.1921c-4.1205-8.8717-2.3417-17.0623-1.9808-17.1114.3147-.0425.7929 6.3888 4.1233 14.4711" fill="#008f4c"/><path d="m137.9468 154.873c9.6453-.3277 17.7453-4.8683 17.6233-5.2171-.1064-.3041-7.1601 1.379-15.7537 2.0604" fill="#008f4c"/><path d="m124.5356 179.0786c-8.7819 3.1045-19.1302 1.831-19.1395 1.4745-.008-.3109 7.4524-1.2361 15.4095-3.652" fill="#008f4c"/><path d="m118.6528 174.9466c1.4669-9.3338-2.2987-17.7356-2.6456-17.6824-.3024.0466.9099 7.4374-.0346 15.825" fill="#008f4c"/><path d="m109.7151 169.471c-9.2953-.2154-17.896-4.5325-17.782-4.8698.0994-.2941 6.8272 1.5132 15.1129 2.0803" fill="#008f4c"/><path d="m104.7086 163.5073c2.6259-9.0673.1884-17.0609-.1624-17.0532-.3058.007.1788 6.2013-1.8103 14.3979" fill="#008f4c"/><path d="m96.8634 155.8354c-9.2769-.6317-16.2746-6.1373-16.1461-6.4692.1121-.2894 5.1058 2.1909 13.3589 3.1288" fill="#008f4c"/><path d="m92.2735 148.2937c2.6259-9.0673.5626-17.3596.2118-17.3519-.3058.007.0978 6.1199-1.8913 14.3166" fill="#008f4c"/><path d="m86.8872 139.8435c-9.0402-2.2092-16.3871-9.146-16.3871-9.5027 0-.6561 5.5778 3.5668 13.5581 5.9027" fill="#008f4c"/><path d="m81.9305 131.9552c2.5293-9.0957.5468-17.3294.1961-17.3177-.3057.0106.3159 5.6249-1.5859 13.8429" fill="#008f4c"/><path d="m133.8568 182.4274c-38.0493-5.8568-60.6674-66.8413-59.4878-67.5189 1.0284-.5908 23.9656 59.1893 58.9735 63.9089" fill="#008f4c"/><path d="m81.6559 131.69c-8.4801-3.8758-11.1559-9.9979-11.1559-10.3545 0-.5411 1.8073 2.8199 9.2228 6.6203" fill="#008f4c"/><path d="m91.0606 147.8943c-9.2199-1.2207-15.1683-6.6897-15.0196-7.0128.1296-.2817 4.9609 2.5115 13.14 3.9727" fill="#008f4c"/><path d="m102.7494 163.0022c-9.2788-.6022-16.4208-5.4322-16.2934-5.7645.1112-.2897 5.6755 2.0895 13.9314 3.0011" fill="#008f4c"/><path d="m86.8159 139.7717c2.6259-9.0673.3794-16.3547.0286-16.3469-.3058.007.1356 5.0418-1.8536 13.2384" fill="#008f4c"/><path d="m98.3411 156.1311c2.6259-9.0673.3655-16.0522.0147-16.0445-.3058.007-.0175 5.1131-2.0067 13.3097" fill="#008f4c"/><path d="m111.3585 169.5043c2.6259-9.0673-.2642-16.5954-.615-16.5876-.3058.007.1788 6.2013-1.8103 14.3979" fill="#008f4c"/><path d="m116.1771 174.5348c-9.1347 1.762-19.1876-1.0402-19.1453-1.3942.0368-.3087 7.5501-.112 15.7697-1.3158" fill="#008f4c"/><path d="m126.0633 178.2731c1.4669-9.3338-2.2987-17.7356-2.6456-17.6824-.3024.0466.9099 7.4374-.0346 15.825" fill="#008f4c"/><path d="m124.0427 84.794-3.9512-.4642c-1.0778-1.4999-.1227-2.381-2.706-4.1629.9252-.0906 1.8845-.3826 2.7052.1421-.1608-.9845-.1814-1.9907.111-3.0453.5599.8965 1.2252 1.5934 2.0028 2.0775.2341-1.0049 1.0112-1.7659 1.7799-2.5306-.5101 2.9811.905 2.2759 1.4586 4.2079z" fill="#800080"/><path d="m127.2328 87.8757-1.9404-2.526c.416-1.8097.5636-2.8005.1505-4.3312-.2849.8698-.5914 1.7085-1.2254 2.0747-.8222-.0858-1.4237-.5074-1.8479-1.199-.295.6845-.2961 1.4206-.0898 2.193-.5937.4616-1.4019.3218-2.1884.2426.9759 1.4051 2.6289 1.5271 3.9314 1.7723l3.0317 4.437" fill="#008f4c"/><path d="m129.3326 75.0139 3.9736-.1797c1.1791-1.4188.2876-2.3663 2.9881-3.9584-.9166-.1567-1.8533-.5168-2.7083-.0522.2288-.9705.3191-1.9727.1006-3.0457-.6208.8541-1.3327 1.5015-2.142 1.9287-.1638-1.0192-.8862-1.834-1.5999-2.6519.3019 3.0102-1.0607 2.2054-1.7469 4.0928z" fill="#800080"/><path d="m127.5948 76.3338.4526-.8552c-.2894-1.8351-.3679-2.8339.1504-4.3312.2238.8881.4714 1.7466 1.0784 2.1574.8261-.0265 1.4554-.4041 1.9265-1.0635.2467.7039.1968 1.4383-.0627 2.194.5602.5031 1.376.4215 2.1661.3989-1.071 1.3316-2.7283 1.3347-4.0446 1.4859l-1.2489 2.753" fill="#008f4c"/><path d="m126.6864 58.9457-3.076-2.5635c-.1083-1.8542 1.1639-2.07-.0605-4.9893.8263.4327 1.7886.7147 2.1995 1.6073.3886-.9164.9068-1.774 1.7139-2.5002-.006 1.062.1825 2.0139.5789 2.8487.7317-.7164 1.7902-.929 2.8436-1.1494-2.0154 2.2266-.45 2.4119-1.0126 4.3411z" fill="#800080"/><path d="m127.7457 64.8914-.3039-4.791c1.313-1.2932 1.9643-2.0453 2.4315-3.5599-.7025.5749-1.4066 1.1116-2.1346 1.0709-.6459-.5243-.9274-1.2098-.9161-2.0247-.6123.4135-1.005 1.0319-1.2426 1.795-.745.0617-1.3502-.5004-1.9696-.9995.073 1.7185 1.3984 2.7302 2.3633 3.6527l.0794 4.8484" fill="#008f4c"/><path d="m132.6714 90.7587 3.9736-.1797c1.1791-1.4188.2876-2.3663 2.9881-3.9584-.9166-.1567-1.8533-.5168-2.7083-.0523.2288-.9705.3191-1.9727.1006-3.0457-.6208.8541-1.3327 1.5015-2.142 1.9287-.1638-1.0192-.8862-1.834-1.5999-2.6519.3019 3.0102-1.0607 2.2054-1.7469 4.0928z" fill="#800080"/><path d="m128.6544 93.5461 2.7319-2.3228c-.2894-1.8351-.3679-2.8339.1504-4.3312.2238.8881.4714 1.7466 1.0784 2.1574.8261-.0265 1.4554-.4041 1.9265-1.0635.2467.7039.1968 1.4382-.0627 2.194.5602.5031 1.376.4215 2.1661.3989-1.071 1.3316-2.7283 1.3347-4.0446 1.4859l-3.6802 4.375" fill="#008f4c"/><path d="m125.0288 66.976-3.9512-.4642c-1.0778-1.4999-.1227-2.381-2.706-4.1629.9252-.0906 1.8846-.3826 2.7052.1421-.1608-.9845-.1814-1.9907.111-3.0453.5599.8965 1.2252 1.5934 2.0028 2.0775.2342-1.0049 1.0112-1.7659 1.7799-2.5306-.5101 2.9811.905 2.2759 1.4586 4.2079z" fill="#800080"/><path d="m126.6993 68.9763-.4209-1.4446c.416-1.8097.5636-2.8005.1505-4.3312-.2849.8698-.5914 1.7085-1.2254 2.0747-.8222-.0857-1.4237-.5074-1.8479-1.199-.295.6845-.2961 1.4206-.0898 2.193-.5937.4617-1.4019.3218-2.1884.2426.9759 1.4051 2.6289 1.5271 3.9314 1.7723l1.5122 2.4288" fill="#008f4c"/></g><g><path d="m304.7386 449.5497c22.1592 13.1823 33.3517 12.5839 40.3491 5.7922 10.7444-10.4285 11.5555-36.184 26.4981-49.3271 13.577-11.9419 41.3066-16.4846 53.6209-28.4369 3.0814-2.9908 5.0699-6.558 5.4309-10.8528.6973-8.2967-1.8096-13.7542-6.6338-21.9282-2.5472-4.3159-6.0171-9.1697-10.7722-14.5034l-1.7297 1.4574c9.0147 9.5278 14.4066 17.4856 17.1108 24.0657 1.557 7.1863-.5882 12.6582-5.0553 16.994-12.4532 12.0872-40.3694 16.811-54.0926 28.8948-15.1035 13.2992-16.0645 39.2001-26.93 49.7463-7.0763 6.8683-18.3372 7.5331-40.5508-5.5964z" fill="#c87137"/><path d="m428.6127 355.8164c1.6913 4.1155 2.2989 7.7124 2.0248 10.9086" fill="none"/><path d="m338.6403 394.8547c9.3199-2.8182 17.0786.8747 23.3173-5.1806s2.6374-13.0464 3.5611-20.9078l2.472 2.5475c-.9238 7.8613 2.6775 14.8524-3.5613 20.9077-6.2387 6.0553-13.9973 2.3626-23.3172 5.1808z" fill="#808080"/><path d="m356.8121 381.4762c.2399 2.5654 1.7593 4.7412 3.3933 5.9419.7209.5297.8067 1.2365-.8086 1.0969-1.8195-.1572-4.9467-2.0629-6.2676-4.4001z" fill="#808080"/><path d="m447.4163 265.5c-5.6408 11.0209-16.8719 23.3611-20.8802 27.2514l-65.7816 63.8478 10.103 10.4116 65.7814-63.8479c4.0082-3.8904 16.6775-14.7485 27.861-20.0574z" fill="#808080"/><path d="m424.2139 318.0757c6.4933-6.3024 1.3875-17.7395-2.9813-13.4991l-48.0352 46.6233c-4.2299 4.1055-8.0454-1.7218-11.019 1.1644l-27.5674 26.7569c-6.0977 5.9185-4.066 15.3073-8.767 19.8701s-12.7389-.174-18.4853 3.4982l-39.6929 25.3653c-2.3045 1.4727-3.473 5.256.1382 9.4035 4.7145 5.4145 11.4909 17.7456 15.4022 23.6376 1.5424 2.3233 4.9284 5.378 8.0865 2.3128 1.7308-1.6799 3.5378-3.8865 5.5158-6.3256l35.0549-43.2263c5.8872-7.2594 3.1974-9.0485 8.4827-14.1784z" fill="#c87137"/><path d="m353.3415 369.4539c-3.2582-2.4117-7.8824-10.3193-1.7569-14.0031 1.4685-.8832.9943-2.0759-.6037-1.532-3.5239 1.1992-5.8776 1.1532-7.838.7973-.944-.1714-1.1536 2.8483-.3041 2.9622.7662.1028 1.979.1396 2.9779.0174-1.3786 4.8794.9201 9.986 4.5458 13.2377z" fill="#808080"/><path d="m414.2399 326.4553-10.228-10.5404c-.8983-.9258-2.3672-.9473-3.2934-.0484l-3.3437 3.2454c-.9262.899-.9487 2.368-.0505 3.2938l10.228 10.5404c.8983.9258 2.3672.9473 3.2934.0483l2.3882-2.318.9556-.9275c.9262-.899.9487-2.368.0505-3.2938z" fill="#808080"/><path d="m345.6039 368.4516c-3.6883 3.5799-3.7784 9.4705-.2012 13.157s9.4671 3.7729 13.1554.193 3.7784-9.4705.2011-13.157c-3.5772-3.6865-9.4671-3.7729-13.1554-.193z" fill="#808080"/><path d="m353.0381 368.5607c-1.6041 1.5569-1.6432 4.1187-.0874 5.722s4.1172 1.6408 5.7213.0839 1.6432-4.1187.0874-5.722c-1.5557-1.6032-4.1173-1.6408-5.7213-.0839z" fill="none"/><path d="m349.051 377.3725c-.9009.8745-.9229 2.3133-.0491 3.2138s2.3125.9216 3.2134.0472c.9009-.8745.9229-2.3133.049-3.2138-.8738-.9005-2.3125-.9216-3.2134-.0472z" fill="none"/><path d="m354.6952 377.3657c-.9009.8744-.9229 2.3133-.0492 3.2138.8738.9005 2.3125.9216 3.2134.0472s.9229-2.3133.0491-3.2138-2.3125-.9216-3.2134-.0471z" fill="none"/><path d="m413.0725 329.775 2.935 3.0247c.5827.6005.5684 1.553-.032 2.1357s-1.5528.5685-2.1355-.032l-2.9351-3.0247c-.5827-.6005-.5684-1.553.032-2.1357s1.5528-.5685 2.1355.032z" fill="#808080" fill-rule="evenodd"/><path d="m305.1824 445.8736 2.9351 3.0247c.5827.6005.5684 1.553-.032 2.1357s-1.5528.5685-2.1355-.032l-2.935-3.0247c-.5827-.6005-.5684-1.553.032-2.1357s1.5528-.5685 2.1355.032z" fill="#808080" fill-rule="evenodd"/></g><g><path d="m107.9487 396.8426c-7.7003 7.7002-29.7883-1.9035-49.3349-21.4505s-29.1499-41.6351-21.4496-49.3353l6.4381-6.438c7.7003-7.7002 29.7883 1.9036 49.3349 21.4505 19.5466 19.547 29.1499 41.6351 21.4496 49.3353-12.6801 12.6798 1.2622-1.2622-6.4381 6.438z" fill="#eac102"/><path d="m114.3868 390.4047c-7.7003 7.7002-29.7883-1.9036-49.3349-21.4505-19.5466-19.547-29.1499-41.6351-21.4496-49.3353" fill="none"/><path d="m66.9785 367.0276c-18.362-18.3623-27.8672-38.6278-21.2309-45.264l35.5434-35.5427 66.4945 66.4958-35.5435 35.5429c-6.6365 6.6363-26.9015-2.8696-45.2635-21.2319z" fill="#ed1c24"/><path d="m75.7192 291.0441c-.8926-.7001-2.3496-.4348-2.9717.5139l-29.2038 44.5309c-.4498.6859-.3973 1.6575.1003 2.3096.4975.6521 1.4207.9593 2.2011.7068l33.6588-12.5926-14.868 40.2321c-.274.7415-.1164 1.6349.4426 2.1939s1.4639.7461 2.194.4427l40.2099-14.8897-12.5931 33.6588c-.2929.7828.0262 1.7386.6901 2.2463s1.65.5362 2.3486.0774l44.5091-29.2253c.9262-.6081 1.3156-1.9498.7081-2.8764s-1.9941-1.1059-2.9202-.4976l-39.7275 26.0972 12.3341-32.2643c.2735-.7155.004-1.5851-.5603-2.1029-.5644-.5178-1.4238-.64-2.1433-.3774l-39.9062 14.5679 14.5462-39.9282c.2622-.7197.1405-1.5788-.3773-2.1433-.5178-.5644-1.3875-.8342-2.1028-.5604l-32.2199 12.3335 26.0756-39.7047c.561-.8543.3797-2.1175-.4245-2.7483z" fill="#eac102"/><path d="m144.4111 360.381c-7.7003 7.7002-29.7883-1.9036-49.3349-21.4505-19.5466-19.547-29.1499-41.6352-21.4496-49.3353l6.4381-6.438c7.7003-7.7002 29.7883 1.9036 49.3349 21.4505 19.5466 19.547 29.1499 41.6351 21.4496 49.3353-12.6801 12.6798 1.2622-1.2622-6.4381 6.438z" fill="#eac102"/><path d="m76.345 286.8768c7.7003-7.7002 29.7883 1.9036 49.3349 21.4505 19.5466 19.547 29.1499 41.6351 21.4496 49.3353" fill="none"/><path d="m150.8492 353.943c-7.7003 7.7002-29.7883-1.9036-49.3349-21.4505-19.5466-19.547-29.1499-41.6352-21.4496-49.3353" fill="none"/></g><g fill="#eac102"><path d="m123.5844 433.7185 104.2034-29.8132c1.3316-.381 2.2697 1.216 2.724 2.8865s.4539 3.5216-.8871 3.868l-104.9507 27.0653-3.7147-1.1412z"/><path d="m123.5844 433.7185-5.4542.1578c-1.452.042-3.2044 1.3621-2.4482 4.1429.7562 2.7809 3.042 3.1973 4.2091 2.3325l4.7828-2.6266z"/><path d="m137.4963 397.0321 92.6077 56.3115c1.1834.7196.6469 2.4923-.2719 3.9595s-2.2787 2.7231-3.4431 1.973l-91.0963-58.725-1.6824-3.503z"/><path d="m137.4963 397.0321-3.8169-3.8993c-1.0161-1.038-3.1749-1.4295-4.7044 1.013s-.2844 4.4041 1.1428 4.6745l5.1748 1.7308z"/></g></g><g stroke="#000" stroke-linecap="round" stroke-linejoin="round"><path d="m354.7606 286.2179c17.9596.1083 47.3467-3.4649 46.2845-12.3435-2.0678-14.6738-28.036-24.1058-45.68-25.3675z" fill="#e5e5e5"/><path d="m145.2394 213.7821c-17.9596-.1083-47.3467 3.4649-46.2845 12.3435 2.0678 14.6738 28.036 24.1058 45.68 25.3675z" fill="#e5e5e5"/><path d="m100.5 250 149.5 149.5 149.5-149.5-149.5-149.5z" fill="#eac102"/><path d="m327.5 178 31 31v82l-31 31z" fill="#ed1c24"/><path d="m265.5 116 31 31v206l-31 31z" fill="#ed1c24"/><path d="m234.5 116-31 31v206l31 31z" fill="#ed1c24"/><path d="m172.5 178-31 31v82l31 31z" fill="#ed1c24"/><path d="m100.5 250 149.5 149.5 149.5-149.5-149.5-149.5zm10 0 139.5 139.5 139.5-139.5-139.5-139.5z" fill="#e5e5e5" fill-rule="evenodd"/><path d="m399.2537 230.9648c.2512-19.4707-103.5735-8.0575-150.1477-2.378s-147.8375 16.8781-150.1511-2.4612c1.6969 13.9421 1.9776 28.4787 1.7914 42.9095-.2512 19.4707 103.5735 8.0575 150.1477 2.378 46.5742-5.6794 147.8375-16.8781 150.1511 2.4612-1.6969-13.942-1.9776-28.4787-1.7914-42.9095z" fill="#e5e5e5"/><path d="m175.3316 258.0872c.4062-1.1314 1.0994-1.9978 2.0794-2.5994.9801-.6015 2.0754-.9439 3.2859-1.0271 1.9586-.1345 3.6456.4148 5.0611 1.648s2.192 2.8515 2.3297 4.8548c.1642 2.3905-.4748 4.4383-1.9169 6.1433s-3.3108 2.6363-5.6061 2.794c-1.6247.1116-3.0983-.219-4.4208-.9918s-2.4378-2.0263-3.346-3.7604-1.4435-3.7837-1.6059-6.1486c-.1756-2.5567.1436-4.9105.9577-7.0613s1.9429-3.8098 3.3866-4.9771 2.9985-1.8081 4.6644-1.9226c1.7163-.1179 3.2606.3189 4.6327 1.3102.9924.5971 1.5269 1.4529 1.6035 2.5675.0526.7665-.1465 1.4189-.5974 1.9569-.4509.5381-1.0348.8318-1.7515.881-.6642.0457-1.2448-.1325-1.7417-.5345-.4969-.4019-.7658-.901-.8068-1.497-.0275-.3992.0941-.849.3645-1.3494.1866-.3483.2745-.6016.2636-.7601-.013-.1925-.1191-.3462-.3175-.4611-.359-.1973-.849-.2746-1.4699-.232-.9932.0682-1.8829.4473-2.6691 1.1373-.7863.69-1.424 1.8572-1.9131 3.5017-.4891 1.6446-.6639 3.4824-.5244 5.5134.0248.3545.0436.6926.0579 1.0142zm4.605-1.2435c-1.2709.0873-2.2852.627-3.0429 1.619-.7577.9921-1.0765 2.3612-.9566 4.1073.1314 1.9131.6275 3.3271 1.4883 4.2419s1.8929 1.3309 3.0964 1.2482c1.1892-.0817 2.1227-.6058 2.8004-1.5724s.9514-2.3986.8211-4.2961c-.1386-2.0183-.5785-3.4345-1.3196-4.2486s-1.7035-1.1806-2.887-1.0993z" fill="#eac102"/><path d="m190.4906 253.474 7.5113-.6432.2756 3.2182-7.5113.6433z" fill="#eac102"/><path d="m197.5833 242.6236 11.1343-1.1219.1946 1.931-2.1744.2191c-.661.0666-1.0773.1705-1.2488.3116s-.248.3034-.2295.4869c.0195.1934.1324.4691.3388.8268l.0929.1871 7.8649 15.8772 3.8454-16.0878c.0713-.287.0865-.6328.0458-1.0373-.0531-.5271-.2399-.9153-.5602-1.1647-.3204-.2493-.7416-.3477-1.2638-.2951l-2.0574.2073-.1946-1.931 9.8505-.9926.1946 1.931-1.1074.1116c-.4478.0451-.8953.3273-1.3425.8465-.4473.5192-.8274 1.3811-1.1404 2.5856l-5.6166 21.6177-1.7535.1767-11.0286-21.364c-.3488-.6555-.7011-1.0857-1.057-1.2907-.356-.2049-.8287-.2777-1.4181-.2183l-1.1743.1183z" fill="#eac102"/><path d="m225.598 239.748 12.1018-1.3756.2192 1.9284-2.321.2638c-.7578.0862-1.2067.2128-1.3468.3799-.1401.1672-.1757.5543-.1066 1.1613l2.1196 18.6467c.0744.6545.179 1.0324.3138 1.1339.2219.1683.6301.2186 1.2244.1511l2.5545-.2904.2192 1.9283-12.1018 1.3756-.2192-1.9284 2.5216-.2866c.6431-.0731 1.0326-.195 1.1684-.3655.1358-.1706.1664-.5831.0921-1.2376l-2.1196-18.6467c-.0691-.6084-.1638-.9521-.2838-1.0309-.2739-.1774-.7776-.2244-1.5113-.141l-2.3051.262z" fill="#eac102"/><path d="m241.9315 248.2411 7.485-.899.3852 3.2069-7.485.899z" fill="#eac102"/><path d="m261.9025 236.9749 2.448 21.1119c.0239.2066.1006.3482.2299.425.2791.1569.6107.2131.9948.1685l3.6032-.4178.2235 1.9279-12.7151 1.4743-.2235-1.9278 3.1374-.3638c.4704-.0546.797-.1946.9798-.4201s.2529-.5225.2101-.891l-1.82-15.6965c-.0258-.2228-.139-.4027-.3395-.5397-.2005-.1369-.4493-.1882-.7463-.1538l-4.0679.4717-.2066-1.7814c1.8926-.4689 3.3398-.9442 4.3417-1.426 1.0018-.4817 1.8961-1.0865 2.6826-1.8143z" fill="#eac102"/><path d="m284.0296 245.0168c1.7363.3216 3.0791.9895 4.0284 2.0037.9493 1.0143 1.5029 2.2857 1.661 3.8142.1929 1.865-.2414 3.5632-1.3029 5.0947-1.358 1.9595-3.4638 3.0868-6.3175 3.3819-2.5109.2597-4.5671-.1456-6.1686-1.216-1.6015-1.0703-2.4972-2.5238-2.6872-4.3604-.1423-1.3755.1592-2.621.9043-3.7364s2.0343-2.0271 3.8674-2.735c-3.0344-.7872-4.6947-2.5644-4.9809-5.3318-.1852-1.7906.3499-3.4056 1.6052-4.8451s2.9461-2.2692 5.0724-2.4892c1.4442-.1494 2.7366-.0275 3.8772.3657s2.0438.9988 2.7098 1.8169c.6659.8181 1.0485 1.707 1.1477 2.6668.2295 2.2191-.9093 4.0758-3.4164 5.5699zm-1.7763-.5422c.9467-.7028 1.5737-1.3736 1.881-2.0125.3072-.6388.4094-1.4562.3064-2.4521-.1339-1.294-.5966-2.2486-1.3882-2.8636-.7917-.615-1.8813-.8508-3.2688-.7073-1.3564.1403-2.3696.5685-3.0397 1.2846s-.9515 1.593-.8442 2.6306c.1073 1.037.5171 1.8282 1.2296 2.3737.7125.5456 2.4205 1.1277 5.1239 1.7466zm-2.5244 3.4589c-1.3492.7638-2.2685 1.5638-2.7579 2.4001s-.6749 1.8271-.5565 2.9724c.1543 1.4917.6993 2.5945 1.635 3.3084.9358.714 2.226.9859 3.8706.8158 1.7481-.1808 3.0533-.7238 3.9158-1.6291.8624-.9053 1.2245-2.0262 1.0863-3.3628-.123-1.1892-.6286-2.0524-1.5166-2.5894-.8881-.5371-2.7804-1.1755-5.6767-1.9154z" fill="#eac102"/><path d="m299.0418 232.7495c2.2877-.2002 4.2674.5197 5.9392 2.1596 2.0421 1.9921 3.2514 5.1386 3.6279 9.4395.3497 3.9952-.1916 7.1301-1.6236 9.4048-1.4321 2.2747-3.3136 3.5141-5.6446 3.7181-2.2537.1973-4.2054-.5419-5.8553-2.2173-2.0309-2.076-3.229-5.201-3.5943-9.3749-.3468-3.9625.2398-7.2029 1.76-9.7213 1.2458-2.0669 3.0427-3.203 5.3908-3.4086zm.2648 1.8736c-1.318.1154-2.3061.8686-2.9641 2.2596-.6581 1.3911-.7959 4.2722-.4133 8.6433.3741 4.2739 1.0209 7.0561 1.9405 8.3466s2.0231 1.8794 3.3107 1.7667c1.2939-.1133 2.2438-.8122 2.8497-2.0968.7578-1.6153.9548-4.5021.5908-8.6604-.3762-4.298-1.0355-7.1104-1.9779-8.4372-.9424-1.3267-2.0546-1.934-3.3364-1.8218z" fill="#eac102"/><path d="m323.4943 241.7324c1.7234.3848 3.0409 1.1014 3.9524 2.1497s1.4183 2.3391 1.5204 3.8724c.1245 1.8708-.3716 3.552-1.4883 5.0436-1.4287 1.9085-3.5744 2.9581-6.437 3.1487-2.5188.1677-4.5588-.3125-6.1201-1.4407s-2.4033-2.6134-2.5259-4.4558c-.0918-1.3798.2549-2.6134 1.0403-3.7009.7854-1.0874 2.107-1.9514 3.9648-2.5917-3.0036-.8976-4.5978-2.7344-4.7826-5.5103-.1196-1.7961.4742-3.3905 1.7813-4.7832 1.3071-1.3926 3.0271-2.16 5.1601-2.302 1.4487-.0964 2.7358.0726 3.8613.5072s2.006 1.0729 2.6415 1.9148.9853 1.7442 1.0495 2.707c.1482 2.226-1.0577 4.0398-3.6178 5.4413zm-1.7553-.6068c.9718-.6677 1.6229-1.3152 1.9533-1.9424s.4624-1.4402.3959-2.4392c-.0864-1.2981-.514-2.2689-1.2826-2.9125-.7686-.6435-1.8489-.919-3.2408-.8264-1.3606.0906-2.3889.4815-3.0847 1.1726s-1.0091 1.5571-.9398 2.598c.0693 1.0402.4499 1.8459 1.142 2.4171.6921.5713 2.3776 1.2155 5.0566 1.9328zm-2.6492 3.3643c-1.3762.714-2.3242 1.4798-2.8438 2.2977-.5197.8178-.7413 1.8012-.6648 2.9501.0996 1.4963.6039 2.6183 1.513 3.366.909.7477 2.1884 1.0666 3.8382.9568 1.7535-.1167 3.0778-.6117 3.9727-1.4849.8949-.8731 1.2978-1.9801 1.2085-3.3208-.0794-1.1929-.5531-2.074-1.421-2.6432s-2.7355-1.2764-5.6029-2.1217z" fill="#eac102"/></g><path d="m1.5 250c0 137.243 111.257 248.5 248.5 248.5s248.5-111.257 248.5-248.5-111.257-248.5-248.5-248.5-248.5 111.257-248.5 248.5z" fill="none" stroke="#000" stroke-linecap="round" stroke-linejoin="round" stroke-width="3"/></svg>