<?xml version="1.0" encoding="utf-8"?><!DOCTYPE svg PUBLIC "-//W3C//DTD SVG 1.1//EN" "http://www.w3.org/Graphics/SVG/1.1/DTD/svg11.dtd"><svg viewBox="0 0 600 600" xmlns="http://www.w3.org/2000/svg"><path d="m.5 300 299.5 299.5 299.5-299.5-299.5-299.5z" fill="#e5e5e5" stroke="#000" stroke-linecap="round" stroke-linejoin="round"/><g stroke="#000" stroke-linecap="round" stroke-linejoin="round"><path d="m180.1992 479.7 119.8008 119.8 119.8008-119.8z" fill="#c87137" fill-rule="evenodd"/><path d="m342.6039 389.3726c-1.9542-1.7373-2.4794-4.4683-5.1424-5.433-5.1612-1.8698-7.3152-.6774-12.8722-3.8426 1.3498.3241 4.149.1646 5.8451-.2582-.4914-.3414-2.3775-1.5269-2.7858-2.0717 1.1607.1243 2.6712.3978 3.6025-.0657-2.8331-2.1644-9.353-6.7013-10.086-7.1081-5.9882-3.3236-7.9761-1.541-11.0725-4.3205.9891.2258 2.0357.3573 3.0545.3357-.8233-.7454-1.6314-1.8197-1.845-2.591.7049.4377 1.4762.7422 1.9048.9484-1.1643-5.3209-5.0376-8.8552-5.5324-14.6253l-.4627-2.381c-.1108-.73-3.1895-3.086-1.3017-4.3607l2.4589-.59 2.5403-.3814 2.4068.9997c1.35 1.2057.3451 2.9365.5699 4.4937.4716 3.2677 2.0493 6.3041 2.4241 7.3321 1.0792 2.9603 3.9699 6.8792 5.3059 7.7255 5.7495 3.642 10.7844 6.4095 15.172 6.6223 7.005.3399 12.4859.9443 18.009 5.7716" fill="#c87137" fill-rule="evenodd"/><path d="m257.3962 389.3726c1.9542-1.7373 2.4794-4.4683 5.1424-5.433 5.1612-1.8698 7.3152-.6774 12.8722-3.8426-1.3498.3241-4.149.1646-5.8451-.2582.4914-.3414 2.3775-1.5269 2.7858-2.0717-1.1607.1243-2.6712.3978-3.6025-.0657 2.8331-2.1644 9.353-6.7013 10.086-7.1081 5.9882-3.3236 7.9761-1.541 11.0725-4.3205-.9891.2258-2.0357.3573-3.0545.3357.8233-.7454 1.6314-1.8197 1.845-2.591-.7049.4377-1.4762.7422-1.9048.9484 1.1643-5.3209 5.0376-8.8552 5.5324-14.6253l.4627-2.381c.1108-.73 3.1895-3.086 1.3017-4.3607l-2.4589-.59-2.5403-.3814-2.4068.9997c-1.35 1.2057-.3451 2.9365-.5699 4.4937-.4716 3.2677-2.0493 6.3041-2.4241 7.3321-1.0792 2.9603-3.9699 6.8792-5.3059 7.7255-5.7495 3.642-10.7844 6.4095-15.172 6.6223-7.005.3399-12.4859.9443-18.009 5.7716" fill="#c87137" fill-rule="evenodd"/><g><path d="m314.6186 359.4266c-.2969-3.0348.7341-13.8086.7366-21.7908l-1.0967-9.8188c.4735-4.839-1.2016-8.2156 1.3063-11.4853 2.5091-3.2711 12.0468-7.2918 22.8019-13.8535 15.5642 2.8057 20.1834 4.3979 28.6542 3.0101l-.4061-3.3385c-6.3068.4661-9.5608-2.1274-20.3808-4.3194 13.5807-9.1089 30.7318-19.7968 46.766-24.2349l-1.1182-4.4575c-7.3936-.5795-30.947 14.6402-32.9865 11.0894 4.7503-8.0597 9.4861-17.0684 12.7742-23.4576l-2.9381-2.0194c-4.7413 4.9599-22.8331 30.7503-25.3676 33.0969-7.2704 6.7307-25.4996 16.2703-29.3577 16.3091-.1177-11.2033.2053-11.9349.1985-16.3569 2.5272-1.693 34.3965-21.2354 38.6557-23.5348l-1.2103-4.5822c-2.5368.4085-30.1409 17.2462-37.0613 19.0449-.6005-10.3604-.4066-33.4148 2.9939-42.5692.8986-2.4191 6.2496-13.5519 8.0395-14.846l-3.4262-9.8023c-1.9403 1.0285-13.8247 18.4627-17.0545 16.821-3.8474-1.9557-15.1663-13.4834-18.1323-16.821l-7.7553 1.0134c.2882 3.398 6.371 13.3747 7.1586 16.6815 1.2656 5.3131 2.201 26.9254.4096 36.1739 1.574 9.2228-.3288 12.6869-.2142 19.0478.047 2.5903-.2044 7.2234-1.2888 10.145-6.2507-7.0529-8.6784-6.8773-8.6409-11.0953.043-4.8631-2.316-22.7995-2.7925-24.6436-3.0993-11.9942-16.4498-24.4419-18.3728-26.2133l-6.0134 3.0547c2.7429 2.4174 11.9883 12.9972 13.647 17.1094 3.8146 9.4574 4.7356 30.0964 4.1899 29.8995-5.7243-4.2219-12.8213-7.3339-17.7391-9.9265-1.5727-.8291-10.0172-22.9987-15.56-29.2898h-5.7071c3.8941 8.8214 9.0016 16.1106 12.0149 26.5996-7.7857.1947-15.6194-2.3925-33.3451 6.1345l1.9703 5.0549c16.1291-4.9238 29.1728-5.6172 40.833.119 12.673 6.2346 22.4791 13.3428 34.0868 25.9443 1.7682 1.9197 1.9269 3.6043 1.6147 12.5021l-.7385 6.5886c-.1621 1.7719-.1268 9.087-.1268 11.2264 0 12.5604 1.2958 27.33.4725 51.1675-.49 14.1844-.4751 53.678-.4751 69.8448 0 15.4055-6.5919 20.5045-19.6244 23.8617h17.0323c2.6605 0 5.3162-2.252 7.9741-2.8102.4471.4921 1.4648 2.8102 3.1777 2.8102h13.3036c2.3409 0 3.2671-2.282 4.8701-2.8102 1.9581.8781 5.7966 2.8102 9.306 2.8102h14.3005c-11.5684-3.1866-19.6244-8.3311-19.6244-23.8617 0-13.7584-.3827-44.5561-.751-50.9394-1.3393-23.2106.8853-39.4072.017-48.2821z" fill="#c87137"/><path d="m227.6188 176.0982c-7.6794 4.9413-2.5346-9.595-8.1717-8.2841-5.5557 1.2919-6.0693-2.0591-7.1563 1.1712-1.415 4.2048-2.773.6514-5.4394-.3629-5.7277-2.1787 1.4596 3.1742-3.2588 2.9877-5.2405-.2071-.2993.5847-2.2878 3.5063-6.6899 9.8285 1.9638-12.7972-4.7188-2.6271-.9895 1.5059-10.7285-5.2026-15.1045-2.8857-3.073 1.6269 2.8997 3.5049-1.4261 3.5429-6.3616.056-11.4955 1.68-5.8994 4.4353 2.7169 1.3378-2.3302 6.414-5.1017 4.1715-3.7101-3.0019-2.9713 1.1632-7.4369 3.094-4.0206 1.7384-4.3814 2.9622.8262 2.6382 7.2657-.4521 1.2852 3.0564 4.5339 4.0948 3.7744 1.2063-4.323 2.9045-7.4205 3.4369-5.8766 1.01 3.7912 3.779 1.7138 4.1115-3.9578.6334-6.8317-.3015-10.0513-.601-4.4292-.4121-8.3883 3.6391-.285 4.9692 9.1431 1.5008-6.6812.3999-3.6711 3.2648 1.126 1.0717 3.4694-.1033.061 2.1419-3.5141 2.3152-11.5353-.9209-10.734 3.6048 1.0528 5.9468 1.1616 4.8991 0 7.6042-.5547 1.2916 3.9005.2341 3.7782 1.5348-.1686 1.7842-9.8688-.9501-9.8688 2.1077 0 3.1736 7.2093 2.7932 5.9277 4.6865-2.537 3.7483-5.2059 3.4168-2.6927 5.6228 1.7674 1.5513-3.2372 4.505-.5654 5.5674 9.2886 3.6936-2.6696 4.3347-2.6696 6.2399 0 2.5528 7.4972 2.1833 4.0968 6.6842-1.1603 1.5357 4.2028 1.7049 7.1541 1.3113 8.9956-1.1995-5.864 6.8916 2.8273 7.4475 5.1319.3283 2.0592 14.1225 6.5978 8.324 4.6093-5.889-1.3119 6.6363.8521 5.6757 2.628-1.1665 4.9148-3.6647 4.8502 1.778-.029 2.4721 7.3229-.6271 3.1042 3.4748-3.9028 3.7948 13.3126.1146 13.194.4919-1.926 6.134 11.3123 4.4864 15.4571.0652 1.55-1.6535-3.4774 10.5358 1.9629 7.7678 4.9045-2.4953 2.0029.3265 3.612 2.2497 3.1803 3.8008 8.7425-8.4592 6.1492-1.7498-.8998 2.3284-2.0965 6.1178 1.7747 6.1178 4.1137 0 2.0691-9.1361 5.7983-8.1502 10.2216 2.7024 7.5042-1.49 8.276 2.2531.9439 4.5788 1.8388 2.7755 4.4966.3762 2.7733-2.5036 3.7191-1.5916 5.8266-2.0513 7.5767-1.6529-1.2756 7.5721 4.2066 7.5721 4.706 0 5.4566-4.5466 8.2461-5.3856 4.7988-1.4435 1.8323-6.3823 3.6951-5.23 5.972 3.6943 2.9646-5.3703 9.401-.9091 2.0137 1.3956-2.1057-6.306 4.2104-8.1201 4.361-1.2526 1.6284-1.774 3.6997-5.433 1.9943-3.523.2799-4.7521 5.1096-5.8595 5.9445-1.363 1.1234-1.2553 5.8057-.2061 4.2595.9545-7.6048-10.0832.3307-7.3197 6.7798 2.3611-.623-5.2232 3.4087-8.6119 4.4801-3.7656-9.0278-4.8889-9.0409-7.6254 0-1.0792 2.4946-1.1066 3.5472-1.9538" fill="#008f4c" fill-rule="evenodd"/><path d="m437.7798 206.0214c-.3152 2.4161 13.8993-1.5195 12.4663 3.118-1.7672 5.7195 12.5474-3.8846 10.8497 1.2604-1.4504 4.3954-2.3796 4.3017 3.1754 4.7365 4.903.3838-4.5493 1.7277-1.8805 6.3218 1.36 2.3413 7.1094.1332 7.1094 3.3801 0 3.1848-3.968 4.4395-5.1979 7.41-.7523 1.8166 4.1881 3.3059 1.0943 5.445-2.7955 1.9328 4.1036 5.1141 4.1036 7.3298 0 3.7115-8.2603 4.1976-5.5984 6.6562 3.1435 2.9033.2378 3.452.6948 4.6512 1.1688 3.0665-11.4549-3.7453-8.2331 2.376 2.9602 5.6243-7.7826.0257-6.8311 1.1992 3.2698 4.0315-4.8185 3.94-2.758 4.5133 8.2532 2.2961-3.7182 5.2633-2.9539 5.8775 4.157 3.3403 1.0434 6.781-5.2553 4.962-3.6587-1.0566 8.8293 5.202 1.2657 5.5586-3.8949.1836-4.0574-2.1373-2.8772 2.2496 1.0502 3.9034-10.313-1.0039-9.5159-.5997 6.4127 3.2522.041 6.2437-4.4428 3.1923-2.5569-1.7402-2.6784-3.4746-6.7033-2.5147-4.2179 1.0059-2.4795-1.7291-2.9096 1.5036-.7158 5.3809-10.9507-4.0999-9.2177 1.853 1.7914 6.1534.4434 9.0087-1.6467 9.0087-3.9433 0-6.6164-4.3677-9.1741-4.2378-4.9605.2519-1.2924-2.6493-5.4989-5.6013-3.0509-2.141-9.6321-.3345-2.6865 1.7633 2.9597.8939-8.5597 1.8648-2.0544 3.8118 2.5936.7763-.5704 4.2823-3.2333 3.4393-3.2885-1.0411-3.8539.8248-6.5919.8248-3.2837 0-5.3031-3.3738-8.4502-5.4284-2.4558-1.6032-1.6168-2.7056-6.3049-4.1727-6.2561-1.9579 3.0761-3.1293-2.3968-4.9397-1.7245-.5704-3.2875-4.5661-4.9211-3.3888-2.4911 1.795-5.7216-3.2357-7.8256-.5375-2.4599 3.1545-4.0261-6.2761-5.0024-5.579-2.8797 2.0561-9.5022 4.0127-9.1588-.2509.09-1.1317-4.2443.2389-6.7439-1.2674-4.0247-2.4253-9.606-2.6732-9.3135-6.426.2862-3.6739 19.1518-7.3386 17.6677-9.1588-.8347-1.0235-8.7271-2.1896-10.141-2.5567" fill="#008f4c" fill-rule="evenodd"/><path d="m312.5786 255.2889c3.6705-.6269-.9682 5.2494 5.7708 3.6665 8.9494-2.1022-4.5324 4.7692 2.8897 4.0319 5.0899-.5056 2.1432 1.314 9.3102 2.7243 4.3508.8561 2.3308-5.1979 5.0623-.0855 2.5744 4.8185 4.0858-1.9514 8.4224 3.8275 1.9788 2.6367 5.6804-5.8746 10.7129-2.2936 5.4765 3.8969 10.2462-3.0264 16.5039.8986 3.9514 2.4784 3.1506-9.3926 7.6326-3.0473 4.0378 5.7166 5.7916-3.2474 12.8951-2.1957 5.8276.8628-6.4611-7.2444 2.0439-6.4125 3.9131.3827 7.3036.0961 3.6395-2.8638-3.1428-2.539-1.7249-1.7712 2.3318-1.9222 1.931-.0719 1.0615-5.5134 3.9493-1.8278 3.2675 4.1704 7.6859-4.5545 7.851-4.4659 5.1422 2.7552 10.7899.1792 7.128-4.6271-2.0159-2.646 8.7241 6.0471 8.6435.1605-.041-2.9454-2.4243-2.7342 3.135-2.5123 5.672.2264-2.6207-7.6579-1.7633-6.9887 5.2982 4.1354 9.739-.7667 4.5049-3.7607-2.7415-1.5682-5.8676-.3094-4.4813-4.6232.567-1.7639-1.3296-4.9466 2.033-2.3974 5.2961 4.015-6.8696-8.8019 2.5248-6.8208 7.0435 1.4854.8131-7.2633 8.3138-3.1396 7.5039 4.1255 1.3968-4.8176.5539-7.2098-1.3307-3.776-7.5856.4715-12.1303-1.9923-3.9998-2.1685-1.2861-6.903 2.3754-2.2883 2.0153 2.5399 1.2829-6.0431 6.0242-1.7587 2.3057 2.0835 8.8007-2.8962 3.6596-4.9528-4.6245-1.8499 5.8591-3.8788-1.5485-4.5948-3.8482-.372-3.0523-1.2623-5.6287-4.1611-2.603-2.9289-7.0322 1.1437-9.8968-2.0735-4.1751-4.6888-5.7734 3.0817-7.7677-2.1217-1.4497-3.7825-3.2936-1.6052 1.8183-2.8118 1.5991-.3775-15.736-.3122-10.1901-2.2795 6.7267-2.386-10.5107-1.7893-9.2335-2.7324 2.9012-2.1425 5.5867-3.4261-.9-2.5587-4.2539.5689-3.884-1.7854-6.4338-2.6178-5.2615-1.7177-3.7761 7.4912-6.9954 6.6086-1.2611-.3457-.5848-2.1677-1.2952-3.1704" fill="#008f4c" fill-rule="evenodd"/><path d="m340.7157 158.4688c2.3994.6586 1.4156-3.8653 5.5571-2.5926 5.7079 1.7541 2.7752-5.9792 8.4653-5.954 3.0637.0136 3.5273 3.2569 6.1364-.2969 2.7977-3.8106 2.0227 3.5251 6.0444-.2786 3.7944-3.5887.6773 6.3295 5.332 2.1978 1.7969-1.595 1.5352 4.5672 6.224 1.925 5.3858-3.0351 6.5057 2.3899 11.559-.0302 6.2301-2.9834-.2954 6.4603 5.1695 2.3414 3.7581-2.8324 3.205-.5463 5.0765 1.107 1.5829 1.3984 7.3648.4329 2.5353 3.1139-6.1955 3.4394 4.4089 1.8341 3.342 3.1611-1.3085 1.6276-7.1924 3.7556-1.6729 2.874 2.117-.3381-1.6689 4.4862 2.8521 1.286 3.7469-2.6522 5.6451 1.1127 5.9069 1.0178 6.1427-2.2283 7.3088 1.4801 2.6899 4.3362-1.6308 1.0085 9.624-3.5167 6.3805.0655-2.5452 2.8108-.8821 1.0065 1.6505 1.6418 3.6825.9238-9.3383 6.4415-2.4292 3.9862 6.2528-2.2221 1.1124 3.1609-2.623 4.6368-4.4135 1.7437-6.1232 4.1167-2.5373 4.2634 3.5127.1437-1.2641 2.0152-2.921 3.6494-1.8055 1.7809 1.2819 1.9628 1.7834 3.1998.8768 2.1631-2.3784 4.7865 2.7589 2.9384 6.2527-2.2494 1.3865 1.3898.1765 3.0034-2.4395 3.2532-5.0498-.3504-9.7374 1.4241-3.0475 1.1537-3.9443 5.2721.2515 2.0443 3.0479-2.3447-1.5424 4.5671 3.9774 1.2308 2.6327-1.5913 4.5129 2.6734.1482 3.9872-3.4137 1.0278 2.8852 2.7257-2.2856 3.0993-3.1573.2281-3.6962 1.0593-5.8365 2.9798-1.6636 1.4927-4.5478-1.4632-7.6005 1.0867-2.5349 2.1173-3.5921.3469-4.8697-1.3565-.8443-1.1258-8.4214-.0199-7.9483 2.1615.4785 2.2071 2.4495 3.5319 1.0245 4.0399-5.0956 1.8166.066 2.7025-1.1066 3.8274-2.2175 2.1252-8.0101-3.0817-6.725.9805 1.1267 3.5613-10.0235-4.7844-14.3182-2.629-6.2059 3.1147-2.9388-9.1108-8.3345-1.747" fill="#008f4c" fill-rule="evenodd"/><path d="m243.003 254.3002c3.4326-.5519 6.9052 11.8286 13.2072 10.4353 8.3692-1.8504-4.6258 7.7499 2.3151 7.1009 4.7582-.445 6.5013-2.9848 7.4154 1.0663.8427 3.735 2.1803-4.5754 4.734-.0781 2.4081 4.2411 5.4995-3.9375 9.5551 1.1491 1.8502 2.3208 3.3787-6.742 8.0854-3.5896 5.1211 3.43 7.049-2.6645 12.9007.7906 3.6939 2.181 8.0127-6.2136 12.204-.6287 3.7762 5.0318 1.7785-.4743 8.4215.4516 5.4498.7596-4.9376-4.9962 3.0159-4.2642 3.6595.3368 6.8308.0867 3.4037-2.5207-2.9383-2.2354-1.6133-1.5589 2.1805-1.6919 1.8059-.0633.9914-4.8522 3.6915-1.6089 3.0566 3.6717 7.1893-4.0089 7.3439-3.931 4.8088 2.4255 10.0904.1579 6.6658-4.0729-1.8851-2.3289 8.1585 5.3228 8.0832.1413-.038-2.5925-2.2674-2.4066 2.9318-2.2113 5.3044.1993-2.4522-6.7416-1.649-6.1517 4.9553 3.6391 9.1076-.6748 4.2128-3.3104-2.5638-1.3804-6.101-.4246-4.1907-4.0695.5456-1.0413-1.696-2.1614 1.9011-2.1102 6.9395.0988-6.4243-7.7474 2.3611-6.0038 6.587 1.3073.7601-6.3929 7.7749-2.7631 7.0173 3.6312 3.206-5.9415.5178-6.3465-19.5381-2.9437-6.7611-7.1871-3.4888-5.3157 2.5575 1.4626 8.2304-2.5498 3.4224-4.36-4.3247-1.6282 5.4794-3.4142-1.448-4.0442-3.5987-.3273-2.8546-1.1106-5.2639-3.6627-2.434-2.5782-6.5762 1.0065-9.2552-1.8252-3.9044-4.127-7.5392 3.1968-9.3542-1.3966-.6282-1.5904-.9899-1.8839 3.7905-2.9458 1.4957-.3323-9.5272-8.3668-4.3407-10.0984 6.2906-2.1002-8.9164.1516-7.722-.6785 2.7131-1.8858 4.3114-4.7426-1.7547-3.9789-3.978.5009-3.6322-1.5715-6.0168-2.3043-4.9203-1.512-7.1832 5.3377-10.1938 4.561-1.179-.3042-.5469-1.9078-1.2112-2.7905" fill="#008f4c" fill-rule="evenodd"/><path d="m179.0175 206.8798c-3.6384-2.798-8.3159 1.8582-3.8965 6.8665 1.0382 1.1763-9.9523.2184-10.2914 1.6111-.438 1.7985 7.7425 4.6202 4.2571 4.1737-4.614-.5911-13.4706 1.6613-10.151 2.5057 3.3754.8585 5.7942-.196 6.3237 1.6084.564 1.9227-6.0874 2.412-5.0111 4.1721.7591 1.2416 3.8859-1.8412 4.8884-.7295 1.0225 1.1339-2.8561 2.5569-2.175 3.8609.8923 1.7086 5.6858-.1478 6.3452 1.6345.4102 1.1088-3.059 1.6511-2.5598 2.7336.8551 1.854 5.3412-.4854 6.9798.9446 1.6563 1.4454-.5237 4.3725.8982 5.9863 1.1758 1.3345 4.2503.674 5.4021 2.0237 1.1229 1.3162-.9719 3.8536.549 4.8446 2.0497 1.3353 6.0812-2.7809 7.6655-1.0521 1.2846 1.4016-3.5845 3.331-2.5365 4.8665 1.1233 1.6457 4.7138-.2521 6.7067.6284 1.6509.7293 1.8107 3.5488 3.6738 3.557 2.373.0102 2.3635-4.5104 4.7363-4.4881 2.3282.0219 2.2057 4.6006 4.5302 4.4893 2.0972-.1005 1.4316-4.6154 3.5186-4.4146 1.2006.1156.2349 2.37 1.2953 2.859 1.5845.7305 4.345-2.2282 5.3012-.9353.7308.9881-1.8277 2.3083.4848 3.9615 2.743 1.9608 2.5456-1.6749 6.0467-.6895 2.7515.7745 1.4778 6.9016 3.8738 5.1528 1.7612-1.2856 3.4786-2.539 5.2841-3.8567 1.8303-1.3359-2.8702 4.1847.8625 6.0016 2.0676 1.0064 3.451-3.9097 5.3726-3.0717 1.0289.4487-.7918 2.2869.077 2.9329 1.0017.7444 2.8779.279 3.9808-.3553 1.6744-.9629.9017-5.1291 2.8081-4.551 1.256.3809-1.2277 2.2309-.8315 3.307.285.7744 1.1364 1.5874 2.0912 1.6736 1.6543.1494 3.3778-.9992 4.2663-2.1869 1.3225-1.7676-1.4672-5.3163.754-6.2396.793-.3296 1.4137 1.4085 2.2543 1.1783 1.2868-.3524.1902-3.0993 1.5404-3.1707 1.3555-.0717.8458 2.3973 2.0046 2.9954 1.07.5523 2.7975.8097 3.759.1297 1.0984-.7769-.6176-2.9324.5802-3.5964 1.1304-.6268 3.1239-.007 3.9063.9252.5988.7129-1.0161 2.0824-.1969 2.6166 1.7865 1.1652 4.5002-2.7818 6.4306-1.7935 1.878.9615-1.0054 4.8631 1.0611 5.4909 2.1914.6658 3.5834-2.5184 5.2608-3.8827 1.2143-.9876 3.6181-1.69 3.4689-3.108-.1499-1.4289-3.2331-1.3263-4.0941-2.5629-.8805-1.2646-1.6233-3.1338-.6764-4.3639.9594-1.2463 3.8773-2.3641 5.0637-1.2658 1.0543.976-2.7127 2.647-1.7392 3.6809 1.2744 1.3532 4.889-2.1995 6.0707-.7877.7383.8821-2.2945 1.8535-1.8151 2.8549.7347 1.5345 3.7794 2.1252 5.6005 1.5133 1.6984-.5707.9609-3.4591 2.6467-4.0556 1.2474-.4413 2.9572 1.7389 3.9066.9254 1.713-1.4679-3.3267-4.1559-2.0806-5.9281.6452-.9174 3.3965.3638 3.7064-.6706.5216-1.7416-4.701-1.7068-4.8544-3.4986-.085-.9951 7.1172-3.3657 7.4134-4.3317" fill="#008f4c" fill-rule="evenodd"/><path d="m250.1792 157.9392c-9.4077-1.6344-15.4483-4.1759-16.3798-5.1642-1.2717-1.3493-3.9283 1.2615-5.4283 2.532-2.0551 1.7408-8.4172 1.297-4.8414-.5159 5.9322-3.0075-8.7906-3.6337-9.0061-2.3849-1.1175 6.4757-6.0332 1.7088-6.6107 1.6909-1.6718-.0517-2.6079-.1123-2.1216 2.1953 1.1189 5.309-7.9888-4.0063-9.8168.1343-1.2066 2.7331 4.4366 4.9054-2.1448 4.9114-5.9212.005 5.6208 1.9922-.4527 2.9093-6.7182 1.0145 5.1248 4.4837-2.6548 5.8952-2.6754.4854 6.6289 3.5055 1.9054 5.9623-3.9406 2.0495.024 4.3966-.6429 7.3227-.7256 3.1887-5.1257 4.4031.6599 5.3995 7.3732 1.2697-8.8777 3.0392-1.2039 5.4503 4.535 1.4249-.7563 8.0894 5.9353 5.1952 7.7043-3.3322-.3183 6.601 5.756 4.0145 2.6156-1.1138 4.9846-2.0907 2.9931.8629-1.048 1.5545 7.3178 1.3616 1.6951 2.9685-5.0317 1.4381 4.6757 4.9983 4.5631 5.0775-3.9236 2.7606-2.1645 6.7181 3.5036 5.2233 3.39-.894-6.6613 3.9692.2359 4.4972 3.4653.2653 3.6887-1.8249 2.664 2.1202-.9478 3.6492 9.344-.6562 8.6315-.3106-5.8049 2.8158.031 5.7109 4.0687 3.033 2.3003-1.5256 2.385-3.1286 6.0557-2.1359 3.7077 1.0027 2.2515-1.4669 2.6687 1.4457.7152 4.9938 11.261-3.1553 8.3951 1.9249-3.0712 5.4447 8.591 1.4402 2.2284 5.7623-5.0603 3.4373 7.9927 3.5107 8.252 1.3644.9623-7.9683 3.3738-6.4065 6.0526-5.238 2.4469 1.0675 7.6118 1.1899 1.4834 3.718-2.2137.9132 2.5826 5.4631 5.6061 2.6639 2.7124-2.5111 4.854 3.2269 6.4771-1.0213.8792-2.3012 1.6526-2.0907 5.6077-2.8534 2.4725-.4769-1.4347-4.1367 3.2171-5.3548 5.9214-1.5505-5.2552-6.138-.3182-7.301 2.4588-.5793 6.5973 1.1176 6.8854 2.2239.9599 3.6856 2.2315-.3498 4.1845.6679 1.985 1.0342 2.5289 4.4607 3.2914.81.4795-2.2959-2.7762-5.8875 1.7677-2.975 5.5404 3.5513 2.0323-.5198 7.408-2.4754 3.6961-1.3447-6.417-5.2825-5.0917-6.9375" fill="#008f4c" fill-rule="evenodd"/><path d="m351.4806 185.6808c-2.1343-1.4938 4.5635-2.7875.4616-5.461-5.1453-3.3534 9.707-1.3724 7.3654-4.9292-1.7671-2.6838-1.9126-3.9272 2.6936-6.7234 4.7698-2.8955-3.1485-4.9186 1.1546-8.7233 4.0333-3.566-7.4788-.8541-2.6394-5.4639 1.6371-1.5594-8.0176.1497-5.8821-3.8163 2.4367-4.5253-6.7544-3.8936-5.1468-8.0381 1.9832-5.1128-10.1796 1.856-6.0743-2.9741 2.8967-3.4083 1.6663-2.3715-1.8227-3.236-2.7267-.6756-3.9948-5.0181-6.1298-.9425-2.72 5.1921-4.7681-2.6787-6.5665-1.4897-1.8887 1.2487-2.8137 5.8861-3.8559 1.9161-.452-1.7217-6.61 2.5602-3.3412-1.6418 2.4734-3.1795-4.5078-1.291-4.4734-1.498.8104-4.8532-3.4396-4.6644-5.926-.7289-.8705 1.3776 2.1221-5.421-.6988-5.421-3.7651 0-4.5678 2.7424-7.9018 2.0884-2.6619-.5222-3.0953-2.0884-5.8221-2.0884-2.804 0-9.098 1.3743-8.0481 4.512.4797 1.4339-.3778.8519-3.2965 1.48-2.8673.617-.6466 5.422-2.6252 2.8138-2.015-2.6558-2.7761 1.5038-4.5357 2.9874-2.499 2.1072-2.0684-3.0495-3.6636-3.0657-3.3264-.034-9.3494 3.0605-8.6973-.9949.7952-4.9459-5.1194 2.0729-7.159 3.3355-4.1203 2.5505 2.849 3.3335 2.0947 7.1389-.5067 2.5557-6.845 4.3157-3.3906.3617 2.2841-2.6144-6.7461 2.4762-3.7588-2.4388 1.349-2.2196-6.3122-2.4749-6.457.9443-.1107 2.63-5.7-1.3621-3.94 2.4026 1.0227 2.1876.5139 2.3264-2.1533 4.8377-1.7747 1.6709 4.6118 2.5441 1.6737 5.5646-2.1246 2.1843 1.254 2.612 4.3624 3.0255 1.9038.2533 2.682 2.0702-1.0196 2.3145-3.0523.2015-6.7272-.9929-6.935.3503-.6342 4.0999-3.9978.3465-5.6374 1.7743-2.2146 1.9283 8.6266 4.7515 1.4514 4.929-6.0838.1506 5.3323 3.0673 2.0541 6.9612-2.4535 2.914 9.6863 1.3143 8.9819 3.4547-.2911.8843-.2378 1.3624.4334 2.243" fill="#008f4c" fill-rule="evenodd"/><path d="m353.8725 206.9978c-2.0817-1.3677 4.1365-.9336 1.6166-4.1573-4.4003-5.6293 8.733-3.6655 6.4027-6.9872-1.6154-2.3028-6.3049-2.8002-1.8343-5.3479 4.6734-2.6633-4.4735-1.2614-.2815-4.741 3.9377-3.2684-7.192-.8651-2.5757-5.0024 1.6569-1.4849-7.8147.1298-5.7357-3.4938 2.3806-4.1498-6.5889-3.5634-5.0203-7.3589 1.934-4.6796-9.9432 1.7174-5.9231-2.7228 2.8075-3.101-.5828-2.1777-3.9573-2.9626-2.7268-.6343-3.8995-4.5859-5.9776-.8628-2.6577 4.7612-4.6895-2.4289-6.4053-1.3637-1.8832 1.1691-2.7385 5.4016-3.7596 1.7541-.4314-1.5406-6.3845 2.2678-3.2606-1.503 2.4589-2.968-7.4118-1.1816-7.3779-1.3714.7925-4.4429-5.5262-4.2807-7.9571-.6674-.855 1.2709 1.4434-7.0809-2.8977-4.0412-3.1503 2.2059-1.4758.6038-3.2912-.6544-3.2817-2.2744-5.9696 7.4752-5.1651 2.5036.7343-4.5384-7.1047-.0645-6.0986 2.784.4668 1.3216.2832 1.4944-2.6762 2.0921-3.0326.6125-.9056 2.9857-2.8721.5521-1.9143-2.369-2.634 1.3181-4.4241 2.7349-2.3261 1.8412-1.8638-2.7902-3.5739-2.8065-3.3164-.0318-6.4373 2.6554-5.8022-1.0484.777-4.5332-4.9925 1.8973-6.9827 3.0536-4.0181 2.3345 2.767 3.1049 2.0425 6.5356-.4916 2.3276-6.616 3.8886-3.3048.3313 2.275-2.4442-6.5363 2.1864-3.6677-2.2329 1.3419-2.0673-6.1574-2.2636-6.2979.8646-.1073 2.3995-5.5496-1.2305-3.8431 2.1995 1.0028 2.0158.3664 2.2505-2.0988 4.429-1.7449 1.5419 4.4269 2.398 1.632 5.0942-2.1306 2.0554 1.2189 2.3907 4.2554 2.7698 1.9418.2425 2.6774 1.8915-.9949 2.1189-3.104.1923-6.5699-.8645-6.7646.3207-.6171 3.7543-3.9805.3848-5.4973 1.6245-2.2466 1.8361 8.4147 4.3499 1.4156 4.5124-5.943.1381 1.7207 2.9824-1.3202 6.373-2.4563 2.7388 9.4518 1.1921 8.7612 3.1628-.2729.7783-.9037 2.8583-1.5323 3.5381" fill="#008f4c" fill-rule="evenodd"/></g><g><path d="m382.0336 436.321c-7.727-4.2061-15.5189.6397-6.3872 4.851-4.7336 2.6367-3.873 9.4979-4.5688 14.1888-.2598 1.7538-1.6689 2.9986-2.8618 3.9003.1405-.571.1863-1.2401.0458-1.9184-1.3146-.5044-3.1294-.0833-4.3539.505-1.4892.7156-2.3139 2.9417-4.8758 3.1167.3838-.7449.657-1.4914.8277-2.101-4.9888.0952-7.8156 4.552-10.3818 3.4241-2.5155-1.1056-4.2119-3.2213-5.8751-4.1534l-2.0774-1.2521c-.616-.4068-4.4279.2995-4.109-1.9559l1.2098-2.2205 1.4192-2.1412 2.355-1.1164c1.7995-.1942 2.4345 1.6772 3.7174 2.5882 1.8483 1.3124 3.7141 2.3997 4.4981 2.5652 1.659.3487 9.128-2.7788 11.6037-4.9606 2.066-1.8208 2.1814-6.8091.4614-9.9017-7.6678-13.7863-4.7369-27.6271 28.9802-21.2922" fill="#c87137"/><path d="m343.6025 458.1342c-.0735-.5119-1.1439-1.3036-2.0774-1.2521-.3932.7133-2.0664 1.5295-3.2703 1.3963 1.9747 1.266 4.8415.6179 5.3477-.1442z" fill="#e5e5e5" fill-rule="evenodd"/><path d="m337.4163 454.926c-1.0476-.5417-2.9435-.5629-4.2284.1035.9753-2.1465 3.7382-2.4125 5.4381-2.324.0408 1.0227-.755 1.8244-1.2097 2.2205z" fill="#e5e5e5" fill-rule="evenodd"/><path d="m334.614 450.2766c2.1103-1.8153 4.8129-.1886 5.4315.2876-.019 1.0043-.7267 1.7121-1.4192 2.1414-.2393-.9578-2.5816-2.5455-4.0123-2.429z" fill="#e5e5e5" fill-rule="evenodd"/><path d="m340.0456 450.5646c-.075-.864-.9625-3.2831-2.5242-4.3292 1.8762-.6287 4.1741 1.7048 4.8791 3.2126-.6525.6247-1.8988 1.2416-2.3549 1.1165z" fill="#e5e5e5" fill-rule="evenodd"/><path d="m403.7375 418.6856c2.2679-.1751 7.285-.6705 7.1093-4.7434.6005.1847 1.308.2206 2.025.3305.6358-1.6605.6145-3.6418-.833-6.0131.458.0698 1.0838.048 1.8476.0298-.8869-2.2264-3.0804-5.6425-4.2455-7.4921.8631.3383 2.4013.7508 3.3478.726-1.5563-2.0987-4.1096-4.7056-6.3173-6.5573.8025.009 1.7639-.1335 2.6785-.1734-2.3205-1.5621-5.7114-3.7432-8.3496-6.5898 1.1589.3837 2.8305.6995 4.1758.8457-2.4408-1.5729-6.8784-5.039-8.8567-7.1123 1.4549.3891 3.2134.6668 4.3768.557-1.9673-.9119-6.5513-3.8143-8.1882-5.3381.7555.1035 1.7189.2215 2.7947.1064-1.3623-.8524-3.2596-2.3257-4.5213-4.1081 1.079.4488 2.1138.5807 3.0095.5067-.8506-1.0716-1.8821-2.57-2.3564-4.1498 2.3004.6963 4.9533 2.5128 6.5975 3.821-.831-1.3578-1.5998-3.1211-2.0604-3.8417 1.3057.5507 4.9628 3.8805 5.5772 4.4715.0707-.6757.0583-1.5452.1044-2.1901 1.5782 1.3478 3.8687 5.0906 4.9206 7.0887.0967-1.0727.2429-2.6939.1418-4.2168 1.1004 1.2776 3.6666 6.5121 4.4096 8.486.4168-.9209.6212-1.9945.6384-2.7904 1.8846 3.4477 2.2097 6.2054 2.6513 9.5568.6376-1.2637 1.3616-2.9583 1.8542-4.3437.8659 2.7147 1.5875 6.795 1.3699 9.1075.4463-.3851 1.1598-1.1838 1.7498-2.0647.459 1.8297.5155 5.5787.1585 7.4408.7227-.4695 1.256-.9289 1.8938-1.5776-.0211 1.0999-.6758 5.5468-1.4375 6.9272.6431-.3073 1.3977-.8786 1.9967-1.4416-.8437 2.5369-2.163 4.5308-3.7459 6.2831.8076-.1786 1.9931-.4338 2.8029-1.0374-1.3617 2.096-3.0178 4.3131-4.7496 6.3796.9465-.3868 1.9371-.6314 2.7969-1.1565-4.6055 5.9933-11.5092 8.1925-14.7702 8.0634z" fill="#c87137" fill-rule="evenodd"/><path d="m392.9197 472.7677c1.2401-1.5419 4.434-.8178 5.8414.071-.2121.878-.9283 2.0701-1.3798 2.211-.5295-.6869-2.5823-2.2443-4.4616-2.282z" fill="#e5e5e5" fill-rule="evenodd"/><path d="m397.3814 475.0497c.526.8556.3121 1.8335-.0392 2.5685-.7185-.6773-3.5473-.7496-4.6886.1207.7969-2.6672 3.95-2.7565 4.7278-2.6892z" fill="#e5e5e5" fill-rule="evenodd"/><path d="m397.5219 480.1404c-1.1742.1095-2.7816 1.1149-3.5036 2.3694-.3376-2.3334 1.8448-4.0487 3.3235-4.8917.5863.8389.3491 1.9433.1801 2.5223z" fill="#e5e5e5" fill-rule="evenodd"/><path d="m404.4614 479.5021c-.3381-.3913-1.6667-.48-2.4246.0672.0541.8127-.914 2.4029-1.9995 2.9405 2.2833 0 4.4093-2.0931 4.4241-3.0077z" fill="#e5e5e5" fill-rule="evenodd"/><path d="m382.6633 429.4385-1.5317 1.1338c-.9472.559-4.335-.7816-5.391-1.8664-.7445-.7647.1678-1.5263.9174-1.4078-4.7902-2.8944-3.7653-5.8353-1.2988-5.4231z" fill="none"/><path d="m400.0425 438.8688c.1336.6949.3235 1.627.0992 3.0751 1.7198-1.9421 2.8305-4.7126 3.383-7.0831.2583.7544.7053 1.8825.912 2.5422 7.6744-11.0086 5.0466-23.5159-5.4091-34.2562-10.8121-11.1063-24.5799-23.2853-31.1678-41.9075l-8.1164-5.5848c-6.2198 2.4298-13.1035 3.1752-19.0505 8.9646-11.8881 11.5732-2.3039 18.8654 2.8123 24.5196 5.2341 5.7843 22.4955 20.0817 26.8272 27.0523 3.3364 5.3693 10.1577 11.7869 13.5072 14.672" fill="#c87137"/><path d="m356.7709 387.3002c-1.8931 1.8037-4.6582 2.1011-5.84 4.6751-2.2906 4.9887-1.2806 7.234-4.895 12.5099.4347-1.3183.5075-4.1211.2265-5.8464-.3809.4615-1.7185 2.243-2.2952 2.6047.22-1.1464.6176-2.6291.2328-3.5955-2.3915 2.6443-7.4525 8.7662-7.9186 9.463-3.8079 5.6925-2.196 7.8212-5.2222 10.6768.3069-.967.5245-1.9992.5874-3.0162-.811.7588-1.9485 1.4751-2.7348 1.6242.4946-.6662.8618-1.4097 1.1028-1.8197-5.399.7198-9.2419 4.2872-15.0331 4.3028l-2.4112.264c-.7367.05-3.3394 2.9231-4.4534.9362l-.3844-2.4993-.1698-2.5632 1.1955-2.3158c1.3133-1.2456 2.955-.1008 4.5254-.1959 3.2955-.1994 6.4521-1.5204 7.5076-1.8088 3.0394-.8304 7.1842-3.3868 8.1382-4.6482 4.1054-5.4283 7.2802-10.2168 7.8555-14.5717.9186-6.9528 1.9747-12.3649 7.2426-17.4694" fill="#c87137" fill-rule="evenodd"/><path d="m400.0427 438.8689c-3.9817 3.5248-1.146 8.4319 2.4266 8.4319 3.1486 0 5.1911-2.6793 8.2436-3.9784-.041 5.8678 6.0888 10.8249 9.901 14.7068 1.2422 1.2649 1.3858 3.1071 1.3858 4.6347-.3708-.4564-.877-.8961-1.5028-1.1931-1.195.7447-1.9534 2.4462-2.2223 3.7779-.3271 1.6194.9515 3.6197-.4536 5.7689-.363-.7551-.7937-1.4233-1.1771-1.9271-2.9321 4.0373-1.5763 10.2299-4.2981 10.6065-2.7219.3765-5.9812-.3078-7.8845-.1947l-2.4246.067c-.7382-.01-3.5659 2.6422-4.5148.5713l-.1801-2.5223.039-2.5684 1.3798-2.211c1.4102-1.1348 2.9534.1395 4.5264.1724 3.3008.069 3.6643-.097 4.6759-.4157 1.6169-.5095 3.2606-6.3995 3.2606-11.698 0-2.8466-3.7456-6.0706-6.6141-6.0058-27.4211.6193-33.389-17.6302-18.0969-36.6764" fill="#c87137"/><path d="m314.9814 418.8787c-.3688-.3625-1.7002-.343-2.4112.264.1209.8056-.7157 2.4692-1.7539 3.0933 2.3381-.1907 4.2246-2.4445 4.1651-3.3573z" fill="#e5e5e5" fill-rule="evenodd"/><path d="m308.1168 420.0788c-1.1615.2045-2.6818 1.3372-3.2995 2.6462-.5261-2.2983 1.5096-4.1851 2.9151-5.1455.6524.7885.5057 1.9086.3844 2.4993z" fill="#e5e5e5" fill-rule="evenodd"/><path d="m307.5629 415.0163c.5939.8101.4602 1.8021.1698 2.5632-.7712-.6167-3.6658-.4589-4.7328.5013.5773-2.7232 3.782-3.0683 4.5629-3.0645z" fill="#e5e5e5" fill-rule="evenodd"/><path d="m307.5629 415.0163c-.5836-.6415-2.6868-2.027-4.5629-1.9119 1.1107-1.6376 4.2836-1.1754 5.7585-.4039-.14.8924-.757 2.1387-1.1955 2.3158z" fill="#e5e5e5" fill-rule="evenodd"/><path d="m336.9796 337.8429c.6244-.9876 1.8247-2.4011 2.6252-2.8805-.0694 1.3384.1316 2.6893.5316 3.7855z" fill="#e5e5e5"/><path d="m335.3228 330.499c.467 1.0824 1.3749 2.9668 2.0923 3.5783.0543-.9355.6004-3.1892.9481-3.9737z" fill="#e5e5e5"/><path d="m349.7506 339.1327c-.6771-1.372-2.4604-3.4952-4.8954-4.4153-8.2789-3.1283-10.8829 1.285-15.4085-.425-1.3816-.5221-1.5947-2.0369-2.3855-2.3357-.7357-.278-1.3787.0147-1.6833.8208-.4702 1.2444.5846 3.6268 3.0855 4.5718 4.9055 1.8536 7.8865-3.9446 15.4457-1.0883 3.2278 1.2196 3.8866 3.3108 5.1536 4.2418z" fill="#ed1c24" fill-rule="evenodd"/><path d="m372.1929 349.908c-.7597-.5187-1.4145-1.0271-1.9224-1.7357.4266 2.3377 1.0173 5.1079 2.1062 8.0924-1.422-1.2259-2.2793-2.2918-3.0552-3.7398-.001 1.6404.503 4.9866 1.16 7.2364-.9295-.8167-1.6627-1.8367-2.2273-2.7736-.722 2.6625 1.2692 7.0369 3.4102 9.0406-2.8783.0713-7.1494-1.5983-9.0066-3.2333-.3902 2.2595-.3413 5.9413.2299 8.3377-2.2446-1.8226-3.7359-4.3523-4.3699-6.5424-.1844 3.1544-3.401 7.5211-5.7281 8.3992.7189-2.0128.9232-4.0667.8108-5.7125-1.7408 2.5159-4.7412 4.1323-7.733 3.9752 1.3442-1.0819 2.0472-3.4233 2.2749-5.7028-2.8059 2.519-7.4288 2.3464-11.1023 1.6363 2.4959-1.5262 6.3299-4.8982 7.6205-6.8603-2.3896.9054-4.3798.6207-6.0816-.3917 2.9936-.7945 6.1279-2.4326 8.0503-4.0814-1.2877-.0436-3.181-.502-4.091-.9283 5.2039-1.8004 8.2234-4.5844 10.8574-10.1359-5.1399 2.9763-4.6658-.2519-12.9776-3.3926-1.6646-.629-5.5071-.8306-4.5728-3.3031.3062-.8102 1.2622-1.6408 1.9093-1.3963 2.3765.898 6.6033 3.0495 8.0886 3.6108 1.3751.5196 2.2487.3256 2.6555-.751 1.023-2.7072-2.2759-6.8387-5.9323-8.2204-2.4704-.9335-5.2827.5615-7.5371-.2904-1.4415-.5447-1.9575-2.6253-1.9891-4.4583-.0122-.7123.0486-1.3872.1568-1.92 1.2685-.0616 2.3961-.154 3.4528-.2394 2.8223-.2279 5.1387-.4053 8.2834.1909.3659-.6858 2.0581-1.1085 3.3523-1.1085 2.1201 0 4.9526.5646 7.734 1.6156 10.5603 3.9903 14.8301 15.2352 16.1738 24.7825z" fill="#c87137"/><path d="m352.3359 327.2673c-.1732 1.0869-1.8937 2.1724-3.8432 2.425-1.9493.2525-3.3891-.4238-3.2159-1.5108.1732-1.0867 1.8938-2.172 3.8431-2.4246 1.9494-.2526 3.3891.4236 3.2159 1.5104z" fill="#e5e5e5"/><path d="m348.1693 328.1105c-.0458.3278-.5946.6404-1.2257.6984-.6311.0579-1.0924-.2385-1.0597-.4888.0428-.3283.5947-.6405 1.2257-.6984.6312-.0579 1.1055.161 1.0597.4888z"/><path d="m357.2428 327.8452c.6708-.7673 1.2057-1.1339 1.8096-1.3726 1.9411-.7673 6.3201-1.7503 10.2908-2.9627-2.294 3.6117-4.2157 5.2537-5.0233 7.8364-.2776.8878-.473 1.7154-1.4084 2.0189" fill="#c87137"/><path d="m333.0398 326.5868c-.0122-.7123.0486-1.3872.1568-1.92 1.2685-.0616 2.3961-.154 3.4528-.2394.4376 1.2953.3659 2.6383-3.6096 2.1594z"/></g><g><path d="m217.9664 436.321c7.727-4.2061 15.5189.6397 6.3872 4.851 4.7336 2.6367 3.873 9.4979 4.5688 14.1888.2598 1.7538 1.6689 2.9986 2.8618 3.9003-.1405-.571-.1863-1.2401-.0458-1.9184 1.3146-.5044 3.1294-.0833 4.3539.505 1.4892.7156 2.3139 2.9417 4.8758 3.1167-.3838-.7449-.657-1.4914-.8277-2.101 4.9888.0952 7.8156 4.552 10.3818 3.4241 2.5155-1.1056 4.2119-3.2213 5.8751-4.1534l2.0774-1.2521c.616-.4068 4.4279.2995 4.109-1.9559l-1.2098-2.2205-1.4192-2.1412-2.355-1.1164c-1.7995-.1942-2.4345 1.6772-3.7174 2.5882-1.8483 1.3124-3.7141 2.3997-4.4981 2.5652-1.659.3487-9.128-2.7788-11.6037-4.9606-2.066-1.8208-2.1814-6.8091-.4614-9.9017 7.6678-13.7863 4.7369-27.6271-28.9802-21.2922" fill="#c87137"/><path d="m256.3975 458.1342c.0735-.5119 1.1439-1.3036 2.0774-1.2521.3932.7133 2.0664 1.5295 3.2703 1.3963-1.9747 1.266-4.8415.6179-5.3477-.1442z" fill="#e5e5e5" fill-rule="evenodd"/><path d="m262.5838 454.926c1.0476-.5417 2.9435-.5629 4.2284.1035-.9753-2.1465-3.7382-2.4125-5.4381-2.324-.0408 1.0227.755 1.8244 1.2097 2.2205z" fill="#e5e5e5" fill-rule="evenodd"/><path d="m265.386 450.2766c-2.1103-1.8153-4.8129-.1886-5.4315.2876.019 1.0043.7267 1.7121 1.4192 2.1414.2393-.9578 2.5816-2.5455 4.0123-2.429z" fill="#e5e5e5" fill-rule="evenodd"/><path d="m259.9544 450.5646c.075-.864.9625-3.2831 2.5242-4.3292-1.8762-.6287-4.1741 1.7048-4.8791 3.2126.6525.6247 1.8988 1.2416 2.3549 1.1165z" fill="#e5e5e5" fill-rule="evenodd"/><path d="m196.2625 418.6856c-2.2679-.1751-7.285-.6705-7.1093-4.7434-.6005.1847-1.308.2206-2.025.3305-.6358-1.6605-.6145-3.6418.833-6.0131-.458.0698-1.0838.048-1.8476.0298.8869-2.2264 3.0804-5.6425 4.2455-7.4921-.8631.3383-2.4013.7508-3.3478.726 1.5563-2.0987 4.1096-4.7056 6.3173-6.5573-.8025.009-1.7639-.1335-2.6785-.1734 2.3205-1.5621 5.7114-3.7432 8.3496-6.5898-1.1589.3837-2.8305.6995-4.1758.8457 2.4408-1.5729 6.8784-5.039 8.8567-7.1123-1.4549.3891-3.2134.6668-4.3768.557 1.9673-.9119 6.5513-3.8143 8.1882-5.3381-.7555.1035-1.7189.2215-2.7947.1064 1.3623-.8524 3.2596-2.3257 4.5213-4.1081-1.079.4488-2.1138.5807-3.0095.5067.8506-1.0716 1.8821-2.57 2.3564-4.1498-2.3004.6963-4.9533 2.5128-6.5975 3.821.831-1.3578 1.5998-3.1211 2.0604-3.8417-1.3057.5507-4.9628 3.8805-5.5772 4.4715-.0707-.6757-.0583-1.5452-.1044-2.1901-1.5782 1.3478-3.8687 5.0906-4.9206 7.0887-.0967-1.0727-.2429-2.6939-.1418-4.2168-1.1004 1.2776-3.6666 6.5121-4.4096 8.486-.4168-.9209-.6212-1.9945-.6384-2.7904-1.8846 3.4477-2.2097 6.2054-2.6513 9.5568-.6376-1.2637-1.3616-2.9583-1.8542-4.3437-.8659 2.7147-1.5875 6.795-1.3699 9.1075-.4463-.3851-1.1598-1.1838-1.7498-2.0647-.459 1.8297-.5155 5.5787-.1585 7.4408-.7227-.4695-1.256-.9289-1.8938-1.5776.0211 1.0999.6758 5.5468 1.4375 6.9272-.6431-.3073-1.3977-.8786-1.9967-1.4416.8437 2.5369 2.163 4.5308 3.7459 6.2831-.8076-.1786-1.9931-.4338-2.8029-1.0374 1.3617 2.096 3.0178 4.3131 4.7496 6.3796-.9465-.3868-1.9371-.6314-2.7969-1.1565 4.6055 5.9933 11.5092 8.1925 14.7702 8.0634z" fill="#c87137" fill-rule="evenodd"/><path d="m207.0804 472.7677c-1.2401-1.5419-4.434-.8178-5.8414.071.2121.878.9283 2.0701 1.3798 2.211.5295-.6869 2.5823-2.2443 4.4616-2.282z" fill="#e5e5e5" fill-rule="evenodd"/><path d="m202.6186 475.0497c-.526.8556-.3121 1.8335.0392 2.5685.7185-.6773 3.5473-.7496 4.6886.1207-.7969-2.6672-3.95-2.7565-4.7278-2.6892z" fill="#e5e5e5" fill-rule="evenodd"/><path d="m202.4781 480.1404c1.1742.1095 2.7816 1.1149 3.5036 2.3694.3376-2.3334-1.8448-4.0487-3.3235-4.8917-.5863.8389-.3491 1.9433-.1801 2.5223z" fill="#e5e5e5" fill-rule="evenodd"/><path d="m195.5387 479.5021c.3381-.3913 1.6667-.48 2.4246.0672-.0541.8127.914 2.4029 1.9995 2.9405-2.2833 0-4.4093-2.0931-4.4241-3.0077z" fill="#e5e5e5" fill-rule="evenodd"/><path d="m217.3367 429.4385 1.5317 1.1338c.9472.559 4.335-.7816 5.391-1.8664.7445-.7647-.1678-1.5263-.9174-1.4078 4.7902-2.8944 3.7653-5.8353 1.2988-5.4231z" fill="none"/><path d="m199.9575 438.8688c-.1336.6949-.3235 1.627-.0992 3.0751-1.7198-1.9421-2.8305-4.7126-3.383-7.0831-.2583.7544-.7053 1.8825-.912 2.5422-7.6744-11.0086-5.0466-23.5159 5.4091-34.2562 10.8121-11.1063 24.5799-23.2853 31.1678-41.9075l8.1164-5.5848c6.2198 2.4298 13.1035 3.1752 19.0505 8.9646 11.8881 11.5732 2.3039 18.8654-2.8123 24.5196-5.2341 5.7843-22.4955 20.0817-26.8272 27.0523-3.3364 5.3693-10.1577 11.7869-13.5072 14.672" fill="#c87137"/><path d="m243.2292 387.3002c1.8931 1.8037 4.6582 2.1011 5.84 4.6751 2.2906 4.9887 1.2806 7.234 4.895 12.5099-.4347-1.3183-.5075-4.1211-.2265-5.8464.3809.4615 1.7185 2.243 2.2952 2.6047-.22-1.1464-.6176-2.6291-.2328-3.5955 2.3915 2.6443 7.4525 8.7662 7.9186 9.463 3.8079 5.6925 2.196 7.8212 5.2222 10.6768-.3069-.967-.5245-1.9992-.5874-3.0162.811.7588 1.9485 1.4751 2.7348 1.6242-.4946-.6662-.8618-1.4097-1.1028-1.8197 5.399.7198 9.2419 4.2872 15.0331 4.3028l2.4112.264c.7367.05 3.3394 2.9231 4.4534.9362l.3844-2.4993.1698-2.5632-1.1955-2.3158c-1.3133-1.2456-2.955-.1008-4.5254-.1959-3.2955-.1994-6.4521-1.5204-7.5076-1.8088-3.0394-.8304-7.1842-3.3868-8.1382-4.6482-4.1054-5.4283-7.2802-10.2168-7.8555-14.5717-.9186-6.9528-1.9747-12.3649-7.2426-17.4694" fill="#c87137" fill-rule="evenodd"/><path d="m199.9573 438.8689c3.9817 3.5248 1.146 8.4319-2.4266 8.4319-3.1486 0-5.1911-2.6793-8.2436-3.9784.041 5.8678-6.0888 10.8249-9.901 14.7068-1.2422 1.2649-1.3858 3.1071-1.3858 4.6347.3708-.4564.877-.8961 1.5028-1.1931 1.195.7447 1.9534 2.4462 2.2223 3.7779.3271 1.6194-.9515 3.6197.4536 5.7689.363-.7551.7937-1.4233 1.1771-1.9271 2.9321 4.0373 1.5763 10.2299 4.2981 10.6065 2.7219.3765 5.9812-.3078 7.8845-.1947l2.4246.067c.7382-.01 3.5659 2.6422 4.5148.5713l.1801-2.5223-.039-2.5684-1.3798-2.211c-1.4102-1.1348-2.9534.1395-4.5264.1724-3.3008.069-3.6643-.097-4.6759-.4157-1.6169-.5095-3.2606-6.3995-3.2606-11.698 0-2.8466 3.7456-6.0706 6.6141-6.0058 27.4211.6193 33.389-17.6302 18.0969-36.6764" fill="#c87137"/><path d="m285.0186 418.8787c.3688-.3625 1.7002-.343 2.4112.264-.1209.8056.7157 2.4692 1.7539 3.0933-2.3381-.1907-4.2246-2.4445-4.1651-3.3573z" fill="#e5e5e5" fill-rule="evenodd"/><path d="m291.8832 420.0788c1.1615.2045 2.6818 1.3372 3.2995 2.6462.5261-2.2983-1.5096-4.1851-2.9151-5.1455-.6524.7885-.5057 1.9086-.3844 2.4993z" fill="#e5e5e5" fill-rule="evenodd"/><path d="m292.4371 415.0163c-.5939.8101-.4602 1.8021-.1698 2.5632.7712-.6167 3.6658-.4589 4.7328.5013-.5773-2.7232-3.782-3.0683-4.5629-3.0645z" fill="#e5e5e5" fill-rule="evenodd"/><path d="m292.4371 415.0163c.5836-.6415 2.6868-2.027 4.5629-1.9119-1.1107-1.6376-4.2836-1.1754-5.7585-.4039.14.8924.757 2.1387 1.1955 2.3158z" fill="#e5e5e5" fill-rule="evenodd"/><path d="m263.0205 337.8429c-.6244-.9876-1.8247-2.4011-2.6252-2.8805.0694 1.3384-.1316 2.6893-.5316 3.7855z" fill="#e5e5e5"/><path d="m264.6773 330.499c-.467 1.0824-1.3749 2.9668-2.0923 3.5783-.0543-.9355-.6004-3.1892-.9481-3.9737z" fill="#e5e5e5"/><path d="m250.2494 339.1327c.6771-1.372 2.4604-3.4952 4.8954-4.4153 8.2789-3.1283 10.8829 1.285 15.4085-.425 1.3816-.5221 1.5947-2.0369 2.3855-2.3357.7357-.278 1.3787.0147 1.6833.8208.4702 1.2444-.5846 3.6268-3.0855 4.5718-4.9055 1.8536-7.8865-3.9446-15.4457-1.0883-3.2278 1.2196-3.8866 3.3108-5.1536 4.2418z" fill="#ed1c24" fill-rule="evenodd"/><path d="m227.8071 349.908c.7597-.5187 1.4145-1.0271 1.9224-1.7357-.4266 2.3377-1.0173 5.1079-2.1062 8.0924 1.422-1.2259 2.2793-2.2918 3.0552-3.7398.001 1.6404-.503 4.9866-1.16 7.2364.9295-.8167 1.6627-1.8367 2.2273-2.7736.722 2.6625-1.2692 7.0369-3.4102 9.0406 2.8783.0713 7.1494-1.5983 9.0066-3.2333.3902 2.2595.3413 5.9413-.2299 8.3377 2.2446-1.8226 3.7359-4.3523 4.3699-6.5424.1844 3.1544 3.401 7.5211 5.7281 8.3992-.7189-2.0128-.9232-4.0667-.8108-5.7125 1.7408 2.5159 4.7412 4.1323 7.733 3.9752-1.3442-1.0819-2.0472-3.4233-2.2749-5.7028 2.8059 2.519 7.4288 2.3464 11.1023 1.6363-2.4959-1.5262-6.3299-4.8982-7.6205-6.8603 2.3896.9054 4.3798.6207 6.0816-.3917-2.9936-.7945-6.1279-2.4326-8.0503-4.0814 1.2877-.0436 3.181-.502 4.091-.9283-5.2039-1.8004-8.2234-4.5844-10.8574-10.1359 5.1399 2.9763 4.6658-.2519 12.9776-3.3926 1.6646-.629 5.5071-.8306 4.5728-3.3031-.3062-.8102-1.2622-1.6408-1.9093-1.3963-2.3765.898-6.6033 3.0495-8.0886 3.6108-1.3751.5196-2.2487.3256-2.6555-.751-1.023-2.7072 2.2759-6.8387 5.9323-8.2204 2.4704-.9335 5.2827.5615 7.5371-.2904 1.4415-.5447 1.9575-2.6253 1.9891-4.4583.0122-.7123-.0486-1.3872-.1568-1.92-1.2685-.0616-2.3961-.154-3.4528-.2394-2.8223-.2279-5.1387-.4053-8.2834.1909-.3659-.6858-2.0581-1.1085-3.3523-1.1085-2.1201 0-4.9526.5646-7.734 1.6156-10.5603 3.9903-14.8301 15.2352-16.1738 24.7825z" fill="#c87137"/><path d="m247.6641 327.2673c.1732 1.0869 1.8937 2.1724 3.8432 2.425 1.9493.2525 3.3891-.4238 3.2159-1.5108-.1732-1.0867-1.8938-2.172-3.8431-2.4246-1.9494-.2526-3.3891.4236-3.2159 1.5104z" fill="#e5e5e5"/><path d="m251.8307 328.1105c.0458.3278.5946.6404 1.2257.6984.6311.0579 1.0924-.2385 1.0597-.4888-.0428-.3283-.5947-.6405-1.2257-.6984-.6312-.0579-1.1055.161-1.0597.4888z"/><path d="m242.7572 327.8452c-.6708-.7673-1.2057-1.1339-1.8096-1.3726-1.9411-.7673-6.3201-1.7503-10.2908-2.9627 2.294 3.6117 4.2157 5.2537 5.0233 7.8364.2776.8878.473 1.7154 1.4084 2.0189" fill="#c87137"/><path d="m266.9602 326.5868c.0122-.7123-.0486-1.3872-.1568-1.92-1.2685-.0616-2.3961-.154-3.4528-.2394-.4376 1.2953-.3659 2.6383 3.6096 2.1594z"/></g></g><path d="m1.5 300 298.5 298.5 298.5-298.5-298.5-298.5z" fill="none" stroke="#000" stroke-linecap="round" stroke-linejoin="round" stroke-width="3"/></svg>