<?xml version="1.0" encoding="UTF-8" standalone="no"?>
<svg
   xmlns:dc="http://purl.org/dc/elements/1.1/"
   xmlns:cc="http://creativecommons.org/ns#"
   xmlns:rdf="http://www.w3.org/1999/02/22-rdf-syntax-ns#"
   xmlns:svg="http://www.w3.org/2000/svg"
   xmlns="http://www.w3.org/2000/svg"
   xmlns:sodipodi="http://sodipodi.sourceforge.net/DTD/sodipodi-0.dtd"
   xmlns:inkscape="http://www.inkscape.org/namespaces/inkscape"
   sodipodi:docname="Escut_de_Madremanya.svg"
   inkscape:version="1.0 (4035a4fb49, 2020-05-01)"
   xml:space="preserve"
   enable-background="new 0 0 605 975"
   viewBox="0 0 603.23694 836.27356"
   height="836.27356"
   width="603.23694"
   y="0px"
   x="0px"
   id="svg3194"
   version="1.1"><metadata
   id="metadata343"><rdf:RDF><cc:Work
       rdf:about=""><dc:format>image/svg+xml</dc:format><dc:type
         rdf:resource="http://purl.org/dc/dcmitype/StillImage" /></cc:Work></rdf:RDF></metadata><defs
   id="defs341" /><sodipodi:namedview
   inkscape:document-rotation="0"
   inkscape:current-layer="svg3194"
   inkscape:window-maximized="0"
   inkscape:window-y="0"
   inkscape:window-x="0"
   inkscape:cy="165.96657"
   inkscape:cx="275.32688"
   inkscape:zoom="0.21104418"
   showgrid="false"
   id="namedview339"
   inkscape:window-height="480"
   inkscape:window-width="810"
   inkscape:pageshadow="2"
   inkscape:pageopacity="0"
   guidetolerance="10"
   gridtolerance="10"
   objecttolerance="10"
   borderopacity="1"
   bordercolor="#666666"
   pagecolor="#ffffff" />
<g
   transform="translate(47.338848,-13.212)"
   id="g3349">
	<g
   id="g5187">
		<path
   d="m 39.092,152.657 25.457,48.536 375.857,0.65 29.073,-49.186 C 457.545,112.149 331.189,87.914 254.286,87.914 c -77.833,0 -205.076,24.495 -215.194,64.743 z"
   stroke="#000000"
   fill="#eac102"
   id="path15597" />
		<path
   d="m 74.403,240.441 c 7.954,-44.596 339.285,-47.501 359.987,0 0.966,-9.073 13.705,-43.622 17.681,-47.431 13.64,-36.088 -92.657,-57.957 -198.634,-57.601 -105.976,0.355 -211.631,22.934 -196.708,57.136 4.338,4.374 16.126,38.893 17.674,47.896 z"
   stroke="#000000"
   fill="#eac102"
   id="path15599" />
		<path
   d="m 70.576,227.296 c 0,0 15.021,-35.803 183.71,-35.813 168.222,-0.01 183.294,35.727 183.294,35.727"
   stroke="#000000"
   fill="none"
   id="path15601" />
		<path
   d="m 440.832,217.645 c -9.181,-22.496 -103.759,-38.542 -186.546,-38.542 -82.788,0 -177.718,15.695 -186.899,38.191"
   stroke="#000000"
   fill="none"
   id="path15603" />
		<path
   d="M 447.947,199.905 C 447.016,173.13 349.162,154.03 254.286,154.03 c -95.814,0 -193.846,20.365 -193.369,45.875"
   stroke="#000000"
   fill="none"
   id="path15605" />
		<path
   d="M 444.436,208.443 C 435.177,183.729 347.92,166.171 254.286,166.39 160.652,166.609 73.458,183.048 64.199,207.763"
   stroke="#000000"
   fill="none"
   id="path15607" />
		<g
   transform="matrix(0.9359906,0,0,0.864939,-93.946996,-326.56329)"
   id="g15609">
			<path
   d="m 372.047,598.719 v 14.437"
   stroke-width="1.1114"
   stroke="#000000"
   fill="none"
   id="path15611" />
			<path
   d="m 331.041,599.625 0.608,14.488"
   stroke-width="1.1114"
   stroke="#000000"
   fill="none"
   id="path15613" />
			<path
   d="m 293.263,601.966 1.095,14.389"
   stroke-width="1.1114"
   stroke="#000000"
   fill="none"
   id="path15615" />
			<path
   d="m 257.775,606.216 2.341,16.308"
   stroke-width="1.1114"
   stroke="#000000"
   fill="none"
   id="path15617" />
			<path
   d="m 223.653,614.056 1.627,15.233"
   stroke-width="1.1114"
   stroke="#000000"
   fill="none"
   id="path15619" />
			<path
   d="m 196.721,622.233 1.463,11.936"
   stroke-width="1.1114"
   stroke="#000000"
   fill="none"
   id="path15621" />
			<path
   d="m 180.691,634.715 2.741,11.206"
   stroke-width="1.1114"
   stroke="#000000"
   fill="none"
   id="path15623" />
			<path
   d="m 413.053,599.625 -0.608,14.488"
   stroke-width="1.1114"
   stroke="#000000"
   fill="none"
   id="path15625" />
			<path
   d="m 450.831,601.966 -1.095,14.389"
   stroke-width="1.1114"
   stroke="#000000"
   fill="none"
   id="path15627" />
			<path
   d="m 486.318,606.216 -1.621,14.137"
   stroke-width="1.1114"
   stroke="#000000"
   fill="none"
   id="path15629" />
			<path
   d="m 520.729,613.798 -1.628,13.877"
   stroke-width="1.1114"
   stroke="#000000"
   fill="none"
   id="path15631" />
			<path
   d="m 547.373,622.233 -1.463,11.936"
   stroke-width="1.1114"
   stroke="#000000"
   fill="none"
   id="path15633" />
			<path
   d="m 563.841,635.105 -3.201,9.432"
   stroke-width="1.1114"
   stroke="#000000"
   fill="none"
   id="path15635" />
		</g>
		<g
   transform="matrix(0.9359906,0,0,0.864939,-93.946996,-326.56329)"
   id="g15637">
			<path
   d="m 372.047,570.186 v 14.698"
   stroke-width="1.1114"
   stroke="#000000"
   fill="none"
   id="path15639" />
			<path
   d="m 330.008,571.108 0.619,14.75"
   stroke-width="1.1114"
   stroke="#000000"
   fill="none"
   id="path15641" />
			<path
   d="m 291.33,574.068 1.172,15.11"
   stroke-width="1.1114"
   stroke="#000000"
   fill="none"
   id="path15643" />
			<path
   d="m 254.983,579.49 1.708,15.026"
   stroke-width="1.1114"
   stroke="#000000"
   fill="none"
   id="path15645" />
			<path
   d="m 220.424,587.561 1.886,14.017"
   stroke-width="1.1114"
   stroke="#000000"
   fill="none"
   id="path15647" />
			<path
   d="m 192.271,597.928 2.641,12.728"
   stroke-width="1.1114"
   stroke="#000000"
   fill="none"
   id="path15649" />
			<path
   d="m 173.789,609.997 3.396,12.451"
   stroke-width="1.1114"
   stroke="#000000"
   fill="none"
   id="path15651" />
			<path
   d="m 414.087,571.108 -0.62,14.75"
   stroke-width="1.1114"
   stroke="#000000"
   fill="none"
   id="path15653" />
			<path
   d="m 452.764,574.068 -1.173,15.11"
   stroke-width="1.1114"
   stroke="#000000"
   fill="none"
   id="path15655" />
			<path
   d="m 489.112,579.49 -1.709,15.026"
   stroke-width="1.1114"
   stroke="#000000"
   fill="none"
   id="path15657" />
			<path
   d="m 523.67,587.561 -1.887,14.017"
   stroke-width="1.1114"
   stroke="#000000"
   fill="none"
   id="path15659" />
			<path
   d="m 551.824,597.928 -2.642,12.728"
   stroke-width="1.1114"
   stroke="#000000"
   fill="none"
   id="path15661" />
			<path
   d="m 570.244,611.432 -3.662,10.874"
   stroke-width="1.1114"
   stroke="#000000"
   fill="none"
   id="path15663" />
		</g>
		<g
   transform="matrix(0.9359906,0,0,0.864939,-93.946996,-326.56329)"
   id="g15665">
			<path
   d="m 372.047,541.535 v 14.698"
   stroke-width="1.1114"
   stroke="#000000"
   fill="none"
   id="path15667" />
			<path
   d="m 289.111,545.857 1.128,14.757"
   stroke-width="1.1114"
   stroke="#000000"
   fill="none"
   id="path15669" />
			<path
   d="m 251.708,551.235 1.709,15.071"
   stroke-width="1.1114"
   stroke="#000000"
   fill="none"
   id="path15671" />
			<path
   d="m 214.818,560.01 3.294,14.5"
   stroke-width="1.1114"
   stroke="#000000"
   fill="none"
   id="path15673" />
			<path
   d="m 185.74,571.432 3.39,13.785"
   stroke-width="1.1114"
   stroke="#000000"
   fill="none"
   id="path15675" />
			<path
   d="m 163.856,588.039 5.49,10.771"
   stroke-width="1.1114"
   stroke="#000000"
   fill="none"
   id="path15677" />
			<path
   d="m 328.757,542.545 0.619,14.75"
   stroke-width="1.1114"
   stroke="#000000"
   fill="none"
   id="path15679" />
			<path
   d="m 454.984,545.857 -1.129,14.757"
   stroke-width="1.1114"
   stroke="#000000"
   fill="none"
   id="path15681" />
			<path
   d="m 492.387,551.235 -1.709,15.071"
   stroke-width="1.1114"
   stroke="#000000"
   fill="none"
   id="path15683" />
			<path
   d="m 529.276,560.01 -3.294,14.5"
   stroke-width="1.1114"
   stroke="#000000"
   fill="none"
   id="path15685" />
			<path
   d="m 558.354,571.432 -3.39,12.775"
   stroke-width="1.1114"
   stroke="#000000"
   fill="none"
   id="path15687" />
			<path
   d="m 580.237,588.039 -5.489,10.771"
   stroke-width="1.1114"
   stroke="#000000"
   fill="none"
   id="path15689" />
			<path
   d="m 415.338,542.545 -0.62,14.75"
   stroke-width="1.1114"
   stroke="#000000"
   fill="none"
   id="path15691" />
		</g>
		<path
   d="m 47.125,167.841 c 0,0 31.171,-51.487 206.892,-51.487 175.238,-0.014 206.892,51.363 206.892,51.363"
   stroke="#000000"
   fill="none"
   id="path15693" />
		<path
   d="M 465.03,160.593 C 454.807,126.517 346.355,102.21 254.175,102.21 c -92.182,0 -200.634,24.308 -210.856,58.383"
   stroke="#000000"
   fill="none"
   id="path15695" />
		<g
   transform="matrix(0.9359906,0,0,0.864939,-93.946996,-326.56329)"
   id="g15697">
			<path
   d="m 162.691,572.663 -4.462,-9.748"
   stroke-width="1.1114"
   stroke="#000000"
   fill="none"
   id="path15699" />
			<path
   d="m 153.081,551.794 -4.668,-10.022"
   stroke-width="1.1114"
   stroke="#000000"
   fill="none"
   id="path15701" />
			<path
   d="m 182.942,559.688 -4.394,-11.533"
   stroke-width="1.1114"
   stroke="#000000"
   fill="none"
   id="path15703" />
			<path
   d="m 173.606,535.457 -4.462,-11.602"
   stroke-width="1.1114"
   stroke="#000000"
   fill="none"
   id="path15705" />
			<path
   d="m 211.911,548.294 -4.119,-13.523"
   stroke-width="1.1114"
   stroke="#000000"
   fill="none"
   id="path15707" />
			<path
   d="m 203.879,521.933 -3.844,-12.905"
   stroke-width="1.1114"
   stroke="#000000"
   fill="none"
   id="path15709" />
			<path
   d="m 249.323,538.82 -3.295,-14.965"
   stroke-width="1.1114"
   stroke="#000000"
   fill="none"
   id="path15711" />
			<path
   d="m 243.076,510.401 -2.952,-14.073"
   stroke-width="1.1114"
   stroke="#000000"
   fill="none"
   id="path15713" />
			<path
   d="m 283.303,502.575 -2.128,-14.896"
   stroke-width="1.1114"
   stroke="#000000"
   fill="none"
   id="path15715" />
			<path
   d="m 285.362,517.128 2.334,15.994"
   stroke-width="1.1114"
   stroke="#000000"
   fill="none"
   id="path15717" />
			<path
   d="m 327.442,529.827 -1.167,-16.612"
   stroke-width="1.1114"
   stroke="#000000"
   fill="none"
   id="path15719" />
			<path
   d="M 325.108,497.77 324.01,481.844"
   stroke-width="1.1114"
   stroke="#000000"
   fill="none"
   id="path15721" />
			<path
   d="M 372.047,495.779 V 479.098"
   stroke-width="1.1114"
   stroke="#000000"
   fill="none"
   id="path15723" />
			<path
   d="m 372.047,512.185 v 16.544"
   stroke-width="1.1114"
   stroke="#000000"
   fill="none"
   id="path15725" />
			<path
   d="m 581.424,572.663 4.461,-9.748"
   stroke-width="1.1114"
   stroke="#000000"
   fill="none"
   id="path15727" />
			<path
   d="m 591.034,551.794 4.668,-10.022"
   stroke-width="1.1114"
   stroke="#000000"
   fill="none"
   id="path15729" />
			<path
   d="m 561.173,559.688 4.393,-11.533"
   stroke-width="1.1114"
   stroke="#000000"
   fill="none"
   id="path15731" />
			<path
   d="m 570.509,535.457 4.461,-11.602"
   stroke-width="1.1114"
   stroke="#000000"
   fill="none"
   id="path15733" />
			<path
   d="m 532.204,548.294 4.119,-13.523"
   stroke-width="1.1114"
   stroke="#000000"
   fill="none"
   id="path15735" />
			<path
   d="m 540.235,521.933 3.845,-12.905"
   stroke-width="1.1114"
   stroke="#000000"
   fill="none"
   id="path15737" />
			<path
   d="m 494.793,538.82 3.295,-14.965"
   stroke-width="1.1114"
   stroke="#000000"
   fill="none"
   id="path15739" />
			<path
   d="m 501.039,510.401 2.952,-14.073"
   stroke-width="1.1114"
   stroke="#000000"
   fill="none"
   id="path15741" />
			<path
   d="m 460.812,502.575 2.128,-14.896"
   stroke-width="1.1114"
   stroke="#000000"
   fill="none"
   id="path15743" />
			<path
   d="m 458.753,517.128 -2.334,15.994"
   stroke-width="1.1114"
   stroke="#000000"
   fill="none"
   id="path15745" />
			<path
   d="m 416.673,529.827 1.166,-16.612"
   stroke-width="1.1114"
   stroke="#000000"
   fill="none"
   id="path15747" />
			<path
   d="m 419.007,497.77 1.098,-15.926"
   stroke-width="1.1114"
   stroke="#000000"
   fill="none"
   id="path15749" />
		</g>
		<g
   transform="matrix(0.9359906,0,0,0.864939,-93.526955,-326.56329)"
   id="g15751">
			<g
   id="g15753">
				<path
   d="M 392.258,599.529 V 584.891"
   stroke-width="1.1114"
   stroke="#000000"
   fill="none"
   id="path15755" />
				<path
   d="m 392.88,570.098 0.467,-14.326"
   stroke-width="1.1114"
   stroke="#000000"
   fill="none"
   id="path15757" />
				<path
   d="m 394.594,512.326 0.466,-16.195"
   stroke-width="1.1114"
   stroke="#000000"
   fill="none"
   id="path15759" />
				<path
   d="m 439.441,499.713 -1.713,14.949"
   stroke-width="1.1114"
   stroke="#000000"
   fill="none"
   id="path15761" />
				<path
   d="m 482.264,506.409 -3.426,13.703"
   stroke-width="1.1114"
   stroke="#000000"
   fill="none"
   id="path15763" />
				<path
   d="m 521.505,516.219 -4.049,12.458"
   stroke-width="1.1114"
   stroke="#000000"
   fill="none"
   id="path15765" />
				<path
   d="m 556.542,528.833 -5.138,12.146"
   stroke-width="1.1114"
   stroke="#000000"
   fill="none"
   id="path15767" />
				<path
   d="m 581.301,543.003 -5.45,12.146"
   stroke-width="1.1114"
   stroke="#000000"
   fill="none"
   id="path15769" />
				<path
   d="m 433.835,558.419 -1.09,13.703"
   stroke-width="1.1114"
   stroke="#000000"
   fill="none"
   id="path15771" />
				<path
   d="m 431.499,587.384 -1.246,13.08"
   stroke-width="1.1114"
   stroke="#000000"
   fill="none"
   id="path15773" />
				<path
   d="m 468.716,603.89 1.246,-12.613"
   stroke-width="1.1114"
   stroke="#000000"
   fill="none"
   id="path15775" />
				<path
   d="m 471.363,576.483 1.401,-13.703"
   stroke-width="1.1114"
   stroke="#000000"
   fill="none"
   id="path15777" />
				<path
   d="m 508.891,569.632 -1.869,13.703"
   stroke-width="1.1114"
   stroke="#000000"
   fill="none"
   id="path15779" />
				<path
   d="m 504.843,597.661 -1.713,12.028"
   stroke-width="1.1114"
   stroke="#000000"
   fill="none"
   id="path15781" />
				<path
   d="m 533.183,617.967 2.024,-11.847"
   stroke-width="1.1114"
   stroke="#000000"
   fill="none"
   id="path15783" />
				<path
   d="m 559.189,628.494 1.558,-12.458"
   stroke-width="1.1114"
   stroke="#000000"
   fill="none"
   id="path15785" />
				<path
   d="m 537.855,592.055 2.802,-13.392"
   stroke-width="1.1114"
   stroke="#000000"
   fill="none"
   id="path15787" />
				<path
   d="m 561.055,602.725 4.207,-12.538"
   stroke-width="1.1114"
   stroke="#000000"
   fill="none"
   id="path15789" />
			</g>
			<g
   transform="matrix(-1,0,0,1,743.19695,0)"
   id="g15791">
				<path
   d="M 392.258,599.529 V 584.891"
   stroke-width="1.1114"
   stroke="#000000"
   fill="none"
   id="path15793" />
				<path
   d="m 392.881,570.098 0.467,-14.326"
   stroke-width="1.1114"
   stroke="#000000"
   fill="none"
   id="path15795" />
				<path
   d="m 394.594,512.326 0.467,-16.195"
   stroke-width="1.1114"
   stroke="#000000"
   fill="none"
   id="path15797" />
				<path
   d="m 439.441,499.713 -1.713,14.949"
   stroke-width="1.1114"
   stroke="#000000"
   fill="none"
   id="path15799" />
				<path
   d="m 482.264,506.409 -3.426,13.703"
   stroke-width="1.1114"
   stroke="#000000"
   fill="none"
   id="path15801" />
				<path
   d="m 521.505,516.219 -4.049,12.458"
   stroke-width="1.1114"
   stroke="#000000"
   fill="none"
   id="path15803" />
				<path
   d="m 556.542,528.833 -5.139,12.146"
   stroke-width="1.1114"
   stroke="#000000"
   fill="none"
   id="path15805" />
				<path
   d="m 581.301,543.003 -5.45,12.146"
   stroke-width="1.1114"
   stroke="#000000"
   fill="none"
   id="path15807" />
				<path
   d="m 433.835,558.419 -1.09,13.703"
   stroke-width="1.1114"
   stroke="#000000"
   fill="none"
   id="path15809" />
				<path
   d="m 431.499,587.384 -1.246,13.08"
   stroke-width="1.1114"
   stroke="#000000"
   fill="none"
   id="path15811" />
				<path
   d="m 468.716,603.89 1.246,-12.613"
   stroke-width="1.1114"
   stroke="#000000"
   fill="none"
   id="path15813" />
				<path
   d="m 471.363,576.483 1.402,-13.703"
   stroke-width="1.1114"
   stroke="#000000"
   fill="none"
   id="path15815" />
				<path
   d="m 508.892,569.632 -1.869,13.703"
   stroke-width="1.1114"
   stroke="#000000"
   fill="none"
   id="path15817" />
				<path
   d="m 504.843,597.661 -1.713,11.523"
   stroke-width="1.1114"
   stroke="#000000"
   fill="none"
   id="path15819" />
				<path
   d="m 533.508,618.211 2.012,-12.765"
   stroke-width="1.1114"
   stroke="#000000"
   fill="none"
   id="path15821" />
				<path
   d="m 559.189,628.494 1.557,-12.458"
   stroke-width="1.1114"
   stroke="#000000"
   fill="none"
   id="path15823" />
				<path
   d="m 537.856,592.055 2.803,-13.392"
   stroke-width="1.1114"
   stroke="#000000"
   fill="none"
   id="path15825" />
				<path
   d="m 561.368,603.061 3.895,-12.033"
   stroke-width="1.1114"
   stroke="#000000"
   fill="none"
   id="path15827" />
			</g>
		</g>
		<path
   d="m 254.901,165.039 c -7.209,-0.157 -14.218,3.158 -14.412,13.981 -0.194,10.828 0.276,27.583 0.276,27.583 l 5.452,0.374 c -0.035,-1.701 -0.188,-16.024 -0.078,-24.717 0.03,-2.334 0.048,-4.263 0.537,-5.843 0.244,-0.79 0.548,-1.496 0.883,-2.118 0.334,-0.621 0.519,-1.166 0.928,-1.633 0.41,-0.466 0.724,-0.848 1.193,-1.173 0.469,-0.326 0.847,-0.593 1.359,-0.791 1.024,-0.396 2.938,-0.911 4.04,-0.877 1.102,0.034 2.635,0.567 3.644,0.953 0.504,0.193 0.8,0.453 1.259,0.766 0.46,0.313 0.634,0.668 1.034,1.123 0.4,0.455 0.82,0.989 1.148,1.607 0.327,0.618 0.615,1.34 0.855,2.143 0.481,1.606 0.44,3.599 0.52,6.072 0.297,9.209 -0.026,22.911 -0.055,24.514 l 5.581,-0.375 c 0,0 0.397,-15.888 0.083,-27.354 -0.314,-11.468 -7.037,-14.078 -14.247,-14.235 z"
   stroke-linejoin="round"
   stroke-linecap="round"
   stroke="#000000"
   fill="#eac102"
   id="path15831" />
		<path
   d="m 246.189,206.624 c 0,0 -0.296,-15.533 -0.177,-24.875 0.119,-9.337 4.439,-12.202 8.875,-12.066 4.437,0.136 8.573,2.399 8.767,12.294 0.193,9.892 -0.055,24.657 -0.055,24.657 z"
   stroke-linejoin="round"
   stroke-linecap="round"
   stroke="#000000"
   id="path15833" />
		<path
   d="m 280.699,18.808 1.306,-5.096 h 4.226 V 24.954 L 280.7,23.905 v -5.097 z"
   stroke-linejoin="bevel"
   stroke="#000000"
   fill="#eac102"
   id="path15591" />
		<path
   d="m 229.073,18.808 -1.306,-5.096 h -4.226 v 11.242 l 5.532,-1.049 z"
   stroke-linejoin="bevel"
   stroke="#000000"
   fill="#eac102"
   id="path15593" />
		<path
   d="m 215.73,13.713 v 19.216 c 6.094,2.671 9.334,5.687 10.166,8.993 -0.104,38.226 -3.118,72.962 -12.199,100.335 h 39.87 2.628 39.82 C 286.934,114.883 283.97,80.148 283.866,41.922 c 1.254,-4.156 5.443,-6.719 10.166,-8.993 V 13.713 h -11.187 l -0.022,8.634 h -11.179 l 0.016,-8.634 h -11.187 l -0.078,8.634 h -11.006 l -0.101,-8.634 h -11.186 l 0.111,8.634 h -11.274 l -0.023,-8.634 z"
   stroke="#000000"
   fill="#eac102"
   id="path15835" />
		<path
   d="m 215.81,32.918 h 78.091 z"
   stroke="#000000"
   fill="none"
   id="path15837" />
		<path
   d="m 226.186,41.912 h 57.34 z"
   stroke="#000000"
   fill="none"
   id="path15839" />
		<path
   d="m 220.144,118.746 h 69.424"
   stroke="#000000"
   fill="none"
   id="path15841" />
		<path
   d="m 222.508,103.379 h 64.554"
   stroke="#000000"
   fill="none"
   id="path15843" />
		<path
   d="m 224.177,88.013 h 61.216"
   stroke="#000000"
   fill="none"
   id="path15845" />
		<path
   d="m 225.289,72.646 h 58.992"
   stroke="#000000"
   fill="none"
   id="path15847" />
		<path
   d="m 225.707,57.279 h 58.297"
   stroke="#000000"
   fill="none"
   id="path15849" />
		<path
   d="m 242.347,62.129 c -2.177,0.124 -4.186,1.712 -4.245,6.276 -0.063,4.87 0.104,14.369 0.104,14.369 l 9.172,-0.026 c 0,0 0.144,-9.072 0.042,-14.228 -0.102,-5.159 -2.3,-6.32 -4.638,-6.391 -0.146,-0.005 -0.29,-0.009 -0.435,0 z"
   stroke-linejoin="round"
   stroke-linecap="round"
   stroke="#000000"
   id="path15851" />
		<path
   d="m 266.531,62.129 c -2.178,0.124 -4.187,1.712 -4.245,6.276 -0.063,4.87 0.104,14.343 0.104,14.343 l 9.173,0.026 c 0,0 0.122,-9.098 0.021,-14.254 -0.103,-5.159 -2.279,-6.32 -4.617,-6.391 -0.148,-0.005 -0.292,-0.009 -0.436,0 z"
   stroke-linejoin="round"
   stroke-linecap="round"
   stroke="#000000"
   id="path15853" />
		<g
   transform="matrix(1.0380861,0,0,0.9592844,-131.36131,-370.69033)"
   id="g15855">
			<path
   d="m 360.407,477.869 v -5.133"
   stroke-width="1.0021"
   stroke="#000000"
   fill="none"
   id="path15857" />
			<path
   d="m 383.696,477.869 v -5.133"
   stroke-width="1.0021"
   stroke="#000000"
   fill="none"
   id="path15859" />
		</g>
		<path
   d="m 254.856,88.215 v 15.476"
   stroke="#000000"
   fill="none"
   id="path15861" />
		<g
   transform="matrix(1.0380861,0,0,1.1967355,-131.20433,-472.93806)"
   id="g15863">
			<path
   d="M 348.43,509.869 V 494.627"
   stroke-width="0.8972"
   stroke="#000000"
   fill="none"
   id="path15865" />
			<path
   d="M 395.362,509.869 V 494.627"
   stroke-width="0.8972"
   stroke="#000000"
   fill="none"
   id="path15867" />
		</g>
		<g
   transform="matrix(1.0380861,0,0,1.0137329,-131.20433,-413.39085)"
   id="g15869">
			<path
   d="M 348.43,509.869 V 494.626"
   stroke-width="0.9748"
   stroke="#000000"
   fill="none"
   id="path15871" />
			<path
   d="M 395.362,509.869 V 494.626"
   stroke-width="0.9748"
   stroke="#000000"
   fill="none"
   id="path15873" />
		</g>
		<g
   transform="matrix(1.0380861,0,0,0.98726,-131.36131,-385.77421)"
   id="g15875">
			<path
   d="m 372.048,448.52 v 16.133"
   stroke-width="0.9878"
   stroke="#000000"
   fill="none"
   id="path15877" />
			<path
   d="M 348.581,464.208 V 448.965"
   stroke-width="0.9878"
   stroke="#000000"
   fill="none"
   id="path15879" />
			<path
   d="M 395.513,464.208 V 448.965"
   stroke-width="0.9878"
   stroke="#000000"
   fill="none"
   id="path15881" />
		</g>
		<path
   d="m 254.907,94.182 c -7.996,-0.174 -15.77,3.503 -15.984,15.506 -0.215,12.01 0.306,30.592 0.306,30.592 l 6.046,0.416 c -0.039,-1.886 -0.208,-17.772 -0.086,-27.414 0.033,-2.589 0.054,-4.728 0.595,-6.479 0.271,-0.876 0.609,-1.66 0.98,-2.349 0.371,-0.689 0.575,-1.293 1.029,-1.811 0.455,-0.517 0.804,-0.94 1.323,-1.301 0.52,-0.361 0.939,-0.658 1.507,-0.877 1.136,-0.438 3.259,-1.01 4.48,-0.972 1.221,0.038 2.923,0.629 4.041,1.057 0.559,0.214 0.887,0.502 1.396,0.849 0.509,0.347 0.702,0.741 1.146,1.245 0.443,0.505 0.91,1.097 1.273,1.783 0.363,0.686 0.683,1.486 0.949,2.377 0.533,1.781 0.488,3.991 0.576,6.734 0.329,10.213 -0.029,25.41 -0.061,27.188 l 6.189,-0.416 c 0,0 0.44,-17.621 0.092,-30.337 -0.346,-12.722 -7.802,-15.616 -15.797,-15.791 z"
   stroke-linejoin="round"
   stroke-linecap="round"
   stroke="#000000"
   fill="#eac102"
   id="path15883" />
		<path
   d="m 245.244,140.303 c 0,0 -0.328,-17.228 -0.196,-27.589 0.132,-10.356 4.924,-13.533 9.844,-13.382 4.92,0.15 9.508,2.66 9.723,13.635 0.215,10.971 -0.061,27.347 -0.061,27.347 z"
   stroke-linejoin="round"
   stroke-linecap="round"
   stroke="#000000"
   id="path15885" />
		<g
   transform="matrix(1.0380861,0,0,2.9414042,-131.36131,-1348.2799)"
   id="g15887">
			<path
   d="m 360.407,477.869 v -5.133"
   stroke-width="0.5723"
   stroke="#000000"
   fill="none"
   id="path15889" />
			<path
   d="m 383.696,477.869 v -5.133"
   stroke-width="0.5723"
   stroke="#000000"
   fill="none"
   id="path15891" />
		</g>
		<g
   transform="matrix(-0.9359906,0,0.1364071,0.7967998,474.20687,-206.96215)"
   id="g15991">
			<path
   d="m 492.718,497.706 c -6.023,-1.909 -12.459,0.161 -14.434,12.37 -1.976,12.214 -4.388,31.298 -4.388,31.298 l 4.512,1.734 c 0.255,-1.934 2.526,-18.19 4.074,-28.006 0.416,-2.636 0.755,-4.815 1.429,-6.487 0.337,-0.836 0.711,-1.563 1.096,-2.186 0.385,-0.623 0.631,-1.196 1.053,-1.626 0.421,-0.43 0.749,-0.786 1.197,-1.042 0.448,-0.256 0.81,-0.468 1.273,-0.569 0.925,-0.202 2.617,-0.325 3.536,-0.023 0.919,0.303 2.116,1.276 2.897,1.954 0.39,0.339 0.596,0.705 0.928,1.169 0.333,0.465 0.419,0.908 0.679,1.519 0.26,0.612 0.523,1.318 0.695,2.096 0.171,0.779 0.292,1.666 0.359,2.633 0.135,1.933 -0.233,4.181 -0.58,7 -1.294,10.499 -3.859,25.936 -4.151,27.743 l 4.745,0.916 c 0,0 2.994,-17.894 4.65,-30.953 1.656,-13.061 -3.547,-17.631 -9.57,-19.54 z"
   stroke-linejoin="round"
   stroke-linecap="round"
   stroke-width="1.1579"
   stroke="#000000"
   fill="#eac102"
   id="path15993" />
			<path
   d="m 478.444,542.699 c 0,0 2.353,-17.659 4.017,-28.208 1.663,-10.544 5.768,-12.749 9.468,-11.531 3.699,1.219 6.791,4.775 5.296,16.026 -1.494,11.247 -4.175,27.906 -4.175,27.906 z"
   stroke-linejoin="round"
   stroke-linecap="round"
   stroke-width="1.1579"
   stroke="#000000"
   id="path15995" />
		</g>
		<g
   transform="matrix(0.9359906,0,-0.1364071,0.7967998,34.36455,-206.96215)"
   id="g17196">
			<path
   d="m 492.718,497.706 c -6.023,-1.909 -12.46,0.161 -14.434,12.37 -1.976,12.214 -4.388,31.298 -4.388,31.298 l 4.511,1.734 c 0.255,-1.934 2.526,-18.19 4.074,-28.006 0.416,-2.636 0.755,-4.815 1.428,-6.487 0.337,-0.836 0.711,-1.563 1.096,-2.186 0.385,-0.623 0.63,-1.196 1.053,-1.626 0.421,-0.43 0.749,-0.786 1.197,-1.042 0.448,-0.256 0.81,-0.468 1.272,-0.569 0.925,-0.202 2.618,-0.325 3.537,-0.023 0.919,0.303 2.116,1.276 2.897,1.954 0.391,0.339 0.595,0.705 0.928,1.169 0.334,0.465 0.419,0.908 0.679,1.519 0.26,0.612 0.523,1.318 0.695,2.096 0.171,0.779 0.292,1.666 0.36,2.633 0.135,1.933 -0.234,4.181 -0.581,7 -1.293,10.499 -3.859,25.936 -4.151,27.743 l 4.746,0.916 c 0,0 2.994,-17.894 4.65,-30.953 1.658,-13.061 -3.547,-17.631 -9.569,-19.54 z"
   stroke-linejoin="round"
   stroke-linecap="round"
   stroke-width="1.1579"
   stroke="#000000"
   fill="#eac102"
   id="path17198" />
			<path
   d="m 478.444,542.699 c 0,0 2.353,-17.659 4.017,-28.208 1.664,-10.544 5.769,-12.749 9.469,-11.531 3.699,1.219 6.791,4.775 5.297,16.026 -1.494,11.247 -4.176,27.906 -4.176,27.906 z"
   stroke-linejoin="round"
   stroke-linecap="round"
   stroke-width="1.1579"
   stroke="#000000"
   id="path17200" />
		</g>
		<path
   d="m 254.286,216.25 c -11.485,0 -22.705,0.26 -33.536,0.735 -10.832,0.475 -21.281,1.178 -31.236,2.021 -9.955,0.843 -19.4,1.836 -28.255,2.939 -8.854,1.103 -17.117,2.313 -24.648,3.569 -7.531,1.256 -14.349,2.556 -20.332,3.857 -5.983,1.301 -11.122,2.592 -15.334,3.831 -4.212,1.239 -7.493,2.42 -9.711,3.49 -1.109,0.535 -1.959,1.049 -2.527,1.522 -0.568,0.473 -0.852,0.916 -0.852,1.312 0,0.42 0.284,0.867 0.852,1.365 0.568,0.497 1.418,1.04 2.527,1.601 2.218,1.122 5.499,2.354 9.711,3.647 4.213,1.293 9.351,2.635 15.334,3.989 5.983,1.354 12.801,2.71 20.332,4.015 7.531,1.305 15.793,2.556 24.648,3.7 8.855,1.144 18.3,2.197 28.255,3.07 9.955,0.874 20.404,1.582 31.236,2.073 10.832,0.492 22.051,0.761 33.536,0.761 11.484,0 22.705,-0.27 33.536,-0.761 10.832,-0.492 21.281,-1.2 31.236,-2.073 9.955,-0.873 19.4,-1.926 28.255,-3.07 8.855,-1.144 17.117,-2.396 24.648,-3.7 7.53,-1.304 14.349,-2.661 20.332,-4.015 5.983,-1.354 11.121,-2.696 15.334,-3.989 4.212,-1.293 7.493,-2.526 9.711,-3.647 1.109,-0.561 1.959,-1.104 2.527,-1.601 0.569,-0.498 0.853,-0.945 0.853,-1.365 0,-0.396 -0.283,-0.839 -0.853,-1.312 -0.568,-0.473 -1.418,-0.987 -2.527,-1.522 -2.218,-1.07 -5.499,-2.251 -9.711,-3.49 -4.213,-1.239 -9.351,-2.53 -15.334,-3.831 -5.983,-1.301 -12.802,-2.602 -20.332,-3.857 -7.531,-1.256 -15.794,-2.466 -24.648,-3.569 -8.854,-1.103 -18.3,-2.096 -28.255,-2.939 -9.955,-0.843 -20.404,-1.545 -31.236,-2.021 -10.831,-0.475 -22.052,-0.735 -33.536,-0.735 z"
   stroke-linejoin="round"
   stroke-linecap="round"
   stroke="#000000"
   fill="#eac102"
   id="path16341" />
		<g
   transform="matrix(-0.9974948,0.00976402,0.01140582,0.9950301,634.84041,-402.5227)"
   id="g18114">
			<path
   d="m 611.483,468.773 -5.016,2.023 0.845,7.923 6.031,-0.274 0.282,-7.854 z"
   stroke-width="1.0037"
   stroke="#000000"
   fill="#eac102"
   id="path18116" />
			<path
   d="m 621.791,477.764 -5.016,2.023 0.845,7.923 6.031,-0.273 0.282,-7.854 z"
   stroke-width="1.0037"
   stroke="#000000"
   fill="#eac102"
   id="path18118" />
			<path
   d="m 601.004,459.73 -5.016,2.023 0.846,7.923 6.031,-0.273 0.282,-7.854 z"
   stroke-width="1.0037"
   stroke="#000000"
   fill="#eac102"
   id="path18120" />
			<path
   d="m 574.915,456.842 2.92,2.262 0.973,6.062 -3.665,1.902 -1.489,-9.391 z"
   stroke-width="1.0037"
   stroke="#000000"
   fill="#eac102"
   id="path18122" />
			<path
   d="m 582.244,453.277 2.92,2.262 0.973,6.062 -3.665,1.902 -1.489,-9.391 z"
   stroke-width="1.0037"
   stroke="#000000"
   fill="#eac102"
   id="path18124" />
			<path
   d="m 567.241,460.422 2.92,2.262 0.974,6.062 -3.665,1.902 -1.489,-9.39 z"
   stroke-width="1.0037"
   stroke="#000000"
   fill="#eac102"
   id="path18126" />
			<path
   d="m 582.359,453.14 -3.528,1.722 0.897,7.678 -3.797,1.672 -0.926,-7.521 -3.767,1.827 0.867,7.429 -3.796,1.64 -0.897,-7.24 -3.737,1.794 1.794,13.575 c 1.06,2.314 2.262,4.63 1.824,7.011 -4.049,10.264 -11.079,21.545 -17.734,30.838 l 7.825,3.306 c -5.668,11.984 -11.145,21.899 -19.519,32.794 l 27.544,15.242 39.85,-77.118 -10.104,-18.73 -2.661,-16.66 -3.139,-2.608 -3.169,1.518 0.927,7.833 -3.797,1.672 z"
   stroke-linejoin="bevel"
   stroke-width="1.0037"
   stroke="#000000"
   fill="#eac102"
   id="path18128" />
			<path
   d="m 590.149,450.264 1.52,13.797 c 1.061,2.991 1.255,5.954 0.02,8.871 -11.558,29.634 -28.414,64.082 -41.042,80.781 l 24.208,11.031 1.27,1.319 19.24,19.992 c 3.852,-25.817 13.872,-55.974 25.328,-85.713 1.444,-1.622 5.251,-3.913 7.029,-4.35 l -0.561,-13.423 -5.293,-4.716 0.168,6.062 -5.316,-4.66 -0.14,-6.023 -5.29,-4.658 0.15,6.11 -5.133,-4.641 -0.294,-5.862 -5.295,-4.755 0.289,6.104 -5.307,-4.656 -0.264,-5.945 z"
   stroke-linejoin="bevel"
   stroke-width="1.0037"
   stroke="#000000"
   fill="#eac102"
   id="path18130" />
			<path
   d="M 591.531,464.394 627.552,496.1 Z"
   stroke-width="1.0037"
   stroke="#000000"
   fill="none"
   id="path18132" />
			<g
   transform="matrix(0.8790016,-0.1392886,0.04891008,0.9945481,45.385186,88.851643)"
   id="g18134">
				<path
   d="m 594.604,470.734 32.166,30.473 z"
   stroke-width="1.0693"
   stroke="#000000"
   fill="none"
   id="path18136" />
				<path
   d="m 558.976,527.272 39.294,37.386"
   stroke-width="1.0693"
   stroke="#000000"
   fill="none"
   id="path18138" />
				<path
   d="m 567.028,516.972 36.214,34.307"
   stroke-width="1.0693"
   stroke="#000000"
   fill="none"
   id="path18140" />
				<path
   d="m 574.342,505.81 34.341,32.534"
   stroke-width="1.0693"
   stroke="#000000"
   fill="none"
   id="path18142" />
				<path
   d="m 581.344,494.354 33.094,31.351"
   stroke-width="1.0693"
   stroke="#000000"
   fill="none"
   id="path18144" />
				<path
   d="m 587.957,482.528 32.704,30.982"
   stroke-width="1.0693"
   stroke="#000000"
   fill="none"
   id="path18146" />
				<path
   d="m 595.278,495.173 c -1.272,-1.06 -3.059,-0.882 -4.985,2.665 -2.057,3.784 -5.906,11.321 -5.906,11.321 l 5.156,4.854 c 0,0 3.845,-7.036 5.928,-11.133 2.084,-4.099 1.333,-6.178 0.051,-7.475 -0.08,-0.081 -0.158,-0.161 -0.244,-0.232 z"
   stroke-linejoin="round"
   stroke-linecap="round"
   stroke-width="1.0693"
   stroke="#000000"
   id="path18148" />
				<path
   d="m 608.845,508.026 c -1.272,-1.06 -3.059,-0.882 -4.985,2.665 -2.057,3.784 -5.895,11.3 -5.895,11.3 l 5.135,4.895 c 0,0 3.845,-7.068 5.927,-11.165 2.084,-4.098 1.345,-6.166 0.063,-7.464 -0.081,-0.081 -0.16,-0.16 -0.245,-0.231 z"
   stroke-linejoin="round"
   stroke-linecap="round"
   stroke-width="1.0693"
   stroke="#000000"
   id="path18150" />
				<path
   d="m 584.895,515.466 2.043,-3.861"
   stroke-width="1.0693"
   stroke="#000000"
   fill="none"
   id="path18152" />
				<path
   d="m 598.457,528.313 2.043,-3.86"
   stroke-width="1.0693"
   stroke="#000000"
   fill="none"
   id="path18154" />
				<path
   d="m 591.469,522.274 -6.423,12.133"
   stroke-width="1.0693"
   stroke="#000000"
   fill="none"
   id="path18156" />
				<path
   d="m 556.209,549.912 8.817,-16.45"
   stroke-width="1.0693"
   stroke="#000000"
   fill="none"
   id="path18158" />
				<path
   d="m 584.786,573.657 7.571,-14.302"
   stroke-width="1.0693"
   stroke="#000000"
   fill="none"
   id="path18160" />
				<path
   d="m 571.467,521.296 6.413,-12.115"
   stroke-width="1.0693"
   stroke="#000000"
   fill="none"
   id="path18162" />
				<path
   d="m 598.798,547.188 6.414,-12.115"
   stroke-width="1.0693"
   stroke="#000000"
   fill="none"
   id="path18164" />
				<path
   d="M 604.411,497.825 597.8,510.312"
   stroke-width="1.0693"
   stroke="#000000"
   fill="none"
   id="path18166" />
				<path
   d="m 584.317,497.022 6.246,-11.799"
   stroke-width="1.0693"
   stroke="#000000"
   fill="none"
   id="path18168" />
				<path
   d="m 611.649,522.914 6.246,-11.798"
   stroke-width="1.0693"
   stroke="#000000"
   fill="none"
   id="path18170" />
				<g
   transform="matrix(1.0352063,0.2419257,0.0548225,1.1408476,-51.855495,-229.45666)"
   id="g18172">
					
						<path
   d="m 590.599,537.806 c -4.106,-2.974 -9.799,-2.861 -15.22,6.438 -5.424,9.303 -13.371,24.002 -13.371,24.002 l 2.979,2.47 c 0.814,-1.487 7.752,-13.955 12.08,-21.441 1.162,-2.01 2.12,-3.674 3.177,-4.85 0.529,-0.588 1.053,-1.08 1.552,-1.487 0.498,-0.406 0.872,-0.806 1.339,-1.049 0.466,-0.243 0.836,-0.449 1.268,-0.547 0.431,-0.098 0.782,-0.181 1.176,-0.15 0.788,0.061 2.151,0.368 2.774,0.831 0.623,0.463 1.25,1.529 1.646,2.26 0.198,0.365 0.243,0.706 0.355,1.159 0.113,0.452 0.04,0.827 0.049,1.379 0.009,0.552 -0.009,1.18 -0.122,1.845 -0.113,0.664 -0.3,1.403 -0.555,2.193 -0.509,1.581 -1.51,3.291 -2.677,5.465 -4.346,8.094 -11.254,19.836 -12.057,21.212 l 3.422,1.873 c 0,0 8.024,-13.606 13.466,-23.662 5.445,-10.061 2.825,-14.968 -1.281,-17.941 z"
   stroke-linejoin="round"
   stroke-linecap="round"
   stroke-width="0.9895"
   stroke="#000000"
   fill="#eac102"
   id="path18174" />
					<path
   d="m 565.146,570.397 c 0,0 7.448,-13.571 12.1,-21.617 4.649,-8.042 8.562,-8.822 11.069,-6.958 2.508,1.863 3.797,5.452 -0.945,14.099 -4.74,8.645 -12.127,21.337 -12.127,21.337 z"
   stroke-linejoin="round"
   stroke-linecap="round"
   stroke-width="0.9895"
   stroke="#000000"
   id="path18176" />
				</g>
				<path
   d="m 597.511,491.635 6.267,-11.838"
   stroke-width="1.0693"
   stroke="#000000"
   fill="none"
   id="path18178" />
				<path
   d="m 611.072,504.482 6.267,-11.838"
   stroke-width="1.0693"
   stroke="#000000"
   fill="none"
   id="path18180" />
			</g>
			<path
   d="m 591.278,474.53 -24.181,8.815"
   stroke-width="1.0037"
   stroke="#000000"
   fill="none"
   id="path18182" />
			<path
   d="m 592.008,464.742 -26.372,10.95"
   stroke-width="1.0037"
   stroke="#000000"
   fill="none"
   id="path18184" />
			<path
   d="m 586.023,487.093 -23.624,6.301"
   stroke-width="1.0037"
   stroke="#000000"
   fill="none"
   id="path18186" />
			<path
   d="m 580.461,499.716 c -0.749,0 -25.218,6.079 -25.218,6.079"
   stroke-width="1.0037"
   stroke="#000000"
   fill="none"
   id="path18188" />
			<path
   d="m 574.47,512.446 -17.27,4.677"
   stroke-width="1.0037"
   stroke="#000000"
   fill="none"
   id="path18190" />
			<path
   d="m 568.479,524.107 -15.512,2.14"
   stroke-width="1.0037"
   stroke="#000000"
   fill="none"
   id="path18192" />
			<path
   d="m 562.488,535.661 -16.902,2.995"
   stroke-width="1.0037"
   stroke="#000000"
   fill="none"
   id="path18194" />
			<path
   d="m 571.525,481.55 -4.305,10.406"
   stroke-width="1.0037"
   stroke="#000000"
   fill="none"
   id="path18196" />
			<path
   d="m 584.008,477.092 -4.459,11.591"
   stroke-width="1.0037"
   stroke="#000000"
   fill="none"
   id="path18198" />
			<path
   d="m 560.782,504.773 -6.241,10.521"
   stroke-width="1.0037"
   stroke="#000000"
   fill="none"
   id="path18200" />
			<path
   d="m 573.309,501.166 -6.616,13.53"
   stroke-width="1.0037"
   stroke="#000000"
   fill="none"
   id="path18202" />
			<path
   d="m 560.648,525.061 -6.598,12.126"
   stroke-width="1.0037"
   stroke="#000000"
   fill="none"
   id="path18204" />
			<path
   d="m 566.509,503.043 6.442,-12.755"
   stroke-width="1.0037"
   stroke="#000000"
   fill="none"
   id="path18206" />
		</g>
		<g
   transform="matrix(0.9974948,0.00976402,-0.01140582,0.9950301,-126.26899,-402.5227)"
   id="g18688">
			<path
   d="m 611.483,468.774 -5.016,2.023 0.845,7.923 6.031,-0.274 0.281,-7.854 z"
   stroke-width="1.0037"
   stroke="#000000"
   fill="#eac102"
   id="path18690" />
			<path
   d="m 621.79,477.764 -5.016,2.023 0.845,7.923 6.031,-0.273 0.282,-7.854 z"
   stroke-width="1.0037"
   stroke="#000000"
   fill="#eac102"
   id="path18692" />
			<path
   d="m 601.004,459.73 -5.017,2.023 0.845,7.923 6.032,-0.273 0.281,-7.854 z"
   stroke-width="1.0037"
   stroke="#000000"
   fill="#eac102"
   id="path18694" />
			<path
   d="m 574.914,456.842 2.92,2.262 0.974,6.062 -3.665,1.902 -1.489,-9.391 z"
   stroke-width="1.0037"
   stroke="#000000"
   fill="#eac102"
   id="path18696" />
			<path
   d="m 582.244,453.277 2.921,2.262 0.973,6.062 -3.664,1.902 -1.489,-9.391 z"
   stroke-width="1.0037"
   stroke="#000000"
   fill="#eac102"
   id="path18698" />
			<path
   d="m 567.241,460.422 2.921,2.262 0.973,6.062 -3.664,1.902 -1.489,-9.39 z"
   stroke-width="1.0037"
   stroke="#000000"
   fill="#eac102"
   id="path18700" />
			<path
   d="m 582.36,453.14 -3.528,1.722 0.897,7.678 -3.797,1.672 -0.927,-7.521 -3.766,1.827 0.866,7.429 -3.797,1.64 -0.896,-7.24 -3.737,1.794 1.793,13.575 c 1.06,2.314 2.262,4.63 1.824,7.011 -4.049,10.264 -11.079,21.545 -17.734,30.838 l 7.825,3.306 c -5.668,11.984 -11.145,21.899 -19.519,32.794 l 27.544,15.242 39.85,-77.118 -10.104,-18.73 -2.661,-16.66 -3.139,-2.608 -3.169,1.518 0.928,7.833 -3.797,1.672 z"
   stroke-linejoin="bevel"
   stroke-width="1.0037"
   stroke="#000000"
   fill="#eac102"
   id="path18702" />
			<path
   d="m 590.149,450.264 1.52,13.797 c 1.061,2.991 1.256,5.954 0.02,8.871 -11.557,29.634 -28.414,64.082 -41.042,80.781 l 24.209,11.031 1.269,1.319 19.24,19.992 c 3.853,-25.817 13.873,-55.974 25.329,-85.713 1.444,-1.622 5.252,-3.914 7.03,-4.351 l -0.561,-13.423 -5.293,-4.716 0.168,6.062 -5.315,-4.66 -0.14,-6.023 -5.29,-4.658 0.15,6.11 -5.133,-4.641 -0.294,-5.862 -5.294,-4.755 0.288,6.104 -5.307,-4.656 -0.264,-5.945 z"
   stroke-linejoin="bevel"
   stroke-width="1.0037"
   stroke="#000000"
   fill="#eac102"
   id="path18704" />
			<path
   d="M 591.531,464.394 627.552,496.1 Z"
   stroke-width="1.0037"
   stroke="#000000"
   fill="none"
   id="path18706" />
			<g
   transform="matrix(0.8790016,-0.1392886,0.04891008,0.9945481,45.385186,88.851643)"
   id="g18708">
				<path
   d="m 594.603,470.735 32.167,30.473 z"
   stroke-width="1.0693"
   stroke="#000000"
   fill="none"
   id="path18710" />
				<path
   d="m 558.976,527.272 39.294,37.386"
   stroke-width="1.0693"
   stroke="#000000"
   fill="none"
   id="path18712" />
				<path
   d="m 567.028,516.972 36.214,34.307"
   stroke-width="1.0693"
   stroke="#000000"
   fill="none"
   id="path18714" />
				<path
   d="m 574.342,505.811 34.342,32.534"
   stroke-width="1.0693"
   stroke="#000000"
   fill="none"
   id="path18716" />
				<path
   d="m 581.345,494.354 33.094,31.351"
   stroke-width="1.0693"
   stroke="#000000"
   fill="none"
   id="path18718" />
				<path
   d="m 587.957,482.528 32.704,30.982"
   stroke-width="1.0693"
   stroke="#000000"
   fill="none"
   id="path18720" />
				<path
   d="m 595.279,495.174 c -1.273,-1.06 -3.06,-0.882 -4.986,2.665 -2.056,3.784 -5.906,11.321 -5.906,11.321 l 5.156,4.854 c 0,0 3.846,-7.036 5.929,-11.133 2.084,-4.099 1.333,-6.178 0.051,-7.475 -0.08,-0.082 -0.159,-0.161 -0.244,-0.232 z"
   stroke-linejoin="round"
   stroke-linecap="round"
   stroke-width="1.0693"
   stroke="#000000"
   id="path18722" />
				<path
   d="m 608.845,508.026 c -1.272,-1.06 -3.059,-0.882 -4.985,2.665 -2.057,3.784 -5.895,11.3 -5.895,11.3 l 5.134,4.895 c 0,0 3.844,-7.068 5.928,-11.165 2.084,-4.098 1.345,-6.166 0.061,-7.464 -0.079,-0.081 -0.158,-0.16 -0.243,-0.231 z"
   stroke-linejoin="round"
   stroke-linecap="round"
   stroke-width="1.0693"
   stroke="#000000"
   id="path18724" />
				<path
   d="m 584.895,515.466 2.043,-3.861"
   stroke-width="1.0693"
   stroke="#000000"
   fill="none"
   id="path18726" />
				<path
   d="m 598.457,528.313 2.043,-3.86"
   stroke-width="1.0693"
   stroke="#000000"
   fill="none"
   id="path18728" />
				<path
   d="m 591.469,522.274 -6.424,12.133"
   stroke-width="1.0693"
   stroke="#000000"
   fill="none"
   id="path18730" />
				<path
   d="m 556.209,549.912 8.817,-16.449"
   stroke-width="1.0693"
   stroke="#000000"
   fill="none"
   id="path18732" />
				<path
   d="m 584.787,573.657 7.57,-14.302"
   stroke-width="1.0693"
   stroke="#000000"
   fill="none"
   id="path18734" />
				<path
   d="m 571.468,521.296 6.413,-12.115"
   stroke-width="1.0693"
   stroke="#000000"
   fill="none"
   id="path18736" />
				<path
   d="m 598.798,547.188 6.413,-12.115"
   stroke-width="1.0693"
   stroke="#000000"
   fill="none"
   id="path18738" />
				<path
   d="m 604.411,497.825 -6.61,12.488"
   stroke-width="1.0693"
   stroke="#000000"
   fill="none"
   id="path18740" />
				<path
   d="m 584.317,497.022 6.246,-11.799"
   stroke-width="1.0693"
   stroke="#000000"
   fill="none"
   id="path18742" />
				<path
   d="m 611.649,522.914 6.245,-11.798"
   stroke-width="1.0693"
   stroke="#000000"
   fill="none"
   id="path18744" />
				<g
   transform="matrix(1.0352063,0.2419257,0.0548225,1.1408476,-51.855495,-229.45666)"
   id="g18746">
					
						<path
   d="m 590.599,537.806 c -4.106,-2.974 -9.799,-2.861 -15.22,6.438 -5.424,9.303 -13.37,24.002 -13.37,24.002 l 2.979,2.47 c 0.814,-1.487 7.751,-13.955 12.08,-21.441 1.162,-2.01 2.119,-3.674 3.178,-4.85 0.528,-0.588 1.052,-1.08 1.551,-1.487 0.5,-0.406 0.873,-0.806 1.339,-1.049 0.466,-0.243 0.837,-0.449 1.268,-0.547 0.432,-0.098 0.782,-0.181 1.176,-0.15 0.788,0.061 2.151,0.368 2.774,0.831 0.622,0.463 1.25,1.529 1.646,2.26 0.198,0.365 0.243,0.706 0.355,1.159 0.113,0.452 0.039,0.827 0.049,1.379 0.009,0.552 -0.008,1.18 -0.122,1.845 -0.114,0.664 -0.3,1.403 -0.555,2.193 -0.508,1.581 -1.509,3.291 -2.677,5.465 -4.345,8.094 -11.253,19.835 -12.056,21.212 l 3.422,1.873 c 0,0 8.024,-13.606 13.466,-23.662 5.442,-10.061 2.823,-14.967 -1.283,-17.941 z"
   stroke-linejoin="round"
   stroke-linecap="round"
   stroke-width="0.9895"
   stroke="#000000"
   fill="#eac102"
   id="path18748" />
					<path
   d="m 565.146,570.398 c 0,0 7.448,-13.571 12.1,-21.617 4.649,-8.042 8.561,-8.822 11.069,-6.958 2.507,1.863 3.796,5.452 -0.945,14.099 -4.74,8.645 -12.127,21.337 -12.127,21.337 z"
   stroke-linejoin="round"
   stroke-linecap="round"
   stroke-width="0.9895"
   stroke="#000000"
   id="path18750" />
				</g>
				<path
   d="m 597.51,491.635 6.267,-11.838"
   stroke-width="1.0693"
   stroke="#000000"
   fill="none"
   id="path18752" />
				<path
   d="m 611.072,504.483 6.268,-11.838"
   stroke-width="1.0693"
   stroke="#000000"
   fill="none"
   id="path18754" />
			</g>
			<path
   d="m 591.277,474.53 -24.181,8.815"
   stroke-width="1.0037"
   stroke="#000000"
   fill="none"
   id="path18756" />
			<path
   d="m 592.008,464.743 -26.373,10.95"
   stroke-width="1.0037"
   stroke="#000000"
   fill="none"
   id="path18758" />
			<path
   d="M 586.024,487.093 562.4,493.394"
   stroke-width="1.0037"
   stroke="#000000"
   fill="none"
   id="path18760" />
			<path
   d="m 580.46,499.716 c -0.749,0 -25.218,6.079 -25.218,6.079"
   stroke-width="1.0037"
   stroke="#000000"
   fill="none"
   id="path18762" />
			<path
   d="m 574.47,512.446 -17.27,4.677"
   stroke-width="1.0037"
   stroke="#000000"
   fill="none"
   id="path18764" />
			<path
   d="m 568.479,524.107 -15.511,2.14"
   stroke-width="1.0037"
   stroke="#000000"
   fill="none"
   id="path18766" />
			<path
   d="m 562.489,535.661 -16.903,2.995"
   stroke-width="1.0037"
   stroke="#000000"
   fill="none"
   id="path18768" />
			<path
   d="m 571.526,481.551 -4.305,10.406"
   stroke-width="1.0037"
   stroke="#000000"
   fill="none"
   id="path18770" />
			<path
   d="m 584.008,477.093 -4.458,11.591"
   stroke-width="1.0037"
   stroke="#000000"
   fill="none"
   id="path18772" />
			<path
   d="m 560.782,504.773 -6.241,10.521"
   stroke-width="1.0037"
   stroke="#000000"
   fill="none"
   id="path18774" />
			<path
   d="m 573.309,501.166 -6.616,13.53"
   stroke-width="1.0037"
   stroke="#000000"
   fill="none"
   id="path18776" />
			<path
   d="m 560.647,525.061 -6.598,12.126"
   stroke-width="1.0037"
   stroke="#000000"
   fill="none"
   id="path18778" />
			<path
   d="m 566.509,503.043 6.443,-12.755"
   stroke-width="1.0037"
   stroke="#000000"
   fill="none"
   id="path18780" />
		</g>
		<path
   d="m 254.521,142.702 c 175.177,0 205.216,43.038 197.506,50.39 v 0 C 497.67,176.158 429.974,128.4 254.521,128.4 79.068,128.4 10.152,176.138 57.015,193.092 v 0 c -7.709,-7.352 22.329,-50.39 197.506,-50.39 z"
   stroke="#000000"
   fill="#eac102"
   id="path16291" />
		<g
   transform="matrix(0.8635206,0,0,0.7979703,-587.76189,-338.92175)"
   id="g16293">
			<path
   d="m 1065.523,590.136 c -19.884,-2.177 -44.086,1.206 -36.517,14.73"
   stroke-width="1.2047"
   stroke="#000000"
   fill="none"
   id="path16295" />
			<path
   d="m 1107.901,595.876 c -28.063,-4.338 -42.364,2.604 -39.595,11.86"
   stroke-width="1.2047"
   stroke="#000000"
   fill="none"
   id="path16297" />
			<path
   d="m 1178.429,615.176 c -29.26,-8.513 -42.771,-2.056 -40.615,5.105"
   stroke-width="1.2047"
   stroke="#000000"
   fill="none"
   id="path16299" />
			<path
   d="m 1210.432,633.859 c -12.368,-8.583 -40.656,-17.484 -42.088,-2.9"
   stroke-width="1.2047"
   stroke="#000000"
   fill="none"
   id="path16301" />
			<path
   d="m 1218.271,656.874 c -0.335,-18.948 -26.735,-19.301 -25.938,-12.085"
   stroke-width="1.2047"
   stroke="#000000"
   fill="none"
   id="path16303" />
			<path
   d="m 935.674,586.463 c -25.442,1.335 -35.155,12.203 -29.456,19.447"
   stroke-width="1.2047"
   stroke="#000000"
   fill="none"
   id="path16305" />
			<path
   d="m 897.068,589.082 c -27.347,3.838 -30.592,14.603 -25.442,19.949"
   stroke-width="1.2047"
   stroke="#000000"
   fill="none"
   id="path16307" />
			<path
   d="m 769.67,616.018 c -22.16,9.992 -15.464,27.379 -10.657,28.563"
   stroke-width="1.2047"
   stroke="#000000"
   fill="none"
   id="path16309" />
			<path
   d="m 976.597,585.69 c -17.773,-0.985 -38.729,7.323 -28.305,18.132"
   stroke-width="1.2047"
   stroke="#000000"
   fill="none"
   id="path16311" />
			<path
   d="m 1019.075,586.734 c -27.903,-0.741 -35.988,8.233 -31.738,16.827"
   stroke-width="1.2047"
   stroke="#000000"
   fill="none"
   id="path16313" />
			<path
   d="m 1146.297,604.521 c -39.005,-8.151 -43.189,1.44 -42.518,8.434"
   stroke-width="1.2047"
   stroke="#000000"
   fill="none"
   id="path16315" />
			<path
   d="m 741.605,631.718 c -6.407,4.931 -6.426,21.674 4.992,25.948"
   stroke-width="1.2047"
   stroke="#000000"
   fill="none"
   id="path16317" />
			<path
   d="m 797.611,606.38 c -23.569,5.81 -20.027,23.679 -15.502,25.641"
   stroke-width="1.2047"
   stroke="#000000"
   fill="none"
   id="path16319" />
			<path
   d="m 824.64,599.462 c -23.979,3.605 -21.979,20.901 -17.638,23.138"
   stroke-width="1.2047"
   stroke="#000000"
   fill="none"
   id="path16321" />
			<path
   d="m 857.476,593.587 c -23.974,3.404 -24.533,18.511 -20.524,21.299"
   stroke-width="1.2047"
   stroke="#000000"
   fill="none"
   id="path16323" />
		</g>
		<g
   transform="matrix(0.8943325,0,0,1.2007819,-938.82663,-112.84042)"
   id="g9200">
			<g
   transform="translate(181.95199,-177.54891)"
   id="g9204">
				<path
   d="m 1137.798,492.113 v -43.315 m -14.489,44.733 0.188,-45.864 m -10.748,46.43 v -46.715"
   stroke-width="0.2897"
   stroke="#000000"
   fill="none"
   id="path9240" />
				<path
   d="M 1103.772,494.663 V 447.382"
   stroke-width="0.5794"
   stroke="#000000"
   fill="none"
   id="path9206" />
				<path
   d="M 1095.22,494.663 V 447.382"
   stroke-width="0.853"
   stroke="#000000"
   fill="none"
   id="path9208" />
				<path
   d="M 1087.146,494.663 V 447.382"
   stroke-width="1.1426"
   stroke="#000000"
   fill="none"
   id="path9210" />
				<path
   d="M 1079.143,494.663 V 447.382"
   stroke-width="1.4323"
   stroke="#000000"
   fill="none"
   id="path9212" />
				<path
   d="M 1072.011,494.663 V 447.382"
   stroke-width="1.722"
   stroke="#000000"
   fill="none"
   id="path9214" />
				<path
   d="m 1058.411,492.113 -0.188,-43.034 m 6.636,43.6 v -45.013"
   stroke-width="2.0117"
   stroke="#000000"
   fill="none"
   id="path9216" />
				<path
   d="M 1045.854,490.178 V 450.53 m 6.362,40.78 -0.188,-42.194"
   stroke-width="2.2853"
   stroke="#000000"
   fill="none"
   id="path9218" />
				<path
   d="m 1029.008,487.914 v -34.835 m 5.527,35.401 v -36.533 m 5.695,37.665 v -37.95"
   stroke-width="2.575"
   stroke="#000000"
   fill="none"
   id="path9220" />
				<path
   d="M 1023.104,487.629 V 453.93"
   stroke-width="2.8647"
   stroke="#000000"
   fill="none"
   id="path9222" />
				<path
   d="M 1017.598,485.931 V 454.496"
   stroke-width="3.1543"
   stroke="#000000"
   fill="none"
   id="path9224" />
				<path
   d="M 1011.694,485.08 V 455.91"
   stroke-width="3.444"
   stroke="#000000"
   fill="none"
   id="path9226" />
				<path
   d="m 999.605,482.534 -0.188,-23.224 m 6.383,24.356 v -26.055"
   stroke-width="3.7176"
   stroke="#000000"
   fill="none"
   id="path9228" />
				<path
   d="M 993.411,480.551 V 460.157"
   stroke-width="3.9268"
   stroke="#000000"
   fill="none"
   id="path9230" />
				<path
   d="M 987.738,478.897 V 461.914"
   stroke-width="4.2165"
   stroke="#000000"
   fill="none"
   id="path9232" />
				<path
   d="M 981.543,476.633 V 463.332"
   stroke-width="4.4901"
   stroke="#000000"
   fill="none"
   id="path9234" />
				<path
   d="m 975.176,475.501 v -9.905"
   stroke-width="4.7637"
   stroke="#000000"
   fill="none"
   id="path9236" />
				<path
   d="m 968.437,473.239 v -4.813"
   stroke-width="5.6167"
   stroke="#000000"
   fill="none"
   id="path9238" />
				<path
   d="M 1198.513,494.663 V 447.382"
   stroke-width="0.5794"
   stroke="#000000"
   fill="none"
   id="path9242" />
				<path
   d="M 1207.065,494.663 V 447.382"
   stroke-width="0.853"
   stroke="#000000"
   fill="none"
   id="path9244" />
				<path
   d="M 1215.139,494.663 V 447.382"
   stroke-width="1.1426"
   stroke="#000000"
   fill="none"
   id="path9246" />
				<path
   d="M 1223.142,494.663 V 447.382"
   stroke-width="1.4323"
   stroke="#000000"
   fill="none"
   id="path9248" />
				<path
   d="M 1230.274,494.663 V 447.382"
   stroke-width="1.722"
   stroke="#000000"
   fill="none"
   id="path9250" />
				<path
   d="m 1243.874,492.113 0.189,-43.034 m -6.636,43.6 v -45.013"
   stroke-width="2.0117"
   stroke="#000000"
   fill="none"
   id="path9252" />
				<path
   d="M 1256.431,490.178 V 450.53 m -6.361,40.78 0.188,-42.194"
   stroke-width="2.2853"
   stroke="#000000"
   fill="none"
   id="path9254" />
				<path
   d="m 1273.277,487.914 v -34.835 m -5.528,35.401 v -36.533 m -5.694,37.665 v -37.95"
   stroke-width="2.575"
   stroke="#000000"
   fill="none"
   id="path9256" />
				<path
   d="M 1279.182,487.629 V 453.93"
   stroke-width="2.8647"
   stroke="#000000"
   fill="none"
   id="path9258" />
				<path
   d="M 1284.688,485.931 V 454.496"
   stroke-width="3.1543"
   stroke="#000000"
   fill="none"
   id="path9260" />
				<path
   d="M 1290.592,485.08 V 455.91"
   stroke-width="3.444"
   stroke="#000000"
   fill="none"
   id="path9262" />
				<path
   d="m 1302.679,482.534 0.189,-23.224 m -6.383,24.356 v -26.055"
   stroke-width="3.7176"
   stroke="#000000"
   fill="none"
   id="path9264" />
				<path
   d="M 1308.875,480.551 V 460.157"
   stroke-width="3.9268"
   stroke="#000000"
   fill="none"
   id="path9266" />
				<path
   d="M 1314.548,478.897 V 461.914"
   stroke-width="4.2165"
   stroke="#000000"
   fill="none"
   id="path9268" />
				<path
   d="M 1320.742,476.633 V 463.332"
   stroke-width="4.4901"
   stroke="#000000"
   fill="none"
   id="path9270" />
				<path
   d="m 1327.11,475.501 v -9.905"
   stroke-width="4.7637"
   stroke="#000000"
   fill="none"
   id="path9272" />
				<path
   d="m 1333.848,473.239 v -4.813"
   stroke-width="5.6167"
   stroke="#000000"
   fill="none"
   id="path9274" />
				<path
   d="m 1164.487,492.113 v -43.315 m 14.489,44.733 -0.189,-45.864 m 10.749,46.43 v -46.715"
   stroke-width="0.2897"
   stroke="#000000"
   fill="none"
   id="path9276" />
			</g>
		</g>
		<path
   d="m 254.286,203.936 c -100.5,0 -182.071,15.662 -182.071,34.967 0,19.304 81.571,34.967 182.071,34.967 100.499,0 182.071,-15.663 182.071,-34.967 0,-19.305 -81.572,-34.967 -182.071,-34.967 z m 0,12.318 c 91.878,0 166.433,16.921 166.433,23.265 0,6.72 -74.554,24.229 -166.433,24.229 -91.878,0 -166.433,-17.509 -166.433,-24.229 0,-6.344 74.554,-23.265 166.433,-23.265 z"
   stroke-linejoin="round"
   stroke-linecap="round"
   stroke="#000000"
   fill="#eac102"
   id="path16343" />
		<path
   d="m 74.899,232.762 c -2.48,5.147 3.177,10.274 12.789,6.803"
   stroke="#000000"
   fill="none"
   id="path16367" />
		<path
   d="m 122.698,214.706 c -17.433,3.58 -14.813,14.589 -11.466,15.798"
   stroke="#000000"
   fill="none"
   id="path16369" />
		<path
   d="m 102.032,219.741 c -16.391,5.61 -11.438,15.373 -7.882,16.037"
   stroke="#000000"
   fill="none"
   id="path16359" />
		<path
   d="m 320.863,206.552 c -14.708,-1.63 -32.608,0.904 -27.011,11.033"
   stroke="#000000"
   fill="none"
   id="path16345" />
		<path
   d="M 224.818,204.343 C 206,205.29 198.815,213.001 203.03,218.14"
   stroke="#000000"
   fill="none"
   id="path16355" />
		<path
   d="m 196.263,205.832 c -20.228,2.768 -22.628,10.531 -18.818,14.386"
   stroke="#000000"
   fill="none"
   id="path16357" />
		<path
   d="m 255.088,203.839 c -13.146,-0.681 -28.646,5.067 -20.937,12.545"
   stroke="#000000"
   fill="none"
   id="path16361" />
		<path
   d="m 286.507,204.394 c -20.639,-0.531 -26.619,5.908 -23.476,12.076"
   stroke="#000000"
   fill="none"
   id="path16363" />
		<path
   d="m 142.691,211.456 c -17.736,2.366 -16.257,13.719 -13.046,15.188"
   stroke="#000000"
   fill="none"
   id="path16371" />
		<path
   d="m 166.978,208.374 c -17.732,2.399 -18.146,13.049 -15.18,15.013"
   stroke="#000000"
   fill="none"
   id="path16373" />
		<path
   d="m 351.79,209.297 c -22.435,-2.582 -32.174,3.125 -28.868,9.914"
   stroke="#000000"
   fill="none"
   id="path16347" />
		<path
   d="m 405.493,219.484 c -21.952,-5.672 -33.647,-0.846 -28.488,6.678"
   stroke="#000000"
   fill="none"
   id="path16349" />
		<path
   d="m 431.196,230.802 c -9.645,-5.563 -30.585,-9.962 -30.203,0.949"
   stroke="#000000"
   fill="none"
   id="path16351" />
		<path
   d="m 433.426,244.881 c 5.341,-12.05 -15.025,-11.507 -14.437,-6.771"
   stroke="#000000"
   fill="none"
   id="path16353" />
		<path
   d="m 379.745,213.811 c -29.224,-5.153 -31.816,2.903 -30.957,8.629"
   stroke="#000000"
   fill="none"
   id="path16365" />
	</g>
</g>
<rect
   id="rect326"
   height="423.55295"
   width="423.55295"
   stroke-width="2.99997"
   stroke="#000000"
   fill="#ed1c24"
   transform="rotate(-45)"
   y="379.55823"
   x="-376.55826" />
<g
   transform="translate(-0.87544178,-138.8425)"
   style="stroke-width:1;stroke-miterlimit:4;stroke-dasharray:none"
   id="g328">
	<g
   style="stroke-width:1;stroke-miterlimit:4;stroke-dasharray:none"
   id="g330">
		<path
   style="stroke-width:1;stroke-miterlimit:4;stroke-dasharray:none"
   id="path332"
   d="m 338.577,650.334 c 4.271,-9.139 6.51,-19.997 9.473,-30.438 2.88,-10.157 6.341,-20.357 8.792,-30.438 2.487,-10.229 3.271,-19.724 7.441,-30.434 2.462,-6.333 7.405,-21.365 14.881,-23 21.798,-4.765 15.467,26.875 12.852,40.584 -2.209,11.551 -3.187,23.248 -4.735,33.143 -3.877,24.764 -8.282,43.088 -11.498,63.576 5.496,-0.511 9.56,-5.828 13.525,-10.144 3.938,-4.281 8.502,-8.322 12.175,-12.851 7.64,-9.418 16.503,-18.713 22.322,-27.732 4.341,-6.73 7.148,-16.942 17.584,-16.232 4.494,0.306 10.092,5.3 10.824,11.498 1.13,9.594 -7.809,20.939 -12.176,28.408 -4.32,7.391 -10.03,18.939 -14.881,25.025 -4.528,5.684 -11.633,10.617 -14.878,16.233 -1.482,2.562 -2.719,6.689 -4.059,10.146 -1.227,3.16 -3.142,6.511 -4.061,9.469 -3.326,10.749 -4.603,23.966 -6.761,35.849 -1.072,5.895 -2.229,11.749 -3.382,17.586 -1.183,5.971 -1.747,12.625 -3.384,17.586 -1.591,4.822 -5.961,9.85 -6.087,14.881 -0.219,8.713 7.185,16.642 8.117,22.996 -11.31,10.564 -29.563,14.993 -47.348,19.614 -17.546,4.558 -36.259,9.093 -55.459,10.822 -5.933,-5.149 -6.799,-15.243 -12.177,-20.968 -2.662,-2.838 -9.225,-5.381 -12.851,-8.116 -8.228,-6.212 -17.306,-16.891 -26.379,-27.056 -8.618,-9.657 -22.585,-17.98 -28.405,-28.408 -4.699,-8.415 -5.687,-17.598 -10.148,-25.027 -3.473,-5.777 -8.736,-10.084 -12.851,-15.556 -2.212,-2.944 -3.313,-6.565 -5.412,-9.471 -3.027,-4.187 -8.208,-8.743 -13.525,-13.525 -4.925,-4.431 -13.024,-9.587 -13.527,-13.527 -1.4,-10.97 15.639,-14.334 27.731,-12.851 7.027,0.861 20.358,6.404 25.026,10.82 3.943,3.733 3.691,9.316 6.087,14.205 1.803,3.675 5.628,6.816 10.146,10.821 2.602,2.312 8.697,8.29 12.849,8.116 5.885,-0.241 15.75,-14.225 17.586,-20.965 3.168,-11.638 2.034,-27.293 0,-40.584 -1.821,-11.908 -5.608,-23.686 -7.438,-35.848 -1.896,-12.564 -3.178,-24.232 -5.413,-37.877 -1.923,-11.744 -7.07,-28.53 -4.06,-37.877 2.097,-6.506 13.428,-14.347 22.322,-8.793 5.305,3.311 6.938,18.696 9.467,27.055 3.271,10.807 6.664,21.19 8.119,27.73 3.242,14.588 5.543,29.339 10.146,43.965 1.279,4.076 2.365,9.09 6.087,11.498 4.647,-2.787 4.429,-8.97 5.412,-14.203 2.88,-15.305 3.345,-33.348 5.409,-52.08 1.861,-16.871 4.879,-33.863 6.087,-51.405 0.952,-13.78 1.943,-22.192 12.854,-25.702 5.303,-1.707 13.626,3.325 15.557,8.793 1.088,3.091 1.11,9.141 1.349,14.205 1.494,31.318 -4.002,71.613 -4.056,101.455 -0.019,8.886 1.581,17.685 4.731,25.029 z"
   stroke-width="3"
   stroke="#000000"
   fill="#e3e4e5" />
	</g>
	<path
   style="stroke-width:1;stroke-miterlimit:4;stroke-dasharray:none"
   d="m 170.209,701.361 c 1.322,-3.872 5.061,-9.185 1.506,-13.029 -2.309,-2.499 -5.143,-5.849 -7.451,-8.345 -1.384,-1.497 -4.332,-3.264 -5.718,-4.764"
   stroke="#000000"
   fill="none"
   sodipodi:nodetypes="cssc"
   id="path3080_1_" />
	<path
   style="stroke-width:1;stroke-miterlimit:4;stroke-dasharray:none"
   d="m 235.259,547.092 c -0.583,-3.632 2.885,9.613 3.47,13.243 2.009,6.254 8.4,7.737 14.369,6.837 2.736,-0.344 9.666,-6.083 8.774,-11.191 -0.218,-1.36 -1.598,-12.245 -1.2,-13.462"
   stroke="#000000"
   fill="none"
   sodipodi:nodetypes="ccccc"
   id="path3082_1_" />
	<path
   style="stroke-width:1;stroke-miterlimit:4;stroke-dasharray:none"
   d="m 310.069,513.524 c 0,-3.766 1.484,10.726 2.403,14.121 3.244,5.234 5.983,5.871 11.565,5.727 5.35,0 7.229,-1.545 9.227,-5.541 1.219,-2.438 2.462,-12.742 3.784,-15.393"
   stroke="#000000"
   fill="none"
   sodipodi:nodetypes="cccsc"
   id="path3084_1_" />
	<path
   style="stroke-width:1;stroke-miterlimit:4;stroke-dasharray:none"
   d="m 371.793,542.996 c 1.781,-2.339 -1.49,13.043 0.092,15.532 0.229,5.802 3.256,7.308 6.251,8.419 3.115,0.666 10.644,-3.063 11.38,-5.922 0.833,-3.242 3.29,-12.716 4.252,-13.803"
   stroke="#000000"
   fill="none"
   sodipodi:nodetypes="cccsc"
   id="path3086_1_" />
	<path
   style="stroke-width:1;stroke-miterlimit:4;stroke-dasharray:none"
   d="m 433.313,608.805 c 2.195,-3.465 -2.878,5.33 -4.211,9.407 -1.433,4.386 -0.189,10.077 2.73,13.507 6.088,3.275 9.208,3.878 13.816,-2.301 0.825,-1.298 6.027,-7.529 6.852,-8.83"
   stroke="#000000"
   fill="none"
   sodipodi:nodetypes="csccc"
   id="path3088_1_" />
</g>
</svg>
