<?xml version="1.0" encoding="UTF-8" standalone="no"?>
<!-- Created with Inkscape (http://www.inkscape.org/) -->
<svg
   xmlns:svg="http://www.w3.org/2000/svg"
   xmlns="http://www.w3.org/2000/svg"
   xmlns:xlink="http://www.w3.org/1999/xlink"
   version="1.0"
   width="520"
   height="620"
   id="svg3194">
  <defs
     id="defs3196" />
  <g
     transform="translate(-293.22478,-223.09601)"
     id="layer1"
     style="display:inline">
    <rect
       width="0"
       height="22.382799"
       x="-643.80493"
       y="356.42798"
       transform="matrix(0.9733285,0.2294157,-0.2294157,0.9733285,0,0)"
       id="rect2743"
       style="fill:#008f4c;fill-opacity:1;fill-rule:evenodd;stroke:#0c0909;stroke-width:1.03836799;stroke-miterlimit:4;stroke-dasharray:none;stroke-opacity:1" />
    <g
       transform="matrix(0.8094547,0,0,0.752543,527.30337,17.757617)"
       id="g5579"
       style="fill:#c87137;fill-opacity:1;stroke-width:1.2812624;stroke-miterlimit:4;stroke-dasharray:none;display:inline" />
  </g>
  <g
     transform="translate(-236.79606,-299.73636)"
     id="layer4"
     style="display:inline">
    <g
       transform="translate(873.00016,-55.320157)"
       id="g5818" />
    <g
       transform="translate(873.00016,-55.320157)"
       id="g5820" />
    <g
       transform="translate(873.00016,-55.320157)"
       id="g5822" />
  </g>
  <g
     transform="translate(-236.79606,-299.73636)"
     id="layer5"
     style="display:inline">
    <g
       transform="translate(-582.73933,640.16742)"
       id="g5438"
       style="display:inline" />
    <g
       transform="translate(-526.31061,563.52708)"
       id="g5440"
       style="display:inline" />
    <g
       transform="translate(-526.31061,563.52708)"
       id="g5559" />
    <g
       transform="translate(-526.31061,563.52708)"
       id="g5561"
       style="display:inline" />
  </g>
  <g
     transform="translate(-236.79606,-299.73636)"
     id="layer6"
     style="display:inline" />
  <g
     transform="translate(-227.79606,-290.73637)"
     id="layer2"
     style="display:inline">
    <path
       d="M 736.05728,302.17035 C 571.66048,302.1782 402.17027,303.04484 237.77359,302.06921 C 237.28336,448.68921 237.54716,653.5564 237.42396,732.88774 C 237.30076,812.21909 316.45436,861.54089 362.51165,861.53979 C 408.07026,861.53869 470.91797,855.30989 487.59938,901.0692 C 501.28087,855.35989 559.08848,861.89809 612.68697,861.53979 C 664.78958,861.18149 735.39468,798.22111 735.53068,732.88774 C 735.66587,667.80636 737.07458,428.85313 736.05728,302.17035 z"
       id="path5472"
       style="fill:#eac102;fill-opacity:1;fill-rule:evenodd;stroke:none;stroke-width:1;stroke-linecap:butt;stroke-linejoin:miter;marker:none;marker-start:none;marker-mid:none;marker-end:none;stroke-miterlimit:4;stroke-dasharray:none;stroke-dashoffset:0;stroke-opacity:1;visibility:visible;display:inline;overflow:visible;enable-background:accumulate" />
    <g
       transform="matrix(0.4678149,0,0,0.4678149,234.49599,400.71396)"
       id="g2678"
       style="stroke:#000000;stroke-width:2.13759756;stroke-miterlimit:4;stroke-dasharray:none;stroke-opacity:1;display:inline" />
    <g
       transform="matrix(6.7596519,0,0,6.3498321,-2521.6146,-1535.569)"
       id="g7278"
       style="fill:#eac102;fill-opacity:1;stroke:#000000;stroke-width:0.15263592;stroke-miterlimit:4;stroke-dasharray:none;stroke-opacity:1" />
    <use
       transform="translate(-2.9655713e-3,102.86887)"
       id="use7283"
       style="fill:#eac102;fill-opacity:1;stroke:#000000;stroke-width:0.26261625;stroke-miterlimit:4;stroke-dasharray:none;stroke-opacity:1"
       x="0"
       y="0"
       width="885.82678"
       height="531.49603"
       xlink:href="#g7278" />
    <use
       transform="matrix(3.9287974,0,0,3.6906016,-367.75492,-44.492601)"
       id="use6388"
       style="fill:#eac102;fill-opacity:1;stroke:#000000;stroke-width:0.26261625;stroke-miterlimit:4;stroke-dasharray:none;stroke-opacity:1"
       x="0"
       y="0"
       width="885.82678"
       height="531.49603"
       xlink:href="#g7278" />
    <g
       transform="translate(-2.247236e-2,0)"
       id="g3832">
      <path
         d="M 161.53125,302.8125 L 161.53125,835.78125 C 179.39876,848.74305 198.9609,857.16934 216.09375,860.34375 L 216.09375,302.8125 L 161.53125,302.8125 z"
         transform="translate(131.94626,-0.2405966)"
         id="rect3824"
         style="opacity:1;fill:#ed1c24;fill-opacity:1;fill-rule:nonzero;stroke:#000000;stroke-width:1;stroke-linecap:butt;stroke-linejoin:miter;marker:none;marker-start:none;marker-mid:none;marker-end:none;stroke-miterlimit:4;stroke-dasharray:none;stroke-dashoffset:0;stroke-opacity:1;visibility:visible;display:inline;overflow:visible;enable-background:accumulate" />
      <path
         d="M 272.3125,302.8125 L 272.3125,861.625 C 291.86553,862.08467 311.30294,864.09679 326.875,871.125 L 326.875,302.8125 L 272.3125,302.8125 z"
         transform="translate(131.94626,-0.2405966)"
         id="rect3826"
         style="opacity:1;fill:#ed1c24;fill-opacity:1;fill-rule:nonzero;stroke:#000000;stroke-width:1;stroke-linecap:butt;stroke-linejoin:miter;marker:none;marker-start:none;marker-mid:none;marker-end:none;stroke-miterlimit:4;stroke-dasharray:none;stroke-dashoffset:0;stroke-opacity:1;visibility:visible;display:inline;overflow:visible;enable-background:accumulate" />
      <path
         d="M 383.125,302.8125 L 383.125,870.4375 C 398.04367,863.79938 417.19863,862.07538 437.6875,861.71875 L 437.6875,302.8125 L 383.125,302.8125 z"
         transform="translate(131.94626,-0.2405966)"
         id="rect3828"
         style="opacity:1;fill:#ed1c24;fill-opacity:1;fill-rule:nonzero;stroke:#000000;stroke-width:1;stroke-linecap:butt;stroke-linejoin:miter;marker:none;marker-start:none;marker-mid:none;marker-end:none;stroke-miterlimit:4;stroke-dasharray:none;stroke-dashoffset:0;stroke-opacity:1;visibility:visible;display:inline;overflow:visible;enable-background:accumulate" />
      <path
         d="M 625.85251,302.5719 L 625.85251,860.22815 C 643.88685,856.8509 663.14573,847.16411 680.41501,833.35315 L 680.41501,302.5719 L 625.85251,302.5719 z"
         id="rect3830"
         style="opacity:1;fill:#ed1c24;fill-opacity:1;fill-rule:nonzero;stroke:#000000;stroke-width:1;stroke-linecap:butt;stroke-linejoin:miter;marker:none;marker-start:none;marker-mid:none;marker-end:none;stroke-miterlimit:4;stroke-dasharray:none;stroke-dashoffset:0;stroke-opacity:1;visibility:visible;display:inline;overflow:visible;enable-background:accumulate" />
    </g>
    <path
       d="M 487.79879,330.72815 L 334.89254,855.6969 C 345.05639,859.003 354.80224,860.69711 363.39254,860.6969 C 408.95115,860.69582 471.80489,854.46879 488.48629,900.22815 C 502.1678,854.51879 559.95029,861.0552 613.54879,860.6969 C 622.21424,860.63731 631.39406,858.8489 640.67379,855.60315 L 487.79879,330.72815 z"
       id="path2558"
       style="fill:#e3e4e5;fill-opacity:1;fill-rule:evenodd;stroke:#000000;stroke-width:1;stroke-linecap:butt;stroke-linejoin:miter;marker:none;marker-start:none;marker-mid:none;marker-end:none;stroke-miterlimit:4;stroke-dasharray:none;stroke-dashoffset:0;stroke-opacity:1;visibility:visible;display:inline;overflow:visible;enable-background:accumulate" />
    <path
       d="M 736.92952,301.3375 C 572.53272,301.34535 403.04251,302.21199 238.64584,301.23636 C 238.1556,447.85636 238.4194,652.72354 238.2962,732.05488 C 238.17301,811.38623 317.32661,860.70803 363.3839,860.70693 C 408.94251,860.70583 471.79022,854.47703 488.47162,900.23639 C 502.15312,854.52703 559.96072,861.06523 613.55922,860.70693 C 665.66182,860.34863 736.26692,797.38825 736.40292,732.05488 C 736.53812,666.9735 737.94682,428.02028 736.92952,301.3375 z"
       id="path5290"
       style="fill:none;fill-opacity:1;fill-rule:evenodd;stroke:#000000;stroke-width:3;stroke-linecap:butt;stroke-linejoin:miter;marker:none;marker-start:none;marker-mid:none;marker-end:none;stroke-miterlimit:4;stroke-dasharray:none;stroke-dashoffset:0;stroke-opacity:1;visibility:visible;display:inline;overflow:visible;enable-background:accumulate" />
  </g>
</svg>
