<?xml version="1.0" encoding="utf-8"?><!DOCTYPE svg PUBLIC "-//W3C//DTD SVG 1.1//EN" "http://www.w3.org/Graphics/SVG/1.1/DTD/svg11.dtd"><svg viewBox="0 0 600 600" xmlns="http://www.w3.org/2000/svg"><path d="m.5 300 299.5 299.5 299.5-299.5-299.5-299.5z" fill="#e5e5e5" stroke="#000" stroke-linecap="round" stroke-linejoin="round"/><g stroke="#000" stroke-linecap="round" stroke-linejoin="round"><path d="m180.1992 479.7 119.8008 119.8 119.8008-119.8z" fill="#c87137" fill-rule="evenodd"/><path d="m169.25 277.226 103.1318 45.8009 24.0237 28.3187h13.561l30.908-22.1715 89.8756-44.2012-33.3363-110.6477-119.7528-49.4795-100.094 92.0489z" fill="#008f4c"/><path d="m276.9696 298.3307c-3.7639.7285-9.5078 9.3842-5.2809 11.8077 4.2262 2.423-.5526 3.3436 2.1708 8.2189 2.93 5.2443.467 10.2044-3.6794 17.0302-1.3788 2.2695-8.2264-2.2429-7.0086 3.1123 1.1196 4.9248-2.7262-.3513-3.7269 1.4924-2.9062 5.3539-7.3471.009-9.6063 2.7152-3.5379 4.2351-2.9879 2.3545-6.7129 2.3528-5.1349-.002-6.8901 8.0439-13.2156 6.8726-4.0603-.7519-6.8321 8.987-9.9186 3.2515-3.2204-5.9838-4.7853 4.9113-8.9817 4.9113-.6018 0-1.2431-.4019-1.9474-1.1252-2.1689-2.2274-6.5754 1.1252-9.1738 1.1252-.8397 0-1.0309-1.1594-.072-3.4573 3.1506-7.5491-7.5818 1.0183-7.8241-1.0806-.3064-2.6494 3.9495-8.2838-1.3881-3.987-2.2489 1.8109-3.3639-5.4677-5.0404.5686-1.4733 5.3045-8.476-1.8905-8.7452-1.5599-4.8942 6.0098-10.4214 3.3962-8.4296-2.7219.7353-2.2578-7.5088 9.6829-7.7987 4.0069-.2634-5.1663-1.275-1.1138-4.1371-.7088-5.3596.7586 3.6962-12.2554-1.6616-5.4653-5.0436 6.3916-6.8495-3.389-2.1657-6.6366 2.6761-1.8556 1.3239-1.6575-.1631-3.7711-1.7836-2.5319 3.034-4.7452-1.3969-2.1809-4.7893 2.7718-1.4247-2.0268-1.782-5.2726-.5045-4.5848-6.7651 5.7319-8.1077-.2236-1.5143-6.7207-9.7644 9.3673-8.4202.0685.584-4.0402-1.5622-9.0829 5.6801-9.9577 5.0481-.6097 7.7864-10.4091 3.0032-8.6207-3.5587 1.3307-2.4021 5.9036-4.7061 2.2788-2.091-3.2895-.7928 3.9343-6.3914 2.7354-3.6612-.784-4.8402-4.5525-4.8402-7.4908 0-4.0089 7.5831-3.7132 6.1315-8.5432-.9737-3.2408 7.8565-1.57 8.1912-6.3104.3593-5.0859 6.1024-1.7564 2.8677-7.9037-2.3495-4.4659-2.7779-1.8807-6.0864-4.0574-3.7628-2.4755 13.7748-2.6298 6.8788-5.8077-6.0719-2.7982 5.4305-3.8525 6.4475-8.8634 1.0642-5.2438 9.8034 2.1938 12.2782.252 1.1869-.9316-.2924-2.5204-.049-3.8736" fill="#008f4c" fill-rule="evenodd"/><path d="m171.4456 271.1617c-1.3409-1.682-4.1189 2.903-6.3435-.1492-3.0202-4.1431-4.1142 5.7818-8.4353 3.2301-2.4508-1.4475-.1561-4.5598-4.986-2.4993-5.1533 2.199 2.9281-3.2631-3.1806-1.6174-5.7596 1.5516.5791-4.6757-6.3413-3.0049-2.6351.6362 2.4056-4.8476-3.3052-4.56-6.558.3303-.037-5.1102-5.8558-5.1897-7.1717-.0978 5.3041-5.7417-2.1607-4.4626-5.1476.8821-2.913-.9559-3.0613-3.2986-.084-1.3174-2.2759-3.0028-2.2759-4.8131 0-2.0011.6612-2.9179 2.6612-3.5476 1.7153-.5399 4.1117-3.8768 2.3595-4.3167-4.8851-1.2263 2.6524-3.9155.1666-4.9936-5.8843-2.5521 7.1215-4.4457 1.3278-5.1585-6.0858-.7488-6.5151-2.4278-6.5151-4.0509 0-2.1259 13.9519-2.7729 6.6726-3.6573-6.5986-.8017 1.74-3.5266 5.6797-3.0333 4.6437.5814 7.3262-1.4105 5.3257-2.7296-2.6468-1.7454 2.5728-1.2654 5.1324-2.0015 2.8897-.831-3.5082-1.7279-2.9504-3.0158.996-2.2967 5.6058-3.2813.1758-3.9187-6.6167-.7766 4.1083-2.5902 6.3137-3.5115 4.4495-1.8587 3.6315 2.5982 8.6629 3.1002 3.2964.3289 7.2359-3.0185 1.4127-1.9737-4.1891.7517 4.8167-3.4609-2.1117-2.9147-3.2943.2598-1.4006-4.4705 3.0217-3.6944 3.4481.6051-.1034-3.7878 4.2091-1.7877 2.6133 1.212 3.5787.7336 6.8653-.0773 2.5024-.6176 2.3281 3.3923 6.741 2.4422 3.611-.7773 3.0498 1.3359 2.7036 3.4311-.2273 1.3762 1.9272 2.1759 3.282-.0309 1.3188-2.1473.8413-4.3229 2.3853-4.1371 5.3942.649 1.9965-2.4683 3.8676-2.9832 3.3635-.9257 3.772 6.4328 5.98 2.1437" fill="#008f4c" fill-rule="evenodd"/><path d="m317.7213 161.7654c-3.0545-1.1503 5.4381-4.2656-.2445-6.1969-7.3821-2.5088 10.4381-4.6745 5.9155-8.5716-2.9118-2.5088-8.323.3222-4.5242-4.6409 3.9968-5.2221-6.678 4.412-3.6515-1.7366 2.8451-5.7805-14.0197 9.1454-10.862 2.0222 1.1196-2.5262-1.181-8.8584-.6305-14.4913.6291-6.4416-10.7876-.0713-10.9055-5.7586-.1455-7.0152-10.4587 5.7131-8.1085-1.685 1.6403-5.1639-1.6747-2.7623-5.9876-2.6802-2.202.0419-3.4921-1.93-5.7643-1.93-.7671 0-1.2972.7471-1.4742 2.7907-.6387 7.3656-6.5806-1.6685-7.9744.3253-1.5699 2.2461-.3707 8.3304-3.4005 3.6603-1.2212-1.8823-5.2054 6.9983-3.5446.8369 1.3025-4.8338-5.5219.9142-5.5787.6439-1.3262-6.3049-8.4402-3.9326-9.3932 1.7984-.3341 2.0115-1.2008-7.8041-4.5874-2.2512-2.4935 4.0892-1.2281 1.3806-4.0727.2288-4.8515-1.9642-3.0462 12.2207-4.6261 5.1573-1.4264-6.373-7.9032 3.025-5.3624 6.4981 1.2303 1.6818.1923-.2344-2.7329 1.4975-3.2667 1.934.5576 4.4351-2.9938 1.7269-3.2994-2.5157-2.3813 2.7688-3.6652 5.219-1.6459 3.1406-3.4362-3.1807-5.4741-2.5978-3.9873 1.1408 3.5141 7.1088-2.3476 5.539-4.5782-1.2261-2.8919 1.3764-4.5782 3.6242-3.4041 4.5365-2.1115.4824-1.2055 5.447.5859 3.2108-4.9725 5.9687-4.5167-.1971.4043-5.4757-7.8383 1.0554-4.816 4.5352 2.1322 2.4551-4.9837.8788-6.6081 4.4766-1.1243 2.4889 6.2219 1.8012 4.4115 6.3642-1.3878 3.4985-1.5895 6.3929 2.1847 5.8577 2.3184-.3288.3467 1.7132-3.5795 3.2169-3.6326 1.3913-7.8841 1.1707-7.5377 2.7348 1.1552 5.2138-4.4099 2.0157-5.4451 4.0751-1.6242 3.2315 11.699 3.0681 3.8727 5.6485-6.7598 2.2289 3.4042 3.6259 1.6918 9.1068-1.3693 4.383 11.3594-1.5595 11.5588 1.3174.04.5832-2.5437 9.302 3.2588 6.086 2.9018-1.6082 3.0109 5.3491 2.8257 5.9119" fill="#008f4c" fill-rule="evenodd"/><path d="m398.5544 203.6539c-1.2223-2.4725 6.6944 1.0704 4.233-3.4899-3.0796-5.7068 10.248 3.1813 10.0277-1.0371-.1804-3.466-7.0619-2.1318-.9237-2.5106 6.2936-.3883-6.2488-1.8871.1456-3.3718 5.9867-1.3899-5.712-7.2116 1.7659-9.2267 2.621-.7063-7.9038-3.8253-3.543-6.5295 4.9932-3.0961-4.3511-7.0325-.3937-10.1727 4.8783-3.8703-11.0069-3.2695-4.2152-5.8258 4.792-1.8035.7388-2.5956-2.0951-5.0766-2.3018-2.0154-1.018-6.7312-5.4405-3.9248-5.6554 3.5893-3.0414-4.9071-5.5514-4.6606-2.5317.2486-6.1063 4.1001-4.8653-.0878.5747-1.9404-7.9509-.828-2.3173-3.2104 4.3213-1.8275-6.6739-4.9809-6.5207-5.1608 3.5863-4.2042-2.84-7.2365-7.5428-4.7253-1.6541.8833 6.0912-6.6384-.3572-5.6587-4.4086.6697-1.9626-.3537-2.8807-2.3457-1.8992-4.1208-10.6488 4.6806-6.7449-.0309 3.6335-4.3839-7.0521-3.7694-7.8535-.2062-.342 1.5214-.5223 1.7283-3.9934.8124-3.0084-.7938-2.8081 2.4531-3.2227-.884-.4446-3.5777-3.3858.0158-6.1478.593-3.9109.817-.3169-3.9447-1.8094-4.7201-3.0139-1.5656-8.0905-.5363-5.1471-4.0279 1.2181-1.4451.9417-2.0798-.079-2.0798-2.6929 0-7.0182 1.5793-8.8304 1.7057-5.4923.3833.7812 4.6596-2.0671 7.8108-2.0956 2.3187-9.2003.7257-3.5172-1.3317 3.7839-1.3697-7.9944-.9999-2.2647-4.1739 2.044-1.1322-1.2183-4.0109-4.4509-4.0109-.9712 0-1.8518.8976-2.3954 1.715-1.589 2.3895-3.798-2.328-4.2533 2.1536-.258 2.539-1.4851.5558-5.8625 1.7062-3.0647.8054 3.1105 4.6712-1.5708 6.1081-3.3848 1.0388-.1561 3.184 2.5152 5.0283 1.7517 1.2086 1.6168 3.3721-2.3292 1.6918-2.8593-1.2175-5.8905-4.3904-6.9702-3.0946-3.0845 3.7031-3.8635-1.7015-6.5242-1.1034-3.3502.7531 5.7552 8.8092-1.4219 5.3961-5.9488-2.8288.3493 3.7706-5.3303 5.9366-4.4072 1.681 8.7479 5.9942 6.7784 7.7202-.7819.6852-2.403.1886-3.459.5744" fill="#008f4c" fill-rule="evenodd"/><path d="m419.5387 277.1797c-2.7344-5.4261 5.5984-.8224 6.896-8.4907 1.9167-11.3265 15.8247-4.3179 16.9767-4.3177 2.1054.0003 5.7392.1562 5.6198 2.6206-.2917 6.0006 5.9548 1.1574 9.2671 6.0156 1.8429 2.7031-4.5123 5.3231 3.7618 5.5595 7.5556.2159-6.6981 2.0261 1.1937 3.2647 8.7129 1.3675-5.2003 4.8878 4.6157 6.6758 3.6182.659-7.6194 3.6928-1.1417 6.5908 5.4419 2.4346 1.0577 5.2441 2.3736 8.1991 1.6971 3.8117 7.4903 5.0888.3155 6.0061-7.3483.9395 5.0831.7963 5.0831 3.8243 0 1.0085-.7085 1.8592-2.3978 2.304-5.4368 1.4316 2.644 9.0456-6.4072 5.5925-10.4923-4.0028 1.8278 7.3904-6.4314 4.2805-3.5249-1.3272-6.7869-2.5434-3.604.8581 1.6089 1.7194-8.8399 1.3002-1.5142 3.2556 6.7748 1.8083-4.8336 5.429-4.6945 5.5097 5.5531 3.219 2.5351 6.9518-5.1059 5.0469-4.2408-1.0573 10.8532 5.3371 2.4435 5.6755-4.5316.1823-5.1829-2.4232-2.9216 2.2739 1.7462 3.6271-11.879-1.023-10.9921-.6497 7.8816 3.317 1.1785 6.3776-4.5058 3.2434-3.2229-1.7769-3.8389-3.5429-8.1209-2.5964-5.0701 1.1207-3.1706-2.0175-3.0696 1.5205.1491 5.296-10.9612-3.3565-6.7104 1.8542 5.1513 6.3144-10.5439 1.3198-1.5928 6.3559 2.598 1.4619 2.2839 2.4432.6606 2.4432-4.2136 0-9.6494-1.669-11.9054-1.8901-5.7599-.5644-.6949-4.7966-5.9862-7.8196-3.8029-2.1727-10.9253-.3762-2.7929 1.7572 3.5814.9396-9.196 1.1288-1.0859 4.0993 2.1749.7966.2511 3.8532-2.9721 3.8532-1.1231 0-2.3622-.2022-3.5572-1.0752-2.9874-2.1828-3.7802 1.0752-5.5279 1.0752-.5151 0-1.0785-.5933-1.7995-1.7626-1.6373-2.6559-3.094-2.5-7.7068-3.3834-3.0335-.581.654-4.6383-5.2153-6.0928-7.9943-1.9811 5.5456-6.6239-1.1524-8.141-2.7703-.6274-8.1018.9032-8.2424 2.2413-.4537 4.3162-2.65-.586-5.1542.5998-2.2902 1.0845-2.2937 4.7933-3.9938.7887-1.1326-2.6679 2.2578-6.4748-2.8718-3.3839-6.2603 3.7721-3.781-3.755-10.4623-5.9501-4.8699-1.6 2.9782-5.5514 1.4588-7.5673-.416-.5521-7.4422.5352-9.6333-1.6497-2.4225-2.4155-.4151-7.6997-1.3029-7.9054" fill="#008f4c" fill-rule="evenodd"/><path d="m381.1289 293.0992c-1.9518-2.322 5.4949-1.2205 1.517-5.2983-5.3502-5.4847 10.523.3782 7.0503-4.5746-2.2697-3.2372-5.8491-3.6238-1.6855-5.9229 3.8718-2.138-5.9644.2234-1.9248-3.4759 3.8176-3.4963-6.4474-2.608-2.4247-7.542 1.874-2.2987-14.3641.4841-12.6645-4.2668 1.8528-5.1799-5.7154-4.1661-4.1253-9.8762 1.0088-3.6226-10.0698-3.435-5.4442-8.7896 4.1661-4.8224-.1-2.4802-1.6482-7.7955-1.2527-4.3002-4.7895 7.0535-7.0615.8566-1.0399-2.8359-2.5546-5.1006-4.1442-1.5074-1.359 3.0713-1.1031 1.8493-2.741-.9344-.7488-1.2725-5.7885 1.1816-3.2352-2.0874 2.9464-3.7719-7.2793-3.7165-7.253-3.8576.8477-4.538-3.7089-7.5826-7.1487-3.2996-1.8287 2.2766 2.7464-8.1713-2.9804-6.0456-2.9511 1.0953-1.8024 2.6747-3.6149-1.2818-1.7827-3.8922-6.5899 4.5198-6.2464 3.6988 2.1408-5.1135-4.6033-6.5238-5.3425-1.7889-1.2243 7.844-4.655 5.9311-6.0288 4.185-3.6473-4.636-6.1922 7.8124-7.6387.668-1.0959-5.4126-7.4514 2.0025-6.1133-4.6489 1.3406-6.6647-7.8812.0755-7.3067 2.172 4.2741 15.5964-5.4137 7.8755-4.5965 4.724.644-2.483-6.0508-5.0712-6.2101-.7805-.1438 3.8599-5.9461-2.6722-3.9658 2.7012 1.0349 2.8079-.2201 2.688-2.0564 5.3743-1.9271 2.819 3.6394 4.5289 1.5515 7.5923-3.131 4.5939 10.3732 4.1917 5.8397 7.5129-3.1557 2.3118-5.4509 1.5168-8.5414-1.643-.9254-.9462-.089 4.6769-4.0808 1.5019" fill="#008f4c" fill-rule="evenodd"/><path d="m381.3713 202.0742c2.8597.8129 1.7378-4.7537 6.6206-3.1996 6.8409 2.1772-.9405-7.3782 5.771-7.3466 3.5151.0158 4.2111 4.0065 7.3109-.3664 3.3425-4.715-.1035 4.4777 4.685-.2128 4.5237-4.4311 3.6624 4.4148 9.1446-.6232 2.209-2.0303 1.8367 5.6306 7.4147 2.3752 6.4255-3.7499 7.751 2.9488 13.7748-.0403 7.4192-3.6815-.3686 7.984 6.1577 2.889 4.4618-3.4831 3.8644-.6335 6.0498 1.3659 1.9369 1.7721 8.7661.5402 3.0216 3.8431-7.3909 4.2497 5.2355 2.2824 3.98 3.9003-1.5784 2.0344-8.5426 4.6311-1.9912 3.5463 2.5285-.4187-1.9274 5.4898 3.3968 1.587 4.5267-3.3181 3.9348 4.7086 4.2468 4.5914 7.3206-2.7493 8.7192 1.8194 3.2059 5.3504-1.9535 1.2511 11.4332-4.3008 7.6019.0808-3.0712 3.5126 2.7376.3103 2.7376 3.0723 0 2.0015-9.8195.7549-3.6645 3.8722 2.2538 1.1415 3.6645 1.7559 3.6645 3.7929 0 1.94-4.2585 1.5904-6.7908 1.9286-2.4333.325-2.5884.3571-2.8463 2.9383-.3113 3.1176-5.106 2.1035-.1851 2.3228 4.1544.1851-1.4261 2.4063-3.4791 4.5031-2.1014 2.1458 5.0556-.4446 5.6861 1.1686 1.0458 2.6754-5.1673 5.4922 1.4493 5.0746 7.0998-.4482-.07 3.0459-1.5123 5.0372-2.9054 4.0141-6.0915-.4039-11.604 1.7573-3.6778 1.442-4.6482 6.4653.301 2.5223 3.6829-2.9339-1.7657 5.591 4.739 1.5188 3.1985-2.0023 5.3969 3.2926.178 4.92-4.044 1.2609 3.44 3.3632-2.7246 3.8245-3.7535.2808-4.4707 1.3694-6.9546 3.677-2.0619 1.9155-5.4713-1.7602-9.0563 1.3406-3.0767 2.6609-4.3025.396-5.8006-1.6734-1.0537-1.4552-3.9157-1.041-3.3302 1.7524.5803 2.7705 2.9361 4.3514 1.2204 4.985-6.118 2.2591.054 3.3625-1.3174 4.7229-2.7138 2.6939-9.5512-3.8233-8.0141 1.2098 1.3383 4.3822-6.1944.778-10.4512 4.0774-4.0865 3.1677-4.4805-6.1614-7.6426-4.6974-1.155.5347-1.3002 1.7589-2.288 2.5415" fill="#008f4c" fill-rule="evenodd"/><path d="m200.6143 234.588s1.1324.593.9325.9637c-.7001 1.2977-4.4404-.6585-5.376.5458-1.2766 1.6428 5.8488 6.8477 2.5558 5.4061-4.4197-1.9349-14.3262-2.27-11.3168-.4563 1.9066 1.1492 5.9458 1.5778 5.7205 3.4476-.2387 1.9776-7.2008.7413-6.8167 2.7049.2674 1.3669 4.678-.6131 5.2504.6958.6045 1.3832-3.9716 1.7638-3.8188 3.2203.1967 1.8809 5.8095 1.5939 5.733 3.4801-.047 1.1731-3.7941.8101-3.7355 1.9829.1 1.9929 5.6038 1.1607 6.6629 2.9765 1.126 1.9304-2.389 4.2084-1.6001 6.2374.6308 1.6215 4.0138 1.9653 4.6145 3.5936.6058 1.6424-2.6778 3.5675-1.4742 4.9961 1.5242 1.8086 7.2781-.8603 8.1931 1.1826.7697 1.7191-5.0509 2.332-4.6049 4.1192.4656 1.8638 4.8943 1.1656 6.5189 2.5809 1.4078 1.2262.2321 4.0769 2.2244 4.6211 2.4437.6673 4.2327-3.7773 6.6715-3.0997 2.4875.691.1578 5.2458 2.7011 5.801 2.2261.486 3.3119-4.1383 5.4094-3.3811 1.2544.453-.8129 2.4285.1104 3.2306 1.2924 1.1225 5.3012-.855 5.7536.611.3538 1.1447-2.4817 1.3441-3.7227 2.0161-3.3174 1.7965 5.8971 1.1928 8.9578 3.1534 2.5573 1.6381-1.4113 7.3235 1.7576 6.2719 2.3204-.7701 4.6403-1.5402 6.9607-2.3103 2.5209-.8368-4.6561 3.341-1.6428 6.2426 1.7154 1.6514 5.0868-2.7954 6.721-1.5012.9257.7328-1.8037 2.0563-1.1524 2.9501.7078.9711 2.7943 1.1062 4.1749.8051 2.1629-.4719 3.869-5.4501 4.7485-3.7244 1.3164 2.5822-.7992 7.6885 4.4175 4.399 2.1793-1.374.5919-5.7505 3.3796-6.0088.9773-.0906.8002 1.8165 1.7842 1.8326 1.509.0246 1.4302-3.021 2.8878-2.716 1.4977.3135-.192 2.6271.7711 3.574.8411.8271 2.4814 1.6005 3.7475 1.2246 1.5154-.4502.5207-3.1165 2.0952-3.4211 1.436-.278 3.1579.9533 3.5635 2.0617.3224.8806-1.9502 1.7938-1.2962 2.5548 1.3453 1.5656 5.704-1.3635 7.2553.0827 1.6107 1.501-3.2076 4.5861-1.2281 5.7903 1.9889 1.2101 4.6857-1.4718 6.9486-2.3426 1.6466-.6335 4.3607-.7053 4.8101-2.0923.4656-1.4371-2.7126-2.2943-3.0658-3.7509-.3686-1.5197-.4174-3.5994 1.1454-4.5531 1.4853-.9061 4.8832-1.1289 5.6526.2126.7125 1.2418-3.8978 1.889-3.3024 3.1675.7496 1.609 5.8367-.6566 6.4697.9825.4079 1.0573-3.1033 1.2189-3.0319 2.3213.1069 1.6719 2.8819 3.2169 5.0289 3.1422 2.0221-.0704 2.3578-3.1767 4.3772-3.277 1.4769-.0734 2.227 2.5561 3.5639 2.0617 2.5242-.9336.1895-2.9632 2.3309-4.3614 1.0386-.678 3.2652 1.2819 4.0307.411 1.352-1.5382-4.0651-3.1067-3.4442-4.9069.3349-.9704.6608-2.881 1.3574-3.7267.7662-.9299 1.2478-2.3578.4909-3.2924-.8171-1.01-3.295-.295-4.3501-1.161-1.078-.8855-.8581-2.3478-1.2873-3.5217-.9128-2.4981 6.4564-1.4128 8.1037.8165.7352.9949.7322 2.9868 2.2059 2.9848 1.5047-.002.7362-2.8981 2.2271-3.0588 2.1627-.2332 3.1047 2.3924 4.6571 3.5887 2.2221 1.7123.408-4.5789-4.2983-7.2433-2.7623-1.5638 5.406 3.0214 7.262 1.6868 2.0286-1.4587-3.8651-5.1111-1.7267-6.3098 3.6462-2.044 2.6808-.8599 1.1518-2.9493-1.8462-2.5226-8.876-2.4003-8.7183-3.9622.1561-1.5469 1.3371-3.2961 4.9425-1.7303" fill="#008f4c" fill-rule="evenodd"/><path d="m352.5498 217.7649c-1.8032-1.6223 7.9651-.2817 4.2048-3.4016-4.2948-3.5633 12.2989.9568 11.1842-2.6464-.9716-3.1404-7.4716-2.5481-.5788-3.9772 7.0481-1.4614-7.4119-.2415-.4072-2.5495 6.5332-2.1526-8.7799-1.9904-.4521-4.9634 2.1845-.7798-9.6515-1.3566-5.1182-4.2254 5.0808-3.2154-6.1089-4.4593-2.1672-7.5395 4.8822-3.8148-12.9251-.4347-5.7613-3.5727 5.2077-2.281.7368-1.956-3.2325-3.408-2.6142-.9564-2.2345-4.8845-6.8266-1.9225-5.7408 3.7029-4.299-3.0994-7.0778-2.4518-2.7294.6361-6.2659 4.4076-5.5274.8424.3106-1.4991-9.4353 1.0003-3.1675-1.9701 4.1049-1.9454-8.4016-2.4849-8.2601-2.6459 3.3534-3.8168-4.5133-4.8449-9.3446-2.1288-1.6501.9277 5.8234-6.1163-1.3625-4.1673-4.669 1.2664-2.2874.0967-3.6598-1.2181-3.1876-3.0531-11.4233 5.6699-7.6446 1.2405 3.2271-3.783-8.6344-1.4332-8.9316 1.3119-.1509 1.3738-1.4469 1.3801-4.3867 1.3534-3.1295-.0277-2.7368 2.4268-3.8001-.0615-1.174-2.7471-4.717.9192-6.8639 1.5908-4.137 1.2941-1.3908-2.9537-2.8488-3.1952-4.0867-.6767-9.3613 1.2295-6.5129-2.0536 3.3057-3.8097-7.1094.7333-10.1553 1.382-6.1568 1.3115 2.0459 2.9412-1.0199 6.2302-1.659 1.7798-10.5187 2.3529-4.2094-.3407 3.666-1.5649-9.6083.9729-3.2716-2.7006 2.2923-1.3289-6.356-3.1111-8.1443-.441-1.5071 2.2499-6.1091-2.1883-5.8676 1.2242.142 2.0011-.3632 1.9403-4.9397 3.551-2.259.7951 4.4779 2.8526-.7461 4.8642-3.218 1.2394-.023 2.3118 3.7003 3.2936 1.7657.4662 1.6296 2.1368-2.3523 1.7003-3.722-.408-7.563-2.0153-8.4193-1.0162-2.5765 3.0058-4.898-.4763-7.5776.3916-3.0375.984 7.7963 5.4879-.6981 4.3026-7.412-1.0343 1.2592 2.6578-5.0334 5.4375-3.4205 1.511 10.7465 3.0047 8.9848 4.5123-.906.7755-2.6908.5888-3.8222 1.075" fill="#008f4c" fill-rule="evenodd"/><path d="m279.9619 425.7425c1.3975-10.6495-1.0528-34.7831-1.0528-45.0901 0-4.511.9245-17.2271.5431-22.2-.6678-8.6972-.1353-10.7201-2.0356-17.4926-3.4568-12.3179-15.8843-18.504-28.1175-22.7289-10.024 10.7612-20.1991 13.5673-35.163 17.4182l-1.1361-4.7805c16.5074-6.8134 25.5735-9.0681 28.726-21.5916-3.6784-7.8139-6.1618-15.1003-8.5564-23.1663l4.4409-1.3779c4.9831 5.2905 9.3315 17.779 13.6613 23.9269 7.5001 1.4841 22.7182 10.4881 27.1292 11.9955.8004-1.3172 2.069-15.2534 4.5676-23.1422 1.1205-3.5376-9.7565-12.3263-12.2361-14.3678-2.7233-2.2419-5.6087-4.5638-8.2331-7.4447l3.5135-2.105c3.4215 3.2507 18.156 13.2909 19.8489 13.1048 4.1682-5.4176 17.1321-12.9844 21.6159-13.1048l2.4326 3.3869c-.8705.6383-16.6013 10.4628-17.107 14.5738-1.009 8.2015-1.6331 14.9829-2.3587 17.8761-1.1536 4.6003-2.0681 15.1854-1.0353 16.5468 2.7745 3.6575 7.6229 7.5347 10.5908 10.1441-1.9028 4.5798-4.2024 9.2799-3.8925 15.3027-.3111-6.0299 1.9783-10.7055 3.8925-15.3027 4.3946-11.0887 11.1634-22.6424 17.5189-31.3033.2034-1.2994-3.7703-12.8163-3.7527-14.6191l4.5901-2.1617c1.8925 2.0164 4.8579 8.3501 6.0348 8.7334 6.4598-5.2498 10.5312-12.7459 15.0109-15.3927l4.6472 3.7602c-7.4024 6.6407-24.0702 27.9721-27.6043 38.8696-1.1451 3.5306-.5382 7.8057-.8823 13.9397 3.5571.0228 15.0872-6.411 21.9224-11.8842 2.3828-1.9079 11.9206-21.8012 24.0419-27.0602l4.9114 1.7489c-1.9694 1.8347-18.5839 17.9773-12.3834 20.2515 4.8131 1.7652 30.1119-.5478 31.6112.8296l1.3339 3.7137c-5.4701 1.6961-30.8453 1.589-39.6566 5.3815-11.4597 4.9325-20.4743 19.073-23.9756 27.5224-1.7555 4.2365-2.2769 12.407-2.2769 22.2 0 6.4597-1.4022 28.4942-.4588 40.3815.3491 4.3971.4588 29.6643.4588 36.8398 0 12.9465-2.2822 15.2874 13.7034 20.1464 8.2568 2.5097 13.6571-.2148 18.6258 2.0395 7.5946 3.4458 12.5396 4.5333 20.398 2.3847-3.864 4.8811-8.6082 6.1682-21.3759 3.7714-5.383-1.0106-6.5338 1.9258-14.2612 1.5385-5.5692-.2792-9.4357-1.0062-13.4625-.8601-2.1985-1.9865-5.5223-4.4078-6.9934-6.6174 1.4755 2.2108 4.7999 4.6247 6.9934 6.6174 14.5877 13.1929 7.8884 14.6231 34.7172 19.3273-5.7098 1.6869-12.824 2.887-21.7621-.1874-.2025 6.6647 7.7569 15.4136-5.3879 21.5113 11.167-16.3839-10.3816-32.3718-22.5488-43.0805 3.805 18.7764 19.9524 17.4921-.9491 50.6308 1.6265-17.0681 9.2957-21.3817-6.7044-42.2052-1.7782-2.3144-.1002-5.9064-2.0834-9.6953-.4377 5.7504-5.6638 4.7814.8459 16.6468 4.0798 7.4363-3.608 11.7891-10.4365 15.6514-7.6896 4.3493.223 12.2673.8027 19.6023-2.9158-5.2718-19.8297-21.119-1.5031-28.4512 6.4953-2.5987 1.1899-8.3383-1.4816-11.4074-2.3601-2.7112-3.1762-5.4173-3.4546-7.614-.3655-2.8504 1.2613-4.8941 2.684-7.3462-1.4224 2.4523-3.0506 4.4975-2.684 7.3462-4.154 4.0961-6.7891 10.4861-9.6543 14.8541-5.4011 8.2339-10.2151 9.3394-7.4043 25.0682-8.4318-9.3043-7.2393-17.2309.4037-28.7755-5.2604-1.3143-16.5003 8.2023-26.0719 6.451-2.224-.407-6.0345-3.4887-10.144-7.1753 17.8364 7.1625 22.6412-6.9152 38.625-6.0763.9603-1.0764 2.2467-4.1866 5.517-7.6969-11.8411 3.3807-11.2372-.8008-21.4725-.0579-5.1033.3705-8.237 3.5113-28.3897-1.7712 13.1663.3521 21.5605-3.899 25.076-4.423 26.5542-3.9585 27.6512-5.0694 27.6512-20.1464 0-6.6295.053-24.4982 1.0528-32.1312z" fill="#c87137"/></g><path d="m1.5 300 298.5 298.5 298.5-298.5-298.5-298.5z" fill="none" stroke="#000" stroke-linecap="round" stroke-linejoin="round" stroke-width="3"/></svg>