<?xml version="1.0" encoding="utf-8"?><!DOCTYPE svg PUBLIC "-//W3C//DTD SVG 1.1//EN" "http://www.w3.org/Graphics/SVG/1.1/DTD/svg11.dtd"><svg viewBox="0 0 600 600" xmlns="http://www.w3.org/2000/svg"><path d="m.5 300 299.5 299.5 299.5-299.5-299.5-299.5z" fill="#0071bc" stroke="#000" stroke-linecap="round" stroke-linejoin="round"/><g stroke-linecap="round" stroke-linejoin="round"><g stroke="#000"><path d="m437.293 397.2266c-2.3768 0-5.229 4.5899-9.7266 8.0742-1.948-1.9792-3.9689-3.4863-6.0547-3.4863-3.107 0-14.6022 10.7607-22.5723 16.332-4.8731-.8054-9.587-4.5879-15.7813-4.5879-3.7993 0-23.6174 24.9524-38.2734 39.7266-6.8509-3.1808-17.9912-9.4473-22.4668-9.4473-3.1525 0-8.2564 5.4441-13.3945 8.2578-4.0052-.4708-6.2173-1.8359-10.8281-1.8359-2.9305 0-9.7191 6.4361-14.4961 10.8262-4.9852-3.3016-5.7429-9.5261-10.2773-9.541-26.5496-.0875-23.6781-12.4331-27.8926-12.4785-4.9631-.0535-10.7764 16.9673-25.2481 11.6621-6.2113-8.1743-15.0973-16.433-22.0606-25.5742-2.2556-2.9611-19.1281-2.0976-30.9336-3.2598-4.0371-3.7313-10.4714-9.8047-13.1426-9.8047-3.2403 0-11.8567 7.9984-16.1484 7.3418-6.6871-1.0231-13.3716-1.5884-20.0742-2.0098l182.0781 182.0781 191.4375-191.4375c-53.0674-6.2827-48.9743-10.8359-54.1445-10.8359z" fill="#c87137"/><path d="m167.2862 421.8944c3.7111 3.117 10.3486 7.6973 15.9434 11.7561" fill="none"/><path d="m220.2817 450.7286c4.48 6.2284 17.127 25.2657 29.9029 30.024" fill="none"/><path d="m344.8839 453.2848c-20.6852 20.3204-53.102 44.7838-87.3031 62.8917" fill="none"/><path d="m283.6991 461.0865c9.9231 6.7614 13.6615 17.3002 23.4306 23.6893" fill="none"/><path d="m398.9404 418.1463c-6.9426 5.1704-12.7525 14.4357-18.3491 19.916" fill="none"/><path d="m309.0228 452.0948c-2.3397 1.2943-4.2206 2.7751-6.3309 4.3124" fill="none"/></g><g stroke="#000"><path d="m288.2968 293.6007c-33.4728 1.9733-45.5868-34.7805-79.0334-29.7269-12.2555 1.8517-12.217 5.5199-44.9968 10.4728-39.3357 5.9434-55.5759 4.6528-60.2101 5.353-1.5197.2296-3.5564 1.0252-3.5564 2.5372 0 5.0529 10.5345 7.0965 15.5683 7.2676-2.815 1.3585-4.5402 3.4119-1.2768 6.1581 2.8814 2.4248 10.3529 3.8831 17.6076 3.605-3.8692 3.4689 5.9598 9.322 22.5361 7.4481-4.1105 3.8526 7.336 7.5456 23.9095 5.3247-2.4466 4.3812 2.0726 7.7292 19.1554 4.7868-3.0395 5.2585 6.0923 7.5478 19.0268 3.1894-3.3788 3.884 1.2476 9.9266 14.167 4.3543-1.0885 4.0711 4.9324 8.8843 13.9118 2.6166 3.1516 6.5666 12.2534 5.0544 18.6104-1.9942-5.0764 16.8366 11.9769 7.4731 15.247-.7087" fill="#e5e5e5"/><path d="m203.4101 281.5184c3.0225 8.1372 14.0413 7.3445 20.7791 1.6361" fill="none"/><path d="m219.2379 286.213c-4.1712 6.0787 6.985 14.2222 22.0166 1.9278" fill="none"/><path d="m234.7772 292.4275c-2.6651 3.4822 6.1217 11.6639 17.31 2.7259" fill="none"/><path d="m248.2696 297.6624c-2.6651 3.4822 5.5948 9.669 13.6077 3.8702" fill="none"/><path d="m261.2457 302.0327c-1.8159 2.2337 5.6859 9.1538 12.171 3.6897" fill="none"/><path d="m204.3344 290.4337c-4.8192 5.6779 6.9868 12.8364 19.1733 3.801" fill="none"/><path d="m219.7967 296.5807c-1.1474 5.1181 8.512 10.1294 19.2591 2.1611" fill="none"/><path d="m235.4633 301.0054c-1.1474 5.1181 7.9278 10.8495 18.6749 2.8812" fill="none"/><path d="m248.1513 307.1191c-1.269 4.9145 9.0647 8.5076 19.9265.7313" fill="none"/><path d="m263.3768 310.5823c-.9872 3.823 5.3379 7.6915 11.4339 2.816" fill="none"/><path d="m184.7576 286.6424c2.7912 5.9587 15.1779 8.1028 25.2464.6377" fill="none"/><path d="m116.0684 289.5043c12.7128.7571 47.4055-1.8625 64.1085-5.7441" fill="none"/><path d="m132.3991 299.2674c8.3852-.2669 32.4579.4897 56.2239-6.5696" fill="none"/><path d="m154.9352 306.7155c8.0325-.5263 27.2306-1.8579 43.702-7.61" fill="none"/><path d="m178.8447 312.0402c9.1512-1.3542 22.9496-3.9232 31.1349-8.2519" fill="none"/><path d="m198.0001 316.8271c8.4303-1.5043 16.1861-3.9951 22.36-8.0939" fill="none"/><path d="m217.0269 320.0165c5.2736-1.7253 10.1828-4.2779 14.1395-7.0789" fill="none"/><path d="m231.194 324.3708c3.3932-1.4184 8.0164-4.9851 10.6016-8.1246" fill="none"/><path d="m245.1058 326.9874c3.3831-2.3173 6.1386-5.6658 8.4609-8.8448" fill="none"/><path d="m199.8334 282.7257c36.8463-18.5667 44.4279 19.8007 81.7863 21.7556" fill="none"/><path d="m259.0033 258.2136c.5291-2.1626 6.6536-9.7136 15.6839-9.7136 14.211 0 17.4737 13.5216 20.5122 23.5176 3.6408 11.9774 25.8559 19.8108 35.0842 31.523 12.9824 16.4767 8.8901 34.5181 25.072 47.3432 12.2298 9.6928 52.3998 11.6483 52.1758 16.0805-.2701 5.3433-9.2386 10.5402-12.9593 9.8437-2.7424 4.1766-8.3304 10.0918-13.7842 8.2768-1.776 2.4871-12.7287 8.8252-16.5509 5.6691-.8474 3.4467-12.195 6.2072-14.424 3.0701-.7381 2.101-6.0175 3.676-9.9222 3.676-1.7667 0-3.1309-.5521-3.3895-1.4397-3.0337 1.8449-13.0782.3782-12.9063-3.0223.3191-6.3122 5.2285-19.5497 4.4087-21.4662-.8866-2.0728-18.7516-13.9343-34.7929-22.2414-16.874-8.7384-31.3622-22.0074-30.3149-42.7245.8543-16.8987 7.4448-25.2352-3.423-36.558z" fill="#e5e5e5"/><path d="m394.5722 376.808c-10.4964-1.7241-17.0296-4.3116-25.7109-8.8135" fill="none"/><path d="m380.788 385.0848c-8.0538-3.0308-14.9966-6.2841-21.0386-11.848" fill="none"/><path d="m364.2371 390.7539c-5.1719-4.4839-9.3199-8.2602-12.9152-14.5211" fill="none"/><path d="m349.8131 393.824c-2.7034-3.4737-7.259-16.6013-6.6615-16.863" fill="none"/><path d="m336.5015 396.0603c-1.3413-5.3072-2.3221-9.8721-2.4459-16.9924" fill="none"/><path d="m259.0033 258.2136-11.2637 2.6068 11.7335 9.2276 3.2905-5.0424z" fill="#e5e5e5"/><path d="m247.7397 260.8205c5.2992.65 10.3425 1.9547 15.024 4.1852" fill="none"/><path d="m278.2255 261.5868a2.4689 2.4664 0 0 1 -2.5902 2.3389 2.4689 2.4664 0 0 1 -2.3412-2.5877 2.4689 2.4664 0 0 1 2.5902-2.3389 2.4689 2.4664 0 0 1 2.3412 2.5877z" fill-rule="evenodd"/><path d="m323.9669 353.8125c.3136 1.1948 1.8078 2.7162 1.6749 4.1637-.2154 2.3457-4.0602 2.333-8.5797 3.7304l-1.043-4.7177c2.5168-1.7599 3.626-2.2659 2.5913-3.3296" fill="#c87137"/><path d="m306.2323 344.4817c2.0411 3.5726 9.9678 12.1628 12.8537 11.6475 1.0849-.1937 2.8991-.3442 3.6652-.4852 2.3742-.437 2.8257-3.8984.1377-9.0171" fill="#e5e5e5"/><path d="m318.5875 356.9368c-.7633-2.174-3.4728-.8536-3.555.4621-1.8476-1.0543-3.3333-.1565-3.1617 1.3225-.8059-.7103-2.887-.3473-2.5864 1.5948.5134 3.3168 1.5315 5.4956 2.4483 6.6096 1.5804 1.9203 3.9122.7673 4.1107-.3358.8224 1.0685 3.4045.7001 3.4729-1.4911 1.2994.8355 3.1286-.9322 2.0724-2.889-.7482-1.3861-1.9997-2.9902-2.8013-5.2732z" fill="#c87137"/><path d="m311.8708 358.7214c.0929 1.9627 1.9943 5.6523 3.9726 7.8686" fill="none"/><path d="m315.0325 357.3989c-.1812 1.8231 2.7886 6.7517 4.2839 7.7" fill="none"/><path d="m303.233 288.3205c24.6159.1755 25.6298-39.8205 64.1351-39.8205 14.1091 0 21.6169 3.5723 59.3545 3.5723 45.285 0 62.0795-3.5723 67.4145-3.5723 2.099 0 5.363.677 5.363 2.8886 0 4.8702-9.8605 7.6736-13.2893 8.1971 3.7147.8903 6.6115 2.6007 4.5 5.6911-1.8644 2.7287-9.1517 5.197-17.088 5.9775 5.9195 2.7517-1.6686 9.7526-20.4316 10.3544 6.3737 3.083-4.0496 8.2563-22.9859 8.5265 4.8543 3.8272 1.6991 7.6727-18.1509 7.3281 5.937 4.5787-2.7122 8.0791-18.8241 5.7855 5.6034 3.2184 3.7018 9.6502-13.0106 6.1964 3.2375 3.7271-.7869 9.187-13.619 4.5017-.0509 6.7191-10.5988 6.5884-21.0098.7801 14.0068 15.3311-9.0731 8.8561-16.7428 1.5217" fill="#e5e5e5"/><path d="m388.3059 264.5571c.8857 8.1989-11.3566 9.031-21.496 4.5562" fill="none"/><path d="m373.6838 271.3175c7.5696 5.1981-.281 14.5755-22.6774 5.0129" fill="none"/><path d="m360.1436 279.4864c4.6324 2.938-.653 12.0103-17.2149 5.0958" fill="none"/><path d="m348.3052 286.4256c4.6324 2.938-1.1002 10.0311-12.6555 5.6539" fill="none"/><path d="m336.5824 292.4655c3.0858 1.8693-1.4597 9.5528-11.2034 5.2746" fill="none"/><path d="m391.8414 273.1959c8.0623 4.7222-.9869 13.2537-18.6709 6.3901" fill="none"/><path d="m378.3497 281.2893c3.8327 4.7175-4.0008 10.8909-19.5961 4.838" fill="none"/><path d="m363.7636 287.7689c3.8327 4.7175-3.0073 11.4937-18.6025 5.4408" fill="none"/><path d="m353.2359 295.4306c3.8599 4.5058-5.4185 9.4233-21.0394 3.5701" fill="none"/><path d="m338.6354 300.9294c3.0026 3.505-1.8285 8.1075-10.8552 4.3348" fill="none"/><path d="m410.9508 266.7568c.0276 6.0872-12.1927 9.9183-26.8032 4.2476" fill="none"/><path d="m486.2107 259.5857c-13.2752 2.5548-51.883 5.0565-71.802 3.7611" fill="none"/><path d="m473.6227 271.2542c-9.1455.9541-34.627 5.146-63.7493 1.8369" fill="none"/><path d="m453.1911 281.6086c-8.8983.6557-30.2028 2.1528-50.8231-.9607" fill="none"/><path d="m430.2052 290.1351c-10.5208.0272-26.652-.4347-37.6459-3.3846" fill="none"/><path d="m412.0543 297.4632c-9.8224-.2199-19.4212-1.4783-28.1371-4.4987" fill="none"/><path d="m393.2302 303.2487c-6.5428-.8858-13.1143-2.6134-18.7886-4.7154" fill="none"/><path d="m380.2196 309.4451c-4.3664-.8641-11.1458-3.6004-15.5183-6.2231" fill="none"/><path d="m366.6006 313.9469c-4.8123-1.7232-9.4739-4.5205-13.584-7.2187" fill="none"/><path d="m392.7624 265.1933c-59.0215-9.6608-43.7564 27.4082-76.828 32.5452" fill="none"/><path d="m308.1365 353.8125c.3136 1.1948 1.8078 2.7162 1.6749 4.1637-.2154 2.3457-4.0602 2.333-8.5797 3.7304l-1.043-4.7177c2.5168-1.7599 3.626-2.2659 2.5913-3.3296" fill="#c87137"/><path d="m290.4018 344.4817c2.0411 3.5726 9.9678 12.1628 12.8537 11.6475 1.0849-.1937 2.8991-.3442 3.6652-.4852 2.3742-.437 2.8257-3.8984.1377-9.0171" fill="#e5e5e5"/><path d="m302.757 356.9368c-.7633-2.174-3.4728-.8536-3.555.4621-1.8476-1.0543-3.3333-.1565-3.1617 1.3225-.8059-.7103-2.887-.3473-2.5864 1.5948.5134 3.3168 1.5315 5.4956 2.4483 6.6096 1.5804 1.9203 3.9122.7673 4.1107-.3358.8224 1.0685 3.4045.7001 3.4729-1.4911 1.2994.8355 3.1286-.9322 2.0724-2.889-.7482-1.3861-1.9997-2.9902-2.8013-5.2732z" fill="#c87137"/><path d="m296.0403 358.7214c.0929 1.9627 1.9943 5.6523 3.9726 7.8686" fill="none"/><path d="m299.2021 357.3989c-.1812 1.8231 2.7886 6.7517 4.2839 7.7" fill="none"/></g><g><path d="m359.1098 158.9384c-3.2597.0807-8.129-.729-9.3459-3.4382 6.4173-25.6296 29.503-37.0002 31.6091-37.0002 1.1663 0 1.5878.7767 1.4644 1.481-.5358 3.0549-15.6258 12.0987-23.7276 38.9574z" fill="#e5e5e5" stroke="#000"/><path d="m354.6673 143.7125c.4515 1.7911 5.1574 3.7969 8.249 4.0551" fill="none" stroke="#000"/><path d="m357.0857 139.2659c1.4898 1.84 5.2996 3.4263 8.3912 3.6846" fill="none" stroke="#000"/><path d="m360.5147 134.6295c1.4551 1.4809 4.6837 3.2447 7.7753 3.5029" fill="none" stroke="#000"/><path d="m364.3495 130.3277c1.2472 1.6427 4.0219 3.0644 6.8717 3.3117" fill="none" stroke="#000"/><path d="m368.7385 126.2227c.8913 1.4558 3.1405 2.6924 5.709 3.2381" fill="none" stroke="#000"/><path d="m409.5 201.0073c-7.3857-7.953-17.6325-20.557-33.9502-42.5916 3.2793-4.2367-11.6697-12.0716-15.6494-8.6741-1.5251-1.2393-5.4502-1.2418-7.8685-1.2418-4.4637 0-8.4002 1.9019-11.1984 5.7233-1.909 2.6073-6.7953 7.4707-7.4143 11.2987-.6828 4.2215-5.2417 7.3332-7.226 8.7757-5.8405 4.2463-7.882 8.0545-10.6616 10.7199-1.3973 1.3399-2.6556 3.4919-1.5182 5.1095-1.1259.8507-3.5134 2.4066-3.5134 5.5057 0 3.3218 2.904 5.7061 4.9371 6.034 2.6541.4281 7.8329-5.3396 13.6102-5.9594-3.2038 2.1587-6.9379 5.1458-8.6738 5.3037-.7518.0683-2.161 1.7149-2.3122 2.6499-.1413.8783 1.7923 1.6654 3.9989 2.0213 2.1748.3511 4.313-1.0275 5.9324-.7662 2.043.3297-2.0967 4.766-.4092 11.0015.5428 2.0051-1.3895-3.6513 11.9335-13.5838 5.5064.4007 11.8337-.7415 13.2738-1.0633 5.0588 2.2058 7.9964 14.0239 17.1469 36.2297z" fill="#c87137" stroke="#000"/><path d="m371.7169 155.6647c-.8123 1.7352-10.0974-2.686-9.0343-5.0953 11.4547-25.9552 35.0504-32.0694 37.8074-32.0694.9227 0 1.6102.5874 1.6102 1.4818 0 4.3102-17.5498 8.2615-30.3833 35.6829z" fill="#e5e5e5" stroke="#000"/><path d="m365.5081 145.464c1.576 2.4308 5.3797 4.7541 8.3341 5.7132" fill="none" stroke="#000"/><path d="m369.315 139.4646c.6702 2.5113 4.6843 5.8695 7.5185 6.8284" fill="none" stroke="#000"/><path d="m372.8172 135.1801c.9683 2.3394 4.3184 5.361 7.1526 6.3204" fill="none" stroke="#000"/><path d="m376.9137 131.1103c1.0191 1.9385 3.9314 4.8442 6.7657 5.8033" fill="none" stroke="#000"/><path d="m381.3202 127.4531c.787 2.0701 3.4361 4.422 6.0466 5.3164" fill="none" stroke="#000"/><path d="m386.7336 124.0512c.6322 2.0346 2.6966 3.7437 4.9747 4.9024" fill="none" stroke="#000"/><path d="m367.2254 162.4054c2.0068-5.7769 14.9728-4.7698 34.8749-1.6517-.9419 5.8242-19.0142 12.8841-24.1447 12.0562-2.3858-.385-5.1158-1.7217-8.4848-5.3119" fill="#c87137" stroke="#000"/><path d="m369.4707 167.498c15.5061-2.0264 27.3035-4.7507 32.6296-6.7444" fill="none" stroke="#000"/><path d="m351.0815 166.2947c-.1862 4.9968-9.8799 6.2238-12.9411 2.8343 2.8974-5.1346 9.5019-4.6708 12.9411-2.8343z" fill="#e5e5e5" fill-rule="evenodd" stroke="#000"/><path d="m357.6131 166.6197c-1.5732.6393-4.8758.5972-6.5316-.325" fill="none" stroke="#000"/><path d="m352.7908 201.2703c4.1495-.9301 15.6905-1.5324 15.4721-13.8207" fill="none" stroke="#000"/><path d="m314.0134 190.127c3.1936-2.6577 6.8404-.5761 5.8303-4.9128" fill="none" stroke="#000"/><path d="m363.464 212.0408c-2.2197 4.502-6.7888 9.5793-7.4271 13.5261-.5401 3.3398 2.0682 5.0709 3.5547 5.3108 3.3198.5356 3.7278-6.7377 7.2231-12.053" fill="#c87137" fill-rule="evenodd" stroke="#010000"/><path d="m346.0754 168.0415c-.0823.5095-4.5963 1.2546-4.4516.3602.1806-1.1163 4.5518-.9791 4.4516-.3602z" stroke="#000"/></g><g><path d="m240.8902 158.9384c3.2597.0807 8.129-.729 9.3459-3.4382-6.4173-25.6296-29.503-37.0002-31.6091-37.0002-1.1663 0-1.5878.7767-1.4644 1.481.5358 3.0549 15.6258 12.0987 23.7276 38.9574z" fill="#e5e5e5" stroke="#000"/><path d="m245.3327 143.7125c-.4515 1.7911-5.1574 3.7969-8.249 4.0551" fill="none" stroke="#000"/><path d="m242.9143 139.2659c-1.4898 1.84-5.2996 3.4263-8.3912 3.6846" fill="none" stroke="#000"/><path d="m239.4853 134.6295c-1.4551 1.4809-4.6837 3.2447-7.7753 3.5029" fill="none" stroke="#000"/><path d="m235.6506 130.3277c-1.2472 1.6427-4.0219 3.0644-6.8717 3.3117" fill="none" stroke="#000"/><path d="m231.2615 126.2227c-.8913 1.4558-3.1405 2.6924-5.709 3.2381" fill="none" stroke="#000"/><path d="m190.5 201.0073c7.3857-7.953 17.6325-20.557 33.9502-42.5916-3.2793-4.2367 11.6697-12.0716 15.6494-8.6741 1.5251-1.2393 5.4502-1.2418 7.8685-1.2418 4.4637 0 8.4002 1.9019 11.1984 5.7233 1.909 2.6073 6.7953 7.4707 7.4143 11.2987.6828 4.2215 5.2417 7.3332 7.226 8.7757 5.8405 4.2463 7.882 8.0545 10.6616 10.7199 1.3973 1.3399 2.6556 3.4919 1.5182 5.1095 1.1259.8507 3.5134 2.4066 3.5134 5.5057 0 3.3218-2.904 5.7061-4.9371 6.034-2.6541.4281-7.8329-5.3396-13.6102-5.9594 3.2038 2.1587 6.9379 5.1458 8.6738 5.3037.7518.0683 2.161 1.7149 2.3122 2.6499.1413.8783-1.7923 1.6654-3.9989 2.0213-2.1748.3511-4.313-1.0275-5.9324-.7662-2.043.3297 2.0967 4.766.4092 11.0015-.5428 2.0051 1.3895-3.6513-11.9335-13.5838-5.5064.4007-11.8337-.7415-13.2738-1.0633-5.0588 2.2058-7.9964 14.0239-17.1469 36.2297z" fill="#c87137" stroke="#000"/><path d="m228.2831 155.6647c.8123 1.7352 10.0974-2.686 9.0343-5.0953-11.4547-25.9552-35.0504-32.0694-37.8074-32.0694-.9227 0-1.6102.5874-1.6102 1.4818 0 4.3102 17.5498 8.2615 30.3833 35.6829z" fill="#e5e5e5" stroke="#000"/><path d="m234.4919 145.464c-1.576 2.4308-5.3797 4.7541-8.3341 5.7132" fill="none" stroke="#000"/><path d="m230.685 139.4646c-.6702 2.5113-4.6843 5.8695-7.5185 6.8284" fill="none" stroke="#000"/><path d="m227.1828 135.1801c-.9683 2.3394-4.3184 5.361-7.1526 6.3204" fill="none" stroke="#000"/><path d="m223.0863 131.1103c-1.0191 1.9385-3.9314 4.8442-6.7657 5.8033" fill="none" stroke="#000"/><path d="m218.6798 127.4531c-.787 2.0701-3.4361 4.422-6.0466 5.3164" fill="none" stroke="#000"/><path d="m213.2664 124.0512c-.6322 2.0346-2.6966 3.7437-4.9747 4.9024" fill="none" stroke="#000"/><path d="m232.7746 162.4054c-2.0068-5.7769-14.9728-4.7698-34.8749-1.6517.9419 5.8242 19.0142 12.8841 24.1447 12.0562 2.3858-.385 5.1158-1.7217 8.4848-5.3119" fill="#c87137" stroke="#000"/><path d="m230.5293 167.498c-15.5061-2.0264-27.3035-4.7507-32.6296-6.7444" fill="none" stroke="#000"/><path d="m248.9185 166.2947c.1862 4.9968 9.8799 6.2238 12.9411 2.8343-2.8974-5.1346-9.5019-4.6708-12.9411-2.8343z" fill="#e5e5e5" fill-rule="evenodd" stroke="#000"/><path d="m242.3869 166.6197c1.5732.6393 4.8758.5972 6.5316-.325" fill="none" stroke="#000"/><path d="m247.2093 201.2703c-4.1495-.9301-15.6905-1.5324-15.4721-13.8207" fill="none" stroke="#000"/><path d="m285.9866 190.127c-3.1936-2.6577-6.8404-.5761-5.8303-4.9128" fill="none" stroke="#000"/><path d="m236.536 212.0408c2.2197 4.502 6.7888 9.5793 7.4271 13.5261.5401 3.3398-2.0682 5.0709-3.5547 5.3108-3.3198.5356-3.7278-6.7377-7.2231-12.053" fill="#c87137" fill-rule="evenodd" stroke="#010000"/><path d="m253.9246 168.0415c.0823.5095 4.5963 1.2546 4.4516.3602-.1806-1.1163-4.5518-.9791-4.4516-.3602z" stroke="#000"/></g></g><path d="m1.5 300 298.5 298.5 298.5-298.5-298.5-298.5z" fill="none" stroke="#010000" stroke-linecap="round" stroke-linejoin="round" stroke-width="3"/></svg>