<?xml version="1.0" encoding="UTF-8" standalone="no"?>
<!-- Created with Inkscape (http://www.inkscape.org/) -->
<svg
   xmlns:svg="http://www.w3.org/2000/svg"
   xmlns="http://www.w3.org/2000/svg"
   version="1.0"
   width="356.79956"
   height="321.59375"
   id="svg2">
  <defs
     id="defs4" />
  <g
     transform="translate(-173.40625,-58.40625)"
     id="g3453">
    <g
       transform="matrix(-1,0,0,1,483.61207,0)"
       id="g3230"
       style="stroke-width:1;stroke-miterlimit:4;stroke-dasharray:none">
      <g
         transform="translate(-196.71468,7.5991888)"
         id="g3232"
         style="stroke-width:1;stroke-miterlimit:4;stroke-dasharray:none">
        <path
           d="M 240.40218,59.119561 C 237.79158,60.015284 234.83897,59.858661 233.65218,65.025811 C 235.16018,67.756996 234.35609,71.798533 240.68343,71.775811 C 233.55126,74.174959 226.4406,73.363528 219.30843,72.057061 C 206.8425,66.489481 194.26249,61.117134 179.58968,59.963311 C 169.00104,62.541583 156.72524,60.267277 153.99593,84.994561 C 155.12755,101.50501 166.94554,106.00601 179.90218,109.21331 C 181.81766,109.02364 183.63041,108.60565 185.27718,107.99456 L 184.68343,108.36956 C 167.03605,118.16322 153.33234,131.12713 150.62093,152.86956 C 150.80145,174.25713 159.98875,179.67533 169.74593,184.11956 C 183.55312,193.45075 195.2527,203.34424 197.90218,215.65081 L 191.43343,215.65081 C 189.49078,217.12868 187.17513,217.65494 186.65218,222.68206 C 188.82961,227.26736 191.51896,230.62902 195.93343,229.99456 C 207.87302,226.65061 211.00713,220.17362 212.55843,213.11956 C 211.53176,204.6222 206.5401,202.02866 202.74593,197.68206 C 206.80729,195.9012 208.15359,192.75992 208.05843,188.90081 C 206.5803,183.03303 203.33583,181.59853 199.46468,181.71331 L 191.74043,183.07634 L 198.87093,178.71331 C 201.05818,176.35035 202.38755,173.12388 202.43343,168.61956 C 200.88175,163.52319 187.27003,156.97069 183.77928,154.78293 C 185.3052,152.07226 190.17185,147.15669 184.89504,143.07063 C 183.11304,141.69075 191.75332,141.70131 191.33968,141.33831 C 196.02972,147.74794 202.65549,148.31737 210.99593,143.77581 C 212.14914,127.16952 205.53805,106.8928 210.68343,92.338311 C 215.04627,88.502374 215.00322,88.507912 215.52718,87.807061 C 217.9361,90.006856 219.65607,90.500631 222.55843,89.244561 C 223.93193,87.942321 224.81998,86.98649 225.30843,86.150811 C 229.4616,87.729059 232.76292,89.896884 238.99593,90.088311 C 248.917,88.997861 253.66408,83.174642 255.33968,74.588311 C 254.17151,70.171619 253.90315,65.257864 240.40218,59.119561 z M 215.52718,87.807061 C 214.50219,89.216204 213.70982,89.477394 210.68343,92.338311 L 215.52718,87.807061 z"
           id="path3234"
           style="fill:#fdcd00;fill-opacity:1;fill-rule:evenodd;stroke:#000000;stroke-width:1;stroke-linecap:butt;stroke-linejoin:miter;stroke-miterlimit:4;stroke-dasharray:none;stroke-opacity:1" />
      </g>
      <g
         transform="translate(-196.39316,7.5991888)"
         id="g3236"
         style="stroke-width:1;stroke-miterlimit:4;stroke-dasharray:none">
        <path
           d="M 198.27778,103.97329 C 193.00286,117.22804 191.40045,128.64653 190.31481,139.80663 C 195.04056,147.66024 202.04638,148.67365 211.01852,143.78811 C 212.15691,127.39528 205.40926,106.5808 210.49191,92.443551 C 211.33472,90.099298 213.80692,90.025214 215.30425,87.961212 C 218.70657,91.548453 219.0537,90.790007 222.58483,89.26182 C 227.0409,85.036949 226.32896,84.37652 223.75926,80.084405"
           id="path3238"
           style="fill:none;fill-opacity:1;fill-rule:evenodd;stroke:#000000;stroke-width:1;stroke-linecap:butt;stroke-linejoin:miter;stroke-miterlimit:4;stroke-dasharray:none;stroke-opacity:1" />
        <path
           d="M 225.4948,85.693057 C 229.69226,87.274159 232.74192,89.888651 239.02173,90.081515 C 248.9428,88.991063 253.67506,83.183517 255.35066,74.597186 C 254.18249,70.180492 253.93037,65.25116 240.4294,59.112857 C 237.8188,60.008582 234.85939,59.857905 233.6726,65.025055 C 235.1806,67.756241 234.38359,71.804575 240.71093,71.781853 C 233.57876,74.181002 226.44658,73.369853 219.31441,72.063386 C 206.84848,66.495806 194.29103,61.111279 179.61822,59.957456 C 169.02958,62.535728 156.728,60.286632 153.99869,85.013916 C 155.13031,101.52437 166.94311,106.01848 179.89975,109.22578 C 186.54295,108.15793 192.72553,106.26098 195.66561,98.527512 C 198.52268,80.095721 188.47505,81.857944 182.71508,79.101718 C 177.72806,79.950903 173.6624,81.567891 173.14295,86.140049 C 173.34138,91.273322 175.48029,94.142691 180.18128,94.02298 C 182.67306,93.871003 184.81181,92.83646 185.81195,88.955382 C 186.22128,87.351539 183.84385,86.444385 181.30741,85.576983"
           id="path3240"
           style="fill:#fdcd00;fill-opacity:1;fill-rule:evenodd;stroke:#000000;stroke-width:1;stroke-linecap:butt;stroke-linejoin:miter;stroke-miterlimit:4;stroke-dasharray:none;stroke-opacity:1" />
        <path
           d="M 190.79923,140.55713 C 190.15093,142.04941 186.17291,141.154 184.32396,142.52787 C 189.67589,147.0561 186.13672,151.3186 182.71508,155.1157"
           id="path3242"
           style="fill:none;fill-opacity:1;fill-rule:evenodd;stroke:#000000;stroke-width:1;stroke-linecap:butt;stroke-linejoin:miter;stroke-miterlimit:4;stroke-dasharray:none;stroke-opacity:1" />
        <path
           d="M 187.50115,170.03696 L 182.15202,170.03696 C 177.18144,168.37798 177.49688,164.957 176.80288,161.87249 C 179.56087,154.63599 181.19057,156.42582 183.27815,154.55263 C 192.24183,155.37145 199.441,158.83705 202.42241,168.62929 C 202.33914,176.80433 198.0726,180.7961 192.00568,182.98749 C 198.7562,181.45477 205.68149,179.48509 208.05308,188.89969 C 208.16437,193.41294 206.3292,196.95297 200.45168,198.47182 C 197.42545,199.6908 195.48087,196.58315 193.13181,195.09342"
           id="path3244"
           style="fill:#fdcd00;fill-opacity:1;fill-rule:evenodd;stroke:#000000;stroke-width:1;stroke-linecap:butt;stroke-linejoin:miter;stroke-miterlimit:4;stroke-dasharray:none;stroke-opacity:1" />
      </g>
    </g>
    <path
       d="M 298.34375,331.46875 C 293.83359,331.86274 290.82379,335.29334 290.15625,338.0625 C 290.24276,341.59381 292.48609,342.10454 294.65625,342.71875 C 296.42595,342.36544 298.43078,343.97017 299.8125,340.125 C 303.76248,342.26718 305.81897,362.40885 315.21875,370.65625 C 325.15614,376.72252 334.56704,379.30044 342.375,371.3125 C 345.70062,374.08405 346.84616,378.66865 352.5,379.5 C 357.91976,377.84799 358.18108,374.32569 362.9375,371.3125 C 370.74546,379.30044 380.15636,376.72252 390.09375,370.65625 C 399.49353,362.40885 401.55002,342.26718 405.5,340.125 C 406.8817,343.97017 408.88655,342.36544 410.65625,342.71875 C 412.82639,342.10454 415.06974,341.59381 415.15625,338.0625 C 414.48871,335.29334 411.47891,331.86274 406.96875,331.46875 C 399.96417,331.62524 395.3814,335.28948 395.21875,345.28125 C 395.51844,339.91598 393.30732,336.73919 387.1875,336.9375 C 383.3436,341.52391 375.28972,343.46565 377.5625,351.875 C 378.47196,361.32348 370.97137,358.98779 368.40625,355.09375 L 352.8125,348.78125 L 352.8125,348.65625 L 352.65625,348.71875 L 352.5,348.65625 L 352.5,348.78125 L 336.90625,355.09375 C 334.34113,358.98779 326.84052,361.32348 327.75,351.875 C 330.02278,343.46565 321.96891,341.52391 318.125,336.9375 C 312.00518,336.73919 309.79404,339.91598 310.09375,345.28125 C 309.9311,335.28948 305.34833,331.62524 298.34375,331.46875 z"
       id="path3256"
       style="fill:#fdcd00;fill-opacity:1;fill-rule:evenodd;stroke:#000000;stroke-width:1;stroke-linecap:butt;stroke-linejoin:miter;stroke-miterlimit:4;stroke-dasharray:none;stroke-opacity:1" />
    <path
       d="M 351.71875,58.90625 C 347.83407,61.221751 343.99577,63.572991 344.03125,68.9375 C 345.03424,70.16338 345.30994,71.367869 344.53125,72.59375 C 343.05599,71.602623 341.36072,70.944177 339,71.28125 C 331.99077,73.436693 325.06869,76.288933 318.9375,85.46875 C 317.1845,85.580197 316.01418,85.701056 312.59375,85.8125 C 308.19166,81.772652 310.93859,79.939601 313.4375,77.625 C 318.00669,79.965305 320.45934,78.62757 320.125,74.28125 C 315.71055,67.575254 311.72972,67.434917 307.75,67.25 C 299.28917,68.31091 296.27912,74.807308 294.03125,82.96875 C 294.41703,90.282391 298.28606,96.834679 309.75,99.6875 C 318.20658,99.363729 325.81505,95.525075 328.15625,92.65625 C 327.90278,94.943985 323.81905,96.751709 330,99.84375 C 336.78766,96.610988 342.54688,89.778678 351.5625,94.34375 C 356.94266,89.956711 367.05631,96.643038 373.4375,99.84375 C 379.61845,96.751709 375.53471,94.943985 375.28125,92.65625 C 377.62245,95.525075 385.23094,99.363729 393.6875,99.6875 C 405.15144,96.834679 408.98921,90.282391 409.375,82.96875 C 407.12713,74.807308 404.14832,68.31091 395.6875,67.25 C 391.70778,67.434917 387.72697,67.575254 383.3125,74.28125 C 382.97816,78.62757 385.43081,79.965305 390,77.625 C 392.49891,79.939601 395.24583,81.772652 390.84375,85.8125 C 387.42332,85.701056 386.22175,85.580197 384.46875,85.46875 C 378.33756,76.288933 371.4155,73.436693 364.40625,71.28125 C 362.04553,70.944177 360.3815,71.602623 358.90625,72.59375 C 358.12756,71.367869 358.40326,70.16338 359.40625,68.9375 C 359.44173,63.572991 355.60342,61.221751 351.71875,58.90625 z"
       id="path3246"
       style="fill:#fdcd00;fill-opacity:1;fill-rule:evenodd;stroke:#000000;stroke-width:1;stroke-linecap:butt;stroke-linejoin:miter;stroke-miterlimit:4;stroke-dasharray:none;stroke-opacity:1" />
    <g
       transform="translate(220,0)"
       id="g3221"
       style="stroke-width:1;stroke-miterlimit:4;stroke-dasharray:none">
      <g
         transform="translate(-196.71468,7.5991888)"
         id="g2389"
         style="stroke-width:1;stroke-miterlimit:4;stroke-dasharray:none">
        <path
           d="M 240.40218,59.119561 C 237.79158,60.015284 234.83897,59.858661 233.65218,65.025811 C 235.16018,67.756996 234.35609,71.798533 240.68343,71.775811 C 233.55126,74.174959 226.4406,73.363528 219.30843,72.057061 C 206.8425,66.489481 194.26249,61.117134 179.58968,59.963311 C 169.00104,62.541583 156.72524,60.267277 153.99593,84.994561 C 155.12755,101.50501 166.94554,106.00601 179.90218,109.21331 C 181.81766,109.02364 183.63041,108.60565 185.27718,107.99456 L 184.68343,108.36956 C 167.03605,118.16322 153.33234,131.12713 150.62093,152.86956 C 150.80145,174.25713 159.98875,179.67533 169.74593,184.11956 C 183.55312,193.45075 195.2527,203.34424 197.90218,215.65081 L 191.43343,215.65081 C 189.49078,217.12868 187.17513,217.65494 186.65218,222.68206 C 188.82961,227.26736 191.51896,230.62902 195.93343,229.99456 C 207.87302,226.65061 211.00713,220.17362 212.55843,213.11956 C 211.53176,204.6222 206.5401,202.02866 202.74593,197.68206 C 206.80729,195.9012 208.15359,192.75992 208.05843,188.90081 C 206.5803,183.03303 203.33583,181.59853 199.46468,181.71331 L 191.74043,183.07634 L 198.87093,178.71331 C 201.05818,176.35035 202.38755,173.12388 202.43343,168.61956 C 200.88175,163.52319 187.27003,156.97069 183.77928,154.78293 C 185.3052,152.07226 190.17185,147.15669 184.89504,143.07063 C 183.11304,141.69075 191.75332,141.70131 191.33968,141.33831 C 196.02972,147.74794 202.65549,148.31737 210.99593,143.77581 C 212.14914,127.16952 205.53805,106.8928 210.68343,92.338311 C 215.04627,88.502374 215.00322,88.507912 215.52718,87.807061 C 217.9361,90.006856 219.65607,90.500631 222.55843,89.244561 C 223.93193,87.942321 224.81998,86.98649 225.30843,86.150811 C 229.4616,87.729059 232.76292,89.896884 238.99593,90.088311 C 248.917,88.997861 253.66408,83.174642 255.33968,74.588311 C 254.17151,70.171619 253.90315,65.257864 240.40218,59.119561 z M 215.52718,87.807061 C 214.50219,89.216204 213.70982,89.477394 210.68343,92.338311 L 215.52718,87.807061 z"
           id="path2391"
           style="fill:#fdcd00;fill-opacity:1;fill-rule:evenodd;stroke:#000000;stroke-width:1;stroke-linecap:butt;stroke-linejoin:miter;stroke-miterlimit:4;stroke-dasharray:none;stroke-opacity:1" />
      </g>
      <g
         transform="translate(-196.39316,7.5991888)"
         id="g2382"
         style="stroke-width:1;stroke-miterlimit:4;stroke-dasharray:none">
        <path
           d="M 198.27778,103.97329 C 193.00286,117.22804 191.40045,128.64653 190.31481,139.80663 C 195.04056,147.66024 202.04638,148.67365 211.01852,143.78811 C 212.15691,127.39528 205.40926,106.5808 210.49191,92.443551 C 211.33472,90.099298 213.80692,90.025214 215.30425,87.961212 C 218.70657,91.548453 219.0537,90.790007 222.58483,89.26182 C 227.0409,85.036949 226.32896,84.37652 223.75926,80.084405"
           id="path2356"
           style="fill:none;fill-opacity:1;fill-rule:evenodd;stroke:#000000;stroke-width:1;stroke-linecap:butt;stroke-linejoin:miter;stroke-miterlimit:4;stroke-dasharray:none;stroke-opacity:1" />
        <path
           d="M 225.4948,85.693057 C 229.69226,87.274159 232.74192,89.888651 239.02173,90.081515 C 248.9428,88.991063 253.67506,83.183517 255.35066,74.597186 C 254.18249,70.180492 253.93037,65.25116 240.4294,59.112857 C 237.8188,60.008582 234.85939,59.857905 233.6726,65.025055 C 235.1806,67.756241 234.38359,71.804575 240.71093,71.781853 C 233.57876,74.181002 226.44658,73.369853 219.31441,72.063386 C 206.84848,66.495806 194.29103,61.111279 179.61822,59.957456 C 169.02958,62.535728 156.728,60.286632 153.99869,85.013916 C 155.13031,101.52437 166.94311,106.01848 179.89975,109.22578 C 186.54295,108.15793 192.72553,106.26098 195.66561,98.527512 C 198.52268,80.095721 188.47505,81.857944 182.71508,79.101718 C 177.72806,79.950903 173.6624,81.567891 173.14295,86.140049 C 173.34138,91.273322 175.48029,94.142691 180.18128,94.02298 C 182.67306,93.871003 184.81181,92.83646 185.81195,88.955382 C 186.22128,87.351539 183.84385,86.444385 181.30741,85.576983"
           id="path2358"
           style="fill:#fdcd00;fill-opacity:1;fill-rule:evenodd;stroke:#000000;stroke-width:1;stroke-linecap:butt;stroke-linejoin:miter;stroke-miterlimit:4;stroke-dasharray:none;stroke-opacity:1" />
        <path
           d="M 190.79923,140.55713 C 190.15093,142.04941 186.17291,141.154 184.32396,142.52787 C 189.67589,147.0561 186.13672,151.3186 182.71508,155.1157"
           id="path2364"
           style="fill:none;fill-opacity:1;fill-rule:evenodd;stroke:#000000;stroke-width:1;stroke-linecap:butt;stroke-linejoin:miter;stroke-miterlimit:4;stroke-dasharray:none;stroke-opacity:1" />
        <path
           d="M 187.50115,170.03696 L 182.15202,170.03696 C 177.18144,168.37798 177.49688,164.957 176.80288,161.87249 C 179.56087,154.63599 181.19057,156.42582 183.27815,154.55263 C 192.24183,155.37145 199.441,158.83705 202.42241,168.62929 C 202.33914,176.80433 198.0726,180.7961 192.00568,182.98749 C 198.7562,181.45477 205.68149,179.48509 208.05308,188.89969 C 208.16437,193.41294 206.3292,196.95297 200.45168,198.47182 C 197.42545,199.6908 195.48087,196.58315 193.13181,195.09342"
           id="path2366"
           style="fill:#fdcd00;fill-opacity:1;fill-rule:evenodd;stroke:#000000;stroke-width:1;stroke-linecap:butt;stroke-linejoin:miter;stroke-miterlimit:4;stroke-dasharray:none;stroke-opacity:1" />
      </g>
    </g>
    <path
       d="M 244.68858,111.95205 L 459.48909,111.95205 L 459.48909,185.5137 C 451.57823,261.19704 415.1256,311.12895 352.69334,347.4528 C 288.59659,312.74076 251.318,258.98977 244.68858,185.5137 L 244.68858,111.95205 z"
       id="path2624"
       style="fill:#82c3fb;fill-opacity:1;fill-rule:evenodd;stroke:#000000;stroke-width:1;stroke-linecap:butt;stroke-linejoin:miter;stroke-miterlimit:4;stroke-dasharray:none;stroke-opacity:1" />
    <path
       d="M 366.61522,161.32719 L 370.65504,149.54553 L 360.68366,142.08235 L 373.13705,142.28371 L 377.15364,130.49411 L 380.81044,142.40022 L 393.26421,142.57704 L 383.07084,149.73405 L 386.7511,161.63292 L 376.79445,154.15009 L 366.61522,161.32719 z"
       id="path2348"
       style="fill:#fdcd00;fill-opacity:1;fill-rule:nonzero;stroke:#000000;stroke-width:1;stroke-linecap:butt;stroke-linejoin:miter;marker:none;marker-start:none;marker-mid:none;marker-end:none;stroke-miterlimit:4;stroke-dasharray:none;stroke-dashoffset:0;stroke-opacity:1;visibility:visible;display:inline;overflow:visible;enable-background:accumulate" />
    <path
       d="M 315.38683,161.32719 L 319.42665,149.54553 L 309.45527,142.08235 L 321.90866,142.28371 L 325.92525,130.49411 L 329.58205,142.40022 L 342.03582,142.57704 L 331.84245,149.73405 L 335.52271,161.63292 L 325.56606,154.15009 L 315.38683,161.32719 z"
       id="path2350"
       style="fill:#fdcd00;fill-opacity:1;fill-rule:nonzero;stroke:#000000;stroke-width:1;stroke-linecap:butt;stroke-linejoin:miter;marker:none;marker-start:none;marker-mid:none;marker-end:none;stroke-miterlimit:4;stroke-dasharray:none;stroke-dashoffset:0;stroke-opacity:1;visibility:visible;display:inline;overflow:visible;enable-background:accumulate" />
    <path
       d="M 417.84362,161.32719 L 421.88344,149.54553 L 411.91206,142.08235 L 424.36545,142.28371 L 428.38204,130.49411 L 432.03884,142.40022 L 444.49261,142.57704 L 434.29924,149.73405 L 437.9795,161.63292 L 428.02285,154.15009 L 417.84362,161.32719 z"
       id="path2354"
       style="fill:#fdcd00;fill-opacity:1;fill-rule:nonzero;stroke:#000000;stroke-width:1;stroke-linecap:butt;stroke-linejoin:miter;marker:none;marker-start:none;marker-mid:none;marker-end:none;stroke-miterlimit:4;stroke-dasharray:none;stroke-dashoffset:0;stroke-opacity:1;visibility:visible;display:inline;overflow:visible;enable-background:accumulate" />
    <path
       d="M 264.15843,161.32719 L 268.19825,149.54553 L 258.22687,142.08235 L 270.68026,142.28371 L 274.69685,130.49411 L 278.35365,142.40022 L 290.80742,142.57704 L 280.61405,149.73405 L 284.29431,161.63292 L 274.33766,154.15009 L 264.15843,161.32719 z"
       id="path2352"
       style="fill:#fdcd00;fill-opacity:1;fill-rule:nonzero;stroke:#000000;stroke-width:1;stroke-linecap:butt;stroke-linejoin:miter;marker:none;marker-start:none;marker-mid:none;marker-end:none;stroke-miterlimit:4;stroke-dasharray:none;stroke-dashoffset:0;stroke-opacity:1;visibility:visible;display:inline;overflow:visible;enable-background:accumulate" />
    <path
       d="M 352.63408,98.06892 C 345.32951,100.42058 340.56807,98.875852 338.09247,95.796793 C 337.49089,90.97483 343.17222,87.517198 344.90885,87.617136 C 347.16949,87.422524 350.85576,90.760236 352.17966,93.524666 C 353.24396,90.68632 357.11875,87.038552 359.45046,87.162711 C 362.39545,87.171753 365.51124,91.883699 366.26684,95.342368 C 363.60265,100.45312 357.85234,99.477639 352.63408,98.06892 z"
       id="path3254"
       style="fill:#fdcd00;fill-opacity:1;fill-rule:evenodd;stroke:#000000;stroke-width:1;stroke-linecap:butt;stroke-linejoin:miter;stroke-miterlimit:4;stroke-dasharray:none;stroke-opacity:1" />
    <path
       d="M 252.56322,219.32127 L 252.56322,195.70372 L 244.20871,195.70372 L 246.45801,219.16061 L 252.56322,219.32127 z"
       id="path3313"
       style="fill:#ffffff;fill-opacity:1;fill-rule:evenodd;stroke:#000000;stroke-width:1;stroke-linecap:butt;stroke-linejoin:miter;stroke-miterlimit:4;stroke-dasharray:none;stroke-opacity:1" />
    <rect
       width="2.7312818"
       height="3.3739362"
       x="248.22531"
       y="197.953"
       id="rect3317"
       style="opacity:1;fill:none;fill-opacity:1;fill-rule:nonzero;stroke:#000000;stroke-width:1;stroke-linecap:butt;stroke-linejoin:miter;marker:none;marker-start:none;marker-mid:none;marker-end:none;stroke-miterlimit:4;stroke-dasharray:none;stroke-dashoffset:0;stroke-opacity:1;visibility:visible;display:inline;overflow:visible;enable-background:accumulate" />
    <rect
       width="7.0691996"
       height="21.850254"
       x="252.72389"
       y="197.47102"
       id="rect3319"
       style="opacity:1;fill:#ffffff;fill-opacity:1;fill-rule:nonzero;stroke:#000000;stroke-width:1;stroke-linecap:butt;stroke-linejoin:miter;marker:none;marker-start:none;marker-mid:none;marker-end:none;stroke-miterlimit:4;stroke-dasharray:none;stroke-dashoffset:0;stroke-opacity:1;visibility:visible;display:inline;overflow:visible;enable-background:accumulate" />
    <rect
       width="1.9279635"
       height="3.5345998"
       x="254.81252"
       y="200.84496"
       id="rect3321"
       style="opacity:1;fill:none;fill-opacity:1;fill-rule:nonzero;stroke:#000000;stroke-width:1;stroke-linecap:butt;stroke-linejoin:miter;marker:none;marker-start:none;marker-mid:none;marker-end:none;stroke-miterlimit:4;stroke-dasharray:none;stroke-dashoffset:0;stroke-opacity:1;visibility:visible;display:inline;overflow:visible;enable-background:accumulate" />
    <rect
       width="1.9279635"
       height="3.5345998"
       x="254.81252"
       y="207.2715"
       id="rect3325"
       style="opacity:1;fill:none;fill-opacity:1;fill-rule:nonzero;stroke:#000000;stroke-width:1;stroke-linecap:butt;stroke-linejoin:miter;marker:none;marker-start:none;marker-mid:none;marker-end:none;stroke-miterlimit:4;stroke-dasharray:none;stroke-dashoffset:0;stroke-opacity:1;visibility:visible;display:inline;overflow:visible;enable-background:accumulate" />
    <rect
       width="1.9279635"
       height="3.5345998"
       x="254.81252"
       y="213.05539"
       id="rect3327"
       style="opacity:1;fill:none;fill-opacity:1;fill-rule:nonzero;stroke:#000000;stroke-width:1;stroke-linecap:butt;stroke-linejoin:miter;marker:none;marker-start:none;marker-mid:none;marker-end:none;stroke-miterlimit:4;stroke-dasharray:none;stroke-dashoffset:0;stroke-opacity:1;visibility:visible;display:inline;overflow:visible;enable-background:accumulate" />
    <rect
       width="10.6038"
       height="18.315653"
       x="308.7955"
       y="203.57623"
       id="rect3333"
       style="opacity:1;fill:#ffffff;fill-opacity:1;fill-rule:nonzero;stroke:#000000;stroke-width:1;stroke-linecap:butt;stroke-linejoin:miter;marker:none;marker-start:none;marker-mid:none;marker-end:none;stroke-miterlimit:4;stroke-dasharray:none;stroke-dashoffset:0;stroke-opacity:1;visibility:visible;display:inline;overflow:visible;enable-background:accumulate" />
    <path
       d="M 319.39929,219.48193 L 319.55996,204.54022 L 326.30783,196.62021 L 332.57371,203.57624 L 332.57371,218.83928 L 319.39929,219.48193 z"
       id="path3335"
       style="fill:#ffffff;fill-opacity:1;fill-rule:evenodd;stroke:#000000;stroke-width:1;stroke-linecap:butt;stroke-linejoin:miter;stroke-miterlimit:4;stroke-dasharray:none;stroke-opacity:1" />
    <path
       d="M 319.72062,204.05823 L 325.5702,196.56363 L 310.40213,196.6677 L 310.72346,203.7369 L 319.72062,204.05823 z"
       id="path3337"
       style="fill:#e55847;fill-opacity:1;fill-rule:evenodd;stroke:#000000;stroke-width:1;stroke-linecap:butt;stroke-linejoin:miter;stroke-miterlimit:4;stroke-dasharray:none;stroke-opacity:1" />
    <rect
       width="3.2132726"
       height="7.2298632"
       x="324.54053"
       y="211.28809"
       id="rect3339"
       style="opacity:1;fill:none;fill-opacity:1;fill-rule:nonzero;stroke:#000000;stroke-width:1;stroke-linecap:butt;stroke-linejoin:miter;marker:none;marker-start:none;marker-mid:none;marker-end:none;stroke-miterlimit:4;stroke-dasharray:none;stroke-dashoffset:0;stroke-opacity:1;visibility:visible;display:inline;overflow:visible;enable-background:accumulate" />
    <g
       id="g3351"
       style="stroke-width:1;stroke-miterlimit:4;stroke-dasharray:none">
      <path
         d="M 301.72629,187.8312 L 301.72629,182.5293"
         id="path3343"
         style="fill:none;fill-rule:evenodd;stroke:#000000;stroke-width:1;stroke-linecap:butt;stroke-linejoin:miter;stroke-miterlimit:4;stroke-dasharray:none;stroke-opacity:1" />
      <path
         d="M 299.15568,185.26058 L 304.45758,185.26058"
         id="path3345"
         style="fill:none;fill-rule:evenodd;stroke:#000000;stroke-width:1;stroke-linecap:butt;stroke-linejoin:miter;stroke-miterlimit:4;stroke-dasharray:none;stroke-opacity:1" />
    </g>
    <rect
       width="3.855927"
       height="22.171581"
       x="290.31918"
       y="198.11368"
       id="rect3347"
       style="opacity:1;fill:#ffffff;fill-opacity:1;fill-rule:nonzero;stroke:#000000;stroke-width:1;stroke-linecap:butt;stroke-linejoin:miter;marker:none;marker-start:none;marker-mid:none;marker-end:none;stroke-miterlimit:4;stroke-dasharray:none;stroke-dashoffset:0;stroke-opacity:1;visibility:visible;display:inline;overflow:visible;enable-background:accumulate" />
    <path
       d="M 260.91773,200.36296 L 264.04624,194.94422 L 296.90638,194.9004 L 290.31918,201.16628 L 260.91773,200.36296 z"
       id="path3349"
       style="fill:#e55847;fill-opacity:1;fill-rule:evenodd;stroke:#000000;stroke-width:1;stroke-linecap:butt;stroke-linejoin:miter;stroke-miterlimit:4;stroke-dasharray:none;stroke-opacity:1" />
    <path
       d="M 292.4078,195.70372 L 301.88696,187.8312 L 311.04478,195.54305 L 292.4078,195.70372 z"
       id="path3341"
       style="fill:#e55847;fill-opacity:1;fill-rule:evenodd;stroke:#000000;stroke-width:1;stroke-linecap:butt;stroke-linejoin:miter;stroke-miterlimit:4;stroke-dasharray:none;stroke-opacity:1" />
    <rect
       width="18.154989"
       height="27.794807"
       x="292.56848"
       y="195.54306"
       id="rect3331"
       style="opacity:1;fill:#ffffff;fill-opacity:1;fill-rule:nonzero;stroke:#000000;stroke-width:1;stroke-linecap:butt;stroke-linejoin:miter;marker:none;marker-start:none;marker-mid:none;marker-end:none;stroke-miterlimit:4;stroke-dasharray:none;stroke-dashoffset:0;stroke-opacity:1;visibility:visible;display:inline;overflow:visible;enable-background:accumulate" />
    <rect
       width="28.598125"
       height="20.725609"
       x="262.36371"
       y="200.6843"
       id="rect3329"
       style="opacity:1;fill:#ffffff;fill-opacity:1;fill-rule:nonzero;stroke:#000000;stroke-width:1;stroke-linecap:butt;stroke-linejoin:miter;marker:none;marker-start:none;marker-mid:none;marker-end:none;stroke-miterlimit:4;stroke-dasharray:none;stroke-dashoffset:0;stroke-opacity:1;visibility:visible;display:inline;overflow:visible;enable-background:accumulate" />
    <g
       transform="translate(-22.197797,7.1905386)"
       id="g3355"
       style="stroke-width:1;stroke-miterlimit:4;stroke-dasharray:none">
      <path
         d="M 301.72629,187.8312 L 301.72629,182.5293"
         id="path3357"
         style="fill:none;fill-rule:evenodd;stroke:#000000;stroke-width:1;stroke-linecap:butt;stroke-linejoin:miter;stroke-miterlimit:4;stroke-dasharray:none;stroke-opacity:1" />
      <path
         d="M 299.15568,185.26058 L 304.45758,185.26058"
         id="path3359"
         style="fill:none;fill-rule:evenodd;stroke:#000000;stroke-width:1;stroke-linecap:butt;stroke-linejoin:miter;stroke-miterlimit:4;stroke-dasharray:none;stroke-opacity:1" />
    </g>
    <rect
       width="13.495745"
       height="20.082954"
       x="375.63156"
       y="200.2023"
       id="rect3361"
       style="opacity:1;fill:#ffffff;fill-opacity:1;fill-rule:nonzero;stroke:#000000;stroke-width:1;stroke-linecap:butt;stroke-linejoin:miter;marker:none;marker-start:none;marker-mid:none;marker-end:none;stroke-miterlimit:4;stroke-dasharray:none;stroke-dashoffset:0;stroke-opacity:1;visibility:visible;display:inline;overflow:visible;enable-background:accumulate" />
    <rect
       width="5.141026"
       height="18.315664"
       ry="0"
       x="388.96664"
       y="200.36296"
       id="rect3363"
       style="opacity:1;fill:#ffffff;fill-opacity:1;fill-rule:nonzero;stroke:#000000;stroke-width:1;stroke-linecap:butt;stroke-linejoin:miter;marker:none;marker-start:none;marker-mid:none;marker-end:none;stroke-miterlimit:4;stroke-dasharray:none;stroke-dashoffset:0;stroke-opacity:1;visibility:visible;display:inline;overflow:visible;enable-background:accumulate" />
    <path
       d="M 388.92272,200.05771 L 396.8715,200.05771 L 396.70928,190.48673 L 381.37948,190.64895"
       id="path3441"
       style="fill:#e55847;fill-opacity:1;fill-rule:evenodd;stroke:#000000;stroke-width:1px;stroke-linecap:butt;stroke-linejoin:miter;stroke-opacity:1" />
    <rect
       width="16.066362"
       height="25.866844"
       x="391.53726"
       y="195.38239"
       id="rect3365"
       style="opacity:1;fill:#ffffff;fill-opacity:1;fill-rule:nonzero;stroke:#000000;stroke-width:1;stroke-linecap:butt;stroke-linejoin:miter;marker:none;marker-start:none;marker-mid:none;marker-end:none;stroke-miterlimit:4;stroke-dasharray:none;stroke-dashoffset:0;stroke-opacity:1;visibility:visible;display:inline;overflow:visible;enable-background:accumulate" />
    <path
       d="M 439.21095,190.97339 L 444.48311,190.97339 L 449.67415,195.43444 L 444.23978,195.51555"
       id="path3437"
       style="fill:#e55847;fill-opacity:1;fill-rule:evenodd;stroke:#000000;stroke-width:1px;stroke-linecap:butt;stroke-linejoin:miter;stroke-opacity:1" />
    <path
       d="M 434.75733,195.86594 L 439.0937,191.04447 L 444.3956,195.22173 L 445.03825,219.32127 L 434.59511,218.99994"
       id="path3389"
       style="fill:#ffffff;fill-opacity:1;fill-rule:evenodd;stroke:#000000;stroke-width:1;stroke-linecap:butt;stroke-linejoin:miter;stroke-miterlimit:4;stroke-dasharray:none;stroke-opacity:1" />
    <rect
       width="26.991489"
       height="23.617554"
       x="407.60364"
       y="196.02504"
       id="rect3367"
       style="opacity:1;fill:#ffffff;fill-opacity:1;fill-rule:nonzero;stroke:#000000;stroke-width:1;stroke-linecap:butt;stroke-linejoin:miter;marker:none;marker-start:none;marker-mid:none;marker-end:none;stroke-miterlimit:4;stroke-dasharray:none;stroke-dashoffset:0;stroke-opacity:1;visibility:visible;display:inline;overflow:visible;enable-background:accumulate" />
    <rect
       width="4.9805727"
       height="24.260208"
       x="444.71692"
       y="195.86438"
       id="rect3369"
       style="opacity:1;fill:#ffffff;fill-opacity:1;fill-rule:nonzero;stroke:#000000;stroke-width:1;stroke-linecap:butt;stroke-linejoin:miter;marker:none;marker-start:none;marker-mid:none;marker-end:none;stroke-miterlimit:4;stroke-dasharray:none;stroke-dashoffset:0;stroke-opacity:1;visibility:visible;display:inline;overflow:visible;enable-background:accumulate" />
    <rect
       width="7.8725176"
       height="16.548353"
       x="449.85815"
       y="203.57623"
       id="rect3371"
       style="opacity:1;fill:#ffffff;fill-opacity:1;fill-rule:nonzero;stroke:#000000;stroke-width:1;stroke-linecap:butt;stroke-linejoin:miter;marker:none;marker-start:none;marker-mid:none;marker-end:none;stroke-miterlimit:4;stroke-dasharray:none;stroke-dashoffset:0;stroke-opacity:1;visibility:visible;display:inline;overflow:visible;enable-background:accumulate" />
    <rect
       width="10.764463"
       height="4.0165906"
       x="449.69751"
       y="199.55965"
       id="rect3373"
       style="opacity:1;fill:#e55847;fill-opacity:1;fill-rule:nonzero;stroke:#000000;stroke-width:1;stroke-linecap:butt;stroke-linejoin:miter;marker:none;marker-start:none;marker-mid:none;marker-end:none;stroke-miterlimit:4;stroke-dasharray:none;stroke-dashoffset:0;stroke-opacity:1;visibility:visible;display:inline;overflow:visible;enable-background:accumulate" />
    <path
       d="M 375.29623,200.13882 L 381.5417,191.0545 L 389.16605,200.13882 L 375.29623,200.13882 z"
       id="path3439"
       style="fill:#ffffff;fill-opacity:1;fill-rule:evenodd;stroke:#000000;stroke-width:1px;stroke-linecap:butt;stroke-linejoin:miter;stroke-opacity:1" />
    <path
       d="M 383.34342,197.63168 A 1.3656409,1.2853091 0 1 1 380.61214,197.63168 A 1.3656409,1.2853091 0 1 1 383.34342,197.63168 z"
       id="path3377"
       style="opacity:1;fill:none;fill-opacity:1;fill-rule:nonzero;stroke:#000000;stroke-width:1;stroke-linecap:butt;stroke-linejoin:miter;marker:none;marker-start:none;marker-mid:none;marker-end:none;stroke-miterlimit:4;stroke-dasharray:none;stroke-dashoffset:0;stroke-opacity:1;visibility:visible;display:inline;overflow:visible;enable-background:accumulate" />
    <path
       d="M 401.98041,200.92529 A 2.0886271,1.8476317 0 1 1 397.80316,200.92529 A 2.0886271,1.8476317 0 1 1 401.98041,200.92529 z"
       id="path3379"
       style="opacity:1;fill:none;fill-opacity:1;fill-rule:nonzero;stroke:#000000;stroke-width:1;stroke-linecap:butt;stroke-linejoin:miter;marker:none;marker-start:none;marker-mid:none;marker-end:none;stroke-miterlimit:4;stroke-dasharray:none;stroke-dashoffset:0;stroke-opacity:1;visibility:visible;display:inline;overflow:visible;enable-background:accumulate" />
    <path
       d="M 383.82541,206.06653 A 1.5263045,1.3656409 0 1 1 380.7728,206.06653 A 1.5263045,1.3656409 0 1 1 383.82541,206.06653 z"
       transform="translate(-0.3213273,0)"
       id="path3381"
       style="opacity:1;fill:none;fill-opacity:1;fill-rule:nonzero;stroke:#000000;stroke-width:1;stroke-linecap:butt;stroke-linejoin:miter;marker:none;marker-start:none;marker-mid:none;marker-end:none;stroke-miterlimit:4;stroke-dasharray:none;stroke-dashoffset:0;stroke-opacity:1;visibility:visible;display:inline;overflow:visible;enable-background:accumulate" />
    <path
       d="M 414.83349,196.34637 L 414.83349,220.28525"
       id="path3383"
       style="fill:none;fill-rule:evenodd;stroke:#000000;stroke-width:1;stroke-linecap:butt;stroke-linejoin:miter;stroke-miterlimit:4;stroke-dasharray:none;stroke-opacity:1" />
    <path
       d="M 420.13539,196.18571 L 420.13539,219.80326"
       id="path3385"
       style="fill:none;fill-rule:evenodd;stroke:#000000;stroke-width:1;stroke-linecap:butt;stroke-linejoin:miter;stroke-miterlimit:4;stroke-dasharray:none;stroke-opacity:1" />
    <path
       d="M 429.29321,196.18571 L 429.29321,219.6426"
       id="path3387"
       style="fill:none;fill-rule:evenodd;stroke:#000000;stroke-width:1;stroke-linecap:butt;stroke-linejoin:miter;stroke-miterlimit:4;stroke-dasharray:none;stroke-opacity:1" />
    <path
       d="M 407.76429,195.38239 L 399.08845,186.0639 L 390.57328,195.54305 L 407.76429,195.38239 z"
       id="path3391"
       style="fill:#ffffff;fill-opacity:1;fill-rule:evenodd;stroke:#000000;stroke-width:1;stroke-linecap:butt;stroke-linejoin:miter;stroke-miterlimit:4;stroke-dasharray:none;stroke-opacity:1" />
    <path
       d="M 399.73111,186.0639 L 421.26003,186.22456 L 429.29321,196.18571 L 408.72827,196.18571 L 399.73111,186.0639 z"
       id="path3393"
       style="fill:#e55847;fill-opacity:1;fill-rule:evenodd;stroke:#000000;stroke-width:1;stroke-linecap:butt;stroke-linejoin:miter;stroke-miterlimit:4;stroke-dasharray:none;stroke-opacity:1" />
    <rect
       width="4.8199086"
       height="9.6398172"
       ry="1.2853091"
       x="397.64249"
       y="210.48477"
       id="rect3395"
       style="opacity:1;fill:none;fill-opacity:1;fill-rule:nonzero;stroke:#000000;stroke-width:1;stroke-linecap:butt;stroke-linejoin:miter;marker:none;marker-start:none;marker-mid:none;marker-end:none;stroke-miterlimit:4;stroke-dasharray:none;stroke-dashoffset:0;stroke-opacity:1;visibility:visible;display:inline;overflow:visible;enable-background:accumulate" />
    <rect
       width="4.0916495"
       height="9.7148762"
       ry="1.2953169"
       x="380.09262"
       y="210.92923"
       id="rect3397"
       style="opacity:1;fill:none;fill-opacity:1;fill-rule:nonzero;stroke:#000000;stroke-width:1;stroke-linecap:butt;stroke-linejoin:miter;marker:none;marker-start:none;marker-mid:none;marker-end:none;stroke-miterlimit:4;stroke-dasharray:none;stroke-dashoffset:0;stroke-opacity:1;visibility:visible;display:inline;overflow:visible;enable-background:accumulate" />
    <rect
       width="3.5345998"
       height="6.4265451"
       ry="0"
       x="437.32639"
       y="213.05539"
       id="rect3399"
       style="opacity:1;fill:none;fill-opacity:1;fill-rule:nonzero;stroke:#000000;stroke-width:1;stroke-linecap:butt;stroke-linejoin:miter;marker:none;marker-start:none;marker-mid:none;marker-end:none;stroke-miterlimit:4;stroke-dasharray:none;stroke-dashoffset:0;stroke-opacity:1;visibility:visible;display:inline;overflow:visible;enable-background:accumulate" />
    <rect
       width="2.5706182"
       height="3.855927"
       x="423.66998"
       y="199.39899"
       id="rect3401"
       style="opacity:1;fill:none;fill-opacity:1;fill-rule:nonzero;stroke:#000000;stroke-width:1;stroke-linecap:butt;stroke-linejoin:miter;marker:none;marker-start:none;marker-mid:none;marker-end:none;stroke-miterlimit:4;stroke-dasharray:none;stroke-dashoffset:0;stroke-opacity:1;visibility:visible;display:inline;overflow:visible;enable-background:accumulate" />
    <rect
       width="3.3739362"
       height="3.052609"
       x="423.02734"
       y="205.66486"
       id="rect3403"
       style="opacity:1;fill:none;fill-opacity:1;fill-rule:nonzero;stroke:#000000;stroke-width:1;stroke-linecap:butt;stroke-linejoin:miter;marker:none;marker-start:none;marker-mid:none;marker-end:none;stroke-miterlimit:4;stroke-dasharray:none;stroke-dashoffset:0;stroke-opacity:1;visibility:visible;display:inline;overflow:visible;enable-background:accumulate" />
    <rect
       width="2.7312818"
       height="3.5345998"
       x="437.80838"
       y="199.88097"
       id="rect3405"
       style="opacity:1;fill:none;fill-opacity:1;fill-rule:nonzero;stroke:#000000;stroke-width:1;stroke-linecap:butt;stroke-linejoin:miter;marker:none;marker-start:none;marker-mid:none;marker-end:none;stroke-miterlimit:4;stroke-dasharray:none;stroke-dashoffset:0;stroke-opacity:1;visibility:visible;display:inline;overflow:visible;enable-background:accumulate" />
    <path
       d="M 383.34342,197.63168 A 1.3656409,1.2853091 0 1 1 380.61214,197.63168 A 1.3656409,1.2853091 0 1 1 383.34342,197.63168 z"
       transform="translate(57.035588,-1.7672999)"
       id="path3407"
       style="opacity:1;fill:none;fill-opacity:1;fill-rule:nonzero;stroke:#000000;stroke-width:1;stroke-linecap:butt;stroke-linejoin:miter;marker:none;marker-start:none;marker-mid:none;marker-end:none;stroke-miterlimit:4;stroke-dasharray:none;stroke-dashoffset:0;stroke-opacity:1;visibility:visible;display:inline;overflow:visible;enable-background:accumulate" />
    <rect
       width="2.2492907"
       height="3.5345998"
       x="451.46478"
       y="205.18288"
       id="rect3409"
       style="opacity:1;fill:none;fill-opacity:1;fill-rule:nonzero;stroke:#000000;stroke-width:1;stroke-linecap:butt;stroke-linejoin:miter;marker:none;marker-start:none;marker-mid:none;marker-end:none;stroke-miterlimit:4;stroke-dasharray:none;stroke-dashoffset:0;stroke-opacity:1;visibility:visible;display:inline;overflow:visible;enable-background:accumulate" />
    <rect
       width="3.4754364"
       height="3.8229802"
       x="302.53674"
       y="199.14252"
       id="rect3413"
       style="opacity:1;fill:none;fill-opacity:1;fill-rule:nonzero;stroke:#000000;stroke-width:1;stroke-linecap:butt;stroke-linejoin:miter;marker:none;marker-start:none;marker-mid:none;marker-end:none;stroke-miterlimit:4;stroke-dasharray:none;stroke-dashoffset:0;stroke-opacity:1;visibility:visible;display:inline;overflow:visible;enable-background:accumulate" />
    <rect
       width="2.6065774"
       height="4.5180674"
       x="303.23184"
       y="205.3983"
       id="rect3415"
       style="opacity:1;fill:none;fill-opacity:1;fill-rule:nonzero;stroke:#000000;stroke-width:1;stroke-linecap:butt;stroke-linejoin:miter;marker:none;marker-start:none;marker-mid:none;marker-end:none;stroke-miterlimit:4;stroke-dasharray:none;stroke-dashoffset:0;stroke-opacity:1;visibility:visible;display:inline;overflow:visible;enable-background:accumulate" />
    <rect
       width="2.0852618"
       height="3.3016648"
       x="315.39587"
       y="205.91962"
       id="rect3417"
       style="opacity:1;fill:none;fill-opacity:1;fill-rule:nonzero;stroke:#000000;stroke-width:1;stroke-linecap:butt;stroke-linejoin:miter;marker:none;marker-start:none;marker-mid:none;marker-end:none;stroke-miterlimit:4;stroke-dasharray:none;stroke-dashoffset:0;stroke-opacity:1;visibility:visible;display:inline;overflow:visible;enable-background:accumulate" />
    <rect
       width="2.0852618"
       height="3.127893"
       x="311.92044"
       y="206.44093"
       id="rect3419"
       style="opacity:1;fill:none;fill-opacity:1;fill-rule:nonzero;stroke:#000000;stroke-width:1;stroke-linecap:butt;stroke-linejoin:miter;marker:none;marker-start:none;marker-mid:none;marker-end:none;stroke-miterlimit:4;stroke-dasharray:none;stroke-dashoffset:0;stroke-opacity:1;visibility:visible;display:inline;overflow:visible;enable-background:accumulate" />
    <path
       d="M 420.96875,217.25 C 417.36906,217.34507 415.79737,218.4858 413.0625,219.34375 C 410.94815,217.86377 406.7823,218.49432 400.8125,219.15625 L 391.25,218.9375 C 388.45558,218.83325 385.49547,217.59174 383.09375,219.84375 L 376.71875,218.03125 C 373.29511,218.3989 368.73984,217.96087 368.09375,220.3125 C 366.26552,219.44409 365.07158,218.24673 360.8125,218.59375 C 354.86957,218.06875 352.11968,220.73301 348.09375,222.125 L 342.625,218.9375 C 337.81059,216.75946 330.89073,218.30227 324.46875,218.9375 C 315.71628,216.65493 315.05092,219.24289 310.375,219.40625 C 305.46965,219.30618 299.27141,217.64559 296.28125,219.84375 C 291.76247,219.52806 288.59389,218.55937 281.75,219.40625 L 274.9375,219.84375 C 269.60367,218.60512 264.74148,217.77106 264.46875,220.75 C 259.04848,218.23044 254.86883,219.39654 250.21875,219.1875 C 263.93286,275.65151 298.82611,318.26849 352.6875,347.4375 C 405.49676,316.71243 439.69881,276.26586 453.78125,218.71875 C 449.86526,218.53013 445.93619,218.35593 441.6875,218.5 C 437.55978,216.79576 434.08832,218.28845 430.34375,218.5 C 426.02791,217.5287 423.12857,217.19296 420.96875,217.25 z"
       id="path3285"
       style="fill:#996533;fill-opacity:1;fill-rule:evenodd;stroke:#000000;stroke-width:1;stroke-linecap:butt;stroke-linejoin:miter;stroke-miterlimit:4;stroke-dasharray:none;stroke-opacity:1" />
    <path
       d="M 268.62959,229.12175 C 267.78222,225.62741 267.34323,221.56131 264.45233,220.92791"
       id="path3305"
       style="fill:none;fill-rule:evenodd;stroke:#000000;stroke-width:1;stroke-linecap:butt;stroke-linejoin:miter;stroke-miterlimit:4;stroke-dasharray:none;stroke-opacity:1" />
    <path
       d="M 287.90036,223.36338 C 293.91138,225.9085 300.35531,232.51736 309.10731,244.31328 C 309.05251,246.08825 308.08752,247.63566 306.66529,249.06877 C 297.7782,231.85194 293.25565,232.31742 287.90036,223.36338 z"
       id="path3283"
       style="fill:#629736;fill-opacity:1;fill-rule:evenodd;stroke:#000000;stroke-width:1;stroke-linecap:butt;stroke-linejoin:miter;stroke-miterlimit:4;stroke-dasharray:none;stroke-opacity:1" />
    <path
       d="M 296.42439,220.28525 C 299.55311,220.83778 302.82934,223.60305 306.38554,230.56772"
       id="path3307"
       style="fill:none;fill-rule:evenodd;stroke:#000000;stroke-width:1;stroke-linecap:butt;stroke-linejoin:miter;stroke-miterlimit:4;stroke-dasharray:none;stroke-opacity:1" />
    <path
       d="M 263.97034,237.3156 C 268.71241,243.5226 281.54513,249.64831 289.35519,259.16585"
       id="path3301"
       style="fill:none;fill-rule:evenodd;stroke:#000000;stroke-width:1;stroke-linecap:butt;stroke-linejoin:miter;stroke-miterlimit:4;stroke-dasharray:none;stroke-opacity:1" />
    <path
       d="M 297.06705,242.77816 C 306.16047,252.28843 315.31328,262.2145 323.57655,265.91372"
       id="path3303"
       style="fill:none;fill-rule:evenodd;stroke:#000000;stroke-width:1;stroke-linecap:butt;stroke-linejoin:miter;stroke-miterlimit:4;stroke-dasharray:none;stroke-opacity:1" />
    <path
       d="M 309.11682,219.6426 C 312.6006,222.21322 316.99867,224.78383 316.82867,227.35445"
       id="path3309"
       style="fill:none;fill-rule:evenodd;stroke:#000000;stroke-width:1;stroke-linecap:butt;stroke-linejoin:miter;stroke-miterlimit:4;stroke-dasharray:none;stroke-opacity:1" />
    <path
       d="M 325.34385,219.16061 C 329.56712,222.00804 333.51708,225.18346 335.62632,230.56772"
       id="path3311"
       style="fill:none;fill-rule:evenodd;stroke:#000000;stroke-width:1;stroke-linecap:butt;stroke-linejoin:miter;stroke-miterlimit:4;stroke-dasharray:none;stroke-opacity:1" />
    <path
       d="M 421.05427,221.43548 C 421.96386,221.98321 430.42675,225.66888 434.93518,229.27562 C 434.54271,232.28621 434.64914,235.69591 435.9634,240.07189 C 430.78902,234.17297 421.79761,229.80086 421.1828,222.07811"
       id="path3281"
       style="fill:#629736;fill-opacity:1;fill-rule:evenodd;stroke:#000000;stroke-width:1;stroke-linecap:butt;stroke-linejoin:miter;stroke-miterlimit:4;stroke-dasharray:none;stroke-opacity:1" />
    <path
       d="M 409.21026,227.35445 C 405.29881,224.43218 399.23738,221.81706 392.34058,219.32127"
       id="path3287"
       style="fill:none;fill-rule:evenodd;stroke:#000000;stroke-width:1;stroke-linecap:butt;stroke-linejoin:miter;stroke-miterlimit:4;stroke-dasharray:none;stroke-opacity:1" />
    <path
       d="M 392.17992,230.56772 C 390.35935,227.03312 389.57847,223.49853 382.86143,219.96393 L 382.70076,220.28525"
       id="path3289"
       style="fill:none;fill-rule:evenodd;stroke:#000000;stroke-width:1;stroke-linecap:butt;stroke-linejoin:miter;stroke-miterlimit:4;stroke-dasharray:none;stroke-opacity:1" />
    <path
       d="M 367.75905,220.12459 C 377.01475,224.63471 382.86316,233.40395 390.41262,240.04688"
       id="path3291"
       style="fill:none;fill-rule:evenodd;stroke:#000000;stroke-width:1;stroke-linecap:butt;stroke-linejoin:miter;stroke-miterlimit:4;stroke-dasharray:none;stroke-opacity:1" />
    <path
       d="M 348.15808,222.85587 C 359.49308,231.21038 365.19106,239.56489 373.06094,247.9194 C 373.5653,244.17058 374.41182,240.42176 373.7036,236.67294 C 366.81563,231.30266 361.61399,225.59512 352.81733,220.60658 C 350.5978,219.69022 349.60311,221.83597 348.15808,222.85587 z"
       id="path3293"
       style="fill:#629736;fill-opacity:1;fill-rule:evenodd;stroke:#000000;stroke-width:1;stroke-linecap:butt;stroke-linejoin:miter;stroke-miterlimit:4;stroke-dasharray:none;stroke-opacity:1" />
    <path
       d="M 408.88893,250.32935 C 416.84887,254.93504 423.36823,259.54073 428.32923,264.14642"
       id="path3295"
       style="fill:none;fill-rule:evenodd;stroke:#000000;stroke-width:1;stroke-linecap:butt;stroke-linejoin:miter;stroke-miterlimit:4;stroke-dasharray:none;stroke-opacity:1" />
    <path
       d="M 397.48182,253.38196 C 401.51886,257.04655 406.03775,259.98836 411.78088,261.09381"
       id="path3297"
       style="fill:none;fill-rule:evenodd;stroke:#000000;stroke-width:1;stroke-linecap:butt;stroke-linejoin:miter;stroke-miterlimit:4;stroke-dasharray:none;stroke-opacity:1" />
    <path
       d="M 401.01642,261.57581 C 395.39382,259.27265 391.30164,256.20428 382.5401,255.47059"
       id="path3299"
       style="fill:none;fill-rule:evenodd;stroke:#000000;stroke-width:1;stroke-linecap:butt;stroke-linejoin:miter;stroke-miterlimit:4;stroke-dasharray:none;stroke-opacity:1" />
    <path
       d="M 320.67473,239.42925 C 329.02743,243.23448 336.65971,243.43756 346.25159,253.43869 C 351.5461,258.38213 360.07824,261.30204 367.97265,264.62053 C 359.97093,264.06799 352.86255,265.4808 341.62462,257.80861 C 331.91331,246.03126 325.6082,241.30964 320.67473,239.42925 z"
       id="path3279"
       style="fill:#629736;fill-opacity:1;fill-rule:evenodd;stroke:#000000;stroke-width:1;stroke-linecap:butt;stroke-linejoin:miter;stroke-miterlimit:4;stroke-dasharray:none;stroke-opacity:1" />
    <path
       d="M 288.05522,223.72854 L 282.24495,219.48257"
       id="path3435"
       style="fill:none;fill-rule:evenodd;stroke:#000000;stroke-width:1px;stroke-linecap:butt;stroke-linejoin:miter;stroke-opacity:1" />
    <g
       transform="translate(97.530992,-2.19314)"
       id="g3443"
       style="stroke-width:1;stroke-miterlimit:4;stroke-dasharray:none">
      <path
         d="M 301.72629,187.8312 L 301.72629,182.5293"
         id="path3445"
         style="fill:none;fill-rule:evenodd;stroke:#000000;stroke-width:1;stroke-linecap:butt;stroke-linejoin:miter;stroke-miterlimit:4;stroke-dasharray:none;stroke-opacity:1" />
      <path
         d="M 299.15568,185.26058 L 304.45758,185.26058"
         id="path3447"
         style="fill:none;fill-rule:evenodd;stroke:#000000;stroke-width:1;stroke-linecap:butt;stroke-linejoin:miter;stroke-miterlimit:4;stroke-dasharray:none;stroke-opacity:1" />
    </g>
    <path
       d="M 318.8125,325.375 C 329.10321,333.43532 340.39761,340.78183 352.6875,347.4375 C 358.27249,344.18809 363.64491,340.81963 368.8125,337.34375 C 364.50324,336.05534 359.22885,336.88039 354,337.5625 C 350.39764,334.28515 346.14123,331.39761 341.28125,328.90625 C 333.68689,326.74379 326.26107,326.22515 318.8125,325.375 z"
       id="path3261"
       style="fill:#629736;fill-opacity:1;fill-rule:evenodd;stroke:#000000;stroke-width:1;stroke-linecap:butt;stroke-linejoin:miter;stroke-miterlimit:4;stroke-dasharray:none;stroke-opacity:1" />
    <path
       d="M 360.2015,333.78673 C 353.22542,330.84832 346.24934,328.78339 339.27326,326.71239 L 338.38897,322.88046 L 341.63137,326.18182 L 341.74927,319.99178 L 344.99168,325.7102 L 346.28864,317.45681 L 349.29523,325.41543 L 350.88696,314.68603 L 354.12936,321.70141 L 358.66872,315.92404 L 354.71889,327.8325 L 363.03123,319.75597 L 357.84338,329.77794 L 363.97447,330.78014 L 360.2015,333.78673 z"
       id="path3263"
       style="fill:#629736;fill-opacity:1;fill-rule:evenodd;stroke:#000000;stroke-width:1;stroke-linecap:butt;stroke-linejoin:miter;stroke-miterlimit:4;stroke-dasharray:none;stroke-opacity:1" />
    <path
       d="M 326.48406,320.69106 C 321.87914,321.11907 319.01544,318.06464 316.14595,315.02178 C 320.31078,311.46458 319.5618,307.90739 320.48129,304.35019 L 321.81524,310.68644 L 325.15011,306.01762 L 323.48267,313.02086 L 328.81847,311.35342 L 326.48406,315.68875 L 331.15288,314.68829 C 328.56134,315.65395 327.30815,317.95795 326.48406,320.69106 z"
       id="path3265"
       style="fill:#629736;fill-opacity:1;fill-rule:evenodd;stroke:#000000;stroke-width:1;stroke-linecap:butt;stroke-linejoin:miter;stroke-miterlimit:4;stroke-dasharray:none;stroke-opacity:1" />
    <path
       d="M 301.47251,298.34741 L 311.47713,296.67998 C 312.39785,288.45185 315.55075,281.06078 309.80969,270.33448 L 300.80554,270.66797 L 301.47251,298.34741 z"
       id="path3269"
       style="fill:#3f86fc;fill-opacity:1;fill-rule:evenodd;stroke:#000000;stroke-width:1;stroke-linecap:butt;stroke-linejoin:miter;stroke-miterlimit:4;stroke-dasharray:none;stroke-opacity:1" />
    <path
       d="M 258.78614,260.32986 C 272.35259,262.65038 286.08675,264.46774 298.80461,269.33402 C 304.28289,269.36043 305.77413,274.86903 304.14041,284.67444 C 303.90008,290.78837 302.58904,296.90231 298.80461,303.01624 L 287.79953,302.68275 L 258.78614,260.32986 z"
       id="path3267"
       style="fill:#3f86fc;fill-opacity:1;fill-rule:evenodd;stroke:#000000;stroke-width:1;stroke-linecap:butt;stroke-linejoin:miter;stroke-miterlimit:4;stroke-dasharray:none;stroke-opacity:1" />
    <path
       d="M 442.77844,265.32168 C 418.53915,262.41144 406.40141,265.55197 395.51966,269.3205 L 393.33848,294.76754 L 415.15023,303.85577 L 442.77844,265.32168 z"
       id="path3273"
       style="fill:#cc30fb;fill-opacity:1;fill-rule:evenodd;stroke:#000000;stroke-width:1;stroke-linecap:butt;stroke-linejoin:miter;stroke-miterlimit:4;stroke-dasharray:none;stroke-opacity:1" />
    <path
       d="M 332.11363,294.69584 C 336.2374,301.28637 344.98522,305.87095 360.00397,303.94978"
       id="path3277"
       style="fill:#cc30fb;fill-opacity:1;fill-rule:evenodd;stroke:#000000;stroke-width:1;stroke-linecap:butt;stroke-linejoin:miter;stroke-miterlimit:4;stroke-dasharray:none;stroke-opacity:1" />
    <path
       d="M 311.47713,274.00284 C 319.52821,270.71535 327.00022,266.8488 336.15519,264.6652 C 348.71654,263.56409 361.2779,259.15561 373.83925,262.99776 C 373.44364,265.17297 374.57242,267.39052 365.83556,269.33402 L 341.1575,277.6712 L 353.83002,274.00284 L 359.83279,276.00377 L 391.18059,296.34649 C 390.0689,297.39371 391.44272,300.14154 386.17828,298.34741 C 373.80369,293.17774 361.66293,287.59691 350.49514,281.67305 C 361.67277,286.98913 373.71289,293.54365 385.8448,298.6809 C 386.7051,299.72969 386.25043,300.44974 385.17782,301.01531 L 376.50715,301.01531 C 367.12792,297.08809 359.48269,292.76599 351.49561,290.34372 C 355.12801,292.37497 359.24154,294.04537 363.84335,295.34956 L 376.17367,300.34834 L 381.17598,300.68183 C 381.47425,302.14051 381.37094,303.33148 379.50854,303.34972 L 370.17089,302.68275 L 337.48914,291.34418 L 370.50438,303.34972 C 370.45174,304.402 371.40803,305.52636 368.16997,306.35111 C 361.7238,305.28802 353.95585,303.2808 345.82632,301.01531 C 339.26774,298.80446 332.70915,295.54453 326.15057,292.67813 L 319.48083,292.01116 L 312.47759,294.34557 L 311.47713,274.00284 z"
       id="path3271"
       style="fill:#fec5cb;fill-opacity:1;fill-rule:evenodd;stroke:#000000;stroke-width:1;stroke-linecap:butt;stroke-linejoin:miter;stroke-miterlimit:4;stroke-dasharray:none;stroke-opacity:1" />
    <path
       d="M 334.81269,271.17541 C 337.62411,270.9597 338.74298,271.22758 343.68105,270.40425 C 347.79083,267.87463 351.35387,265.00329 358.07607,264.10643 C 364.46359,265.26157 369.98221,266.76426 374.65604,268.60487 L 386.09494,272.71773 C 390.73574,272.13834 394.24971,269.02358 397.53384,265.3917 C 398.0017,267.38217 397.11728,268.69649 396.24857,270.01867 C 398.10853,271.00704 399.73948,270.85041 401.90376,273.36037 C 400.35608,275.81308 398.373,275.65341 396.50563,276.18796 C 398.73343,277.64508 400.96123,278.41831 403.18903,281.45756 C 401.68285,281.8003 399.29611,282.14304 395.73447,282.48578 C 398.76096,283.61906 401.66668,284.79261 402.67492,286.59864 C 400.60223,288.3064 397.67899,287.46251 394.9633,287.24128 L 403.18903,291.61119 L 395.09183,292.38235 L 401.77523,296.8808 C 398.3692,298.35841 394.58561,297.19304 390.85044,296.36669 C 379.6686,289.74167 368.48675,283.81292 357.30491,274.26005 L 350.49298,273.87447 C 348.565,275.20688 349.25659,276.27732 340.98199,278.24439 C 336.92069,277.4474 335.86238,274.31476 334.81269,271.17541 z"
       id="path3275"
       style="fill:#cc30fb;fill-opacity:1;fill-rule:evenodd;stroke:#000000;stroke-width:1;stroke-linecap:butt;stroke-linejoin:miter;stroke-miterlimit:4;stroke-dasharray:none;stroke-opacity:1" />
    <path
       d="M 231.15625,100.15625 L 231.15625,181.96875 C 235.09695,263.28288 277.91297,324.20791 352.9375,362.03125 C 424.51423,323.19022 466.81114,266.89912 473.375,181.96875 L 473.375,100.15625 L 231.15625,100.15625 z M 244.6875,111.9375 L 459.5,111.9375 L 459.5,185.5 C 451.58912,261.18334 415.11976,311.11365 352.6875,347.4375 C 288.59076,312.72547 251.31692,258.97607 244.6875,185.5 L 244.6875,111.9375 z"
       id="path2622"
       style="fill:#fdcd00;fill-opacity:1;fill-rule:evenodd;stroke:#000000;stroke-width:1;stroke-linecap:butt;stroke-linejoin:miter;stroke-miterlimit:4;stroke-dasharray:none;stroke-opacity:1" />
    <path
       d="M 381.28587,302.4082 C 387.25788,303.31137 392.11625,306.4418 396.88602,309.74944"
       id="path3449"
       style="fill:none;fill-rule:evenodd;stroke:#000000;stroke-width:1px;stroke-linecap:butt;stroke-linejoin:miter;stroke-opacity:1" />
    <path
       d="M 325.5383,320.76131 C 328.64038,323.93138 336.62736,321.72338 337.69724,324.66135"
       id="path3451"
       style="fill:none;fill-rule:evenodd;stroke:#000000;stroke-width:1px;stroke-linecap:butt;stroke-linejoin:miter;stroke-opacity:1" />
  </g>
</svg>
