<svg xmlns="http://www.w3.org/2000/svg" version="1.0" width="613.243" height="735.136"><g transform="translate(31.62147,-244.98512) translate(-5.235051e-5)"><g transform="translate(430.98436,-479.46014)"><path d="m 33.911427,811.98627 c 2.1863,-4.7552 7.8086,-6.8359 12.5639,-4.6495 4.7508,2.1843 6.8315,7.8067 4.6452,12.5619 -2.1854,4.7531 -7.8076,6.8337 -12.5586,4.6494 -4.7552,-2.1864 -6.836,-7.8086 -4.6505,-12.5618 z" fill="#e3e4e5" stroke="#010101"/><path d="m -155.15896,769.16481 c -56.61261,0.56447 -113.87581,0.61709 -169.47501,11.94058 -12.4075,3.73883 -30.1461,5.82662 -34.8036,19.0699 -1.5279,11.06141 12.5006,15.74938 21.2634,18.78935 41.7444,11.96344 85.853,12.97626 129.1053,14.8465 67.29051,1.28869 135.01471,1.81183 201.80631,-7.1218 18.2471,-3.36522 38.3394,-5.44219 53.3445,-16.77983 8.9596,-8.3789 -0.9579,-20.0949 -10.8624,-22.50474 -33.9772,-12.44682 -71.0359,-13.78245 -106.9719,-16.31661 -27.7733,-1.44701 -55.5949,-1.90497 -83.4066,-1.92335 z" fill="#eac102" fill-rule="evenodd" stroke="#000"/><path d="m -154.98436,782.76205 c -30.85712,0 -56.87992,0.5738 -78.81249,1.57132 -4.38667,0.19951 -8.62137,0.42171 -12.6875,0.65225 -48.77128,2.76678 -74.92265,7.65796 -88.9375,12.12586 -1.16805,0.37241 -2.27567,0.73194 -3.28125,1.09696 -5.01152,1.8212 -8.09361,3.5648 -9.96875,4.9808 -0.36877,0.27856 -0.68636,0.54611 -0.96875,0.80048 -0.29289,0.26383 -0.53742,0.50645 -0.75,0.74119 -1.25317,1.38323 -1.21876,2.22357 -1.21875,2.22357 l 10.65625,36.73337 h 34.84375 302.24999 34.8438 l 10.6562,-36.73337 c 0,0 0.0344,-0.84034 -1.2188,-2.22357 -0.2125,-0.23474 -0.4571,-0.47736 -0.75,-0.74119 -1.7146,-1.54923 -4.9217,-3.59514 -10.9374,-5.78128 -0.0086,-0.003 -0.0228,0.003 -0.0313,0 -13.0714,-4.74427 -39.351,-10.22543 -92.1875,-13.22282 -0.01,-5.7e-4 -0.0213,5.7e-4 -0.0312,0 -4.0661,-0.23054 -8.2698,-0.45274 -12.6563,-0.65225 -21.9333,-0.99753 -47.9536,-1.57132 -78.8125,-1.57132 z" fill="#eac102" fill-rule="evenodd" stroke="#000"/><path d="m 1796.3478,707.07074 a 23.0657,23.0657 0 1 1 -46.1314,0 23.0657,23.0657 0 1 1 46.1314,0 z" transform="matrix(0.5526395,0,0,0.5685945,-1059.5823,398.75738)" style="marker:none" overflow="visible" fill="#eac102" fill-rule="evenodd" stroke="#000" stroke-width="1.784" stroke-linecap="round" stroke-linejoin="round"/><path d="m 1796.3478,707.07074 a 23.0657,23.0657 0 1 1 -46.1314,0 23.0657,23.0657 0 1 1 46.1314,0 z" transform="matrix(0.5401856,0,0,0.5685945,-1036.1337,398.75738)" style="marker:none" overflow="visible" fill="#eac102" fill-rule="evenodd" stroke="#000" stroke-width="1.804" stroke-linecap="round" stroke-linejoin="round"/><path d="m 1796.3478,707.07074 a 23.0657,23.0657 0 1 1 -46.1314,0 23.0657,23.0657 0 1 1 46.1314,0 z" transform="matrix(0.4779164,0,0,0.4918098,-925.42551,453.04956)" style="marker:none" overflow="visible" fill="#e3e4e5" fill-rule="evenodd" stroke="#000" stroke-width="2.063" stroke-linecap="round" stroke-linejoin="round"/><path d="m 1796.3478,707.07074 a 23.0657,23.0657 0 1 1 -46.1314,0 23.0657,23.0657 0 1 1 46.1314,0 z" transform="matrix(-0.5526395,0,0,0.5685945,749.61341,398.75738)" style="marker:none" overflow="visible" fill="#eac102" fill-rule="evenodd" stroke="#000" stroke-width="1.784" stroke-linecap="round" stroke-linejoin="round"/><path d="m 1796.3478,707.07074 a 23.0657,23.0657 0 1 1 -46.1314,0 23.0657,23.0657 0 1 1 46.1314,0 z" transform="matrix(-0.5401856,0,0,0.5685945,726.16481,398.75738)" style="marker:none" overflow="visible" fill="#eac102" fill-rule="evenodd" stroke="#000" stroke-width="1.804" stroke-linecap="round" stroke-linejoin="round"/><path d="m 1796.3478,707.07074 a 23.0657,23.0657 0 1 1 -46.1314,0 23.0657,23.0657 0 1 1 46.1314,0 z" transform="matrix(-0.4779164,0,0,0.4918098,615.45661,453.04956)" style="marker:none" overflow="visible" fill="#e3e4e5" fill-rule="evenodd" stroke="#000" stroke-width="2.063" stroke-linecap="round" stroke-linejoin="round"/><path d="m -270.5138,802.24799 -20.41562,-9.84209 -1.30779,0.23765 19.47118,10.01371 z" fill="none" stroke="#000" stroke-linecap="round" stroke-linejoin="round"/><path d="m -270.5138,802.24799 -20.41562,17.26181 -1.30779,0.23764 19.47118,-17.09018 z" fill="none" stroke="#000" stroke-linecap="round" stroke-linejoin="round"/><path d="m -292.26702,819.70619 -18.33504,-9.82602 18.29339,-17.15415" style="marker:none" overflow="visible" fill="none" stroke="#000" stroke-linecap="round" stroke-linejoin="round"/><path d="m -277.8267,803.71585 -14.64903,13.15604 -14.43461,-7.94056 14.50607,-12.92157 z" fill="#008f4c" fill-rule="evenodd" stroke="#000" stroke-linecap="round" stroke-linejoin="round"/><path d="m -287.67752,805.53879 -7.74896,6.93499 -7.63553,-4.17597 7.67333,-6.81144 z" fill="none" stroke="#000" stroke-width=".6" stroke-linecap="round" stroke-linejoin="round"/><path d="m -292.40427,816.78941 -3.03708,-4.31306" fill="none" stroke="#000" stroke-width=".6" stroke-linecap="round" stroke-linejoin="round"/><path d="m -306.696,808.89239 3.66247,-0.6133" fill="none" stroke="#000" stroke-width=".6" stroke-linecap="round" stroke-linejoin="round"/><path d="m -287.68801,805.50782 9.57547,-1.74003" fill="none" stroke="#000" stroke-width=".6" stroke-linecap="round" stroke-linejoin="round"/><path d="m -295.42328,801.54505 3.01901,-5.53529" fill="none" stroke="#000" stroke-width=".6" stroke-linecap="round" stroke-linejoin="round"/><path d="m -39.4554,802.24799 20.41562,-9.84209 1.30779,0.23765 -19.47118,10.01371 z" fill="none" stroke="#000" stroke-linecap="round" stroke-linejoin="round"/><path d="m -39.4554,802.24799 20.41562,17.26181 1.30779,0.23764 -19.47118,-17.09018 z" fill="none" stroke="#000" stroke-linecap="round" stroke-linejoin="round"/><path d="M -17.70218,819.70619 0.63286,809.88017 -17.66053,792.72602" style="marker:none" overflow="visible" fill="none" stroke="#000" stroke-linecap="round" stroke-linejoin="round"/><path d="m -32.1425,803.71585 14.64903,13.15604 14.43461,-7.94056 -14.50607,-12.92157 z" fill="#008f4c" fill-rule="evenodd" stroke="#000" stroke-linecap="round" stroke-linejoin="round"/><path d="m -22.29168,805.53879 7.74896,6.93499 7.63553,-4.17597 -7.67333,-6.81144 z" fill="none" stroke="#000" stroke-width=".5" stroke-linecap="round" stroke-linejoin="round"/><path d="m -17.56493,816.78941 3.03708,-4.31306" fill="none" stroke="#000" stroke-width=".5" stroke-linecap="round" stroke-linejoin="round"/><path d="m -3.2732,808.89239 -3.66247,-0.6133" fill="none" stroke="#000" stroke-width=".5" stroke-linecap="round" stroke-linejoin="round"/><path d="m -22.28119,805.50782 -9.57547,-1.74003" fill="none" stroke="#000" stroke-width=".5" stroke-linecap="round" stroke-linejoin="round"/><path d="m -14.54592,801.54505 -3.01901,-5.53529" fill="none" stroke="#000" stroke-width=".5" stroke-linecap="round" stroke-linejoin="round"/><rect width="52.713" height="26.65" rx="13.479" ry="13.325" x="-181.341" y="785.957" style="marker:none" overflow="visible" fill="#eac102" stroke="#000"/><rect width="47.431" height="23.013" rx="12.129" ry="11.507" x="-178.7" y="787.776" style="marker:none" overflow="visible" fill="#ed1c24" stroke="#000"/><path d="m -341.59526,837.04565 c -0.0992,0.0337 -0.1798,0.0984 -0.28087,0.12895 -5.72081,1.73159 -12.18124,-2.29636 -14.43201,-8.98955 -2.25082,-6.69317 0.55713,-13.52649 6.2779,-15.25807 0.10106,-0.0306 0.2062,-0.0222 0.30768,-0.0492 z" style="marker:none" overflow="visible" fill="#ed1c24" stroke="#000"/><path d="m -349.21345,810.31296 -3.11644,0.94329 9.51734,28.30138 3.11644,-0.94329 c -2.57267,-11.26199 -5.88715,-21.71151 -9.51734,-28.30138 z" style="marker:none" overflow="visible" fill="#eac102" stroke="#000"/><path d="m -332.34589,799.94588 c 2.94594,0.0624 6.73261,5.39966 8.74534,12.52628 2.01264,7.12609 1.54209,13.53099 -0.97585,14.98304 l -0.10604,0.0558 c -0.14987,0.0765 -0.30418,0.13511 -0.46785,0.17672 l -4.93261,1.24306 -2.23548,-7.91515 c -0.84249,-1.70925 -1.59509,-3.65299 -2.19302,-5.76988 -0.59788,-2.1169 -0.97427,-4.17072 -1.14547,-6.05063 l -2.21441,-7.84055 z" style="marker:none" overflow="visible" fill="#eac102" fill-rule="evenodd" stroke="#000" stroke-linecap="round" stroke-linejoin="round"/><path d="m 2048.3786,702.48627 a 6.0690784,32.088638 0 1 1 -12.1381,0 6.0690784,32.088638 0 1 1 12.1381,0 z" transform="matrix(-0.8995649,0.2286779,0.1210959,0.4287623,1418.3935,46.897205)" style="marker:none" overflow="visible" fill="#eac102" fill-rule="evenodd" stroke="#000" stroke-width="1.555" stroke-linecap="round" stroke-linejoin="round"/><path d="m -337.70078,803.06697 c -10.48699,6.26273 -4.66007,24.14277 7.06271,25.00679 7.00839,-3.3866 -0.63591,-26.52019 -7.06271,-25.00679 z" style="marker:none" overflow="visible" fill="#e3e4e5" fill-rule="evenodd" stroke="#000" stroke-linecap="round" stroke-linejoin="round"/><path d="m 31.62628,837.04565 c 0.09922,0.0337 0.1798,0.0984 0.280867,0.12895 5.720813,1.73159 12.181244,-2.29636 14.432015,-8.98955 2.250815,-6.69317 -0.55713,-13.52649 -6.277898,-15.25807 -0.101066,-0.0306 -0.206207,-0.0222 -0.307688,-0.0492 z" style="marker:none" overflow="visible" fill="#ed1c24" stroke="#000"/><path d="m 39.244469,810.31296 3.116437,0.94329 -9.517339,28.30138 -3.116437,-0.94329 c 2.57267,-11.26199 5.887153,-21.71151 9.517339,-28.30138 z" style="marker:none" overflow="visible" fill="#eac102" stroke="#000"/><path d="m 49.666502,812.66967 c -5.2333,-0.0689 -9.4162,-4.3635 -9.3473,-9.5968 0.0689,-5.2286 4.3635,-9.4115 9.5968,-9.3425 5.231,0.0689 9.4138,4.3634 9.3449,9.592 -0.069,5.2333 -4.3634,9.4163 -9.5944,9.3473 z" fill="#e3e4e5" stroke="#010101"/><path d="m 22.376909,799.94588 c -2.945939,0.0624 -6.732612,5.39966 -8.745343,12.52628 -2.012632,7.12609 -1.542082,13.53099 0.975849,14.98304 l 0.106041,0.0558 c 0.149871,0.0765 0.304189,0.13511 0.467852,0.17672 l 4.932611,1.24306 2.235484,-7.91515 c 0.84249,-1.70925 1.59509,-3.65299 2.193014,-5.76988 0.597879,-2.1169 0.974268,-4.17072 1.14547,-6.05063 l 2.214415,-7.84055 z" style="marker:none" overflow="visible" fill="#eac102" fill-rule="evenodd" stroke="#000" stroke-linecap="round" stroke-linejoin="round"/><path d="m 2048.3786,702.48627 a 6.0690784,32.088638 0 1 1 -12.1381,0 6.0690784,32.088638 0 1 1 12.1381,0 z" transform="matrix(0.8995649,0.2286779,-0.1210959,0.4287623,-1728.3625,46.897205)" style="marker:none" overflow="visible" fill="#eac102" fill-rule="evenodd" stroke="#000" stroke-width="1.555" stroke-linecap="round" stroke-linejoin="round"/><path d="m 27.731796,803.06697 c 10.486989,6.26273 4.660072,24.14277 -7.062703,25.00679 -7.008398,-3.3866 0.63591,-26.52019 7.062703,-25.00679 z" style="marker:none" overflow="visible" fill="#e3e4e5" fill-rule="evenodd" stroke="#000" stroke-linecap="round" stroke-linejoin="round"/><path d="m -156.74138,878.9593 c -5.23329,-0.069 -9.41618,-4.36354 -9.34724,-9.59683 0.0689,-5.22861 4.36344,-9.41143 9.59675,-9.34248 5.231,0.0688 9.41378,4.36342 9.34491,9.59203 -0.0689,5.23329 -4.36339,9.41623 -9.59442,9.34728 z" fill="#e3e4e5" stroke="#010101"/><path d="m -74.715108,877.39292 c -5.233292,-0.0689 -9.416181,-4.36353 -9.347242,-9.59682 0.06887,-5.22861 4.36344,-9.41143 9.596743,-9.34248 5.231009,0.0688 9.413784,4.36341 9.344913,9.59203 -0.06894,5.23329 -4.363394,9.41622 -9.594414,9.34727 z" fill="#e3e4e5" stroke="#010101"/><path d="m -252.334,876.71811 c -5.2333,-0.0689 -9.41619,-4.36353 -9.34725,-9.59682 0.0689,-5.22861 4.36344,-9.41143 9.59675,-9.34248 5.23101,0.0688 9.41378,4.36341 9.34491,9.59203 -0.0689,5.23329 -4.36339,9.41622 -9.59441,9.34727 z" fill="#e3e4e5" stroke="#010101"/><path d="m -332.11915,864.23586 c -5.23329,-0.0689 -9.41618,-4.36353 -9.34724,-9.59682 0.0689,-5.22861 4.36344,-9.41143 9.59674,-9.34248 5.23101,0.0688 9.41379,4.36341 9.34492,9.59203 -0.0689,5.23329 -4.3634,9.41622 -9.59442,9.34727 z" fill="#e3e4e5" stroke="#010101"/><path d="m -326.50935,845.30177 c 0,0 37.06156,-17.86783 171.52462,-17.86783 134.01755,0 171.52453,17.86783 171.52453,17.86783 0,0 -31.34738,17.86784 -171.52453,17.86784 -140.62294,0 -171.52462,-17.86784 -171.52462,-17.86784 z" fill="#eac102" fill-rule="evenodd" stroke="#000"/><path d="M -198.64228,866.02256 V 824.68193" font-size="12" fill="none" stroke="#000" stroke-width=".52"/><path d="M -206.5242,866.02256 V 824.68193" font-size="12" fill="none" stroke="#000" stroke-width=".766"/><path d="M -213.96465,866.02256 V 824.68193" font-size="12" fill="none" stroke="#000" stroke-width="1.026"/><path d="M -221.3406,866.02256 V 824.68193" font-size="12" fill="none" stroke="#000" stroke-width="1.286"/><path d="M -227.9129,866.02256 V 824.68193" font-size="12" fill="none" stroke="#000" stroke-width="1.546"/><path d="m -240.44748,863.79359 -0.17363,-37.6268 m 6.11601,38.12181 V 824.931" font-size="12" fill="none" stroke="#000" stroke-width="1.806"/><path d="m -252.0199,862.10168 v -34.66675 m 5.86312,35.65666 -0.17363,-36.89245" font-size="12" fill="none" stroke="#000" stroke-width="2.051"/><path d="m -267.54548,860.12186 v -30.45797 m 5.09412,30.95293 v -31.9429 m 5.24803,32.93281 v -33.18189" font-size="12" fill="none" stroke="#000" stroke-width="2.311"/><path d="M -272.98696,859.87278 V 830.40793" font-size="12" fill="none" stroke="#000" stroke-width="2.572"/><path d="M -278.06127,858.38785 V 830.90289" font-size="12" fill="none" stroke="#000" stroke-width="2.832"/><path d="M -283.50266,857.64376 V 832.13867" font-size="12" fill="none" stroke="#000" stroke-width="3.092"/><path d="m -294.64346,855.41806 -0.1737,-20.30632 m 5.88288,21.2963 v -22.78123" font-size="12" fill="none" stroke="#000" stroke-width="3.337"/><path d="M -300.35276,853.68404 V 835.8525" font-size="12" fill="none" stroke="#000" stroke-width="3.525"/><path d="M -305.58088,852.23802 V 837.38911" font-size="12" fill="none" stroke="#000" stroke-width="3.785"/><path d="M -311.29018,850.2582 V 838.62817" font-size="12" fill="none" stroke="#000" stroke-width="4.031"/><path d="m -317.15818,849.26829 v -8.66024" font-size="12" fill="none" stroke="#000" stroke-width="4.276"/><path d="m -323.3688,847.29035 v -4.20853" font-size="12" fill="none" stroke="#000" stroke-width="5.042"/><path d="m -167.28348,863.79359 v -37.87262 m -13.35298,39.11167 0.17354,-40.10164 m -9.90568,40.59659 v -40.84566" font-size="12" fill="none" stroke="#000" stroke-width=".26"/><path d="M -111.3271,866.02256 V 824.68193" font-size="12" fill="none" stroke="#000" stroke-width=".52"/><path d="M -103.44528,866.02256 V 824.68193" font-size="12" fill="none" stroke="#000" stroke-width=".766"/><path d="M -96.00483,866.02256 V 824.68193" font-size="12" fill="none" stroke="#000" stroke-width="1.026"/><path d="M -88.62888,866.02256 V 824.68193" font-size="12" fill="none" stroke="#000" stroke-width="1.286"/><path d="M -82.05658,866.02256 V 824.68193" font-size="12" fill="none" stroke="#000" stroke-width="1.546"/><path d="m -69.52191,863.79359 0.17363,-37.6268 m -6.1161,38.12181 V 824.931" font-size="12" fill="none" stroke="#000" stroke-width="1.806"/><path d="m -57.94958,862.10168 v -34.66675 m -5.86303,35.65666 0.17354,-36.89245" font-size="12" fill="none" stroke="#000" stroke-width="2.051"/><path d="m -42.4239,860.12186 v -30.45797 m -5.09422,30.95293 v -31.9429 m -5.24803,32.93281 v -33.18189" font-size="12" fill="none" stroke="#000" stroke-width="2.311"/><path d="M -36.98243,859.87278 V 830.40793" font-size="12" fill="none" stroke="#000" stroke-width="2.572"/><path d="M -31.90812,858.38785 V 830.90289" font-size="12" fill="none" stroke="#000" stroke-width="2.832"/><path d="M -26.46673,857.64376 V 832.13867" font-size="12" fill="none" stroke="#000" stroke-width="3.092"/><path d="m -15.32599,855.41806 0.17372,-20.30632 m -5.88293,21.2963 v -22.78123" font-size="12" fill="none" stroke="#000" stroke-width="3.337"/><path d="M -9.61669,853.68404 V 835.8525" font-size="12" fill="none" stroke="#000" stroke-width="3.525"/><path d="M -4.38857,852.23802 V 837.38911" font-size="12" fill="none" stroke="#000" stroke-width="3.785"/><path d="M 1.32073,850.2582 V 838.62817" font-size="12" fill="none" stroke="#000" stroke-width="4.031"/><path d="m 7.18873,849.26829 v -8.66024" font-size="12" fill="none" stroke="#000" stroke-width="4.276"/><path d="m 13.3993,847.29035 v -4.20853" font-size="12" fill="none" stroke="#000" stroke-width="5.042"/><path d="m -142.686,863.79359 v -37.87262 m 13.35307,39.11167 -0.17354,-40.10164 m 9.90559,40.59659 v -40.84566" font-size="12" fill="none" stroke="#000" stroke-width=".26"/><path d="m 11.496502,850.26797 c 2.1863,-4.7552 7.8086,-6.8359 12.5639,-4.6495 4.7508,2.1843 6.8315,7.8067 4.6452,12.5619 -2.1854,4.7531 -7.8076,6.8337 -12.5586,4.6494 -4.7552,-2.1864 -6.836,-7.8086 -4.6505,-12.5618 z" fill="#e3e4e5" stroke="#010101"/><path d="m -155.13818,815.16795 c -52.17482,0.52021 -104.94361,0.57554 -156.18456,11.01141 -11.435,3.44575 -27.79124,5.3639 -32.08365,17.56909 -1.40822,10.19432 11.50827,14.52148 19.58428,17.32316 38.47209,11.02566 79.1413,11.9655 119.00318,13.68913 62.0158,1.18767 124.40827,1.64837 185.96427,-6.58499 16.81677,-3.10144 35.33335,-5.01624 49.16225,-15.46516 8.25728,-7.72211 -0.86558,-18.51768 -9.99369,-20.73862 -31.31383,-11.47114 -65.46476,-12.69248 -98.58375,-15.02799 -25.59623,-1.33357 -51.23671,-1.75909 -76.86833,-1.77603 z m 0.14405,12.2683 c 134.01746,2e-5 171.53522,17.86964 171.53522,17.86964 -9e-5,-10e-6 -31.35816,17.86964 -171.53522,17.86964 -140.62303,0 -171.50647,-17.86964 -171.50647,-17.86964 0,-10e-6 37.04332,-17.86964 171.50647,-17.86964 z" fill="#eac102" fill-rule="evenodd" stroke="#000"/><path d="m -4.578098,839.19855 c -0.4011,0.5337 -0.8038,0.38083 -1.0938,1.01153 -2.1853,4.7531 -0.0991,10.3762 4.6563,12.5625 4.7509,2.1843 10.377,0.0968 12.5625,-4.6562 0.9127,-1.9853 0.9294,-2.52278 0.4687,-4.49708 -7.128572,-2.16395 -13.0278934,-3.94986 -16.5937,-4.42075 z" fill="#e3e4e5" stroke="#010101"/><path d="m 12.39527,866.01911 c -5.233292,-0.069 -9.416181,-4.36354 -9.347242,-9.59683 0.068871,-5.22861 4.36344,-9.41143 9.596743,-9.34248 5.231009,0.0688 9.413785,4.36342 9.344914,9.59203 -0.06894,5.23329 -4.363394,9.41623 -9.594415,9.34728 z" fill="#e3e4e5" stroke="#010101"/><path d="m 48.974802,799.39097 c -5.2333,-0.069 -9.4162,-4.3636 -9.3473,-9.5968 0.0689,-5.2287 4.3635,-9.4115 9.5968,-9.3425 5.231,0.0688 9.4137,4.3634 9.3449,9.592 -0.069,5.2333 -4.3634,9.4162 -9.5944,9.3473 z" fill="#e3e4e5" stroke="#010101"/><path d="m 63.015319,769.31548 c 0,12.39811 -10.05264,22.44791 -22.457219,22.44791 -12.406885,0 -22.461842,-10.0474 -22.461842,-22.44791 0,-12.39572 10.052651,-22.44541 22.461842,-22.44541 12.404579,0 22.457219,10.0474 22.457219,22.44541 z" fill="#e3e4e5" stroke="#010101"/><path d="m -330.06528,771.3153 c 0,12.39812 -10.05725,22.44792 -22.46183,22.44792 -12.40227,0 -22.45723,-10.04752 -22.45723,-22.44792 0,-12.39572 10.05266,-22.44551 22.45723,-22.44551 12.40458,0 22.46183,10.04751 22.46183,22.44551 z" fill="#e3e4e5" stroke="#010101"/><path d="m -205.35312,752.39272 c 0,12.39823 -10.05495,22.44792 -22.45722,22.44792 -12.40227,0 -22.46184,-10.0474 -22.46184,-22.44792 0,-12.39572 10.05726,-22.4454 22.46184,-22.4454 12.40227,0 22.45722,10.04968 22.45722,22.4454 z" fill="#e3e4e5" stroke="#010101"/><path d="m -59.696823,752.39295 c 0,12.39583 -10.052651,22.44792 -22.45723,22.44792 -12.402273,0 -22.457217,-10.04969 -22.457217,-22.44792 0,-12.398 10.054944,-22.44769 22.457217,-22.44769 12.404579,0.002 22.45723,10.05197 22.45723,22.44769 z" fill="#e3e4e5" stroke="#010101"/><path d="m -197.61802,762.82594 c 0,5.23375 -4.23907,9.47285 -9.47288,9.47285 -5.229,0 -9.46808,-4.2391 -9.46808,-9.47285 0,-5.23146 4.23908,-9.47045 9.46808,-9.47045 5.23381,0 9.47288,4.23899 9.47288,9.47045 z" fill="#e3e4e5" stroke="#010101"/><path d="m -184.24417,767.95869 c 0,5.23375 -4.23907,9.47285 -9.47288,9.47285 -5.229,0 -9.46808,-4.2391 -9.46808,-9.47285 0,-5.23146 4.23908,-9.47045 9.46808,-9.47045 5.23381,0 9.47288,4.23899 9.47288,9.47045 z" fill="#e3e4e5" stroke="#010101"/><path d="m -173.04513,779.15771 c 0,5.23374 -4.23908,9.47284 -9.47288,9.47284 -5.229,0 -9.46808,-4.2391 -9.46808,-9.47284 0,-5.23147 4.23908,-9.47046 9.46808,-9.47046 5.2338,0 9.47288,4.23899 9.47288,9.47046 z" fill="#e3e4e5" stroke="#010101"/><path d="m -164.62919,791.63996 c 0,5.23375 -4.23908,9.47285 -9.47288,9.47285 -5.229,0 -9.46808,-4.2391 -9.46808,-9.47285 0,-5.23147 4.23908,-9.47045 9.46808,-9.47045 5.2338,0 9.47288,4.23898 9.47288,9.47045 z" fill="#e3e4e5" stroke="#010101"/><path d="m -158.38806,805.90545 c 0,5.23375 -4.23908,9.47285 -9.47289,9.47285 -5.229,0 -9.46807,-4.2391 -9.46807,-9.47285 0,-5.23146 4.23907,-9.47045 9.46807,-9.47045 5.23381,0 9.47289,4.23899 9.47289,9.47045 z" fill="#e3e4e5" stroke="#010101"/><path d="m -153.93011,821.0624 c 0,5.23375 -4.23908,9.47285 -9.47289,9.47285 -5.229,0 -9.46807,-4.2391 -9.46807,-9.47285 0,-5.23147 4.23907,-9.47045 9.46807,-9.47045 5.23381,0 9.47289,4.23898 9.47289,9.47045 z" fill="#e3e4e5" stroke="#010101"/><path d="m -319.3137,777.99307 c 1.1831,5.0983 -1.9881,10.1858 -7.0864,11.3689 -5.0937,1.182 -10.1813,-1.9891 -11.3643,-7.0875 -1.1825,-5.096 1.9886,-10.1835 7.0823,-11.3655 5.0983,-1.1831 10.1859,1.988 11.3684,7.0841 z" fill="#e3e4e5" stroke="#010101"/><path d="m -304.6737,781.91817 c 1.1831,5.0983 -1.9881,10.1859 -7.0864,11.3689 -5.0937,1.182 -10.1813,-1.9892 -11.3643,-7.0874 -1.1825,-5.0961 1.9886,-10.1836 7.0823,-11.3656 5.0983,-1.183 10.1859,1.988 11.3684,7.0841 z" fill="#e3e4e5" stroke="#010101"/><path d="m -291.2331,790.29577 c 1.1831,5.0984 -1.988,10.1859 -7.0864,11.369 -5.0937,1.182 -10.1812,-1.9891 -11.3643,-7.0875 -1.1825,-5.0961 1.9887,-10.1835 7.0823,-11.3655 5.0984,-1.1831 10.1859,1.988 11.3684,7.084 z" fill="#e3e4e5" stroke="#010101"/><path d="m -279.3218,800.55267 c 1.183,5.0983 -1.9881,10.1859 -7.0865,11.3689 -5.0936,1.182 -10.1812,-1.9892 -11.3643,-7.0874 -1.1825,-5.0961 1.9887,-10.1836 7.0823,-11.3656 5.0984,-1.183 10.1859,1.988 11.3685,7.0841 z" fill="#e3e4e5" stroke="#010101"/><path d="m -269.8008,811.92967 c 1.183,5.0984 -1.9881,10.1859 -7.0865,11.369 -5.0936,1.182 -10.1812,-1.9892 -11.3643,-7.0875 -1.1825,-5.0961 1.9887,-10.1835 7.0823,-11.3655 5.0984,-1.1831 10.1859,1.988 11.3685,7.084 z" fill="#e3e4e5" stroke="#010101"/><path d="m -54.178068,765.28327 c -1.166867,5.10202 -6.244356,8.28931 -11.346426,7.12243 -5.097385,-1.16581 -8.284654,-6.24331 -7.117786,-11.34533 1.166359,-5.09979 6.243822,-8.28697 11.341207,-7.12116 5.10207,1.16688 8.289364,6.24427 7.123005,11.34406 z" fill="#e3e4e5" stroke="#010101"/><path d="m -42.73109,773.21819 c -1.166868,5.10202 -6.244357,8.28932 -11.346427,7.12243 -5.097384,-1.1658 -8.284653,-6.24331 -7.117786,-11.34532 1.166359,-5.09979 6.243822,-8.28698 11.341207,-7.12117 5.10207,1.16688 8.289364,6.24428 7.123006,11.34406 z" fill="#e3e4e5" stroke="#010101"/><path d="m -34.310762,786.63216 c -1.166868,5.10201 -6.244357,8.28931 -11.346427,7.12243 -5.097385,-1.16581 -8.284653,-6.24331 -7.117786,-11.34533 1.166359,-5.09979 6.243822,-8.28697 11.341207,-7.12116 5.10207,1.16688 8.289364,6.24427 7.123006,11.34406 z" fill="#e3e4e5" stroke="#010101"/><path d="m -28.88958,800.67657 c -1.166868,5.10201 -6.244357,8.28931 -11.346426,7.12243 -5.097385,-1.16581 -8.284654,-6.24331 -7.117786,-11.34533 1.166358,-5.09979 6.243822,-8.28697 11.341206,-7.12116 5.10207,1.16688 8.289364,6.24427 7.123006,11.34406 z" fill="#e3e4e5" stroke="#010101"/><path d="m -25.986046,815.97446 c -1.166868,5.10202 -6.244357,8.28931 -11.346426,7.12243 -5.097385,-1.16581 -8.284654,-6.24331 -7.117786,-11.34533 1.166358,-5.09978 6.243822,-8.28697 11.341206,-7.12116 5.10207,1.16688 8.289365,6.24427 7.123006,11.34406 z" fill="#e3e4e5" stroke="#010101"/><path d="m -25.019554,831.74381 c -1.166868,5.10201 -6.244357,8.28931 -11.346426,7.12243 -5.097385,-1.16581 -8.284654,-6.24332 -7.117786,-11.34533 1.166358,-5.09979 6.243822,-8.28697 11.341206,-7.12117 5.10207,1.16689 8.289364,6.24428 7.123006,11.34407 z" fill="#e3e4e5" stroke="#010101"/><path d="m -94.121498,868.74437 c -0.4496,-5.2144 3.4096,-9.802 8.6241,-10.2516 5.2096,-0.4492 9.7972,3.4101 10.2468,8.6245 0.4494,5.2121 -3.4098,9.7996 -8.6195,10.2488 -5.2144,0.4496 -9.802,-3.4095 -10.2514,-8.6217 z" fill="#e3e4e5" stroke="#010101"/><path d="m -106.0587,860.78697 c -0.4496,-5.2144 3.4096,-9.802 8.624102,-10.2516 5.2097,-0.4493 9.7972,3.41 10.2469,8.6244 0.4494,5.2121 -3.4099,9.7996 -8.6195,10.2488 -5.214502,0.4497 -9.802102,-3.4095 -10.251502,-8.6216 z" fill="#e3e4e5" stroke="#010101"/><path d="m -118.1784,850.59147 c -0.4496,-5.2144 3.4096,-9.802 8.6241,-10.2517 5.2096,-0.4492 9.797202,3.4101 10.246802,8.6245 0.4495,5.2121 -3.409802,9.7996 -8.619502,10.2488 -5.2144,0.4496 -9.802,-3.4095 -10.2514,-8.6216 z" fill="#e3e4e5" stroke="#010101"/><path d="m -127.6356,838.87827 c -0.4496,-5.2144 3.4097,-9.802 8.6241,-10.2516 5.2097,-0.4492 9.7973,3.4101 10.2469,8.6245 0.4494,5.2121 -3.4098,9.7996 -8.6195,10.2488 -5.2145,0.4496 -9.802,-3.4095 -10.2515,-8.6217 z" fill="#e3e4e5" stroke="#010101"/><path d="m -136.46814,827.96615 c 1.5909,3.83221 5.4318,6.36579 9.75269,5.83232 3.49498,-0.43149 6.17652,-2.77713 7.44732,-5.80938 -5.58809,-0.0708 -11.32002,-0.0801 -17.20001,-0.0229 z" fill="#e3e4e5" stroke="#010101"/><path d="m -291.9219,836.73704 c -1.4023,1.8137 -2.2126,4.0966 -2,6.5625 0.4494,5.2121 5.0355,9.0744 10.25,8.625 5.2097,-0.4492 9.0745,-5.038 8.625,-10.25 -0.2632,-3.0523 -2.0429,-5.5008 -4.4375,-7.0313 -4.16794,0.56515 -8.30134,1.33714 -12.4375,2.0938 z" fill="#e3e4e5" stroke="#010101"/><path d="m -263.8153,826.57827 c 1.183,5.0983 -1.9881,10.1859 -7.0865,11.3689 -5.0936,1.182 -10.1812,-1.9892 -11.3642,-7.0874 -1.1826,-5.0961 1.9886,-10.1836 7.0823,-11.3656 5.0983,-1.183 10.1858,1.9881 11.3684,7.0841 z" fill="#e3e4e5" stroke="#010101"/><path d="m -176.7592,870.18157 c -0.4496,-5.2144 3.4096,-9.802 8.6241,-10.2516 5.2096,-0.4492 9.7972,3.4101 10.2468,8.6245 0.4494,5.2121 -3.4098,9.7996 -8.6195,10.2488 -5.2144,0.4496 -9.802,-3.4095 -10.2514,-8.6217 z" fill="#e3e4e5" stroke="#010101"/><path d="m -188.6964,862.22417 c -0.4496,-5.2144 3.4096,-9.802 8.6241,-10.2516 5.2097,-0.4493 9.7972,3.41 10.2469,8.6244 0.4494,5.2121 -3.4099,9.7996 -8.6195,10.2488 -5.2145,0.4497 -9.8021,-3.4095 -10.2515,-8.6216 z" fill="#e3e4e5" stroke="#010101"/><path d="m -200.8161,852.02867 c -0.4496,-5.2144 3.4096,-9.802 8.6241,-10.2517 5.2096,-0.4492 9.7972,3.4101 10.2468,8.6245 0.4495,5.2121 -3.4098,9.7996 -8.6195,10.2488 -5.2144,0.4496 -9.802,-3.4095 -10.2514,-8.6216 z" fill="#e3e4e5" stroke="#010101"/><path d="m -210.2733,840.31547 c -0.4496,-5.2144 3.4097,-9.802 8.6241,-10.2516 5.2097,-0.4492 9.7973,3.4101 10.2469,8.6245 0.4494,5.2121 -3.4098,9.7996 -8.6195,10.2488 -5.2145,0.4496 -9.802,-3.4095 -10.2515,-8.6217 z" fill="#e3e4e5" stroke="#010101"/><path d="m -217.15089,829.03329 c 1.6013,3.5757 5.57199,6.59499 9.69779,6.23929 4.0049,-0.3453 7.161,-3.46339 8.2187,-7.10399 -5.86959,0.32398 -11.67969,0.29981 -17.91649,0.8647 z" fill="#e3e4e5" stroke="#010101"/><path d="m -285.8015,855.75687 c -0.4496,-5.2144 3.4096,-9.802 8.6241,-10.2516 5.2097,-0.4493 9.7972,3.41 10.2469,8.6244 0.4494,5.2121 -3.4099,9.7996 -8.6195,10.2488 -5.2145,0.4497 -9.8021,-3.4095 -10.2515,-8.6216 z" fill="#e3e4e5" stroke="#010101"/><path d="m -273.8643,867.71427 c -0.4496,-5.2144 3.4096,-9.802 8.6241,-10.2516 5.2096,-0.4492 9.7972,3.4101 10.2468,8.6245 0.4494,5.2121 -3.4098,9.7996 -8.6195,10.2488 -5.2144,0.4496 -9.802,-3.4095 -10.2514,-8.6217 z" fill="#e3e4e5" stroke="#010101"/></g><path d="m 331.42862,297.10984 -299.499999,299.5 H 630.92862 Z" transform="translate(-56.428722,76.640346)" style="marker:none" overflow="visible" fill="#ed1c24" fill-rule="evenodd" stroke="#000"/><g transform="translate(-56.428722,76.640346)" stroke="#000" fill="#e3e4e5"><g transform="matrix(1.1450629,0,0,1.1450629,627.15072,-66.798194)" stroke-width="1.021" stroke-linecap="square"><path d="m -224.44175,553.1568 v 23.12837 h -23.09712 v 6.59375 h 23.09712 6.625 23.09712 v -6.59375 h -23.09712 V 553.1568 Z" style="marker:none" overflow="visible"/><path d="m -150.18338,553.1568 v 23.12837 h -23.09712 v 6.59375 h 23.09712 6.625 23.09712 v -6.59375 h -23.09712 V 553.1568 Z" style="marker:none" overflow="visible"/><path d="m -75.925023,553.1568 v 23.12837 h -23.097118 v 6.59375 h 23.097118 6.625 23.097125 v -6.59375 H -69.300023 V 553.1568 Z" style="marker:none" overflow="visible"/><path d="m -298.70011,553.1568 v 23.12837 h -23.09712 v 6.59375 h 23.09712 6.625 23.09712 v -6.59375 h -23.09712 V 553.1568 Z" style="marker:none" overflow="visible"/><path d="m -372.95847,553.1568 v 23.12837 h -23.09712 v 6.59375 h 23.09712 6.625 23.09712 v -6.59375 h -23.09712 V 553.1568 Z" style="marker:none" overflow="visible"/><path d="m -447.21683,553.1568 v 23.12837 h -23.09712 v 6.59375 h 23.09712 6.625 23.09712 v -6.59375 h -23.09712 V 553.1568 Z" style="marker:none" overflow="visible"/><path d="M 0.07997624,576.28517 H -24.763773 v 6.59375 H 0.07997624 l 3.10421016,-3.38336 z" style="marker:none" overflow="visible"/><path d="m -519.87003,579.53631 3.27318,3.34261 h 24.84375 v -6.59375 h -24.84375 z" style="marker:none" overflow="visible"/></g><path d="m -443.89092,580.31116 -3.32591,2.56776 v 23.12837 h 6.625 v -23.12837 z" style="marker:none" overflow="visible" stroke-width="1.021" stroke-linecap="square" transform="matrix(1.1450629,0,0,1.1450629,839.72693,-367.29831)"/><g transform="translate(111.63994,160.11692)" stroke-linecap="square"><path d="m -39.192636,397.58933 v 26.48344 h 7.586042 v -26.48344 h 26.4476532 v -7.55026 H -31.606594 Z" style="marker:none" overflow="visible" stroke-width="1.169"/><g transform="matrix(1.1450629,0,0,1.1450629,557.92929,-269.8437)" stroke-width="1.021"><path d="m -224.44175,553.1568 v 23.12837 h -23.09712 v 6.59375 h 23.09712 v 23.12837 h 6.625 v -23.12837 h 23.09712 v -6.59375 h -23.09712 V 553.1568 Z" style="marker:none" overflow="visible"/><path d="m -150.18338,553.1568 v 23.12837 h -23.09712 v 6.59375 h 23.09712 v 23.12837 h 6.625 v -23.12837 h 23.09712 v -6.59375 h -23.09712 V 553.1568 Z" style="marker:none" overflow="visible"/><path d="m -75.925023,576.28517 h -23.097118 v 6.59375 h 23.097118 v 23.12837 h 6.625 v -23.12837 z" style="marker:none" overflow="visible"/><path d="m -298.70011,553.1568 v 23.12837 h -23.09712 v 6.59375 h 23.09712 v 23.12837 h 6.625 v -23.12837 h 23.09712 v -6.59375 h -23.09712 V 553.1568 Z" style="marker:none" overflow="visible"/><path d="m -372.95847,553.1568 v 23.12837 h -23.09712 v 6.59375 h 23.09712 v 23.12837 h 6.625 v -23.12837 h 23.09712 v -6.59375 h -23.09712 V 553.1568 Z" style="marker:none" overflow="visible"/><path d="m -447.21683,553.1568 v 23.12837 h -23.09712 v 6.59375 h 23.09712 v 23.12837 h 6.625 v -23.12837 h 23.09712 v -6.59375 h -23.09712 V 553.1568 Z" style="marker:none" overflow="visible"/></g></g><g transform="translate(154.15519,117.18833)" stroke-linecap="square"><path d="m -39.192636,397.58933 v 26.48344 h 7.586042 v -26.48344 h 26.4476532 v -7.55026 H -31.606594 Z" style="marker:none" overflow="visible" stroke-width="1.169"/><g transform="matrix(1.1450629,0,0,1.1450629,557.92929,-269.8437)" stroke-width="1.021"><path d="m -224.44175,553.1568 v 23.12837 h -23.09712 v 6.59375 h 23.09712 v 23.12837 h 6.625 v -23.12837 h 23.09712 v -6.59375 h -23.09712 V 553.1568 Z" style="marker:none" overflow="visible"/><path d="m -150.18338,576.28517 h -23.09712 v 6.59375 h 23.09712 v 23.12837 h 6.625 v -23.12837 z" style="marker:none" overflow="visible"/><path d="m -298.70011,553.1568 v 23.12837 h -23.09712 v 6.59375 h 23.09712 v 23.12837 h 6.625 v -23.12837 h 23.09712 v -6.59375 h -23.09712 V 553.1568 Z" style="marker:none" overflow="visible"/><path d="m -372.95847,553.1568 v 23.12837 h -23.09712 v 6.59375 h 23.09712 v 23.12837 h 6.625 v -23.12837 h 23.09712 v -6.59375 h -23.09712 V 553.1568 Z" style="marker:none" overflow="visible"/><path d="m -447.21683,553.1568 v 23.12837 h -23.09712 v 6.59375 h 23.09712 v 23.12837 h 6.625 v -23.12837 h 23.09712 v -6.59375 h -23.09712 V 553.1568 Z" style="marker:none" overflow="visible"/></g></g><g transform="translate(111.63994,74.259744) matrix(1.1450629,0,0,1.1450629,557.92929,-269.8437)" stroke-width="1.021" stroke-linecap="square"><path d="m -224.44175,553.1568 v 23.12837 h -23.09712 v 6.59375 h 23.09712 v 23.12837 h 6.625 v -23.12837 h 23.09712 v -6.59375 h -23.09712 V 553.1568 Z" style="marker:none" overflow="visible"/><path d="m -150.18338,576.28517 h -23.09712 v 6.59375 h 23.09712 v 23.12837 h 6.625 v -23.12837 z" style="marker:none" overflow="visible"/><path d="m -298.70011,553.1568 v 23.12837 h -23.09712 v 6.59375 h 23.09712 v 23.12837 h 6.625 v -23.12837 h 23.09712 v -6.59375 h -23.09712 V 553.1568 Z" style="marker:none" overflow="visible"/><path d="m -372.95847,553.1568 v 23.12837 h -23.09712 v 6.59375 h 23.09712 v 23.12837 h 6.625 v -23.12837 h 23.09712 v -6.59375 h -23.09712 V 553.1568 Z" style="marker:none" overflow="visible"/><path d="m -447.21683,582.87892 v 23.12837 h 6.625 v -23.12837 h 23.09712 v -6.59375 h -23.09712 z" style="marker:none" overflow="visible"/></g><g transform="translate(154.15519,31.331155) matrix(1.1450629,0,0,1.1450629,557.92929,-269.8437)" stroke-width="1.021" stroke-linecap="square"><path d="m -224.44175,576.28517 h -23.09712 v 6.59375 h 23.09712 v 23.12837 h 6.625 v -23.12837 z" style="marker:none" overflow="visible"/><path d="m -298.70011,553.1568 v 23.12837 h -23.09712 v 6.59375 h 23.09712 v 23.12837 h 6.625 v -23.12837 h 23.09712 v -6.59375 h -23.09712 V 553.1568 Z" style="marker:none" overflow="visible"/><path d="m -372.95847,553.1568 v 23.12837 h -23.09712 v 6.59375 h 23.09712 v 23.12837 h 6.625 v -23.12837 h 23.09712 v -6.59375 h -23.09712 V 553.1568 Z" style="marker:none" overflow="visible"/><path d="m -447.21683,582.87892 v 23.12837 h 6.625 v -23.12837 h 23.09712 v -6.59375 h -23.09712 z" style="marker:none" overflow="visible"/></g><g transform="translate(111.63994,-11.597434) matrix(1.1450629,0,0,1.1450629,557.92929,-269.8437)" stroke-width="1.021" stroke-linecap="square"><path d="m -224.44175,576.28517 h -23.09712 v 6.59375 h 23.09712 v 23.12837 h 6.625 v -23.12837 z" style="marker:none" overflow="visible"/><path d="m -298.70011,553.1568 v 23.12837 h -23.09712 v 6.59375 h 23.09712 v 23.12837 h 6.625 v -23.12837 h 23.09712 v -6.59375 h -23.09712 V 553.1568 Z" style="marker:none" overflow="visible"/><path d="m -372.95847,582.87892 v 23.12837 h 6.625 v -23.12837 h 23.09712 v -6.59375 h -23.09712 z" style="marker:none" overflow="visible"/></g><g transform="translate(154.15519,-54.526023) matrix(1.1450629,0,0,1.1450629,557.92929,-269.8437)" stroke-width="1.021" stroke-linecap="square"><path d="m -298.70011,576.28517 h -23.09712 v 6.59375 h 23.09712 v 23.12837 h 6.625 v -23.12837 z" style="marker:none" overflow="visible"/><path d="m -372.95847,582.87892 v 23.12837 h 6.625 v -23.12837 h 23.09712 v -6.59375 h -23.09712 z" style="marker:none" overflow="visible"/></g></g><path d="m 331.42862,896.60984 -299.499999,-299.5 H 630.92862 Z" transform="translate(-56.428722,76.640346)" style="marker:none" overflow="visible" fill="#eac102" fill-rule="evenodd" stroke="#000"/><path transform="rotate(135)" style="marker:none" overflow="visible" fill="none" stroke="#000" stroke-width="3" d="M70.004 -882.469H493.56100000000004V-458.91200000000003H70.004z"/><g transform="translate(-1342.0698,679.28703) matrix(0.54302274,0,0,0.54302274,1024.4576,-28.120087) matrix(0.94336077,0,0,0.94336077,61.811629,29.083293)" stroke-width="1.79" stroke="#969696"><g transform="matrix(0.79718263,0,0,0.79386395,1270.0555,-116.74689)"><g transform="matrix(1.0000699,0,0,0.99999978,0.75520895,1.4244623e-4)" stroke-linecap="square"><path d="m -347.12683,599.74635 c -0.67498,5.42037 7.10304,7.81506 14.48717,10.28549 8.24152,2.75727 23.01435,3.5894 5.23341,40.09316 -17.78094,36.50376 -35.65641,37.6058 -38.28125,85.71875 -2.62484,48.11296 23.01213,62.30718 48.47819,100.78125 0,0 -7.32931,-1.18241 -11.8717,3.12699 -4.54239,4.3094 -4.87566,14.42288 6.14351,18.71676 44.9173,14.86067 98.91063,14.85972 138.09375,0 11.41369,-4.3285 12.16174,-13.73655 9.06386,-18.71619 -3.72414,-5.98631 -15.06047,-3.12756 -15.06047,-3.12756 24.71666,-38.29985 51.64712,-52.50447 48.74661,-100.78125 -2.90052,-48.27678 -19.72479,-48.56383 -38.28125,-85.71875 -18.55646,-37.15492 -6.3639,-35.11361 -0.16006,-47.06723 12.36165,-23.81853 -160.26366,-25.22276 -166.59177,-3.31142 z" transform="translate(28.928569,-76.640346)" style="marker:none" overflow="visible" stroke-width="1.787"/><path d="m -249.72103,435.32507 c 0,6.12965 -23.29248,10.02447 -52.02521,10.02447 -28.73274,0 -52.02522,-3.89482 -52.02522,-10.02447 0,-6.12965 23.29248,-11.09871 52.02521,-11.09871 28.73274,0 52.02522,4.96906 52.02522,11.09871 z" transform="matrix(1.5421642,0,0,1.1728943,230.72877,13.396604)" style="marker:none" overflow="visible" stroke-width="1.331"/></g><path d="m -131.84033,519.65934 c 17.06097,-1.99822 39.502568,6.35671 43.704599,27.94158 8.067337,33.64724 -34.467049,51.41051 -20.034939,81.68596 0,0 0.76396,-11.12724 6.80966,-13.1847 9.164746,-3.11894 16.498655,8.43474 10.41826,18.11841 -7.947019,12.03818 -18.17145,9.40837 -23.27906,8.3194 0,0 -4.59655,-21.07132 -13.15564,-32.8193 4.53119,-0.66182 35.518392,-32.2075 24.48808,-60.82099 -11.55483,-29.97406 -40.21843,-22.32278 -48.35636,-9.63129 12.31538,0.67792 12.31729,9.5629 10.26199,15.27932 -4.11778,8.6183 -14.92486,8.71575 -18.00321,0.12711 -4.06474,-11.34065 0.82836,-17.53642 0.82836,-17.53642 5.267,-7.42904 13.18799,-15.94121 26.31826,-17.47905 z" style="marker:none" overflow="visible" stroke-width="1.776" stroke-linecap="square"/><path d="m -305.40515,532.53622 c 36.63455,10.29536 123.61064,10.75561 152.63643,-3.05972" fill-rule="evenodd"/></g><g transform="translate(-4.13165,80.727611)"><g transform="matrix(0.79718263,0,0,0.79386395,1422.0034,-431.72764)"><g transform="matrix(1.0000699,0,0,0.99999978,0.75520895,1.4244623e-4)" stroke-linecap="square"><path overflow="visible" style="marker:none" transform="translate(28.928569,-76.640346)" d="m -347.12683,599.74635 c -0.67498,5.42037 7.10304,7.81506 14.48717,10.28549 8.24152,2.75727 23.01435,3.5894 5.23341,40.09316 -17.78094,36.50376 -35.65641,37.6058 -38.28125,85.71875 -2.62484,48.11296 23.01213,62.30718 48.47819,100.78125 0,0 -7.32931,-1.18241 -11.8717,3.12699 -4.54239,4.3094 -4.87566,14.42288 6.14351,18.71676 44.9173,14.86067 98.91063,14.85972 138.09375,0 11.41369,-4.3285 12.16174,-13.73655 9.06386,-18.71619 -3.72414,-5.98631 -15.06047,-3.12756 -15.06047,-3.12756 24.71666,-38.29985 51.64712,-52.50447 48.74661,-100.78125 -2.90052,-48.27678 -19.72479,-48.56383 -38.28125,-85.71875 -18.55646,-37.15492 -6.3639,-35.11361 -0.16006,-47.06723 12.36165,-23.81853 -160.26366,-25.22276 -166.59177,-3.31142 z" stroke-width="1.787"/><path overflow="visible" style="marker:none" transform="matrix(1.5421642,0,0,1.1728943,230.72877,13.396604)" d="m -249.72103,435.32507 c 0,6.12965 -23.29248,10.02447 -52.02521,10.02447 -28.73274,0 -52.02522,-3.89482 -52.02522,-10.02447 0,-6.12965 23.29248,-11.09871 52.02521,-11.09871 28.73274,0 52.02522,4.96906 52.02522,11.09871 z" stroke-width="1.331"/></g><path overflow="visible" style="marker:none" d="m -131.84033,519.65934 c 17.06097,-1.99822 39.502568,6.35671 43.704599,27.94158 8.067337,33.64724 -34.467049,51.41051 -20.034939,81.68596 0,0 0.76396,-11.12724 6.80966,-13.1847 9.164746,-3.11894 16.498655,8.43474 10.41826,18.11841 -7.947019,12.03818 -18.17145,9.40837 -23.27906,8.3194 0,0 -4.59655,-21.07132 -13.15564,-32.8193 4.53119,-0.66182 35.518392,-32.2075 24.48808,-60.82099 -11.55483,-29.97406 -40.21843,-22.32278 -48.35636,-9.63129 12.31538,0.67792 12.31729,9.5629 10.26199,15.27932 -4.11778,8.6183 -14.92486,8.71575 -18.00321,0.12711 -4.06474,-11.34065 0.82836,-17.53642 0.82836,-17.53642 5.267,-7.42904 13.18799,-15.94121 26.31826,-17.47905 z" stroke-width="1.776" stroke-linecap="square"/><path d="m -305.40515,532.53622 c 36.63455,10.29536 123.61064,10.75561 152.63643,-3.05972" fill-rule="evenodd"/></g><g transform="matrix(-0.79718263,0,0,0.79386395,768.90172,-431.72764)"><g transform="matrix(1.0000699,0,0,0.99999978,0.75520895,1.4244623e-4)" stroke-linecap="square"><path overflow="visible" style="marker:none" transform="translate(28.928569,-76.640346)" d="m -347.12683,599.74635 c -0.67498,5.42037 7.10304,7.81506 14.48717,10.28549 8.24152,2.75727 23.01435,3.5894 5.23341,40.09316 -17.78094,36.50376 -35.65641,37.6058 -38.28125,85.71875 -2.62484,48.11296 23.01213,62.30718 48.47819,100.78125 0,0 -7.32931,-1.18241 -11.8717,3.12699 -4.54239,4.3094 -4.87566,14.42288 6.14351,18.71676 44.9173,14.86067 98.91063,14.85972 138.09375,0 11.41369,-4.3285 12.16174,-13.73655 9.06386,-18.71619 -3.72414,-5.98631 -15.06047,-3.12756 -15.06047,-3.12756 24.71666,-38.29985 51.64712,-52.50447 48.74661,-100.78125 -2.90052,-48.27678 -19.72479,-48.56383 -38.28125,-85.71875 -18.55646,-37.15492 -6.3639,-35.11361 -0.16006,-47.06723 12.36165,-23.81853 -160.26366,-25.22276 -166.59177,-3.31142 z" stroke-width="1.787"/><path overflow="visible" style="marker:none" transform="matrix(1.5421642,0,0,1.1728943,230.72877,13.396604)" d="m -249.72103,435.32507 c 0,6.12965 -23.29248,10.02447 -52.02521,10.02447 -28.73274,0 -52.02522,-3.89482 -52.02522,-10.02447 0,-6.12965 23.29248,-11.09871 52.02521,-11.09871 28.73274,0 52.02522,4.96906 52.02522,11.09871 z" stroke-width="1.331"/></g><path overflow="visible" style="marker:none" d="m -131.84033,519.65934 c 17.06097,-1.99822 39.502568,6.35671 43.704599,27.94158 8.067337,33.64724 -34.467049,51.41051 -20.034939,81.68596 0,0 0.76396,-11.12724 6.80966,-13.1847 9.164746,-3.11894 16.498655,8.43474 10.41826,18.11841 -7.947019,12.03818 -18.17145,9.40837 -23.27906,8.3194 0,0 -4.59655,-21.07132 -13.15564,-32.8193 4.53119,-0.66182 35.518392,-32.2075 24.48808,-60.82099 -11.55483,-29.97406 -40.21843,-22.32278 -48.35636,-9.63129 12.31538,0.67792 12.31729,9.5629 10.26199,15.27932 -4.11778,8.6183 -14.92486,8.71575 -18.00321,0.12711 -4.06474,-11.34065 0.82836,-17.53642 0.82836,-17.53642 5.267,-7.42904 13.18799,-15.94121 26.31826,-17.47905 z" stroke-width="1.776" stroke-linecap="square"/><path d="m -305.40515,532.53622 c 36.63455,10.29536 123.61064,10.75561 152.63643,-3.05972" fill-rule="evenodd"/></g></g></g></g></svg>