<?xml version="1.0" encoding="utf-8"?><!DOCTYPE svg PUBLIC "-//W3C//DTD SVG 1.1//EN" "http://www.w3.org/Graphics/SVG/1.1/DTD/svg11.dtd"><svg viewBox="0 0 500 600" xmlns="http://www.w3.org/2000/svg"><path d="m.5.5v349.5c0 137.724 111.776 249.5 249.5 249.5s249.5-111.776 249.5-249.5v-349.5z" fill="#ed1c24" stroke="#000" stroke-linecap="round" stroke-linejoin="round"/><g stroke="#000" stroke-linecap="round" stroke-linejoin="round"><g fill="#eac102"><path d="m63.5447 379.6417-11.937 3.3889-1.3183-4.6464-3.979 1.1296 1.3183 4.6464-11.9369 3.3888-1.5733-5.5448 5.9685-1.6944-1.1143-3.9271-5.9685 1.6944-1.7263-6.0842 11.9369-3.3889 1.3184 4.6468 3.979-1.1296-1.3184-4.6468 4.9736-1.412-1.1142-3.9268-4.9736 1.412-1.3184-4.6468-3.979 1.1296 1.3184 4.6468-11.9369 3.3888-1.7263-6.0844 5.9685-1.6944-1.1142-3.927-5.9685 1.6944-1.5733-5.5448 11.9369-3.3888 1.3184 4.6464 3.979-1.1296-1.3184-4.6464 11.937-3.3889z"/><path d="m58.296 339.5045-8.0864 2.2957 33.5661 118.3012 8.0864-2.2957z"/><path d="m94.195 452.3412-15.2741 4.3363 3.8238 13.4767 15.2741-4.3363z"/><path d="m48.5892 346.0256c-.8021-2.827-1.9599-14.3231 2.7451-15.6588 4.705-1.3358 9.7574 9.0551 10.5595 11.8821z"/><path d="m60.6323 342.6067-10.7816 3.0609.6373 2.2461 10.7816-3.0609z"/><path d="m70.2556 376.5231-10.7816 3.0609.6373 2.2461 10.7816-3.0609z"/><path d="m67.0478 365.2177-10.7816 3.0608.6373 2.2461 10.7816-3.0609z"/><path d="m63.84 353.9121-10.7816 3.0609.6373 2.246 10.7816-3.0609z"/><path d="m116.4438 478.8039c-2.3261-8.1983-14.0903-13.379-25.8422-10.0427-11.7518 3.3363-19.0413 13.9263-16.7151 22.1246 2.3261 8.1981 14.0903 13.379 25.8421 10.0427 11.752-3.3363 19.0413-13.9265 16.7153-22.1246zm6.7196-1.9076c-3.5754-12.6012-19.009-19.2577-34.4721-14.8678-15.463 4.3899-25.0998 18.1638-21.5244 30.765 3.5754 12.6011 19.0089 19.2575 34.472 14.8677 15.4631-4.3899 25.0999-18.1639 21.5246-30.7649z" fill-rule="evenodd"/><path d="m99.304 499.4321c1.8556-.5268 3.9775 1.2232 4.7394 3.9086.762 2.6855-.1245 5.2896-1.9801 5.8164-1.8555.5268-3.9775-1.2232-4.7395-3.9087-.762-2.6854.1246-5.2895 1.9802-5.8163z" fill-rule="evenodd"/><path d="m75.3797 490.4619c.5275 1.8592-1.2176 3.9831-3.8979 4.744s-5.2807-.1293-5.8082-1.9885 1.2176-3.9832 3.8979-4.7442c2.6804-.761 5.2806.1294 5.8081 1.9886z" fill-rule="evenodd"/><path d="m124.6567 476.4723c.5276 1.8593-1.2176 3.9831-3.8978 4.744-2.6803.7609-5.2807-.1293-5.8082-1.9885s1.2176-3.9832 3.8979-4.7441 5.2806.1294 5.8081 1.9886z" fill-rule="evenodd"/></g><g fill="#eac102"><path d="m123.2947 409.8917-11.937 3.3889-1.3183-4.6464-3.979 1.1296 1.3183 4.6464-11.9369 3.3888-1.5733-5.5448 5.9685-1.6944-1.1143-3.9271-5.9685 1.6944-1.7263-6.0842 11.9369-3.3889 1.3184 4.6468 3.979-1.1296-1.3184-4.6468 4.9736-1.412-1.1142-3.9268-4.9736 1.412-1.3184-4.6468-3.979 1.1296 1.3184 4.6468-11.9369 3.3888-1.7263-6.0844 5.9685-1.6944-1.1142-3.927-5.9685 1.6944-1.5733-5.5448 11.9369-3.3888 1.3184 4.6464 3.979-1.1296-1.3184-4.6464 11.937-3.3889z"/><path d="m118.046 369.7545-8.0864 2.2957 33.5661 118.3012 8.0864-2.2957z"/><path d="m153.945 482.5912-15.2741 4.3363 3.8238 13.4767 15.2741-4.3363z"/><path d="m108.3392 376.2756c-.8021-2.827-1.9599-14.3231 2.7451-15.6588 4.705-1.3358 9.7574 9.0551 10.5595 11.8821z"/><path d="m120.3823 372.8567-10.7816 3.0609.6373 2.2461 10.7816-3.0609z"/><path d="m130.0056 406.7731-10.7816 3.0609.6373 2.2461 10.7816-3.0609z"/><path d="m126.7978 395.4677-10.7816 3.0608.6373 2.2461 10.7816-3.0609z"/><path d="m123.59 384.1621-10.7816 3.0609.6373 2.246 10.7816-3.0609z"/><path d="m176.1938 509.0539c-2.3261-8.1983-14.0903-13.379-25.8422-10.0427-11.7518 3.3363-19.0413 13.9263-16.7151 22.1246 2.3261 8.1981 14.0903 13.379 25.8421 10.0427 11.752-3.3363 19.0413-13.9265 16.7153-22.1246zm6.7196-1.9076c-3.5754-12.6012-19.009-19.2577-34.4721-14.8678-15.463 4.3899-25.0998 18.1638-21.5244 30.765 3.5754 12.6011 19.0089 19.2575 34.472 14.8677 15.4631-4.3899 25.0999-18.1639 21.5246-30.7649z" fill-rule="evenodd"/><path d="m159.054 529.6821c1.8556-.5268 3.9775 1.2232 4.7394 3.9086.762 2.6855-.1245 5.2896-1.9801 5.8164-1.8555.5268-3.9775-1.2232-4.7395-3.9087-.762-2.6854.1246-5.2895 1.9802-5.8163z" fill-rule="evenodd"/><path d="m135.1297 520.7119c.5275 1.8592-1.2176 3.9831-3.8979 4.744s-5.2807-.1293-5.8082-1.9885 1.2176-3.9832 3.8979-4.7442c2.6804-.761 5.2806.1294 5.8081 1.9886z" fill-rule="evenodd"/><path d="m184.4067 506.7223c.5276 1.8593-1.2176 3.9831-3.8978 4.744-2.6803.7609-5.2807-.1293-5.8082-1.9885s1.2176-3.9832 3.8979-4.7441 5.2806.1294 5.8081 1.9886z" fill-rule="evenodd"/></g><g fill="#eac102"><path d="m436.4553 379.6417 11.937 3.3889 1.3183-4.6464 3.979 1.1296-1.3183 4.6464 11.9369 3.3888 1.5733-5.5448-5.9685-1.6944 1.1143-3.9271 5.9685 1.6944 1.7263-6.0842-11.9369-3.3889-1.3184 4.6468-3.979-1.1296 1.3184-4.6468-4.9736-1.412 1.1142-3.9268 4.9736 1.412 1.3184-4.6468 3.979 1.1296-1.3184 4.6468 11.9369 3.3888 1.7263-6.0844-5.9685-1.6944 1.1142-3.927 5.9685 1.6944 1.5733-5.5448-11.9369-3.3888-1.3184 4.6464-3.979-1.1296 1.3184-4.6464-11.937-3.3889z"/><path d="m441.7041 339.5045 8.0864 2.2957-33.5661 118.3012-8.0864-2.2957z"/><path d="m405.805 452.3412 15.2741 4.3363-3.8238 13.4767-15.2741-4.3363z"/><path d="m451.4108 346.0256c.8021-2.827 1.9599-14.3231-2.7451-15.6588-4.705-1.3358-9.7574 9.0551-10.5595 11.8821z"/><path d="m439.3677 342.6067 10.7816 3.0609-.6373 2.2461-10.7816-3.0609z"/><path d="m429.7445 376.5231 10.7816 3.0609-.6373 2.2461-10.7816-3.0609z"/><path d="m432.9522 365.2177 10.7816 3.0608-.6373 2.2461-10.7816-3.0609z"/><path d="m436.16 353.9121 10.7816 3.0609-.6373 2.246-10.7816-3.0609z"/><path d="m383.5562 478.8039c2.3261-8.1983 14.0903-13.379 25.8422-10.0427 11.7518 3.3363 19.0413 13.9263 16.7151 22.1246-2.3261 8.1981-14.0903 13.379-25.8421 10.0427-11.752-3.3363-19.0413-13.9265-16.7153-22.1246zm-6.7196-1.9076c3.5754-12.6012 19.009-19.2577 34.4721-14.8678 15.463 4.3899 25.0998 18.1638 21.5244 30.765-3.5754 12.6011-19.0089 19.2575-34.472 14.8677-15.4631-4.3899-25.0999-18.1639-21.5246-30.7649z" fill-rule="evenodd"/><path d="m400.696 499.4321c-1.8556-.5268-3.9775 1.2232-4.7394 3.9086-.762 2.6855.1245 5.2896 1.9801 5.8164 1.8555.5268 3.9775-1.2232 4.7395-3.9087.762-2.6854-.1246-5.2895-1.9802-5.8163z" fill-rule="evenodd"/><path d="m424.6204 490.4619c-.5275 1.8592 1.2176 3.9831 3.8979 4.744s5.2807-.1293 5.8082-1.9885-1.2176-3.9832-3.8979-4.7442c-2.6804-.761-5.2806.1294-5.8081 1.9886z" fill-rule="evenodd"/><path d="m375.3434 476.4723c-.5276 1.8593 1.2176 3.9831 3.8978 4.744 2.6803.7609 5.2807-.1293 5.8082-1.9885s-1.2176-3.9832-3.8979-4.7441-5.2806.1294-5.8081 1.9886z" fill-rule="evenodd"/></g><g fill="#eac102"><path d="m376.7053 409.8917 11.937 3.3889 1.3183-4.6464 3.979 1.1296-1.3183 4.6464 11.9369 3.3888 1.5733-5.5448-5.9685-1.6944 1.1143-3.9271 5.9685 1.6944 1.7263-6.0842-11.9369-3.3889-1.3184 4.6468-3.979-1.1296 1.3184-4.6468-4.9736-1.412 1.1142-3.9268 4.9736 1.412 1.3184-4.6468 3.979 1.1296-1.3184 4.6468 11.9369 3.3888 1.7263-6.0844-5.9685-1.6944 1.1142-3.927 5.9685 1.6944 1.5733-5.5448-11.9369-3.3888-1.3184 4.6464-3.979-1.1296 1.3184-4.6464-11.937-3.3889z"/><path d="m381.9541 369.7545 8.0864 2.2957-33.5661 118.3012-8.0864-2.2957z"/><path d="m346.055 482.5912 15.2741 4.3363-3.8238 13.4767-15.2741-4.3363z"/><path d="m391.6608 376.2756c.8021-2.827 1.9599-14.3231-2.7451-15.6588-4.705-1.3358-9.7574 9.0551-10.5595 11.8821z"/><path d="m379.6177 372.8567 10.7816 3.0609-.6373 2.2461-10.7816-3.0609z"/><path d="m369.9944 406.7731 10.7816 3.0609-.6373 2.2461-10.7816-3.0609z"/><path d="m373.2022 395.4677 10.7816 3.0608-.6373 2.2461-10.7816-3.0609z"/><path d="m376.41 384.1621 10.7816 3.0609-.6373 2.246-10.7816-3.0609z"/><path d="m323.8062 509.0539c2.3261-8.1983 14.0903-13.379 25.8422-10.0427 11.7518 3.3363 19.0413 13.9263 16.7151 22.1246-2.3261 8.1981-14.0903 13.379-25.8421 10.0427-11.752-3.3363-19.0413-13.9265-16.7153-22.1246zm-6.7196-1.9076c3.5754-12.6012 19.009-19.2577 34.4721-14.8678 15.463 4.3899 25.0998 18.1638 21.5244 30.765-3.5754 12.6011-19.0089 19.2575-34.472 14.8677-15.4631-4.3899-25.0999-18.1639-21.5246-30.7649z" fill-rule="evenodd"/><path d="m340.946 529.6821c-1.8556-.5268-3.9775 1.2232-4.7394 3.9086-.762 2.6855.1245 5.2896 1.9801 5.8164 1.8555.5268 3.9775-1.2232 4.7395-3.9087.762-2.6854-.1246-5.2895-1.9802-5.8163z" fill-rule="evenodd"/><path d="m364.8703 520.7119c-.5275 1.8592 1.2176 3.9831 3.8979 4.744s5.2807-.1293 5.8082-1.9885-1.2176-3.9832-3.8979-4.7442c-2.6804-.761-5.2806.1294-5.8081 1.9886z" fill-rule="evenodd"/><path d="m315.5934 506.7223c-.5276 1.8593 1.2176 3.9831 3.8978 4.744 2.6803.7609 5.2807-.1293 5.8082-1.9885s-1.2176-3.9832-3.8979-4.7441-5.2806.1294-5.8081 1.9886z" fill-rule="evenodd"/></g><g><path d="m125.5 150.5v174.4583c0 68.747 55.776 124.5417 124.5 124.5417s124.5-55.7947 124.5-124.5417v-174.4583z" fill="#eac102"/><path d="m153.167 150.5v252.7012c7.8897 9.7566 17.2166 18.2992 27.666 25.3008v-278.002z" fill="#ed1c24" fill-rule="evenodd"/><path d="m208.5 150.5v291.8945c8.8101 3.1185 18.075 5.2734 27.667 6.3359v-298.2305z" fill="#ed1c24" fill-rule="evenodd"/><path d="m346.833 150.5v252.7012c-7.8897 9.7566-17.2166 18.2992-27.666 25.3008v-278.002z" fill="#ed1c24" fill-rule="evenodd"/><path d="m291.5 150.5v291.8945c-8.8101 3.1185-18.075 5.2734-27.667 6.3359v-298.2305z" fill="#ed1c24" fill-rule="evenodd"/></g></g><path d="m1.5 1.5v348.5c0 137.172 111.328 248.5 248.5 248.5s248.5-111.328 248.5-248.5v-348.5z" fill="none" stroke="#000" stroke-linecap="round" stroke-linejoin="round" stroke-width="3"/></svg>