<?xml version="1.0" encoding="utf-8"?><svg xmlns="http://www.w3.org/2000/svg" version="1.1" viewBox="0 0 500 600"><path d="m.5.5v349.5c0 137.724 111.776 249.5 249.5 249.5s249.5-111.776 249.5-249.5v-349.5z" fill="#eac102" stroke="#000" stroke-linecap="round" stroke-linejoin="round"/><g stroke="#000" stroke-linecap="round" stroke-linejoin="round"><path d="m444.056.5v506.25c-9.7627 12.0695-20.6173 23.1897-32.431 33.25h-23.014v-539.5z" fill="#ed1c24"/><path d="m55.944.5v506.25c9.7627 12.0695 20.6173 23.1897 32.431 33.25h23.014v-539.5z" fill="#ed1c24"/><path d="m277.7222 540v-539.5h55.4444v539.5z" fill="#ed1c24"/><path d="m166.8333 540v-539.5h55.4444v539.5z" fill="#ed1c24"/><path d="m63.75 516.333c45.624 51.087 112.051 83.167 186.25 83.167s140.626-32.081 186.25-83.167z" fill="#c87137"/></g><g stroke="#000" stroke-linecap="round" stroke-linejoin="round"><g><path d="m168.3438 106.9996c0-3.2673 17.9025-9.9113 81.6562-9.9113s81.6562 6.644 81.6562 9.9113-17.9025 9.9112-81.6562 9.9112-81.6562-6.6439-81.6562-9.9111z" fill="#eac102"/><g fill="none" transform="translate(-205.735 -1472.1563)"><path d="m383.672 1574.8518v8.6082" stroke-width="2.5814"/><path d="m386.7122 1574.1529v10.0059" stroke-width="2.4641"/><path d="m389.7525 1573.6944v10.923" stroke-width="2.3467"/><path d="m392.7927 1573.1267v12.0583" stroke-width="2.2294"/><path d="m395.8333 1572.6245v13.0627" stroke-width="2.1121"/><path d="m398.8735 1572.1878v13.9361" stroke-width="1.9947"/><path d="m401.9138 1571.7513v14.8091" stroke-width="1.8774"/><path d="m404.954 1571.3801v15.5516" stroke-width="1.7601"/><path d="m407.9946 1571.1398v16.0322" stroke-width="1.6427"/><path d="m411.0349 1570.856v16.5997" stroke-width="1.5254"/><path d="m414.0751 1570.4193v17.4731" stroke-width="1.408"/><path d="m417.1158 1570.179v17.9537" stroke-width="1.2907"/><path d="m420.156 1570.0699v18.172" stroke-width="1.1734"/><path d="m423.1962 1569.808v18.6958" stroke-width="1.056"/><path d="m426.2364 1569.5895v19.1327" stroke-width=".9387"/><path d="m429.2771 1569.4586v19.3945" stroke-width=".8214"/><path d="m432.3173 1569.2622v19.7874" stroke-width=".704"/><path d="m435.3575 1569.131v20.0497" stroke-width=".5867"/><path d="m438.3977 1568.7379v20.8359" stroke-width=".4693"/><path d="m441.4384 1568.7379v20.8359" stroke-width=".352"/><path d="m444.4786 1568.7379v20.8359" stroke-width=".2347"/><path d="m447.5188 1568.7379v20.8359" stroke-width=".1173"/><path d="m377.5911 1576.926v4.4597" stroke-width="2.8161"/><path d="m380.6314 1575.8123v6.6871" stroke-width="2.6987"/><path d="m527.7979 1574.8518v8.6082" stroke-width="2.5814"/><path d="m524.7577 1574.1529v10.0059" stroke-width="2.4641"/><path d="m521.7175 1573.6944v10.923" stroke-width="2.3467"/><path d="m518.6773 1573.1267v12.0583" stroke-width="2.2294"/><path d="m515.6366 1572.6245v13.0627" stroke-width="2.1121"/><path d="m512.5964 1572.1878v13.9361" stroke-width="1.9947"/><path d="m509.5562 1571.7513v14.8091" stroke-width="1.8774"/><path d="m506.516 1571.3801v15.5516" stroke-width="1.7601"/><path d="m503.4753 1571.1398v16.0322" stroke-width="1.6427"/><path d="m500.4351 1570.856v16.5997" stroke-width="1.5254"/><path d="m497.3949 1570.4193v17.4731" stroke-width="1.408"/><path d="m494.3542 1570.179v17.9537" stroke-width="1.2907"/><path d="m491.314 1570.0699v18.172" stroke-width="1.1734"/><path d="m488.2738 1569.808v18.6958" stroke-width="1.056"/><path d="m485.2336 1569.5895v19.1327" stroke-width=".9387"/><path d="m482.1929 1569.4586v19.3945" stroke-width=".8214"/><path d="m479.1527 1569.2622v19.7874" stroke-width=".704"/><path d="m476.1125 1569.131v20.0497" stroke-width=".5867"/><path d="m473.0723 1568.7379v20.8359" stroke-width=".4693"/><path d="m470.0316 1568.7379v20.8359" stroke-width=".352"/><path d="m466.9914 1568.7379v20.8359" stroke-width=".2347"/><path d="m463.9511 1568.7379v20.8359" stroke-width=".1173"/><path d="m533.8788 1576.926v4.4597" stroke-width="2.8161"/><path d="m530.8386 1575.8123v6.6871" stroke-width="2.6987"/></g><g><path d="m233.8231 41.7075c5.6808 2.3505 8.0452 1.0953 10.4372 3.3509l2.8035 2.6438v5.864l-2.8035 2.6442c-2.3915 2.2557-4.7565 1-10.4372 3.3509-.2329-1.7757-.1313-3.2445 1.0953-4.5518-3.6806-.2198-6.6135-2.1086-9.0056-4.3753 2.3922-2.2663 5.3251-4.1555 9.0056-4.3753-1.2266-1.3074-1.3281-2.7757-1.0953-4.5515z" fill="#eac102"/><path d="m245.6956 50.6341h-16.3823" fill="none"/><path d="m252.9415 47.7074 2.6529-2.7945c2.2629-2.3838 1.0032-4.7406 3.3618-10.403-1.7815-.232-3.255-.1309-4.5666 1.0918-.2206-3.6687-2.1155-6.5922-4.3896-8.977-2.274 2.3848-4.169 5.3083-4.3896 8.977-1.3116-1.2227-2.7851-1.3238-4.5666-1.0918 2.3586 5.6625 1.0988 8.0193 3.3618 10.403l2.6529 2.7945z" fill="#eac102"/><path d="m250 46.3441v-16.3295" fill="none"/><path d="m167.6718 83.6483c-3.768-1.5958-10.0425-9.3885-13.0619-13.4362l-3.7656 2.798c4.8842 6.4264 8.6148 10.4712 11.591 12.8387 1.4881 1.1838 2.7869 1.9768 4.1481 2.3754z" fill="#eac102"/><path d="m332.3283 83.6483c3.7681-1.5958 10.0425-9.3885 13.0619-13.4362l3.7656 2.798c-4.8842 6.4264-8.6148 10.4712-11.591 12.8387-1.4881 1.1838-2.7869 1.9768-4.148 2.3754z" fill="#eac102"/><path d="m279.2864 68.7257c4.2888 10.0022 18.5518 11.2089 26.3592 2.39 3.0816 9.4623 13.8641 10.3146 21.8434 4.5905 0 .014-.0001.03 0 .044.6057 10.0609 12.5048 9.4136 21.6669-2.7397l5.2954-7.0241c.7393-.9806.5119-2.5393-.4779-3.2719s-2.5644-.5077-3.3024.4739l-5.2807 7.0241c-7.3036 9.7148-19.0874 12.681-9.9877-3.0895.613-1.0623.2501-2.5767-.809-3.2061-1.0591-.6295-2.6103-.2532-3.2361.8016-7.8617 13.252-24.6451 14.1394-21.3433-2.5503.4805-2.4288.9611-4.8576 1.4415-7.2864.2323-1.1739-.6895-2.4327-1.8748-2.6608s-2.5113.598-2.744 1.7718c-.2112 1.0655-.961 4.848-1.4415 7.272-3.1036 15.6563-24.6286 14.7563-22.6818-1.1514.1418-1.1588-.9007-2.2934-2.0706-2.4324s-2.4757.7171-2.5923 1.8787c-1.6048 16.0029-25.6973 15.5206-25.6973.1021v-7.68c0-1.2259-1.1063-2.3754-2.3535-2.3754-1.2471 0-2.3535 1.1495-2.3535 2.3754v7.68c0 15.4185-24.0924 15.9008-25.6973-.1021-.1165-1.1616-1.4224-2.0177-2.5923-1.8787-1.1699.1389-2.2124 1.2736-2.0706 2.4324 1.9467 15.9077-19.5782 16.8076-22.6818 1.1514l-1.4415-7.272c-.2327-1.1738-1.5587-1.9999-2.744-1.7718s-2.107 1.4869-1.8748 2.6608c.4805 2.4288 1.4415 7.2864 1.4415 7.2864 3.3018 16.6897-13.4816 15.8022-21.3433 2.5503-.6258-1.0548-2.1771-1.4311-3.2362-.8016s-1.4218 2.1438-.8089 3.2061c9.0997 15.7705-2.6841 12.8043-9.9877 3.0895l-5.2807-7.0241c-.738-.9816-2.3127-1.2065-3.3024-.4739-.9898.7326-1.2172 2.2913-.4779 3.2719l5.2954 7.0241c9.1621 12.1533 21.0613 12.8006 21.6669 2.7397.0001-.014 0-.03 0-.044 7.9793 5.7242 18.7619 4.8719 21.8434-4.5905 7.8074 8.8189 22.0704 7.6122 26.3592-2.39 8.187 10.5117 23.4491 8.8868 29.2863-.5016 5.8372 9.3884 21.0993 11.0132 29.2864.5016z" fill="#eac102"/><path d="m141.3824 59.844c-3.2512-4.5961-5.9431-7.5471-15.8824-8.3996 3.4004-5.0956 10.4822-6.5705 15.0883-1.9208.4357-1.2725.7044-1.6872 1.9223-2.8627 1.0859 3.3184 5.922 5.8257 4.0034 11.7677l-1.8854 5.8394z" fill="#eac102"/><path d="m155.9603 64.7303c1.1546.9118 1.6776 2.2568 2.0939 3.9723 0 0-4.9686-.3983-7.1318.094-2.4703.5625-4.3465-.4889-4.7521-.8859l-2.3463-4.5919c1.7932-3.1881 2.1462-4.9389 3.4898-6.6741 1.3415-1.7325 3.5354-3.2545 5.1287-4.6149.6992 1.5982 1.0988 2.9945.7653 4.5226 2.3016-.7194 4.6781.3192 6.8412 1.8332-.7394 2.7159-1.9252 5.2151-4.0887 6.3445z" fill="#eac102"/><path d="m145.0481 65.4105c3.866-3.116 7.4054-3.6847 12.0593-6.3167" fill="none"/><path d="m146.1703 67.9108c-.6224.2964-1.3051.4691-2.0418.4691-2.6256 0-4.7541-2.1087-4.7541-4.7099 0-1.586.7954-2.9725 2.008-3.826 2.3887 1.504 4.4179 5.1483 4.7879 8.0668z" fill="#ed1c24" fill-rule="evenodd"/><path d="m358.6176 59.844c3.2512-4.5961 5.9431-7.5471 15.8824-8.3996-3.4004-5.0956-10.4821-6.5705-15.0883-1.9208-.4357-1.2725-.7044-1.6872-1.9223-2.8627-1.0859 3.3184-5.922 5.8257-4.0033 11.7677l1.8854 5.8394z" fill="#eac102"/><path d="m344.0398 64.7303c-1.1546.9118-1.6776 2.2568-2.0939 3.9723 0 0 4.9685-.3983 7.1318.094 2.4703.5625 4.3465-.4889 4.7521-.8859l2.3463-4.5919c-1.7932-3.1881-2.1462-4.9389-3.4898-6.6741-1.3415-1.7325-3.5354-3.2545-5.1287-4.6149-.6992 1.5982-1.0988 2.9945-.7653 4.5226-2.3016-.7194-4.6782.3192-6.8412 1.8332.7394 2.7159 1.9252 5.2151 4.0887 6.3445z" fill="#eac102"/><path d="m354.9519 65.4105c-3.8661-3.116-7.4054-3.6847-12.0593-6.3167" fill="none"/><path d="m353.8298 67.9108c.6224.2964 1.3051.4691 2.0418.4691 2.6256 0 4.7541-2.1087 4.7541-4.7099 0-1.586-.7954-2.9725-2.008-3.826-2.3887 1.504-4.4179 5.1483-4.7879 8.0668z" fill="#ed1c24" fill-rule="evenodd"/><path d="m266.1769 41.7075c-5.6807 2.3505-8.0452 1.0953-10.4372 3.3509l-2.8035 2.6438v5.864l2.8035 2.6442c2.3915 2.2557 4.7565 1 10.4372 3.3509.2329-1.7757.1313-3.2445-1.0953-4.5518 3.6806-.2198 6.6135-2.1086 9.0056-4.3753-2.3922-2.2663-5.3251-4.1555-9.0056-4.3753 1.2266-1.3074 1.3281-2.7757 1.0953-4.5515z" fill="#eac102"/><path d="m254.3045 50.6341h16.3823" fill="none"/><path d="m254.754 50.6341c0 2.6162-2.1284 4.7371-4.754 4.7371s-4.754-2.1209-4.754-4.7371 2.1284-4.737 4.754-4.737 4.754 2.1208 4.754 4.737z" fill="#ed1c24" fill-rule="evenodd"/><path d="m250 97.1567c-65.6868 0-85.7728-7.4824-85.7728-8.6007s20.086-8.6007 85.7728-8.6007 85.7727 7.4824 85.7727 8.6007-20.086 8.6007-85.7727 8.6007zm-64.7801 1.4877c-15.295-2.0121-26.5979-5.1771-26.5979-10.0884 0-11.4141 61.0491-13.3958 91.3779-13.3958s91.3779 1.9817 91.3779 13.3958c0 4.9113-11.3029 8.0763-26.5979 10.0884z" fill="#eac102" fill-rule="evenodd"/><path d="m201.3731 98.6446-32.4445 6.8774c-1.2135-5.8047-2.3594-11.0788-5.1352-16.5068-1.4756-2.8853 28.0825-9.4351 86.2066-9.4351s87.6821 6.5498 86.2066 9.4351c-2.7758 5.428-3.9217 10.7021-5.1352 16.5068l-32.4445-6.8774z" fill="#eac102"/><path d="m192.5781 86.8534 16.8392-1.5665c1.6844-.1567 3.1676 1.062 3.3256 2.7326.158 1.6705-1.0708 3.1415-2.7553 3.2982l-16.8392 1.5664c-1.6844.1567-3.1676-1.062-3.3256-2.7325-.158-1.6706 1.0708-3.1416 2.7552-3.2982z" fill="#008f4c" fill-rule="evenodd"/><path d="m183.6766 91.6471c0 2.0372-1.6574 3.6887-3.7019 3.6887s-3.7019-1.6515-3.7019-3.6887 1.6574-3.6887 3.7019-3.6887 3.7019 1.6515 3.7019 3.6887z" fill="#e5e5e5" fill-rule="evenodd"/><path d="m228.1324 87.6316c0 2.0372-1.6574 3.6887-3.7019 3.6887s-3.7019-1.6515-3.7019-3.6887 1.6574-3.6887 3.7019-3.6887 3.7019 1.6515 3.7019 3.6887z" fill="#e5e5e5" fill-rule="evenodd"/><path d="m163.5467 96.8934 1.8787-4.2011 6.1078 1.0515-4.0712 5.3992z" fill="#ed1c24"/><path d="m329.3718 106.9996c0 1.0372-18.5871 7.9774-79.3718 7.9774s-79.3718-6.9402-79.3718-7.9774c0-1.0373 18.5871-7.9776 79.3718-7.9776 60.7848 0 79.3718 6.9402 79.3718 7.9776zm5.1869 0c0 10.5871-56.4932 12.4251-84.5587 12.4251s-84.5587-1.838-84.5587-12.4251 56.4932-12.4252 84.5587-12.4252 84.5587 1.8381 84.5587 12.4252z" fill="#eac102" fill-rule="evenodd"/><path d="m240.8805 83.9888-4.7384 3.1663 4.7384 3.166h18.2391l4.7384-3.166-4.7384-3.1663z" fill="#ed1c24"/><path d="m307.2278 86.8534-16.8392-1.5665c-1.6844-.1567-3.1676 1.062-3.3256 2.7326-.158 1.6705 1.0709 3.1415 2.7553 3.2982l16.8392 1.5664c1.6844.1567 3.1676-1.062 3.3256-2.7325s-1.0709-3.1416-2.7553-3.2982z" fill="#008f4c" fill-rule="evenodd"/><path d="m336.2593 96.8934-1.8787-4.2011-6.1078 1.0515 4.0713 5.3992z" fill="#ed1c24"/><path d="m316.3235 91.6471c0 2.0372 1.6574 3.6887 3.7019 3.6887s3.7019-1.6515 3.7019-3.6887-1.6574-3.6887-3.7019-3.6887-3.7019 1.6515-3.7019 3.6887z" fill="#e5e5e5" fill-rule="evenodd"/><path d="m271.8677 87.6316c0 2.0372 1.6574 3.6887 3.7019 3.6887s3.7019-1.6515 3.7019-3.6887-1.6574-3.6887-3.7019-3.6887-3.7019 1.6515-3.7019 3.6887z" fill="#e5e5e5" fill-rule="evenodd"/><path d="m192.5943 57.8306c0 4.3425-3.5328 7.8628-7.8909 7.8628-4.358 0-7.8908-3.5203-7.8908-7.8628 0-4.3424 3.5328-7.8627 7.8908-7.8627s7.8909 3.5203 7.8909 7.8627z" fill="#e5e5e5" fill-rule="evenodd"/><path d="m196.1073 45.2282c0 4.3425-3.5328 7.8627-7.8908 7.8627s-7.8909-3.5202-7.8909-7.8627c0-4.3424 3.5328-7.8627 7.8909-7.8627 4.358 0 7.8908 3.5203 7.8908 7.8627z" fill="#e5e5e5" fill-rule="evenodd"/><path d="m205.4861 55.0648c0 4.3426-3.5328 7.8628-7.8909 7.8628s-7.8908-3.5202-7.8908-7.8628c0-4.3424 3.5328-7.8627 7.8908-7.8627s7.8909 3.5203 7.8909 7.8627z" fill="#e5e5e5" fill-rule="evenodd"/><path d="m307.4057 57.8306c0 4.3425 3.5328 7.8628 7.8909 7.8628 4.358 0 7.8908-3.5203 7.8908-7.8628 0-4.3424-3.5328-7.8627-7.8908-7.8627s-7.8909 3.5203-7.8909 7.8627z" fill="#e5e5e5" fill-rule="evenodd"/><path d="m303.8927 45.2282c0 4.3425 3.5328 7.8627 7.8908 7.8627s7.8909-3.5202 7.8909-7.8627c0-4.3424-3.5328-7.8627-7.8909-7.8627-4.358 0-7.8908 3.5203-7.8908 7.8627z" fill="#e5e5e5" fill-rule="evenodd"/><path d="m294.5139 55.0648c0 4.3426 3.5328 7.8628 7.8909 7.8628 4.358 0 7.8908-3.5202 7.8908-7.8628 0-4.3424-3.5328-7.8627-7.8908-7.8627s-7.8909 3.5203-7.8909 7.8627z" fill="#e5e5e5" fill-rule="evenodd"/></g></g><g><path d="m217.6572 519.3115h18.7106c2.586 0 5.1669-2.3869 7.7506-2.9786.4344.5215 1.4236 2.9786 3.0883 2.9786h9.6145c2.2753 0 3.1753-2.4187 4.7335-2.9786 1.9032.9307 5.634 2.9786 9.0449 2.9786h11.7443c-11.244-3.3774-15.1604-9.6629-15.3743-16.7022-.2573-8.4717.6735-34.5256.097-39.7756-1.6486-15.0533-.4462-42.7645-1.1449-50.2321-.3652-3.905-1.2053-13.7143-.352-20.2553.4946-3.7926-.3152-6.3111 2.1859-9.1866 3.8319-4.4059 19.1592-18.7342 30.9482-24.0665 9.0645-4.0998 35.1688-3.9842 40.7962-5.8177l-1.3722-4.0148c-1.5425-1.4889-27.5681 1.0115-32.5197-.8968-6.3787-2.4585 10.7133-19.9097 12.7393-21.893l-5.0525-1.8907c-12.4696 5.6852-22.2815 27.191-24.7327 29.2536-7.0316 5.9168-18.8931 12.8713-22.5524 12.8475.354-6.6313-.2703-11.2529.9077-15.0697 3.6356-11.7808 20.7823-34.8411 28.3974-42.0202l-4.7807-4.0648c-4.6085 2.8611-8.7969 10.9649-15.4423 16.6402-1.2106-.4144-4.2613-7.2614-6.2081-9.4413l-4.722 2.3369c-.018 1.949 4.0697 14.3993 3.8605 15.804-3.4987 4.995-6.6436 9.8895-8.569 13.4187-2.1989 4.0303-6.6291 13.325-9.4533 20.422-1.9693 4.9489-4.3245 10.0243-4.0044 16.543-.3187-6.5318 2.047-11.5921 4.0044-16.543-3.0532-2.8209-8.0409-7.0125-10.8952-10.9664-1.0624-1.4718.038-16.4367 1.0652-17.888 1.8315-2.5887 1.3884-10.4588 2.4264-19.3251.5202-4.4442 16.703-15.065 17.5986-15.7551l-2.5026-3.6612c-4.6125.1301-17.949 8.3103-22.237 14.167-1.7415.2011-16.8995-10.653-20.4192-14.167l-3.6146 2.2755c2.6999 3.1144 5.6683 5.6245 8.4698 8.0482 2.5509 2.207 13.7404 11.708 12.5877 15.5323-2.5704 8.5283-3.8754 23.5942-4.6988 25.0181-4.5377-1.6297-20.1932-11.3634-27.9088-12.9678-4.4542-6.6463-8.9276-20.1469-14.0539-25.8663l-4.5684 1.4895c2.4633 8.7198 5.0181 16.5967 8.8022 25.0441-6.8559 1.0692-12.5698-10.2755-29.5514-2.9098l1.1687 5.1681c15.3939-4.1631 24.5476 10.195 36.1734 7.4214 12.5848 4.5674 27.8227 13.3943 29.6038 26.7057.9152 6.8394 1.8175 11.427 1.5723 15.9516.9274 3.5325 2.2832 5.0981 3.5376 9.2348.9391 3.0967 1.6068 9.5068 1.3922 15.3448-.4318 11.7429 1.0622 42.2.2973 54.5015-2.7012 8.2623-.6928 27.8447-1.2141 35.5062-.6266 9.2069-1.0289 12.7492-15.3746 16.7022z" fill="#c87137"/><g fill="#008f4c" fill-rule="evenodd"><path d="m165.1894 312.3143c-3.0181-.8126-4.7234 4.6971-8.6737.1553-3.8736-4.4536-4.5873 13.5112-8.598 5.8252-2.6814-5.139-4.8032-1.2627-8.2497-.4693-2.2975.5289 2.065-5.4562-2.9767-3.0722-6.74 3.187-2.647-6.8123-8.7296-4.1136-5.1256 2.274-.4308-8.1813-7.6076-6.3575-7.4989 1.9057-6.7154-7.4117-14.3546-6.5829-6.8505.7432 3.5329-10.2825-4.7842-6.6573-4.9537 2.1592-4.0526-1.543-5.035-4.7597-.9085-2.9746-8.8581-4.8591-1.9484-6.5525 7.2682-1.7813-2.082-3.4163-2.7673-6.6712-.4655-2.2108 10.3539-2.0041 3.5052-4.1467-2.193-.6861 2.9575-5.9361-2.1396-3.8411-7.3714 3.0299.1815-8.1878-5.6646-8.2543-7.2291-.0822-2.8154-6.875.7919-8.276 3.0429-1.1817-12.2489-.2606-6.4511-3.8926 4.1274-2.5856-.4835-1.9579-1.676-3.5775-3.1877-4.3296 13.5704-2.6659 3.8877-4.934-8.5812-2.0101 4.032-6.6579 8.7224-6.0351 3.4096.4527.5407-2.2637 4.732-3.2208 2.2-.5024-8.038-4.687-1.8149-6.2135 3.2805-.8046 7.0559-3.6507 2.394-3.916-7.5367-.429 4.0574-7.3631-3.6369-6.6799-5.5149.4897-5.1328-1.3599-.875-3.987 4.7291-2.9178 9.4303-4.997 13.2505-.35 2.7524 3.3479 11.6702-3.7906 7.1945-3.2989-6.287.6907-1.8118-4.9446-3.9418-4.4801-6.9017 1.5052-8.0142-5.8319-1.2773-5.9164 4.581-.0574-.3104-6.3838 4.9142-3.4863 3.2571 1.8064 7.8118-2.2841 8.7549-.975 4.4361 6.1575 13.7831-1.7746 14.1327 4.9904.2599 5.0272 2.7378 4.956 4.5551-.2065 1.6366-4.6487-3.1269-5.6119 2.4228-5.2989 4.9968.2818-2.6145-7.8076 3.4511-4.5151 2.8237 1.5327 4.2618 6.9029 5.7603.5484 1.1511-4.8818 6.3534 2.5419 12.2366.5895 5.9699-1.981.5214 19.9871 8.6539 12.5195"/><path d="m85.8714 245.5212c1.8962 3.7199-9.5612-1.7453-6.2059 4.638 4.931 9.3801-10.9399-1.6192-9.0002 5.2806 2.2251 7.9142 1.9785 7.1951 0 10.4839-.7198 1.1966 3.8103.3227 3.6912 2.116-.1642 2.4599-3.6912 3.2745-3.6912 4.6997 0 2.8403 7.0429 3.8511 5.7909 6.4613-2.4784 5.1677.166 4.4649 2.6212 7.5062 3.482 4.3135-2.1226 11.827 3.1789 16.3606 3.5232 3.013-3.1134 12.2865 4.0753 10.9337 8.7879-1.6538-5.7289 9.5015 2.7619 10.2679 5.0134.4525 4.1154 14.397 8.5493 6.4026 4.5028-8.1191 4.328 7.3736 6.442 6.0493 2.5674-1.6082 4.5674-9.1114 4.5046-1.6075-.029 3.4083 7.1542-.8647 3.0326 4.7908-3.8127 5.2318 7.6295 5.9924 7.5137 6.5128-1.8814 8.4569 4.2728 11.5127 8.3221 5.4172 1.5143-2.2796-3.3971 14.5256 1.9175 10.7095 4.7913-3.4402 1.9566.4501 3.5287 3.1016 3.107 5.2402 8.5407-11.6626 6.0075-2.4124-.8792 3.2102.3699 8.4353 1.7337 8.4353 2.7078 0 5.8254-7.0597 5.6644-11.2373-.1353-3.5135.065-3.3806 3.4567-3.6092 3.4369-.2316 2.1071-5.7851 2.9117-.3235.9296 6.3114 2.4614.0188 5.919-2.1727 4.8198-3.055-.3321 9.9387 5.8829 6.9022 7.0157-3.4277-1.6611 11.3834 4.1096 10.4404 4.5461-.7429 10.8937-8.0852 6.572-15.0383-2.8749-4.625 3.7098-14.2855 5.5311-8.7034 1.0824 3.3177-3.3697 6.2409 1.2809 5.7071 4.6087-.5291-2.4176 3.6805 2.0584 7.4972 5.8876 5.0205 2.896-7.404 9.1842-1.2533 1.9671 1.9241-2.0573-8.694 4.1132-11.1952 4.2602-1.727-3.2452-7.2217-.1624-11.5895 4.6259-6.5541-10.2571-7.2118-4.7716-12.5825 3.0062-2.9434 4.4442 6.2241 9.7634 4.5041 5.8076-1.8779 1.0974-1.7308 5.6718-.2841 4.1612 1.316-7.4295-13.9017.3229-10.0916 6.6233 3.2553-.6085-7.2012 3.3302-11.8732 4.3766-5.1916-8.8148-6.7403-8.8324-10.5132 0-1.488 2.4372-1.5257 3.4655-2.6938"/><path d="m395.2011 259.6641c-.3338 3.0306 14.7193-1.9061 13.2018 3.9112-1.8715 7.1743 13.2878-4.8728 11.4898 1.581-1.536 5.5134-2.5199 5.3959 3.3627 5.9413 5.1923.4814-7.0792 2.1213-.3969 3.7903 7.9779 1.9927-3.4589 3.4182 5.7548 8.3795 4.1079 2.2119-7.6579 6.1252-2.9333 10.0938 4.1889 3.5186-1.7359 5.5798 2.9333 11.6668 2.0609 2.6867-11.9605-.3554 0 8.835 2.9793 2.2893-7.1988 2.357-5.0134 8.9073 1.2796 3.8351-12.1307-4.698-8.7188 2.9804 3.135 7.055-8.2418.0323-7.2341 1.5042 3.4626 5.0569-5.1027 4.9423-2.9207 5.6614 8.7401 2.8802-3.9375 6.6022-3.1282 7.3726 4.4024 4.19 1.105 8.5058-5.5654 6.2242-3.8745-1.3253 9.3504 6.5253 1.3404 6.9725-4.1247.2303-4.2968-2.681-3.047 2.8218 1.1122 4.8962-10.9214-1.2593-10.0772-.7523 6.791 4.0795.043 7.8319-4.7049 4.0043-2.7079-2.1827-2.8365-4.3584-7.0989-3.1544-4.4667 1.2618-2.6257-2.1688-3.0812 1.886-.7581 6.7495-11.5968-5.1428-9.7616 2.3244 1.8971 7.7187.5003 3.2871-1.537 10.2657-.6534 2.2387-7.2134-4.4441-9.9221-4.2812-5.2531.3159-1.3685-3.3231-5.8234-7.0261-3.2308-2.6856-10.2003-.4197-2.8449 2.2119 3.1343 1.1213-9.0645 2.3391-2.1757 4.7814 2.7468.9738-.604 5.3716-3.424 4.3141-3.4823-1.3058-5.3233 2.4027-8.1181 0-3.9199-3.37-4.4786-3.1975-7.8114-5.7746-2.6005-2.0109.976-5.6542-3.9887-7.4945-6.6252-2.4559 3.2575-3.9254-2.5382-6.1961-1.8262-.7155-3.8949.6734-5.625 2.15-2.638 2.2517-3.7197-2.5948-5.9478.7897-2.605 3.9569-.7485-8.2493-1.7824-7.3749-3.0495 2.579-6.9612 4.28-6.5973-1.0682.2405-3.5353-5.8042-4.9921-7.5614-7.35-2.8462-3.8198 15.6326-8.8491 14.0606-11.1323-.8838-1.2838-9.242-2.7465-10.7394-3.2071"/><path d="m272.433 319.461c3.6351-.7277-.9587 6.0934 5.7151 4.256 8.863-2.4402-4.8986 10.2205 2.4517 9.3648 5.0408-.5869 6.8849-3.9372 7.8529 1.4056.8924 4.9253 2.3082-6.0336 5.0134-.0993 2.5496 5.5932 5.8239-5.193 10.1187 1.515 1.9595 3.0605 5.6255-6.8192 10.6095-2.6623 5.4236 4.5234 10.147-3.513 16.3444 1.0431 3.9133 2.8769 3.1202-10.9027 7.5588-3.5373 3.999 6.6358 5.7357-3.7696 12.7707-2.5487 5.7712 1.0016-6.3987-8.4091 2.0241-7.4435 3.8754.4443 7.233.1116 3.6044-3.3243-3.1125-2.9473-1.7084-2.056 2.3092-2.2312 1.9124-.0834 1.0512-6.3999 3.9111-2.1218 3.236 4.8409 7.6117-5.2868 7.7753-5.184 5.0926 3.1982 10.6856.2082 7.0591-5.3711-1.9963-3.0715 8.64 7.0194 8.5601.1862-.04-3.4189-2.401-3.1739 3.1047-2.9163 5.6172.2628-2.5952-8.8892-1.7463-8.1124 5.247 4.8004 9.6449-.89 4.4614-4.3654-2.7151-1.8203-5.984-.4003-4.4379-5.3666 1.307-4.1981-2.659-1.9784 2.0133-2.7828 7.2341-1.2455-6.8034-10.2171 2.5003-7.9175 6.9756 1.7242.8054-8.4311 8.2336-3.6444 7.4315 4.7889 1.3833-5.5921.5484-8.369-1.3177-4.383-7.5123.5472-12.013-2.3127-3.9612-2.5171-1.2738-8.0128 2.3525-2.6562 1.9958 2.9482 1.2706-7.0148 5.9659-2.0416 2.2833 2.4184 8.7157-3.3619 3.6242-5.7491-4.5798-2.1474 5.8027-4.5024-1.5334-5.3335-3.8111-.4318-3.023-1.4652-5.5744-4.8302-2.5779-3.3998-6.9642 1.3275-9.8012-2.4069-4.1347-5.4426-9.5851 7.9249-11.5602 1.8848-1.4356-4.3906.6058-6.211 5.6682-7.6115 1.584-.4382-5.5286-2.541-.036-4.8246 6.6618-2.7697-9.4425.2003-8.1777-.8944 2.8733-2.487 4.5658-6.2543-1.8581-5.2474-4.2127.6603-3.8465-2.0724-6.3718-3.0388-5.2105-1.9939-7.607 7.0395-10.7953 6.015-1.2489-.4013-.579-2.5162-1.2826-3.6801"/><path d="m298.6725 182.6299c2.3235.908 1.3708-5.3291 5.3814-3.5745 5.5277 2.4184-.8218-8.2435 4.6886-8.2088 2.9671.0186 3.4157 4.4902 5.9424-.4093 2.7095-5.2537-.086 5.0063 3.8065-.2377 3.6743-4.9479 2.9249 4.9998 7.4326-.6965 1.7401-2.1991 1.4869 6.2967 6.0272 2.654 5.2158-4.1845 6.3002 3.2949 11.194-.0415 6.0331-4.1133-.2862 8.9067 5.0061 3.228 3.6393-3.905 3.1037-.7532 4.916 1.5262 1.533 1.928 7.1322.5968 2.4552 4.2932-5.9998 4.7419 4.2696 2.5287 3.2365 4.3582-1.2672 2.244-6.9652 5.1778-1.6201 3.9624 2.0501-.4661-1.616 6.1851 2.762 1.773 3.6284-3.6565 3.1976 5.2607 3.4511 5.1298 5.9487-3.0722 7.0781 2.0407 2.605 5.9784-1.5792 1.3903 9.3199-4.8485 6.1788.0903-2.4647 3.8752-.8541 1.3876 1.5983 2.2635 3.5662 1.2737-9.0432 8.8809-2.3524 5.4957 6.0552-3.0636 1.4708 5.6561-2.5401 6.3927-1.997.3668-2.1152.5665-2.3127 3.2831-.2418 3.3235-4.1576 2.3491-.1444 2.5948 3.4012.2082-1.224 2.7782-2.8287 5.0314-1.7484 2.4553 4.1363-.3993 4.6219 1.3061.8492 2.9822-2.303 6.5992 2.6718 4.0511 6.0552-3.1013-1.5524 5.0216-2.7241 7.2463-2.3623 4.4852-4.89-.4832-9.4296 1.9633-2.9514 1.5906-3.8195 7.2685.2436 2.8184 2.9515-3.2327-1.4938 6.2966 3.8515 1.6969 2.5498-2.1941 4.3705 3.6857.1444 5.4972-3.3059 1.417 2.794 3.7578-2.2136 4.2729-3.0574.3145-3.5791 1.4604-5.652 4.1082-1.611 2.058-4.4039-2.0174-7.3604 1.4982-2.4547 2.9192-3.4785.4784-4.7157-1.8701-.8176-1.5521-3.1639-1.0492-2.706 1.9583.4634 3.043 2.3721 4.8694.9922 5.5698-4.9345 2.5046.065 3.7258-1.0716 5.2768-2.1475 2.9299-7.7571-4.2487-6.5125 1.3518 1.0911 4.9099-4.9347.7627-8.4933 4.5554-3.2211 3.433-3.6613-6.8708-6.2113-5.2485-.9642.6136-1.0571 1.9653-1.8599 2.8399"/><path d="m195.8632 318.3851c3.6351-.7279-.9585 6.0935 5.7151 4.2561 8.863-2.4401-4.8984 10.2201 2.4517 9.3643 5.039-.5868 6.8848-3.9363 7.8529 1.4061.8924 4.9254 2.3089-6.0339 5.0133-.103 2.5504 5.593 5.8241-5.1927 10.1188 1.5154 1.9595 3.0605 5.6251-14.492 10.6094-10.3349 5.4233 4.5232 7.4651-3.5138 13.6619 1.0425 3.9118 2.8762 8.4854-8.1942 12.924-.829 3.9989 6.6356 3.0531 1.195 10.0881 2.416 5.7712 1.0017-6.3987-8.4091 2.0241-7.4437 3.8755.4442 7.2337.1143 3.6044-3.3241-3.1116-2.948-1.7082-2.0559 2.3091-2.2312 1.9125-.0834 1.05-6.3989 3.9094-2.1218 3.2369 4.842 7.6135-5.2868 7.7771-5.184 5.0925 3.1986 10.6857.2082 7.0591-5.3711-1.9963-3.0712 8.64 7.0194 8.5601.1864-.04-3.4189-2.401-3.1738 3.1047-2.9161 5.6174.2628-2.5969-8.8904-1.7463-8.1126 5.2477 4.7991 9.645-.8899 4.4614-4.3656-2.7149-1.8204-5.984-.4003-4.4379-5.3666 1.3068-4.1979-2.659-1.9784 2.0132-2.7828 7.2342-1.2455-6.8033-10.217 2.5004-7.9175 6.9756 1.7241.8052-8.4306 8.2336-3.6438 7.4313 4.7885 3.3951-7.8353.5484-8.3694-20.6909-3.8821-7.1598-9.478-3.6946-7.0101 2.7085 1.9289 8.7159-3.3626 3.6242-5.7497-4.5798-2.1472 5.8028-4.5025-1.5334-5.3334-3.811-.4317-3.023-1.4646-5.5744-4.8302-2.5776-3.4001-6.9642 1.3273-9.8012-2.4069-4.1349-5.4424-9.5828 7.9259-11.5602 1.8848-1.4369-4.3901.6058-6.211 5.6682-7.6113 1.5841-.4382-5.5286-2.541-.036-4.8246 6.6619-2.7697-9.4424.2-8.1776-.8948 2.8733-2.487 4.5658-6.2544-1.8581-5.2472-4.2128.6605-3.8465-2.0723-6.3718-3.0387-5.2106-1.994-7.607 7.0391-10.7953 6.0148-1.2485-.4011-.5791-2.5159-1.2826-3.68"/><path d="m96.2416 257.7718s1.399.318 1.3711.8567c-.1011 1.9577-4.8842.6598-5.2786 2.58-.5093 2.4796 9.0031 6.3698 4.9502 5.7542-5.3651-.815-15.6639 2.2904-11.8037 3.4545 0 0 6.7377-.2702 7.3532 2.2175.6559 2.6508-7.0782 3.3255-5.827 5.752.8827 1.7118 4.5187-2.5384 5.6845-1.0057 1.189 1.5632-3.321 3.5252-2.5292 5.3231 1.0376 2.3556 6.6115-.2039 7.3784 2.2534.477 1.5287-3.5572 2.2764-2.9766 3.7688.9943 2.5562 6.211-.6691 8.1162 1.3023 1.9262 1.9928-.6086 6.0284 1.0446 8.2533 1.3672 1.84 4.9426.9293 6.2816 2.79 1.3059 1.8146-1.1301 5.313.6386 6.6792 2.3833 1.841 7.0712-3.834 8.9137-1.4506 1.4937 1.9324-4.1682 4.5924-2.9496 6.7095 1.3061 2.2689 5.4813-.3476 7.7988.8664 1.9196 1.0056 2.1054 4.8924 4.2719 4.904 2.7594.0144 2.7484-6.2183 5.5077-6.1877 2.7071.0301 2.5647 6.3428 5.2677 6.1893 2.4387-.1385 1.6647-6.3633 4.0915-6.0864 1.3961.1593.2731 3.2676 1.5064 3.9417 1.8424 1.0071 5.0523-3.0721 6.1643-1.2895.8497 1.3622-5.6404 1.5263-2.9514 3.8055 3.1895 2.7033 6.4752-.653 10.5463.7057 3.1996 1.0678 1.7185 9.5152 4.5047 7.1042l6.1445-5.3173c2.1283-1.8418-3.3375 5.7694 1.003 8.2744 2.4042 1.3875 4.0128-5.3902 6.2473-4.235 1.1964.6186-.9208 3.153.09 4.0435 1.1649 1.0262 3.3466.3846 4.6291-.4898 1.9469-1.3275 1.0485-7.0715 3.2653-6.2744 1.4605.5251-1.4277 3.0758-.967 4.5594.3318 1.0677 1.3215 2.1886 2.4319 2.3074 1.9236.2059 3.9279-1.3777 4.961-3.0151 1.5378-2.4368-1.7062-7.3296.8768-8.6026.922-.4544 1.6438 1.9419 2.6212 1.6245 1.4964-.4859.2214-4.273 1.7914-4.3714 1.5762-.0988.9834 3.3051 2.3308 4.1297 1.2442.7615 3.2532 1.1163 4.3711.1788 1.2773-1.0711-.718-4.0429.6747-4.9584 1.3146-.8642 3.6328-.009 4.5426 1.2756.6963.9828-1.1817 2.871-.2291 3.6075 2.0775 1.6065 5.2331-3.8352 7.4776-2.4727 2.1838 1.3255-1.169 6.7047 1.234 7.5703 2.5483.918 4.1669-3.4721 6.1174-5.353 1.412-1.3616 4.2071-2.3299 4.0338-4.285-.175-1.9701-3.7596-1.8285-4.7608-3.5335-1.0238-1.7436-1.8876-4.3207-.7866-6.0165 1.1156-1.7183 4.509-3.2593 5.8883-1.7452 1.2261 1.3456-3.1545 3.6494-2.0223 5.0749 1.4819 1.8656 5.685-3.0325 7.0592-1.0861.8585 1.2161-2.6682 2.5555-2.1107 3.9361.8543 2.1157 4.3947 2.9301 6.5125 2.0864 1.9748-.7868 1.1172-4.769 3.0776-5.5915 1.4505-.6085 3.4387 2.3974 4.5426 1.2759 1.9921-2.0238-3.868-5.7298-2.4192-8.1731.7501-1.2649 3.9495.5015 4.3098-.9246.6065-2.4011-5.4668-2.3532-5.6448-4.8235-.099-1.3721 2.3741-1.7703 2.7186-3.102.3616-1.3968.2172-3.3376-.9146-4.2309-1.2991-1.0252-3.4776.8446-4.961.112-1.4364-.7094-5.6993-4.6161-2.8378-3.8821 3.4385.882 6.5937.9526 8.6629-1.8703 1.7478-2.3844 2.1098 3.4026 3.5485 2.8944 1.4633-.5168-.4147-3.8489.9652-4.559 2.0459-1.053 8.2839 5.6915 6.3231 2.7689-1.7788-2.6513-13.7048-7.0217-7.5282-7.3991 0 0 6.9282 1.9319 8.1758-.4996 1.2865-2.5069-5.0532-4.3996-4.4902-7.1611.2315-1.1351 2.8484-.8251 2.8504-1.9836 0-1.1972-2.9388-2.06-2.9388-2.06-3.1601-2.2152-13.4201.7028-10.6491-1.7874l4.3242-3.886c.018-.0126-.054 0-.072-.0253"/><path d="m150.7681 189.8686c-1.3458-13.6845-7.7898-12.3387-9.5342-12.4027-1.952-.0704-3.0447-.1539-2.477 3.0077 1.3063 7.2735-9.3267-5.4889-11.4609.1841-1.4086 3.7444 5.1797 6.7205-2.504 6.7288-6.9128.007 6.5621 2.7294-.5286 3.9859-7.8433 1.3899 5.9831 6.1428-3.0993 8.0766-3.1233.665 7.7391 4.8027 2.2244 8.1686-4.6004 2.8078.027 6.0235-.7505 10.0323-.8466 4.3687-5.9839 6.0325.7703 7.3975 8.6083 1.7396-10.3644 4.1638-1.4053 7.4672 5.2944 1.9521-.8831 11.0828 6.9292 7.1177 8.9947-4.5651-.3716 9.0436 6.72 5.5001 3.0537-1.5259 5.8194-2.8642 3.4944 1.1822-1.2237 2.1296 8.5433 1.8655 1.979 4.067-5.8744 1.9702 5.4588 6.8479 5.3273 6.9564-4.5806 3.7822-.9908 8.448 5.6267 6.3999 3.9577-1.2249-9.3132 6.1942-1.261 6.9176 4.0457.3634 4.3064-2.5001 3.1101 2.9047-1.1065 4.9996 10.9089-.899 10.0773-.4255-6.7772 3.8577.036 7.8241 4.75 4.1554 2.6854-2.0902 2.7843-4.2863 7.0699-2.9262 4.3286 1.3737 2.6287-2.0097 3.1156 1.9807.8351 6.8417 13.1469-4.323 9.8012 2.6372-3.5857 7.4595 10.0298 1.9731 2.6014 7.8945-5.9076 4.7093 7.2686 1.3765 10.5229 1.0671 5.2159-.4959-.2539-5.8507 4.1672-9.4403 3.1834-2.5845 10.2803-.1615 2.8991 2.2641-3.0861 1.0142 8.8866 1.6303 1.7319 5.0939-2.5845 1.2511 3.015 7.4848 6.5449 3.6496 3.1666-3.4403 4.7782 5.2232 6.6731-.5971 1.0265-3.1527 1.9294-2.8643 6.5468-3.9094 2.8866-.6534-1.6748-5.6674 3.756-7.3363 6.913-2.1242-6.1351-8.4093-.3717-10.0027 2.8708-.7937 7.7025 1.5312 8.0388 3.0469 1.1206 5.0495 2.6051-.4792 4.8852.915 2.3175 1.417 2.9525 6.1113 3.8426 1.1097.5598-3.1456-3.2409-8.0661 2.0638-4.0759 6.4685 4.8654 2.3727-4.3018 8.6485-6.9812 4.3152-1.8423-7.4914-7.2373-5.9443-9.5046.5153-.755 2.8358-4.4332 4.962-7.4153"/><path d="m301.963 207.9515c-2.4246-2.0594 6.5432-2.5748 1.8834-6.2607-5.845-4.6233 11.0274-1.8922 8.367-6.7958-2.0073-3.7002-7.8249-2.1282-2.5923-5.9832 5.4185-3.9921-6.5806 1.4182-1.6922-3.8273 4.5817-4.9164-8.4959-1.1777-2.9983-7.5331 1.8596-2.1498-9.1079.2064-6.6821-5.2615 2.7681-6.2389-7.673-5.3681-5.8468-11.0821 2.2529-7.0491-11.564 2.5589-6.9004-4.1004 3.2907-4.6989-.644-3.2696-4.6074-4.4615-3.0974-.9315-4.5381-6.9184-6.9636-1.2994-3.0899 7.1584-5.4165-3.6932-7.4596-2.0538-2.1455 1.7217-3.1964 8.115-4.3801 2.6418-.5135-2.3737-7.5091 3.5297-3.7957-2.2635 2.8098-4.3835-8.6335-1.7798-8.5944-2.0652.9206-6.691-6.4445-6.4309-9.269-1.005-.9888 1.8993 2.4388-8.6109-.7938-7.1114-4.5326 2.1026-3.6831 2.2021-6.7993 0-3.638-2.5708-3.1286 8.287-8.791 0-2.1021-3.0764-5.1344 3.677-3.9418 8.0029.5452 1.9769.2002 2.2846-3.1155 3.1506-3.2572.8507-1.1005 4.4273-3.3483.8314-2.2888-3.6616-3.1534 2.0732-5.1523 4.1187-2.839 2.9052-2.3497-4.2043-4.1619-4.2267-3.7788-.0468-7.4985 4.0125-6.7578-1.5786.9034-6.819-5.8155 2.858-8.1325 4.5986-4.6807 3.5163 3.2364 4.5958 2.3795 9.8424-.5755 3.5236-7.7759 5.95-3.8516.4987 2.5947-3.6044-7.6637 3.414-4.2701-3.3624 1.5325-3.0601-7.1703-3.412-7.3352 1.3019-.1263 3.626-6.475-1.8779-4.4758 3.3124 1.1618 3.016.5838 3.2074-2.4462 6.6698-2.016 2.3037 5.2391 3.5074 1.9014 7.6718-2.4136 3.0116 1.4245 3.6011 4.9557 4.1712 2.1628.3492 3.0468 2.8542-1.1582 3.191-3.4675.2778-7.642-1.3689-7.8782.483-.7205 5.6525-4.5416.4778-6.4042 2.4461-2.5157 2.6585 9.7999 6.5509 1.6488 6.7957-6.9112.2075 2.1872 4.2289-1.537 9.5974-2.787 4.0176 11.0038 1.812 10.2036 4.763-.3307 1.2193-2.0368 1.5613-2.7692 2.585"/><path d="m307.8766 240.5737c-2.2045-2.0596 5.8897-2.626 1.712-6.2607-5.3764-4.6776 10.0753-1.7936 7.6075-6.7958-1.7107-3.4678-7.0903-2.1467-2.356-5.9834 4.9491-4.0108-5.9782 1.4129-1.5388-3.8272 4.17-4.922-7.6162-1.3028-2.7277-7.5333 1.7546-2.2362-8.2756.1954-6.0742-5.2615 2.5213-6.2493-6.9775-5.3662-5.3164-11.0821 2.0481-7.0473-10.5299 2.5863-6.2726-4.1004 2.9734-4.67-.6171-3.2794-4.1907-4.4615-2.8877-.9552-4.1294-6.9061-6.3303-1.2994-2.8145 7.17-4.9661-3.6578-6.7831-2.0537-1.9944 1.7607-2.9 8.1345-3.9815 2.6416-.4568-2.3201-6.7611 3.4152-3.4529-2.2634 2.6039-4.4696-7.8489-1.7795-7.8132-2.0652.8392-6.6907-5.8522-6.4465-8.4266-1.0052-.9054 1.9138 1.5286-10.6635-3.0686-6.0858-3.336 3.3219-1.5628.9093-3.4854-.9855-3.4753-3.4251-6.3216 11.2573-5.4698 3.7703.7777-6.8347-7.5238-.0974-6.4584 4.1926.4943 1.9903.2999 2.2505-2.8341 3.1506-3.2115.9224-.959 4.4963-3.0416.8314-2.0271-3.5676-2.7893 1.985-4.685 4.1187-2.4634 2.7727-1.9738-4.2019-3.7848-4.2265-3.5121-.0477-6.8169 3.999-6.1445-1.5788.823-6.8267-5.2871 2.8572-7.3947 4.5986-4.2551 3.5156 2.9303 4.6759 2.163 9.8424-.5206 3.5053-7.0063 5.856-3.4998.4989 2.4093-3.6808-6.9216 3.2924-3.884-3.3626 1.421-3.1131-6.5201-3.4089-6.6695 1.3021-.1136 3.6135-5.877-1.8529-4.0699 3.3124 1.0621 3.0356.3881 3.3892-2.2225 6.6698-1.8477 2.322 4.6881 3.6113 1.7282 7.6717-2.2563 3.0953 1.2908 3.6002 4.5065 4.1712 2.0566.3652 2.8354 2.8485-1.0536 3.191-3.2871.2895-6.9574-1.3019-7.1637.483-.6534 5.6538-4.2153.5795-5.8216 2.4463-2.3791 2.7651 8.9111 6.5507 1.4991 6.7955-6.2936.2079 1.8223 4.4914-1.3981 9.5974-2.6012 4.1245 10.0096 1.7951 9.2781 4.763-.2888 1.1721-1.8527 1.5613-2.5184 2.585"/></g><g fill="#ed1c24" stroke-width="1.2272"><path d="m240.68934606 292.4287512a15.70018936 15.70018936 0 1 1 -31.40046021 0 15.70018936 15.70018936 0 1 1 31.40046021 0z" stroke-width="1.00004528"/><path d="m290.74464606 292.4287512a15.70018936 15.70018936 0 1 1 -31.40046021 0 15.70018936 15.70018936 0 1 1 31.40046021 0z" stroke-width="1.00004528"/><path d="m265.71694606 251.3426512a15.70018936 15.70018936 0 1 1 -31.40046021 0 15.70018936 15.70018936 0 1 1 31.40046021 0z" stroke-width="1.00004528"/></g></g></g><path d="m1.5 1.5v348.5c0 137.172 111.328 248.5 248.5 248.5s248.5-111.328 248.5-248.5v-348.5z" fill="none" stroke="#000" stroke-linecap="round" stroke-linejoin="round" stroke-width="3"/></svg>