<?xml version="1.0" encoding="utf-8"?><!DOCTYPE svg PUBLIC "-//W3C//DTD SVG 1.1//EN" "http://www.w3.org/Graphics/SVG/1.1/DTD/svg11.dtd"><svg viewBox="0 0 600 810" xmlns="http://www.w3.org/2000/svg"><g stroke="#000" stroke-linecap="round" stroke-linejoin="round"><path d="m473.8071 203c0 7.0122-38.1058 21.2714-173.8071 21.2714s-173.8071-14.2592-173.8071-21.2714 38.1058-21.2715 173.8071-21.2715 173.8071 14.2593 173.8071 21.2715z" fill="#eac102"/><g fill="none"><path d="m147.422 193.829v18.341" stroke-width="5.5"/><path d="m153.859 192.34v21.319" stroke-width="5.25"/><path d="m160.296 191.363v23.273" stroke-width="5"/><path d="m166.733 190.154v25.692" stroke-width="4.75"/><path d="m173.171 189.084v27.832" stroke-width="4.5"/><path d="m179.608 188.153v29.693" stroke-width="4.25"/><path d="m186.045 187.223v31.553" stroke-width="4"/><path d="m192.482 186.432v33.135" stroke-width="3.75"/><path d="m198.92 185.92v34.159" stroke-width="3.5"/><path d="m205.357 185.316v35.368" stroke-width="3.25"/><path d="m211.794 184.385v37.229" stroke-width="3"/><path d="m218.232 183.873v38.253" stroke-width="2.75"/><path d="m224.669 183.641v38.718" stroke-width="2.5"/><path d="m231.106 183.082v39.834" stroke-width="2.25"/><path d="m237.543 182.617v40.765" stroke-width="2"/><path d="m243.981 182.338v41.323" stroke-width="1.75"/><path d="m250.418 181.92v42.16" stroke-width="1.5"/><path d="m256.855 181.64v42.719" stroke-width="1.25"/><path d="m263.292 180.803v44.394"/><path d="m269.73 180.803v44.394" stroke-width=".75"/><path d="m276.167 180.803v44.394" stroke-width=".5"/><path d="m282.604 180.803v44.394" stroke-width=".25"/><path d="m134.547 198.248v9.502" stroke-width="6"/><path d="m140.984 195.876v14.248" stroke-width="5.75"/><path d="m452.579 193.829v18.341" stroke-width="5.5"/><path d="m446.142 192.34v21.319" stroke-width="5.25"/><path d="m439.704 191.363v23.273" stroke-width="5"/><path d="m433.267 190.154v25.692" stroke-width="4.75"/><path d="m426.83 189.084v27.832" stroke-width="4.5"/><path d="m420.393 188.153v29.693" stroke-width="4.25"/><path d="m413.955 187.223v31.553" stroke-width="4"/><path d="m407.518 186.432v33.135" stroke-width="3.75"/><path d="m401.081 185.92v34.159" stroke-width="3.5"/><path d="m394.643 185.316v35.368" stroke-width="3.25"/><path d="m388.206 184.385v37.229" stroke-width="3"/><path d="m381.769 183.873v38.253" stroke-width="2.75"/><path d="m375.332 183.641v38.718" stroke-width="2.5"/><path d="m368.894 183.082v39.834" stroke-width="2.25"/><path d="m362.457 182.617v40.765" stroke-width="2"/><path d="m356.02 182.338v41.323" stroke-width="1.75"/><path d="m349.583 181.92v42.16" stroke-width="1.5"/><path d="m343.145 181.64v42.719" stroke-width="1.25"/><path d="m336.708 180.803v44.394"/><path d="m330.271 180.803v44.394" stroke-width=".75"/><path d="m323.834 180.803v44.394" stroke-width=".5"/><path d="m317.396 180.803v44.394" stroke-width=".25"/><path d="m465.453 198.248v9.502" stroke-width="6"/><path d="m459.016 195.876v14.248" stroke-width="5.75"/></g><g><path d="m418.459 117.1259c16.9383-13.8178 35.633-34.5719 48.1799-57.5675l11.4263-7.9287 11.9579-.1129-11.4136 36.0031-30.3785 33.0079z" fill="#eac102"/><path d="m490.2272 141.2903c5.2951-23.5962 15.96-47.8435 27.3182-72.1748l-12.5476-13.2878-14.9748-4.311c-12.5196 24.1444-24.7951 48.4857-41.7921 69.011z" fill="#eac102"/><path d="m475.7088 46.5874-.0001-3.1504-5.6168-3.6019-2.1845 8.0539z" fill="#eac102"/><path d="m498.6324 48.9249v-5.6873l5.4752-2.6102 2.0631 7.0995z" fill="#eac102"/><path d="m512.3987 57.7528v-5.6873l5.4752-2.6102 2.2452 6.8568z" fill="#eac102"/><path d="m512.5662 79.6352-28.2018-17.0454-23.0812 6.2958" fill="none"/><path d="m507.877 90.1549-29.3014-16.4912-23.6821 4.5491" fill="none"/><path d="m503.4288 100.6747-30.9633-15.9379-12.4503 2.162" fill="none"/><path d="m499.2657 111.1944-33.3971-15.3837-12.1847.6582" fill="none"/><path d="m495.5644 121.7142-36.8934-14.8305-11.7731-1.1739" fill="none"/><path d="m489.4282 119.3944-8.5365 17.2075" fill="none"/><path d="m498.0018 56.7755-5.3003 10.684" fill="none"/><path d="m509.4053 64.0133-5.2024 10.4868" fill="none"/><path d="m498.3523 71.1811-5.2734 10.6299" fill="none"/><path d="m509.9019 78.1244-5.0807 10.2417" fill="none"/><path d="m486.7938 64.2557-5.4129 10.9113" fill="none"/><path d="m498.8577 85.2748-5.1211 10.3226" fill="none"/><path d="m487.16 78.6298-5.3838 10.8526" fill="none"/><path d="m499.6299 98.8303-5.0664 10.2127" fill="none"/><path d="m487.6651 92.724-5.3353 10.7545" fill="none"/><path d="m475.7468 86.5238-5.576 11.2397" fill="none"/><path d="m485.8334 42.5697-.0001-3.1504-5.6168-3.6019-1.9417 8.1752z" fill="#eac102"/><path d="m517.5454 69.1155c1.1688-2.2443 3.7164-4.0537 6.9543-3.8424l-17.5284-13.5452-16.6302-8.3595-12.6552 2.96-12.4671 7.0099c1.1386.6832 2.9722 3.449 1.4201 6.2202l23.3842-8.0417z" fill="#eac102"/><path d="m490.3412 43.3683c1.2388 1.9731 1.1271 5.3619-.3181 8.1484" fill="none"/><path d="m466.3795 75.9236 6.4443-10.1269" fill="none"/><path d="m484.1771 53.6257-5.5831 10.467" fill="none"/><path d="m472.485 57.602-5.7156 9.6407" fill="none"/><path d="m472.6551 74.8768-6.6691 10.8565" fill="none"/><path d="m460.8141 77.1399-6.8821 10.8565" fill="none"/><path d="m452.6861 106.2233 7.432-9.9179" fill="none"/><path d="m485.0969 98.7829c-4.8885-2.5379-10.6714-.9645-12.9658 3.5278l-10.6191 20.7919 17.6489 9.1622 10.6191-20.7919c2.2944-4.4924.2058-10.152-4.6831-12.69z" fill="#eac102"/><path d="m464.9384 124.8813 10.7962 5.6047 10.619-20.7918c1.4103-2.7613.1381-6.2341-2.8525-7.7867-2.9906-1.5525-6.5334-.5794-7.9437 2.182z"/><path d="m497.9556 80.3772-5.092 10.0168 5.3923 2.9393 5.474-10.2226c.9398-1.755.5531-3.919-1.157-4.878-1.7103-.9591-3.7157.3709-4.6173 2.1445z"/><path d="m486.2414 73.7664-5.092 10.0168 5.3923 2.9393 5.474-10.2226c.9398-1.755.5531-3.919-1.157-4.878-1.7103-.9591-3.7157.3709-4.6173 2.1445z"/><path d="m490.3412 43.3687-25.1223 9.9692v-11.5688l4.8732-1.9338.0001 5.7846 5.2514-2.0841v-5.7843l4.8731-1.9338.0002 5.7846 5.2512-2.0841v-5.7843l4.8733-1.9338 1.699 6.0871z" fill="#eac102"/><path d="m490.3412 43.3687 34.1585 21.9045.0003-11.5688-6.6261-4.2491v5.7846l-7.1402-4.5789v-5.7843l-6.6261-4.2491v5.7846l-7.1399-4.5789-.0001-5.7843-6.6261-4.2491z" fill="#eac102"/><path d="m181.541 117.1259c-16.9383-13.8178-35.633-34.5719-48.1799-57.5675l-11.4263-7.9287-11.9579-.1129 11.4136 36.0031 30.3785 33.0079z" fill="#eac102"/><path d="m109.7728 141.2903c-5.2951-23.5962-15.96-47.8435-27.3182-72.1748l12.5475-13.2878 14.9748-4.311c12.5196 24.1444 24.7951 48.4857 41.7921 69.011z" fill="#eac102"/><path d="m124.2912 46.5874.0001-3.1504 5.6168-3.6019 2.1845 8.0539z" fill="#eac102"/><path d="m101.3676 48.9249v-5.6873l-5.4752-2.6102-2.0631 7.0995z" fill="#eac102"/><path d="m87.6012 57.7528v-5.6873l-5.4752-2.6102-2.2452 6.8568z" fill="#eac102"/><path d="m87.4337 79.6352 28.2019-17.0454 23.0813 6.2958" fill="none"/><path d="m92.123 90.1549 29.3014-16.4912 23.6821 4.5491" fill="none"/><path d="m96.5712 100.6747 30.9633-15.9379 12.4503 2.162" fill="none"/><path d="m100.7343 111.1944 33.3971-15.3837 12.1847.6582" fill="none"/><path d="m104.4356 121.7142 36.8935-14.8305 11.7731-1.1739" fill="none"/><path d="m110.5718 119.3944 8.5365 17.2075" fill="none"/><path d="m135.5705 109.3367 7.6418 15.4039" fill="none"/><path d="m101.9982 56.7755 5.3003 10.684" fill="none"/><path d="m90.5947 64.0133 5.2024 10.4867" fill="none"/><path d="m101.6477 71.1811 5.2735 10.6299" fill="none"/><path d="m90.0981 78.1244 5.0807 10.2417" fill="none"/><path d="m113.2062 64.2557 5.4129 10.9113" fill="none"/><path d="m101.1423 85.2748 5.121 10.3226" fill="none"/><path d="m112.84 78.6298 5.3838 10.8526" fill="none"/><path d="m100.3701 98.8303 5.0664 10.2127" fill="none"/><path d="m112.3349 92.724 5.3353 10.7545" fill="none"/><path d="m124.2532 86.5238 5.5759 11.2397" fill="none"/><path d="m114.1666 42.5697.0001-3.1504 5.6168-3.6019 1.9417 8.1752z" fill="#eac102"/><path d="m82.4546 69.1155c-1.1688-2.2443-3.7164-4.0537-6.9543-3.8424l17.5284-13.5452 16.6302-8.3595 12.6552 2.96 12.4672 7.0099c-1.1386.6832-2.9722 3.449-1.4201 6.2202l-23.3842-8.0417z" fill="#eac102"/><path d="m109.6588 43.3683c-1.2388 1.9731-1.1271 5.3619.3181 8.1484" fill="none"/><path d="m133.6205 75.9236-6.4443-10.1267" fill="none"/><path d="m115.8229 53.6257 5.5831 10.467" fill="none"/><path d="m127.515 57.602 5.7156 9.6407" fill="none"/><path d="m127.3449 74.8768 6.6691 10.8565" fill="none"/><path d="m139.1859 77.1399 6.8821 10.8565" fill="none"/><path d="m147.3139 106.2233-7.432-9.9179" fill="none"/><path d="m114.9031 98.7829c4.8885-2.5379 10.6714-.9645 12.9658 3.5278l10.6191 20.7919-17.6489 9.1622-10.6191-20.7919c-2.2944-4.4924-.2058-10.152 4.6831-12.69z" fill="#eac102"/><path d="m135.0616 124.8813-10.7962 5.6047-10.619-20.7918c-1.4103-2.7613-.1381-6.2341 2.8525-7.7867 2.9906-1.5525 6.5334-.5794 7.9437 2.182z"/><path d="m102.0444 80.3772 5.092 10.0168-5.3923 2.9393-5.474-10.2226c-.9398-1.755-.5531-3.919 1.157-4.878 1.7103-.9591 3.7157.3709 4.6173 2.1445z"/><path d="m113.7586 73.7664 5.092 10.0168-5.3923 2.9393-5.474-10.2226c-.9398-1.755-.5531-3.919 1.157-4.878 1.7103-.9591 3.7157.3709 4.6173 2.1445z"/><path d="m109.6584 43.3687 25.1228 9.9692v-11.5688l-4.8732-1.9338-.0001 5.7846-5.2514-2.0841v-5.7843l-4.8731-1.9338-.0002 5.7846-5.2512-2.0841v-5.7843l-4.8737-1.9338-1.6986 6.0871z" fill="#eac102"/><path d="m109.6584 43.3687-34.1584 21.9045v-11.5688l6.6261-4.2491v5.7846l7.1402-4.5789v-5.7843l6.6261-4.2491v5.7846l7.1398-4.5789.0002-5.7843 6.6259-4.2491z" fill="#eac102"/><path d="m417.9137 139.3047c15.1768-15.689 32.3599-36.2383 42.1016-52.4059-25.8501-8.2056-82.8623-19.0537-160.0153-19.0537s-134.1651 10.8481-160.0153 19.0537c9.7417 16.1676 26.9248 36.7169 42.1016 52.4059z" fill="#eac102"/><path d="m146.3161 96.4689c26.8426-7.0167 79.7089-16.2617 153.684-16.2617 73.975 0 126.8414 9.245 153.684 16.2617" fill="none"/><path d="m299.9999 92.2857v-12.0758" fill="none"/><path d="m265.6567 80.9441.8564 11.8784" fill="none"/><path d="m282.377 68.0607.4427 12.296" fill="none"/><path d="m283.2553 92.4566.3985 11.0684" fill="none"/><path d="m233.0043 82.8867 1.6594 11.4523" fill="none"/><path d="m202.1373 86.1522 2.3787 10.8545" fill="none"/><path d="m173.1221 90.6182 3.0563 10.3384" fill="none"/><path d="m247.987 69.599 1.3186 12.0722" fill="none"/><path d="m250.5887 93.5108 1.2151 11.2137" fill="none"/><path d="m215.3842 72.4811 2.1585 11.8738" fill="none"/><path d="m219.5717 95.5156 2.0754 11.4161" fill="none"/><path d="m184.6413 76.7489 2.9426 11.4474" fill="none"/><path d="m190.2997 98.7615 3.1724 12.3412" fill="none"/><path d="m155.9276 82.5287 3.625 10.8212" fill="none"/><path d="m446.8978 105.7098c-29.0896-7.2474-76.3643-13.4105-146.8978-13.4105-70.5336 0-117.8082 6.1632-146.8978 13.4105" fill="none"/><path d="m334.3433 80.9441-.8564 11.8784" fill="none"/><path d="m317.623 68.0607-.4427 12.296" fill="none"/><path d="m316.7448 92.4566-.3985 11.0684" fill="none"/><path d="m366.9957 82.8867-1.6594 11.4527" fill="none"/><path d="m397.8627 86.1522-2.3786 10.8545" fill="none"/><path d="m426.8779 90.6182-3.0563 10.3384" fill="none"/><path d="m352.0133 69.599-1.319 12.0722" fill="none"/><path d="m349.4113 93.5108-1.2151 11.2137" fill="none"/><path d="m384.6158 72.4811-2.1585 11.8738" fill="none"/><path d="m380.4283 95.5156-2.0754 11.4161" fill="none"/><path d="m415.3587 76.7489-2.9426 11.4475" fill="none"/><path d="m409.7004 98.7615-3.1725 12.3412" fill="none"/><path d="m444.0724 82.5287-3.625 10.8212" fill="none"/><path d="m162.9488 103.4882 4.482 13.3796" fill="none"/><path d="m335.5517 106.0819c-7.8509-22.4453-10.5472-50.3284-10.5472-81.4926l-25.0045-3.7606-25.0045 3.7606c0 31.1641-2.6964 59.0473-10.5473 81.4926z" fill="#eac102"/><path d="m269.3066 90.4681h61.3868" fill="#008f4c"/><path d="m271.6926 77.2923h56.6151" fill="#008f4c"/><path d="m273.3364 64.1166h53.3275" fill="#008f4c"/><path d="m274.9195 37.7651h50.1612" fill="#008f4c"/><path d="m300 37.7651v13.1759" fill="#008f4c"/><path d="m278.939 50.941v-13.1759" fill="#008f4c"/><path d="m321.061 50.941v-13.1759" fill="#008f4c"/><path d="m279.7612.5-2.7913 10.3118 5.6728.4853v-5.9667z" fill="#eac102"/><path d="m320.2398.5 2.67 10.6756-5.5511.1213v-5.9667z" fill="#eac102"/><path d="m325.0046 24.589c0-3.235 6.2436-6.7466 8.7279-7.6143l-33.7322-3.6393-33.7323 3.6393c2.4842.8678 8.7277 4.3794 8.7277 7.6143z" fill="#eac102"/><path d="m300.0002 64.1166v13.1759" fill="#008f4c"/><path d="m278.939 77.2925v-13.1759" fill="#008f4c"/><path d="m321.061 77.2925v-13.1759" fill="#008f4c"/><path d="m278.939 105.1241v-14.656" fill="#008f4c"/><path d="m321.061 105.1241v-14.656" fill="#008f4c"/><path d="m310.5307 24.5893v13.1759" fill="#008f4c"/><path d="m289.4695 37.7652v-13.1759" fill="#008f4c"/><path d="m310.5307 50.9407v13.1759" fill="#008f4c"/><path d="m289.4695 64.1166v-13.1759" fill="#008f4c"/><path d="m274.378 50.9408h51.2439" fill="#008f4c"/><path d="m314.5454 59.487h-8.0297v-12.9333c0-2.3041 1.7906-4.1591 4.0149-4.1591s4.0149 1.8549 4.0149 4.1591z" fill-rule="evenodd"/><path d="m293.4842 59.487h-8.0297v-12.9333c0-2.3041 1.7906-4.1591 4.0149-4.1591s4.0149 1.8549 4.0149 4.1591z" fill-rule="evenodd"/><path d="m266.2679.5v16.4747h67.4648v-16.4747h-13.4928v8.2376h-13.4935v-8.2376h-13.4926v8.2376h-13.4926v-8.2376z" fill="#eac102"/><path d="m464.4295 109.3367-7.6418 15.4039" fill="none"/><path d="m300 70.7045c7.2893 0 13.1576 5.8659 13.1576 13.152v29.3192h-26.3152v-29.3192c0-7.2863 5.8683-13.152 13.1576-13.152z" fill="#eac102" fill-rule="evenodd"/><path d="m300 75.7436c4.4591 0 8.0489 3.6185 8.0489 8.1133v29.3189h-16.0978v-29.3189c0-4.4947 3.5898-8.1133 8.0489-8.1133z" fill-rule="evenodd"/><path d="m226.1047 71.326c4.3848 15.3977 9.7237 30.2164 15.62 40.3657h-8.5343l-26.6896-42.3593 2.7529-42.3592 10.2186 6.2634 6.9471 9.5465c1.7706 9.5419 4.0736 18.5262 6.8123 27.8869z" fill="#eac102"/><path d="m209.2537 26.9733c4.7295 31.3502 13.4516 64.8134 23.9367 84.7184l-57.5658 7.5983c2.4266-23.872-.2582-50.7201-5.3054-81.8832l19.4673-8.4999z" fill="#eac102"/><path d="m176.1597 87.039 44.6905-7.1976 8.8437 3.2856" fill="none"/><path d="m173.9106 62.2131 40.1625-8.8166 17.4782 11.4768" fill="none"/><path d="m175.2518 74.6344 41.9338-8.0043 8.9191 4.696" fill="none"/><path d="m226.3152 21.2386 1.6357 4.4153-1.6357 4.4153-4.1542-3.2997v-4.377z" fill="#eac102"/><path d="m219.3117 12.6967 1.6357 5.3638-1.6357 5.3638-4.7387-4.1933v-5.3158z" fill="#eac102"/><path d="m172.7406 14.6568-1.6357 4.6967 1.6357 4.6967 4.8914.0106v-5.7111z" fill="#eac102"/><path d="m192.4999 9.4064-1.6357 4.6966 1.6357 4.6966 4.433-.324v-4.9221z" fill="#eac102"/><path d="m212.2699 18.3347-24.6998 3.3357-24.6998 9.902c3.6515.5347 6.9832 3.2754 7.4489 5.8345l38.9345-10.4335 17.1657 15.8099c-.3412-2.0505 1.2375-5.2829 3.2673-6.0039l-7.0727-10.864z" fill="#eac102"/><path d="m212.2699 18.3346c-2.3239 2.0547-3.4341 5.803-3.0162 8.6387" fill="none"/><path d="m220.0667 47.0066 2.7791 12.1241" fill="none"/><path d="m197.6573 30.1295 2.1236 12.853" fill="none"/><path d="m201.919 56.0961 2.1465 12.9965" fill="none"/><path d="m172.2258 49.7974 39.2485-9.6118 17.1721 13.4762" fill="none"/><path d="m191.8729 45.0451 2.0673 12.7409" fill="none"/><path d="m195.9605 70.7378 2.0745 12.703" fill="none"/><path d="m176.5604 99.4485 48.6206-6.3904 8.4671 1.2939" fill="none"/><path d="m175.8787 48.9283 2.0327 12.3846" fill="none"/><path d="m179.9588 73.7878 2.0235 12.2861" fill="none"/><path d="m184.0196 98.5302 2.7149 16.5424" fill="none"/><path d="m181.7798 34.3854 2.0547 12.5194" fill="none"/><path d="m185.9262 59.6494 2.0604 12.5121" fill="none"/><path d="m207.7509 41.1314 2.1721 13.1525" fill="none"/><path d="m212.1003 67.6325 2.1874 13.2458" fill="none"/><path d="m216.4628 94.2124 2.708 16.5001" fill="none"/><path d="m213.3162 30.812 2.3903 12.6607" fill="none"/><path d="m218.4604 56.2925 3.3099 12.7524" fill="none"/><path d="m222.051 38.7864 2.3062 11.507" fill="none"/><path d="m227.1526 61.9794 2.4363 9.0248" fill="none"/><path d="m197.0698 77.6799c5.9602-.7435 11.5171 3.2106 12.4594 8.8658l4.3609 26.1739-21.5177 2.6842-4.3607-26.174c-.9422-5.6551 3.0976-10.8064 9.0581-11.55z" fill="#eac102"/><path d="m205.3519 87.0669 4.3607 26.1738-13.1629 1.642-4.3606-26.1738c-.5791-3.4761 1.8898-6.6406 5.5361-7.0955 3.6459-.4549 7.0475 1.9774 7.6267 5.4535z"/><path d="m225.1873 81.599 4.314 12.066" fill="none"/><path d="m188.7031 54.2956 1.9685 12.423-6.8198 1.4112-2.068-12.5811c-.3475-2.1138.6788-4.0578 2.7579-4.5239 2.0792-.466 3.8262 1.1551 4.1614 3.2709z"/><path d="m204.7481 51.1153 1.9684 12.4232-6.8198 1.411-2.0679-12.5811c-.3474-2.1138.6787-4.0578 2.7578-4.5239 2.0793-.466 3.8263 1.1551 4.1615 3.2708z"/><path d="m226.3152 21.2386v5.5285l-3.6323-4.0945v-5.8646l-3.3712-4.1113v6.1362l-3.6322-4.1017v-6.4653l-3.4096-4.1114-1.6357 7.0901 1.6357 7.09 17.4168 18.4448v-11.4294z" fill="#eac102"/><path d="m162.8703 17.2811v14.2912l49.3996-13.2378v-14.18l-9.8902 2.6264.0003 7.0345-9.8801 2.6254v-7.0345l-9.8801 2.6253.0002 7.0345-9.8794 2.6253v-7.0346z" fill="#eac102"/><path d="m373.8953 71.326c-4.3848 15.3977-9.7237 30.2164-15.62 40.3657h8.5343l26.6896-42.3593-2.7529-42.3592-10.2186 6.2634-6.9471 9.5465c-1.7706 9.5419-4.0736 18.5262-6.8123 27.8869z" fill="#eac102"/><path d="m390.7463 26.9733c-4.7295 31.3502-13.4516 64.8134-23.9367 84.7184l57.5658 7.5983c-2.4266-23.872.2582-50.7201 5.3054-81.8832l-19.4673-8.4999z" fill="#eac102"/><path d="m423.8403 87.039-44.6905-7.1976-8.8437 3.2856" fill="none"/><path d="m426.0894 62.2131-40.1625-8.8166-17.4782 11.4768" fill="none"/><path d="m424.7482 74.6344-41.9338-8.0043-8.9191 4.696" fill="none"/><path d="m373.6848 21.2386-1.6357 4.4153 1.6357 4.4153 4.1542-3.2997v-4.377z" fill="#eac102"/><path d="m380.6883 12.6967-1.6357 5.3638 1.6357 5.3638 4.7387-4.1933v-5.3158z" fill="#eac102"/><path d="m427.2594 14.6568 1.6357 4.6967-1.6357 4.6967-4.8914.0106v-5.7111z" fill="#eac102"/><path d="m407.5001 9.4064 1.6357 4.6966-1.6357 4.6966-4.433-.324v-4.9221z" fill="#eac102"/><path d="m387.7301 18.3347 24.6998 3.3357 24.6998 9.902c-3.6515.5347-6.9832 3.2754-7.4489 5.8345l-38.9345-10.4335-17.1657 15.8099c.3412-2.0505-1.2375-5.2829-3.2673-6.0039l7.0727-10.864z" fill="#eac102"/><path d="m387.7301 18.3346c2.3239 2.0547 3.4341 5.803 3.0162 8.6387" fill="none"/><path d="m379.9333 47.0066-2.7791 12.1241" fill="none"/><path d="m402.3427 30.1295-2.1236 12.853" fill="none"/><path d="m398.081 56.0961-2.1465 12.9965" fill="none"/><path d="m427.7742 49.7974-39.2485-9.6118-17.1721 13.4762" fill="none"/><path d="m408.1271 45.0451-2.0673 12.7409" fill="none"/><path d="m404.0395 70.7378-2.0745 12.703" fill="none"/><path d="m423.4396 99.4485-48.6206-6.3904-8.4671 1.2939" fill="none"/><path d="m424.1213 48.9283-2.0327 12.3846" fill="none"/><path d="m420.0412 73.7878-2.0235 12.2861" fill="none"/><path d="m415.9804 98.5302-2.7149 16.5424" fill="none"/><path d="m418.2202 34.3854-2.0547 12.5194" fill="none"/><path d="m414.0738 59.6494-2.0604 12.5121" fill="none"/><path d="m392.2491 41.1314-2.1721 13.1525" fill="none"/><path d="m387.8997 67.6325-2.1874 13.2458" fill="none"/><path d="m383.5372 94.2124-2.708 16.5001" fill="none"/><path d="m386.6838 30.812-2.3903 12.6607" fill="none"/><path d="m381.5396 56.2925-3.3099 12.7524" fill="none"/><path d="m377.949 38.7864-2.3062 11.507" fill="none"/><path d="m372.8474 61.9794-2.4363 9.0248" fill="none"/><path d="m402.9302 77.6799c-5.9602-.7435-11.5171 3.2106-12.4594 8.8658l-4.3609 26.1739 21.5177 2.6842 4.3607-26.174c.9422-5.6551-3.0976-10.8064-9.0581-11.55z" fill="#eac102"/><path d="m394.6481 87.0669-4.3607 26.1738 13.1629 1.642 4.3606-26.1738c.5791-3.4761-1.8898-6.6406-5.5361-7.0955-3.6459-.4549-7.0475 1.9774-7.6267 5.4535z"/><path d="m374.8127 81.599-4.314 12.066" fill="none"/><path d="m411.2969 54.2956-1.9685 12.423 6.8198 1.4112 2.068-12.5811c.3475-2.1138-.6788-4.0578-2.7579-4.5239-2.0792-.466-3.8262 1.1551-4.1614 3.2709z"/><path d="m395.2519 51.1153-1.9684 12.4232 6.8198 1.411 2.0679-12.5811c.3474-2.1138-.6787-4.0578-2.7578-4.5239-2.0793-.466-3.8263 1.1551-4.1615 3.2708z"/><path d="m373.6848 21.2386v5.5285l3.6323-4.0945v-5.8646l3.3712-4.1113v6.1362l3.6322-4.1017v-6.4653l3.4096-4.1114 1.6357 7.0901-1.6357 7.09-17.4168 18.4448v-11.4294z" fill="#eac102"/><path d="m437.1297 17.2811v14.2912l-49.3996-13.2378v-14.18l9.8902 2.6264-.0003 7.0345 9.8801 2.6254v-7.0345l9.8801 2.6253-.0002 7.0345 9.8794 2.6253v-7.0346z" fill="#eac102"/><path d="m111.3227 149.0595c-11.1229-3.151-12.2645-13.3069-2.5117-19.5729 20.2853-13.033 85.6152-26.8424 191.189-26.8424s170.9037 13.8094 191.189 26.8424c9.7527 6.266 8.6112 16.4219-2.5117 19.5729l-188.6773-23.5929z" fill="#eac102"/><path d="m315.8392 102.7482c-14.0857 0-28.5886 4.1953-21.8932 13.8113" fill="none"/><path d="m497.7838 140.5209c-1.1739-12.1891-24.3176-12.9398-24.2917-3.1232" fill="none"/><path d="m350.4113 103.7861c-14.0841-.5526-30.299 3.4408-23.7503 13.1546" fill="none"/><path d="m383.3857 105.9069c-13.8997-1.1587-31.9143 2.5434-25.6141 12.4158" fill="none"/><path d="m416.3652 109.541c-13.3539-1.8122-33.4004 1.4737-27.3878 11.519" fill="none"/><path d="m447.9874 114.9315c-13.3823-2.8752-34.935-.3322-29.3938 9.9736" fill="none"/><path d="m478.1845 123.2728c-12.6585-4.1906-36.0679-4.0603-31.4841 6.6933" fill="none"/><path d="m133.9036 119.363c-12.116 4.3389-15.315 11.599-7.4669 17.9129" fill="none"/><path d="m282.2243 102.776c-14.0773.4786-26.872 5.1456-19.8448 14.5284" fill="none"/><path d="m249.3745 103.7957c-14.047 1.0289-26.3114 6.3572-18.9125 15.4579" fill="none"/><path d="m219.5185 105.6687c-14.6642 1.4681-24.5421 7.7036-16.632 16.3757" fill="none"/><path d="m189.8116 108.7077c-14.2376 1.8024-21.9876 8.5544-13.7587 16.9331" fill="none"/><path d="m160.3374 113.2712c-13.7521 3.0061-19.6742 9.6336-11.0282 17.5929" fill="none"/><path d="m110.3906 128.5102c-5.2218 2.7302-7.7871 13.7319 2.0872 17.0103" fill="none"/><path d="m111.3227 149.0595c6.5748 14.1798 11.48 29.703 16.4385 48.2625l46.7777-10.1615 125.4611-7.3098 125.4611 7.3098 46.7777 10.1615c4.9585-18.5595 9.8637-34.0827 16.4385-48.2625 5.7421-12.3838-78.4913-32.5721-188.6773-32.5721s-194.4193 20.1884-188.6773 32.5721z" fill="#eac102"/><path d="m124.8172 186.6681c-2.7776-9.4377 69.6649-21.4427 175.1828-21.4427s177.9604 12.0051 175.1828 21.4427" fill="none"/><path d="m121.8745 176.8556c-3.5085-10.9098 72.5414-23.8147 178.1255-23.8147s181.634 12.905 178.1255 23.8147" fill="none"/><path d="m300 165.2546v12.1494" fill="#008f4c" fill-rule="evenodd"/><path d="m118.7763 167.5551c-4.5225-12.3411 75.8054-26.6988 181.2237-26.6988 105.4184 0 185.7462 14.3577 181.2237 26.6988" fill="none"/><path d="m300 116.5642v12.1494" fill="#008f4c" fill-rule="evenodd"/><path d="m300 140.8468v12.1494" fill="#008f4c" fill-rule="evenodd"/><path d="m244.9269 130.2518 1.2727 11.79" fill="none"/><path d="m247.4881 154.2563 1.2803 11.8923" fill="none"/><path d="m261.8713 117.3769.846 11.9318" fill="none"/><path d="m263.5704 141.5585.8657 11.9966" fill="none"/><path d="m265.2969 165.6958.8344 11.7694" fill="none"/><path d="m225.5443 119.6955 1.6308 11.4457" fill="none"/><path d="m228.9209 143.1783 1.6496 11.7935" fill="none"/><path d="m232.3217 167.0154 1.5989 11.2208" fill="none"/><path d="m191.1644 123.5069 2.3343 10.9437" fill="none"/><path d="m196.0763 145.9957 2.4425 11.5159" fill="none"/><path d="m201.0557 169.2138 2.4146 11.2744" fill="none"/><path d="m158.9869 128.7523 2.98 10.4003" fill="none"/><path d="m165.1477 150.0803 3.1577 10.9603" fill="none"/><path d="m171.7049 172.5169 3.213 11.062" fill="none"/><path d="m129.3913 136.3686 3.4355 9.6027" fill="none"/><path d="m136.5491 156.2694 3.6417 10.2248" fill="none"/><path d="m144.0817 177.2886 4.0312 11.3047" fill="none"/><path d="m281.3495 128.9203.4317 12.0696" fill="none"/><path d="m282.2119 153.1571.4325 12.2146" fill="none"/><path d="m210.365 132.797 2.0197 11.4874" fill="none"/><path d="m214.5113 156.1805 2.094 11.7135" fill="none"/><path d="m177.7169 136.6647 2.8178 11.1474" fill="none"/><path d="m183.3964 159.1308 2.8864 11.4201" fill="none"/><path d="m147.2939 142.1923 3.4602 10.5039" fill="none"/><path d="m154.3511 163.526 3.5855 10.8811" fill="none"/><path d="m120.6981 150.927 3.4645 9.9083" fill="none"/><path d="m127.6551 170.8065 3.5885 10.2217" fill="none"/><path d="m484.689 158.3061c5.7378-13.3135-79.275-29.6342-184.689-29.6342s-190.4269 16.3208-184.689 29.6342" fill="none"/><path d="m355.0731 130.2518-1.2727 11.79" fill="none"/><path d="m352.5119 154.2563-1.2803 11.8923" fill="none"/><path d="m338.1287 117.3769-.846 11.9318" fill="none"/><path d="m336.4296 141.5585-.8657 11.9966" fill="none"/><path d="m334.7031 165.6958-.8344 11.7694" fill="none"/><path d="m374.4558 119.6955-1.6308 11.4457" fill="none"/><path d="m371.0791 143.1783-1.6496 11.7935" fill="none"/><path d="m367.6783 167.0154-1.5988 11.2208" fill="none"/><path d="m408.8356 123.5069-2.3343 10.9437" fill="none"/><path d="m403.9237 145.9957-2.4425 11.5159" fill="none"/><path d="m398.9443 169.2138-2.4146 11.2744" fill="none"/><path d="m441.0131 128.7523-2.98 10.4003" fill="none"/><path d="m434.8523 150.0803-3.1577 10.9603" fill="none"/><path d="m428.2951 172.5169-3.213 11.062" fill="none"/><path d="m470.6087 136.3686-3.4355 9.6027" fill="none"/><path d="m463.4509 156.2694-3.6417 10.2248" fill="none"/><path d="m455.9183 177.2886-4.0312 11.3047" fill="none"/><path d="m318.6506 128.9203-.4317 12.0696" fill="none"/><path d="m317.7881 153.1571-.4325 12.2146" fill="none"/><path d="m389.635 132.797-2.0197 11.4874" fill="none"/><path d="m385.4887 156.1805-2.094 11.7135" fill="none"/><path d="m422.2831 136.6647-2.8178 11.1474" fill="none"/><path d="m416.6036 159.1308-2.8864 11.4201" fill="none"/><path d="m452.7062 142.1923-3.4602 10.5039" fill="none"/><path d="m445.6489 163.526-3.5855 10.8811" fill="none"/><path d="m479.302 150.927-3.4645 9.9083" fill="none"/><path d="m472.3449 170.8065-3.5885 10.2217" fill="none"/><path d="m442.4111 186.0085 18.8671 5.5459 8.8101-25.6517c1.7028-4.958-.9804-10.1975-6.163-11.7993-5.1823-1.6017-10.8305 1.0635-12.5464 6.0169z" fill="#eac102"/><path d="m446.201 186.8947 11.445 3.5371 8.8101-25.6516c1.0467-3.0475-.5903-6.2643-3.7606-7.2441s-6.6376.6594-7.6843 3.707z"/><path d="m157.5889 186.0085-18.8671 5.5459-8.8101-25.6517c-1.7028-4.958.9804-10.1975 6.163-11.7993 5.1823-1.6017 10.8305 1.0635 12.5464 6.0169z" fill="#eac102"/><path d="m153.7991 186.8947-11.445 3.5371-8.8101-25.6516c-1.0467-3.0475.5903-6.2643 3.7606-7.2441s6.6376.6594 7.6843 3.707z"/><path d="m228.9697 140.685c6.4226-.5153 12.3563 4.0026 13.3038 10.1298l4.3856 28.3585-23.1871 1.8603-4.3855-28.3585c-.9476-6.1272 3.4603-11.4747 9.8832-11.99z" fill="#eac102"/><path d="m237.7721 151.1761 4.3856 28.3584-14.1841 1.138-4.3856-28.3584c-.5825-3.7662 2.1116-7.0519 6.0407-7.3672 3.9289-.3152 7.561 2.463 8.1434 6.2292z"/><path d="m371.0304 140.685c-6.4226-.5153-12.3563 4.0026-13.3038 10.1298l-4.3856 28.3585 23.187 1.8603 4.3856-28.3585c.9476-6.1272-3.4603-11.4747-9.8832-11.99z" fill="#eac102"/><path d="m357.8424 179.5344 14.1841 1.138 4.3855-28.3584c.5824-3.7662-2.1117-7.0519-6.0406-7.3672-3.929-.3152-7.561 2.463-8.1434 6.2292z"/><path d="m468.4893 203c0 2.2122-39.4563 17.0141-168.4893 17.0141s-168.4893-14.8019-168.4893-17.0141c0-2.2123 39.4563-17.0142 168.4893-17.0142s168.4893 14.8018 168.4893 17.0142zm11.0107 0c0 22.5798-119.923 26.5-179.5 26.5s-179.5-3.9202-179.5-26.5 119.923-26.5 179.5-26.5 179.5 3.9203 179.5 26.5z" fill="#eac102" fill-rule="evenodd"/></g></g><path d="m.5 510 299.5 299.5 299.5-299.5-299.5-299.5z" fill="#0071bc" stroke="#000" stroke-linecap="round" stroke-linejoin="round"/><g fill="#eac102" stroke="#000" stroke-linecap="round" stroke-linejoin="round"><path d="m212 366.2912c0 32.5548-7.4361 282.322-17 312.2089-9.5639-29.887-17-279.6542-17-312.2089 0-7.3804 4.2316-16.7912 17-16.7912s17 9.4108 17 16.7912zm-6.3114 17.8539c0-10.7917-.7539-21.4331-10.6886-21.4331s-10.6886 10.6415-10.6886 21.4331c0 11.8348 4.7143 21.4502 10.6886 21.4502s10.6886-9.6154 10.6886-21.4502z"/><path d="m388 366.2912c0 32.5548 7.4361 282.322 17 312.2089 9.5639-29.887 17-279.6542 17-312.2089 0-7.3804-4.2316-16.7912-17-16.7912s-17 9.4108-17 16.7912zm6.3114 17.8539c0-10.7917.7539-21.4331 10.6886-21.4331s10.6886 10.6415 10.6886 21.4331c0 11.8348-4.7143 21.4502-10.6886 21.4502s-10.6886-9.6154-10.6886-21.4502z"/><path d="m264.25 366.2912c0 32.5548-7.4361 282.322-17 312.2089-9.5639-29.887-17-279.6542-17-312.2089 0-7.3804 4.2316-16.7912 17-16.7912s17 9.4108 17 16.7912zm-6.3114 17.8539c0-10.7917-.7539-21.4331-10.6886-21.4331s-10.6886 10.6415-10.6886 21.4331c0 11.8348 4.7143 21.4502 10.6886 21.4502s10.6886-9.6154 10.6886-21.4502z"/><path d="m317 366.2912c0 32.5548-7.4361 282.322-17 312.2089-9.5639-29.887-17-279.6542-17-312.2089 0-7.3804 4.2316-16.7912 17-16.7912s17 9.4108 17 16.7912zm-6.3114 17.8539c0-10.7917-.7539-21.4331-10.6886-21.4331s-10.6886 10.6415-10.6886 21.4331c0 11.8348 4.7143 21.4502 10.6886 21.4502s10.6886-9.6154 10.6886-21.4502z"/><path d="m369.75 366.2912c0 32.5548-7.4361 282.322-17 312.2089-9.5639-29.887-17-279.6542-17-312.2089 0-7.3804 4.2316-16.7912 17-16.7912s17 9.4108 17 16.7912zm-6.3114 17.8539c0-10.7917-.7539-21.4331-10.6886-21.4331s-10.6886 10.6415-10.6886 21.4331c0 11.8348 4.7143 21.4502 10.6886 21.4502s10.6886-9.6154 10.6886-21.4502z"/></g><path d="m1.5 510 298.5 298.5 298.5-298.5-298.5-298.5z" fill="none" stroke="#000" stroke-linecap="round" stroke-linejoin="round" stroke-width="3"/></svg>