<?xml version="1.0" encoding="UTF-8" standalone="no"?>
<svg
   xmlns:dc="http://purl.org/dc/elements/1.1/"
   xmlns:cc="http://creativecommons.org/ns#"
   xmlns:rdf="http://www.w3.org/1999/02/22-rdf-syntax-ns#"
   xmlns:svg="http://www.w3.org/2000/svg"
   xmlns="http://www.w3.org/2000/svg"
   xmlns:xlink="http://www.w3.org/1999/xlink"
   xmlns:sodipodi="http://sodipodi.sourceforge.net/DTD/sodipodi-0.dtd"
   xmlns:inkscape="http://www.inkscape.org/namespaces/inkscape"
   inkscape:version="1.0 (4035a4fb49, 2020-05-01)"
   sodipodi:docname="Escut_d'Olot.svg"
   id="svg3194"
   height="911.89355"
   width="709.82495"
   version="1.0">
  <metadata
     id="metadata64283">
    <rdf:RDF>
      <cc:Work
         rdf:about="">
        <dc:format>image/svg+xml</dc:format>
        <dc:type
           rdf:resource="http://purl.org/dc/dcmitype/StillImage" />
      </cc:Work>
    </rdf:RDF>
  </metadata>
  <sodipodi:namedview
     inkscape:current-layer="svg3194"
     inkscape:window-maximized="1"
     inkscape:window-y="0"
     inkscape:window-x="0"
     inkscape:cy="433.13004"
     inkscape:cx="355.03285"
     inkscape:zoom="0.57696335"
     showgrid="false"
     id="namedview64281"
     inkscape:window-height="691"
     inkscape:window-width="1366"
     inkscape:pageshadow="2"
     inkscape:pageopacity="0"
     guidetolerance="10"
     gridtolerance="10"
     objecttolerance="10"
     borderopacity="1"
     bordercolor="#666666"
     pagecolor="#ffffff" />
  <defs
     id="defs3196" />
  <g
     id="g3789"
     transform="translate(0.0328452,0.21249289)">
    <g
       style="display:inline"
       id="layer3"
       transform="translate(24.953321,3.3780361)" />
    <g
       id="g3792"
       transform="translate(24.953321,3.3780361)" />
    <g
       id="g3794"
       transform="translate(81.382043,-73.26231)" />
    <g
       style="display:inline"
       id="g3796"
       transform="translate(81.382043,-73.26231)" />
    <g
       style="display:inline"
       id="g3798"
       transform="translate(81.382043,-73.26231)">
      <g
         style="display:inline"
         id="g4185"
         transform="translate(-58.323283,119.95473)">
        <g
           style="stroke:#000000;stroke-width:2.03315;stroke-opacity:1"
           id="g8962"
           transform="matrix(0.5070596,0,0,0.4766055,-1167.4024,39.474014)">
          <g
             style="stroke:#000000;stroke-width:2.03315;stroke-opacity:1"
             id="g8964">
            <path
               style="fill:#eac102;fill-rule:evenodd;stroke:#000000;stroke-width:2.03315;stroke-linecap:butt;stroke-linejoin:miter;stroke-opacity:1"
               id="path8966"
               d="m 2417.1034,230.14367 c 20.6758,40.49153 45.4058,92.36905 64.5179,86.02392 4.1221,-1.73603 5.463,-11.81574 -0.7051,-44.42219 l -37.371,-73.68443 c -5.1708,-8.3755 -19.8607,-2.03259 -20.8009,6.69859 z" />
            <path
               style="fill:#eac102;fill-rule:evenodd;stroke:#000000;stroke-width:2.03315;stroke-linecap:butt;stroke-linejoin:miter;stroke-opacity:1"
               id="path8968"
               d="m 2448.75,274.90625 6.8125,-19.96875 c -13.8149,-17.77489 -35.1635,-50.18123 -58.0313,-90.46875 -4.7277,-8.33714 -20.9265,-3.41756 -17.0624,5.84375 30.869,58.46136 52.8047,89.21656 68.2812,104.59375 z" />
          </g>
          <g
             style="stroke:#000000;stroke-width:2.03315;stroke-opacity:1"
             id="g8970">
            <path
               style="fill:#eac102;fill-rule:evenodd;stroke:#000000;stroke-width:2.03315;stroke-linecap:butt;stroke-linejoin:miter;stroke-opacity:1"
               id="path8972"
               d="m 3496.7613,230.14367 c -20.6758,40.49153 -45.4058,92.36905 -64.5179,86.02392 -4.1221,-1.73603 -5.463,-11.81574 0.7051,-44.42219 l 37.371,-73.68443 c 5.1708,-8.3755 19.8607,-2.03259 20.8009,6.69859 z" />
            <path
               style="fill:#eac102;fill-rule:evenodd;stroke:#000000;stroke-width:2.03315;stroke-linecap:butt;stroke-linejoin:miter;stroke-opacity:1"
               id="path8974"
               d="m 3458.0938,255.1875 6.8124,19.96875 c 15.4881,-15.30082 37.4816,-46.09948 68.5,-104.84375 3.8641,-9.26131 -12.3348,-14.18089 -17.0624,-5.84375 -22.9748,40.47599 -44.443,73.00074 -58.25,90.71875 z" />
          </g>
        </g>
        <g
           style="stroke:#000000;stroke-width:0.798277;stroke-opacity:1"
           id="g8976"
           transform="matrix(1.29144,0,0,1.2138759,-1389.6713,-106.17665)">
          <g
             style="stroke:#000000;stroke-width:2.1011;stroke-opacity:1"
             id="g8978"
             transform="matrix(0.3926312,0,0,0.3676466,172.09834,125.47082)">
            <path
               style="fill:#eac102;fill-rule:evenodd;stroke:#000000;stroke-width:2.1011;stroke-linecap:round;stroke-linejoin:round;stroke-miterlimit:4;stroke-dasharray:none;stroke-opacity:1"
               id="path8980"
               d="m 2259.2204,-21.283662 13.5127,-10.69977 c 38.7245,-10.031734 73.2534,26.8272673 73.0253,42.666284 9.6794,-8.8057395 19.3588,-5.7881781 29.0382,-5.2796724 -5.7251,18.9206564 -0.1378,33.0145444 -6.8636,53.3246894 8.9688,2.784611 15.989,6.738417 17.9509,13.727148 l 8.9754,-5.80764 11.0873,-0.527967 c 2.1216,52.75337 -15.0802,41.15878 -11.6152,60.71623 l 18.4788,-22.70259 20.0628,2.11187 c 9.8196,1.86427 12.6267,13.46219 23.2305,14.78308 -7.4831,10.11579 -12.0387,27.91081 -19.0068,40.12551 -8.5556,6.21222 -16.0753,5.1735 -23.2306,1.5839 23.3337,8.58781 29.4491,28.73746 38.5417,39.59754 -9.5595,0.52797 -18.1418,1.58391 -22.1746,2.11188 14.7377,21.02796 23.1532,37.85908 37.4856,49.62891 l -8.4475,1.5839 -43.8213,-21.64665 -36.9577,-38.01364 -45.4051,-70.21964 -1.5839,-110.87312 c -23.1511,-11.7939305 -19.6064,-39.159015 -72.2829,-36.190252 z" />
            <path
               style="fill:#eac102;fill-rule:evenodd;stroke:#000000;stroke-width:2.1011;stroke-linecap:butt;stroke-linejoin:round;stroke-opacity:1"
               id="path8982"
               d="m 2257.8362,-20.616681 c 63.0557,6.587504 63.0115,95.729549 75.5853,148.407001 l 40.3183,68.26621 c 25.4971,24.6386 41.9797,55.29007 57.751,58.90359 15.2759,3.50002 14.2178,-3.0187 29.758,0.65753 -30.4247,-13.52566 -16.494,-44.74695 -79.7203,-63.68458 20.4457,-11.32653 20.4445,19.87787 61.3938,10.9959 -11.2314,-28.08772 -35.3707,-29.44338 -46.2744,-39.86014 16.7073,-5.39702 18.5396,5.3425 30.6969,0.45816 13.499,-5.42337 10.385,-26.33514 21.0754,-40.31829 -13.9929,-6.17329 -25.3676,-24.564624 -42.6091,-15.57753 -5.9916,4.96851 -14.8141,21.73624 -24.7407,25.6571 -4.1769,-22.38029 9.8671,-24.38807 12.8285,-35.736673 2.9343,-11.244851 -1.7545,-14.661675 0.9163,-30.696885 -45.4223,16.762132 -28.2802,47.083998 -49.0312,60.368768 -0.2133,-32.214271 8.8979,-18.51426 25.6649,-53.954494 -6.3299,-9.420974 -10.7933,-7.642714 -16.0356,-10.537736 8.3293,-18.001305 0.7954,-28.96192 9.6214,-54.0631718 -16.6788,-5.5724121 -22.3558,3.4658318 -27.0316,9.1632498 -1.695,-15.5926208 -38.1614,-65.956579 -80.1669,-38.448009 z" />
            <path
               style="fill:none;fill-rule:evenodd;stroke:#000000;stroke-width:2.1011;stroke-linecap:butt;stroke-linejoin:miter;stroke-miterlimit:4;stroke-dasharray:none;stroke-opacity:1"
               id="path8984"
               d="m 2348.0296,39.81348 c -13.4425,30.094041 -12.093,60.18808 -11.1117,90.28212 m 32.6405,-15.97299 c -2.7041,15.12086 -12.2496,23.40027 -22.2233,31.2515 m 69.4478,-9.02821 c -23.9583,1.77752 -25.7122,17.05247 -61.114,22.22329 m 6.9447,9.72269 c 17.1583,3.44456 34.1187,7.08707 45.8356,15.97299 m -36.8073,5.55583 c 23.3688,28.19752 42.9779,30.73388 50.0024,45.14106" />
            <g
               style="stroke:#000000;stroke-width:1.89182;stroke-opacity:1"
               id="g8986"
               transform="matrix(-0.9278259,0.6104274,0.6104274,0.9278259,3844.2704,-1752.9019)">
              <path
                 style="display:inline;overflow:visible;visibility:visible;opacity:1;fill:#e3e4e5;fill-opacity:1;fill-rule:nonzero;stroke:#000000;stroke-width:1.89182;stroke-linecap:butt;stroke-linejoin:miter;stroke-miterlimit:4;stroke-dasharray:none;stroke-dashoffset:0;stroke-opacity:1;marker:none;marker-start:none;marker-mid:none;marker-end:none;enable-background:accumulate"
                 id="path8988"
                 d="m 2069.0625,730.6875 c 0.2238,0.008 0.4309,0.0937 0.6563,0.0937 12.7586,0 23.0938,-12.76605 23.0937,-28.5 0,-15.73395 -10.3352,-28.49999 -23.0937,-28.5 -0.2254,0 -0.4325,0.0858 -0.6563,0.0937 z" />
              <path
                 style="display:inline;overflow:visible;visibility:visible;fill:#eac102;fill-opacity:1;fill-rule:nonzero;stroke:#000000;stroke-width:1.89182;stroke-linecap:butt;stroke-linejoin:miter;stroke-miterlimit:4;stroke-dashoffset:0;stroke-opacity:1;marker:none;marker-start:none;marker-mid:none;marker-end:none;enable-background:accumulate"
                 id="path8990"
                 d="m 2066.2861,668.73151 h 6.9503 v 66.52937 h -6.9503 c -2.4585,-25.68971 -2.8624,-50.12503 0,-66.52937 z" />
            </g>
          </g>
          <g
             style="stroke:#000000;stroke-width:2.1011;stroke-opacity:1"
             id="g8992"
             transform="matrix(-0.3926312,0,0,0.3676466,2494.0922,125.47082)">
            <path
               style="fill:#eac102;fill-rule:evenodd;stroke:#000000;stroke-width:2.1011;stroke-linecap:round;stroke-linejoin:round;stroke-miterlimit:4;stroke-dasharray:none;stroke-opacity:1"
               id="path8994"
               d="m 2259.2204,-21.283662 13.5127,-10.69977 c 38.7245,-10.031734 73.2534,26.8272673 73.0253,42.666284 9.6794,-8.8057395 19.3588,-5.7881781 29.0382,-5.2796724 -5.7251,18.9206564 -0.1378,33.0145444 -6.8636,53.3246894 8.9688,2.784611 15.989,6.738417 17.9509,13.727148 l 8.9754,-5.80764 11.0873,-0.527967 c 2.1216,52.75337 -15.0802,41.15878 -11.6152,60.71623 l 18.4788,-22.70259 20.0628,2.11187 c 9.8196,1.86427 12.6267,13.46219 23.2305,14.78308 -7.4831,10.11579 -12.0387,27.91081 -19.0068,40.12551 -8.5556,6.21222 -16.0753,5.1735 -23.2306,1.5839 23.3337,8.58781 29.4491,28.73746 38.5417,39.59754 -9.5595,0.52797 -18.1418,1.58391 -22.1746,2.11188 14.7377,21.02796 23.1532,37.85908 37.4856,49.62891 l -8.4475,1.5839 -43.8213,-21.64665 -36.9577,-38.01364 -45.4051,-70.21964 -1.5839,-110.87312 c -23.1511,-11.7939305 -19.6064,-39.159015 -72.2829,-36.190252 z" />
            <path
               style="fill:#eac102;fill-rule:evenodd;stroke:#000000;stroke-width:2.1011;stroke-linecap:butt;stroke-linejoin:round;stroke-opacity:1"
               id="path8996"
               d="m 2257.8362,-20.616681 c 63.0557,6.587504 63.0115,95.729549 75.5853,148.407001 l 40.3183,68.26621 c 25.4971,24.6386 41.9797,55.29007 57.751,58.90359 15.2759,3.50002 14.2178,-3.0187 29.758,0.65753 -30.4247,-13.52566 -16.494,-44.74695 -79.7203,-63.68458 20.4457,-11.32653 20.4445,19.87787 61.3938,10.9959 -11.2314,-28.08772 -35.3707,-29.44338 -46.2744,-39.86014 16.7073,-5.39702 18.5396,5.3425 30.6969,0.45816 13.499,-5.42337 10.385,-26.33514 21.0754,-40.31829 -13.9929,-6.17329 -25.3676,-24.564624 -42.6091,-15.57753 -5.9916,4.96851 -14.8141,21.73624 -24.7407,25.6571 -4.1769,-22.38029 9.8671,-24.38807 12.8285,-35.736673 2.9343,-11.244851 -1.7545,-14.661675 0.9163,-30.696885 -45.4223,16.762132 -28.2802,47.083998 -49.0312,60.368768 -0.2133,-32.214271 8.8979,-18.51426 25.6649,-53.954494 -6.3299,-9.420974 -10.7933,-7.642714 -16.0356,-10.537736 8.3293,-18.001305 0.7954,-28.96192 9.6214,-54.0631718 -16.6788,-5.5724121 -22.3558,3.4658318 -27.0316,9.1632498 -1.695,-15.5926208 -38.1614,-65.956579 -80.1669,-38.448009 z" />
            <path
               style="fill:none;fill-rule:evenodd;stroke:#000000;stroke-width:2.1011;stroke-linecap:butt;stroke-linejoin:miter;stroke-miterlimit:4;stroke-dasharray:none;stroke-opacity:1"
               id="path8998"
               d="m 2348.0296,39.81348 c -13.4425,30.094041 -12.093,60.18808 -11.1117,90.28212 m 32.6405,-15.97299 c -2.7041,15.12086 -12.2496,23.40027 -22.2233,31.2515 m 69.4478,-9.02821 c -23.9583,1.77752 -25.7122,17.05247 -61.114,22.22329 m 6.9447,9.72269 c 17.1583,3.44456 34.1187,7.08707 45.8356,15.97299 m -36.8073,5.55583 c 23.3688,28.19752 42.9779,30.73388 50.0024,45.14106" />
            <g
               style="stroke:#000000;stroke-width:1.89182;stroke-opacity:1"
               id="g9000"
               transform="matrix(-0.9278259,0.6104274,0.6104274,0.9278259,3844.2704,-1752.9019)">
              <path
                 style="display:inline;overflow:visible;visibility:visible;opacity:1;fill:#e3e4e5;fill-opacity:1;fill-rule:nonzero;stroke:#000000;stroke-width:1.89182;stroke-linecap:butt;stroke-linejoin:miter;stroke-miterlimit:4;stroke-dasharray:none;stroke-dashoffset:0;stroke-opacity:1;marker:none;marker-start:none;marker-mid:none;marker-end:none;enable-background:accumulate"
                 id="path9002"
                 d="m 2069.0625,730.6875 c 0.2238,0.008 0.4309,0.0937 0.6563,0.0937 12.7586,0 23.0938,-12.76605 23.0937,-28.5 0,-15.73395 -10.3352,-28.49999 -23.0937,-28.5 -0.2254,0 -0.4325,0.0858 -0.6563,0.0937 z" />
              <path
                 style="display:inline;overflow:visible;visibility:visible;fill:#eac102;fill-opacity:1;fill-rule:nonzero;stroke:#000000;stroke-width:1.89182;stroke-linecap:butt;stroke-linejoin:miter;stroke-miterlimit:4;stroke-dashoffset:0;stroke-opacity:1;marker:none;marker-start:none;marker-mid:none;marker-end:none;enable-background:accumulate"
                 id="path9004"
                 d="m 2066.2861,668.73151 h 6.9503 v 66.52937 h -6.9503 c -2.4585,-25.68971 -2.8624,-50.12503 0,-66.52937 z" />
            </g>
          </g>
        </g>
        <path
           style="fill:#eac102;fill-rule:evenodd;stroke:#000000;stroke-width:0.999488;stroke-linecap:butt;stroke-linejoin:miter;stroke-opacity:1"
           id="path9006"
           d="m 332.00444,77.483313 c -1.76759,0.0215 -3.55365,1.124602 -3.6128,3.231989 -1.6276,20.859858 -10.24448,53.374328 -42.22868,59.262908 -31.72345,5.84062 -59.69397,-38.55631 -60.87874,-56.209662 0.0176,-2.635379 -2.13475,-3.658365 -4.31005,-3.544747 -2.46523,0.128767 -4.9674,1.714125 -4.35758,4.051141 4.73158,24.102958 -0.22174,54.803788 -22.18384,60.290608 -21.86989,5.46378 -45.76334,-20.17866 -62.79614,-52.143635 -1.57749,-6.043668 -10.6589,-3.675676 -8.92114,0.759592 13.87885,33.233613 9.18976,56.624473 -0.80805,61.556593 -12.14225,3.66537 -37.469198,-25.59181 -51.688469,-51.38404 -2.418221,-3.490474 -11.322442,-1.67778 -9.206288,2.80006 10.348696,19.8141 20.625717,39.62393 21.106391,59.76931 -1.187479,-1.16839 -2.723905,-2.9117 -4.405101,-4.94478 l -3.454344,9.51721 c 8.343348,7.79197 12.981167,7.2895 15.306922,5.22777 4.652929,-4.12466 4.745396,-12.65499 -1.489547,-31.66448 11.477027,11.47613 29.519346,25.55424 41.135206,17.79824 11.61599,-7.75599 12.68646,-21.7379 11.63071,-38.66463 14.20997,17.48184 35.81641,35.51685 55.20609,31.03894 19.64474,-4.53682 28.21938,-21.68895 30.85147,-43.50515 10.82472,19.77408 33.13266,42.38113 60.62535,38.91783 26.41203,-3.32717 41.58413,-32.51702 44.41522,-42.12002 2.8311,9.603 18.01895,38.79285 44.43109,42.12002 27.49269,3.4633 49.78476,-19.14375 60.60948,-38.91783 2.63208,21.8162 11.2066,38.96833 30.85146,43.50515 19.38956,4.47791 40.99599,-13.5571 55.20609,-31.03894 -1.05588,16.92673 0.0146,30.90864 11.63071,38.66463 11.61586,7.756 29.65818,-6.32211 41.13521,-17.79824 -6.23507,19.00949 -6.14261,27.53982 -1.48955,31.66448 2.31517,2.05234 6.92432,2.5722 15.19599,-5.10861 l -3.45435,-9.51722 c -1.63974,1.97781 -3.1298,3.68001 -4.29416,4.82563 0.48067,-20.14538 10.75756,-39.95521 21.10626,-59.76931 2.11628,-4.47784 -6.77218,-6.290534 -9.1904,-2.80006 -14.21927,25.79223 -39.54609,55.04941 -51.68834,51.38404 -9.99768,-4.93212 -14.70266,-28.32298 -0.82407,-61.556593 1.73789,-4.435268 -7.34351,-6.80326 -8.92101,-0.759592 -17.03293,31.964975 -40.91049,57.607415 -62.78038,52.143635 -21.9621,-5.48682 -26.9313,-36.18765 -22.19973,-60.290608 1.14796,-4.399097 -8.68919,-6.128537 -8.65161,-0.506394 -1.18477,17.653352 -29.17118,62.050282 -60.89476,56.209662 -31.98406,-5.88858 -40.58479,-38.40305 -42.21265,-59.262908 0.0145,-2.193368 -1.7344,-3.253485 -3.50187,-3.231989 z" />
        <g
           style="stroke:#000000;stroke-width:2.03315;stroke-opacity:1"
           id="g9008"
           transform="matrix(0.5070596,0,0,0.4766055,-1167.3978,39.474014)">
          <g
             style="stroke:#000000;stroke-width:2.02729;stroke-opacity:1"
             id="g9010"
             transform="matrix(1,0,0,1.0057864,0.81,-1346.0782)">
            <path
               style="display:inline;overflow:visible;visibility:visible;opacity:1;fill:#e3e4e5;fill-opacity:1;fill-rule:evenodd;stroke:#000000;stroke-width:2.02729;stroke-linecap:round;stroke-linejoin:round;stroke-miterlimit:4;stroke-dasharray:none;stroke-dashoffset:0;stroke-opacity:1;marker:none;marker-start:none;marker-mid:none;marker-end:none;enable-background:accumulate"
               id="path9012"
               transform="translate(5.7741166,34.306194)"
               d="m 3198.0512,1390.3806 a 29.4628,29.4628 0 1 1 -58.9256,0 29.4628,29.4628 0 1 1 58.9256,0 z" />
            <path
               style="fill:#eac102;fill-rule:evenodd;stroke:#000000;stroke-width:2.02729;stroke-linecap:butt;stroke-linejoin:miter;stroke-miterlimit:4;stroke-dasharray:none;stroke-opacity:1"
               id="path9014"
               d="m 3153.8713,1446.2083 c 10.7718,4.0584 21.9748,5.4216 35.2212,4.3839 -0.7469,7.6145 -7.8526,4.5247 -6.7924,11.0304 1.0602,6.5057 -27.3179,4.332 -24.724,-2.5454 2.5939,-6.8773 -5.0767,-5.2953 -3.7048,-12.8689 z" />
          </g>
          <g
             style="stroke:#000000;stroke-width:2.02729;stroke-opacity:1"
             id="g9016"
             transform="matrix(-1,0,0,1.0057864,5913.0469,-1346.0782)">
            <path
               style="display:inline;overflow:visible;visibility:visible;opacity:1;fill:#e3e4e5;fill-opacity:1;fill-rule:evenodd;stroke:#000000;stroke-width:2.02729;stroke-linecap:round;stroke-linejoin:round;stroke-miterlimit:4;stroke-dasharray:none;stroke-dashoffset:0;stroke-opacity:1;marker:none;marker-start:none;marker-mid:none;marker-end:none;enable-background:accumulate"
               id="path9018"
               transform="translate(5.7741166,34.306194)"
               d="m 3198.0512,1390.3806 a 29.4628,29.4628 0 1 1 -58.9256,0 29.4628,29.4628 0 1 1 58.9256,0 z" />
            <path
               style="fill:#eac102;fill-rule:evenodd;stroke:#000000;stroke-width:2.02729;stroke-linecap:butt;stroke-linejoin:miter;stroke-miterlimit:4;stroke-dasharray:none;stroke-opacity:1"
               id="path9020"
               d="m 3153.8713,1446.2083 c 10.7718,4.0584 21.9748,5.4216 35.2212,4.3839 -0.7469,7.6145 -7.8526,4.5247 -6.7924,11.0304 1.0602,6.5057 -27.3179,4.332 -24.724,-2.5454 2.5939,-6.8773 -5.0767,-5.2953 -3.7048,-12.8689 z" />
          </g>
        </g>
        <g
           style="stroke:#000000;stroke-width:2.03315;stroke-opacity:1"
           id="g9022"
           transform="matrix(0.5070596,0,0,0.4766055,-1167.3698,39.474014)">
          <g
             style="opacity:1;stroke:#000000;stroke-width:2.04176;stroke-opacity:1"
             id="g9024"
             transform="matrix(-0.9418928,0.3353921,0.3297324,0.9353362,4949.3346,-2266.4513)">
            <path
               style="display:inline;overflow:visible;visibility:visible;opacity:1;fill:#e3e4e5;fill-opacity:1;fill-rule:evenodd;stroke:#000000;stroke-width:2.04176;stroke-linecap:round;stroke-linejoin:round;stroke-miterlimit:4;stroke-dasharray:none;stroke-dashoffset:0;stroke-opacity:1;marker:none;marker-start:none;marker-mid:none;marker-end:none;enable-background:accumulate"
               id="path9026"
               transform="translate(5.7741166,34.306194)"
               d="m 3198.0512,1390.3806 a 29.4628,29.4628 0 1 1 -58.9256,0 29.4628,29.4628 0 1 1 58.9256,0 z" />
            <path
               style="fill:#eac102;fill-rule:evenodd;stroke:#000000;stroke-width:2.04176;stroke-linecap:butt;stroke-linejoin:miter;stroke-miterlimit:4;stroke-dasharray:none;stroke-opacity:1"
               id="path9028"
               d="m 3153.8713,1446.2083 c 10.7718,4.0584 21.9748,5.4216 35.2212,4.3839 -0.7469,7.6145 -7.8526,4.5247 -6.7924,11.0304 1.0602,6.5057 -27.3179,4.332 -24.724,-2.5454 2.5939,-6.8773 -5.0767,-5.2953 -3.7048,-12.8689 z" />
          </g>
          <g
             style="opacity:1;stroke:#000000;stroke-width:2.04176;stroke-opacity:1"
             id="g9030"
             transform="matrix(0.9418928,0.3353921,-0.3297324,0.9353362,964.41171,-2266.4513)">
            <path
               style="display:inline;overflow:visible;visibility:visible;opacity:1;fill:#e3e4e5;fill-opacity:1;fill-rule:evenodd;stroke:#000000;stroke-width:2.04176;stroke-linecap:round;stroke-linejoin:round;stroke-miterlimit:4;stroke-dasharray:none;stroke-dashoffset:0;stroke-opacity:1;marker:none;marker-start:none;marker-mid:none;marker-end:none;enable-background:accumulate"
               id="path9032"
               transform="translate(5.7741166,34.306194)"
               d="m 3198.0512,1390.3806 a 29.4628,29.4628 0 1 1 -58.9256,0 29.4628,29.4628 0 1 1 58.9256,0 z" />
            <path
               style="fill:#eac102;fill-rule:evenodd;stroke:#000000;stroke-width:2.04176;stroke-linecap:butt;stroke-linejoin:miter;stroke-miterlimit:4;stroke-dasharray:none;stroke-opacity:1"
               id="path9034"
               d="m 3153.8713,1446.2083 c 10.7718,4.0584 21.9748,5.4216 35.2212,4.3839 -0.7469,7.6145 -7.8526,4.5247 -6.7924,11.0304 1.0602,6.5057 -27.3179,4.332 -24.724,-2.5454 2.5939,-6.8773 -5.0767,-5.2953 -3.7048,-12.8689 z" />
          </g>
        </g>
        <g
           style="display:inline;stroke:#000000;stroke-width:1.95302;stroke-opacity:1"
           id="g9036"
           transform="matrix(0.5078191,0,0,0.5157416,-1170.6975,21.780478)">
          <path
             style="fill:#eac102;fill-rule:evenodd;stroke:#000000;stroke-width:1.95302;stroke-linecap:butt;stroke-linejoin:miter;stroke-opacity:1"
             id="path9038"
             d="m 2841.4937,4.1306535 c 0,0 28.8788,-5.1505141 44.492,18.1740365 15.3413,22.918125 52.7634,20.519073 52.7634,20.519073 l -15.829,51.590814 -102.0091,-38.69311 c -0.7097,0 6.2592,-9.733994 19.3465,-8.793889 13.0873,0.940105 20.5001,17.833079 40.4519,9.966408 z" />
          <path
             style="fill:#eac102;fill-rule:evenodd;stroke:#000000;stroke-width:1.95302;stroke-linecap:butt;stroke-linejoin:miter;stroke-opacity:1"
             id="path9040"
             d="m 3076.5136,4.1306535 c 0,0 -28.8788,-5.1505141 -44.492,18.1740365 -15.3413,22.918125 -52.7634,20.519073 -52.7634,20.519073 l 15.829,51.590814 102.0091,-38.69311 c 0.7097,0 -6.2592,-9.733994 -19.3465,-8.793889 -13.0873,0.940105 -20.5001,17.833079 -40.4519,9.966408 z" />
          <path
             style="fill:#eac102;fill-rule:evenodd;stroke:#000000;stroke-width:1.95302;stroke-linecap:butt;stroke-linejoin:miter;stroke-opacity:1"
             id="path9042"
             d="m 2958.754,-131.54692 c -17.5495,18.95665 -35.4394,40.263977 -36.4062,68.26567 -14.0703,-14.666102 -28.1486,-4.409478 -42.2188,-1.78125 7.0688,9.514919 -0.2006,35.591803 9.375,53.375 -10.2419,0.805196 -14.866,9.8429331 -21.0938,15.21875 4.1931,15.598209 52.0459,17.805823 60.375,46.3125 -52.1011,-5.195722 -35.6003,-42.8867565 -87.9374,-45.71875 -8.3654,43.101669 24.9649,34.569181 27.5624,58.03125 -15.9132,2.984245 -19.887,-13.089906 -33.75,-12.4375 -19.4297,0.914379 -27.838,22.163956 -40.125,29.4375 18.9407,5.159853 26.0557,23.19622 45.0626,27.5625 10.272,2.35973 15.109,-15.805611 31.1562,-7.625 -15.7384,21.82476 -31.4376,15.41252 -23.4688,46.3125 59.5699,5.25788 35.2243,-35.33363 75.0626,-29.3125 -60.1728,37.02337 -27.1126,51.09338 -42.2188,79.75 30.9985,-12.63825 42.1487,-3.99078 78.875,-30.3125 36.7263,26.32172 47.8766,17.67425 78.875,30.3125 -15.1062,-28.65662 17.954,-42.72663 -42.2188,-79.75 39.8383,-6.02113 15.4928,34.57038 75.0626,29.3125 7.9688,-30.89998 -7.7304,-24.48774 -23.4688,-46.3125 16.0472,-8.180611 20.8842,9.98473 31.1562,7.625 19.0069,-4.36628 26.1217,-22.402647 45.0626,-27.5625 -12.287,-7.273544 -20.6953,-28.523121 -40.125,-29.4375 -13.863,-0.652406 -17.8368,15.421745 -33.75,12.4375 2.5976,-23.462069 35.9278,-14.929581 27.5624,-58.03125 -52.3372,2.8319935 -35.8366,40.523028 -87.9374,45.71875 8.3291,-28.506677 56.1819,-30.714291 60.375,-46.3125 -6.2278,-5.3758169 -10.8519,-14.413554 -21.0938,-15.21875 9.5756,-17.783197 2.3063,-43.860081 9.375,-53.375 -14.0702,-2.628228 -28.1485,-12.884852 -42.2188,1.78125 -0.9668,-28.001693 -18.8566,-49.30902 -36.4062,-68.26567 l -0.25,-0.25 z" />
          <path
             style="fill:none;fill-rule:evenodd;stroke:#000000;stroke-width:1.95302;stroke-linecap:round;stroke-linejoin:miter;stroke-miterlimit:4;stroke-dasharray:none;stroke-opacity:1"
             id="path9044"
             d="m 2959.4071,53.359306 c -1.8139,-3.26519 0,-157.770886 0,-157.770886 m -9.5108,213.06391 c -4.7015,18.52753 -21.4209,48.18744 -41.0346,58.70657 m 20.5962,-75.341287 c -15.5614,0.78921 -44.3598,16.442077 -55.8772,23.786027 m 53.1562,-30.845833 c -55.011,4.998295 -77.4607,-17.219725 -94.4791,-10.295533 m 96.7572,-5.71627 c 0,0 -13.5066,-3.93962 -29.3456,-8.270611 -10.1782,-2.783118 -16.3408,-15.241719 -22.8384,-22.087656 m 75.034,11.417782 c 0,0 -0.8149,-10.30191 -13.1398,-39.171121 -11.9454,-27.979451 -27.474,-42.90183 -27.474,-42.90183 m 56.8605,140.719762 c 4.7016,18.52753 21.4208,48.18744 41.0346,58.70657 m -20.5961,-75.341287 c 15.5614,0.78921 44.3598,16.442077 55.8771,23.786027 m -53.1561,-30.845833 c 55.011,4.998295 77.4607,-17.219725 94.4791,-10.295533 m -96.7572,-5.71627 c 0,0 13.5066,-3.93962 29.3456,-8.270611 10.1781,-2.783118 16.3408,-15.241719 22.8384,-22.087656 m -75.0342,11.417782 c 0,0 0.815,-10.30191 13.14,-39.171121 11.9454,-27.979451 27.474,-42.90183 27.474,-42.90183" />
          <g
             style="stroke:#000000;stroke-width:1.95302;stroke-opacity:1"
             id="g9046">
            <path
               style="display:inline;overflow:visible;visibility:visible;fill:#eac102;fill-opacity:1;fill-rule:evenodd;stroke:#000000;stroke-width:1.54186;stroke-linecap:round;stroke-linejoin:round;stroke-miterlimit:4;stroke-dasharray:none;stroke-dashoffset:0;stroke-opacity:1;marker:none;marker-start:none;marker-mid:none;marker-end:none;enable-background:accumulate"
               id="path9048"
               transform="matrix(1.3114524,0,0,1.2234043,-925.15005,-19.090606)"
               d="m 2989.9221,81.516876 a 27.5542,27.5542 0 1 1 -55.1084,0 27.5542,27.5542 0 1 1 55.1084,0 z" />
            <path
               style="display:inline;overflow:visible;visibility:visible;fill:#e3e4e5;fill-opacity:1;fill-rule:evenodd;stroke:#000000;stroke-width:1.93979;stroke-linecap:round;stroke-linejoin:round;stroke-miterlimit:4;stroke-dasharray:none;stroke-dashoffset:0;stroke-opacity:1;marker:none;marker-start:none;marker-mid:none;marker-end:none;enable-background:accumulate"
               id="path9050"
               transform="matrix(1.0425532,0,0,0.972312,-128.57176,1.3776492)"
               d="m 2989.9221,81.516876 a 27.5542,27.5542 0 1 1 -55.1084,0 27.5542,27.5542 0 1 1 55.1084,0 z" />
          </g>
        </g>
        <path
           style="fill:#eac102;fill-rule:evenodd;stroke:#000000;stroke-width:0.999488;stroke-linecap:butt;stroke-linejoin:miter;stroke-opacity:1"
           id="path9052"
           d="m 331.71593,147.85789 c -73.11178,0.72223 -147.06377,0.78956 -218.8668,15.27778 -16.023544,4.78377 -38.931882,7.45507 -44.946764,24.39963 -1.973191,14.1529 16.143775,20.15108 27.460406,24.04067 53.910388,15.30703 110.873998,16.60292 166.731748,18.99586 86.90166,1.64886 174.3634,2.31821 260.62074,-9.11223 23.56504,-4.30574 49.51304,-6.96319 68.89122,-21.46952 11.57079,-10.72067 -1.23707,-25.7111 -14.02814,-28.79445 -43.87951,-15.92551 -91.7386,-17.63443 -138.14779,-20.87685 -35.86755,-1.85142 -71.79747,-2.43737 -107.71462,-2.46089 z" />
        <path
           style="fill:#eac102;fill-opacity:1;fill-rule:evenodd;stroke:#000000;stroke-width:0.999488;stroke-linecap:butt;stroke-linejoin:miter;stroke-opacity:1"
           id="path9054"
           d="m 331.94142,165.25534 c -39.85012,0 -73.457,0.73417 -101.7816,2.01048 -5.66512,0.25527 -11.13398,0.53957 -16.38515,0.83454 -62.98518,3.54005 -96.7581,9.79824 -114.857442,15.51485 -1.508467,0.47649 -2.938892,0.9365 -4.237538,1.40354 -6.472077,2.33019 -10.452411,4.5611 -12.874042,6.37285 -0.476245,0.35642 -0.886393,0.69874 -1.251083,1.0242 -0.37825,0.33757 -0.694045,0.648 -0.96858,0.94834 -1.618394,1.76982 -1.573955,2.84503 -1.573942,2.84503 l 13.761907,46.99976 h 44.99861 390.33773 44.99868 l 13.76184,-46.99976 c 0,0 0.0444,-1.07521 -1.57401,-2.84503 -0.27443,-0.30034 -0.59031,-0.61077 -0.96858,-0.94834 -2.2143,-1.98221 -6.35608,-4.59992 -14.12499,-7.39705 -0.0111,-0.004 -0.0294,0.004 -0.0404,0 -16.88092,-6.07022 -50.81945,-13.08328 -119.05462,-16.91839 -0.0129,-7.3e-4 -0.0275,7.3e-4 -0.0403,0 -5.25113,-0.29497 -10.67995,-0.57927 -16.34486,-0.83454 -28.32554,-1.27633 -61.92919,-2.01048 -101.78161,-2.01048 z" />
        <g
           style="stroke:#000000;stroke-width:1.92778;stroke-opacity:1"
           id="g9056"
           transform="matrix(0.5347729,0,0,0.5026544,-520.99715,-165.124)">
          <path
             style="display:inline;overflow:visible;visibility:visible;opacity:1;fill:#eac102;fill-opacity:1;fill-rule:evenodd;stroke:#000000;stroke-width:1.38708;stroke-linecap:round;stroke-linejoin:round;stroke-miterlimit:4;stroke-dasharray:none;stroke-dashoffset:0;stroke-opacity:1;marker:none;marker-start:none;marker-mid:none;marker-end:none;enable-background:accumulate"
             id="path9058"
             transform="matrix(1.3345865,0,0,1.4473316,-589.58751,-320.19715)"
             d="m 1796.3478,707.07074 a 23.0657,23.0657 0 1 1 -46.1314,0 23.0657,23.0657 0 1 1 46.1314,0 z" />
          <path
             style="display:inline;overflow:visible;visibility:visible;opacity:1;fill:#eac102;fill-opacity:1;fill-rule:evenodd;stroke:#000000;stroke-width:1.40298;stroke-linecap:round;stroke-linejoin:round;stroke-miterlimit:4;stroke-dasharray:none;stroke-dashoffset:0;stroke-opacity:1;marker:none;marker-start:none;marker-mid:none;marker-end:none;enable-background:accumulate"
             id="path9060"
             transform="matrix(1.3045113,0,0,1.4473316,-532.96062,-320.19715)"
             d="m 1796.3478,707.07074 a 23.0657,23.0657 0 1 1 -46.1314,0 23.0657,23.0657 0 1 1 46.1314,0 z" />
          <path
             style="display:inline;overflow:visible;visibility:visible;opacity:1;fill:#e3e4e5;fill-opacity:1;fill-rule:evenodd;stroke:#000000;stroke-width:1.60379;stroke-linecap:round;stroke-linejoin:round;stroke-miterlimit:4;stroke-dasharray:none;stroke-dashoffset:0;stroke-opacity:1;marker:none;marker-start:none;marker-mid:none;marker-end:none;enable-background:accumulate"
             id="path9062"
             transform="matrix(1.1541354,0,0,1.2518797,-265.60797,-181.99885)"
             d="m 1796.3478,707.07074 a 23.0657,23.0657 0 1 1 -46.1314,0 23.0657,23.0657 0 1 1 46.1314,0 z" />
        </g>
        <g
           style="stroke:#000000;stroke-width:1.92778;stroke-opacity:1"
           id="g9064"
           transform="matrix(-0.5347729,0,0,0.5026544,1184.8798,-165.124)">
          <path
             style="display:inline;overflow:visible;visibility:visible;opacity:1;fill:#eac102;fill-opacity:1;fill-rule:evenodd;stroke:#000000;stroke-width:1.38708;stroke-linecap:round;stroke-linejoin:round;stroke-miterlimit:4;stroke-dasharray:none;stroke-dashoffset:0;stroke-opacity:1;marker:none;marker-start:none;marker-mid:none;marker-end:none;enable-background:accumulate"
             id="path9066"
             transform="matrix(1.3345865,0,0,1.4473316,-589.58751,-320.19715)"
             d="m 1796.3478,707.07074 a 23.0657,23.0657 0 1 1 -46.1314,0 23.0657,23.0657 0 1 1 46.1314,0 z" />
          <path
             style="display:inline;overflow:visible;visibility:visible;opacity:1;fill:#eac102;fill-opacity:1;fill-rule:evenodd;stroke:#000000;stroke-width:1.40298;stroke-linecap:round;stroke-linejoin:round;stroke-miterlimit:4;stroke-dasharray:none;stroke-dashoffset:0;stroke-opacity:1;marker:none;marker-start:none;marker-mid:none;marker-end:none;enable-background:accumulate"
             id="path9068"
             transform="matrix(1.3045113,0,0,1.4473316,-532.96062,-320.19715)"
             d="m 1796.3478,707.07074 a 23.0657,23.0657 0 1 1 -46.1314,0 23.0657,23.0657 0 1 1 46.1314,0 z" />
          <path
             style="display:inline;overflow:visible;visibility:visible;opacity:1;fill:#e3e4e5;fill-opacity:1;fill-rule:evenodd;stroke:#000000;stroke-width:1.60379;stroke-linecap:round;stroke-linejoin:round;stroke-miterlimit:4;stroke-dasharray:none;stroke-dashoffset:0;stroke-opacity:1;marker:none;marker-start:none;marker-mid:none;marker-end:none;enable-background:accumulate"
             id="path9070"
             transform="matrix(1.1541354,0,0,1.2518797,-265.60797,-181.99885)"
             d="m 1796.3478,707.07074 a 23.0657,23.0657 0 1 1 -46.1314,0 23.0657,23.0657 0 1 1 46.1314,0 z" />
        </g>
        <g
           style="stroke:#000000;stroke-width:1.94628;stroke-opacity:1"
           id="g9072"
           transform="matrix(-0.5231625,0.09418722,0,0.5040921,1166.8084,-340.57562)">
          <path
             style="fill:none;fill-rule:evenodd;stroke:#000000;stroke-width:1.94628;stroke-linecap:round;stroke-linejoin:round;stroke-opacity:1"
             id="path9074"
             d="m 1880.9956,701.45346 50.3965,-34.39748 h 3.2283 l -48.0651,34.39748 z" />
          <path
             style="fill:none;fill-rule:evenodd;stroke:#000000;stroke-width:1.94628;stroke-linecap:round;stroke-linejoin:round;stroke-opacity:1"
             id="path9076"
             d="m 1880.9956,701.45346 50.3965,34.39748 h 3.2283 l -48.0651,-34.39748 z" />
          <path
             style="display:inline;overflow:visible;visibility:visible;fill:none;fill-opacity:1;fill-rule:evenodd;stroke:#000000;stroke-width:1.94628;stroke-linecap:round;stroke-linejoin:round;stroke-miterlimit:4;stroke-dasharray:none;stroke-dashoffset:0;stroke-opacity:1;marker:none;marker-start:none;marker-mid:none;marker-end:none;enable-background:accumulate"
             id="path9078"
             d="m 1934.694,735.73249 45.2605,-33.39707 -45.1577,-35.10307" />
          <g
             style="stroke:#000000;stroke-width:1.94628;stroke-opacity:1"
             id="g9080"
             transform="translate(2)">
            <path
               style="fill:#008f4c;fill-rule:evenodd;stroke:#000000;stroke-width:1.94628;stroke-linecap:round;stroke-linejoin:round;stroke-opacity:1"
               id="path9082"
               d="m 1897.0477,701.80623 36.1615,26.63599 35.6322,-26.81239 -35.8086,-26.10681 z" />
            <path
               style="fill:none;fill-rule:evenodd;stroke:#000000;stroke-width:1.94628;stroke-linecap:round;stroke-linejoin:round;stroke-miterlimit:4;stroke-dasharray:none;stroke-opacity:1"
               id="path9084"
               d="m 1921.3647,701.8897 19.1285,14.02828 18.8485,-14.12119 -18.9418,-13.74958 z" />
            <path
               style="fill:none;fill-rule:evenodd;stroke:#000000;stroke-width:1.94628;stroke-linecap:round;stroke-linejoin:round;stroke-miterlimit:4;stroke-dasharray:none;stroke-opacity:1"
               id="path9086"
               d="m 1933.0328,728.26583 7.4971,-12.3482" />
            <path
               style="fill:none;fill-rule:evenodd;stroke:#000000;stroke-width:1.94628;stroke-linecap:round;stroke-linejoin:round;stroke-miterlimit:4;stroke-dasharray:none;stroke-opacity:1"
               id="path9088"
               d="m 1968.3123,701.62983 -9.0409,0.13258" />
            <path
               style="fill:none;fill-rule:evenodd;stroke:#000000;stroke-width:1.94628;stroke-linecap:round;stroke-linejoin:round;stroke-miterlimit:4;stroke-dasharray:none;stroke-opacity:1"
               id="path9090"
               d="m 1921.3906,701.80623 h -23.6373" />
            <path
               style="fill:none;fill-rule:evenodd;stroke:#000000;stroke-width:1.94628;stroke-linecap:round;stroke-linejoin:round;stroke-miterlimit:4;stroke-dasharray:none;stroke-opacity:1"
               id="path9092"
               d="m 1940.4853,688.1802 -7.4525,-12.65718" />
          </g>
        </g>
        <g
           style="stroke:#000000;stroke-width:1.94628;stroke-opacity:1"
           id="g9094"
           transform="matrix(0.5231625,0.09418722,0,0.5040921,-502.92618,-340.57562)">
          <path
             style="fill:none;fill-rule:evenodd;stroke:#000000;stroke-width:1.94628;stroke-linecap:round;stroke-linejoin:round;stroke-opacity:1"
             id="path9057"
             d="m 1880.9956,701.45346 50.3965,-34.39748 h 3.2283 l -48.0651,34.39748 z" />
          <path
             style="fill:none;fill-rule:evenodd;stroke:#000000;stroke-width:1.94628;stroke-linecap:round;stroke-linejoin:round;stroke-opacity:1"
             id="path9059"
             d="m 1880.9956,701.45346 50.3965,34.39748 h 3.2283 l -48.0651,-34.39748 z" />
          <path
             style="display:inline;overflow:visible;visibility:visible;fill:none;fill-opacity:1;fill-rule:evenodd;stroke:#000000;stroke-width:1.94628;stroke-linecap:round;stroke-linejoin:round;stroke-miterlimit:4;stroke-dasharray:none;stroke-dashoffset:0;stroke-opacity:1;marker:none;marker-start:none;marker-mid:none;marker-end:none;enable-background:accumulate"
             id="path9061"
             d="m 1934.694,735.73249 45.2605,-33.39707 -45.1577,-35.10307" />
          <g
             style="stroke:#000000;stroke-width:1.94628;stroke-opacity:1"
             id="g9102"
             transform="translate(2)">
            <path
               style="fill:#008f4c;fill-rule:evenodd;stroke:#000000;stroke-width:1.94628;stroke-linecap:round;stroke-linejoin:round;stroke-opacity:1"
               id="path9104"
               d="m 1897.0477,701.80623 36.1615,26.63599 35.6322,-26.81239 -35.8086,-26.10681 z" />
            <path
               style="fill:none;fill-rule:evenodd;stroke:#000000;stroke-width:1.94628;stroke-linecap:round;stroke-linejoin:round;stroke-miterlimit:4;stroke-dasharray:none;stroke-opacity:1"
               id="path9106"
               d="m 1921.3647,701.8897 19.1285,14.02828 18.8485,-14.12119 -18.9418,-13.74958 z" />
            <path
               style="fill:none;fill-rule:evenodd;stroke:#000000;stroke-width:1.94628;stroke-linecap:round;stroke-linejoin:round;stroke-miterlimit:4;stroke-dasharray:none;stroke-opacity:1"
               id="path9108"
               d="m 1933.0328,728.26583 7.4971,-12.3482" />
            <path
               style="fill:none;fill-rule:evenodd;stroke:#000000;stroke-width:1.94628;stroke-linecap:round;stroke-linejoin:round;stroke-miterlimit:4;stroke-dasharray:none;stroke-opacity:1"
               id="path9110"
               d="m 1968.3123,701.62983 -9.0409,0.13258" />
            <path
               style="fill:none;fill-rule:evenodd;stroke:#000000;stroke-width:1.94628;stroke-linecap:round;stroke-linejoin:round;stroke-miterlimit:4;stroke-dasharray:none;stroke-opacity:1"
               id="path9112"
               d="m 1921.3906,701.80623 h -23.6373" />
            <path
               style="fill:none;fill-rule:evenodd;stroke:#000000;stroke-width:1.94628;stroke-linecap:round;stroke-linejoin:round;stroke-miterlimit:4;stroke-dasharray:none;stroke-opacity:1"
               id="path9114"
               d="m 1940.4853,688.1802 -7.4525,-12.65718" />
          </g>
        </g>
        <g
           style="stroke:#000000;stroke-width:1.92778;stroke-opacity:1"
           id="g9116"
           transform="matrix(0.5347729,0,0,0.5026544,-521.24714,-167.017)">
          <rect
             style="display:inline;overflow:visible;visibility:visible;opacity:1;fill:#eac102;fill-opacity:1;fill-rule:nonzero;stroke:#000000;stroke-width:1.92778;stroke-linecap:butt;stroke-linejoin:miter;stroke-miterlimit:4;stroke-dasharray:none;stroke-dashoffset:0;stroke-opacity:1;marker:none;marker-start:none;marker-mid:none;marker-end:none;enable-background:accumulate"
             id="rect9118"
             y="669.16895"
             x="1531.7725"
             ry="33.918144"
             rx="32.551369"
             height="67.836288"
             width="127.29893" />
          <rect
             style="display:inline;overflow:visible;visibility:visible;opacity:1;fill:#ed1c24;fill-opacity:1;fill-rule:nonzero;stroke:#000000;stroke-width:1.92778;stroke-linecap:butt;stroke-linejoin:miter;stroke-miterlimit:4;stroke-dasharray:none;stroke-dashoffset:0;stroke-opacity:1;marker:none;marker-start:none;marker-mid:none;marker-end:none;enable-background:accumulate"
             id="rect9120"
             y="673.79742"
             x="1538.15"
             ry="29.289711"
             rx="29.289711"
             height="58.579422"
             width="114.54353" />
        </g>
        <path
           style="fill:#eac102;fill-opacity:1;fill-rule:evenodd;stroke:#000000;stroke-width:0.999488;stroke-linecap:butt;stroke-linejoin:miter;stroke-opacity:1"
           id="path9122"
           d="m 76.684417,161.37081 -3.486888,7.24438 c 0.844085,0.84276 1.732595,1.66461 2.652359,2.47182 l 2.308062,-8.5973 c -0.383687,-0.50894 -0.966256,-1.20104 -1.473533,-1.1189 z m 510.583993,-0.023 c -0.63113,0.0107 -0.6638,0.0289 -1.7419,1.35321 l 2.69924,8.23732 c 0.69854,-0.59799 1.40418,-1.26664 2.08839,-1.95986 z" />
        <g
           style="stroke:#000000;stroke-width:0.798277;stroke-opacity:1"
           id="g9124"
           transform="matrix(1.29144,0,0,1.2138759,-162.23568,-467.30779)">
          <g
             style="stroke:#000000;stroke-width:2.03315;stroke-opacity:1"
             id="g9126"
             transform="matrix(0.3926312,0,0,0.3926312,-779.60271,412.54467)">
            <path
               style="fill:#eac102;fill-rule:evenodd;stroke:#000000;stroke-width:2.03315;stroke-linecap:butt;stroke-linejoin:miter;stroke-opacity:1"
               id="path9128"
               d="m 2485.2329,-95.278002 11.5204,-4.942028 c 34.5626,-5.26509 51.2104,33.927292 54.4278,56.039343 13.2829,-4.462713 30.9666,-9.575597 50.8726,-4.769305 -4.9926,21.104705 -1.2477,24.197661 -9.1412,52.0649203 19.6649,3.8354973 20.2688,10.4215587 25.8338,14.3079167 -23.9998,19.994418 -59.5257,25.64123 -61.2061,50.872595 l 38.5519,-6.756517 c 18.4148,-15.235282 18.2648,-45.166946 55.2444,-45.705846 3.8395,43.71384 -20.9298,30.607323 -30.2056,62.000974 29.2782,2.384653 90.0446,-2.075931 87.8347,7.153959 -27.1591,17.73375 -25.2255,23.33985 -39.3467,32.9877 l -9.1412,0.79488 c -9.2321,-4.17018 -14.6868,-18.917142 -28.6158,-9.93605 -6e-4,-1.7e-4 7.6973,5.72975 29.4106,14.70536 21.0364,8.69576 17.0901,31.79537 17.0901,31.79537 -30.9851,4.78966 -43.3101,-3.59262 -56.8342,-11.12838 36.3917,26.29776 26.4529,43.16019 46.8981,64.38563 l -5.1667,-0.39745 c -41.1731,2.09699 -62.1151,-15.72694 -89.027,-25.03886 3.5052,11.08975 -14.9666,30.07238 -20.2696,41.33399 h -3.9744 l -23.0517,-54.05213 c -2.8882,7.31176 -7.2802,5.60155 -11.1283,7.15396 l -24.6415,-66.37284 c -16.1827,-5.51333 -13.5976,-17.282619 -14.7053,-27.820949 3.7809,0.466833 3.8421,-1.298209 12.3207,1.987211 l -11.1284,-27.82095 -1.9872,-19.474665 c 4.4616,3.015721 12.7487,0.930828 11.5258,11.525822 3.0197,12.110385 7.5468,21.206061 11.5258,31.397929 l 13.1156,-43.718636 -24.6414,-75.514006 13.9105,-5.56419 c -5.2515,-17.16768 21.4393,-36.616956 -15.8705,-51.494758 z" />
            <path
               style="fill:#eac102;fill-rule:evenodd;stroke:#000000;stroke-width:2.03315;stroke-linecap:round;stroke-linejoin:round;stroke-opacity:1"
               id="path9130"
               d="m 2483.4644,-94.739902 c 35.629,-12.751578 57.5044,21.597318 59.3075,50.033913 17.0876,-4.868621 34.2185,-9.218326 52.2163,-3.16462 -10.9925,24.108836 -0.9477,37.543956 -13.1859,55.3808454 21.6129,1.8351032 16.7671,6.6315266 28.4815,11.0761686 -33.123,28.565711 -62.1481,22.563936 -64.3472,53.798536 53.509,-16.48074 32.0256,-29.107568 56.9631,-43.77724 11.4823,-6.977972 25.281,-11.639591 43.2498,-12.131042 3.8936,46.67994 -25.4254,32.156738 -33.2285,61.710085 26.9571,-3.66005 30.5292,-19.007846 46.7522,-21.424805 16.2231,-2.416959 31.3335,15.4117 48.7138,26.171734 -31.1557,12.186462 -34.4677,37.355207 -49.9063,35.169377 -14.2143,-1.73546 -15.9483,-12.71681 -32.9012,-5.10549 15.0232,13.40094 40.8004,11.43544 47.9967,40.61262 -37.2471,12.56255 -63.2578,-16.92633 -100.2129,-17.93284 90.783,25.05274 57.734,52.6732 90.1916,72.78625 -24.8466,-2.76734 -45.1903,4.39454 -91.2465,-22.15234 1.2933,12.65446 -15.4459,22.54159 -23.2072,38.50287 -4.803,-25.18002 -29.5785,-37.66738 -24.7895,-77.00574 -9.4211,1.12768 5.4423,28.68073 -10.0213,29.53645 -13.0655,-11.26704 -14.0072,-26.45597 -14.2408,-36.92057 -7.5599,-9.14223 2.8475,16.5954 -29.009,-24.26208 -2.8173,-4.24066 1.7355,-30.704371 5.2743,-32.70107 2.6004,6.578616 5.0582,13.442399 11.0762,13.185915 -2.1017,-9.733657 -4.3178,-19.391031 -10.5487,-26.371831 -3.3052,-2.083416 -2.7557,-20.071228 -1.0549,-31.646197 11.3242,13.8996 3.3731,35.375083 22.1523,39.03031 -1.1187,-35.233587 -31.1642,-24.405061 -14.2408,-58.018028 -2.2855,-18.1086573 -2.7978,-75.551583 9.4939,-53.271099 -1.0632,-30.299506 12.9476,-51.707089 -9.7285,-61.110082 z" />
            <path
               style="fill:none;fill-rule:evenodd;stroke:#000000;stroke-width:2.03315;stroke-linecap:round;stroke-linejoin:round;stroke-miterlimit:4;stroke-dasharray:none;stroke-opacity:1"
               id="path9132"
               d="m 2515.2425,74.654516 c -15.6283,-89.020693 10.8016,-115.663783 -7.0059,-158.6096 m 58.4448,70.377442 c -33.8269,29.410719 -41.8938,58.821437 -44.5136,88.232156 m 32.5903,27.820946 c 43.1818,2.9331 63.3268,-17.898067 108.1043,-19.077219 m -111.2838,7.948843 c 34.8637,-4.957398 43.8556,-24.440438 54.847,-39.744214 m -50.0777,59.61632 c 28.6582,0.68109 53.223,8.82558 65.9754,18.28234 m -78.6936,5.56419 c 28.6894,32.74714 46.9066,30.58693 69.9498,44.51352 m -75.514,-45.3084 c -4.2515,25.57808 5.8171,42.19156 8.7437,54.84701 m -31.7953,-59.61632 c -3.1433,4.54063 -5.335,10.03275 -6.3591,16.69257 m -3.9744,-32.59026 c -13.0953,5.14741 -11.4939,-1.48525 -26.2312,1.58977 m 26.2312,-21.461873 c -5.2992,-0.841044 -10.5985,-3.465189 -15.8977,-12.718149 m 21.4619,-3.179537 c -3.9178,-22.834193 -8.4205,-46.545832 -20.667,-81.8730813" />
            <g
               style="stroke:#000000;stroke-width:2.13722;stroke-opacity:1"
               id="g9134"
               transform="matrix(-0.748008,0.507597,0.4813713,0.8831979,3520.4688,-1419.3176)">
              <path
                 style="display:inline;overflow:visible;visibility:visible;opacity:1;fill:#eac102;fill-opacity:1;fill-rule:evenodd;stroke:#000000;stroke-width:1.53777;stroke-linecap:round;stroke-linejoin:round;stroke-miterlimit:4;stroke-dasharray:none;stroke-dashoffset:0;stroke-opacity:1;marker:none;marker-start:none;marker-mid:none;marker-end:none;enable-background:accumulate"
                 id="path9136"
                 transform="matrix(1.3345865,0,0,1.4473316,-589.58751,-320.19715)"
                 d="m 1796.3478,707.07074 a 23.0657,23.0657 0 1 1 -46.1314,0 23.0657,23.0657 0 1 1 46.1314,0 z" />
              <path
                 style="display:inline;overflow:visible;visibility:visible;opacity:1;fill:#eac102;fill-opacity:1;fill-rule:evenodd;stroke:#000000;stroke-width:1.5554;stroke-linecap:round;stroke-linejoin:round;stroke-miterlimit:4;stroke-dasharray:none;stroke-dashoffset:0;stroke-opacity:1;marker:none;marker-start:none;marker-mid:none;marker-end:none;enable-background:accumulate"
                 id="path9138"
                 transform="matrix(1.3045113,0,0,1.4473316,-532.96062,-320.19715)"
                 d="m 1796.3478,707.07074 a 23.0657,23.0657 0 1 1 -46.1314,0 23.0657,23.0657 0 1 1 46.1314,0 z" />
              <path
                 style="display:inline;overflow:visible;visibility:visible;opacity:1;fill:#e3e4e5;fill-opacity:1;fill-rule:evenodd;stroke:#000000;stroke-width:1.77803;stroke-linecap:round;stroke-linejoin:round;stroke-miterlimit:4;stroke-dasharray:none;stroke-dashoffset:0;stroke-opacity:1;marker:none;marker-start:none;marker-mid:none;marker-end:none;enable-background:accumulate"
                 id="path9140"
                 transform="matrix(1.1541354,0,0,1.2518797,-265.60797,-181.99885)"
                 d="m 1796.3478,707.07074 a 23.0657,23.0657 0 1 1 -46.1314,0 23.0657,23.0657 0 1 1 46.1314,0 z" />
            </g>
          </g>
          <g
             style="stroke:#000000;stroke-width:2.03315;stroke-opacity:1"
             id="g9142"
             transform="matrix(-0.3926312,0,0,0.3926312,1544.9142,412.54467)">
            <path
               style="fill:#eac102;fill-rule:evenodd;stroke:#000000;stroke-width:2.03315;stroke-linecap:butt;stroke-linejoin:miter;stroke-opacity:1"
               id="path9144"
               d="m 2485.2329,-95.278002 11.5204,-4.942028 c 34.5626,-5.26509 51.2104,33.927292 54.4278,56.039343 13.2829,-4.462713 30.9666,-9.575597 50.8726,-4.769305 -4.9926,21.104705 -1.2477,24.197661 -9.1412,52.0649203 19.6649,3.8354973 20.2688,10.4215587 25.8338,14.3079167 -23.9998,19.994418 -59.5257,25.64123 -61.2061,50.872595 l 38.5519,-6.756517 c 18.4148,-15.235282 18.2648,-45.166946 55.2444,-45.705846 3.8395,43.71384 -20.9298,30.607323 -30.2056,62.000974 29.2782,2.384653 90.0446,-2.075931 87.8347,7.153959 -27.1591,17.73375 -25.2255,23.33985 -39.3467,32.9877 l -9.1412,0.79488 c -9.2321,-4.17018 -14.6868,-18.917142 -28.6158,-9.93605 -6e-4,-1.7e-4 7.6973,5.72975 29.4106,14.70536 21.0364,8.69576 17.0901,31.79537 17.0901,31.79537 -30.9851,4.78966 -43.3101,-3.59262 -56.8342,-11.12838 36.3917,26.29776 26.4529,43.16019 46.8981,64.38563 l -5.1667,-0.39745 c -41.1731,2.09699 -62.1151,-15.72694 -89.027,-25.03886 3.5052,11.08975 -14.9666,30.07238 -20.2696,41.33399 h -3.9744 l -23.0517,-54.05213 c -2.8882,7.31176 -7.2802,5.60155 -11.1283,7.15396 l -24.6415,-66.37284 c -16.1827,-5.51333 -13.5976,-17.282619 -14.7053,-27.820949 3.7809,0.466833 3.8421,-1.298209 12.3207,1.987211 l -11.1284,-27.82095 -1.9872,-19.474665 c 4.4616,3.015721 12.7487,0.930828 11.5258,11.525822 3.0197,12.110385 7.5468,21.206061 11.5258,31.397929 l 13.1156,-43.718636 -24.6414,-75.514006 13.9105,-5.56419 c -5.2515,-17.16768 21.4393,-36.616956 -15.8705,-51.494758 z" />
            <path
               style="fill:#eac102;fill-rule:evenodd;stroke:#000000;stroke-width:2.03315;stroke-linecap:round;stroke-linejoin:round;stroke-opacity:1"
               id="path9146"
               d="m 2483.4644,-94.739902 c 35.629,-12.751578 57.5044,21.597318 59.3075,50.033913 17.0876,-4.868621 34.2185,-9.218326 52.2163,-3.16462 -10.9925,24.108836 -0.9477,37.543956 -13.1859,55.3808454 21.6129,1.8351032 16.7671,6.6315266 28.4815,11.0761686 -33.123,28.565711 -62.1481,22.563936 -64.3472,53.798536 53.509,-16.48074 32.0256,-29.107568 56.9631,-43.77724 11.4823,-6.977972 25.281,-11.639591 43.2498,-12.131042 3.8936,46.67994 -25.4254,32.156738 -33.2285,61.710085 26.9571,-3.66005 30.5292,-19.007846 46.7522,-21.424805 16.2231,-2.416959 31.3335,15.4117 48.7138,26.171734 -31.1557,12.186462 -34.4677,37.355207 -49.9063,35.169377 -14.2143,-1.73546 -15.9483,-12.71681 -32.9012,-5.10549 15.0232,13.40094 40.8004,11.43544 47.9967,40.61262 -37.2471,12.56255 -63.2578,-16.92633 -100.2129,-17.93284 90.783,25.05274 57.734,52.6732 90.1916,72.78625 -24.8466,-2.76734 -45.1903,4.39454 -91.2465,-22.15234 1.2933,12.65446 -15.4459,22.54159 -23.2072,38.50287 -4.803,-25.18002 -29.5785,-37.66738 -24.7895,-77.00574 -9.4211,1.12768 5.4423,28.68073 -10.0213,29.53645 -13.0655,-11.26704 -14.0072,-26.45597 -14.2408,-36.92057 -7.5599,-9.14223 2.8475,16.5954 -29.009,-24.26208 -2.8173,-4.24066 1.7355,-30.704371 5.2743,-32.70107 2.6004,6.578616 5.0582,13.442399 11.0762,13.185915 -2.1017,-9.733657 -4.3178,-19.391031 -10.5487,-26.371831 -3.3052,-2.083416 -2.7557,-20.071228 -1.0549,-31.646197 11.3242,13.8996 3.3731,35.375083 22.1523,39.03031 -1.1187,-35.233587 -31.1642,-24.405061 -14.2408,-58.018028 -2.2855,-18.1086573 -2.7978,-75.551583 9.4939,-53.271099 -1.0632,-30.299506 12.9476,-51.707089 -9.7285,-61.110082 z" />
            <path
               style="fill:none;fill-rule:evenodd;stroke:#000000;stroke-width:2.03315;stroke-linecap:round;stroke-linejoin:round;stroke-miterlimit:4;stroke-dasharray:none;stroke-opacity:1"
               id="path9148"
               d="m 2515.2425,74.654516 c -15.6283,-89.020693 10.8016,-115.663783 -7.0059,-158.6096 m 58.4448,70.377442 c -33.8269,29.410719 -41.8938,58.821437 -44.5136,88.232156 m 32.5903,27.820946 c 43.1818,2.9331 63.3268,-17.898067 108.1043,-19.077219 m -111.2838,7.948843 c 34.8637,-4.957398 43.8556,-24.440438 54.847,-39.744214 m -50.0777,59.61632 c 28.6582,0.68109 53.223,8.82558 65.9754,18.28234 m -78.6936,5.56419 c 28.6894,32.74714 46.9066,30.58693 69.9498,44.51352 m -75.514,-45.3084 c -4.2515,25.57808 5.8171,42.19156 8.7437,54.84701 m -31.7953,-59.61632 c -3.1433,4.54063 -5.335,10.03275 -6.3591,16.69257 m -3.9744,-32.59026 c -13.0953,5.14741 -11.4939,-1.48525 -26.2312,1.58977 m 26.2312,-21.461873 c -5.2992,-0.841044 -10.5985,-3.465189 -15.8977,-12.718149 m 21.4619,-3.179537 c -3.9178,-22.834193 -8.4205,-46.545832 -20.667,-81.8730813" />
            <g
               style="stroke:#000000;stroke-width:2.13722;stroke-opacity:1"
               id="g9150"
               transform="matrix(-0.748008,0.507597,0.4813713,0.8831979,3520.4688,-1419.3176)">
              <path
                 style="display:inline;overflow:visible;visibility:visible;opacity:1;fill:#eac102;fill-opacity:1;fill-rule:evenodd;stroke:#000000;stroke-width:1.53777;stroke-linecap:round;stroke-linejoin:round;stroke-miterlimit:4;stroke-dasharray:none;stroke-dashoffset:0;stroke-opacity:1;marker:none;marker-start:none;marker-mid:none;marker-end:none;enable-background:accumulate"
                 id="path9152"
                 transform="matrix(1.3345865,0,0,1.4473316,-589.58751,-320.19715)"
                 d="m 1796.3478,707.07074 a 23.0657,23.0657 0 1 1 -46.1314,0 23.0657,23.0657 0 1 1 46.1314,0 z" />
              <path
                 style="display:inline;overflow:visible;visibility:visible;opacity:1;fill:#eac102;fill-opacity:1;fill-rule:evenodd;stroke:#000000;stroke-width:1.5554;stroke-linecap:round;stroke-linejoin:round;stroke-miterlimit:4;stroke-dasharray:none;stroke-dashoffset:0;stroke-opacity:1;marker:none;marker-start:none;marker-mid:none;marker-end:none;enable-background:accumulate"
                 id="path9154"
                 transform="matrix(1.3045113,0,0,1.4473316,-532.96062,-320.19715)"
                 d="m 1796.3478,707.07074 a 23.0657,23.0657 0 1 1 -46.1314,0 23.0657,23.0657 0 1 1 46.1314,0 z" />
              <path
                 style="display:inline;overflow:visible;visibility:visible;opacity:1;fill:#e3e4e5;fill-opacity:1;fill-rule:evenodd;stroke:#000000;stroke-width:1.77803;stroke-linecap:round;stroke-linejoin:round;stroke-miterlimit:4;stroke-dasharray:none;stroke-dashoffset:0;stroke-opacity:1;marker:none;marker-start:none;marker-mid:none;marker-end:none;enable-background:accumulate"
                 id="path9156"
                 transform="matrix(1.1541354,0,0,1.2518797,-265.60797,-181.99885)"
                 d="m 1796.3478,707.07074 a 23.0657,23.0657 0 1 1 -46.1314,0 23.0657,23.0657 0 1 1 46.1314,0 z" />
            </g>
          </g>
        </g>
        <path
           style="fill:none;fill-rule:evenodd;stroke:#000000;stroke-width:0.999488;stroke-linecap:butt;stroke-linejoin:miter;stroke-miterlimit:4;stroke-dasharray:none;stroke-opacity:1"
           id="path9158"
           d="m 217.39313,96.850133 c 3.83868,0.413874 8.38803,0.06472 12.03971,-1.250619" />
        <path
           style="fill:none;fill-rule:evenodd;stroke:#000000;stroke-width:0.999488;stroke-linecap:butt;stroke-linejoin:miter;stroke-miterlimit:4;stroke-dasharray:none;stroke-opacity:1"
           id="path9160"
           d="m 446.64699,96.850133 c -3.8388,0.413874 -8.38816,0.06472 -12.03984,-1.250619" />
        <path
           style="fill:none;fill-rule:evenodd;stroke:#000000;stroke-width:0.999488;stroke-linecap:butt;stroke-linejoin:miter;stroke-miterlimit:4;stroke-dasharray:none;stroke-opacity:1"
           id="path9162"
           d="m 597.49842,117.96488 c -3.74569,-0.89131 -7.86836,-2.73282 -10.7874,-5.17891" />
        <path
           style="fill:none;fill-rule:evenodd;stroke:#000000;stroke-width:0.999488;stroke-linecap:butt;stroke-linejoin:miter;stroke-miterlimit:4;stroke-dasharray:none;stroke-opacity:1"
           id="path9164"
           d="m 66.251389,117.96488 c 3.745693,-0.89131 7.868486,-2.73282 10.787399,-5.17891" />
        <g
           style="stroke:#000000;stroke-width:0.798277;stroke-opacity:1"
           id="g9166"
           transform="matrix(1.29144,0,0,1.2138759,-993.72282,-576.82148)">
          <g
             style="stroke:#000000;stroke-width:0.798277;stroke-opacity:1"
             id="g9168">
            <g
               style="stroke:#000000;stroke-width:1.69609;stroke-opacity:1"
               id="g9170"
               transform="matrix(-0.4483888,0.1430547,0.1430547,0.4483888,1663.1061,44.924678)">
              <path
                 style="display:inline;overflow:visible;visibility:visible;opacity:1;fill:#ed1c24;fill-opacity:1;fill-rule:nonzero;stroke:#000000;stroke-width:1.69609;stroke-linecap:butt;stroke-linejoin:miter;stroke-miterlimit:4;stroke-dasharray:none;stroke-dashoffset:0;stroke-opacity:1;marker:none;marker-start:none;marker-mid:none;marker-end:none;enable-background:accumulate"
                 id="path9172"
                 d="m 2069.0625,730.6875 c 0.2238,0.008 0.4309,0.0937 0.6563,0.0937 12.7586,0 23.0938,-12.76605 23.0937,-28.5 0,-15.73395 -10.3352,-28.49999 -23.0937,-28.5 -0.2254,0 -0.4325,0.0858 -0.6563,0.0937 z" />
              <path
                 style="display:inline;overflow:visible;visibility:visible;fill:#eac102;fill-opacity:1;fill-rule:nonzero;stroke:#000000;stroke-width:1.69609;stroke-linecap:butt;stroke-linejoin:miter;stroke-miterlimit:4;stroke-dashoffset:0;stroke-opacity:1;marker:none;marker-start:none;marker-mid:none;marker-end:none;enable-background:accumulate"
                 id="path9174"
                 d="m 2066.2861,668.73151 h 6.9503 v 66.52937 h -6.9503 c -2.4585,-25.68971 -2.8624,-50.12503 0,-66.52937 z" />
            </g>
            <g
               style="stroke:#000000;stroke-width:1.69609;stroke-opacity:1"
               id="g9176"
               transform="matrix(-0.4546188,0.1218147,0.1218147,0.4546188,1690.3983,77.273629)">
              <path
                 style="display:inline;overflow:visible;visibility:visible;opacity:1;fill:#eac102;fill-opacity:1;fill-rule:evenodd;stroke:#000000;stroke-width:1.69609;stroke-linecap:round;stroke-linejoin:round;stroke-miterlimit:4;stroke-dasharray:none;stroke-dashoffset:0;stroke-opacity:1;marker:none;marker-start:none;marker-mid:none;marker-end:none;enable-background:accumulate"
                 id="path9178"
                 d="m 2030.1562,670.59375 c -6.0098,1.75489 -10.6875,15.38298 -10.6874,31.90625 0,16.52208 4.6782,30.11853 10.6874,31.875 l 0.25,0.0625 c 0.3519,0.083 0.7026,0.125 1.0626,0.125 l 10.8437,-0.0235 v -18.3515 c 0.7383,-4.16079 1.1562,-8.7794 1.1563,-13.6875 0,-4.9081 -0.418,-9.55795 -1.1563,-13.71875 v -18.17856 z" />
              <path
                 style="display:inline;overflow:visible;visibility:visible;opacity:1;fill:#eac102;fill-opacity:1;fill-rule:evenodd;stroke:#000000;stroke-width:1.20932;stroke-linecap:round;stroke-linejoin:round;stroke-miterlimit:4;stroke-dasharray:none;stroke-dashoffset:0;stroke-opacity:1;marker:none;marker-start:none;marker-mid:none;marker-end:none;enable-background:accumulate"
                 id="path9180"
                 transform="matrix(1.9787234,0,0,0.9940993,-1999.3727,4.3345166)"
                 d="m 2048.3786,702.48627 a 6.0690784,32.088638 0 1 1 -12.1381,0 6.0690784,32.088638 0 1 1 12.1381,0 z" />
              <path
                 style="display:inline;overflow:visible;visibility:visible;fill:#e3e4e5;fill-opacity:1;fill-rule:evenodd;stroke:#000000;stroke-width:1.69609;stroke-linecap:round;stroke-linejoin:round;stroke-miterlimit:4;stroke-dashoffset:0;stroke-opacity:1;marker:none;marker-start:none;marker-mid:none;marker-end:none;enable-background:accumulate"
                 id="path9182"
                 d="m 2042.9551,674.40063 c 25.1525,7.78075 23.5578,49.66352 0,57.97907 -16.3463,-3.47198 -14.0669,-57.71871 0,-57.97907 z" />
            </g>
          </g>
          <g
             style="stroke:#000000;stroke-width:0.798277;stroke-opacity:1"
             id="g9184"
             transform="matrix(-1,0,0,1,2053.0014,0)">
            <g
               style="stroke:#000000;stroke-width:1.69609;stroke-opacity:1"
               id="g9186"
               transform="matrix(-0.4483888,0.1430547,0.1430547,0.4483888,1663.1061,44.924678)">
              <path
                 style="display:inline;overflow:visible;visibility:visible;opacity:1;fill:#ed1c24;fill-opacity:1;fill-rule:nonzero;stroke:#000000;stroke-width:1.69609;stroke-linecap:butt;stroke-linejoin:miter;stroke-miterlimit:4;stroke-dasharray:none;stroke-dashoffset:0;stroke-opacity:1;marker:none;marker-start:none;marker-mid:none;marker-end:none;enable-background:accumulate"
                 id="path9188"
                 d="m 2069.0625,730.6875 c 0.2238,0.008 0.4309,0.0937 0.6563,0.0937 12.7586,0 23.0938,-12.76605 23.0937,-28.5 0,-15.73395 -10.3352,-28.49999 -23.0937,-28.5 -0.2254,0 -0.4325,0.0858 -0.6563,0.0937 z" />
              <path
                 style="display:inline;overflow:visible;visibility:visible;fill:#eac102;fill-opacity:1;fill-rule:nonzero;stroke:#000000;stroke-width:1.69609;stroke-linecap:butt;stroke-linejoin:miter;stroke-miterlimit:4;stroke-dashoffset:0;stroke-opacity:1;marker:none;marker-start:none;marker-mid:none;marker-end:none;enable-background:accumulate"
                 id="path9190"
                 d="m 2066.2861,668.73151 h 6.9503 v 66.52937 h -6.9503 c -2.4585,-25.68971 -2.8624,-50.12503 0,-66.52937 z" />
            </g>
            <g
               style="stroke:#000000;stroke-width:1.69609;stroke-opacity:1"
               id="g9192"
               transform="matrix(-0.4546188,0.1218147,0.1218147,0.4546188,1690.3983,77.273629)">
              <path
                 style="display:inline;overflow:visible;visibility:visible;opacity:1;fill:#eac102;fill-opacity:1;fill-rule:evenodd;stroke:#000000;stroke-width:1.69609;stroke-linecap:round;stroke-linejoin:round;stroke-miterlimit:4;stroke-dasharray:none;stroke-dashoffset:0;stroke-opacity:1;marker:none;marker-start:none;marker-mid:none;marker-end:none;enable-background:accumulate"
                 id="path9194"
                 d="m 2030.1562,670.59375 c -6.0098,1.75489 -10.6875,15.38298 -10.6874,31.90625 0,16.52208 4.6782,30.11853 10.6874,31.875 l 0.25,0.0625 c 0.3519,0.083 0.7026,0.125 1.0626,0.125 l 10.8437,-0.0235 v -18.3515 c 0.7383,-4.16079 1.1562,-8.7794 1.1563,-13.6875 0,-4.9081 -0.418,-9.55795 -1.1563,-13.71875 v -18.17856 z" />
              <path
                 style="display:inline;overflow:visible;visibility:visible;opacity:1;fill:#eac102;fill-opacity:1;fill-rule:evenodd;stroke:#000000;stroke-width:1.20932;stroke-linecap:round;stroke-linejoin:round;stroke-miterlimit:4;stroke-dasharray:none;stroke-dashoffset:0;stroke-opacity:1;marker:none;marker-start:none;marker-mid:none;marker-end:none;enable-background:accumulate"
                 id="path9196"
                 transform="matrix(1.9787234,0,0,0.9940993,-1999.3727,4.3345166)"
                 d="m 2048.3786,702.48627 a 6.0690784,32.088638 0 1 1 -12.1381,0 6.0690784,32.088638 0 1 1 12.1381,0 z" />
              <path
                 style="display:inline;overflow:visible;visibility:visible;fill:#e3e4e5;fill-opacity:1;fill-rule:evenodd;stroke:#000000;stroke-width:1.69609;stroke-linecap:round;stroke-linejoin:round;stroke-miterlimit:4;stroke-dashoffset:0;stroke-opacity:1;marker:none;marker-start:none;marker-mid:none;marker-end:none;enable-background:accumulate"
                 id="path9198"
                 d="m 2042.9551,674.40063 c 25.1525,7.78075 23.5578,49.66352 0,57.97907 -16.3463,-3.47198 -14.0669,-57.71871 0,-57.97907 z" />
            </g>
          </g>
        </g>
        <g
           id="g4145"
           transform="matrix(1.2909653,0,0,1.2936149,779.98287,-568.00929)">
          <path
             style="display:inline;fill:#eac102;fill-rule:evenodd;stroke:#000000;stroke-width:1px;stroke-linecap:butt;stroke-linejoin:miter;stroke-opacity:1"
             id="path4069"
             d="m -518.58363,630.11702 c 0,0 37.06156,-17.86783 171.52462,-17.86783 134.01755,0 171.52453,17.86783 171.52453,17.86783 0,0 -31.34738,17.86784 -171.52453,17.86784 -140.62294,0 -171.52462,-17.86784 -171.52462,-17.86784 z" />
          <path
             style="font-size:12px;display:inline;fill:none;stroke:#000000;stroke-width:0.520082"
             id="path4071"
             d="M -390.71656,650.83781 V 609.49718" />
          <path
             style="font-size:12px;display:inline;fill:none;stroke:#000000;stroke-width:0.765678"
             id="path4073"
             d="M -398.59848,650.83781 V 609.49718" />
          <path
             style="font-size:12px;display:inline;fill:none;stroke:#000000;stroke-width:1.02572"
             id="path4075"
             d="M -406.03893,650.83781 V 609.49718" />
          <path
             style="font-size:12px;display:inline;fill:none;stroke:#000000;stroke-width:1.28576"
             id="path4077"
             d="M -413.41488,650.83781 V 609.49718" />
          <path
             style="font-size:12px;display:inline;fill:none;stroke:#000000;stroke-width:1.5458"
             id="path4079"
             d="M -419.98718,650.83781 V 609.49718" />
          <path
             style="font-size:12px;display:inline;fill:none;stroke:#000000;stroke-width:1.80585"
             id="path4081"
             d="m -432.52176,648.60884 -0.17363,-37.6268 m 6.11601,38.12181 v -39.3576" />
          <path
             style="font-size:12px;display:inline;fill:none;stroke:#000000;stroke-width:2.05144"
             id="path4083"
             d="m -444.09418,646.91693 v -34.66675 m 5.86312,35.65666 -0.17363,-36.89245" />
          <path
             style="font-size:12px;display:inline;fill:none;stroke:#000000;stroke-width:2.31148"
             id="path4085"
             d="m -459.61976,644.93711 v -30.45797 m 5.09412,30.95293 v -31.9429 m 5.24803,32.93281 v -33.18189" />
          <path
             style="font-size:12px;display:inline;fill:none;stroke:#000000;stroke-width:2.57153"
             id="path4087"
             d="M -465.06124,644.68803 V 615.22318" />
          <path
             style="font-size:12px;display:inline;fill:none;stroke:#000000;stroke-width:2.83157"
             id="path4089"
             d="M -470.13555,643.2031 V 615.71814" />
          <path
             style="font-size:12px;display:inline;fill:none;stroke:#000000;stroke-width:3.09161"
             id="path4091"
             d="M -475.57694,642.45901 V 616.95392" />
          <path
             style="font-size:12px;display:inline;fill:none;stroke:#000000;stroke-width:3.33721"
             id="path4093"
             d="m -486.71774,640.23331 -0.1737,-20.30632 m 5.88288,21.2963 v -22.78123" />
          <path
             style="font-size:12px;display:inline;fill:none;stroke:#000000;stroke-width:3.52501"
             id="path4095"
             d="M -492.42704,638.49929 V 620.66775" />
          <path
             style="font-size:12px;display:inline;fill:none;stroke:#000000;stroke-width:3.78505"
             id="path4097"
             d="M -497.65516,637.05327 V 622.20436" />
          <path
             style="font-size:12px;display:inline;fill:none;stroke:#000000;stroke-width:4.03065"
             id="path4099"
             d="M -503.36446,635.07345 V 623.44342" />
          <path
             style="font-size:12px;display:inline;fill:none;stroke:#000000;stroke-width:4.27626"
             id="path4101"
             d="M -509.23246,634.08354 V 625.4233" />
          <path
             style="font-size:12px;display:inline;fill:none;stroke:#000000;stroke-width:5.04192"
             id="path4103"
             d="m -515.44308,632.1056 v -4.20853" />
          <path
             style="font-size:12px;display:inline;fill:none;stroke:#000000;stroke-width:0.260042"
             id="path4105"
             d="m -359.35776,648.60884 v -37.87262 m -13.35298,39.11167 0.17354,-40.10164 m -9.90568,40.59659 v -40.84566" />
          <path
             style="font-size:12px;display:inline;fill:none;stroke:#000000;stroke-width:0.520082"
             id="path4107"
             d="M -303.40138,650.83781 V 609.49718" />
          <path
             style="font-size:12px;display:inline;fill:none;stroke:#000000;stroke-width:0.765678"
             id="path4109"
             d="M -295.51956,650.83781 V 609.49718" />
          <path
             style="font-size:12px;display:inline;fill:none;stroke:#000000;stroke-width:1.02572"
             id="path4111"
             d="M -288.07911,650.83781 V 609.49718" />
          <path
             style="font-size:12px;display:inline;fill:none;stroke:#000000;stroke-width:1.28576"
             id="path4113"
             d="M -280.70316,650.83781 V 609.49718" />
          <path
             style="font-size:12px;display:inline;fill:none;stroke:#000000;stroke-width:1.5458"
             id="path4115"
             d="M -274.13086,650.83781 V 609.49718" />
          <path
             style="font-size:12px;display:inline;fill:none;stroke:#000000;stroke-width:1.80585"
             id="path4117"
             d="m -261.59619,648.60884 0.17363,-37.6268 m -6.1161,38.12181 v -39.3576" />
          <path
             style="font-size:12px;display:inline;fill:none;stroke:#000000;stroke-width:2.05144"
             id="path4119"
             d="m -250.02386,646.91693 v -34.66675 m -5.86303,35.65666 0.17354,-36.89245" />
          <path
             style="font-size:12px;display:inline;fill:none;stroke:#000000;stroke-width:2.31148"
             id="path4121"
             d="m -234.49818,644.93711 v -30.45797 m -5.09422,30.95293 v -31.9429 m -5.24803,32.93281 v -33.18189" />
          <path
             style="font-size:12px;display:inline;fill:none;stroke:#000000;stroke-width:2.57153"
             id="path4123"
             d="M -229.05671,644.68803 V 615.22318" />
          <path
             style="font-size:12px;display:inline;fill:none;stroke:#000000;stroke-width:2.83157"
             id="path4125"
             d="M -223.9824,643.2031 V 615.71814" />
          <path
             style="font-size:12px;display:inline;fill:none;stroke:#000000;stroke-width:3.09161"
             id="path4127"
             d="M -218.54101,642.45901 V 616.95392" />
          <path
             style="font-size:12px;display:inline;fill:none;stroke:#000000;stroke-width:3.33721"
             id="path4129"
             d="m -207.40027,640.23331 0.17372,-20.30632 m -5.88293,21.2963 v -22.78123" />
          <path
             style="font-size:12px;display:inline;fill:none;stroke:#000000;stroke-width:3.52501"
             id="path4131"
             d="M -201.69097,638.49929 V 620.66775" />
          <path
             style="font-size:12px;display:inline;fill:none;stroke:#000000;stroke-width:3.78505"
             id="path4133"
             d="M -196.46285,637.05327 V 622.20436" />
          <path
             style="font-size:12px;display:inline;fill:none;stroke:#000000;stroke-width:4.03065"
             id="path4135"
             d="M -190.75355,635.07345 V 623.44342" />
          <path
             style="font-size:12px;display:inline;fill:none;stroke:#000000;stroke-width:4.27626"
             id="path4137"
             d="M -184.88555,634.08354 V 625.4233" />
          <path
             style="font-size:12px;display:inline;fill:none;stroke:#000000;stroke-width:5.04192"
             id="path4139"
             d="m -178.67498,632.1056 v -4.20853" />
          <path
             style="font-size:12px;display:inline;fill:none;stroke:#000000;stroke-width:0.260042"
             id="path4141"
             d="m -334.76028,648.60884 v -37.87262 m 13.35307,39.11167 -0.17354,-40.10164 m 9.90559,40.59659 v -40.84566" />
          <path
             style="display:inline;fill:#eac102;fill-rule:evenodd;stroke:#000000;stroke-width:1px;stroke-linecap:butt;stroke-linejoin:miter;stroke-opacity:1"
             id="path4143"
             d="m -347.21246,599.9832 c -52.17482,0.52021 -104.94361,0.57554 -156.18456,11.01141 -11.435,3.44575 -27.79124,5.3639 -32.08365,17.56909 -1.40822,10.19432 11.50827,14.52148 19.58428,17.32316 38.47209,11.02566 79.1413,11.9655 119.00318,13.68913 62.0158,1.18767 124.40827,1.64837 185.96427,-6.58499 16.81677,-3.10144 35.33335,-5.01624 49.16225,-15.46516 8.25728,-7.72211 -0.86558,-18.51768 -9.99369,-20.73862 -31.31383,-11.47114 -65.46476,-12.69248 -98.58375,-15.02799 -25.59623,-1.33357 -51.23671,-1.75909 -76.86833,-1.77603 z m 0.14405,12.2683 c 134.01746,2e-5 171.53522,17.86964 171.53522,17.86964 -9e-5,-10e-6 -31.35816,17.86964 -171.53522,17.86964 -140.62303,0 -171.50647,-17.86964 -171.50647,-17.86964 0,-10e-6 37.04332,-17.86964 171.50647,-17.86964 z" />
        </g>
      </g>
      <g
         style="display:inline"
         id="g3837"
         transform="translate(-128.43185,-238.03092)" />
      <g
         style="display:inline"
         id="g3839"
         transform="translate(-128.43185,-238.03092)" />
      <g
         style="display:inline"
         id="g3841"
         transform="translate(-72.00313,-314.67127)" />
      <g
         style="display:inline"
         id="g3843"
         transform="translate(-72.00313,-314.67127)" />
      <g
         id="g3845"
         transform="translate(-72.00313,-314.67127)" />
    </g>
    <g
       style="display:inline"
       id="layer2"
       transform="translate(81.382043,-73.26231)" />
  </g>
  <g
     style="display:inline"
     id="layer1"
     transform="translate(-188.3197,38.951549)">
    <rect
       style="fill:#008f4c;fill-opacity:1;fill-rule:evenodd;stroke:#0c0909;stroke-width:1.03837;stroke-miterlimit:4;stroke-dasharray:none;stroke-opacity:1"
       id="rect2743"
       transform="rotate(13.262674)"
       y="356.42798"
       x="-643.80493"
       height="22.382799"
       width="0" />
    <g
       style="display:inline;fill:#c87137;fill-opacity:1;stroke-width:1.28126;stroke-miterlimit:4;stroke-dasharray:none"
       id="g5579"
       transform="matrix(0.8094547,0,0,0.752543,527.30337,17.757617)" />
  </g>
  <g
     style="display:inline"
     id="layer4"
     transform="translate(-131.89098,-37.688804)">
    <g
       id="g5818"
       transform="translate(873.00016,-55.320157)" />
    <g
       id="g5820"
       transform="translate(873.00016,-55.320157)" />
    <g
       id="g5822"
       transform="translate(873.00016,-55.320157)" />
  </g>
  <g
     style="display:inline"
     id="layer5"
     transform="translate(-131.89098,-37.688804)">
    <g
       style="display:inline"
       id="g5438"
       transform="translate(-582.73933,640.16742)" />
    <g
       style="display:inline"
       id="g5440"
       transform="translate(-526.31061,563.52708)" />
    <g
       id="g5559"
       transform="translate(-526.31061,563.52708)" />
    <g
       style="display:inline"
       id="g5561"
       transform="translate(-526.31061,563.52708)" />
  </g>
  <g
     style="display:inline"
     id="layer6"
     transform="translate(-131.89098,-37.688804)" />
  <path
     style="display:inline;overflow:visible;visibility:visible;fill:#eac102;fill-opacity:1;fill-rule:evenodd;stroke:#000000;stroke-width:1;stroke-linecap:butt;stroke-linejoin:miter;stroke-miterlimit:4;stroke-dasharray:none;stroke-dashoffset:0;stroke-opacity:1;marker:none;marker-start:none;marker-mid:none;marker-end:none;enable-background:accumulate"
     id="path5472"
     d="m 355.7084,309.38223 c -83.47174,0.0957 -167.62745,0.0684 -249.82579,-0.41937 -0.49023,146.62 -0.22643,351.48719 -0.34963,430.81853 -0.1232,79.33135 79.0304,128.65315 125.08769,128.65205 45.55861,-10e-4 108.40632,-6.2299 125.08773,39.52941 0,-232.29405 0,-493.50842 0,-598.58062 z" />
  <g
     style="display:inline;stroke:#000000;stroke-width:2.1376;stroke-miterlimit:4;stroke-dasharray:none;stroke-opacity:1"
     id="g2678"
     transform="matrix(0.4678149,0,0,0.4678149,102.60501,363.02516)" />
  <g
     style="fill:#eac102;fill-opacity:1;stroke:#000000;stroke-width:0.152636;stroke-miterlimit:4;stroke-dasharray:none;stroke-opacity:1"
     id="g7278"
     transform="matrix(6.7596519,0,0,6.3498321,-2653.5056,-1573.2578)" />
  <use
     xlink:href="#g7278"
     height="531.49603"
     width="885.82678"
     y="0"
     x="0"
     style="fill:#eac102;fill-opacity:1;stroke:#000000;stroke-width:0.262616;stroke-miterlimit:4;stroke-dasharray:none;stroke-opacity:1"
     id="use7283"
     transform="translate(-0.00296592,102.86887)" />
  <use
     xlink:href="#g7278"
     height="531.49603"
     width="885.82678"
     y="0"
     x="0"
     style="fill:#eac102;fill-opacity:1;stroke:#000000;stroke-width:0.262616;stroke-miterlimit:4;stroke-dasharray:none;stroke-opacity:1"
     id="use6388"
     transform="matrix(3.9287974,0,0,3.6906016,18.527041,56.912953)" />
  <g
     id="g3832"
     transform="translate(-131.91345,-37.688804)" />
  <path
     style="display:inline;overflow:visible;visibility:visible;fill:#0071bc;fill-opacity:1;fill-rule:evenodd;stroke:#000000;stroke-width:1;stroke-linecap:butt;stroke-linejoin:miter;stroke-miterlimit:4;stroke-dasharray:none;stroke-dashoffset:0;stroke-opacity:1;marker:none;marker-start:none;marker-mid:none;marker-end:none;enable-background:accumulate"
     id="path4152"
     d="m 356.70843,309.38223 c 83.47174,0.0957 165.62745,0.0684 247.82579,-0.41937 0.49023,146.62 -1.77357,351.48719 -1.65037,430.81853 0.1232,79.33135 -79.0304,128.65315 -125.08769,128.65205 -45.55861,-10e-4 -104.40632,-6.2299 -121.08773,39.52941 0,-232.29405 0,-493.50842 0,-598.58062 z" />
  <g
     id="g3973"
     transform="translate(80.18371,-47.931801)">
    <path
       style="fill:#ed1c24;fill-rule:evenodd;stroke:#000000;stroke-width:1px;stroke-linecap:butt;stroke-linejoin:miter;stroke-opacity:1"
       id="rect3965"
       transform="translate(-0.1508652)"
       d="m 53.4375,357.03125 v 506.9375 c 7.939795,9.73985 17.073625,18.26061 26.75,25.4375 v -532.25 c -8.949548,-0.0326 -17.835875,-0.083 -26.75,-0.125 z" />
    <path
       style="fill:#ed1c24;fill-rule:evenodd;stroke:#000000;stroke-width:1px;stroke-linecap:butt;stroke-linejoin:miter;stroke-opacity:1"
       id="rect3967"
       transform="translate(-0.1508652)"
       d="m 109.28125,357.21875 v 549.1875 c 9.1958,4.07599 18.27856,6.95306 26.78125,8.53125 V 357.28125 c -8.94024,-0.0156 -17.86234,-0.0393 -26.78125,-0.0625 z" />
    <path
       style="fill:#ed1c24;fill-rule:evenodd;stroke:#000000;stroke-width:1px;stroke-linecap:butt;stroke-linejoin:miter;stroke-opacity:1"
       id="rect3969"
       transform="translate(-0.1508652)"
       d="m 165.125,357.3125 v 558.90625 c 8.70799,-0.11977 17.74577,-0.23367 26.78125,-0.0312 v -558.8438 c -8.92804,-0.003 -17.86095,-0.0229 -26.78125,-0.0312 z" />
    <path
       style="fill:#ed1c24;fill-rule:evenodd;stroke:#000000;stroke-width:1px;stroke-linecap:butt;stroke-linejoin:miter;stroke-opacity:1"
       id="rect3971"
       transform="translate(-0.1508652)"
       d="m 247.75,357.3125 c -8.92794,0.007 -17.84763,0.0285 -26.78125,0.0312 V 918.5 c 9.63804,1.49783 18.74783,3.86382 26.78125,7.625 z" />
  </g>
  <path
     style="display:inline;overflow:visible;visibility:visible;fill:none;fill-opacity:1;fill-rule:evenodd;stroke:#000000;stroke-width:3;stroke-linecap:butt;stroke-linejoin:miter;stroke-miterlimit:4;stroke-dasharray:none;stroke-dashoffset:0;stroke-opacity:1;marker:none;marker-start:none;marker-mid:none;marker-end:none;enable-background:accumulate"
     id="path5290"
     d="m 605.03854,308.23115 c -164.3968,0.008 -333.88701,0.87449 -498.28368,-0.10114 -0.49024,146.62 -0.22644,351.48718 -0.34964,430.81852 -0.12319,79.33135 79.03041,128.65315 125.0877,128.65205 45.55861,-0.001 108.40632,-6.2299 125.08772,39.52946 13.6815,-45.70936 71.4891,-39.17116 125.0876,-39.52946 52.1026,-0.3583 122.7077,-63.31868 122.8437,-128.65205 0.1352,-65.08138 1.5439,-304.0346 0.5266,-430.71738 z" />
  <g
     style="fill:#e3e4e5"
     id="g4208"
     transform="matrix(1.0761391,0,0,1.0761391,97.39998,227.4401)">
    <g
       style="overflow:visible;fill:#e3e4e5"
       id="g4408"
       transform="matrix(1.6550329,0,0,1.6550329,256.13997,104.3359)">
      <g
         style="fill:#e3e4e5"
         id="g1929"
         transform="matrix(1.620957,0.03268623,-0.03268623,1.620957,-123.0589,-256.91104)">
        <g
           style="fill:#e3e4e5"
           id="g1902">
          <path
             style="fill:#e3e4e5;fill-opacity:1;fill-rule:evenodd;stroke:#000000;stroke-width:0.464624;stroke-linecap:butt;stroke-linejoin:miter;stroke-opacity:1"
             id="path1900"
             d="m 144.13528,222.77586 c -4.38108,-8.3407 -8.0278,-11.78569 -8.68568,4.69496 l -18.31034,91.55173 c -1.81206,6.48727 -0.68044,9.09712 0.51468,9.1655 1.30705,0.0748 3.494,-3.36269 5.11927,-7.05277 12.16367,-27.61696 21.51492,-57.86043 21.36207,-98.35942 z" />
          <path
             style="fill:#e3e4e5;fill-opacity:1;fill-rule:evenodd;stroke:#000000;stroke-width:0.464624;stroke-linecap:butt;stroke-linejoin:miter;stroke-opacity:1"
             id="path1898"
             d="m 135.68435,227.35345 c -2.0468,21.65606 -4.78214,47.61966 -9.3625,62.74983 -3.66309,12.10016 -4.51513,17.01774 -6.58363,23.40509 -1.01095,3.28986 -2.18487,6.96232 -4.52835,6.43839 -2.19399,-0.49051 -2.33467,-3.53644 -1.93143,-7.02771 0.30068,-2.60335 -0.4415,-9.9687 -0.62815,-8.31334 -0.18666,1.65536 14.93525,-77.95651 14.93525,-77.95651 1.70267,-11.52905 4.86135,-5.87725 8.09881,0.70425 z" />
          <path
             style="fill:#e3e4e5;fill-opacity:1;fill-rule:evenodd;stroke:#000000;stroke-width:0.464624;stroke-linecap:butt;stroke-linejoin:miter;stroke-opacity:1"
             id="path1896"
             d="m 111.9748,289.32692 c -2.84075,14.46127 -3.08861,18.57614 -0.30626,19.29116 3.86352,0.99285 5.12835,-10.69624 7.11395,-17.64792 0.5452,-1.90876 5.5784,-26.27332 7.68121,-44.62209 1.17696,-10.26991 1.71144,-18.64397 1.11127,-19.92873 -1.7756,-3.80099 -6.81093,-16.32489 -8.45823,22.94742 -0.21283,5.07396 -2.86955,20.61258 -7.14194,39.96016 z" />
          <path
             style="fill:#e3e4e5;fill-opacity:1;fill-rule:evenodd;stroke:#000000;stroke-width:0.464624;stroke-linecap:butt;stroke-linejoin:miter;stroke-opacity:1"
             id="path1892"
             d="m 120.5431,237.56499 c -9.18938,-26.24171 -5.23426,8.06952 -10.15415,31.33367 -0.79534,3.76087 -1.01035,7.30166 -1.76949,10.10794 -1.12835,4.17112 -0.98337,7.35091 -0.39095,9.02409 1.85399,5.23626 3.56901,3.61659 4.6053,-0.95071 4.15507,-12.88947 7.65848,-47.35083 7.70929,-49.51499 z" />
          <path
             style="fill:#e3e4e5;fill-opacity:1;fill-rule:evenodd;stroke:#000000;stroke-width:0.464624;stroke-linecap:butt;stroke-linejoin:miter;stroke-opacity:1"
             id="path1882"
             d="m 108.4093,228.19047 c 2.64444,-2.25573 4.68177,1.97403 5.899,4.05732 -0.60269,8.48605 -0.76269,17.05549 -2.50287,25.41065 -0.44001,1.37243 -2.61865,1.52308 -3.19813,0.18631 -1.41501,-2.05227 -0.88749,-4.65609 -1.03735,-6.99148 -0.14615,-7.54432 -0.34281,-15.18667 0.83935,-22.6628 z" />
        </g>
        <g
           style="fill:#e3e4e5"
           id="g1909">
          <path
             style="fill:#e3e4e5;fill-opacity:1;fill-rule:evenodd;stroke:#000000;stroke-width:0.464624;stroke-linecap:butt;stroke-linejoin:miter;stroke-opacity:1"
             id="path1880"
             d="m 110.21419,229.23143 c -0.62209,-10.10739 -2.25797,-14.44395 -6.92507,-1.52586 1.1928,3.83291 -0.55572,14.29471 3.63393,14.47201 2.72343,0.11525 2.79751,-3.45776 3.29114,-12.94615 z" />
          <path
             style="fill:#e3e4e5;fill-opacity:1;fill-rule:evenodd;stroke:#000000;stroke-width:0.464624;stroke-linecap:butt;stroke-linejoin:miter;stroke-opacity:1"
             id="path1895"
             d="m 103.64125,227.47082 c 0.62995,10.55816 -0.0941,12.25152 -1.28546,12.27198 -3.766109,0.0647 -6.249971,-8.23043 -5.052739,-15.67582 2.112733,-6.36267 4.225469,-4.94324 6.338199,3.40384 z" />
          <path
             style="fill:#e3e4e5;fill-opacity:1;fill-rule:evenodd;stroke:#000000;stroke-width:0.464624;stroke-linecap:butt;stroke-linejoin:miter;stroke-opacity:1"
             id="path1893"
             d="m 92.138594,225.59284 c 0.835571,8.65809 3.104453,11.21669 4.232474,11.02856 1.828407,-0.30494 2.045819,-3.74619 1.284105,-12.55442 -2.57549,-3.50192 -5.635287,-9.64063 -5.516579,1.52586 z" />
        </g>
      </g>
      <g
         style="fill:#e3e4e5"
         id="g2067"
         transform="matrix(1.620957,0.03268623,-0.03268623,1.620957,-123.0589,-256.91104)">
        <g
           style="fill:#e3e4e5"
           id="g1919">
          <path
             style="fill:#e3e4e5;fill-opacity:1;fill-rule:evenodd;stroke:#000000;stroke-width:0.464624;stroke-linecap:butt;stroke-linejoin:miter;stroke-opacity:1"
             id="path1879"
             d="m 136.62334,210.68634 c -2.03448,-1.43918 -5.2629,-2.91893 -6.10345,2.6996 -1.8762,12.54117 3.855,14.77964 5.41768,13.98736 3.05279,-1.54776 3.67513,-10.11002 0.68577,-16.68696 z" />
          <path
             style="fill:#e3e4e5;fill-opacity:1;fill-rule:evenodd;stroke:#000000;stroke-width:0.464624;stroke-linecap:butt;stroke-linejoin:miter;stroke-opacity:1"
             id="path1881"
             d="m 130.51989,213.15119 c -5.79054,-13.49024 -9.09604,-16.31551 -7.39456,2.34748 0.66623,11.2728 3.70813,11.78246 5.46328,11.07011 1.75514,-0.71236 3.09712,-7.19086 1.93128,-13.41759 z" />
          <path
             style="fill:#e3e4e5;fill-opacity:1;fill-rule:evenodd;stroke:#000000;stroke-width:0.464624;stroke-linecap:butt;stroke-linejoin:miter;stroke-opacity:1"
             id="path1883"
             d="m 113.97016,213.97281 c 0.80491,18.42456 4.58342,23.91895 7.02137,23.64183 2.43796,-0.27711 4.38504,-11.70297 2.72067,-22.46809 -3.98356,-4.07021 -7.42005,-7.35724 -9.32394,-7.75974 -1.86051,-0.39333 -5.28973,2.61602 -0.4181,6.586 z" />
          <path
             style="fill:#e3e4e5;fill-opacity:1;fill-rule:evenodd;stroke:#000000;stroke-width:0.464624;stroke-linecap:butt;stroke-linejoin:miter;stroke-opacity:1"
             id="path1885"
             d="m 114.32228,214.09019 c -2.99084,-1.45148 -6.94135,-5.86923 -6.69032,2.6996 -1.36643,6.33328 2.68125,15.90668 6.45447,15.60544 3.66405,-0.42859 2.49515,-9.92619 0.23585,-18.30504 z" />
          <g
             style="fill:#e3e4e5"
             id="g1914">
            <path
               style="fill:#e3e4e5;fill-opacity:1;fill-rule:evenodd;stroke:#000000;stroke-width:0.464624;stroke-linecap:butt;stroke-linejoin:miter;stroke-opacity:1"
               id="path1887"
               d="m 99.767905,216.78979 c -1.387865,7.1812 1.639595,10.84028 4.099205,10.85681 2.45961,0.0165 4.06154,-3.60086 3.88223,-10.97419 -2.10706,-14.5341 -4.94245,-9.88919 -7.981435,0.11738 z" />
            <path
               style="fill:#e3e4e5;fill-opacity:1;fill-rule:evenodd;stroke:#000000;stroke-width:0.464624;stroke-linecap:butt;stroke-linejoin:miter;stroke-opacity:1"
               id="path1889"
               d="m 93.077586,213.62069 c -1.172747,7.74886 2.530295,10.78037 4.665652,10.4651 1.491159,-0.22016 2.678082,-2.80796 2.142041,-7.17863 -2.889218,-16.80181 -4.831563,-9.6162 -6.807693,-3.28647 z" />
            <path
               style="fill:#e3e4e5;fill-opacity:1;fill-rule:evenodd;stroke:#000000;stroke-width:0.464624;stroke-linecap:butt;stroke-linejoin:miter;stroke-opacity:1"
               id="path1891"
               d="m 93.312334,213.50332 c 0.570109,-6.14818 -2.328713,-5.35849 -6.103448,-2.81698 0.789192,2.92247 0.541153,5.99582 0.675024,9.04504 0.133872,3.04922 1.681679,5.60609 3.446904,6.01598 2.116161,0.49136 3.164853,-3.63203 1.98152,-12.24404 z" />
          </g>
        </g>
        <path
           style="fill:#e3e4e5;fill-opacity:1;fill-rule:evenodd;stroke:#000000;stroke-width:0.464624;stroke-linecap:butt;stroke-linejoin:miter;stroke-opacity:1"
           id="path1877"
           d="m 144.25265,208.33886 c -8.8957,-26.64087 -18.50214,-38.00505 -21.88688,-36.92737 -2.94143,0.93654 -2.86756,12.87147 14.1402,40.44859 1.39779,8.36395 5.5433,11.56349 7.51193,11.03316 1.96864,-0.53034 4.45097,-5.18153 0.23475,-14.55438 z" />
      </g>
      <path
         style="fill:#e3e4e5;fill-opacity:1;fill-rule:evenodd;stroke:#000000;stroke-width:0.753289;stroke-linecap:butt;stroke-linejoin:miter;stroke-opacity:1"
         id="path1873"
         d="M 0.40532104,57.728938 C 7.8803392,56.37854 14.649532,58.939696 22.630209,63.604355 c 9.600333,5.611327 21.608062,22.724316 33.018117,8.728721 2.87879,-3.531137 2.64524,-6.823219 2.842065,-9.629463 C 59.620445,46.591872 35.565409,35.401628 37.556337,18.117044 38.608404,8.9834087 42.933626,0.25325035 54.86203,0.40731934 68.353233,0.58158292 81.096759,3.5977006 87.101874,16.282312 c 7.840401,16.561314 9.696946,32.103493 13.664116,44.861123 4.17598,13.429184 11.51333,23.150594 19.67221,28.317623 -5.70884,3.232304 -33.8066,-2.611426 -41.586312,-51.486823 -0.961498,-6.040562 -5.983218,-6.461299 -6.407692,-4.548194 -0.628174,2.831177 -1.038871,7.126648 2.276844,12.532518 4.585155,7.475547 12.06408,18.74779 16.165473,37.807651 0.905456,4.207801 1.037797,6.653272 -0.05864,7.957385 -7.708169,9.168225 -15.586402,-5.865964 -18.92696,-11.616052 3.7227,10.201655 1.531905,14.788311 -2.869757,16.492946 -3.884265,1.504259 -9.158638,-0.476378 -13.250053,-9.965924 -0.12199,19.251115 -14.045662,16.087765 -16.773411,1.184465 0.08304,7.590141 -3.962133,10.454642 -6.856216,10.212652 C 29.106332,97.777061 26.470624,92.45619 26.496685,85.282718 23.252255,96.655348 14.998162,91.883452 12.572065,89.33129 8.6852172,85.242494 10.764334,72.608927 7.9931069,65.742014 5.6899561,60.03498 2.6406236,59.114521 0.40532104,57.728938 Z" />
    </g>
  </g>
</svg>
