<?xml version="1.0" encoding="UTF-8"?>

<svg version="1.2" baseProfile="tiny" width="212.37mm" height="267.97mm" viewBox="0 0 21237 26797" preserveAspectRatio="xMidYMid" fill-rule="evenodd" stroke-width="28.222" stroke-linejoin="round" xmlns="http://www.w3.org/2000/svg" xmlns:ooo="http://xml.openoffice.org/svg/export" xmlns:xlink="http://www.w3.org/1999/xlink" xml:space="preserve">
 <defs class="ClipPathGroup">
  <clipPath id="presentation_clip_path" clipPathUnits="userSpaceOnUse">
   <rect x="0" y="0" width="21237" height="26797"/>
  </clipPath>
 </defs>
 <defs class="TextShapeIndex">
  <g ooo:slide="id1" ooo:id-list="id3 id4 id5 id6 id7 id8 id9 id10 id11 id12 id13 id14 id15 id16 id17 id18 id19 id20 id21 id22 id23 id24 id25 id26 id27 id28 id29 id30 id31 id32 id33 id34 id35 id36 id37 id38 id39 id40 id41 id42 id43 id44 id45 id46 id47 id48 id49 id50 id51 id52 id53 id54 id55 id56 id57 id58 id59 id60 id61 id62 id63 id64 id65 id66 id67 id68 id69 id70 id71 id72 id73 id74 id75 id76 id77 id78 id79 id80 id81 id82 id83 id84 id85 id86 id87 id88 id89 id90 id91 id92 id93 id94 id95 id96 id97 id98 id99 id100 id101 id102 id103 id104 id105 id106 id107 id108 id109 id110 id111 id112 id113 id114 id115 id116 id117 id118 id119 id120 id121 id122 id123 id124 id125 id126 id127 id128 id129 id130 id131 id132 id133 id134 id135"/>
 </defs>
 <defs class="EmbeddedBulletChars">
  <g id="bullet-char-template(57356)" transform="scale(0.00048828125,-0.00048828125)">
   <path d="M 580,1141 L 1163,571 580,0 -4,571 580,1141 Z"/>
  </g>
  <g id="bullet-char-template(57354)" transform="scale(0.00048828125,-0.00048828125)">
   <path d="M 8,1128 L 1137,1128 1137,0 8,0 8,1128 Z"/>
  </g>
  <g id="bullet-char-template(10146)" transform="scale(0.00048828125,-0.00048828125)">
   <path d="M 174,0 L 602,739 174,1481 1456,739 174,0 Z M 1358,739 L 309,1346 659,739 1358,739 Z"/>
  </g>
  <g id="bullet-char-template(10132)" transform="scale(0.00048828125,-0.00048828125)">
   <path d="M 2015,739 L 1276,0 717,0 1260,543 174,543 174,936 1260,936 717,1481 1274,1481 2015,739 Z"/>
  </g>
  <g id="bullet-char-template(10007)" transform="scale(0.00048828125,-0.00048828125)">
   <path d="M 0,-2 C -7,14 -16,27 -25,37 L 356,567 C 262,823 215,952 215,954 215,979 228,992 255,992 264,992 276,990 289,987 310,991 331,999 354,1012 L 381,999 492,748 772,1049 836,1024 860,1049 C 881,1039 901,1025 922,1006 886,937 835,863 770,784 769,783 710,716 594,584 L 774,223 C 774,196 753,168 711,139 L 727,119 C 717,90 699,76 672,76 641,76 570,178 457,381 L 164,-76 C 142,-110 111,-127 72,-127 30,-127 9,-110 8,-76 1,-67 -2,-52 -2,-32 -2,-23 -1,-13 0,-2 Z"/>
  </g>
  <g id="bullet-char-template(10004)" transform="scale(0.00048828125,-0.00048828125)">
   <path d="M 285,-33 C 182,-33 111,30 74,156 52,228 41,333 41,471 41,549 55,616 82,672 116,743 169,778 240,778 293,778 328,747 346,684 L 369,508 C 377,444 397,411 428,410 L 1163,1116 C 1174,1127 1196,1133 1229,1133 1271,1133 1292,1118 1292,1087 L 1292,965 C 1292,929 1282,901 1262,881 L 442,47 C 390,-6 338,-33 285,-33 Z"/>
  </g>
  <g id="bullet-char-template(9679)" transform="scale(0.00048828125,-0.00048828125)">
   <path d="M 813,0 C 632,0 489,54 383,161 276,268 223,411 223,592 223,773 276,916 383,1023 489,1130 632,1184 813,1184 992,1184 1136,1130 1245,1023 1353,916 1407,772 1407,592 1407,412 1353,268 1245,161 1136,54 992,0 813,0 Z"/>
  </g>
  <g id="bullet-char-template(8226)" transform="scale(0.00048828125,-0.00048828125)">
   <path d="M 346,457 C 273,457 209,483 155,535 101,586 74,649 74,723 74,796 101,859 155,911 209,963 273,989 346,989 419,989 480,963 531,910 582,859 608,796 608,723 608,648 583,586 532,535 482,483 420,457 346,457 Z"/>
  </g>
  <g id="bullet-char-template(8211)" transform="scale(0.00048828125,-0.00048828125)">
   <path d="M -4,459 L 1135,459 1135,606 -4,606 -4,459 Z"/>
  </g>
 </defs>
 <defs class="TextEmbeddedBitmaps"/>
 <g>
  <g id="id2" class="Master_Slide">
   <g id="bg-id2" class="Background"/>
   <g id="bo-id2" class="BackgroundObjects"/>
  </g>
 </g>
 <g class="SlideGroup">
  <g>
   <g id="id1" class="Slide" clip-path="url(#presentation_clip_path)">
    <g class="Page">
     <g class="com.sun.star.drawing.PolyPolygonShape">
      <g id="id3">
       <path fill="rgb(255,220,20)" stroke="none" d="M 10620,5612 L 53,16179 10620,26745 21186,16179 10620,5612 Z"/>
      </g>
     </g>
     <g class="com.sun.star.drawing.PolyPolygonShape">
      <g id="id4">
       <path fill="none" stroke="rgb(0,0,0)" stroke-width="35" stroke-linejoin="miter" d="M 10620,5612 L 53,16179 10620,26745 21186,16179 10620,5612 Z"/>
      </g>
     </g>
     <g class="com.sun.star.drawing.PolyPolygonShape">
      <g id="id5">
       <path fill="none" stroke="rgb(0,0,0)" stroke-width="106" stroke-linejoin="miter" d="M 15903,21462 L 10620,26745 53,16179 10620,5612 21186,16179 15903,21462 Z"/>
      </g>
     </g>
     <g class="com.sun.star.drawing.ClosedBezierShape">
      <g id="id6">
       <path fill="rgb(255,220,20)" stroke="none" d="M 10275,3201 C 7956,4211 4983,2528 4827,4353 10265,4694 11651,4717 16242,4325 14709,2730 11956,3140 10275,3201 Z"/>
      </g>
     </g>
     <g class="com.sun.star.drawing.ClosedBezierShape">
      <g id="id7">
       <path fill="none" stroke="rgb(0,0,0)" stroke-width="33" stroke-linejoin="miter" d="M 16242,4325 C 14709,2730 11956,3140 10275,3201 7956,4211 4983,2528 4827,4353 10265,4694 11651,4717 16242,4325 Z"/>
      </g>
     </g>
     <g class="com.sun.star.drawing.LineShape">
      <g id="id8">
       <path fill="none" stroke="rgb(0,0,0)" stroke-width="22" stroke-linejoin="miter" d="M 9323,4669 L 9323,3766"/>
      </g>
     </g>
     <g class="com.sun.star.drawing.LineShape">
      <g id="id9">
       <path fill="none" stroke="rgb(0,0,0)" stroke-width="39" stroke-linejoin="miter" d="M 8703,4634 L 8703,3801"/>
      </g>
     </g>
     <g class="com.sun.star.drawing.LineShape">
      <g id="id10">
       <path fill="none" stroke="rgb(0,0,0)" stroke-width="58" stroke-linejoin="miter" d="M 8199,4629 L 8199,3806"/>
      </g>
     </g>
     <g class="com.sun.star.drawing.LineShape">
      <g id="id11">
       <path fill="none" stroke="rgb(0,0,0)" stroke-width="68" stroke-linejoin="miter" d="M 7750,4592 L 7750,3842"/>
      </g>
     </g>
     <g class="com.sun.star.drawing.LineShape">
      <g id="id12">
       <path fill="none" stroke="rgb(0,0,0)" stroke-width="77" stroke-linejoin="miter" d="M 7361,4556 L 7361,3878"/>
      </g>
     </g>
     <g class="com.sun.star.drawing.LineShape">
      <g id="id13">
       <path fill="none" stroke="rgb(0,0,0)" stroke-width="87" stroke-linejoin="miter" d="M 7006,4534 L 7006,3900"/>
      </g>
     </g>
     <g class="com.sun.star.drawing.LineShape">
      <g id="id14">
       <path fill="none" stroke="rgb(0,0,0)" stroke-width="97" stroke-linejoin="miter" d="M 6632,4494 L 6632,3941"/>
      </g>
     </g>
     <g class="com.sun.star.drawing.LineShape">
      <g id="id15">
       <path fill="none" stroke="rgb(0,0,0)" stroke-width="106" stroke-linejoin="miter" d="M 6298,4452 L 6298,3983"/>
      </g>
     </g>
     <g class="com.sun.star.drawing.LineShape">
      <g id="id16">
       <path fill="none" stroke="rgb(0,0,0)" stroke-width="116" stroke-linejoin="miter" d="M 6005,4420 L 6005,4014"/>
      </g>
     </g>
     <g class="com.sun.star.drawing.LineShape">
      <g id="id17">
       <path fill="none" stroke="rgb(0,0,0)" stroke-width="125" stroke-linejoin="miter" d="M 5568,4348 L 5561,4091"/>
      </g>
     </g>
     <g class="com.sun.star.drawing.LineShape">
      <g id="id18">
       <path fill="none" stroke="rgb(0,0,0)" stroke-width="125" stroke-linejoin="miter" d="M 5761,4374 L 5761,4061"/>
      </g>
     </g>
     <g class="com.sun.star.drawing.LineShape">
      <g id="id19">
       <path fill="none" stroke="rgb(0,0,0)" stroke-width="142" stroke-linejoin="miter" d="M 5362,4311 L 5362,4124"/>
      </g>
     </g>
     <g class="com.sun.star.drawing.LineShape">
      <g id="id20">
       <path fill="none" stroke="rgb(0,0,0)" stroke-width="161" stroke-linejoin="miter" d="M 5145,4280 L 5145,4155"/>
      </g>
     </g>
     <g class="com.sun.star.drawing.LineShape">
      <g id="id21">
       <path fill="none" stroke="rgb(0,0,0)" stroke-width="11" stroke-linejoin="miter" d="M 10035,4693 L 10042,3743"/>
      </g>
     </g>
     <g class="com.sun.star.drawing.LineShape">
      <g id="id22">
       <path fill="none" stroke="rgb(0,0,0)" stroke-width="22" stroke-linejoin="miter" d="M 11961,4669 L 11961,3766"/>
      </g>
     </g>
     <g class="com.sun.star.drawing.LineShape">
      <g id="id23">
       <path fill="none" stroke="rgb(0,0,0)" stroke-width="39" stroke-linejoin="miter" d="M 12581,4634 L 12581,3801"/>
      </g>
     </g>
     <g class="com.sun.star.drawing.LineShape">
      <g id="id24">
       <path fill="none" stroke="rgb(0,0,0)" stroke-width="58" stroke-linejoin="miter" d="M 13084,4629 L 13084,3806"/>
      </g>
     </g>
     <g class="com.sun.star.drawing.LineShape">
      <g id="id25">
       <path fill="none" stroke="rgb(0,0,0)" stroke-width="68" stroke-linejoin="miter" d="M 13534,4592 L 13534,3842"/>
      </g>
     </g>
     <g class="com.sun.star.drawing.LineShape">
      <g id="id26">
       <path fill="none" stroke="rgb(0,0,0)" stroke-width="77" stroke-linejoin="miter" d="M 13923,4556 L 13923,3878"/>
      </g>
     </g>
     <g class="com.sun.star.drawing.LineShape">
      <g id="id27">
       <path fill="none" stroke="rgb(0,0,0)" stroke-width="87" stroke-linejoin="miter" d="M 14278,4534 L 14278,3900"/>
      </g>
     </g>
     <g class="com.sun.star.drawing.LineShape">
      <g id="id28">
       <path fill="none" stroke="rgb(0,0,0)" stroke-width="97" stroke-linejoin="miter" d="M 14652,4494 L 14652,3941"/>
      </g>
     </g>
     <g class="com.sun.star.drawing.LineShape">
      <g id="id29">
       <path fill="none" stroke="rgb(0,0,0)" stroke-width="106" stroke-linejoin="miter" d="M 14986,4452 L 14986,3983"/>
      </g>
     </g>
     <g class="com.sun.star.drawing.LineShape">
      <g id="id30">
       <path fill="none" stroke="rgb(0,0,0)" stroke-width="116" stroke-linejoin="miter" d="M 15279,4420 L 15279,4014"/>
      </g>
     </g>
     <g class="com.sun.star.drawing.LineShape">
      <g id="id31">
       <path fill="none" stroke="rgb(0,0,0)" stroke-width="125" stroke-linejoin="miter" d="M 15717,4348 L 15724,4091"/>
      </g>
     </g>
     <g class="com.sun.star.drawing.LineShape">
      <g id="id32">
       <path fill="none" stroke="rgb(0,0,0)" stroke-width="125" stroke-linejoin="miter" d="M 15523,4374 L 15523,4061"/>
      </g>
     </g>
     <g class="com.sun.star.drawing.LineShape">
      <g id="id33">
       <path fill="none" stroke="rgb(0,0,0)" stroke-width="142" stroke-linejoin="miter" d="M 15922,4311 L 15922,4124"/>
      </g>
     </g>
     <g class="com.sun.star.drawing.LineShape">
      <g id="id34">
       <path fill="none" stroke="rgb(0,0,0)" stroke-width="161" stroke-linejoin="miter" d="M 16139,4280 L 16139,4155"/>
      </g>
     </g>
     <g class="com.sun.star.drawing.LineShape">
      <g id="id35">
       <path fill="none" stroke="rgb(0,0,0)" stroke-width="11" stroke-linejoin="miter" d="M 11250,4693 L 11243,3743"/>
      </g>
     </g>
     <g class="com.sun.star.drawing.ClosedBezierShape">
      <g id="id36">
       <path fill="rgb(255,220,20)" stroke="none" d="M 16881,4325 C 16980,4173 16726,4266 16547,4155 12769,4650 9785,4628 4788,4165 4573,4219 4215,4171 4315,4314 5428,4488 10468,5234 16881,4325 Z"/>
      </g>
     </g>
     <g class="com.sun.star.drawing.ClosedBezierShape">
      <g id="id37">
       <path fill="none" stroke="rgb(0,0,0)" stroke-width="35" stroke-linejoin="miter" d="M 16881,4325 C 16980,4173 16726,4266 16547,4155 12769,4650 9785,4628 4788,4165 4573,4219 4215,4171 4315,4314 5428,4488 10468,5234 16881,4325 Z"/>
      </g>
     </g>
     <g class="com.sun.star.drawing.ClosedBezierShape">
      <g id="id38">
       <path fill="rgb(255,220,20)" stroke="none" d="M 4413,4012 L 4010,2075 C 6210,1831 8281,1722 10553,1718 12825,1711 14992,1831 17191,2075 L 16788,4012 C 14602,3815 12812,3763 10600,3745 8390,3763 6600,3815 4413,4012 Z"/>
      </g>
     </g>
     <g class="com.sun.star.drawing.OpenBezierShape">
      <g id="id39">
       <path fill="none" stroke="rgb(0,0,0)" stroke-width="35" stroke-linejoin="miter" d="M 10603,3745 C 8391,3763 6600,3815 4413,4012 L 4010,2075 C 6210,1831 8281,1722 10553,1718 12825,1711 14992,1831 17191,2075 L 16788,4012 C 14601,3815 12810,3763 10598,3745"/>
      </g>
     </g>
     <g class="com.sun.star.drawing.ClosedBezierShape">
      <g id="id40">
       <path fill="rgb(255,220,20)" stroke="none" d="M 6320,1760 L 6318,1760 C 5533,1817 4624,1879 3830,1987 3717,2122 3708,2244 3912,2342 4675,2238 5573,2175 6359,2118 7425,2057 8500,2018 9572,2007 L 11628,2007 C 12270,2007 13624,2046 14842,2120 16053,2193 17291,2342 17291,2342 17502,2234 17479,2113 17364,1987 17364,1987 16115,1833 14878,1759 13647,1685 12294,1647 11628,1647 L 9572,1647 C 8439,1658 7290,1707 6322,1759 L 6320,1760 Z"/>
      </g>
     </g>
     <g class="com.sun.star.drawing.ClosedBezierShape">
      <g id="id41">
       <path fill="none" stroke="rgb(0,0,0)" stroke-width="35" stroke-linejoin="miter" d="M 6322,1759 L 6320,1760 6318,1760 C 5533,1817 4624,1879 3830,1987 3717,2122 3708,2244 3912,2342 4675,2238 5573,2175 6359,2118 7425,2057 8500,2018 9572,2007 L 11628,2007 C 12270,2007 13624,2046 14842,2120 16053,2193 17291,2342 17291,2342 17502,2234 17479,2113 17364,1987 17364,1987 16115,1833 14878,1759 13647,1685 12294,1647 11628,1647 L 9572,1647 C 8439,1658 7290,1707 6322,1759 Z"/>
      </g>
     </g>
     <g class="com.sun.star.drawing.ClosedBezierShape">
      <g id="id42">
       <path fill="rgb(255,220,20)" stroke="none" d="M 6621,3757 L 6620,3759 6618,3759 C 5888,3815 5042,3877 4305,3985 4200,4120 4192,4242 4381,4340 5090,4236 5925,4173 6656,4117 7647,4055 8646,4016 9643,4006 L 11555,4006 C 12152,4006 13411,4045 14544,4118 15671,4191 16821,4340 16821,4340 17018,4232 16996,4112 16890,3985 16890,3985 15728,3832 14578,3757 13432,3683 12174,3645 11555,3645 L 9643,3645 C 8634,3648 7627,3699 6621,3757 Z"/>
      </g>
     </g>
     <g class="com.sun.star.drawing.ClosedBezierShape">
      <g id="id43">
       <path fill="none" stroke="rgb(0,0,0)" stroke-width="35" stroke-linejoin="miter" d="M 6621,3757 L 6620,3759 6618,3759 C 5888,3815 5042,3877 4305,3985 4200,4120 4192,4242 4381,4340 5090,4236 5925,4173 6656,4117 7647,4055 8646,4016 9643,4006 L 11555,4006 C 12152,4006 13411,4045 14544,4118 15671,4191 16821,4340 16821,4340 17018,4232 16996,4112 16890,3985 16890,3985 15728,3832 14578,3757 13432,3683 12174,3645 11555,3645 L 9643,3645 C 8634,3648 7627,3699 6621,3757 Z"/>
      </g>
     </g>
     <g class="com.sun.star.drawing.PolyPolygonShape">
      <g id="id44">
       <path fill="none" stroke="rgb(0,0,0)" stroke-width="35" stroke-linejoin="miter" d="M 11622,2803 L 10588,2219 9579,2795 10573,3350 11622,2803 Z"/>
      </g>
     </g>
     <g class="com.sun.star.drawing.PolyPolygonShape">
      <g id="id45">
       <path fill="rgb(255,30,0)" stroke="none" d="M 9901,2808 L 10580,2424 11253,2818 10555,3139 9901,2808 Z"/>
      </g>
     </g>
     <g class="com.sun.star.drawing.PolyPolygonShape">
      <g id="id46">
       <path fill="none" stroke="rgb(0,0,0)" stroke-width="35" stroke-linejoin="miter" d="M 9901,2808 L 10580,2424 11253,2818 10555,3139 9901,2808 Z"/>
      </g>
     </g>
     <g class="com.sun.star.drawing.ClosedBezierShape">
      <g id="id47">
       <path fill="none" stroke="rgb(0,0,0)" stroke-width="35" stroke-linejoin="miter" d="M 13860,3303 L 13408,3276 C 13146,3260 12947,3039 12964,2783 12980,2527 13205,2333 13466,2349 L 14371,2404 C 14633,2419 14832,2639 14816,2895 14800,3151 14575,3346 14312,3330 L 13860,3303 Z"/>
      </g>
     </g>
     <g class="com.sun.star.drawing.ClosedBezierShape">
      <g id="id48">
       <path fill="none" stroke="rgb(0,0,0)" stroke-width="35" stroke-linejoin="miter" d="M 7340,3325 L 7793,3297 C 8054,3281 8254,3061 8238,2806 8221,2550 7995,2355 7734,2370 L 6829,2425 C 6568,2441 6369,2662 6385,2918 6402,3173 6627,3368 6888,3352 L 7340,3325 Z"/>
      </g>
     </g>
     <g class="com.sun.star.drawing.PolyPolygonShape">
      <g id="id49">
       <path fill="none" stroke="rgb(0,0,0)" stroke-width="35" stroke-linejoin="miter" d="M 17090,2557 L 15991,2933 16865,3665 17090,2557 Z"/>
      </g>
     </g>
     <g class="com.sun.star.drawing.PolyPolygonShape">
      <g id="id50">
       <path fill="rgb(255,30,0)" stroke="none" d="M 16305,3006 L 17043,2756 17134,3147 16904,3458 16305,3006 Z"/>
      </g>
     </g>
     <g class="com.sun.star.drawing.PolyPolygonShape">
      <g id="id51">
       <path fill="none" stroke="rgb(0,0,0)" stroke-width="35" stroke-linejoin="miter" d="M 16305,3006 L 17043,2756 17134,3147 16904,3458 16305,3006 Z"/>
      </g>
     </g>
     <g class="com.sun.star.drawing.PolyPolygonShape">
      <g id="id52">
       <path fill="none" stroke="rgb(0,0,0)" stroke-width="35" stroke-linejoin="miter" d="M 4120,2591 L 5210,2966 4348,3699 4120,2591 Z"/>
      </g>
     </g>
     <g class="com.sun.star.drawing.PolyPolygonShape">
      <g id="id53">
       <path fill="rgb(255,30,0)" stroke="none" d="M 4896,3039 L 4158,2789 4067,3180 4297,3491 4896,3039 Z"/>
      </g>
     </g>
     <g class="com.sun.star.drawing.PolyPolygonShape">
      <g id="id54">
       <path fill="none" stroke="rgb(0,0,0)" stroke-width="35" stroke-linejoin="miter" d="M 4896,3039 L 4158,2789 4067,3180 4297,3491 4896,3039 Z"/>
      </g>
     </g>
     <g class="com.sun.star.drawing.ClosedBezierShape">
      <g id="id55">
       <path fill="rgb(245,245,245)" stroke="none" d="M 9295,1253 C 9221,1383 9129,1476 9001,1551 8873,1626 8748,1661 8600,1661 8452,1661 8326,1626 8198,1551 8070,1476 7978,1383 7905,1253 7831,1123 7797,995 7797,845 7797,694 7831,566 7905,436 7978,306 8070,212 8198,137 8326,62 8452,28 8600,28 8748,28 8873,62 9001,137 9129,212 9221,306 9295,436 9368,566 9402,694 9402,845 9402,995 9368,1123 9295,1253 Z"/>
      </g>
     </g>
     <g class="com.sun.star.drawing.ClosedBezierShape">
      <g id="id56">
       <path fill="none" stroke="rgb(0,0,0)" stroke-width="34" stroke-linejoin="miter" d="M 9402,845 C 9402,995 9368,1123 9295,1253 9221,1383 9129,1476 9001,1551 8873,1626 8748,1661 8600,1661 8452,1661 8326,1626 8198,1551 8070,1476 7978,1383 7905,1253 7831,1123 7797,995 7797,845 7797,694 7831,566 7905,436 7978,306 8070,212 8198,137 8326,62 8452,28 8600,28 8748,28 8873,62 9001,137 9129,212 9221,306 9295,436 9368,566 9402,694 9402,845 Z"/>
      </g>
     </g>
     <g class="com.sun.star.drawing.ClosedBezierShape">
      <g id="id57">
       <path fill="rgb(245,245,245)" stroke="none" d="M 13497,1273 C 13423,1403 13332,1496 13204,1571 13076,1646 12950,1681 12802,1681 12654,1681 12529,1646 12401,1571 12273,1496 12181,1403 12107,1273 12033,1143 12000,1015 12000,865 12000,714 12033,586 12107,456 12181,326 12273,232 12401,157 12529,82 12654,48 12802,48 12950,48 13076,82 13204,157 13332,232 13423,326 13497,456 13571,586 13605,714 13605,865 13605,1015 13571,1143 13497,1273 Z"/>
      </g>
     </g>
     <g class="com.sun.star.drawing.ClosedBezierShape">
      <g id="id58">
       <path fill="none" stroke="rgb(0,0,0)" stroke-width="34" stroke-linejoin="miter" d="M 13605,865 C 13605,1015 13571,1143 13497,1273 13423,1403 13332,1496 13204,1571 13076,1646 12950,1681 12802,1681 12654,1681 12529,1646 12401,1571 12273,1496 12181,1403 12107,1273 12033,1143 12000,1015 12000,865 12000,714 12033,586 12107,456 12181,326 12273,232 12401,157 12529,82 12654,48 12802,48 12950,48 13076,82 13204,157 13332,232 13423,326 13497,456 13571,586 13605,714 13605,865 Z"/>
      </g>
     </g>
     <g class="com.sun.star.drawing.ClosedBezierShape">
      <g id="id59">
       <path fill="rgb(245,245,245)" stroke="none" d="M 4998,1527 C 4924,1657 4832,1751 4704,1826 4577,1901 4451,1935 4302,1935 4155,1935 4029,1901 3901,1826 3774,1751 3682,1657 3608,1527 3534,1397 3501,1269 3501,1119 3501,968 3534,840 3608,710 3682,580 3774,487 3901,411 4029,336 4155,302 4302,302 4451,302 4577,336 4704,411 4832,487 4924,580 4998,710 5072,840 5105,968 5105,1119 5105,1269 5072,1397 4998,1527 Z"/>
      </g>
     </g>
     <g class="com.sun.star.drawing.ClosedBezierShape">
      <g id="id60">
       <path fill="none" stroke="rgb(0,0,0)" stroke-width="34" stroke-linejoin="miter" d="M 5105,1119 C 5105,1269 5072,1397 4998,1527 4924,1657 4832,1751 4704,1826 4577,1901 4451,1935 4302,1935 4155,1935 4029,1901 3901,1826 3774,1751 3682,1657 3608,1527 3534,1397 3501,1269 3501,1119 3501,968 3534,840 3608,710 3682,580 3774,487 3901,411 4029,336 4155,302 4302,302 4451,302 4577,336 4704,411 4832,487 4924,580 4998,710 5072,840 5105,968 5105,1119 Z"/>
      </g>
     </g>
     <g class="com.sun.star.drawing.ClosedBezierShape">
      <g id="id61">
       <path fill="rgb(245,245,245)" stroke="none" d="M 17593,1549 C 17519,1679 17428,1773 17300,1848 17172,1923 17046,1957 16899,1957 16750,1957 16625,1923 16497,1848 16369,1773 16277,1679 16203,1549 16129,1419 16096,1292 16096,1141 16096,990 16129,862 16203,732 16277,602 16369,509 16497,434 16625,359 16750,324 16899,324 17046,324 17172,359 17300,434 17428,509 17519,602 17593,732 17667,862 17701,990 17701,1141 17701,1292 17667,1419 17593,1549 Z"/>
      </g>
     </g>
     <g class="com.sun.star.drawing.ClosedBezierShape">
      <g id="id62">
       <path fill="none" stroke="rgb(0,0,0)" stroke-width="34" stroke-linejoin="miter" d="M 17701,1141 C 17701,1292 17667,1419 17593,1549 17519,1679 17428,1773 17300,1848 17172,1923 17046,1957 16899,1957 16750,1957 16625,1923 16497,1848 16369,1773 16277,1679 16203,1549 16129,1419 16096,1292 16096,1141 16096,990 16129,862 16203,732 16277,602 16369,509 16497,434 16625,359 16750,324 16899,324 17046,324 17172,359 17300,434 17428,509 17519,602 17593,732 17667,862 17701,990 17701,1141 Z"/>
      </g>
     </g>
     <g class="com.sun.star.drawing.ClosedBezierShape">
      <g id="id63">
       <path fill="rgb(245,245,245)" stroke="none" d="M 5224,1980 C 5194,2032 5156,2069 5104,2099 5052,2129 5001,2143 4941,2143 4879,2143 4828,2129 4776,2099 4724,2069 4686,2032 4656,1980 4626,1928 4612,1877 4612,1817 4612,1756 4626,1705 4656,1653 4686,1601 4724,1564 4776,1534 4828,1504 4879,1490 4941,1490 5001,1490 5052,1504 5104,1534 5156,1564 5194,1601 5224,1653 5254,1705 5268,1756 5268,1817 5268,1877 5254,1928 5224,1980 Z"/>
      </g>
     </g>
     <g class="com.sun.star.drawing.ClosedBezierShape">
      <g id="id64">
       <path fill="none" stroke="rgb(0,0,0)" stroke-width="36" stroke-linejoin="round" d="M 5268,1817 C 5268,1877 5254,1928 5224,1980 5194,2032 5156,2069 5104,2099 5052,2129 5001,2143 4941,2143 4879,2143 4828,2129 4776,2099 4724,2069 4686,2032 4656,1980 4626,1928 4612,1877 4612,1817 4612,1756 4626,1705 4656,1653 4686,1601 4724,1564 4776,1534 4828,1504 4879,1490 4941,1490 5001,1490 5052,1504 5104,1534 5156,1564 5194,1601 5224,1653 5254,1705 5268,1756 5268,1817 Z"/>
      </g>
     </g>
     <g class="com.sun.star.drawing.ClosedBezierShape">
      <g id="id65">
       <path fill="rgb(245,245,245)" stroke="none" d="M 5713,2164 C 5683,2216 5646,2254 5594,2284 5541,2314 5490,2327 5430,2327 5369,2327 5318,2314 5265,2284 5213,2254 5176,2216 5146,2164 5116,2112 5102,2061 5102,2002 5102,1941 5116,1890 5146,1838 5176,1786 5213,1748 5265,1718 5318,1688 5369,1675 5430,1675 5490,1675 5541,1688 5594,1718 5646,1748 5683,1786 5713,1838 5743,1890 5757,1941 5757,2002 5757,2061 5743,2112 5713,2164 Z"/>
      </g>
     </g>
     <g class="com.sun.star.drawing.ClosedBezierShape">
      <g id="id66">
       <path fill="none" stroke="rgb(0,0,0)" stroke-width="36" stroke-linejoin="round" d="M 5757,2002 C 5757,2061 5743,2112 5713,2164 5683,2216 5646,2254 5594,2284 5541,2314 5490,2327 5430,2327 5369,2327 5318,2314 5265,2284 5213,2254 5176,2216 5146,2164 5116,2112 5102,2061 5102,2002 5102,1941 5116,1890 5146,1838 5176,1786 5213,1748 5265,1718 5318,1688 5369,1675 5430,1675 5490,1675 5541,1688 5594,1718 5646,1748 5683,1786 5713,1838 5743,1890 5757,1941 5757,2002 Z"/>
      </g>
     </g>
     <g class="com.sun.star.drawing.ClosedBezierShape">
      <g id="id67">
       <path fill="rgb(245,245,245)" stroke="none" d="M 6122,2505 C 6092,2557 6054,2594 6002,2624 5950,2654 5899,2668 5838,2668 5777,2668 5726,2654 5674,2624 5622,2594 5584,2557 5554,2505 5524,2453 5510,2402 5510,2342 5510,2281 5524,2230 5554,2178 5584,2126 5622,2089 5674,2059 5726,2029 5777,2015 5838,2015 5899,2015 5950,2029 6002,2059 6054,2089 6092,2126 6122,2178 6152,2230 6165,2281 6165,2342 6165,2402 6152,2453 6122,2505 Z"/>
      </g>
     </g>
     <g class="com.sun.star.drawing.ClosedBezierShape">
      <g id="id68">
       <path fill="none" stroke="rgb(0,0,0)" stroke-width="36" stroke-linejoin="round" d="M 6165,2342 C 6165,2402 6152,2453 6122,2505 6092,2557 6054,2594 6002,2624 5950,2654 5899,2668 5838,2668 5777,2668 5726,2654 5674,2624 5622,2594 5584,2557 5554,2505 5524,2453 5510,2402 5510,2342 5510,2281 5524,2230 5554,2178 5584,2126 5622,2089 5674,2059 5726,2029 5777,2015 5838,2015 5899,2015 5950,2029 6002,2059 6054,2089 6092,2126 6122,2178 6152,2230 6165,2281 6165,2342 Z"/>
      </g>
     </g>
     <g class="com.sun.star.drawing.ClosedBezierShape">
      <g id="id69">
       <path fill="rgb(0,185,20)" stroke="none" d="M 7332,3166 L 7732,3140 C 7918,3128 8059,2981 8049,2813 8038,2644 7879,2517 7693,2529 L 6893,2580 C 6707,2592 6566,2738 6576,2907 6587,3075 6746,3203 6932,3191 L 7332,3166 Z"/>
      </g>
     </g>
     <g class="com.sun.star.drawing.ClosedBezierShape">
      <g id="id70">
       <path fill="none" stroke="rgb(0,0,0)" stroke-width="35" stroke-linejoin="round" d="M 7332,3166 L 7732,3140 C 7918,3128 8059,2981 8049,2813 8038,2644 7879,2517 7693,2529 L 6893,2580 C 6707,2592 6566,2738 6576,2907 6587,3075 6746,3203 6932,3191 L 7332,3166 Z"/>
      </g>
     </g>
     <g class="com.sun.star.drawing.ClosedBezierShape">
      <g id="id71">
       <path fill="rgb(245,245,245)" stroke="none" d="M 6534,2942 C 6504,2994 6467,3031 6415,3061 6363,3091 6311,3105 6251,3105 6190,3105 6139,3091 6087,3061 6034,3031 5997,2994 5967,2942 5937,2890 5923,2839 5923,2779 5923,2718 5937,2667 5967,2615 5997,2563 6034,2526 6087,2496 6139,2466 6190,2452 6251,2452 6311,2452 6363,2466 6415,2496 6467,2526 6504,2563 6534,2615 6565,2667 6578,2718 6578,2779 6578,2839 6565,2890 6534,2942 Z"/>
      </g>
     </g>
     <g class="com.sun.star.drawing.ClosedBezierShape">
      <g id="id72">
       <path fill="none" stroke="rgb(0,0,0)" stroke-width="36" stroke-linejoin="round" d="M 6578,2779 C 6578,2839 6565,2890 6534,2942 6504,2994 6467,3031 6415,3061 6363,3091 6311,3105 6251,3105 6190,3105 6139,3091 6087,3061 6034,3031 5997,2994 5967,2942 5937,2890 5923,2839 5923,2779 5923,2718 5937,2667 5967,2615 5997,2563 6034,2526 6087,2496 6139,2466 6190,2452 6251,2452 6311,2452 6363,2466 6415,2496 6467,2526 6504,2563 6534,2615 6565,2667 6578,2718 6578,2779 Z"/>
      </g>
     </g>
     <g class="com.sun.star.drawing.ClosedBezierShape">
      <g id="id73">
       <path fill="rgb(245,245,245)" stroke="none" d="M 6794,3357 C 6764,3408 6727,3446 6675,3476 6623,3506 6571,3519 6511,3519 6450,3519 6399,3506 6347,3476 6294,3446 6257,3408 6227,3357 6197,3305 6183,3254 6183,3194 6183,3133 6197,3082 6227,3030 6257,2978 6294,2941 6347,2911 6399,2881 6450,2867 6511,2867 6571,2867 6623,2881 6675,2911 6727,2941 6764,2978 6794,3030 6825,3082 6838,3133 6838,3194 6838,3254 6825,3305 6794,3357 Z"/>
      </g>
     </g>
     <g class="com.sun.star.drawing.ClosedBezierShape">
      <g id="id74">
       <path fill="none" stroke="rgb(0,0,0)" stroke-width="36" stroke-linejoin="round" d="M 6838,3194 C 6838,3254 6825,3305 6794,3357 6764,3408 6727,3446 6675,3476 6623,3506 6571,3519 6511,3519 6450,3519 6399,3506 6347,3476 6294,3446 6257,3408 6227,3357 6197,3305 6183,3254 6183,3194 6183,3133 6197,3082 6227,3030 6257,2978 6294,2941 6347,2911 6399,2881 6450,2867 6511,2867 6571,2867 6623,2881 6675,2911 6727,2941 6764,2978 6794,3030 6825,3082 6838,3133 6838,3194 Z"/>
      </g>
     </g>
     <g class="com.sun.star.drawing.ClosedBezierShape">
      <g id="id75">
       <path fill="rgb(245,245,245)" stroke="none" d="M 6943,3926 C 6913,3977 6876,4015 6824,4045 6771,4075 6720,4088 6660,4088 6599,4088 6548,4075 6496,4045 6443,4015 6406,3977 6376,3926 6346,3874 6332,3823 6332,3763 6332,3702 6346,3651 6376,3599 6406,3547 6443,3509 6496,3479 6548,3450 6599,3436 6660,3436 6720,3436 6771,3450 6824,3479 6876,3509 6913,3547 6943,3599 6973,3651 6987,3702 6987,3763 6987,3823 6973,3874 6943,3926 Z"/>
      </g>
     </g>
     <g class="com.sun.star.drawing.ClosedBezierShape">
      <g id="id76">
       <path fill="none" stroke="rgb(0,0,0)" stroke-width="36" stroke-linejoin="round" d="M 6987,3763 C 6987,3823 6973,3874 6943,3926 6913,3977 6876,4015 6824,4045 6771,4075 6720,4088 6660,4088 6599,4088 6548,4075 6496,4045 6443,4015 6406,3977 6376,3926 6346,3874 6332,3823 6332,3763 6332,3702 6346,3651 6376,3599 6406,3547 6443,3509 6496,3479 6548,3450 6599,3436 6660,3436 6720,3436 6771,3450 6824,3479 6876,3509 6913,3547 6943,3599 6973,3651 6987,3702 6987,3763 Z"/>
      </g>
     </g>
     <g class="com.sun.star.drawing.ClosedBezierShape">
      <g id="id77">
       <path fill="rgb(245,245,245)" stroke="none" d="M 9421,1625 C 9391,1677 9353,1715 9301,1745 9249,1775 9198,1788 9136,1788 9076,1788 9025,1775 8973,1745 8921,1715 8883,1677 8853,1625 8823,1573 8809,1522 8809,1463 8809,1402 8823,1351 8853,1299 8883,1247 8921,1209 8973,1179 9025,1149 9076,1136 9136,1136 9198,1136 9249,1149 9301,1179 9353,1209 9391,1247 9421,1299 9451,1351 9465,1402 9465,1463 9465,1522 9451,1573 9421,1625 Z"/>
      </g>
     </g>
     <g class="com.sun.star.drawing.ClosedBezierShape">
      <g id="id78">
       <path fill="none" stroke="rgb(0,0,0)" stroke-width="36" stroke-linejoin="round" d="M 9465,1463 C 9465,1522 9451,1573 9421,1625 9391,1677 9353,1715 9301,1745 9249,1775 9198,1788 9136,1788 9076,1788 9025,1775 8973,1745 8921,1715 8883,1677 8853,1625 8823,1573 8809,1522 8809,1463 8809,1402 8823,1351 8853,1299 8883,1247 8921,1209 8973,1179 9025,1149 9076,1136 9136,1136 9198,1136 9249,1149 9301,1179 9353,1209 9391,1247 9421,1299 9451,1351 9465,1402 9465,1463 Z"/>
      </g>
     </g>
     <g class="com.sun.star.drawing.ClosedBezierShape">
      <g id="id79">
       <path fill="rgb(245,245,245)" stroke="none" d="M 9850,1839 C 9820,1891 9783,1929 9730,1959 9678,1989 9627,2002 9567,2002 9506,2002 9454,1989 9402,1959 9350,1929 9313,1891 9283,1839 9252,1787 9239,1736 9239,1675 9239,1615 9252,1564 9283,1513 9313,1461 9350,1423 9402,1393 9454,1363 9506,1350 9567,1350 9627,1350 9678,1363 9730,1393 9783,1423 9820,1461 9850,1513 9880,1564 9894,1615 9894,1675 9894,1736 9880,1787 9850,1839 Z"/>
      </g>
     </g>
     <g class="com.sun.star.drawing.ClosedBezierShape">
      <g id="id80">
       <path fill="none" stroke="rgb(0,0,0)" stroke-width="36" stroke-linejoin="round" d="M 9894,1675 C 9894,1736 9880,1787 9850,1839 9820,1891 9783,1929 9730,1959 9678,1989 9627,2002 9567,2002 9506,2002 9454,1989 9402,1959 9350,1929 9313,1891 9283,1839 9252,1787 9239,1736 9239,1675 9239,1615 9252,1564 9283,1513 9313,1461 9350,1423 9402,1393 9454,1363 9506,1350 9567,1350 9627,1350 9678,1363 9730,1393 9783,1423 9820,1461 9850,1513 9880,1564 9894,1615 9894,1675 Z"/>
      </g>
     </g>
     <g class="com.sun.star.drawing.ClosedBezierShape">
      <g id="id81">
       <path fill="rgb(245,245,245)" stroke="none" d="M 10205,2268 C 10175,2320 10138,2357 10085,2387 10033,2417 9982,2431 9922,2431 9861,2431 9809,2417 9757,2387 9705,2357 9668,2320 9638,2268 9607,2216 9594,2165 9594,2105 9594,2044 9607,1993 9638,1941 9668,1889 9705,1852 9757,1822 9809,1792 9861,1778 9922,1778 9982,1778 10033,1792 10085,1822 10138,1852 10175,1889 10205,1941 10235,1993 10249,2044 10249,2105 10249,2165 10235,2216 10205,2268 Z"/>
      </g>
     </g>
     <g class="com.sun.star.drawing.ClosedBezierShape">
      <g id="id82">
       <path fill="none" stroke="rgb(0,0,0)" stroke-width="36" stroke-linejoin="round" d="M 10249,2105 C 10249,2165 10235,2216 10205,2268 10175,2320 10138,2357 10085,2387 10033,2417 9982,2431 9922,2431 9861,2431 9809,2417 9757,2387 9705,2357 9668,2320 9638,2268 9607,2216 9594,2165 9594,2105 9594,2044 9607,1993 9638,1941 9668,1889 9705,1852 9757,1822 9809,1792 9861,1778 9922,1778 9982,1778 10033,1792 10085,1822 10138,1852 10175,1889 10205,1941 10235,1993 10249,2044 10249,2105 Z"/>
      </g>
     </g>
     <g class="com.sun.star.drawing.ClosedBezierShape">
      <g id="id83">
       <path fill="rgb(245,245,245)" stroke="none" d="M 10464,2759 C 10434,2810 10397,2848 10344,2878 10292,2908 10241,2921 10181,2921 10120,2921 10068,2908 10016,2878 9964,2848 9927,2810 9897,2759 9866,2707 9853,2656 9853,2596 9853,2535 9866,2484 9897,2432 9927,2380 9964,2342 10016,2312 10068,2283 10120,2269 10181,2269 10241,2269 10292,2283 10344,2312 10397,2342 10434,2380 10464,2432 10494,2484 10508,2535 10508,2596 10508,2656 10494,2707 10464,2759 Z"/>
      </g>
     </g>
     <g class="com.sun.star.drawing.ClosedBezierShape">
      <g id="id84">
       <path fill="none" stroke="rgb(0,0,0)" stroke-width="36" stroke-linejoin="round" d="M 10508,2596 C 10508,2656 10494,2707 10464,2759 10434,2810 10397,2848 10344,2878 10292,2908 10241,2921 10181,2921 10120,2921 10068,2908 10016,2878 9964,2848 9927,2810 9897,2759 9866,2707 9853,2656 9853,2596 9853,2535 9866,2484 9897,2432 9927,2380 9964,2342 10016,2312 10068,2283 10120,2269 10181,2269 10241,2269 10292,2283 10344,2312 10397,2342 10434,2380 10464,2432 10494,2484 10508,2535 10508,2596 Z"/>
      </g>
     </g>
     <g class="com.sun.star.drawing.ClosedBezierShape">
      <g id="id85">
       <path fill="rgb(245,245,245)" stroke="none" d="M 10617,3264 C 10587,3316 10549,3353 10497,3383 10445,3413 10394,3427 10334,3427 10272,3427 10221,3413 10169,3383 10117,3353 10079,3316 10049,3264 10019,3212 10006,3161 10006,3101 10006,3040 10019,2989 10049,2937 10079,2885 10117,2848 10169,2818 10221,2788 10272,2774 10334,2774 10394,2774 10445,2788 10497,2818 10549,2848 10587,2885 10617,2937 10647,2989 10661,3040 10661,3101 10661,3161 10647,3212 10617,3264 Z"/>
      </g>
     </g>
     <g class="com.sun.star.drawing.ClosedBezierShape">
      <g id="id86">
       <path fill="none" stroke="rgb(0,0,0)" stroke-width="36" stroke-linejoin="round" d="M 10661,3101 C 10661,3161 10647,3212 10617,3264 10587,3316 10549,3353 10497,3383 10445,3413 10394,3427 10334,3427 10272,3427 10221,3413 10169,3383 10117,3353 10079,3316 10049,3264 10019,3212 10006,3161 10006,3101 10006,3040 10019,2989 10049,2937 10079,2885 10117,2848 10169,2818 10221,2788 10272,2774 10334,2774 10394,2774 10445,2788 10497,2818 10549,2848 10587,2885 10617,2937 10647,2989 10661,3040 10661,3101 Z"/>
      </g>
     </g>
     <g class="com.sun.star.drawing.ClosedBezierShape">
      <g id="id87">
       <path fill="rgb(245,245,245)" stroke="none" d="M 10735,3837 C 10705,3889 10668,3926 10616,3956 10563,3986 10512,4000 10452,4000 10391,4000 10340,3986 10287,3956 10235,3926 10198,3889 10168,3837 10138,3785 10124,3734 10124,3674 10124,3613 10138,3562 10168,3510 10198,3458 10235,3421 10287,3391 10340,3361 10391,3347 10452,3347 10512,3347 10563,3361 10616,3391 10668,3421 10705,3458 10735,3510 10765,3562 10779,3613 10779,3674 10779,3734 10765,3785 10735,3837 Z"/>
      </g>
     </g>
     <g class="com.sun.star.drawing.ClosedBezierShape">
      <g id="id88">
       <path fill="none" stroke="rgb(0,0,0)" stroke-width="36" stroke-linejoin="round" d="M 10779,3674 C 10779,3734 10765,3785 10735,3837 10705,3889 10668,3926 10616,3956 10563,3986 10512,4000 10452,4000 10391,4000 10340,3986 10287,3956 10235,3926 10198,3889 10168,3837 10138,3785 10124,3734 10124,3674 10124,3613 10138,3562 10168,3510 10198,3458 10235,3421 10287,3391 10340,3361 10391,3347 10452,3347 10512,3347 10563,3361 10616,3391 10668,3421 10705,3458 10735,3510 10765,3562 10779,3613 10779,3674 Z"/>
      </g>
     </g>
     <g class="com.sun.star.drawing.ClosedBezierShape">
      <g id="id89">
       <path fill="rgb(0,185,20)" stroke="none" d="M 13884,3145 L 13484,3119 C 13298,3107 13156,2960 13167,2792 13178,2623 13337,2496 13523,2508 L 14323,2559 C 14508,2571 14650,2717 14639,2886 14628,3054 14469,3182 14284,3170 L 13884,3145 Z"/>
      </g>
     </g>
     <g class="com.sun.star.drawing.ClosedBezierShape">
      <g id="id90">
       <path fill="none" stroke="rgb(0,0,0)" stroke-width="35" stroke-linejoin="round" d="M 13884,3145 L 13484,3119 C 13298,3107 13156,2960 13167,2792 13178,2623 13337,2496 13523,2508 L 14323,2559 C 14508,2571 14650,2717 14639,2886 14628,3054 14469,3182 14284,3170 L 13884,3145 Z"/>
      </g>
     </g>
     <g class="com.sun.star.drawing.ClosedBezierShape">
      <g id="id91">
       <path fill="rgb(245,245,245)" stroke="none" d="M 13651,1704 C 13621,1756 13584,1793 13532,1823 13480,1853 13428,1867 13368,1867 13307,1867 13256,1853 13204,1823 13151,1793 13114,1756 13084,1704 13054,1652 13040,1601 13040,1541 13040,1480 13054,1429 13084,1377 13114,1325 13151,1288 13204,1258 13256,1228 13307,1214 13368,1214 13428,1214 13480,1228 13532,1258 13584,1288 13621,1325 13651,1377 13682,1429 13695,1480 13695,1541 13695,1601 13682,1652 13651,1704 Z"/>
      </g>
     </g>
     <g class="com.sun.star.drawing.ClosedBezierShape">
      <g id="id92">
       <path fill="none" stroke="rgb(0,0,0)" stroke-width="36" stroke-linejoin="round" d="M 13695,1541 C 13695,1601 13682,1652 13651,1704 13621,1756 13584,1793 13532,1823 13480,1853 13428,1867 13368,1867 13307,1867 13256,1853 13204,1823 13151,1793 13114,1756 13084,1704 13054,1652 13040,1601 13040,1541 13040,1480 13054,1429 13084,1377 13114,1325 13151,1288 13204,1258 13256,1228 13307,1214 13368,1214 13428,1214 13480,1228 13532,1258 13584,1288 13621,1325 13651,1377 13682,1429 13695,1480 13695,1541 Z"/>
      </g>
     </g>
     <g class="com.sun.star.drawing.ClosedBezierShape">
      <g id="id93">
       <path fill="rgb(245,245,245)" stroke="none" d="M 14056,1942 C 14026,1994 13988,2032 13936,2062 13884,2092 13833,2105 13772,2105 13712,2105 13660,2092 13608,2062 13556,2032 13519,1994 13488,1942 13458,1891 13445,1840 13445,1780 13445,1719 13458,1668 13488,1616 13519,1564 13556,1526 13608,1496 13660,1466 13712,1453 13772,1453 13833,1453 13884,1466 13936,1496 13988,1526 14026,1564 14056,1616 14086,1668 14100,1719 14100,1780 14100,1840 14086,1891 14056,1942 Z"/>
      </g>
     </g>
     <g class="com.sun.star.drawing.ClosedBezierShape">
      <g id="id94">
       <path fill="none" stroke="rgb(0,0,0)" stroke-width="36" stroke-linejoin="round" d="M 14100,1780 C 14100,1840 14086,1891 14056,1942 14026,1994 13988,2032 13936,2062 13884,2092 13833,2105 13772,2105 13712,2105 13660,2092 13608,2062 13556,2032 13519,1994 13488,1942 13458,1891 13445,1840 13445,1780 13445,1719 13458,1668 13488,1616 13519,1564 13556,1526 13608,1496 13660,1466 13712,1453 13772,1453 13833,1453 13884,1466 13936,1496 13988,1526 14026,1564 14056,1616 14086,1668 14100,1719 14100,1780 Z"/>
      </g>
     </g>
     <g class="com.sun.star.drawing.ClosedBezierShape">
      <g id="id95">
       <path fill="rgb(245,245,245)" stroke="none" d="M 14424,2403 C 14394,2455 14357,2492 14305,2522 14252,2552 14201,2566 14141,2566 14080,2566 14029,2552 13976,2522 13924,2492 13887,2455 13857,2403 13827,2351 13813,2300 13813,2240 13813,2179 13827,2128 13857,2076 13887,2024 13924,1987 13976,1957 14029,1927 14080,1913 14141,1913 14201,1913 14252,1927 14305,1957 14357,1987 14394,2024 14424,2076 14454,2128 14468,2179 14468,2240 14468,2300 14454,2351 14424,2403 Z"/>
      </g>
     </g>
     <g class="com.sun.star.drawing.ClosedBezierShape">
      <g id="id96">
       <path fill="none" stroke="rgb(0,0,0)" stroke-width="36" stroke-linejoin="round" d="M 14468,2240 C 14468,2300 14454,2351 14424,2403 14394,2455 14357,2492 14305,2522 14252,2552 14201,2566 14141,2566 14080,2566 14029,2552 13976,2522 13924,2492 13887,2455 13857,2403 13827,2351 13813,2300 13813,2240 13813,2179 13827,2128 13857,2076 13887,2024 13924,1987 13976,1957 14029,1927 14080,1913 14141,1913 14201,1913 14252,1927 14305,1957 14357,1987 14394,2024 14424,2076 14454,2128 14468,2179 14468,2240 Z"/>
      </g>
     </g>
     <g class="com.sun.star.drawing.ClosedBezierShape">
      <g id="id97">
       <path fill="rgb(245,245,245)" stroke="none" d="M 14642,2964 C 14612,3016 14575,3053 14523,3083 14470,3113 14419,3127 14359,3127 14298,3127 14247,3113 14194,3083 14142,3053 14105,3016 14075,2964 14045,2912 14031,2861 14031,2801 14031,2740 14045,2689 14075,2637 14105,2585 14142,2548 14194,2518 14247,2488 14298,2474 14359,2474 14419,2474 14470,2488 14523,2518 14575,2548 14612,2585 14642,2637 14672,2689 14686,2740 14686,2801 14686,2861 14672,2912 14642,2964 Z"/>
      </g>
     </g>
     <g class="com.sun.star.drawing.ClosedBezierShape">
      <g id="id98">
       <path fill="none" stroke="rgb(0,0,0)" stroke-width="36" stroke-linejoin="round" d="M 14686,2801 C 14686,2861 14672,2912 14642,2964 14612,3016 14575,3053 14523,3083 14470,3113 14419,3127 14359,3127 14298,3127 14247,3113 14194,3083 14142,3053 14105,3016 14075,2964 14045,2912 14031,2861 14031,2801 14031,2740 14045,2689 14075,2637 14105,2585 14142,2548 14194,2518 14247,2488 14298,2474 14359,2474 14419,2474 14470,2488 14523,2518 14575,2548 14612,2585 14642,2637 14672,2689 14686,2740 14686,2801 Z"/>
      </g>
     </g>
     <g class="com.sun.star.drawing.ClosedBezierShape">
      <g id="id99">
       <path fill="rgb(245,245,245)" stroke="none" d="M 14801,3480 C 14770,3532 14733,3569 14681,3599 14629,3629 14577,3643 14517,3643 14456,3643 14405,3629 14353,3599 14300,3569 14263,3532 14233,3480 14203,3428 14189,3377 14189,3317 14189,3256 14203,3205 14233,3153 14263,3101 14300,3064 14353,3034 14405,3004 14456,2990 14517,2990 14577,2990 14629,3004 14681,3034 14733,3064 14770,3101 14801,3153 14831,3205 14844,3256 14844,3317 14844,3377 14831,3428 14801,3480 Z"/>
      </g>
     </g>
     <g class="com.sun.star.drawing.ClosedBezierShape">
      <g id="id100">
       <path fill="none" stroke="rgb(0,0,0)" stroke-width="36" stroke-linejoin="round" d="M 14844,3317 C 14844,3377 14831,3428 14801,3480 14770,3532 14733,3569 14681,3599 14629,3629 14577,3643 14517,3643 14456,3643 14405,3629 14353,3599 14300,3569 14263,3532 14233,3480 14203,3428 14189,3377 14189,3317 14189,3256 14203,3205 14233,3153 14263,3101 14300,3064 14353,3034 14405,3004 14456,2990 14517,2990 14577,2990 14629,3004 14681,3034 14733,3064 14770,3101 14801,3153 14831,3205 14844,3256 14844,3317 Z"/>
      </g>
     </g>
     <g class="com.sun.star.drawing.ClosedBezierShape">
      <g id="id101">
       <path fill="rgb(245,245,245)" stroke="none" d="M 14849,3956 C 14819,4008 14781,4045 14729,4075 14677,4105 14626,4119 14566,4119 14504,4119 14453,4105 14401,4075 14349,4045 14311,4008 14281,3956 14251,3904 14237,3853 14237,3793 14237,3732 14251,3681 14281,3629 14311,3577 14349,3540 14401,3510 14453,3480 14504,3466 14566,3466 14626,3466 14677,3480 14729,3510 14781,3540 14819,3577 14849,3629 14879,3681 14893,3732 14893,3793 14893,3853 14879,3904 14849,3956 Z"/>
      </g>
     </g>
     <g class="com.sun.star.drawing.ClosedBezierShape">
      <g id="id102">
       <path fill="none" stroke="rgb(0,0,0)" stroke-width="36" stroke-linejoin="round" d="M 14893,3793 C 14893,3853 14879,3904 14849,3956 14819,4008 14781,4045 14729,4075 14677,4105 14626,4119 14566,4119 14504,4119 14453,4105 14401,4075 14349,4045 14311,4008 14281,3956 14251,3904 14237,3853 14237,3793 14237,3732 14251,3681 14281,3629 14311,3577 14349,3540 14401,3510 14453,3480 14504,3466 14566,3466 14626,3466 14677,3480 14729,3510 14781,3540 14819,3577 14849,3629 14879,3681 14893,3732 14893,3793 Z"/>
      </g>
     </g>
     <g class="com.sun.star.drawing.ClosedBezierShape">
      <g id="id103">
       <path fill="rgb(255,30,0)" stroke="none" d="M 5672,15019 C 6020,14374 6315,14105 6396,15365 L 8059,22338 C 8219,22831 8130,23032 8032,23040 7924,23047 7738,22787 7598,22508 6548,20414 5727,18116 5672,15019 Z"/>
       <path fill="none" stroke="rgb(0,0,0)" d="M 5672,15019 C 6020,14374 6315,14105 6396,15365 L 8059,22338 C 8219,22831 8130,23032 8032,23040 7924,23047 7738,22787 7598,22508 6548,20414 5727,18116 5672,15019 Z"/>
      </g>
     </g>
     <g class="com.sun.star.drawing.ClosedBezierShape">
      <g id="id104">
       <path fill="rgb(255,30,0)" stroke="none" d="M 6377,15356 C 6581,17009 6851,18990 7254,20141 7576,21060 7654,21435 7836,21921 7924,22170 8027,22449 8219,22406 8400,22365 8407,22132 8367,21866 8339,21666 8387,21102 8406,21229 8423,21355 7044,15291 7044,15291 6884,14411 6633,14848 6377,15356 Z"/>
       <path fill="none" stroke="rgb(0,0,0)" d="M 6377,15356 C 6581,17009 6851,18990 7254,20141 7576,21060 7654,21435 7836,21921 7924,22170 8027,22449 8219,22406 8400,22365 8407,22132 8367,21866 8339,21666 8387,21102 8406,21229 8423,21355 7044,15291 7044,15291 6884,14411 6633,14848 6377,15356 Z"/>
      </g>
     </g>
     <g class="com.sun.star.drawing.ClosedBezierShape">
      <g id="id105">
       <path fill="rgb(255,30,0)" stroke="none" d="M 8436,20059 C 8694,21161 8720,21475 8492,21534 8175,21615 8052,20723 7876,20195 7828,20051 7372,18195 7168,16795 7053,16011 6996,15371 7043,15272 7183,14979 7578,14013 7779,17014 7805,17402 8050,18586 8436,20059 Z"/>
       <path fill="none" stroke="rgb(0,0,0)" d="M 8436,20059 C 8694,21161 8720,21475 8492,21534 8175,21615 8052,20723 7876,20195 7828,20051 7372,18195 7168,16795 7053,16011 6996,15371 7043,15272 7183,14979 7578,14013 7779,17014 7805,17402 8050,18586 8436,20059 Z"/>
      </g>
     </g>
     <g class="com.sun.star.drawing.ClosedBezierShape">
      <g id="id106">
       <path fill="rgb(255,30,0)" stroke="none" d="M 7641,16114 C 8356,14093 8087,16723 8532,18495 8604,18781 8628,19052 8695,19265 8794,19583 8788,19826 8742,19954 8598,20358 8453,20237 8360,19889 7996,18910 7650,16279 7641,16114 Z"/>
       <path fill="none" stroke="rgb(0,0,0)" d="M 7641,16114 C 8356,14093 8087,16723 8532,18495 8604,18781 8628,19052 8695,19265 8794,19583 8788,19826 8742,19954 8598,20358 8453,20237 8360,19889 7996,18910 7650,16279 7641,16114 Z"/>
      </g>
     </g>
     <g class="com.sun.star.drawing.ClosedBezierShape">
      <g id="id107">
       <path fill="rgb(255,30,0)" stroke="none" d="M 8628,15378 C 8406,15209 8244,15537 8147,15698 8211,16345 8239,17001 8396,17637 8435,17741 8615,17749 8661,17647 8775,17488 8726,17289 8735,17110 8735,16532 8738,15948 8628,15378 Z"/>
       <path fill="none" stroke="rgb(0,0,0)" d="M 8628,15378 C 8406,15209 8244,15537 8147,15698 8211,16345 8239,17001 8396,17637 8435,17741 8615,17749 8661,17647 8775,17488 8726,17289 8735,17110 8735,16532 8738,15948 8628,15378 Z"/>
      </g>
     </g>
     <g class="com.sun.star.drawing.ClosedBezierShape">
      <g id="id108">
       <path fill="rgb(255,30,0)" stroke="none" d="M 8480,15461 C 8515,14686 8642,14352 9049,15333 8957,15628 9119,16427 8773,16447 8548,16460 8536,16186 8480,15461 Z"/>
       <path fill="none" stroke="rgb(0,0,0)" d="M 8480,15461 C 8515,14686 8642,14352 9049,15333 8957,15628 9119,16427 8773,16447 8548,16460 8536,16186 8480,15461 Z"/>
      </g>
     </g>
     <g class="com.sun.star.drawing.ClosedBezierShape">
      <g id="id109">
       <path fill="rgb(255,30,0)" stroke="none" d="M 9020,15315 C 8986,16124 9048,16253 9146,16252 9458,16252 9649,15613 9538,15045 9353,14562 9181,14674 9020,15315 Z"/>
       <path fill="none" stroke="rgb(0,0,0)" d="M 9020,15315 C 8986,16124 9048,16253 9146,16252 9458,16252 9649,15613 9538,15045 9353,14562 9181,14674 9020,15315 Z"/>
      </g>
     </g>
     <g class="com.sun.star.drawing.ClosedBezierShape">
      <g id="id110">
       <path fill="rgb(255,30,0)" stroke="none" d="M 9966,15154 C 9911,15818 9728,16017 9634,16005 9482,15984 9459,15721 9507,15046 9715,14774 9956,14300 9966,15154 Z"/>
       <path fill="none" stroke="rgb(0,0,0)" d="M 9966,15154 C 9911,15818 9728,16017 9634,16005 9482,15984 9459,15721 9507,15046 9715,14774 9956,14300 9966,15154 Z"/>
      </g>
     </g>
     <g class="com.sun.star.drawing.ClosedBezierShape">
      <g id="id111">
       <path fill="rgb(255,30,0)" stroke="none" d="M 6272,14083 C 6438,13969 6702,13851 6780,14280 6956,15236 6487,15417 6356,15358 6101,15244 6035,14590 6272,14083 Z"/>
       <path fill="none" stroke="rgb(0,0,0)" d="M 6272,14083 C 6438,13969 6702,13851 6780,14280 6956,15236 6487,15417 6356,15358 6101,15244 6035,14590 6272,14083 Z"/>
      </g>
     </g>
     <g class="com.sun.star.drawing.ClosedBezierShape">
      <g id="id112">
       <path fill="rgb(255,30,0)" stroke="none" d="M 6779,14262 C 7234,13221 7503,13000 7393,14431 7357,15293 7107,15337 6960,15285 6814,15233 6692,14740 6779,14262 Z"/>
       <path fill="none" stroke="rgb(0,0,0)" d="M 6779,14262 C 7234,13221 7503,13000 7393,14431 7357,15293 7107,15337 6960,15285 6814,15233 6692,14740 6779,14262 Z"/>
      </g>
     </g>
     <g class="com.sun.star.drawing.ClosedBezierShape">
      <g id="id113">
       <path fill="rgb(255,30,0)" stroke="none" d="M 8146,14300 C 8110,15710 7807,16137 7606,16119 7403,16102 7224,15230 7344,14405 7665,14087 7943,13831 8100,13796 8253,13763 8541,13988 8146,14300 Z"/>
       <path fill="none" stroke="rgb(0,0,0)" d="M 8146,14300 C 8110,15710 7807,16137 7606,16119 7403,16102 7224,15230 7344,14405 7665,14087 7943,13831 8100,13796 8253,13763 8541,13988 8146,14300 Z"/>
      </g>
     </g>
     <g class="com.sun.star.drawing.ClosedBezierShape">
      <g id="id114">
       <path fill="rgb(255,30,0)" stroke="none" d="M 8116,14308 C 8361,14193 8679,13849 8673,14504 8797,14987 8478,15726 8166,15709 7863,15682 7943,14953 8116,14308 Z"/>
       <path fill="none" stroke="rgb(0,0,0)" d="M 8116,14308 C 8361,14193 8679,13849 8673,14504 8797,14987 8478,15726 8166,15709 7863,15682 7943,14953 8116,14308 Z"/>
      </g>
     </g>
     <g class="com.sun.star.drawing.ClosedBezierShape">
      <g id="id115">
       <path fill="rgb(255,30,0)" stroke="none" d="M 9321,14494 C 9447,15041 9204,15326 9001,15331 8797,15336 8660,15061 8662,14497 8812,13382 9053,13733 9321,14494 Z"/>
       <path fill="none" stroke="rgb(0,0,0)" d="M 9321,14494 C 9447,15041 9204,15326 9001,15331 8797,15336 8660,15061 8662,14497 8812,13382 9053,13733 9321,14494 Z"/>
      </g>
     </g>
     <g class="com.sun.star.drawing.ClosedBezierShape">
      <g id="id116">
       <path fill="rgb(255,30,0)" stroke="none" d="M 9868,14240 C 9978,14832 9677,15069 9500,15049 9377,15034 9274,14838 9311,14502 9522,13212 9695,13759 9868,14240 Z"/>
       <path fill="none" stroke="rgb(0,0,0)" d="M 9868,14240 C 9978,14832 9677,15069 9500,15049 9377,15034 9274,14838 9311,14502 9522,13212 9695,13759 9868,14240 Z"/>
      </g>
     </g>
     <g class="com.sun.star.drawing.ClosedBezierShape">
      <g id="id117">
       <path fill="rgb(255,30,0)" stroke="none" d="M 9847,14231 C 9790,13762 10030,13818 10347,14006 10286,14231 10312,14466 10306,14699 10300,14933 10176,15131 10031,15165 9858,15206 9764,14892 9847,14231 Z"/>
       <path fill="none" stroke="rgb(0,0,0)" d="M 9847,14231 C 9790,13762 10030,13818 10347,14006 10286,14231 10312,14466 10306,14699 10300,14933 10176,15131 10031,15165 9858,15206 9764,14892 9847,14231 Z"/>
      </g>
     </g>
     <g class="com.sun.star.drawing.ClosedBezierShape">
      <g id="id118">
       <path fill="rgb(255,30,0)" stroke="none" d="M 5637,13917 C 6328,11865 7101,10981 7383,11058 7626,11126 7640,12039 6283,14173 6182,14816 5845,15067 5682,15029 5518,14992 5305,14640 5637,13917 Z"/>
       <path fill="none" stroke="rgb(0,0,0)" d="M 5637,13917 C 6328,11865 7101,10981 7383,11058 7626,11126 7640,12039 6283,14173 6182,14816 5845,15067 5682,15029 5518,14992 5305,14640 5637,13917 Z"/>
      </g>
     </g>
     <g class="com.sun.star.drawing.ClosedBezierShape">
      <g id="id119">
       <path fill="rgb(255,30,0)" stroke="none" d="M 15628,15019 C 15280,14374 14985,14105 14903,15365 L 13240,22338 C 13081,22831 13169,23032 13268,23040 13376,23047 13562,22787 13702,22508 14751,20414 15573,18116 15628,15019 Z"/>
       <path fill="none" stroke="rgb(0,0,0)" d="M 15628,15019 C 15280,14374 14985,14105 14903,15365 L 13240,22338 C 13081,22831 13169,23032 13268,23040 13376,23047 13562,22787 13702,22508 14751,20414 15573,18116 15628,15019 Z"/>
      </g>
     </g>
     <g class="com.sun.star.drawing.ClosedBezierShape">
      <g id="id120">
       <path fill="rgb(255,30,0)" stroke="none" d="M 14923,15356 C 14718,17009 14449,18990 14045,20141 13724,21060 13645,21435 13463,21921 13375,22170 13272,22449 13080,22406 12899,22365 12893,22132 12932,21866 12960,21666 12912,21102 12894,21229 12876,21355 14255,15291 14255,15291 14416,14411 14667,14848 14923,15356 Z"/>
       <path fill="none" stroke="rgb(0,0,0)" d="M 14923,15356 C 14718,17009 14449,18990 14045,20141 13724,21060 13645,21435 13463,21921 13375,22170 13272,22449 13080,22406 12899,22365 12893,22132 12932,21866 12960,21666 12912,21102 12894,21229 12876,21355 14255,15291 14255,15291 14416,14411 14667,14848 14923,15356 Z"/>
      </g>
     </g>
     <g class="com.sun.star.drawing.ClosedBezierShape">
      <g id="id121">
       <path fill="rgb(255,30,0)" stroke="none" d="M 12863,20059 C 12605,21161 12578,21475 12806,21534 13123,21615 13246,20723 13422,20195 13471,20051 13926,18195 14131,16795 14245,16011 14303,15371 14255,15272 14115,14979 13720,14013 13519,17014 13493,17402 13248,18586 12863,20059 Z"/>
       <path fill="none" stroke="rgb(0,0,0)" d="M 12863,20059 C 12605,21161 12578,21475 12806,21534 13123,21615 13246,20723 13422,20195 13471,20051 13926,18195 14131,16795 14245,16011 14303,15371 14255,15272 14115,14979 13720,14013 13519,17014 13493,17402 13248,18586 12863,20059 Z"/>
      </g>
     </g>
     <g class="com.sun.star.drawing.ClosedBezierShape">
      <g id="id122">
       <path fill="rgb(255,30,0)" stroke="none" d="M 13658,16114 C 12943,14093 13213,16723 12768,18495 12696,18781 12672,19052 12605,19265 12504,19583 12512,19826 12558,19954 12702,20358 12846,20237 12939,19889 13303,18910 13650,16279 13658,16114 Z"/>
       <path fill="none" stroke="rgb(0,0,0)" d="M 13658,16114 C 12943,14093 13213,16723 12768,18495 12696,18781 12672,19052 12605,19265 12504,19583 12512,19826 12558,19954 12702,20358 12846,20237 12939,19889 13303,18910 13650,16279 13658,16114 Z"/>
      </g>
     </g>
     <g class="com.sun.star.drawing.ClosedBezierShape">
      <g id="id123">
       <path fill="rgb(255,30,0)" stroke="none" d="M 12672,15378 C 12894,15209 13055,15537 13153,15698 13089,16345 13062,17001 12903,17637 12865,17741 12685,17749 12639,17647 12526,17488 12574,17289 12565,17110 12566,16532 12562,15948 12672,15378 Z"/>
       <path fill="none" stroke="rgb(0,0,0)" d="M 12672,15378 C 12894,15209 13055,15537 13153,15698 13089,16345 13062,17001 12903,17637 12865,17741 12685,17749 12639,17647 12526,17488 12574,17289 12565,17110 12566,16532 12562,15948 12672,15378 Z"/>
      </g>
     </g>
     <g class="com.sun.star.drawing.ClosedBezierShape">
      <g id="id124">
       <path fill="rgb(255,30,0)" stroke="none" d="M 12819,15461 C 12784,14686 12657,14352 12250,15333 12342,15628 12180,16427 12525,16447 12750,16460 12763,16186 12819,15461 Z"/>
       <path fill="none" stroke="rgb(0,0,0)" d="M 12819,15461 C 12784,14686 12657,14352 12250,15333 12342,15628 12180,16427 12525,16447 12750,16460 12763,16186 12819,15461 Z"/>
      </g>
     </g>
     <g class="com.sun.star.drawing.ClosedBezierShape">
      <g id="id125">
       <path fill="rgb(255,30,0)" stroke="none" d="M 12280,15315 C 12314,16124 12252,16253 12154,16252 11842,16252 11651,15613 11762,15045 11947,14562 12119,14674 12280,15315 Z"/>
       <path fill="none" stroke="rgb(0,0,0)" d="M 12280,15315 C 12314,16124 12252,16253 12154,16252 11842,16252 11651,15613 11762,15045 11947,14562 12119,14674 12280,15315 Z"/>
      </g>
     </g>
     <g class="com.sun.star.drawing.ClosedBezierShape">
      <g id="id126">
       <path fill="rgb(255,30,0)" stroke="none" d="M 11333,15154 C 11388,15818 11571,16017 11665,16005 11817,15984 11840,15721 11792,15046 11584,14774 11343,14300 11333,15154 Z"/>
       <path fill="none" stroke="rgb(0,0,0)" d="M 11333,15154 C 11388,15818 11571,16017 11665,16005 11817,15984 11840,15721 11792,15046 11584,14774 11343,14300 11333,15154 Z"/>
      </g>
     </g>
     <g class="com.sun.star.drawing.ClosedBezierShape">
      <g id="id127">
       <path fill="rgb(255,30,0)" stroke="none" d="M 15028,14083 C 14863,13969 14598,13851 14520,14280 14344,15236 14813,15417 14944,15358 15199,15244 15264,14590 15028,14083 Z"/>
       <path fill="none" stroke="rgb(0,0,0)" d="M 15028,14083 C 14863,13969 14598,13851 14520,14280 14344,15236 14813,15417 14944,15358 15199,15244 15264,14590 15028,14083 Z"/>
      </g>
     </g>
     <g class="com.sun.star.drawing.ClosedBezierShape">
      <g id="id128">
       <path fill="rgb(255,30,0)" stroke="none" d="M 14521,14262 C 14065,13221 13797,13000 13906,14431 13942,15293 14193,15337 14339,15285 14485,15233 14606,14740 14521,14262 Z"/>
       <path fill="none" stroke="rgb(0,0,0)" d="M 14521,14262 C 14065,13221 13797,13000 13906,14431 13942,15293 14193,15337 14339,15285 14485,15233 14606,14740 14521,14262 Z"/>
      </g>
     </g>
     <g class="com.sun.star.drawing.ClosedBezierShape">
      <g id="id129">
       <path fill="rgb(255,30,0)" stroke="none" d="M 13153,14300 C 13189,15710 13492,16137 13694,16119 13896,16102 14075,15230 13956,14405 13634,14087 13356,13831 13199,13796 13047,13763 12759,13988 13153,14300 Z"/>
       <path fill="none" stroke="rgb(0,0,0)" d="M 13153,14300 C 13189,15710 13492,16137 13694,16119 13896,16102 14075,15230 13956,14405 13634,14087 13356,13831 13199,13796 13047,13763 12759,13988 13153,14300 Z"/>
      </g>
     </g>
     <g class="com.sun.star.drawing.ClosedBezierShape">
      <g id="id130">
       <path fill="rgb(255,30,0)" stroke="none" d="M 13183,14308 C 12938,14193 12619,13849 12627,14504 12503,14987 12821,15726 13134,15709 13437,15682 13356,14953 13183,14308 Z"/>
       <path fill="none" stroke="rgb(0,0,0)" d="M 13183,14308 C 12938,14193 12619,13849 12627,14504 12503,14987 12821,15726 13134,15709 13437,15682 13356,14953 13183,14308 Z"/>
      </g>
     </g>
     <g class="com.sun.star.drawing.ClosedBezierShape">
      <g id="id131">
       <path fill="rgb(255,30,0)" stroke="none" d="M 11978,14494 C 11852,15041 12095,15326 12298,15331 12501,15336 12639,15061 12637,14497 12487,13382 12245,13733 11978,14494 Z"/>
       <path fill="none" stroke="rgb(0,0,0)" d="M 11978,14494 C 11852,15041 12095,15326 12298,15331 12501,15336 12639,15061 12637,14497 12487,13382 12245,13733 11978,14494 Z"/>
      </g>
     </g>
     <g class="com.sun.star.drawing.ClosedBezierShape">
      <g id="id132">
       <path fill="rgb(255,30,0)" stroke="none" d="M 11432,14240 C 11323,14832 11623,15069 11800,15049 11923,15034 12026,14838 11989,14502 11778,13212 11605,13759 11432,14240 Z"/>
       <path fill="none" stroke="rgb(0,0,0)" d="M 11432,14240 C 11323,14832 11623,15069 11800,15049 11923,15034 12026,14838 11989,14502 11778,13212 11605,13759 11432,14240 Z"/>
      </g>
     </g>
     <g class="com.sun.star.drawing.ClosedBezierShape">
      <g id="id133">
       <path fill="rgb(255,30,0)" stroke="none" d="M 11452,14231 C 11509,13762 11268,13818 10952,14006 11013,14231 10987,14466 10993,14699 10998,14933 11123,15131 11268,15165 11441,15206 11535,14892 11452,14231 Z"/>
       <path fill="none" stroke="rgb(0,0,0)" d="M 11452,14231 C 11509,13762 11268,13818 10952,14006 11013,14231 10987,14466 10993,14699 10998,14933 11123,15131 11268,15165 11441,15206 11535,14892 11452,14231 Z"/>
      </g>
     </g>
     <g class="com.sun.star.drawing.ClosedBezierShape">
      <g id="id134">
       <path fill="rgb(255,30,0)" stroke="none" d="M 15661,13917 C 14972,11865 14198,10981 13917,11058 13673,11126 13659,12039 15016,14173 15118,14816 15454,15067 15618,15029 15781,14992 15993,14640 15661,13917 Z"/>
       <path fill="none" stroke="rgb(0,0,0)" d="M 15661,13917 C 14972,11865 14198,10981 13917,11058 13673,11126 13659,12039 15016,14173 15118,14816 15454,15067 15618,15029 15781,14992 15993,14640 15661,13917 Z"/>
      </g>
     </g>
     <g class="com.sun.star.drawing.ClosedBezierShape">
      <g id="id135">
       <path fill="rgb(255,30,0)" stroke="none" d="M 8136,9900 C 7449,9908 6801,10051 6496,10649 6098,11431 6002,12164 5801,12765 5588,13398 5215,13857 4800,14101 5090,14254 6520,13979 6916,11673 6965,11387 7220,11368 7241,11458 7273,11592 7295,11794 7126,12049 6893,12402 6512,12933 6304,13833 6257,14031 6251,14147 6307,14208 6698,14640 7099,13932 7269,13660 7080,14142 7191,14358 7415,14439 7613,14510 7881,14416 8090,13969 8096,14877 8804,14728 8942,14025 8938,14383 9145,14518 9292,14506 9447,14494 9581,14244 9580,13905 9745,14441 10164,14217 10287,14096 10361,14025 10392,13932 10410,13828 10362,14017 10394,14314 10630,14301 10835,14317 10902,14037 10868,13878 10954,13970 10935,14022 11011,14096 11135,14217 11555,14441 11720,13905 11719,14244 11853,14494 12008,14506 12155,14518 12361,14383 12357,14025 12495,14728 13204,14877 13210,13969 13419,14416 13686,14510 13884,14439 14108,14358 14219,14142 14030,13660 14201,13932 14602,14640 14993,14208 15049,14147 15043,14031 14996,13833 14788,12933 14407,12402 14174,12049 14005,11794 14026,11592 14058,11458 14079,11368 14334,11387 14384,11673 14780,13979 16209,14254 16500,14101 16085,13857 15710,13398 15498,12765 15297,12164 15202,11431 14803,10649 14498,10051 13849,9908 13163,9900 12556,9893 12336,10304 12283,10735 12181,11551 13406,12079 13348,12840 13338,12972 13350,13126 13203,13294 12623,13954 12012,13146 11524,12881 11389,12771 11003,12640 10907,12604 10819,12590 10735,12585 10649,12590 10565,12585 10480,12590 10392,12604 10305,12635 9931,12769 9775,12881 9287,13146 8677,13954 8096,13294 7950,13126 7962,12972 7952,12840 7894,12079 9117,11551 9016,10735 8963,10304 8743,9893 8136,9900 Z"/>
       <path fill="none" stroke="rgb(0,0,0)" d="M 8136,9900 C 7449,9908 6801,10051 6496,10649 6098,11431 6002,12164 5801,12765 5588,13398 5215,13857 4800,14101 5090,14254 6520,13979 6916,11673 6965,11387 7220,11368 7241,11458 7273,11592 7295,11794 7126,12049 6893,12402 6512,12933 6304,13833 6257,14031 6251,14147 6307,14208 6698,14640 7099,13932 7269,13660 7080,14142 7191,14358 7415,14439 7613,14510 7881,14416 8090,13969 8096,14877 8804,14728 8942,14025 8938,14383 9145,14518 9292,14506 9447,14494 9581,14244 9580,13905 9745,14441 10164,14217 10287,14096 10361,14025 10392,13932 10410,13828 10362,14017 10394,14314 10630,14301 10835,14317 10902,14037 10868,13878 10954,13970 10935,14022 11011,14096 11135,14217 11555,14441 11720,13905 11719,14244 11853,14494 12008,14506 12155,14518 12361,14383 12357,14025 12495,14728 13204,14877 13210,13969 13419,14416 13686,14510 13884,14439 14108,14358 14219,14142 14030,13660 14201,13932 14602,14640 14993,14208 15049,14147 15043,14031 14996,13833 14788,12933 14407,12402 14174,12049 14005,11794 14026,11592 14058,11458 14079,11368 14334,11387 14384,11673 14780,13979 16209,14254 16500,14101 16085,13857 15710,13398 15498,12765 15297,12164 15202,11431 14803,10649 14498,10051 13849,9908 13163,9900 12556,9893 12336,10304 12283,10735 12181,11551 13406,12079 13348,12840 13338,12972 13350,13126 13203,13294 12623,13954 12012,13146 11524,12881 11389,12771 11003,12640 10907,12604 10819,12590 10735,12585 10649,12590 10565,12585 10480,12590 10392,12604 10305,12635 9931,12769 9775,12881 9287,13146 8677,13954 8096,13294 7950,13126 7962,12972 7952,12840 7894,12079 9117,11551 9016,10735 8963,10304 8743,9893 8136,9900 Z"/>
      </g>
     </g>
    </g>
   </g>
  </g>
 </g>
</svg>