<?xml version="1.0" encoding="utf-8"?><!DOCTYPE svg PUBLIC "-//W3C//DTD SVG 1.1//EN" "http://www.w3.org/Graphics/SVG/1.1/DTD/svg11.dtd"><svg viewBox="0 0 600 600" xmlns="http://www.w3.org/2000/svg"><path d="m.5 300 299.5 299.5 299.5-299.5-299.5-299.5z" fill="#ed1c24" stroke="#000" stroke-linecap="round" stroke-linejoin="round"/><g stroke="#000" stroke-linecap="round" stroke-linejoin="round"><g><path d="m279.2688 223.7437 96.9875 96.9875 96.9875-96.9875-96.9875-96.9875z" fill="#e5e5e5"/><path d="m467.232 217.7321-3.1474-3.1474m.003 18.3156 3.1448-3.1448m2.3624-11.236c-.4349.4349-1.1401.4349-1.575 0l-.7874-.7875.7874-.7875c.4349-.4349 1.1401-.4349 1.575 0s.4349 1.1401 0 1.575zm0 10.4485c-.4349-.4349-1.1401-.4349-1.575 0l-.7875.7875.7875.7875c.4349.4349 1.1401.4349 1.575 0s.4349-1.1401 0-1.575zm-186.6767-10.4485c.4349.4349 1.1401.4349 1.575 0l.7875-.7875-.7875-.7875c-.4349-.4349-1.1401-.4349-1.575 0s-.4349 1.1401 0 1.575zm0 10.4485c.4349-.4349 1.1401-.4349 1.575 0l.7875.7875-.7875.7875c-.4349.4349-1.1401.4349-1.575 0s-.4349-1.1401 0-1.575zm98.5625 88.114c-.4349-.4349-.4349-1.1401 0-1.575l.7875-.7875.7875.7875c.4349.4349.4349 1.1401 0 1.575s-1.1401.4349-1.575 0zm-93.0553-84.1817c-2.8826 2.888-6.9159 3.5326-9.8011.6473-2.8853-2.8853-2.2406-6.9186.6446-9.8038-2.8853-2.8853-3.5299-6.9186-.6446-9.8038 2.8853-2.8853 6.9186-2.2406 9.8038.6446l78.6718-78.6719c-2.888-2.8826-3.5326-6.9159-.6473-9.8011s6.9186-2.2406 9.8038.6446c2.8853-2.8852 6.9185-3.5299 9.8038-.6446s2.2406 6.9186-.6446 9.8038l78.6692 78.6692c2.8853-2.8853 6.9186-3.5299 9.8038-.6446 2.8853 2.8853 2.2406 6.9186-.6446 9.8038 2.8853 2.8853 3.5299 6.9186.6446 9.8038-2.8853 2.8853-6.9186 2.2406-9.8012-.6473l-78.6718 78.6719c2.8852 2.8853 3.5299 6.9186.6446 9.8038-2.8853 2.8853-6.9186 2.2406-9.8038-.6446-2.8853 2.8853-6.9186 3.5299-9.8038.6446-2.8853-2.8853-2.2406-6.9186.6473-9.8011zm82.6068 84.1817c.4349-.4349.4349-1.1401 0-1.575l-.7875-.7875-.7875.7875c-.4349.4349-.4349 1.1401 0 1.575s1.1401.4349 1.575 0zm10.4485-186.6764c-.4349.4349-.4349 1.1401 0 1.575l.7875.7875.7875-.7875c.4349-.4349.4349-1.1401 0-1.575s-1.1401-.4349-1.575 0zm-10.4485 0c.4349.4349.4349 1.1401 0 1.575l-.7875.7875-.7875-.7875c-.4349-.4349-.4349-1.1401 0-1.575s1.1401-.4349 1.575 0zm-85.7514 87.3266 3.1474-3.1474m-.003 18.3156-3.1448-3.1448m96.9876 84.964 3.1474-3.1474m-18.3156.003 3.1448 3.1448m12.0234-181.9516 3.1474 3.1474m-18.3156-.003 3.1448-3.1448m-80.1995 90.976 86.373 86.373 86.373-86.373-86.373-86.373z" fill="#e5e5e5" fill-rule="evenodd"/><path d="m376.418 137.3707-23.9849 23.9815v38.4066h-38.4066l-23.9815 23.9849 23.9815 23.9843h38.4066v38.4072l23.9849 23.9815 23.9843-23.9815v-38.4072h38.4072l23.9815-23.9843-23.9815-23.9849h-38.4072v-38.4066z" fill="#ed1c24"/></g><g><path d="m273.7585 374.6416c17.591-14.4193 18.2762-25.948 19.2705-37.4015 1.215-13.9952 2.8044-18.7216 3.3902-24.1011.2361-2.1683.1266-4.983-.2489-8.596-.4152-3.9947 3.3296-13.4621 3.3296-17.8571 0-5.0998-3.2673-7.0255-6.8774-7.1074-11.5205-.2611-17.6211 9.0746-21.3496 23.0322-.7929 2.9683-1.5523 6.4724-.716 9.6542-3.0923 6.4879-1.3788 10.7517-6.0269 18.4694.5448-9.5383-2.3254-16.06-1.4186-26.736.4664-5.4913 1.9898-24.5823 1.1219-35.6561.5501-8.6509.859-18.77.1876-24.1745.1615-15.7291-1.7828-23.5897-8.6107-24.2827s-10.2913 4.437-10.6872 9.4455c-.3428 4.3366-.531 8.5953-.7968 12.8823-1.6906 12.5305-1.598 17.4189-2.0563 27.2985-2.662 11.4077-2.4706 21.8364-3.832 30.4468l-1.6971.251c.6304-8.6945 1.8267-18.8214 1.626-28.6953-.201-9.8881-.8813-14.7461-.2537-27.3747-.0967-4.2942-.2684-8.5536-.2926-12.9036-.039-7.0023-.2828-19.7355-10.3386-19.7355-9.0713 0-10.5724 11.0666-10.5397 16.9424.0258 4.6423.0605 9.142.356 13.5704-.6438 10.9379-.4866 21.0758-.6355 30.6612-1.5082 10.341-2.4648 18.6934-2.1964 28.8544l-1.665.4982c.0442-9.29.4913-17.7687.057-28.7076-.3803-9.579-1.4184-19.6722-1.5583-30.6281-.6114-4.3959-.9677-8.8816-1.3254-13.5102-.3434-4.4429-4.0977-9.2454-9.3771-8.6657-7.8874.8661-10.2498 10.016-8.6524 25.6499-.1458 3.4346-.4101 1.3892-.1009 5.3898.4127 5.3397-.0275 20.9357.5475 25.9828-.2678 14.2842.41 20.4225.7793 29.5503l-1.3544.4727c-.9736-9.0831-2.0312-17.1223-2.7109-31.3928-.9083-4.9978-1.503-20.5887-2.2686-25.8893-.0876-.6065-.3827-8.2663-8.6945-7.1331-6.1812.8427-7.6429 10.1414-7.6429 18.5672 0 2.9887.265 5.9315.5656 8.4769 1.0982 9.3012 2.4987 49.1895 1.794 55.9193-1.3122 12.53-2.3595 24.2396-2.3595 36.5584 0 8.7248.82 16.7588 2.0858 21.6259 1.9335 7.4341 4.567 18.2503 8.867 24.1412 3.2822 7.7925 4.431 22.6314 4.9812 29.7496 5.4161 4.6855 20.5084 6.3161 35.2484 6.3161 13.3987 0 27.6978-1.6533 33.6513-6.0801-.4931-14.9031 1.6419-23.1874.1225-35.6383 5.3529-4.661 9.3926-20.8368 18.3024-28.14z" fill="#e5e5e5"/><path d="m243.6138 297.8943c5.5992.0717 9.5842.9258 12.863 1.5117" fill="none"/><path d="m246.9554 268.3261c5.5837-.2495 9.3419.5309 12.6501.9283" fill="none"/><path d="m249.7106 242.9985c4.9651-.3469 7.5995-.0745 10.684.7375" fill="none"/><path d="m218.4434 300.5263c3.1574-.5936 8.5112-1.3168 13.722-.8306" fill="none"/><path d="m222.1791 243.1323c3.0655-1.1947 8.9707-.9322 12.3006-.8155" fill="none"/><path d="m221.8785 270.5225c5.5427-.7199 8.3461-.7903 12.0809.2467" fill="none"/><path d="m197.4305 306.004c4.0316-1.871 7.9681-3.2995 10.4829-3.595" fill="none"/><path d="m181.4528 408.4343c5.623 6.7392 18.6529-.6111 25.3338-3.1717" fill="none"/><path d="m195.7844 245.9518c4.0681-.8183 7.797-1.1171 11.1267-1.239" fill="none"/><path d="m197.2273 275.268c4.0681-1.1146 7.6505-.6908 10.9802-.8126" fill="none"/><path d="m181.8199 326.5306c19.8841-3.6123 46.4698-5.2548 62.9255-14.3424" fill="none"/><path d="m237.9251 326.2012c-16.0321 2.7223-23.5097 6.7223-48.189 22.7551" fill="none"/><path d="m177.9643 310.9924c2.9915-2.2689 6.2907-3.5549 9.6338-3.3902" fill="none"/><path d="m174.1911 267.5747c5.3911-1.4755 6.6367-1.6051 9.9511-1.9474" fill="none"/><path d="m175.622 286.3946c5.3911-1.4755 6.6368-1.605 9.9511-1.9473" fill="none"/><path d="m219.2588 401.4415c4.4129 2.7365 23.6722 12.4246 36.2179 1.34" fill="none"/><path d="m270.557 312.265c1.4778 1.0469 3.0173 1.5343 4.7451 1.7837" fill="none"/><path d="m259.6984 337.2704c2.1257-2.4373 3.6723-4.6111 4.8316-6.5361-15.8592-1.7972-37.244 15.7926-38.4218 40.1469" fill="none"/></g></g><path d="m1.5 300 298.5 298.5 298.5-298.5-298.5-298.5z" fill="none" stroke="#000" stroke-linecap="round" stroke-linejoin="round" stroke-width="3"/></svg>