<?xml version="1.0" encoding="utf-8"?><!DOCTYPE svg PUBLIC "-//W3C//DTD SVG 1.1//EN" "http://www.w3.org/Graphics/SVG/1.1/DTD/svg11.dtd"><svg viewBox="0 0 600 810" xmlns="http://www.w3.org/2000/svg"><g stroke="#000" stroke-linecap="round" stroke-linejoin="round"><path d="m473.8071 203c0 7.0122-38.1058 21.2714-173.8071 21.2714s-173.8071-14.2592-173.8071-21.2714 38.1058-21.2715 173.8071-21.2715 173.8071 14.2593 173.8071 21.2715z" fill="#eac102"/><g fill="none"><path d="m147.422 193.829v18.341" stroke-width="5.5"/><path d="m153.859 192.34v21.319" stroke-width="5.25"/><path d="m160.296 191.363v23.273" stroke-width="5"/><path d="m166.733 190.154v25.692" stroke-width="4.75"/><path d="m173.171 189.084v27.832" stroke-width="4.5"/><path d="m179.608 188.153v29.693" stroke-width="4.25"/><path d="m186.045 187.223v31.553" stroke-width="4"/><path d="m192.482 186.432v33.135" stroke-width="3.75"/><path d="m198.92 185.92v34.159" stroke-width="3.5"/><path d="m205.357 185.316v35.368" stroke-width="3.25"/><path d="m211.794 184.385v37.229" stroke-width="3"/><path d="m218.232 183.873v38.253" stroke-width="2.75"/><path d="m224.669 183.641v38.718" stroke-width="2.5"/><path d="m231.106 183.082v39.834" stroke-width="2.25"/><path d="m237.543 182.617v40.765" stroke-width="2"/><path d="m243.981 182.338v41.323" stroke-width="1.75"/><path d="m250.418 181.92v42.16" stroke-width="1.5"/><path d="m256.855 181.64v42.719" stroke-width="1.25"/><path d="m263.292 180.803v44.394"/><path d="m269.73 180.803v44.394" stroke-width=".75"/><path d="m276.167 180.803v44.394" stroke-width=".5"/><path d="m282.604 180.803v44.394" stroke-width=".25"/><path d="m134.547 198.248v9.502" stroke-width="6"/><path d="m140.984 195.876v14.248" stroke-width="5.75"/><path d="m452.579 193.829v18.341" stroke-width="5.5"/><path d="m446.142 192.34v21.319" stroke-width="5.25"/><path d="m439.704 191.363v23.273" stroke-width="5"/><path d="m433.267 190.154v25.692" stroke-width="4.75"/><path d="m426.83 189.084v27.832" stroke-width="4.5"/><path d="m420.393 188.153v29.693" stroke-width="4.25"/><path d="m413.955 187.223v31.553" stroke-width="4"/><path d="m407.518 186.432v33.135" stroke-width="3.75"/><path d="m401.081 185.92v34.159" stroke-width="3.5"/><path d="m394.643 185.316v35.368" stroke-width="3.25"/><path d="m388.206 184.385v37.229" stroke-width="3"/><path d="m381.769 183.873v38.253" stroke-width="2.75"/><path d="m375.332 183.641v38.718" stroke-width="2.5"/><path d="m368.894 183.082v39.834" stroke-width="2.25"/><path d="m362.457 182.617v40.765" stroke-width="2"/><path d="m356.02 182.338v41.323" stroke-width="1.75"/><path d="m349.583 181.92v42.16" stroke-width="1.5"/><path d="m343.145 181.64v42.719" stroke-width="1.25"/><path d="m336.708 180.803v44.394"/><path d="m330.271 180.803v44.394" stroke-width=".75"/><path d="m323.834 180.803v44.394" stroke-width=".5"/><path d="m317.396 180.803v44.394" stroke-width=".25"/><path d="m465.453 198.248v9.502" stroke-width="6"/><path d="m459.016 195.876v14.248" stroke-width="5.75"/></g><g><path d="m418.459 117.1259c16.9383-13.8178 35.633-34.5719 48.1799-57.5675l11.4263-7.9287 11.9579-.1129-11.4136 36.0031-30.3785 33.0079z" fill="#eac102"/><path d="m490.2272 141.2903c5.2951-23.5962 15.96-47.8435 27.3182-72.1748l-12.5476-13.2878-14.9748-4.311c-12.5196 24.1444-24.7951 48.4857-41.7921 69.011z" fill="#eac102"/><path d="m475.7088 46.5874-.0001-3.1504-5.6168-3.6019-2.1845 8.0539z" fill="#eac102"/><path d="m498.6324 48.9249v-5.6873l5.4752-2.6102 2.0631 7.0995z" fill="#eac102"/><path d="m512.3987 57.7528v-5.6873l5.4752-2.6102 2.2452 6.8568z" fill="#eac102"/><path d="m512.5662 79.6352-28.2018-17.0454-23.0812 6.2958" fill="none"/><path d="m507.877 90.1549-29.3014-16.4912-23.6821 4.5491" fill="none"/><path d="m503.4288 100.6747-30.9633-15.9379-12.4503 2.162" fill="none"/><path d="m499.2657 111.1944-33.3971-15.3837-12.1847.6582" fill="none"/><path d="m495.5644 121.7142-36.8934-14.8305-11.7731-1.1739" fill="none"/><path d="m489.4282 119.3944-8.5365 17.2075" fill="none"/><path d="m498.0018 56.7755-5.3003 10.684" fill="none"/><path d="m509.4053 64.0133-5.2024 10.4868" fill="none"/><path d="m498.3523 71.1811-5.2734 10.6299" fill="none"/><path d="m509.9019 78.1244-5.0807 10.2417" fill="none"/><path d="m486.7938 64.2557-5.4129 10.9113" fill="none"/><path d="m498.8577 85.2748-5.1211 10.3226" fill="none"/><path d="m487.16 78.6298-5.3838 10.8526" fill="none"/><path d="m499.6299 98.8303-5.0664 10.2127" fill="none"/><path d="m487.6651 92.724-5.3353 10.7545" fill="none"/><path d="m475.7468 86.5238-5.576 11.2397" fill="none"/><path d="m485.8334 42.5697-.0001-3.1504-5.6168-3.6019-1.9417 8.1752z" fill="#eac102"/><path d="m517.5454 69.1155c1.1688-2.2443 3.7164-4.0537 6.9543-3.8424l-17.5284-13.5452-16.6302-8.3595-12.6552 2.96-12.4671 7.0099c1.1386.6832 2.9722 3.449 1.4201 6.2202l23.3842-8.0417z" fill="#eac102"/><path d="m490.3412 43.3683c1.2388 1.9731 1.1271 5.3619-.3181 8.1484" fill="none"/><path d="m466.3795 75.9236 6.4443-10.1269" fill="none"/><path d="m484.1771 53.6257-5.5831 10.467" fill="none"/><path d="m472.485 57.602-5.7156 9.6407" fill="none"/><path d="m472.6551 74.8768-6.6691 10.8565" fill="none"/><path d="m460.8141 77.1399-6.8821 10.8565" fill="none"/><path d="m452.6861 106.2233 7.432-9.9179" fill="none"/><path d="m485.0969 98.7829c-4.8885-2.5379-10.6714-.9645-12.9658 3.5278l-10.6191 20.7919 17.6489 9.1622 10.6191-20.7919c2.2944-4.4924.2058-10.152-4.6831-12.69z" fill="#eac102"/><path d="m464.9384 124.8813 10.7962 5.6047 10.619-20.7918c1.4103-2.7613.1381-6.2341-2.8525-7.7867-2.9906-1.5525-6.5334-.5794-7.9437 2.182z"/><path d="m497.9556 80.3772-5.092 10.0168 5.3923 2.9393 5.474-10.2226c.9398-1.755.5531-3.919-1.157-4.878-1.7103-.9591-3.7157.3709-4.6173 2.1445z"/><path d="m486.2414 73.7664-5.092 10.0168 5.3923 2.9393 5.474-10.2226c.9398-1.755.5531-3.919-1.157-4.878-1.7103-.9591-3.7157.3709-4.6173 2.1445z"/><path d="m490.3412 43.3687-25.1223 9.9692v-11.5688l4.8732-1.9338.0001 5.7846 5.2514-2.0841v-5.7843l4.8731-1.9338.0002 5.7846 5.2512-2.0841v-5.7843l4.8733-1.9338 1.699 6.0871z" fill="#eac102"/><path d="m490.3412 43.3687 34.1585 21.9045.0003-11.5688-6.6261-4.2491v5.7846l-7.1402-4.5789v-5.7843l-6.6261-4.2491v5.7846l-7.1399-4.5789-.0001-5.7843-6.6261-4.2491z" fill="#eac102"/><path d="m181.541 117.1259c-16.9383-13.8178-35.633-34.5719-48.1799-57.5675l-11.4263-7.9287-11.9579-.1129 11.4136 36.0031 30.3785 33.0079z" fill="#eac102"/><path d="m109.7728 141.2903c-5.2951-23.5962-15.96-47.8435-27.3182-72.1748l12.5475-13.2878 14.9748-4.311c12.5196 24.1444 24.7951 48.4857 41.7921 69.011z" fill="#eac102"/><path d="m124.2912 46.5874.0001-3.1504 5.6168-3.6019 2.1845 8.0539z" fill="#eac102"/><path d="m101.3676 48.9249v-5.6873l-5.4752-2.6102-2.0631 7.0995z" fill="#eac102"/><path d="m87.6012 57.7528v-5.6873l-5.4752-2.6102-2.2452 6.8568z" fill="#eac102"/><path d="m87.4337 79.6352 28.2019-17.0454 23.0813 6.2958" fill="none"/><path d="m92.123 90.1549 29.3014-16.4912 23.6821 4.5491" fill="none"/><path d="m96.5712 100.6747 30.9633-15.9379 12.4503 2.162" fill="none"/><path d="m100.7343 111.1944 33.3971-15.3837 12.1847.6582" fill="none"/><path d="m104.4356 121.7142 36.8935-14.8305 11.7731-1.1739" fill="none"/><path d="m110.5718 119.3944 8.5365 17.2075" fill="none"/><path d="m135.5705 109.3367 7.6418 15.4039" fill="none"/><path d="m101.9982 56.7755 5.3003 10.684" fill="none"/><path d="m90.5947 64.0133 5.2024 10.4867" fill="none"/><path d="m101.6477 71.1811 5.2735 10.6299" fill="none"/><path d="m90.0981 78.1244 5.0807 10.2417" fill="none"/><path d="m113.2062 64.2557 5.4129 10.9113" fill="none"/><path d="m101.1423 85.2748 5.121 10.3226" fill="none"/><path d="m112.84 78.6298 5.3838 10.8526" fill="none"/><path d="m100.3701 98.8303 5.0664 10.2127" fill="none"/><path d="m112.3349 92.724 5.3353 10.7545" fill="none"/><path d="m124.2532 86.5238 5.5759 11.2397" fill="none"/><path d="m114.1666 42.5697.0001-3.1504 5.6168-3.6019 1.9417 8.1752z" fill="#eac102"/><path d="m82.4546 69.1155c-1.1688-2.2443-3.7164-4.0537-6.9543-3.8424l17.5284-13.5452 16.6302-8.3595 12.6552 2.96 12.4672 7.0099c-1.1386.6832-2.9722 3.449-1.4201 6.2202l-23.3842-8.0417z" fill="#eac102"/><path d="m109.6588 43.3683c-1.2388 1.9731-1.1271 5.3619.3181 8.1484" fill="none"/><path d="m133.6205 75.9236-6.4443-10.1267" fill="none"/><path d="m115.8229 53.6257 5.5831 10.467" fill="none"/><path d="m127.515 57.602 5.7156 9.6407" fill="none"/><path d="m127.3449 74.8768 6.6691 10.8565" fill="none"/><path d="m139.1859 77.1399 6.8821 10.8565" fill="none"/><path d="m147.3139 106.2233-7.432-9.9179" fill="none"/><path d="m114.9031 98.7829c4.8885-2.5379 10.6714-.9645 12.9658 3.5278l10.6191 20.7919-17.6489 9.1622-10.6191-20.7919c-2.2944-4.4924-.2058-10.152 4.6831-12.69z" fill="#eac102"/><path d="m135.0616 124.8813-10.7962 5.6047-10.619-20.7918c-1.4103-2.7613-.1381-6.2341 2.8525-7.7867 2.9906-1.5525 6.5334-.5794 7.9437 2.182z"/><path d="m102.0444 80.3772 5.092 10.0168-5.3923 2.9393-5.474-10.2226c-.9398-1.755-.5531-3.919 1.157-4.878 1.7103-.9591 3.7157.3709 4.6173 2.1445z"/><path d="m113.7586 73.7664 5.092 10.0168-5.3923 2.9393-5.474-10.2226c-.9398-1.755-.5531-3.919 1.157-4.878 1.7103-.9591 3.7157.3709 4.6173 2.1445z"/><path d="m109.6584 43.3687 25.1228 9.9692v-11.5688l-4.8732-1.9338-.0001 5.7846-5.2514-2.0841v-5.7843l-4.8731-1.9338-.0002 5.7846-5.2512-2.0841v-5.7843l-4.8737-1.9338-1.6986 6.0871z" fill="#eac102"/><path d="m109.6584 43.3687-34.1584 21.9045v-11.5688l6.6261-4.2491v5.7846l7.1402-4.5789v-5.7843l6.6261-4.2491v5.7846l7.1398-4.5789.0002-5.7843 6.6259-4.2491z" fill="#eac102"/><path d="m417.9137 139.3047c15.1768-15.689 32.3599-36.2383 42.1016-52.4059-25.8501-8.2056-82.8623-19.0537-160.0153-19.0537s-134.1651 10.8481-160.0153 19.0537c9.7417 16.1676 26.9248 36.7169 42.1016 52.4059z" fill="#eac102"/><path d="m146.3161 96.4689c26.8426-7.0167 79.7089-16.2617 153.684-16.2617 73.975 0 126.8414 9.245 153.684 16.2617" fill="none"/><path d="m299.9999 92.2857v-12.0758" fill="none"/><path d="m265.6567 80.9441.8564 11.8784" fill="none"/><path d="m282.377 68.0607.4427 12.296" fill="none"/><path d="m283.2553 92.4566.3985 11.0684" fill="none"/><path d="m233.0043 82.8867 1.6594 11.4527" fill="none"/><path d="m202.1373 86.1522 2.3787 10.8545" fill="none"/><path d="m173.1221 90.6182 3.0563 10.3384" fill="none"/><path d="m247.987 69.599 1.3186 12.0722" fill="none"/><path d="m250.5887 93.5108 1.2151 11.2137" fill="none"/><path d="m215.3842 72.4811 2.1585 11.8738" fill="none"/><path d="m219.5717 95.5156 2.0754 11.4161" fill="none"/><path d="m184.6413 76.7489 2.9426 11.4474" fill="none"/><path d="m190.2997 98.7615 3.1724 12.3412" fill="none"/><path d="m155.9276 82.5287 3.625 10.8212" fill="none"/><path d="m446.8978 105.7098c-29.0896-7.2474-76.3643-13.4105-146.8978-13.4105-70.5336 0-117.8082 6.1632-146.8978 13.4105" fill="none"/><path d="m334.3433 80.9441-.8564 11.8784" fill="none"/><path d="m317.623 68.0607-.4427 12.296" fill="none"/><path d="m316.7448 92.4566-.3985 11.0684" fill="none"/><path d="m366.9957 82.8867-1.6594 11.4527" fill="none"/><path d="m397.8627 86.1522-2.3786 10.8545" fill="none"/><path d="m426.8779 90.6182-3.0563 10.3384" fill="none"/><path d="m352.0133 69.599-1.319 12.0722" fill="none"/><path d="m349.4113 93.5108-1.2151 11.2137" fill="none"/><path d="m384.6158 72.4811-2.1585 11.8738" fill="none"/><path d="m380.4283 95.5156-2.0754 11.4161" fill="none"/><path d="m415.3587 76.7489-2.9426 11.4475" fill="none"/><path d="m409.7004 98.7615-3.1725 12.3412" fill="none"/><path d="m444.0724 82.5287-3.625 10.8212" fill="none"/><path d="m162.9488 103.4882 4.482 13.3796" fill="none"/><path d="m335.5517 106.0819c-7.8509-22.4453-10.5472-50.3284-10.5472-81.4926l-25.0045-3.7606-25.0045 3.7606c0 31.1641-2.6964 59.0473-10.5473 81.4926z" fill="#eac102"/><path d="m269.3066 90.4681h61.3868" fill="#008f4c"/><path d="m271.6926 77.2923h56.6151" fill="#008f4c"/><path d="m273.3364 64.1166h53.3275" fill="#008f4c"/><path d="m274.9195 37.7651h50.1612" fill="#008f4c"/><path d="m300 37.7651v13.1759" fill="#008f4c"/><path d="m278.939 50.941v-13.1759" fill="#008f4c"/><path d="m321.061 50.941v-13.1759" fill="#008f4c"/><path d="m279.7612.5-2.7913 10.3118 5.6728.4853v-5.9667z" fill="#eac102"/><path d="m320.2398.5 2.67 10.6756-5.5511.1213v-5.9667z" fill="#eac102"/><path d="m325.0046 24.589c0-3.235 6.2436-6.7466 8.7279-7.6143l-33.7322-3.6393-33.7323 3.6393c2.4842.8678 8.7277 4.3794 8.7277 7.6143z" fill="#eac102"/><path d="m300.0002 64.1166v13.1759" fill="#008f4c"/><path d="m278.939 77.2925v-13.1759" fill="#008f4c"/><path d="m321.061 77.2925v-13.1759" fill="#008f4c"/><path d="m278.939 105.1241v-14.656" fill="#008f4c"/><path d="m321.061 105.1241v-14.656" fill="#008f4c"/><path d="m310.5307 24.5893v13.1759" fill="#008f4c"/><path d="m289.4695 37.7652v-13.1759" fill="#008f4c"/><path d="m310.5307 50.9407v13.1759" fill="#008f4c"/><path d="m289.4695 64.1166v-13.1759" fill="#008f4c"/><path d="m274.378 50.9408h51.2439" fill="#008f4c"/><path d="m314.5454 59.487h-8.0297v-12.9333c0-2.3041 1.7906-4.1591 4.0149-4.1591s4.0149 1.8549 4.0149 4.1591z" fill-rule="evenodd"/><path d="m293.4842 59.487h-8.0297v-12.9333c0-2.3041 1.7906-4.1591 4.0149-4.1591s4.0149 1.8549 4.0149 4.1591z" fill-rule="evenodd"/><path d="m266.2679.5v16.4747h67.4648v-16.4747h-13.4928v8.2376h-13.4935v-8.2376h-13.4926v8.2376h-13.4926v-8.2376z" fill="#eac102"/><path d="m464.4295 109.3367-7.6418 15.4039" fill="none"/><path d="m300 70.7045c7.2893 0 13.1576 5.8659 13.1576 13.152v29.3192h-26.3152v-29.3192c0-7.2863 5.8683-13.152 13.1576-13.152z" fill="#eac102" fill-rule="evenodd"/><path d="m300 75.7436c4.4591 0 8.0489 3.6185 8.0489 8.1133v29.3189h-16.0978v-29.3189c0-4.4947 3.5898-8.1133 8.0489-8.1133z" fill-rule="evenodd"/><path d="m111.3227 149.0595c-11.1229-3.151-12.2645-13.3069-2.5117-19.5729 20.2853-13.033 85.6152-26.8424 191.189-26.8424s170.9037 13.8094 191.189 26.8424c9.7527 6.266 8.6112 16.4219-2.5117 19.5729l-188.6773-23.5929z" fill="#eac102"/><path d="m315.8392 102.7482c-14.0857 0-28.5886 4.1953-21.8932 13.8113" fill="none"/><path d="m497.7838 140.5209c-1.1739-12.1891-24.3176-12.9398-24.2917-3.1232" fill="none"/><path d="m350.4113 103.7861c-14.0841-.5526-30.299 3.4408-23.7503 13.1546" fill="none"/><path d="m383.3857 105.9069c-13.8997-1.1587-31.9143 2.5434-25.6141 12.4158" fill="none"/><path d="m416.3652 109.541c-13.3539-1.8122-33.4004 1.4737-27.3878 11.519" fill="none"/><path d="m447.9874 114.9315c-13.3823-2.8752-34.935-.3322-29.3938 9.9736" fill="none"/><path d="m478.1845 123.2728c-12.6585-4.1906-36.0679-4.0603-31.4841 6.6933" fill="none"/><path d="m133.9036 119.363c-12.116 4.3389-15.315 11.599-7.4669 17.9129" fill="none"/><path d="m282.2243 102.776c-14.0773.4786-26.872 5.1456-19.8448 14.5284" fill="none"/><path d="m249.3745 103.7957c-14.047 1.0289-26.3114 6.3572-18.9125 15.4579" fill="none"/><path d="m219.5185 105.6687c-14.6642 1.4681-24.5421 7.7036-16.632 16.3757" fill="none"/><path d="m189.8116 108.7077c-14.2376 1.8024-21.9876 8.5544-13.7587 16.9331" fill="none"/><path d="m160.3374 113.2712c-13.7521 3.0061-19.6742 9.6336-11.0282 17.5929" fill="none"/><path d="m110.3906 128.5102c-5.2218 2.7302-7.7871 13.7319 2.0872 17.0103" fill="none"/><path d="m111.3227 149.0595c6.5748 14.1798 11.48 29.703 16.4385 48.2625l46.7777-10.1615 125.4611-7.3098 125.4611 7.3098 46.7777 10.1615c4.9585-18.5595 9.8637-34.0827 16.4385-48.2625 5.7421-12.3838-78.4913-32.5721-188.6773-32.5721s-194.4193 20.1884-188.6773 32.5721z" fill="#eac102"/><path d="m124.8172 186.6681c-2.7776-9.4377 69.6649-21.4427 175.1828-21.4427s177.9604 12.0051 175.1828 21.4427" fill="none"/><path d="m121.8745 176.8556c-3.5085-10.9098 72.5414-23.8147 178.1255-23.8147s181.634 12.905 178.1255 23.8147" fill="none"/><path d="m300 165.2546v12.1494" fill="#008f4c" fill-rule="evenodd"/><path d="m118.7763 167.5551c-4.5225-12.3411 75.8054-26.6988 181.2237-26.6988 105.4184 0 185.7462 14.3577 181.2237 26.6988" fill="none"/><path d="m300 116.5642v12.1494" fill="#008f4c" fill-rule="evenodd"/><path d="m300 140.8468v12.1494" fill="#008f4c" fill-rule="evenodd"/><path d="m244.9269 130.2518 1.2727 11.79" fill="none"/><path d="m247.4881 154.2563 1.2803 11.8923" fill="none"/><path d="m261.8713 117.3769.846 11.9318" fill="none"/><path d="m263.5704 141.5585.8657 11.9966" fill="none"/><path d="m265.2969 165.6958.8344 11.7694" fill="none"/><path d="m225.5443 119.6955 1.6308 11.4457" fill="none"/><path d="m228.9209 143.1783 1.6496 11.7935" fill="none"/><path d="m232.3217 167.0154 1.5989 11.2208" fill="none"/><path d="m191.1644 123.5069 2.3343 10.9437" fill="none"/><path d="m196.0763 145.9957 2.4425 11.5159" fill="none"/><path d="m201.0557 169.2138 2.4146 11.2744" fill="none"/><path d="m158.9869 128.7523 2.98 10.4003" fill="none"/><path d="m165.1477 150.0803 3.1577 10.9603" fill="none"/><path d="m171.7049 172.5169 3.213 11.062" fill="none"/><path d="m129.3913 136.3686 3.4355 9.6027" fill="none"/><path d="m136.5491 156.2694 3.6417 10.2248" fill="none"/><path d="m144.0817 177.2886 4.0312 11.3047" fill="none"/><path d="m281.3495 128.9203.4317 12.0696" fill="none"/><path d="m282.2119 153.1571.4325 12.2146" fill="none"/><path d="m210.365 132.797 2.0197 11.4874" fill="none"/><path d="m214.5113 156.1805 2.094 11.7135" fill="none"/><path d="m177.7169 136.6647 2.8178 11.1474" fill="none"/><path d="m183.3964 159.1308 2.8864 11.4201" fill="none"/><path d="m147.2939 142.1923 3.4602 10.5039" fill="none"/><path d="m154.3511 163.526 3.5855 10.8811" fill="none"/><path d="m120.6981 150.927 3.4645 9.9083" fill="none"/><path d="m127.6551 170.8065 3.5885 10.2217" fill="none"/><path d="m300 137.7039c7.3705 0 13.3041 5.9315 13.3041 13.2992v29.6473h-26.6082v-29.6473c0-7.3678 5.9337-13.2992 13.3041-13.2992z" fill="#eac102" fill-rule="evenodd"/><path d="m300 142.7993c4.5087 0 8.1385 3.659 8.1385 8.204v29.647h-16.277v-29.647c0-4.545 3.6298-8.204 8.1385-8.204z" fill-rule="evenodd"/><path d="m484.689 158.3061c5.7378-13.3135-79.275-29.6342-184.689-29.6342s-190.4269 16.3208-184.689 29.6342" fill="none"/><path d="m355.0731 130.2518-1.2727 11.79" fill="none"/><path d="m352.5119 154.2563-1.2803 11.8923" fill="none"/><path d="m338.1287 117.3769-.846 11.9318" fill="none"/><path d="m336.4296 141.5585-.8657 11.9966" fill="none"/><path d="m334.7031 165.6958-.8344 11.7694" fill="none"/><path d="m374.4558 119.6955-1.6308 11.4457" fill="none"/><path d="m371.0791 143.1783-1.6496 11.7935" fill="none"/><path d="m367.6783 167.0154-1.5988 11.2208" fill="none"/><path d="m408.8356 123.5069-2.3343 10.9437" fill="none"/><path d="m403.9237 145.9957-2.4425 11.5159" fill="none"/><path d="m398.9443 169.2138-2.4146 11.2744" fill="none"/><path d="m441.0131 128.7523-2.98 10.4003" fill="none"/><path d="m434.8523 150.0803-3.1577 10.9603" fill="none"/><path d="m428.2951 172.5169-3.213 11.062" fill="none"/><path d="m470.6087 136.3686-3.4355 9.6027" fill="none"/><path d="m463.4509 156.2694-3.6417 10.2248" fill="none"/><path d="m455.9183 177.2886-4.0312 11.3047" fill="none"/><path d="m318.6506 128.9203-.4317 12.0696" fill="none"/><path d="m317.7881 153.1571-.4325 12.2146" fill="none"/><path d="m389.635 132.797-2.0197 11.4874" fill="none"/><path d="m385.4887 156.1805-2.094 11.7135" fill="none"/><path d="m422.2831 136.6647-2.8178 11.1474" fill="none"/><path d="m416.6036 159.1308-2.8864 11.4201" fill="none"/><path d="m452.7062 142.1923-3.4602 10.5039" fill="none"/><path d="m445.6489 163.526-3.5855 10.8811" fill="none"/><path d="m479.302 150.927-3.4645 9.9083" fill="none"/><path d="m472.3449 170.8065-3.5885 10.2217" fill="none"/><path d="m442.4111 186.0085 18.8671 5.5459 8.8101-25.6517c1.7028-4.958-.9804-10.1975-6.163-11.7993-5.1823-1.6017-10.8305 1.0635-12.5464 6.0169z" fill="#eac102"/><path d="m446.201 186.8947 11.445 3.5371 8.8101-25.6516c1.0467-3.0475-.5903-6.2643-3.7606-7.2441s-6.6376.6594-7.6843 3.707z"/><path d="m157.5889 186.0085-18.8671 5.5459-8.8101-25.6517c-1.7028-4.958.9804-10.1975 6.163-11.7993 5.1823-1.6017 10.8305 1.0635 12.5464 6.0169z" fill="#eac102"/><path d="m153.7991 186.8947-11.445 3.5371-8.8101-25.6516c-1.0467-3.0475.5903-6.2643 3.7606-7.2441s6.6376.6594 7.6843 3.707z"/><path d="m468.4893 203c0 2.2122-39.4563 17.0141-168.4893 17.0141s-168.4893-14.8019-168.4893-17.0141c0-2.2123 39.4563-17.0142 168.4893-17.0142s168.4893 14.8018 168.4893 17.0142zm11.0107 0c0 22.5798-119.923 26.5-179.5 26.5s-179.5-3.9202-179.5-26.5 119.923-26.5 179.5-26.5 179.5 3.9203 179.5 26.5z" fill="#eac102" fill-rule="evenodd"/></g></g><path d="m.5 510 299.5 299.5 299.5-299.5-299.5-299.5z" fill="#e5e5e5" stroke="#000" stroke-linecap="round" stroke-linejoin="round"/><g stroke="#000" stroke-linecap="round" stroke-linejoin="round"><path d="m407.9766 318.4766c-13.6836 5.065-27.0028 11.4963-39.5156 18.8574-12.7972-8.47-31.3955-18.5801-43.3535-18.5801-15.1894 0-55.6884 57.433-65.5859 83.4238-29.9225-44.6678-61.3321-57.1641-77.6035-57.1641-6.3995 0-13.9281 2.2353-22.0234 5.5918l-159.3945 159.3945 299.5 299.5 299.5-299.5z" fill="#c87137"/><path d="m368.4605 337.3346c10.9242 6.9099 21.096 15.6181 30.7188 25.2687" fill="none"/><path d="m251.1484 435.8887c-33.5909 20.4187-88.0878 67.279-88.0878 87.0126 0 20.139 123.5964 51.6987 123.5964 74.4485 0 11.3933-39.3097 21.9515-25.4637 45.9334 12.8268 22.2167-11.8387 51.7537-44.5508 82.8594l83.3574 83.3574 56.4238-56.4238c-8.3846-27.3942-24.8915-47.9568-17.2383-60.3164 10.2802-16.6022.7494-22.8935.7012-36.9336-.1693-49.2857 50.3689-42.6979 54.2109-74.4609 3.2971-27.2581 24.3329-27.0046 51.7832-35.2422 43.6407-13.0962 90.5776-32.7896 135.2656-54.4766l-22.0664-22.0664c-16.6194 10.2706-36.9504 19.1589-63.7598 25.4746-66.7244 15.7187-95.3252 29.1595-111.373 48.0254-15.3006 17.9875-46.3472 22.4823-68.7847 3.9141-21.1805-17.528-85.8907-40.4067-99.5778-64.034-8.2922-14.3144 21.5869-23.8859 35.5637-47.0715z" fill="#0071bc"/><path d="m289.1595 573.9083c4.5437-6.3274 9.3615-10.7428 10.9195-13.1622.5275-.8273 3.4992-3.7643 5.3029-5.9405l1.2552-2.4923c1.4496-1.4509 1.4164-2.4633 3.533-3.4436 2.1225-.9808 8.7016-2.638 15.9368-4.6054 7.4144.8412 9.4256 1.3186 14.1835.9025l.6153-1.001c-3.4008.1398-4.454-.6378-9.5479-1.2951l10.9649-5.2778c4.4786-2.4165 9.1843-5.1176 12.4861-7.0333l-1.0307-.6055c-3.7038 1.4871-19.5391 9.2198-21.4418 9.9233-5.46 2.0181-18.4651 5.0139-20.4868 5.0254 2.7234-3.359 4.6182-4.2108 5.713-5.5366 1.7389-.5076 19.2277-4.5241 22.0197-5.2135l.8826-1.8256c-1.4239.1225-17.0447 4.1863-21.1004 4.7256 2.2589-3.1063 3.1787-5.5459 7.2244-8.2906 1.0717-.7253 7.9633-3.8465 9.2162-4.2345l1.6163-4.1053c-1.2677.3084-12.7584 6.7019-14.0334 6.2097-1.5186-.5864-3.5877-5.209-4.3049-6.2097l-5.2595 1.4701c-.688 1.0188-.2215 2.3406-.633 3.3322-.6607 1.5931-1.734 3.4737-4.9624 6.2467-1.4709 2.7653-3.3218 3.8039-4.8423 5.711-.6218.7767-1.899 2.1658-3.1889 3.0418-1.5067-2.1146-2.5962-.3925-1.5281-1.6572 1.2312-1.4581 4.4505-6.8359 4.6652-7.3889 1.3649-3.5962-2.5017-7.3284-3.0631-7.8595l-3.8923.9159c.8262.7248 3.0191 3.8969 2.861 5.1299-.3649 2.8355-5.0072 9.0236-5.2424 8.9647-1.9338-1.2659-4.8595-2.1989-6.781-2.9763-.6122-.2485.4926-6.8956-.8324-8.7819h-2.9744c-.1612 2.645.6895 4.8304-.3471 7.9753l2.118 3.3905c5.0573 1.8694 7.7476 3.7309 9.6466 6.9804-.6889 4.5563-4.3867 7.8585-5.4707 9.8884-2.6377 3.1857-5.4974 7.4505-11.3096 13.9489-3.4586 3.8668-12.3687 14.6332-16.0181 19.0404-3.4783 4.1996-8.0682 5.5897-15.6184 6.5049h8.8766c1.3865 0 3.2792-.6139 4.7921-.7661.1204.1341.1272.7661 1.0199.7661h6.9336c1.2198 0 2.2181-.6221 3.1742-.7661.8211.2393 2.3849.7661 4.214.7661h7.4527c-5.3088-.8687-8.345-2.2712-4.8368-6.5049 3.1051-3.7507 9.8631-12.1465 11.1116-13.8866z" fill="#a05a2c"/><path d="m289.0883 521.9683c-.9773-.2673-1.5295 1.545-2.8085.0508-1.2543-1.4648-1.4854 4.4441-2.784 1.916-.8682-1.6903-1.5552-.4153-2.6712-.1543-.7439.174.6686-1.7946-.9638-1.0105-2.1824 1.0483-.8571-2.2407-2.8266-1.353-1.6596.748-.1395-2.691-2.4632-2.0911-2.4282.6269-2.1745-2.4377-4.6479-2.1652-2.2182.2445 1.1438-3.3821-1.5491-2.1897-1.604.7102-1.3122-.5075-1.6303-1.5655-.2942-.9784-2.8682-1.5983-.6309-2.1552 2.3534-.5859-.6742-1.1237-.8961-2.1942-.1507-.7272 3.3526-.6592 1.135-1.3639-.7101-.2257.9576-1.9525-.6928-1.2634-2.3868.9966.059-2.6931-1.8341-2.715-2.3407-.0264-.9116-2.2614.2564-2.7221.9853-.3887-3.9661-.0857-2.0888-1.2803 1.3364-.8505-.1566-.644-.5427-1.1767-1.0321-1.4241 4.3939-.8769 1.2588-1.6229-2.7785-.6611 1.3056-2.1898 2.8242-1.985 1.1041.149.1751-.7445 1.5322-1.0594.7124-.1653-2.6027-1.5416-.5876-2.0438 1.0621-.2646 2.2846-1.2007.7752-1.288-2.4404-.1411 1.3137-2.4219-1.1777-2.1972-1.7857.1611-1.6619-.4473-.2833-1.3114 1.5313-.9598 3.0535-1.6436 4.2904-.1151.8912 1.1012 3.7788-1.2468 2.3295-1.0851-2.0356.2272-.5866-1.6264-1.2763-1.4736-2.2347.4951-2.5949-1.9181-.4135-1.9459 1.4832-.0191-.1006-2.0997 1.5911-1.1467 1.0546.5942 2.5294-.7513 2.8348-.3207 1.4363 2.0253 4.4628-.5837 4.576 1.6414.084 1.6535.8865 1.6301 1.475-.0679.5299-1.529-1.0125-1.8458.7844-1.7429 1.6179.0927-.8466-2.568 1.1174-1.4851.9143.5041 1.38 2.2705 1.8652.1804.3727-1.6057 2.0571.8361 3.9621.1939 1.9329-.6516.1688 6.574 2.8021 4.1179" fill="#008f4c" fill-rule="evenodd"/><path d="m263.7655 500.0144c.6655 1.2235-3.3559-.574-2.1782 1.5255 1.7307 3.0853-3.003-.3282-3.159 1.7369.781 2.6031.6944 2.3666 0 3.4483.1491.5979 1.3374.1062 1.2955.696-.058.8091-1.0947.9749-1.2955 1.5458.1674.9002 2.472 1.2667 2.0326 2.1252-.87 1.6998.058 1.4686.9199 2.4689 1.2221 1.4188-.745 3.89 1.1158 5.3812 1.2366.991-1.0928 4.0412 1.4304 3.5962 3.0844-.5439-2.0108 3.1252.9693 3.3773 1.7598.1489 1.4446 4.7354 3.0007 2.1059 1.5806-2.6705 1.5192 2.4253 2.2612 1.9897.9012-.529 1.6032-2.9969 1.5812-.5288-.01 1.1211 2.5109-.2844 1.0643 1.5758-1.3382 1.7208 2.678 1.971 2.6373 2.1421-.6604 2.7816 1.4997 3.7867 2.9209 1.7818.5316-.7498-1.1923 4.7777.6731 3.5225 1.6817-1.1315.6868.1481 1.2385 1.0202 1.0906 1.7235 2.9978-3.836 2.1086-.7935-.3086 1.0559-.7071 2.2298.6085 2.7745 1.3522-.4085 2.0447-2.3221 1.9882-3.6961 2.887 2.3637 2.5758-.6761 2.8378 1.0218.3263 2.0759.6305 1.2586 1.5419.1706.9509-1.1353 1.2753-1.1387 1.9978-.9303 2.4625-1.1275-.6098 2.8747 1.4425 3.434 1.5956-.2444 1.8825-2.0333 2.8275-2.4424 1.6564-.6257.6476-2.9177 1.2671-2.3716 2.0664 1.6513 1.0165-2.4353 3.2235-.4123.6904.6329-.7219-2.8595 1.4437-3.6823 1.4954-.5679.1866-1.0271 1.2687-2.4637.2693-1.7208.096-2.1545 1.752-2.6571 2.0385-.6177.3852-.5693 1.9907-.0934 1.4606.4329-2.6076-4.5724.1134-3.3193 2.3248 1.0707-.2136-2.3686 1.1689-3.9053 1.5362-1.7076-3.0939-2.217-3.1001-3.4579 0-.4894.8554-.5018 1.2163-.8861" fill="#008f4c" fill-rule="evenodd"/><path d="m363.7926 500.9252c-.108 1.0956 4.7661-.6891 4.2747 1.414-.606 2.5937 4.3024-1.7616 3.7203.5715-.4973 1.9932-.8159 1.9507 1.0888 2.1478 1.6813.1741-2.2922.7669-.1285 1.3703 2.5832.7204-1.0618 1.2357 1.9215 3.0294-.1763 1.0615-2.5377 2.2143-1.0079 3.6491 1.3563 1.272-.5038 2.0171 1.0079 4.2177-.1695 1.0835-3.8726-.1285 0 3.194-.14.8276-2.389.8521-1.6814 3.2201.4143 1.3864-3.9279-1.6984-2.8231 1.0774 1.015 2.5505-2.6686.0119-2.3423.5438 1.1212 1.8282-1.6523 1.7867-.9457 2.0467 2.83 1.0413-1.275 2.3868-1.0129 2.6653 1.4254 1.5147.3578 3.0749-1.8021 2.2501-1.2544-.4791 3.0276 2.359.434 2.5208-1.3355.0833-1.3912-.9693-.9865 1.0201.3601 1.7701-3.5363-.4552-3.263-.272 2.1989 1.4748.014 2.8313-1.5234 1.4476-.8767-.7891-.9184-1.5756-2.2985-1.1403-1.4463.4561-.8502-.7842-.9977.6818-.2454 2.4401-3.7549-1.8592-3.1607.8403.6143 2.7904.095 1.5626-.5646 4.0854 0 0-2.2687-1.9808-3.1457-1.9219-1.701.1142-.4432-1.2014-1.8856-2.5401-1.0461-.9709-3.3028-.1516-.9212.7997 1.0149.4054-2.935.8457-.7044 1.7285.8893.352-.1956 1.942-1.1087 1.5596-1.1276-.4721-1.3219.3447-2.2603.3742-1.2693-1.2183-1.8184-1.5301-2.8975-2.4618-.8421-.727-.5544-1.227-2.1619-1.8922-2.1452-.8878 1.0547-1.4191-.8219-2.2401-.5913-.2587-1.1272-2.0706-1.6874-1.5367-.8542.814-1.9619-1.4673-2.6834-.2438-.8434 1.4304-1.3805-2.8461-1.7153-2.5299-.9874.9324-3.2583 1.8196-3.1405-.1139.031-.5131-1.4553.1083-2.3124-.5747-1.3801-1.0998-4.2734-1.6101-3.1936-2.914-.9216-1.3808 6.5671-3.3278 6.0581-4.1532-.2861-.4642-2.9924-.993-3.4773-1.1595" fill="#008f4c" fill-rule="evenodd"/><path d="m320.8619 523.2668c1.2586-.2842-.332 2.3804 1.9788 1.6626 3.0687-.9533-1.5541 2.1627.9909 1.8284 1.7453-.2292 1.7222.0601 3.1924 1.2354 1.2107.968.7992-2.3571 1.7358-.0389.8828 2.1851 1.401-.8849 2.8881 1.7357.6784 1.1957 1.9477-2.664 3.6733-1.0401 1.8779 1.7671 3.5133-1.3724 5.6591.4075 1.3549 1.1239 1.0804-4.2593 2.6172-1.3818 1.3845 2.5923 1.9859-1.4726 4.4217-.9957 1.9982.3912-2.2155-3.2852.7008-2.9079 1.3418.1736 2.5043.0436 1.248-1.2987-1.0777-1.1513-.5916-.8032.7995-.8717.6621-.0323.3639-2.5002 1.3541-.8289 1.1204 1.8912 2.6355-2.0653 2.6922-2.0251 1.7632 1.2494 3.6997.0812 2.4441-2.0983-.6913-1.2 2.9915 2.7422 2.9639.0727-.014-1.3356-.8314-1.2399 1.0749-1.1393 1.9449.1026-.8986-3.4727-.6046-3.1691 1.8167 1.8753 3.3394-.3477 1.5447-1.7054-.9401-.7111-2.0719-.1563-1.5366-2.0965.4525-1.6401-.9207-.7728.697-1.0872 2.5047-.4866-2.3555-3.9914.8657-3.093 2.4153.6735.2789-3.2938 2.8509-1.4238 2.573 1.8708.4789-2.1846.1898-3.2694-.4561-1.7124-2.601.2137-4.1593-.9035-1.3715-.9833-.4411-3.1303.8145-1.0377.691 1.1517.4399-2.7404 2.0656-.7976.7906.9448 3.0177-1.3133 1.2549-2.246-1.5858-.8389 2.0091-1.7589-.5309-2.0836-1.3196-.1687-1.0467-.5724-1.9301-1.887-.8926-1.3281-2.4113.5186-3.3936-.9403-1.4316-2.1262-1.9797 1.3975-2.6635-.9622-.497-1.7152-1.1293-.7279.6235-1.275.5483-.1713-5.3958-.1417-3.4941-1.0337 2.3066-1.082-3.6041-.8114-3.1662-1.2391.9949-.9715 1.9156-1.5537-.3086-1.1602-1.4585.258-1.3318-.8097-2.2061-1.1872-1.8041-.7789-1.2948 3.3971-2.3987 2.9969-.4324-.1568-.2004-.983-.4441-1.4377" fill="#008f4c" fill-rule="evenodd"/><path d="m330.51 479.3614c.8228.2986.4854-1.7528 1.9055-1.1757 1.9572.7955.9516-2.7113 2.9027-2.7 1.0505.007 1.2095 1.4769 2.1041-.1346.9593-1.728.6935 1.5984 2.0726-.1263 1.301-1.6275.2322 2.8702 1.8283.9966.6162-.7233.5264 2.0711 2.1342.8729 1.8468-1.3763 2.2307 1.0838 3.9635-.0138 2.1363-1.3529-.1013 2.9296 1.7726 1.0618 1.2886-1.2844 1.0989-.2477 1.7407.502.5427.6341 2.5254.1963.8693 1.4121-2.1244 1.5597 1.5118.8318 1.146 1.4335-.4487.7381-2.4662 1.7031-.5736 1.3033.7259-.1533-.5723 2.0344.978.5832 1.2847-1.2027 1.9357.5046 2.0253.4616 2.1064-1.0105 2.5062.6712.9224 1.9663-.5591.4573 3.3001-1.5947 2.1878.0297-.8726 1.2746-.3024.4564.566.7445 1.2627.419-3.202 2.9211-.833 1.8077 2.1441-1.0077.5208 1.8603-.8993 2.1027-.7071.1207-.749.1864-.819 1.0798-.086 1.0932-1.472.7727-.051.8535 1.2042.0685-.4335.9138-1.0016 1.6548-.6191.8076.4395.8901.6115 1.451.3006.9809-.8155 2.1705.946 1.3325 2.1441-1.0201.4754.6302.06 1.362-.8365 1.4753-1.7315-.1589-3.3388.6458-1.045.5232-1.3525 2.3907.086.927 1.0451-1.0633-.5289 2.071 1.3638.5582.9027-.7217 1.5474 1.2122.051 1.8081-1.1705.4661.9894 1.236-.7837 1.4055-1.0826.1034-1.2674.4804-2.0013 1.3513-.5704.6769-1.5595-.6636-2.6062.4928-.8692.9602-1.2317.1573-1.6697-.6152-.2895-.5105-2.8877-.009-2.7255.9802.1641 1.0009.8399 1.6016.3514 1.832-1.7473.8239.023 1.2255-.3795 1.7356-.7605.9637-2.7466-1.3975-2.306.4446.3864 1.615-2.6651-2.6065-3.9251-1.3591-1.1406 1.1292-1.2964-2.2599-2.1993-1.7263-.3415.2018-.3743.6464-.6586.9341" fill="#008f4c" fill-rule="evenodd"/><path d="m297.0048 522.8184c1.177-.2504 2.3678 5.3639 4.5287 4.7321 2.8697-.8391-1.5862 3.5144.7938 3.2201 1.6316-.2018 2.2293-1.3536 2.5427.4835.289 1.6937.7476-2.0748 1.6233-.0357.8258 1.9232 1.8858-1.7855 3.2763.5211.6346 1.0524 1.1586-3.0573 2.7725-1.6278 1.756 1.5554 2.4171-1.2083 4.4236.3585 1.2666.989 2.7475-2.8177 4.1847-.2851 1.2948 2.2818.6098-.2151 2.8877.2048 1.8686.3445-1.6931-2.2656 1.0341-1.9337 1.2548.1527 2.3422.0389 1.1671-1.1431-1.0075-1.0137-.5532-.7069.7477-.7673.6192-.0284.3399-2.2003 1.2658-.7296 1.0481 1.665 2.4651-1.818 2.5181-1.7826 1.649 1.0998 3.46.0716 2.2858-1.847-.6464-1.0561 2.7975 2.4138 2.7716.064-.013-1.1757-.7775-1.0913 1.0053-1.0028 1.8189.0904-.8408-3.0571-.5654-2.7897 1.6991 1.6503 3.123-.306 1.4445-1.5011-.8791-.626-2.0919-.1926-1.4369-1.8454.1871-.4723-.4822-1.4507.6518-.9569 2.3424-.4283-2.2029-3.5133.8096-2.7226 2.2587.5928.2607-2.899 2.666-1.2531 2.4062 1.6467 1.0993-2.6942.1776-2.8779-6.6995-1.3349-2.3184-3.2592-1.1963-2.4105.8769.6632 2.8222-1.1563 1.1735-1.9772-1.4829-.7383 1.8788-1.5482-.4965-1.8339-1.234-.1485-.9788-.5036-1.805-1.6609-.8346-1.1691-2.2549.4564-3.1735-.8276-1.3388-1.8715-2.5673 1.444-3.2075-.6334-.1974-.7265-.3395-.8543 1.2997-1.3359.5129-.1506-1.7901-.8737-.012-1.6589 2.157-.9524-3.0574.0687-2.6479-.3077.9304-.8552 1.4785-2.1507-.6015-1.8044-1.3641.2272-1.2455-.7126-2.0632-1.0449-1.6872-.6857-2.4631 2.4205-3.4954 2.0683-.4043-.138-.1875-.8651-.4153-1.2654" fill="#008f4c" fill-rule="evenodd"/><path d="m271.3518 504.0285s.4126.1046.4044.2817c-.03.644-1.4403.217-1.5566.8486-.1501.8155 2.6548 2.0951 1.4597 1.8927-1.5821-.2681-4.6189.7533-3.4806 1.1362 1.1574.3893 1.9867-.0888 2.1682.7294.1934.8719-2.0872 1.0938-1.7182 1.8919.2603.5631 1.3325-.8349 1.6763-.3307.3505.5141-.9794 1.1595-.7458 1.7508.3058.7748 1.9495-.0671 2.1757.7412.1406.5028-1.049.7488-.8778 1.2396.2933.8408 1.8315-.2201 2.3933.4283.5679.6555-.1795 1.9828.308 2.7146.4032.6052 1.4575.3057 1.8524.9177.3851.5969-.3333 1.7475.1883 2.1969.7028.6055 2.0851-1.2611 2.6284-.4771.4405.6356-1.2291 1.5105-.8697 2.2069.3851.7463 1.6163-.1143 2.2997.285.566.3307.6209 1.6093 1.2597 1.613.8136.006.8104-2.0453 1.624-2.0352.7983.0102.7564 2.0863 1.5534 2.0358.7191-.0455.4909-2.093 1.2065-2.0019.4116.0521.081 1.0747.4442 1.2964.5433.3313 1.4898-1.0104 1.8177-.4241.2506.4481-.6267 1.0468.1663 1.7965.9405.8892.8728-.7595 2.0733-.3127.9435.3513.5068 3.1297 1.3283 2.3367.604-.583 1.1928-1.1514 1.8119-1.7489.6276-.6058-.9842 1.8976.2958 2.7216.7089.4564 1.1833-1.773 1.8421-1.393.3528.2035-.2715 1.037.027 1.33.3435.3375.9868.1265 1.365-.1611.5741-.4367.3092-2.3259.9629-2.0637.4307.1727-.4211 1.0117-.2852 1.4997.098.3511.3897.7198.7172.7589.5671.0677 1.1582-.4531 1.4629-.9917.4534-.8015-.5032-2.4108.2585-2.8295.2719-.1495.4847.6387.7729.5343.4413-.1598.065-1.4055.5283-1.4378.4647-.0323.2899 1.0872.6872 1.3583.3669.2505.9594.3672 1.289.0588.3766-.3523-.2117-1.3298.199-1.6309.3876-.2842 1.0711-.006 1.3395.4196.2052.3233-.3485.9443-.068 1.1866.6126.5284 1.5431-1.2615 2.205-.8134.6439.436-.3447 2.2053.3638 2.49.7515.3019 1.2288-1.142 1.8039-1.7607.4164-.4478 1.2407-.7664 1.1896-1.4094-.051-.648-1.1087-.6014-1.404-1.1622-.3019-.5734-.5565-1.4211-.2319-1.9789.329-.5651 1.3296-1.072 1.7364-.574.3614.4425-.9303 1.2004-.5963 1.6692.4369.6137 1.6764-.9974 2.0815-.3572.2532.4-.7867.8405-.6224 1.2947.252.6958 1.296.9637 1.9204.6862.5824-.2588.3295-1.5687.9076-1.8392.4277-.2001 1.014.7886 1.3395.4197.5874-.6657-1.1407-1.8846-.7134-2.6882.2212-.4161 1.1646.165 1.2709-.3041.1788-.7898-1.6121-.774-1.6646-1.5865-.029-.4513.7001-.5823.8017-1.0203.1066-.4594.064-1.0977-.2697-1.3916-.3831-.3372-1.0254.2778-1.4629.037-.4236-.2333-1.6806-1.5183-.8368-1.2769 1.014.2901 1.9444.3134 2.5545-.6152.5154-.7842.6222 1.1193 1.0464.952.4315-.17-.1223-1.2659.2846-1.4995.6033-.3464 2.4427 1.872 1.8646.9107-.2673-1.4333-.7609-2.0729.1909-2.598.3794-.8246-1.4901-1.4471-1.3241-2.3554.068-.3733.84-.2714.8405-.6524.0006-.3939 0 0-.8665-.6776-.9319-.7286-3.9573.2311-3.1402-.5879.425-.4261 1.2698-1.2723 1.2751-1.2782.01-.007-.016 0-.021-.008" fill="#008f4c" fill-rule="evenodd"/><path d="m284.4187 481.6941c-.4357-4.501-2.5222-4.0586-3.0871-4.0794-.632-.0231-.9858-.0508-.802.9893.423 2.3924-3.0199-1.8054-3.7109.0608-.4561 1.2316 1.6771 2.2106-.8108 2.2132-2.2383 0 2.1247.8978-.1711 1.311-2.5397.4571 1.9372 2.0205-1.0036 2.6565-1.0114.2187 2.5059 1.5797.7202 2.6867-1.4895.9236.01 1.9813-.243 3.2998-.2741 1.4369-1.9376 1.9842.2495 2.4331 2.7872.5722-3.356 1.3696-.4551 2.4561 1.7143.642-.2859 3.6453 2.2437 2.3411 2.9124-1.5015-.1203 2.9746 2.1758 1.8091.9888-.5019 1.8843-.9421 1.1315.3888-.3962.7005 2.7663.6136.6408 1.3377-1.9021.6481 1.7675 2.2524 1.7249 2.2881-1.4831 1.244-.3208 2.7786 1.8219 2.105 1.2814-.4029-3.0155 2.0373-.4083 2.2753 1.31.1195 1.3944-.8223 1.007.9554-.3582 1.6444 3.5323-.2957 3.263-.14-2.1944 1.2689.012 2.5734 1.538 1.3668.8695-.6875.9015-1.4098 2.2892-.9625 1.4015.4518.8511-.6611 1.0087.6515.2704 2.2503 4.2569-1.4219 3.1736.8674-1.1611 2.4535 3.2475.649.8423 2.5966-1.9128 1.5489 2.3535.4527 3.4073.3509 1.6888-.1631-.082-1.9244 1.3493-3.105 1.0307-.8501 3.3285-.0529.9387.7447-.9993.3336 2.8773.5363.5607 1.6754-.8368.4115.9762 2.4618 2.1192 1.2004 1.0254-1.1315 1.5471 1.718 2.1607-.1964.3323-1.037.6247-.9421 2.1198-1.2859.9347-.2148-.5424-1.8641 1.2162-2.413 2.2383-.6987-1.9866-2.766-.1204-3.2901.9295-.2611 2.494.5036 2.6029 1.0022.3629 1.6608.8435-.1576 1.5818.301.7504.4661.956 2.0101 1.2442.365.1812-1.0347-1.0494-2.6531.6682-1.3406 2.0944 1.6003.7683-1.415 2.8003-2.2962 1.3973-.606-2.4256-2.3804-1.9246-3.1262.1668-.2483.9181-1.4581 1.6065-2.439" fill="#008f4c" fill-rule="evenodd"/><path d="m333.707 490.3663c-.8319-.6774 2.2448-.8469.6461-2.0593-2.0054-1.5207 3.7834-.6224 2.8706-2.2352-.6886-1.2171-1.2116-2.1982.5836-3.4661 1.859-1.313-1.3204-.8954.3568-2.6208 1.5719-1.6171-2.9148-.3873-1.0287-2.4778.638-.7071-3.1249.0679-2.2926-1.7305.9497-2.0521-2.6324-1.7657-2.0059-3.6451.7729-2.3185-3.9675.8416-2.3675-1.3487 1.129-1.5456.6495-1.0755-.7104-1.4675-1.0626-.3064-1.5569-2.2756-2.3891-.4274-1.06 2.3545-1.8583-1.2147-2.5593-.6755-.7361.5663-1.0966 2.6692-1.5027.869-.1762-.7808-2.5763 1.1609-1.3023-.7445.964-1.4418-1.757-.5854-1.7435-.6793.3158-2.2008-1.3406-2.1152-2.3097-.3305-.3392.6247.7659-2.1342-.2723-2.4581-1.5551.6916-1.2636.7243-2.3328 0-1.0353.2439-1.0733 2.7257-3.0161 0-1.005.3842-1.7615 1.3285-1.3523 2.7513.1869.6502-.9357.6834-2.0733.9682-1.1175.2798-1.2479 1.4562-2.0191.2735-.7853-1.2044-1.082.6819-1.7677 1.3547-.9741.9555-.8062-1.3829-1.4279-1.3902-1.2965-.0152-3.6439 1.3878-3.3898-.4512.31-2.2428-1.9952.94-2.7902 1.5125-1.6059 1.1566 1.1104 1.5117.8164 3.2374-.1974 1.1589-2.6678 1.957-1.3215.164.8902-1.1856-2.6293 1.1229-1.4649-1.1059.5257-1.0065-2.4601-1.1223-2.5167.4282-.043 1.1926-2.2215-.6177-1.5355 1.0895.3985.992.2003 1.055-.8393 2.1938-.6917.7577 1.7974 1.1537.6523 2.5234-.8281.9905.4888 1.1844 1.7003 1.372.742.1149 1.0453.9388-.3974 1.0496-1.1896.0914-2.6219-.4503-2.7029.1588-.2472 1.8592-1.5582.1572-2.1972.8046-.8631.8744 3.3622 2.1547.5657 2.2352-2.3712.0683.7503 1.3909-.5273 3.1567-.9563 1.3215 3.7752.596 3.5006 1.5666-.1134.401-.6987.5135-.95.8503" fill="#008f4c" fill-rule="evenodd"/><path d="m335.0213 501.368c-.7138-.6774 1.4185-.4626.5543-2.0593-1.5088-2.7884 2.9945-1.8156 2.1955-3.461-.5539-1.1406-2.1618-1.387-.6289-2.6489 1.6025-1.3192-1.534-.6249-.097-2.3484 1.3502-1.6189-2.4661-.4285-.8832-2.4778.5681-.7356-2.6795.064-1.9667-1.7306.8163-2.0555-2.2593-1.7651-1.7214-3.6451.6631-2.3179-3.4095.8507-2.0311-1.3487.9628-1.536-.1998-1.0787-1.3569-1.4675-.935-.3142-1.3371-2.2715-2.0497-.4274-.9113 2.3583-1.608-1.2031-2.1963-.6755-.6458.5791-.939 2.6756-1.2892.8689-.1479-.7631-2.1892 1.1233-1.118-.7445.8431-1.4701-2.5414-.5853-2.5298-.6793.2717-2.2007-1.8949-2.1204-2.7285-.3306-.2931.6295.495-3.5073-.9936-2.0017-1.0802 1.0926-.506.299-1.1286-.3242-1.1252-1.1265-2.0468 3.7027-1.771 1.2401.2518-2.248-2.4362-.0323-2.0911 1.379.16.6547.097.7403-.9177 1.0363-1.0399.3034-.3105 1.4789-.9849.2735-.6564-1.1735-.9031.6529-1.5169 1.3547-.7977.912-.6391-1.3821-1.2255-1.3902-1.1372-.0152-2.2073 1.3153-1.9896-.5193.2665-2.2454-1.7119.9398-2.3943 1.5126-1.3778 1.1563.9488 1.538.7003 3.2373-.1685 1.1529-2.2685 1.9261-1.1332.164.7802-1.2106-2.2412 1.083-1.2576-1.106.4601-1.024-2.1111-1.1212-2.1595.4283-.037 1.1885-1.9029-.6095-1.3178 1.0895.3439.9985.1257 1.1148-.7196 2.1938-.5984.7638 1.5179 1.1878.5596 2.5233-.7306 1.0181.4179 1.1842 1.4591 1.372.6659.1201.9181.9369-.3411 1.0496-1.0643.0952-2.2528-.4282-2.3196.1588-.2115 1.8596-1.3648.1906-1.8849.8046-.7704.9095 2.8853 2.1546.4854 2.2351-2.0379.0684.59 1.4773-.4528 3.1567-.8422 1.3566 3.2411.5905 3.0042 1.5666-.093.3855-.5999.5135-.8154.8503" fill="#008f4c" fill-rule="evenodd"/><path d="m246.7271 522.3548c-.1734-1.7741.4286-8.0719.4286-12.7382 2.5338-1.585 7.4223-3.3529 11.2726-6.3316.671.3168 13.5957 5.3531 3.0464-1.9834 2.7084-1.1818 6.3049-2.658 6.6366-2.9688l-1.7671-2.1295c-5.2623 2.2998-7.1539 2.7609-9.6768 4.2352-1.9647 1.1481-7.3341 1.9345-10.4176 3.8339.2764-3.1112-.7015-5.282.7628-7.3842 1.4648-2.103 7.2977-5.6566 13.5772-9.8753 9.0874 1.8038 11.7843 2.8274 16.7301 1.9352l-.2371-2.1464c-3.6823.2997-5.5822-1.3678-11.8997-2.7771 7.9293-5.8562 17.9433-7.2069 27.3049-10.0603l-.6529-2.8658c-.9704-1.0506-18.0688 3.8916-19.2595 1.6087 2.7736-5.1817 5.5386-10.9737 7.4584-15.0815l-1.7153-1.2982c-2.7683 3.1888-13.3314 19.77-14.8113 21.2786-4.245 4.3274-16.033 10.7512-18.2855 10.776-.069-7.2028 1.2646-9.0291 1.2606-11.8722 1.4755-1.0884 17.3429-9.701 19.8297-11.1794l-.7067-3.9146c-1.4811.2627-15.2105 8.9766-19.251 10.133-.3505-6.6609-1.5855-11.892.3999-17.7775.5247-1.5554 5.3493-8.248 6.3944-9.0801l-2.0004-8.8029c-1.133.6613-8.0717 14.3709-9.9575 13.3154-2.2464-1.2575-8.855-11.1696-10.5867-13.3154l-4.528 3.1524c.1682 2.1847 5.3929 10.1486 5.8528 12.2746.7389 3.416 1.2851 7.4487.2391 13.3947.919 5.9296-.192 8.1567-.125 12.2462.027 1.6655-.1195 4.6442-.7525 6.5225-3.6496-4.5344-6.7402-5.9713-6.7183-8.683.025-3.1267-1.3523-14.6583-1.6304-15.844-1.8097-7.7114-9.6044-15.7142-10.7271-16.8531l-3.5111 1.964c1.6015 1.554 6.9996 8.356 7.968 11 2.2272 6.0803 2.7649 19.3495 2.4462 19.223-3.3422-2.7143-7.4857-4.7151-10.357-6.382-.9184-.533-5.8488-14.7862-9.085-18.8309h-3.3322c2.2737 5.6716 5.2557 10.3578 7.0151 17.1014-4.5458.1252-9.1195-1.5382-19.4688 3.944l1.1503 3.2499c9.4172-3.1656 17.0329-3.6114 23.8407.0764 7.3993 4.0084 12.1421 8.0002 17.2867 14.9679 2.6013 3.5231 3.8026 2.1803 3.5581 9.7501-.2843 1.0672-6.9606-1.0521-13.0371-2.7008-.7696-2.5502-2.6455-3.7211-3.1854-4.8051l-1.2168.6975c-.1704.7382 1.8582 2.6824 1.9383 4.1772l-6.0516.4633c-1.7037.1305-4.7931.6604-.3283.9475l6.2567.4022c6.829 2.6383 14.3324 4.7591 15.193 5.0541-.094 1.1391-.073 5.8422-.073 7.2178 0 6.8311.7581 15.9761.2774 29.9106-.2861 8.2917-.2774 31.378-.2774 40.8284 0 9.0053-3.8488 11.9861-11.4578 13.9485h9.9444c1.5533 0 3.104-1.3164 4.6558-1.6428.2611.2877.8553 1.6428 1.8554 1.6428h7.7674c1.3668 0 1.9075-1.334 2.8435-1.6428 1.1432.5133 3.3843 1.6428 5.4334 1.6428h8.3494c-6.7542-1.8628-11.4578-4.8701-11.4578-13.9485 0-8.0426-.2236-26.0457-.4388-29.777-.7825-13.5679.5164-23.0358.011-28.2236z" fill="#a05a2c"/><path d="m195.9024 450.3159c-1.5049-.4045-2.3552 2.3385-4.3248.077-1.9314-2.2172-2.2873 6.7266-4.287 2.9-1.337-2.5584-2.3949-.6286-4.1134-.2336-1.1455.2633 1.0296-2.7164-1.4842-1.5295-3.3606 1.5867-1.3198-3.3915-4.3527-2.0479-2.5556 1.1321-.2148-4.0732-3.7931-3.1652-3.7391.9488-3.3484-3.6898-7.1573-3.2773-3.4158.3701 1.7614-5.1192-2.3855-3.3144-2.4699 1.075-2.0206-.7682-2.5105-2.3695-.453-1.4809-4.4167-2.4192-.9715-3.2622 3.624-.8869-1.0381-1.7009-1.3798-3.3213-.2321-1.1007 5.1626-.9978 1.7477-2.0645-1.0934-.3416 1.4747-2.9553-1.0668-1.9122-3.6755 1.5084.091-4.0764-2.8244-4.1095-3.6045-.04-1.4038-3.4229.3949-4.1203 1.5172-.5883-6.1074-.1297-3.2166-1.9379 2.0579-1.2873-.2411-.9748-.8357-1.7811-1.5894-2.1556 6.7662-1.3273 1.9384-2.4564-4.2787-1.0007 2.0104-3.3146 4.3491-3.0046 1.7001.2255.2696-1.127 2.3594-1.6035 1.097-.2502-4.0079-2.3335-.9049-3.0935 1.6356-.4005 3.5181-1.8175 1.1937-1.9495-3.7579-.2136 2.023-3.6659-1.8134-3.3257-2.7498.2438-2.5593-.677-.4363-1.9849 2.358-1.4527 4.702-2.4878 6.6068-.1742 1.3724 1.6667 5.8189-1.8872 3.5872-1.6424-3.1347.3439-.9033-2.4617-1.9654-2.2305-3.4412.7494-3.9959-2.9033-.6368-2.9454 2.2841-.029-.1548-3.1783 2.4502-1.7357 1.624.8993 3.895-1.1372 4.3653-.4854 2.2118 3.0655 6.8723-.8835 7.0466 2.4845.1296 2.5028 1.3651 2.4673 2.2713-.1029.816-2.3143-1.5591-2.7939 1.208-2.638 2.4914.1403-1.3037-3.8871 1.7207-2.2479 1.4079.763 2.125 3.4367 2.8721.273.574-2.4304 3.1678 1.2655 6.1013.2935 2.9765-.9863.26 9.9507 4.3149 6.2329" fill="#008f4c" fill-rule="evenodd"/><path d="m156.9078 417.0859c1.0248 1.852-5.1678-.8689-3.3542 2.3091 2.665 4.6699-4.6243-.4968-4.8646 2.6289 1.2026 3.9402 1.0693 3.5822 0 5.2195.2296.905 2.0594.1607 1.995 1.0535-.089 1.2246-1.6857 1.4756-1.995 2.3397.2577 1.3626 3.8066 1.9173 3.1299 3.2169-1.3396 2.5727.09 2.2229 1.4168 3.737 1.8819 2.1475-1.1473 5.888 1.7181 8.1451 1.9043 1.5-1.6827 6.1169 2.2026 5.4434 4.7498-.8233-3.0964 4.7304 1.4928 5.112 2.7099.2253 2.2245 7.1675 4.6208 3.1875 2.4339-4.0421 2.3394 3.6709 3.482 3.0117 1.3877-.8007 2.4687-4.5362 2.4348-.8004-.015 1.6969 3.8666-.4304 1.639 2.3852-2.0607 2.6046 4.1238 2.9833 4.0612 3.2424-1.017 4.2103 2.3093 5.7316 4.4979 2.6969.8185-1.1348-1.8361 7.2317 1.0365 5.3318 2.5896-1.7127 1.0575.2241 1.9072 1.5442 1.6794 2.6088 4.6162-5.8063 3.2469-1.201-.4751 1.5981-1.0888 3.375.9371 4.1995 2.0822-.6184 3.1486-3.5147 3.0616-5.5945 4.4457 3.5778 3.9665-1.0233 4.37 1.5466.5025 3.1422.9709 1.9051 2.3743.2582 1.4644-1.7184 1.9638-1.7236 3.0765-1.408 3.792-1.7067-.9391 4.3512 2.2213 5.1977 2.4571-.3699 2.8989-3.0777 4.3541-3.6969 2.5506-.9472.9971-4.4163 1.9511-3.5898 3.1821 2.4994 1.5653-3.6861 4.9639-.6241 1.0632.9581-1.1117-4.3282 2.2232-5.5736 2.3027-.8596.2873-1.5545 1.9536-3.7291.4148-2.6045.1479-3.2611 2.6979-4.0219 3.1391-.9349.5932-.8616 3.0656-.1414 2.2491.6552-4.0155-6.921.1746-5.0241 3.5799 1.6206-.329-3.5852 1.7999-5.9112 2.3656-2.5847-4.7642-3.3558-4.7738-5.234 0-.7408 1.3172-.7596 1.873-1.3412" fill="#008f4c" fill-rule="evenodd"/><path d="m310.9398 418.4646c-.1664 1.6583 7.3392-1.043 6.5826 2.1402-.9332 3.9259 6.6253-2.6663 5.7289.8651-.7659 3.017-1.2565 2.9526 1.6766 3.251 2.589.2635-3.5297 1.1607-.1979 2.0741 3.9779 1.0904-1.635 1.8704 2.959 4.5853-.2716 1.6068-3.9078 3.3517-1.5521 5.5233 2.0885 1.9254-.7759 3.0532 1.5521 6.3841-.2611 1.6401-5.9635-.1944 0 4.8345-.2156 1.2527-3.6789 1.2897-2.5893 4.8741.6381 2.0984-6.0485-2.5707-4.3472 1.6308 1.563 3.8605-4.1095.018-3.607.8231 1.7265 2.7672-2.5443 2.7044-1.4563 3.0979 4.3579 1.576-1.9633 3.6127-1.5597 4.0343 2.1949 2.2927.5509 4.6542-2.775 3.4057-1.9318-.7252 4.6621 3.5707.6683 3.8155-2.0566.126-2.1424-1.4671-1.5192 1.544.5545 2.6792-5.4455-.689-5.0246-.4116 3.3861 2.2323.022 4.2856-2.3459 2.1911-1.3501-1.1943-1.4143-2.3849-3.5395-1.7259-2.2272.6904-1.3092-1.187-1.5364 1.032-.3779 3.6933-5.7822-2.8142-4.8671 1.2719.9459 4.2236.1463 2.3651-.8695 6.1837 0 0-3.4936-2.9982-4.8441-2.909-2.6193.1728-.6825-1.8185-2.9036-3.8448-1.6109-1.4695-5.086-.2295-1.4185 1.2104 1.5628.6137-4.5197 1.28-1.0848 2.6164 1.3695.5328-.3012 2.9394-1.7073 2.3606-1.7364-.7145-2.0355.5217-3.4806.5664-1.9546-1.844-2.8002-2.316-4.4619-3.7262-1.2967-1.1005-.8537-1.8572-3.3291-2.8641-3.3034-1.3439 1.6242-2.148-1.2656-3.3906-.9106-.3916-1.7358-3.1341-2.5984-2.326-1.3154 1.2321-3.0212-2.2209-4.1322-.369-1.2988 2.1652-2.1259-4.3079-2.6414-3.8294-1.5205 1.4113-5.0174 2.7543-4.836-.1723.048-.7767-2.2411.1639-3.5609-.8698-2.1252-1.6647-6.5807-2.4371-4.9178-4.4108-1.4193-2.0901 10.1127-5.0371 9.3289-6.2864-.4406-.7026-4.6081-1.503-5.3547-1.755" fill="#008f4c" fill-rule="evenodd"/><path d="m244.8306 452.2813c1.9382-.4302-.5111 3.6031 3.0472 2.5167 4.7255-1.443-2.3931 3.2735 1.5259 2.7675 2.6876-.347 2.6521.091 4.916 1.8698 1.8643 1.4651 1.2307-3.5678 2.673-.059 1.3594 3.3075 2.1574-1.3393 4.4473 2.6273 1.0447 1.8098 2.9993-4.0323 5.6566-1.5743 2.8917 2.6748 5.4101-2.0774 8.7144.6168 2.0864 1.7011 1.6637-6.4471 4.0302-2.0916 2.1321 3.9238 3.0581-2.229 6.809-1.5071 3.0771.5922-3.4116-4.9725 1.0792-4.4016 2.0662.2627 3.8564.066 1.9218-1.9657-1.6595-1.7427-.911-1.2157 1.2311-1.3194 1.0197-.049.5605-3.7843 2.0853-1.2546 1.7253 2.8626 4.0584-3.1261 4.1456-3.0652 2.7152 1.8911 5.6973.1229 3.7637-3.1761-1.0645-1.8163 4.6067 4.1507 4.5641.1101-.021-2.0216-1.2802-1.8768 1.6553-1.7244 2.9949.1553-1.3838-5.2564-.9311-4.7969 2.7976 2.8384 5.1424-.5263 2.3787-2.5814-1.4476-1.0764-3.1905-.2366-2.3662-3.1734.6969-2.4825-1.4177-1.1697 1.0734-1.6455 3.857-.7365-3.6273-6.0415 1.3331-4.6816 3.7193 1.0194.4295-4.9856 4.39-2.1551 3.9622 2.8317.7375-3.3067.2924-4.9486-.7025-2.5919-4.0054.3234-6.405-1.3676-2.112-1.4884-.6792-4.7381 1.2543-1.5707 1.0641 1.7433.6773-4.1479 3.1808-1.2072 1.2174 1.4301 4.647-1.9879 1.9324-3.3995-2.4419-1.2698 3.0938-2.6624-.8176-3.1538-2.032-.2554-1.6118-.8663-2.9721-2.8562-1.3745-2.0103-3.7132.785-5.2258-1.4232-2.2046-3.2183-3.0485 2.1153-4.1015-1.4564-.7654-2.5962-1.739-1.1018.9601-1.9298.8444-.2592-8.309-.2145-5.3805-1.5647 3.5518-1.6378-5.55-1.2282-4.8757-1.8756 1.532-1.4705 2.9499-2.3517-.4752-1.7561-2.246.3905-2.0508-1.2255-3.3972-1.797-2.7781-1.1789-1.9938 5.142-3.6937 4.5362-.6659-.2373-.3087-1.4879-.6839-2.1761" fill="#008f4c" fill-rule="evenodd"/><path d="m259.6878 385.8249c1.267.452.7475-2.6531 2.9343-1.7796 3.0139 1.204 1.4653-4.104 4.4698-4.0868 1.6177.01 1.8625 2.2355 3.2401-.2037 1.4773-2.6156 1.068 2.4194 3.1917-.1912 2.0034-2.4634.3576 4.3445 2.8154 1.5085.9488-1.0949.8106 3.1348 3.2864 1.3213 2.8439-2.0832 3.4351 1.6404 6.1035-.021 3.2896-2.0478-.1561 4.4343 2.7296 1.6071 1.9843-1.9441 1.6922-.3749 2.6804.7598.8358.9598 3.8889.2971 1.3387 2.1374-3.2713 2.3607 2.328 1.259 1.7648 2.1697-.691 1.1173-3.7978 2.5779-.8833 1.9727 1.1178-.232-.8814 3.0794 1.5059.8828 1.9784-1.8204 2.9808.7638 3.1189.6986 3.2436-1.5295 3.8592 1.0159 1.4204 2.9763-.8611.6923 5.0817-2.4138 3.369.045-1.3438 1.9293-.4658.6908.8715 1.1269 1.9445.6341-4.9308 4.4214-1.2827 2.7361 3.3016-1.5253.802 2.8159-1.3849 3.1826-1.0889.1826-1.1534.2821-1.2611 1.6345-.1318 1.6547-2.2668 1.1695-.078 1.2919 1.8544.1036-.6675 1.3831-1.5423 2.5048-.9534 1.2224.6767 1.3472.9416 2.1963.4629 1.4847-1.2558 3.2854 1.4568 2.0169 3.3016-1.544.732.9539.093 2.0615-1.2881 2.233-2.6664-.2405-5.1415.9775-1.6092.7919-2.0827 3.6187.1328 1.4031 1.6093-1.6094-.8145 3.1348 2.1001.8449 1.3901-1.0924 2.3829 1.8349.078 2.7367-1.8025.7054 1.5235 1.8709-1.2069 2.1274-1.6671.1565-1.9516.7271-3.0818 2.0453-.8784 1.0246-2.4014-1.0044-4.0133.7459-1.3384 1.4533-1.8967.2381-2.5712-.9312-.4458-.7727-4.4467-.014-4.197 1.4837.2527 1.5149 1.2934 2.4243.5411 2.7729-2.6906 1.2471.035 1.855-.5843 2.6271-1.1711 1.4586-4.2296-2.1153-3.551.673.595 2.4445-4.104-3.9453-6.0443-2.0571-1.7564 1.7091-1.9964-3.4207-3.3867-2.613-.5259.3055-.5764.9784-1.0142 1.4138" fill="#008f4c" fill-rule="evenodd"/><path d="m208.0931 451.6027c1.8125-.3789 3.6461 8.119 6.9737 7.1626 4.4191-1.27-2.4425 5.3195 1.2224 4.8739 2.5125-.3053 3.4329-2.0487 3.9155.732.445 2.5635 1.1513-3.1406 2.4997-.054 1.2717 2.911 2.904-2.7027 5.0453.7888.9771 1.5929 1.7841-4.6277 4.2693-2.464 2.7041 2.3543 3.7221-1.8288 6.8119.5427 1.9505 1.4969 4.2309-4.265 6.444-.4315 1.9939 3.4537.9391-.3256 4.4468.31 2.8775.5215-2.6072-3.4294 1.5924-2.9269 1.9323.2311 3.6068.059 1.7972-1.7302-1.5514-1.5343-.8518-1.07 1.1514-1.1613.9535-.043.5235-3.3305 1.9492-1.1043 1.614 2.5202 3.7961-2.7517 3.8777-2.6981 2.5392 1.6647 5.328.1083 3.5198-2.7957-.9954-1.5985 4.3079 3.6535 4.2681.097-.02-1.7795-1.1973-1.6519 1.548-1.5178 2.8009.1367-1.2948-4.6273-.8707-4.2226 2.6165 2.4979 4.8091-.4631 2.2245-2.2721-1.3537-.9475-3.2214-.2915-2.2128-2.7933.2882-.7148-.7425-2.1958 1.0038-1.4483 3.607-.6483-3.3922-5.3179 1.2467-4.1209 3.4781.8972.4015-4.3881 4.1053-1.8967 3.7053 2.4924 1.6929-4.0781.2735-4.3561-10.3166-2.0206-3.57-4.9332-1.8422-3.6486 1.3504 1.0039 4.3459-1.7502 1.8071-2.9927-2.2835-1.1176 2.8932-2.3435-.7646-2.7759-1.9002-.2247-1.5072-.7623-2.7794-2.514-1.2852-1.7696-3.4724.6908-4.887-1.2527-2.0616-2.8328-3.9533 2.1857-4.9391-.9588-.3041-1.0996-.5228-1.293 2.0014-2.022.7897-.228-2.7566-1.3224-.018-2.511 3.3215-1.4416-4.7081.1041-4.0775-.4657 1.4327-1.2945 2.2766-3.2553-.9264-2.7311-2.1005.3439-1.9179-1.0787-3.1771-1.5816-2.598-1.0379-3.7929 3.6637-5.3826 3.1306-.6225-.2088-.2887-1.3095-.6395-1.9154" fill="#008f4c" fill-rule="evenodd"/><path d="m168.59 423.1618s.6353.1583.6227.4264c-.046.9747-2.2179.3285-2.397 1.2845-.2312 1.2344 4.0882 3.1713 2.2478 2.8648-2.4362-.4058-7.1127 1.1402-5.3598 1.7198 1.7823.5893 3.0594-.1345 3.3389 1.104.2978 1.3197-3.2142 1.6556-2.6459 2.8636.4008.8523 2.0519-1.2637 2.5813-.5006.5398.7782-1.5081 1.755-1.1485 2.6501.471 1.1727 3.0021-.1016 3.3504 1.1218.2165.7611-1.6153 1.1334-1.3517 1.8764.4516 1.2726 2.8203-.3332 3.6855.6483.8745.9921-.2764 3.0012.4743 4.1089.6209.916 2.2443.4627 2.8524 1.389.593.9035-.5132 2.6451.29 3.3253 1.0822.9166 3.2109-1.9088 4.0475-.7222.6783.9621-1.8927 2.2864-1.3393 3.3404.5931 1.1296 2.489-.173 3.5413.4313.8717.5006.9561 2.4359 1.9398 2.4416 1.253.01 1.248-3.0959 2.5009-3.0806 1.2293.015 1.1647 3.1578 2.3921 3.0814 1.1073-.069.7559-3.168 1.8578-3.0301.6339.079.124 1.6267.6841 1.9623.8366.5014 2.2941-1.5294 2.7991-.642.3858.6783-.9651 1.5845.256 2.7193 1.4483 1.3458 1.344-1.1497 3.1927-.4734 1.4529.5317.7804 4.7373 2.0455 3.5369.93-.8824 1.8367-1.7427 2.7901-2.6472.9665-.917-1.5155 2.8722.4555 4.1195 1.0917.6907 1.8221-2.6837 2.8367-2.1085.5433.308-.4181 1.5697.041 2.0131.529.5109 1.5197.1914 2.102-.2439.8841-.661.4762-3.5205 1.4828-3.1237.6632.2614-.6484 1.5313-.4392 2.2699.1506.5315.6001 1.0896 1.1044 1.1488.8734.1024 1.7835-.6859 2.2527-1.5011.6982-1.2133-.7748-3.6491.3981-4.2828.4187-.2262.7464.9667 1.1903.8087.6795-.2419.1005-2.1273.8134-2.1763.7157-.049.4465 1.6456 1.0583 2.056.565.3791 1.4773.5558 1.9849.089.58-.5333-.326-2.0128.3064-2.4687.5969-.4301 1.6495-.01 2.0627.6351.3161.4894-.5366 1.4293-.1041 1.7961.9434.7998 2.3762-1.9095 3.3955-1.2311.9916.6599-.5308 3.3379.5603 3.769 1.1572.4569 1.8922-1.7287 2.7778-2.6651.6412-.6778 1.9105-1.16 1.8318-2.1333-.079-.9808-1.7072-.9104-2.1619-1.7592-.4649-.868-.857-2.151-.3571-2.9953.5065-.8554 2.0474-1.6227 2.6738-.8688.5566.6698-1.4325 1.8169-.9183 2.5265.6729.9288 2.5815-1.5097 3.2054-.5407.3899.6055-1.2115 1.2722-.9584 1.9596.388 1.0532 1.9956 1.4588 2.9572 1.0387.8968-.3917.5073-2.3743 1.3976-2.7838.6586-.3029 1.5614 1.1937 2.0626.6353.9046-1.0076-1.7565-2.8526-1.0985-4.069.3406-.6298 1.7934.2497 1.957-.4603.2754-1.1955-2.4824-1.1716-2.5632-2.4014-.045-.6831 1.078-.8813 1.2345-1.5444.1642-.6953.099-1.6615-.4153-2.1063-.5899-.5104-1.5791.4205-2.2528.056-.6522-.353-2.5879-2.298-1.2885-1.9327 1.5614.4391 2.9941.4743 3.9337-.9311.7936-1.187.958 1.6941 1.6113 1.441.6644-.2573-.1883-1.9161.4383-2.2697.929-.5243 3.7615 2.8335 2.8712 1.3785-.4116-2.1695-1.1717-3.1376.294-3.9324.5842-1.2481-2.2946-2.1903-2.0389-3.5652.1051-.565 1.2935-.4107 1.2943-.9875.0008-.5961 0 0-1.3344-1.0256-1.435-1.1027-6.0939.3499-4.8356-.8898.6545-.645 1.9553-1.9257 1.9635-1.9347.01-.01-.024 0-.032-.013" fill="#008f4c" fill-rule="evenodd"/><path d="m188.7118 389.3558c-.671-6.8129-3.884-6.1432-4.7539-6.1747-.9732-.035-1.518-.077-1.235 1.4975.6514 3.6211-4.6504-2.7328-5.7145.092-.7023 1.8642 2.5827 3.346-1.2485 3.35-3.4468 0 3.2719 1.3589-.2635 1.9844-3.9108.6919 2.9832 3.0583-1.5454 4.021-1.5574.3311 3.8588 2.3911 1.1091 4.0667-2.2938 1.3979.014 2.9989-.3742 4.9947-.4222 2.175-2.9837 3.0033.3841 3.6829 4.2921.866-5.1678 2.0729-.7007 3.7176 2.6398.9718-.4403 5.5176 3.455 3.5435 4.4848-2.2727-.1853 4.5024 3.3506 2.7383 1.5226-.7597 2.9016-1.426 1.7423.5885-.6101 1.0602 4.2598.9287.9868 2.0248-2.9291.9809 2.7218 3.4092 2.6562 3.4633-2.2839 1.8829-.494 4.2058 2.8055 3.1862 1.9733-.6097-4.6436 3.0838-.6287 3.444 2.0172.1809 2.1472-1.2448 1.5507 1.4461-.5517 2.489 5.4393-.4475 5.0246-.2119-3.3791 1.9206.018 3.8952 2.3684 2.0687 1.339-1.0405 1.3883-2.1339 3.5251-1.4568 2.1583.6838 1.3107-1.0006 1.5534.9861.4164 3.4062 6.5552-2.1522 4.887 1.313-1.7879 3.7136 5.0009.9823 1.2971 3.9303-2.9456 2.3445 3.6242.6853 5.2468.5312 2.6007-.2469-.1267-2.9127 2.0778-4.6998 1.5873-1.2867 5.1257-.08 1.4455 1.1272-1.5388.5049 4.4309.8116.8635 2.5359-1.2886.6229 1.5033 3.7264 3.2634 1.817 1.5789-1.7127 2.3824 2.6004 3.3272-.2973.5118-1.5695.962-1.426 3.2643-1.9463 1.4393-.3252-.8352-2.8216 1.8728-3.6523 3.4468-1.0576-3.0591-4.1867-.1853-4.98 1.4313-.3951 3.8404.7623 4.0081 1.5169.5588 2.5139 1.2989-.2385 2.4359.4557 1.1555.7054 1.4721 3.0425 1.9159.5524.2791-1.566-1.616-4.0158 1.029-2.0292 3.2252 2.4223 1.183-2.1417 4.3122-3.4756 2.1516-.9172-3.7353-3.603-2.9638-4.7319.2569-.3759 1.4139-2.207 2.4739-3.6917" fill="#008f4c" fill-rule="evenodd"/><path d="m264.6108 402.4823c-1.281-1.0253 3.4568-1.2819.995-3.117-3.0881-2.3017 5.826-.942 4.4205-3.3832-1.0605-1.8422-1.8658-3.3272.8986-5.2464 2.8627-1.9875-2.0332-1.3554.5494-3.967 2.4206-2.4476-4.4885-.5862-1.584-3.7504.9824-1.0703-4.812.1029-3.5304-2.6193 1.4625-3.1062-4.0537-2.6726-3.0889-5.5174 1.1902-3.5094-6.1095 1.2739-3.6457-2.0414 1.7386-2.3394 1.0001-1.6278-1.0939-2.2212-1.6364-.4637-2.3975-3.4444-3.679-.6469-1.6324 3.5639-2.8617-1.8386-3.9411-1.0225-1.1335.8572-1.6887 4.0402-2.3141 1.3153-.2713-1.1819-3.9672 1.7572-2.0053-1.127 1.4844-2.1823-2.7056-.886-2.6848-1.0282.4863-3.3312-2.0644-3.2016-3.5567-.5003-.5224.9455 1.1793-3.2303-.4194-3.7206-2.3947 1.0468-1.9458 1.0964-3.5922 0-1.5944.3693-1.6529 4.1258-4.6445 0-1.5476.5815-2.7126 2.0108-2.0825 4.1644.2879.9843-1.4409 1.0344-3.1926 1.4656-1.7209.4235-1.9217 2.2041-3.1093.4139-1.2093-1.823-1.6661 1.0322-2.7221 2.0505-1.4999 1.4463-1.2414-2.0932-2.1988-2.1043-1.9964-.023-5.6113 2.1007-5.22-.6829.4774-3.3949-3.0724 1.4228-4.2966 2.2894-2.4729 1.7507 1.71 2.2881 1.2572 4.9001-.304 1.7542-4.1081 2.9623-2.0349.2482 1.3708-1.7944-4.0489 1.6997-2.2559-1.6739.8096-1.5235-3.7883-1.6987-3.8754.6482-.067 1.8051-3.4209-.935-2.3646 1.649.6137 1.5015.3084 1.5969-1.2924 3.3206-1.0651 1.1468 2.7678 1.7462 1.0045 3.8195-1.2752 1.4993.7526 1.7928 2.6182 2.0766 1.1426.1739 1.6097 1.421-.6119 1.5887-1.8319.1383-4.0374-.6815-4.1622.2404-.3807 2.8142-2.3995.2379-3.3835 1.2178-1.3291 1.3236 5.1775 3.2614.8711 3.3833-3.6514.1034 1.1555 2.1054-.812 4.7781-1.4725 2.0002 5.8135.9021 5.3907 2.3713-.1747.6069-1.076.7772-1.463 1.2869" fill="#008f4c" fill-rule="evenodd"/><path d="m266.6348 419.1348c-1.0992-1.0254 2.1843-.7001.8536-3.117-2.3234-4.2205 4.6112-2.7482 3.3808-5.2386-.853-1.7265-3.329-2.0994-.9685-4.0095 2.4677-1.9968-2.3622-.9458-.1487-3.5546 2.0792-2.4504-3.7976-.6485-1.36-3.7504.8748-1.1134-4.1263.097-3.0286-2.6195 1.2571-3.1112-3.4791-2.6716-2.6508-5.5173 1.0212-3.5085-5.2503 1.2876-3.1276-2.0414 1.4825-2.325-.3077-1.6327-2.0895-2.2212-1.4398-.4756-2.0591-3.4382-3.1564-.6468-1.4033 3.5695-2.4761-1.8211-3.3821-1.0225-.9944.8765-1.446 4.0499-1.9852 1.3151-.2277-1.155-3.3711 1.7003-1.7216-1.1268 1.2983-2.2252-3.9136-.886-3.8957-1.0282.4184-3.331-2.918-3.2094-4.2016-.5004-.4514.9528.7622-5.3088-1.53-3.0298-1.6635 1.6538-.7793.4526-1.7379-.4907-1.7327-1.7051-3.152 5.6046-2.7272 1.8771.3877-3.4027-3.7515-.049-3.2202 2.0872.2464.9909.1495 1.1205-1.4131 1.5686-1.6013.4592-.4782 2.2385-1.5166.4139-1.0108-1.7762-1.3908.9882-2.336 2.0505-1.2283 1.3804-.9841-2.0919-1.8871-2.1042-1.7512-.023-3.399 1.9909-3.0637-.786.4103-3.3987-2.6362 1.4225-3.6871 2.2895-2.1216 1.7502 1.4611 2.3278 1.0785 4.9-.2596 1.7451-3.4933 2.9155-1.745.2483 1.2013-1.8325-3.4513 1.6393-1.9366-1.674.7085-1.5499-3.251-1.6971-3.3255.6482-.057 1.799-2.9302-.9225-2.0292 1.6491.5295 1.5114.1935 1.6873-1.1082 3.3206-.9214 1.156 2.3375 1.7978.8617 3.8193-1.125 1.541.6436 1.7924 2.247 2.0767 1.0253.1818 1.4137 1.4181-.5253 1.5887-1.639.1441-3.4691-.6482-3.572.2404-.3257 2.8148-2.1017.2885-2.9026 1.2179-1.1863 1.3767 4.4431 3.2613.7475 3.3832-3.1381.1035.9085 2.236-.6972 4.7781-1.2969 2.0534 4.9909.8937 4.6262 2.3712-.1441.5836-.9238.7773-1.2557 1.287" fill="#008f4c" fill-rule="evenodd"/></g><path d="m1.5 510 298.5 298.5 298.5-298.5-298.5-298.5z" fill="none" stroke="#070000" stroke-linecap="round" stroke-linejoin="round" stroke-width="3"/></svg>