<?xml version="1.0" encoding="utf-8"?><!DOCTYPE svg PUBLIC "-//W3C//DTD SVG 1.1//EN" "http://www.w3.org/Graphics/SVG/1.1/DTD/svg11.dtd"><svg viewBox="0 0 500 600" xmlns="http://www.w3.org/2000/svg"><path d="m.5.5v349.5c0 137.801 111.699 249.5 249.5 249.5s249.5-111.699 249.5-249.5v-349.5z" fill="#e5e5e5" stroke="#000" stroke-linecap="round" stroke-linejoin="round"/><g stroke="#000" stroke-linecap="round" stroke-linejoin="round"><path d="m107.4277 438.4785c-12.7166-.0007-25.1376 3.9274-35.6426 11.2715s-22.9259 11.2709-35.6426 11.2715c-3.3765.0002-6.7307-.2839-10.0352-.8281 6.866 13.9246 14.9804 27.1225 24.2188 39.4316 7.6347-1.8006 14.9186-5.0468 21.459-9.6191 10.505-7.344 22.926-11.2741 35.6426-11.2734s25.1396 3.9294 35.6445 11.2734 22.9259 11.2721 35.6426 11.2715 25.1376-3.9274 35.6426-11.2715 22.926-11.2741 35.6426-11.2734 25.1376 3.9294 35.6426 11.2734 22.926 11.2721 35.6426 11.2715 25.1376-3.9274 35.6426-11.2715 22.9279-11.2741 35.6445-11.2734 25.1376 3.9294 35.6426 11.2734c6.5398 4.572 13.823 7.8184 21.457 9.6191 9.2392-12.3101 17.3562-25.5077 24.2227-39.4336-3.3052.5445-6.6599.8299-10.0371.8301-12.7166.0007-25.1376-3.9274-35.6426-11.2715s-22.9259-11.2708-35.6426-11.2715-25.1396 3.9274-35.6445 11.2715-22.9259 11.2708-35.6426 11.2715-25.1376-3.9274-35.6426-11.2715-22.926-11.2708-35.6426-11.2715-25.1376 3.9274-35.6426 11.2715-22.926 11.2708-35.6426 11.2715-25.1376-3.9274-35.6426-11.2715-22.9279-11.2708-35.6445-11.2715z" fill="#0071bc" fill-rule="evenodd"/><g fill="#eac102"><path d="m121.9149 340.7502c-4.3651-27.1778 14.0109-53.2716 46.3689-76.1499 11.9454-8.4459 25.9673-15.8909 40.8427-23.0516 1.0384 4.1478 3.9367 13.4119 7.4461 20.1185-3.3627-6.6674-3.104-18.5267-2.291-22.5584 92.7528-43.1688 222.1542-64.743 234.2467-47.5771 3.4986 4.9664-3.247 12.7866-7.4442 15.7541-15.3392 10.8454-50.7016 23.949-104.674 49.934-2.9959-3.1824-14.5925-18.4958-15.211-20.1627.6361 1.6141 11.253 19.0681 12.8279 21.3125-11.5157 5.5686-23.8584 11.7137-37.0138 18.5328-29.3679 15.2228-64.5694 36.1877-96.341 51.0249-1.2343-1.7059-7.8357-10.6271-8.9183-13.774 1.0402 3.0439 4.3903 13.2844 5.1978 15.4903-33.4872 15.2487-61.2716 25.0472-75.0367 11.1067z"/><path d="m50.4998 404.6251c149.099-164.8616 300.9841-190.3388 398.6289-211.9639-98.4378 21.8663-258.5629 75.9508-367.204 194.7745z"/></g><path d="m399.5 156.7798c-4.5427-14.3385-7.5126-37.5145-7.5126-55.5774s2.9699-41.2389 7.5126-55.5774c-33.2888 12.1326-76.6504 29.2908-149.5 29.2908s-116.2112-17.1582-149.5-29.2908c4.5427 14.3385 7.5126 37.5145 7.5126 55.5774s-2.9699 41.2389-7.5126 55.5774c28.9297-10.5439 65.4789-24.8771 122.3664-28.4514-.0003 185.4163-16.3235 243.0172-28.4594 276.2967 14.3425-4.5414 37.5249-7.5105 55.593-7.5105 18.068 0 41.2504 2.969 55.593 7.5105-12.136-33.2795-28.4591-90.8803-28.4594-276.2967 56.8875 3.5744 93.4368 17.9076 122.3664 28.4514z" fill="#ed1c24"/><path d="m50.4999 155.625 50.016 60.6933-.7185-21.0006 249.9013 146.3035 6.3614 24.3043 66.103 38.6997-9.7096-37.0961 37.0464-9.723-66.1031-38.6998-24.2717 6.3703-249.9013-146.3035 18.6288-9.6739z" fill-rule="evenodd"/><path d="m214.3574 530.2617c-10.505 7.3441-22.926 11.2708-35.6426 11.2715s-25.1376-3.9274-35.6426-11.2715-22.9279-11.2728-35.6445-11.2734c-11.3582-.0006-22.4751 3.1424-32.207 9.0449 19.0093 18.6639 40.9897 34.3069 65.1738 46.1524 13.2989 4.3373 29.8891 7.6039 38.3203 7.6035 12.7166-.0006 25.1376-3.9274 35.6426-11.2715s22.926-11.2734 35.6426-11.2734 25.1376 3.9294 35.6426 11.2734 22.926 11.2708 35.6426 11.2715c8.4312.0004 25.0214-3.2662 38.3203-7.6035 24.1842-11.8454 46.1646-27.4884 65.1738-46.1524-9.7319-5.9026-20.8489-9.0455-32.207-9.0449-12.7166.0007-25.1396 3.9294-35.6445 11.2734s-22.9259 11.2721-35.6426 11.2715-25.1376-3.9274-35.6426-11.2715-22.926-11.2734-35.6426-11.2734-25.1376 3.9294-35.6426 11.2734z" fill="#0071bc" fill-rule="evenodd"/></g><path d="m1.5 1.5v348.5c0 137.801 110.699 248.5 248.5 248.5s248.5-110.699 248.5-248.5v-348.5z" fill="none" stroke="#000" stroke-linecap="round" stroke-linejoin="round" stroke-width="3"/></svg>