<?xml version="1.0" encoding="UTF-8"?>
<!DOCTYPE svg PUBLIC "-//W3C//DTD SVG 1.1//EN" "http://www.w3.org/Graphics/SVG/1.1/DTD/svg11.dtd">
<!-- Creator: CorelDRAW -->
<svg xmlns="http://www.w3.org/2000/svg" xml:space="preserve" width="210mm" height="297mm" style="shape-rendering:geometricPrecision; text-rendering:geometricPrecision; image-rendering:optimizeQuality; fill-rule:evenodd; clip-rule:evenodd"
viewBox="0 0 210 297"
 xmlns:xlink="http://www.w3.org/1999/xlink">
 <defs>
  <style type="text/css">
   <![CDATA[
    .str1 {stroke:#1F1A17;stroke-width:0.0977}
    .str2 {stroke:#1F1A17;stroke-width:0.1775}
    .str25 {stroke:#1F1A17;stroke-width:0.1943}
    .str31 {stroke:#1F1A17;stroke-width:0.2171}
    .str3 {stroke:#1F1A17;stroke-width:0.2612}
    .str22 {stroke:#1F1A17;stroke-width:0.3048}
    .str21 {stroke:#1F1A17;stroke-width:0.3063}
    .str19 {stroke:#1F1A17;stroke-width:0.3063;stroke-linejoin:bevel}
    .str0 {stroke:#1F1A17;stroke-width:0.3063;stroke-linecap:round;stroke-linejoin:round}
    .str40 {stroke:#1F1A17;stroke-width:0.313;stroke-linecap:round;stroke-linejoin:round}
    .str23 {stroke:#1F1A17;stroke-width:0.3312}
    .str24 {stroke:#1F1A17;stroke-width:0.3356}
    .str20 {stroke:#1F1A17;stroke-width:0.3404}
    .str26 {stroke:#1F1A17;stroke-width:0.3404;stroke-linejoin:bevel}
    .str32 {stroke:#1F1A17;stroke-width:0.3404;stroke-linecap:round;stroke-linejoin:round}
    .str39 {stroke:#1F1A17;stroke-width:0.3474;stroke-linecap:round;stroke-linejoin:round}
    .str37 {stroke:#1F1A17;stroke-width:0.3488;stroke-linecap:round;stroke-linejoin:round}
    .str4 {stroke:#1F1A17;stroke-width:0.35}
    .str33 {stroke:#1F1A17;stroke-width:0.3538}
    .str34 {stroke:#1F1A17;stroke-width:0.3538;stroke-linejoin:bevel}
    .str38 {stroke:#1F1A17;stroke-width:0.3691}
    .str29 {stroke:#1F1A17;stroke-width:0.3698}
    .str30 {stroke:#1F1A17;stroke-width:0.3749}
    .str35 {stroke:#1F1A17;stroke-width:0.3768}
    .str36 {stroke:#1F1A17;stroke-width:0.3768;stroke-linecap:round;stroke-linejoin:round}
    .str27 {stroke:#1F1A17;stroke-width:0.3802}
    .str28 {stroke:#1F1A17;stroke-width:0.3802;stroke-linecap:round;stroke-linejoin:round}
    .str42 {stroke:#1F1A17;stroke-width:0.3859}
    .str41 {stroke:#1F1A17;stroke-width:0.3859;stroke-linecap:round;stroke-linejoin:round}
    .str5 {stroke:#1F1A17;stroke-width:0.4387}
    .str6 {stroke:#1F1A17;stroke-width:0.5276}
    .str7 {stroke:#1F1A17;stroke-width:0.6162}
    .str8 {stroke:#1F1A17;stroke-width:0.7001}
    .str9 {stroke:#1F1A17;stroke-width:0.7888}
    .str10 {stroke:#1F1A17;stroke-width:0.8776}
    .str11 {stroke:#1F1A17;stroke-width:0.9663}
    .str12 {stroke:#1F1A17;stroke-width:1.0552}
    .str13 {stroke:#1F1A17;stroke-width:1.139}
    .str14 {stroke:#1F1A17;stroke-width:1.2031}
    .str15 {stroke:#1F1A17;stroke-width:1.2919}
    .str16 {stroke:#1F1A17;stroke-width:1.3756}
    .str17 {stroke:#1F1A17;stroke-width:1.4595}
    .str18 {stroke:#1F1A17;stroke-width:1.7209}
    .fil6 {fill:none}
    .fil7 {fill:#1F1A17}
    .fil4 {fill:#DA251D}
    .fil3 {fill:#FFE900}
    .fil2 {fill:white}
    .fil5 {fill:#FEE800}
    .fil0 {fill:#1F1A17;fill-rule:nonzero}
    .fil1 {fill:#006F3F;fill-rule:nonzero}
   ]]>
  </style>
 </defs>
 <g id="Layer_x0020_1">
  <metadata id="CorelCorpID_0Corel-Layer"/>
  <g id="_180542488">
   <g>
    <polygon id="_179684304" class="fil0" points="103.93,98.5961 195.774,190.523 103.93,282.373 12.0867,190.446 "/>
   </g>
   <polygon id="_179684400" class="fil1" points="104.069,190.242 15.1779,190.273 104.04,101.388 "/>
   <polygon id="_179684496" class="fil1" points="104.07,190.25 192.962,190.219 104.102,279.112 "/>
   <path id="_120840496" class="fil2" d="M112.454 193.769c-0.6607,-0.6059 -0.6607,-1.5417 -0.6607,-1.5417 -0.4955,0.6057 -0.3525,0.5506 -0.3525,0.5506 0,0 0.3303,1.1562 1.0132,0.9911zm6.5441 -0.7551l0 0c-0.1093,0.3845 -0.4396,0.0393 -0.6049,0.4797 -0.3855,0.055 -0.3304,0.3303 0.2753,0.4405 0.591,-0.1651 2.518,0.2753 3.6743,0.3854 -0.1762,0.3524 -1.3766,0.2753 -1.3214,0.8258 0.1651,0.7159 1.101,0.1653 1.817,1.2114 0.5506,0.4956 1.1999,0.0975 1.9272,0.1651 -0.2755,0.6056 -1.1352,0.5958 -1.1352,0.5958 0.3525,1.0571 2.1042,1.5075 3.3375,1.3312 -0.1761,0.7048 -1.5086,0.7379 -2.0372,0.3855 0.6057,2.3676 3.8542,2.0371 3.8542,2.808 -5.8365,0.1652 -5.1545,-5.2295 -8.8547,-5.5819 -0.1752,0.2413 1.3115,0.5714 1.4215,1.067 -0.1652,0.2203 -0.5507,0.2203 -0.5507,0.2203 0.881,0.7158 2.2026,1.7069 2.9735,4.1295 0.6598,3.9945 4.3567,6.2626 8.4117,8.0121 2.7654,1.513 5.5737,1.1827 6.9492,2.7805 0.7167,0.7146 1.2123,1.4854 1.2123,2.3113 0.4082,-0.9812 1.6517,1.0314 3.3688,1.6162 2.1145,0.1761 4.8902,-0.625 5.6384,2.0629 0.1686,0.5901 0.2224,1.1943 0.0227,1.6616 -0.6056,0.3855 -0.936,0.826 -1.0799,1.3335 -0.6821,-0.2323 0.4743,-1.3261 0.309,-2.5375 -0.4954,-1.6517 -2.2023,-1.2589 -2.952,-1.2137 0.0687,0.24 -0.1397,0.2308 0.0339,0.3256 0.7181,0.3918 2.2573,-0.6058 2.4329,1.4876 -0.2855,1.1001 -0.6161,1.1001 -0.671,2.0912 0.1651,0.7708 0.1102,1.7067 1.3215,2.4226 0,0 1.2113,0.055 2.0372,-0.3304 -0.5506,1.5417 -1.7394,0.4548 -1.9124,1.1012 -0.1248,0.3854 1.1416,0.3854 0.8105,0.882 -1.7614,0.1091 -2.3668,-0.882 -2.6973,-1.8731 0,-0.5285 0.1102,-0.6056 0.0543,-1.1222 -0.4396,-0.089 -0.0543,1.5075 -0.7627,1.6252 0.2129,-0.9435 -0.8331,-0.503 -0.3377,-1.8795 0.6057,-0.9909 1.2113,-1.9822 0.5506,-2.3125 -0.8259,-0.5506 -1.8801,0.1161 -2.5328,0.1652 -0.5202,0.0392 -1.0462,-0.2202 -1.4867,-1.0461 -0.8811,-1.4096 -0.3642,-3.5998 -2.1261,-3.952 2.1261,2.9059 -0.2965,3.897 0.1989,4.6678 -0.0549,0.9911 1.5028,2.5375 2.7531,3.4136 0.8809,0.3304 1.1155,0.5436 1.1522,0.8012 0.3344,0.7553 -0.5465,0.6304 0.3896,2.998 0.2753,1.5967 1.5967,3.1932 1.0821,4.5047 -0.9794,-0.3203 -0.5865,0.9461 -1.0122,1.7267 -0.393,-0.0024 -0.2902,0.2105 -0.2902,1.0363 -0.7158,0 -0.936,0.1101 -1.7621,0.1653 -0.165,-0.7709 0.3305,-0.8811 0.4406,-1.707 0.6608,-0.5505 1.0128,-1.8812 1.1011,-2.5876 -0.2202,-5.0106 -4.2946,-6.8824 -5.7812,-6.6623 -2.1473,-0.1101 -4.7351,-1.7618 -4.4599,-5.1754 -1.3766,-0.1652 -2.4154,1.2663 -2.4154,2.0371 -0.1101,1.3765 1.6995,1.927 1.5556,3.2386 0.0888,1.3313 -3.8204,0.5605 -5.6374,1.8819 -0.9911,0.11 -1.927,-0.2753 -2.2023,1.2664 -0.8209,0.3063 -0.1971,1.0408 -0.97,1.0801 -1.1224,-0.4195 -0.5167,1.1772 -1.673,0.957 -0.6263,0.2641 -0.3855,-0.2752 -1.5493,-0.1101 -0.0693,-0.2434 0.4183,-0.5528 0.7001,-0.8724 0.1645,-0.1866 0.0941,-0.3766 0.2362,-0.5591 0.2042,-0.1253 1.1636,0.2753 1.2186,-0.4405 -0.4404,0.3302 -1.2186,0.4405 -0.8708,-0.032 0.2693,-0.4577 0.7057,-0.849 1.0911,-0.7939 0.6607,-1.3214 2.1474,-1.2112 3.9642,-1.5491 1.0463,-0.4403 2.686,-0.7849 2.533,-1.7544 -0.0552,-1.4866 -3.689,-0.0551 -3.7442,-3.3586 -0.1763,-1.4094 1.3216,-2.6979 2.6429,-2.3674 0,0 -0.1211,0.0219 0.055,-0.3305 -3.2705,-0.6056 -4.4134,-0.181 -7.9837,-1.2663 -1.3215,-0.2202 -1.9821,-1.927 -4.2398,-1.7619 -2.0922,-0.2753 -1.2664,-1.0461 -3.1384,-0.8811 -1.4866,0.0552 -2.8632,1.4867 -3.5789,2.5328 -0.104,1.0048 -0.8806,1.7892 -1.2114,2.4226 -0.1948,0.3733 0.1102,0.5506 0,1.0462 -0.5505,0.3853 -0.8258,0.3853 -1.3764,0.4405 -0.4405,0 -0.4957,-0.2203 -0.4405,-0.4956 -0.0552,-1.2664 0.8258,-2.1473 0.9911,-2.8079 0.0922,-0.2127 -0.1418,-0.0387 -0.033,-0.2203 0.7157,-1.1013 2.2601,-2.4925 3.2816,-3.1934 0.6606,-0.3856 2.9731,-0.9361 5.2307,-0.7708 0.2027,-0.0678 -0.0555,-0.3077 0.1424,-0.3955 -1.0784,-0.5406 -1.4639,-4.0644 -4.2168,-5.1105 -0.8262,-0.3303 -2.5329,1.1012 -3.4138,1.8168 -0.4406,0.5508 0.055,1.1013 -0.1506,1.5969 0.0404,0.4405 -1.1158,-0.0552 -0.8956,1.2112 -0.307,0.1675 -0.7874,0 -1.2664,0 -0.5505,-1.1562 0.4823,-1.5687 0.6608,-2.0371 0.0951,-0.2497 -0.0331,-0.5441 0.1101,-0.771 0.3303,-0.4954 3.5789,-2.8152 4.8453,-2.8704 1.762,0.1763 2.565,1.9355 4.5032,1.9355 1.2333,-1.4095 2.0489,-3.4696 1.2333,-5.2857 -1.7172,-2.0381 0.9258,-3.8551 -1.4969,-6.0024l-0.6055 0.2203c2.5878,2.4226 -0.1102,4.1844 0.2201,6.3867 0,0.771 -0.3391,0.4854 -0.3855,0.8812 -0.1761,-0.3525 0.1535,-1.3095 -0.1989,-1.6619 -0.1314,0.7807 -0.0764,1.1662 -0.0212,1.882 -1.9272,0.6606 -0.9912,-1.817 -2.0932,-3.1153 -1.8714,-1.1793 -1.7619,-3.1713 -1.938,-3.5237 0.4523,-1.3996 1.4434,1.4085 2.104,-0.2984 0,0 -1.7619,-0.8811 -1.2112,-2.1473 0.3854,0.3855 0.6607,0.2202 0.6607,0.2202 0.055,-0.3855 -0.7488,-0.7707 -0.3854,-1.1562 1.3765,1.7618 2.6427,-0.6608 5.7034,1.9721 0.5184,0.1201 2.2253,0.1201 2.2253,0.1201l-0.2202 -0.2752c-1.5419,0.1101 -3.3087,-1.5873 -5.0106,-1.7619 -0.1343,-0.1881 1.1722,-0.1226 2.0372,-0.2755 0.9075,-0.1601 1.5024,-0.4035 1.4456,-0.1492zm-7.9426 1.6212l0 0c0,0 -0.4406,0.2753 -0.5508,0.8809 -0.3303,-0.2753 -1.2664,-1.4866 -0.9698,-1.6947 0.4191,0.0026 0.8598,0.6486 1.5206,0.8138zm-0.4809 3.043l0 0c0.4686,-0.3982 0.7351,-1.0041 0.9188,-1.6203 -0.2729,-0.4169 -0.0526,-0.8573 0.205,-0.8062 0.1135,-0.4989 0.2052,-0.9418 0.348,-1.2074 -1.3214,0.7158 -1.1013,2.753 -1.4718,3.6339zm4.995 0.9589l0 0c-0.1095,0.6378 -0.5499,0.6929 -1.0572,0.5287 -0.3185,-1.0472 0.1761,-1.4096 0.5285,-1.9379 0.4192,-0.0451 -0.1761,1.057 0.5287,1.4092zm5.5619 5.7031l0 0 -0.4956 -0.5505c0.2761,-4.1746 -0.9361,-4.4597 -1.927,-6.0014l0.2751 -0.3303c1.1013,1.3764 2.4228,2.3675 2.1475,6.8822zm9.3051 -0.055l0 0c-1.4865,-0.8809 -0.7707,0.3855 -3.6338,-0.8809 -0.1652,0.5506 1.1012,1.0463 1.7611,1.4655 0.043,0.1798 0.0557,0.6266 0.8281,0.4572 0.6882,0.2216 1.6028,0.4548 1.9257,0.8852 -3.3587,0.4406 -3.1936,-1.7067 -4.3498,-1.5965 -0.4954,0.11 -0.4404,0.6056 -0.4404,0.6056 -0.7049,-0.3524 -2.1923,-2.642 -2.1923,-4.0514 1.1296,0.5134 2.7429,1.2433 3.1833,1.7389 0.8259,0.5507 2.4778,0.1652 2.9181,1.3764zm-13.3364 3.1724l0 0c-0.1533,0.8469 0.177,1.838 0.2872,2.7189 0.6607,-0.1102 0.5939,-1.838 1.2986,-0.4284 -0.1762,0.1763 -0.5829,0.5937 -0.5829,1.0892 0,0 0.7158,-0.2753 0.8259,-0.5507 0.3305,0.1102 0.6573,-0.0821 0.9361,-0.2753 0.1652,0.3305 0.3371,0.3424 0.055,0.5507 -0.532,0.3928 -1.7205,0.8832 -2.2574,0.7707 -0.4405,-0.5506 -0.8484,-0.6854 -1.091,-1.5846l-0.1763 -2.2905 0.7048 0zm4.8021 6.573l0 0 -0.9148 0.3534c0.7497,1.1884 1.6306,-0.9038 1.7959,0.5827 -2.2024,0.4405 -2.5328,-1.3215 -4.1296,-1.5417 0.1116,0.1117 1.1562,-0.2203 1.4867,-0.4954 0.7707,-0.3303 -0.1654,0.7156 0.847,0.9259 0.6395,-0.4854 0.7047,-1.5856 0.7047,-1.5856 1.4215,0.5496 0.0999,0.99 0.2101,1.7607zm12.3337 3.9643l0 0c-0.6058,-0.1651 -1.3113,0.1443 -1.817,0.4405 -1.542,0.2203 -3.0835,0.5506 -3.1504,-0.1751 0.5286,-1.0573 1.8288,-0.1552 2.6429,-0.3525 -0.1212,-0.7184 -1.4195,-1.1867 -2.466,-1.0765l0 -0.2055c0.826,0.0551 1.4416,-0.0831 2.1475,0.1027 0.2751,0.4405 1.0627,0.792 1.4866,1.0463 0.9361,-0.3304 -0.881,-0.8809 -0.2872,-1.2764 0.3973,-0.3204 0.893,0.4505 1.4436,1.4965zm-25.4829 -0.5606l0 0c-0.1763,0.1763 -0.5286,0.7049 -0.8811,0.5285 0.1761,-0.3522 0.5287,-0.7046 0.8811,-0.5285zm35.1397 8.4021l0 0c-0.8472,-1.6749 -2.499,-2.5558 -2.3339,-2.8863 0.2203,-0.1099 0.7158,0.3305 0.7158,0.3305 0.4406,0.11 1.6181,1.851 1.6181,1.851l0 0.7048zm-31.6812 -30.3679l0 0 -0.3853 0.5504 0.7158 0.0552 -0.3305 -0.6056zm3.0358 7.1025l0 0 -0.3855 0.5506 0.4956 -0.0476 -0.1101 -0.503zm9.4831 23.9558l0 0c-0.026,0.2479 -0.0295,0.8804 -0.4144,0.9654 -0.0846,-0.3849 0.0298,-0.8805 0.4144,-0.9654zm19.8716 6.3341l0 0c-0.026,0.2478 -0.1896,0.6579 -0.5742,0.7427 -0.0387,-0.1748 -0.0414,-0.351 0.0088,-0.5226 0.0605,-0.2062 0.3554,-0.1739 0.5654,-0.2201z"/>
   <path id="_120840376" class="fil2" d="M64.6668 147.579c-0.6608,-0.6058 -0.6608,-1.5415 -0.6608,-1.5415 -0.4954,0.6056 -0.3524,0.5505 -0.3524,0.5505 0,0 0.3303,1.1559 1.0132,0.991zm6.5441 -0.755l0 0c-0.1093,0.3843 -0.4397,0.0392 -0.6049,0.4797 -0.3855,0.0549 -0.3305,0.3302 0.2753,0.4402 0.5909,-0.1649 2.5178,0.2755 3.6743,0.3855 -0.1763,0.3524 -1.3766,0.2753 -1.3214,0.8259 0.1649,0.7158 1.101,0.1652 1.817,1.2114 0.5506,0.4954 1.1999,0.0975 1.927,0.165 -0.2753,0.6057 -1.135,0.5958 -1.135,0.5958 0.3525,1.0572 2.104,1.5077 3.3375,1.3313 -0.1761,0.7049 -1.5086,0.7379 -2.0373,0.3855 0.6057,2.3674 3.8543,2.0371 3.8543,2.8079 -5.8365,0.1653 -5.1545,-5.2295 -8.8547,-5.5818 -0.1754,0.2412 1.3115,0.5714 1.4215,1.067 -0.1654,0.2202 -0.5507,0.2202 -0.5507,0.2202 0.8809,0.7158 2.2026,1.7069 2.9733,4.1295 0.66,3.9945 4.3569,6.2626 8.4119,8.0122 2.7654,1.513 5.5735,1.1826 6.9492,2.7804 0.7167,0.7146 1.2121,1.4855 1.2121,2.3113 0.4084,-0.9811 1.6519,1.0315 3.369,1.6163 2.1143,0.1761 4.8902,-0.625 5.6384,2.0627 0.1685,0.5902 0.2224,1.1943 0.0227,1.6619 -0.6057,0.3854 -0.936,0.8257 -1.08,1.3334 -0.682,-0.2324 0.4743,-1.3261 0.3091,-2.5373 -0.4955,-1.6519 -2.2023,-1.2592 -2.952,-1.214 0.0686,0.2401 -0.1397,0.2309 0.0339,0.3256 0.718,0.3919 2.2573,-0.6057 2.4328,1.4876 -0.2855,1.1001 -0.6159,1.1001 -0.6709,2.0912 0.1651,0.7709 0.1102,1.7068 1.3214,2.4228 0,0 1.2114,0.0548 2.0373,-0.3307 -0.5507,1.5419 -1.7394,0.4549 -1.9124,1.1014 -0.1249,0.3853 1.1415,0.3853 0.8103,0.8819 -1.7612,0.1092 -2.3668,-0.8819 -2.6971,-1.873 0,-0.5286 0.1102,-0.6057 0.0543,-1.1222 -0.4398,-0.0891 -0.0543,1.5075 -0.7627,1.6251 0.2128,-0.9435 -0.8331,-0.5029 -0.3377,-1.8794 0.6057,-0.9911 1.2113,-1.9822 0.5505,-2.3124 -0.8258,-0.5507 -1.88,0.116 -2.5328,0.165 -0.5202,0.0391 -1.0461,-0.22 -1.4866,-1.046 -0.8811,-1.4096 -0.3642,-3.5998 -2.1262,-3.9522 2.1262,2.906 -0.2964,3.8971 0.199,4.668 -0.055,0.9909 1.5027,2.5375 2.7531,3.4135 0.8809,0.3303 1.1155,0.5435 1.1521,0.8013 0.3345,0.7551 -0.5464,0.6304 0.3895,2.9978 0.2753,1.5968 1.5969,3.1934 1.0822,4.505 -0.9794,-0.3205 -0.5865,0.9459 -1.0123,1.7266 -0.3928,-0.0026 -0.2901,0.2104 -0.2901,1.0363 -0.7157,0 -0.9359,0.11 -1.762,0.1651 -0.1651,-0.7709 0.3303,-0.8808 0.4406,-1.7068 0.6607,-0.5507 1.0128,-1.8812 1.1011,-2.5877 -0.2202,-5.0105 -4.2946,-6.8824 -5.7812,-6.6623 -2.1473,-0.11 -4.7352,-1.7618 -4.4599,-5.1755 -1.3766,-0.1651 -2.4155,1.2664 -2.4155,2.0373 -0.1102,1.3764 1.6996,1.927 1.5556,3.2386 0.0889,1.3313 -3.8203,0.5604 -5.6373,1.8818 -0.9911,0.1101 -1.9272,-0.2753 -2.2025,1.2664 -0.8207,0.3062 -0.197,1.0409 -0.9698,1.0802 -1.1224,-0.4194 -0.5167,1.1772 -1.673,0.9569 -0.6264,0.2641 -0.3855,-0.2751 -1.5493,-0.11 -0.0694,-0.2434 0.4183,-0.5529 0.7001,-0.8725 0.1643,-0.1865 0.094,-0.3765 0.2362,-0.559 0.204,-0.1253 1.1636,0.2753 1.2186,-0.4405 -0.4404,0.3303 -1.2186,0.4405 -0.8708,-0.0321 0.2691,-0.4576 0.7057,-0.849 1.091,-0.7938 0.6608,-1.3214 2.1473,-1.2114 3.9643,-1.5491 1.0463,-0.4404 2.686,-0.7851 2.533,-1.7544 -0.0552,-1.4867 -3.6892,-0.0552 -3.7442,-3.3587 -0.1763,-1.4095 1.3214,-2.6979 2.643,-2.3674 0,0 -0.1212,0.0219 0.0549,-0.3305 -3.2706,-0.6056 -4.4134,-0.1809 -7.9838,-1.2662 -1.3214,-0.2204 -1.9822,-1.9272 -4.2397,-1.7619 -2.0922,-0.2753 -1.2664,-1.0462 -3.1384,-0.8811 -1.4866,0.0552 -2.8632,1.4867 -3.5789,2.5328 -0.104,1.0047 -0.8806,1.7892 -1.2115,2.4226 -0.1949,0.3732 0.1102,0.5506 0,1.046 -0.5506,0.3855 -0.8259,0.3855 -1.3763,0.4405 -0.4406,0 -0.4957,-0.2203 -0.4406,-0.4956 -0.0551,-1.2662 0.8259,-2.1471 0.991,-2.8077 0.0924,-0.2126 -0.1417,-0.0387 -0.033,-0.2203 0.7159,-1.1013 2.2603,-2.4926 3.2818,-3.1934 0.6606,-0.3855 2.9731,-0.9361 5.2306,-0.771 0.2028,-0.0676 -0.0554,-0.3075 0.1424,-0.3952 -1.0784,-0.5408 -1.4638,-4.0645 -4.2168,-5.1107 -0.8259,-0.3304 -2.5328,1.1012 -3.4139,1.8169 -0.4404,0.5506 0.055,1.1013 -0.1504,1.5968 0.0403,0.4404 -1.1158,-0.0551 -0.8957,1.2113 -0.3069,0.1675 -0.7874,0 -1.2663,0 -0.5507,-1.1562 0.4823,-1.5688 0.6607,-2.0373 0.0952,-0.2497 -0.033,-0.5439 0.1102,-0.7708 0.3303,-0.4954 3.5789,-2.8152 4.8453,-2.8704 1.7619,0.1763 2.565,1.9355 4.5031,1.9355 1.2334,-1.4096 2.049,-3.4696 1.2334,-5.2855 -1.7172,-2.0383 0.9258,-3.8553 -1.4969,-6.0026l-0.6056 0.2202c2.5878,2.4226 -0.1101,4.1844 0.2202,6.3868 0,0.7709 -0.3391,0.4854 -0.3855,0.881 -0.1763,-0.3524 0.1535,-1.3093 -0.1989,-1.6617 -0.1314,0.7807 -0.0764,1.1662 -0.0213,1.882 -1.9271,0.6608 -0.9912,-1.817 -2.0931,-3.1153 -1.8712,-1.1793 -1.7619,-3.1714 -1.938,-3.5239 0.4521,-1.3994 1.4432,1.4086 2.104,-0.2983 0,0 -1.7619,-0.881 -1.2113,-2.1473 0.3854,0.3855 0.6607,0.2203 0.6607,0.2203 0.0549,-0.3855 -0.7487,-0.7707 -0.3855,-1.1561 1.3766,1.7617 2.6429,-0.6606 5.7036,1.972 0.5184,0.12 2.2251,0.12 2.2251,0.12l-0.2202 -0.2751c-1.5417,0.11 -3.3085,-1.5875 -5.0104,-1.7618 -0.1343,-0.1881 1.1722,-0.1228 2.0372,-0.2755 0.9074,-0.1601 1.5024,-0.4035 1.4456,-0.1492zm-7.9428 1.6209l0 0c0,0 -0.4405,0.2755 -0.5506,0.8811 -0.3303,-0.2753 -1.2664,-1.4865 -0.9699,-1.6949 0.4192,0.0028 0.8597,0.6487 1.5205,0.8138zm-0.4809 3.0432l0 0c0.4688,-0.3982 0.7353,-1.0043 0.919,-1.6203 -0.273,-0.417 -0.0526,-0.8573 0.205,-0.8062 0.1135,-0.4989 0.2051,-0.9419 0.348,-1.2075 -1.3216,0.7158 -1.1013,2.7531 -1.472,3.634zm4.9951 0.959l0 0c-0.1094,0.6377 -0.5498,0.6926 -1.0571,0.5286 -0.3186,-1.0472 0.1761,-1.4096 0.5285,-1.9381 0.4192,-0.0449 -0.1761,1.0572 0.5286,1.4095zm5.5619 5.703l0 0 -0.4955 -0.5506c0.276,-4.1745 -0.9361,-4.4598 -1.9272,-6.0014l0.2753 -0.3303c1.1013,1.3765 2.4226,2.3676 2.1474,6.8823zm9.3052 -0.055l0 0c-1.4867,-0.8809 -0.7708,0.3855 -3.634,-0.8809 -0.165,0.5505 1.1014,1.0461 1.7612,1.4655 0.0431,0.1797 0.0558,0.6266 0.8282,0.4571 0.6881,0.2216 1.6027,0.4549 1.9257,0.8853 -3.3589,0.4405 -3.1936,-1.7068 -4.3498,-1.5966 -0.4956,0.1101 -0.4405,0.6056 -0.4405,0.6056 -0.7048,-0.3523 -2.1924,-2.6419 -2.1924,-4.0513 1.1297,0.5134 2.7431,1.2433 3.1833,1.7388 0.826,0.5507 2.4778,0.1652 2.9183,1.3765zm-13.3364 3.1724l0 0c-0.1534,0.8469 0.177,1.838 0.2872,2.7189 0.6607,-0.1101 0.5938,-1.838 1.2986,-0.4284 -0.1762,0.1762 -0.5829,0.5936 -0.5829,1.089 0,0 0.7158,-0.2751 0.8259,-0.5506 0.3304,0.1102 0.6571,-0.0821 0.936,-0.2751 0.1653,0.3303 0.3372,0.3423 0.0551,0.5506 -0.532,0.3926 -1.7207,0.8831 -2.2575,0.7707 -0.4406,-0.5506 -0.8484,-0.6855 -1.0909,-1.5846l-0.1763 -2.2905 0.7048 0zm4.8021 6.5731l0 0 -0.9148 0.3533c0.7496,1.1884 1.6305,-0.9039 1.7958,0.5828 -2.2024,0.4404 -2.5328,-1.3216 -4.1296,-1.5419 0.1117,0.1118 1.1563,-0.2202 1.4866,-0.4954 0.7709,-0.3304 -0.1652,0.7157 0.8472,0.926 0.6393,-0.4856 0.7047,-1.5857 0.7047,-1.5857 1.4215,0.5495 0.0999,0.9901 0.2101,1.7609zm12.3337 3.9641l0 0c-0.606,-0.1651 -1.3115,0.1444 -1.8172,0.4406 -1.5418,0.2201 -3.0834,0.5505 -3.1502,-0.1753 0.5285,-1.057 1.8288,-0.1551 2.6429,-0.3522 -0.1213,-0.7185 -1.4197,-1.1869 -2.466,-1.0767l0 -0.2056c0.826,0.0552 1.4416,-0.083 2.1475,0.1028 0.2751,0.4406 1.0627,0.792 1.4866,1.0463 0.9361,-0.3303 -0.881,-0.8809 -0.2872,-1.2764 0.3973,-0.3203 0.893,0.4505 1.4436,1.4965zm-25.483 -0.5605l0 0c-0.1762,0.1761 -0.5285,0.7049 -0.881,0.5286 0.1761,-0.3525 0.5285,-0.7047 0.881,-0.5286zm35.1396 8.402l0 0c-0.847,-1.6749 -2.4988,-2.5558 -2.3337,-2.8862 0.2203,-0.1101 0.7158,0.3304 0.7158,0.3304 0.4405,0.1101 1.6179,1.851 1.6179,1.851l0 0.7048zm-31.681 -30.3678l0 0 -0.3853 0.5505 0.7157 0.0551 -0.3304 -0.6056zm3.0356 7.1025l0 0 -0.3853 0.5507 0.4955 -0.0478 -0.1102 -0.5029zm9.4833 23.9557l0 0c-0.0262,0.248 -0.0296,0.8805 -0.4144,0.9654 -0.0848,-0.3849 0.0296,-0.8804 0.4144,-0.9654zm19.8716 6.334l0 0c-0.026,0.2479 -0.1896,0.6581 -0.5744,0.7429 -0.0385,-0.1748 -0.0412,-0.3511 0.009,-0.5227 0.0604,-0.2062 0.3554,-0.1738 0.5654,-0.2202z"/>
   <polygon id="_120840280" class="fil3" points="192.871,190.276 185.51,190.245 185.48,182.789 "/>
   <polygon id="_120840184" class="fil3" points="175.303,172.612 175.272,190.245 165.257,190.245 165.288,162.598 "/>
   <polygon id="_120839824" class="fil3" points="154.988,152.298 155.019,190.245 145.005,190.245 144.971,142.281 "/>
   <polygon id="_120839848" class="fil3" points="134.797,132.108 134.766,190.245 124.752,190.245 124.783,122.094 "/>
   <polygon id="_120839968" class="fil3" points="114.483,111.794 114.514,190.245 104.075,190.245 104.045,101.356 "/>
   <polygon id="_120840016" class="fil4" points="124.798,122.109 124.752,190.245 114.514,190.245 114.483,111.794 "/>
   <polygon id="_120409464" class="fil4" points="144.971,142.281 145.005,190.245 134.766,190.245 134.797,132.108 "/>
   <polygon id="_120409392" class="fil4" points="165.288,162.598 165.257,190.245 155.019,190.245 154.988,152.298 "/>
   <polygon id="_120409320" class="fil4" points="185.48,182.789 185.51,190.245 175.272,190.245 175.241,172.551 "/>
   <polygon id="_120409248" class="fil3" points="15.2739,190.218 22.6347,190.249 22.6655,197.705 "/>
   <polygon id="_120409176" class="fil3" points="32.8425,207.882 32.8733,190.249 42.8875,190.249 42.8568,217.896 "/>
   <polygon id="_120409104" class="fil3" points="53.1569,228.196 53.1259,190.249 63.14,190.249 63.1742,238.213 "/>
   <polygon id="_120409032" class="fil3" points="73.3479,248.387 73.3786,190.249 83.3927,190.249 83.3621,258.4 "/>
   <polygon id="_120408960" class="fil3" points="93.6619,268.7 93.6313,190.249 104.07,190.249 104.101,279.139 "/>
   <polygon id="_120408888" class="fil4" points="83.3466,258.385 83.3927,190.249 93.6311,190.249 93.6618,268.7 "/>
   <polygon id="_120408816" class="fil4" points="63.1742,238.213 63.14,190.249 73.3786,190.249 73.3479,248.387 "/>
   <polygon id="_120408744" class="fil4" points="42.8568,217.896 42.8875,190.249 53.126,190.249 53.1569,228.196 "/>
   <polygon id="_120408672" class="fil4" points="22.6655,197.705 22.6347,190.249 32.8733,190.249 32.904,207.943 "/>
   <g>
    <path id="_120202400" class="fil5 str0" d="M103.909 72.8926c-3.5175,0 -6.9537,0.0795 -10.271,0.2249 -3.3173,0.1455 -6.5177,0.3607 -9.5665,0.6187 -3.049,0.2581 -5.9415,0.5624 -8.6534,0.9003 -2.7119,0.3375 -5.2425,0.7082 -7.5489,1.0928 -2.3064,0.3845 -4.3945,0.783 -6.2269,1.1814 -1.8325,0.3985 -3.4062,0.7937 -4.6963,1.1732 -1.2901,0.3794 -2.295,0.7414 -2.9745,1.0689 -0.3395,0.1637 -0.5997,0.3214 -0.7739,0.4662 -0.1742,0.1443 -0.2609,0.2802 -0.2609,0.4016 0,0.1286 0.0867,0.2655 0.2609,0.4179 0.1742,0.1524 0.4344,0.3184 0.7739,0.4902 0.6795,0.3435 1.6844,0.721 2.9745,1.1172 1.2901,0.396 2.8638,0.8066 4.6963,1.2214 1.8325,0.4144 3.9205,0.8301 6.2269,1.2294 2.3064,0.3995 4.837,0.7828 7.5489,1.1334 2.7119,0.35 5.6044,0.6728 8.6534,0.9401 3.0488,0.2673 6.2492,0.4843 9.5665,0.635 3.3173,0.1502 6.7535,0.233 10.2708,0.233 3.5173,-0.0001 6.9538,-0.0826 10.2713,-0.233 3.3171,-0.1509 6.5176,-0.3675 9.5662,-0.635 3.049,-0.2674 5.9416,-0.5901 8.6534,-0.9401 2.7119,-0.3507 5.2425,-0.7337 7.549,-1.1334 2.3062,-0.3995 4.3946,-0.8149 6.227,-1.2294 1.8324,-0.415 3.4058,-0.8254 4.6962,-1.2214 1.2903,-0.3962 2.2949,-0.7737 2.9744,-1.1172 0.3395,-0.1718 0.5999,-0.3377 0.774,-0.4902 0.174,-0.1524 0.2608,-0.2893 0.2608,-0.4179 0,-0.1214 -0.0868,-0.2573 -0.2608,-0.4016 -0.1739,-0.1448 -0.4345,-0.3025 -0.774,-0.4662 -0.6795,-0.3276 -1.6841,-0.6894 -2.9744,-1.0689 -1.2902,-0.3795 -2.8638,-0.7746 -4.6962,-1.1732 -1.8324,-0.3984 -3.9208,-0.7969 -6.227,-1.1814 -2.3065,-0.3848 -4.8372,-0.7551 -7.549,-1.0928 -2.7118,-0.3379 -5.6046,-0.6421 -8.6534,-0.9003 -3.0485,-0.2582 -6.2491,-0.473 -9.5662,-0.6187 -3.3175,-0.1456 -6.754,-0.2249 -10.2711,-0.2249z"/>
    <line id="_120202592" class="fil6 str1" x1="99.9834" y1="87.7859" x2="99.9834" y2= "71.8574" />
    <line id="_120202712" class="fil6 str1" x1="96.015" y1="88.307" x2="96.0664" y2= "71.4412" />
    <line id="_120202808" class="fil6 str1" x1="93.1225" y1="88.5153" x2="93.1225" y2= "71.3363" />
    <line id="_120202904" class="fil6 str2" x1="90.6636" y1="88.7234" x2="90.6636" y2= "71.3363" />
    <line id="_120204080" class="fil6 str3" x1="88.3212" y1="88.7234" x2="88.3212" y2= "71.3363" />
    <line id="_120206408" class="fil6 str4" x1="86.1098" y1="88.7234" x2="86.1098" y2= "71.3363" />
    <line id="_120206216" class="fil6 str5" x1="83.9177" y1="88.7234" x2="83.9177" y2= "71.3363" />
    <line id="_120204824" class="fil6 str6" x1="81.9645" y1="88.7234" x2="81.9645" y2= "71.3363" />
    <line id="_120206048" class="fil6 str7" x1="78.2393" y1="87.7859" x2="78.1875" y2= "71.961" />
    <line id="_120204656" class="fil6 str7" x1="80.0052" y1="87.994" x2="80.0052" y2= "71.4412" />
    <line id="_120204272" class="fil6 str8" x1="74.7999" y1="87.0745" x2="74.7999" y2= "72.4942" />
    <line id="_120205976" class="fil6 str8" x1="76.5423" y1="87.4907" x2="76.4907" y2= "71.9743" />
    <line id="_120204992" class="fil6 str9" x1="70.1857" y1="86.2415" x2="70.1857" y2= "73.4318" />
    <line id="_120206384" class="fil6 str9" x1="71.6997" y1="86.45" x2="71.6997" y2= "73.0151" />
    <line id="_120205808" class="fil6 str9" x1="73.2594" y1="86.8663" x2="73.2594" y2= "72.9105" />
    <line id="_120205424" class="fil6 str10" x1="68.5684" y1="86.1369" x2="68.5684" y2= "73.7446" />
    <line id="_120204896" class="fil6 str11" x1="67.0605" y1="85.5124" x2="67.0605" y2= "73.9527" />
    <line id="_120206504" class="fil6 str12" x1="65.4434" y1="85.1995" x2="65.4434" y2= "74.4726" />
    <line id="_120205400" class="fil6 str13" x1="62.1323" y1="84.2634" x2="62.0806" y2= "75.723" />
    <line id="_120203768" class="fil6 str13" x1="63.829" y1="84.6796" x2="63.829" y2= "75.0985" />
    <line id="_120206000" class="fil6 str14" x1="60.4354" y1="83.534" x2="60.4354" y2= "76.0345" />
    <line id="_175487848" class="fil6 str15" x1="58.8817" y1="82.9259" x2="58.8817" y2= "76.6809" />
    <line id="_175487344" class="fil6 str16" x1="57.1849" y1="82.0932" x2="57.1849" y2= "77.2018" />
    <line id="_175486672" class="fil6 str17" x1="55.4409" y1="81.6767" x2="55.4409" y2= "78.0345" />
    <line id="_175485904" class="fil6 str18" x1="53.5952" y1="80.8453" x2="53.5952" y2= "79.075" />
    <line id="_175484416" class="fil6 str2" x1="116.614" y1="88.7234" x2="116.614" y2= "71.3363" />
    <line id="_175484704" class="fil6 str3" x1="118.956" y1="88.7234" x2="118.956" y2= "71.3363" />
    <line id="_175487968" class="fil6 str4" x1="121.167" y1="88.7234" x2="121.167" y2= "71.3363" />
    <line id="_175485496" class="fil6 str5" x1="123.359" y1="88.7234" x2="123.359" y2= "71.3363" />
    <line id="_175487032" class="fil6 str6" x1="125.313" y1="88.7234" x2="125.313" y2= "71.3363" />
    <line id="_175487776" class="fil6 str7" x1="129.038" y1="87.7859" x2="129.089" y2= "71.961" />
    <line id="_175487200" class="fil6 str7" x1="127.272" y1="87.994" x2="127.272" y2= "71.4412" />
    <line id="_175486720" class="fil6 str8" x1="132.477" y1="87.0745" x2="132.477" y2= "72.4942" />
    <line id="_175486144" class="fil6 str8" x1="130.735" y1="87.4907" x2="130.786" y2= "71.9743" />
    <line id="_175485688" class="fil6 str9" x1="137.092" y1="86.2415" x2="137.092" y2= "73.4318" />
    <line id="_175485208" class="fil6 str9" x1="135.577" y1="86.45" x2="135.577" y2= "73.0151" />
    <line id="_175484248" class="fil6 str9" x1="134.018" y1="86.8663" x2="134.018" y2= "72.9105" />
    <line id="_175484272" class="fil6 str10" x1="138.709" y1="86.1369" x2="138.709" y2= "73.7446" />
    <line id="_175484224" class="fil6 str11" x1="140.217" y1="85.5124" x2="140.217" y2= "73.9527" />
    <line id="_175484488" class="fil6 str12" x1="141.834" y1="85.1995" x2="141.834" y2= "74.4726" />
    <line id="_175484632" class="fil6 str13" x1="145.145" y1="84.2634" x2="145.196" y2= "75.723" />
    <line id="_175484824" class="fil6 str13" x1="143.448" y1="84.6796" x2="143.448" y2= "75.0985" />
    <line id="_175485064" class="fil6 str14" x1="146.842" y1="83.534" x2="146.842" y2= "76.0345" />
    <line id="_175485184" class="fil6 str15" x1="148.396" y1="82.9259" x2="148.396" y2= "76.6809" />
    <line id="_175485328" class="fil6 str16" x1="150.092" y1="82.0932" x2="150.092" y2= "77.2018" />
    <line id="_175485568" class="fil6 str17" x1="151.836" y1="81.6767" x2="151.836" y2= "78.0345" />
    <line id="_175485736" class="fil6 str18" x1="153.682" y1="80.8453" x2="153.682" y2= "79.075" />
    <line id="_175485880" class="fil6 str1" x1="107.294" y1="87.7859" x2="107.294" y2= "71.8574" />
    <line id="_175486096" class="fil6 str1" x1="111.262" y1="88.307" x2="111.21" y2= "71.4412" />
    <line id="_175486312" class="fil6 str1" x1="114.155" y1="88.5153" x2="114.155" y2= "71.3363" />
    <polygon id="_120202568" class="fil5 str19" points="111.14,14.0828 111.5,12.6757 112.668,12.6757 112.668,15.7799 111.14,15.49 "/>
    <polygon id="_175486696" class="fil5 str19" points="96.8841,14.0828 96.5234,12.6757 95.3564,12.6757 95.3564,15.7799 96.8841,15.49 "/>
    <path id="_175486960" class="fil5 str20" d="M37.9231 53.2916l7.7965 14.8637 115.111 0.1991 8.904 -15.0628c-3.6545,-12.4058 -42.3529,-19.8275 -65.9058,-19.8275 -23.8373,-0.0001 -62.8073,7.5013 -65.906,19.8275z"/>
    <path id="_175487224" class="fil5 str20" d="M48.7375 80.1748c2.4361,-13.6572 103.911,-14.5472 110.251,0.0002 0.2958,-2.7788 4.1972,-13.3592 5.415,-14.5256 4.1773,-11.0522 -28.3776,-17.7492 -60.8344,-17.6403 -32.4564,0.1087 -64.8148,7.0234 -60.2444,17.4977 1.3286,1.3398 4.9387,11.9111 5.4128,14.668z"/>
    <path id="_175487440" class="fil6 str20" d="M47.5653 76.1493c0,0 4.6002,-10.9643 56.2638,-10.9673 51.5202,-0.0035 56.1362,10.9412 56.1362,10.9412"/>
    <path id="_175487536" class="fil6 str20" d="M160.962 73.1941c-2.8121,-6.8896 -31.7777,-11.8038 -57.1326,-11.8038 -25.3549,0 -54.4288,4.8068 -57.2405,11.6958"/>
    <path id="_175487680" class="fil6 str20" d="M163.14 67.7608c-0.285,-8.1999 -30.2543,-14.0492 -59.3112,-14.0492 -29.3445,0 -59.3679,6.2367 -59.222,14.0492"/>
    <path id="_175487896" class="fil6 str20" d="M162.065 70.3758c-2.8355,-7.5688 -29.5592,-12.9457 -58.236,-12.8784 -28.6771,0.0669 -55.381,5.1012 -58.2167,12.6701"/>
    <line id="_175488088" class="fil6 str20" x1="103.829" y1="65.1233" x2="103.829" y2= "68.9473" />
    <line id="_175648736" class="fil6 str20" x1="92.0744" y1="65.3632" x2="92.2489" y2= "69.2007" />
    <line id="_175646792" class="fil6 str20" x1="81.2449" y1="65.9833" x2="81.5588" y2= "69.7947" />
    <line id="_175647728" class="fil6 str20" x1="71.0718" y1="67.1092" x2="71.7429" y2= "71.429" />
    <line id="_175647176" class="fil6 str20" x1="61.2904" y1="69.1858" x2="61.7567" y2= "73.2207" />
    <line id="_175645112" class="fil6 str20" x1="53.6892" y1="71.8279" x2="54.4656" y2= "74.7516" />
    <line id="_175645952" class="fil6 str20" x1="48.9749" y1="74.6582" x2="49.7607" y2= "77.6266" />
    <line id="_175645424" class="fil6 str20" x1="115.584" y1="65.3632" x2="115.409" y2= "69.2007" />
    <line id="_175644848" class="fil6 str20" x1="126.413" y1="65.9833" x2="126.099" y2= "69.7947" />
    <line id="_175646216" class="fil6 str20" x1="136.586" y1="67.1092" x2="136.121" y2= "70.8537" />
    <line id="_175648616" class="fil6 str20" x1="146.45" y1="69.1177" x2="145.984" y2= "72.7932" />
    <line id="_175648520" class="fil6 str20" x1="153.731" y1="71.5898" x2="152.955" y2= "74.5134" />
    <line id="_175647944" class="fil6 str20" x1="158.809" y1="74.7614" x2="157.891" y2= "77.2596" />
    <line id="_175647368" class="fil6 str20" x1="103.829" y1="57.5652" x2="103.829" y2= "61.4585" />
    <line id="_175646384" class="fil6 str20" x1="91.7782" y1="57.8096" x2="91.9556" y2= "61.7165" />
    <line id="_175646024" class="fil6 str20" x1="80.6908" y1="58.5937" x2="81.0267" y2= "62.5958" />
    <line id="_175645544" class="fil6 str20" x1="70.2712" y1="60.0298" x2="70.7612" y2= "64.0102" />
    <line id="_175644968" class="fil6 str20" x1="60.3649" y1="62.1679" x2="60.9056" y2= "65.8806" />
    <line id="_175644704" class="fil6 str20" x1="52.2943" y1="64.9136" x2="53.0515" y2= "68.2854" />
    <line id="_175644896" class="fil6 str20" x1="46.9965" y1="68.1104" x2="47.97" y2= "71.4088" />
    <line id="_175645040" class="fil6 str20" x1="115.88" y1="57.8096" x2="115.703" y2= "61.7165" />
    <line id="_175645232" class="fil6 str20" x1="126.968" y1="58.5937" x2="126.631" y2= "62.5958" />
    <line id="_175645472" class="fil6 str20" x1="137.387" y1="60.0298" x2="136.897" y2= "64.0102" />
    <line id="_175645616" class="fil6 str20" x1="147.293" y1="62.1679" x2="146.753" y2= "65.8806" />
    <line id="_175645784" class="fil6 str20" x1="155.364" y1="64.9136" x2="154.488" y2= "68.5234" />
    <line id="_175645976" class="fil6 str20" x1="160.644" y1="68.4908" x2="159.595" y2= "71.3712" />
    <line id="_175646168" class="fil6 str20" x1="103.829" y1="49.9761" x2="103.829" y2= "53.8693" />
    <line id="_175646336" class="fil6 str20" x1="80.0546" y1="51.1208" x2="80.378" y2= "55.0299" />
    <line id="_175646576" class="fil6 str20" x1="69.3326" y1="52.5453" x2="69.8225" y2= "56.5374" />
    <line id="_175646672" class="fil6 str20" x1="58.7578" y1="54.8698" x2="59.702" y2= "58.7106" />
    <line id="_175646912" class="fil6 str20" x1="50.4223" y1="57.8953" x2="51.394" y2= "61.5467" />
    <line id="_175647128" class="fil6 str20" x1="44.1492" y1="62.2944" x2="45.7228" y2= "65.1473" />
    <line id="_175647296" class="fil6 str20" x1="91.4196" y1="50.2436" x2="91.5971" y2= "54.1507" />
    <line id="_175647512" class="fil6 str20" x1="127.604" y1="51.1208" x2="127.28" y2= "55.0299" />
    <line id="_175647680" class="fil6 str20" x1="138.326" y1="52.5453" x2="137.836" y2= "56.5374" />
    <line id="_175647800" class="fil6 str20" x1="148.9" y1="54.8698" x2="147.956" y2= "58.7106" />
    <line id="_175648016" class="fil6 str20" x1="157.236" y1="57.8953" x2="156.264" y2= "61.2794" />
    <line id="_175648184" class="fil6 str20" x1="163.509" y1="62.2944" x2="161.935" y2= "65.1473" />
    <line id="_175648136" class="fil6 str20" x1="116.239" y1="50.2436" x2="116.061" y2= "54.1507" />
    <path id="_175645832" class="fil6 str20" d="M40.3832 57.9414c0,0 9.5466,-15.7675 63.3634,-15.7675 53.669,-0.0042 63.3632,15.7295 63.3632,15.7295"/>
    <path id="_175648640" class="fil6 str20" d="M168.373 55.7217c-3.1308,-10.4354 -36.3462,-17.8794 -64.5776,-17.8794 -28.232,-0.0001 -61.4469,7.444 -64.5776,17.8794"/>
    <line id="_175605992" class="fil6 str20" x1="43.8151" y1="58.2214" x2="42.536" y2= "55.6392" />
    <line id="_175602944" class="fil6 str20" x1="41.0602" y1="52.6937" x2="39.7222" y2= "50.0386" />
    <line id="_175602584" class="fil6 str20" x1="49.6202" y1="54.7847" x2="48.3607" y2= "51.7297" />
    <line id="_175606016" class="fil6 str20" x1="46.944" y1="48.3657" x2="45.665" y2= "45.2929" />
    <line id="_175605392" class="fil6 str20" x1="57.9244" y1="51.7663" x2="56.7438" y2= "48.1841" />
    <line id="_175604480" class="fil6 str20" x1="55.622" y1="44.7838" x2="54.52" y2= "41.3655" />
    <line id="_175603904" class="fil6 str20" x1="68.649" y1="49.2569" x2="67.7044" y2= "45.2929" />
    <line id="_175603256" class="fil6 str20" x1="66.8582" y1="41.7292" x2="66.0121" y2= "38.0015" />
    <line id="_175602632" class="fil6 str20" x1="78.3896" y1="39.6561" x2="77.7796" y2= "35.7103" />
    <line id="_175603208" class="fil6 str20" x1="78.98" y1="43.511" x2="79.649" y2= "47.7476" />
    <line id="_175602536" class="fil6 str20" x1="91.0427" y1="46.8749" x2="90.7081" y2= "42.4744" />
    <line id="_175605176" class="fil6 str20" x1="90.3736" y1="38.3833" x2="90.0587" y2= "34.1648" />
    <line id="_175602872" class="fil6 str20" x1="103.829" y1="37.8558" x2="103.829" y2= "33.4375" />
    <line id="_175603016" class="fil6 str20" x1="103.829" y1="42.2017" x2="103.829" y2= "46.5839" />
    <line id="_175603304" class="fil6 str20" x1="163.849" y1="58.2214" x2="165.128" y2= "55.6392" />
    <line id="_175603448" class="fil6 str20" x1="166.604" y1="52.6937" x2="167.942" y2= "50.0386" />
    <line id="_175603616" class="fil6 str20" x1="158.044" y1="54.7847" x2="159.303" y2= "51.7297" />
    <line id="_175603784" class="fil6 str20" x1="160.72" y1="48.3657" x2="161.999" y2= "45.2929" />
    <line id="_175604024" class="fil6 str20" x1="149.74" y1="51.7663" x2="150.921" y2= "48.1841" />
    <line id="_175604168" class="fil6 str20" x1="152.042" y1="44.7838" x2="153.144" y2= "41.3655" />
    <line id="_175604312" class="fil6 str20" x1="139.015" y1="49.2569" x2="139.96" y2= "45.2929" />
    <line id="_175604504" class="fil6 str20" x1="140.806" y1="41.7292" x2="141.652" y2= "38.0015" />
    <line id="_175604672" class="fil6 str20" x1="129.275" y1="39.6561" x2="129.885" y2= "35.7103" />
    <line id="_175604792" class="fil6 str20" x1="128.684" y1="43.511" x2="128.015" y2= "47.7476" />
    <line id="_175604984" class="fil6 str20" x1="116.622" y1="46.8749" x2="116.956" y2= "42.4744" />
    <line id="_175605200" class="fil6 str20" x1="117.291" y1="38.3833" x2="117.606" y2= "34.1648" />
    <line id="_175605368" class="fil6 str20" x1="109.751" y1="65.338" x2="109.751" y2= "61.4605" />
    <line id="_175605560" class="fil6 str20" x1="109.93" y1="57.5422" x2="110.064" y2= "53.7472" />
    <line id="_175605752" class="fil6 str20" x1="110.421" y1="42.2391" x2="110.555" y2= "37.9495" />
    <line id="_175605944" class="fil6 str20" x1="123.277" y1="38.898" x2="122.786" y2= "42.8577" />
    <line id="_175606112" class="fil6 str20" x1="135.552" y1="40.6716" x2="134.57" y2= "44.3014" />
    <line id="_175606232" class="fil6 str20" x1="146.801" y1="43.2702" x2="145.641" y2= "46.5701" />
    <line id="_175606400" class="fil6 str20" x1="156.845" y1="46.6114" x2="155.372" y2= "49.8289" />
    <line id="_175602848" class="fil6 str20" x1="163.943" y1="50.3652" x2="162.38" y2= "53.5821" />
    <line id="_175603064" class="fil6 str20" x1="121.67" y1="54.4485" x2="121.357" y2= "58.0784" />
    <line id="_175602392" class="fil6 str20" x1="121" y1="62.1206" x2="120.643" y2= "65.5854" />
    <line id="_175605608" class="fil6 str20" x1="131.669" y1="66.493" x2="132.026" y2= "63.1517" />
    <line id="_175717760" class="fil6 str20" x1="132.428" y1="59.2334" x2="132.829" y2= "55.6036" />
    <line id="_175716032" class="fil6 str20" x1="143.185" y1="57.4183" x2="142.65" y2= "61.0482" />
    <line id="_175714784" class="fil6 str20" x1="142.025" y1="64.8431" x2="141.534" y2= "68.029" />
    <line id="_175714832" class="fil6 str20" x1="150.149" y1="70.2218" x2="150.729" y2= "67.0837" />
    <line id="_175714112" class="fil6 str20" x1="156.295" y1="73.01" x2="157.217" y2= "69.8293" />
    <line id="_175716128" class="fil6 str20" x1="151.488" y1="63.3582" x2="152.292" y2= "59.8106" />
    <line id="_175715096" class="fil6 str20" x1="158.139" y1="66.1845" x2="159.345" y2= "62.8632" />
    <line id="_175715864" class="fil6 str20" x1="97.9069" y1="65.338" x2="97.9069" y2= "61.4605" />
    <line id="_175716800" class="fil6 str20" x1="97.7283" y1="57.5422" x2="97.5945" y2= "53.7472" />
    <line id="_175715696" class="fil6 str20" x1="97.2373" y1="42.2391" x2="97.1033" y2= "37.9495" />
    <line id="_175715336" class="fil6 str20" x1="84.3815" y1="38.898" x2="84.8724" y2= "42.8577" />
    <line id="_175714880" class="fil6 str20" x1="72.1058" y1="40.6716" x2="73.0878" y2= "44.3014" />
    <line id="_175714520" class="fil6 str20" x1="60.8569" y1="43.2702" x2="62.0175" y2= "46.5701" />
    <line id="_175714088" class="fil6 str20" x1="50.8132" y1="46.6114" x2="52.2863" y2= "49.8289" />
    <line id="_175716296" class="fil6 str20" x1="43.7157" y1="50.3652" x2="45.2779" y2= "53.5821" />
    <line id="_175716656" class="fil6 str20" x1="85.9883" y1="54.4485" x2="86.3008" y2= "58.0784" />
    <line id="_175716920" class="fil6 str20" x1="86.6578" y1="62.1206" x2="87.0151" y2= "65.5854" />
    <line id="_175713920" class="fil6 str20" x1="75.9894" y1="66.493" x2="75.6323" y2= "63.1517" />
    <line id="_175714064" class="fil6 str20" x1="75.2304" y1="59.2334" x2="74.8288" y2= "55.6036" />
    <line id="_175714304" class="fil6 str20" x1="64.4727" y1="57.4183" x2="65.0082" y2= "61.0482" />
    <line id="_175714496" class="fil6 str20" x1="65.6332" y1="64.8431" x2="66.1243" y2= "67.8953" />
    <line id="_175714712" class="fil6 str20" x1="57.4163" y1="70.2864" x2="56.8393" y2= "66.9055" />
    <line id="_175714928" class="fil6 str20" x1="51.1255" y1="73.01" x2="50.203" y2= "69.7101" />
    <line id="_175715144" class="fil6 str20" x1="56.1699" y1="63.3582" x2="55.3663" y2= "59.8106" />
    <line id="_175715360" class="fil6 str20" x1="49.4299" y1="66.2735" x2="48.3134" y2= "63.0861" />
    <path id="_175717448" class="fil5 str21" d="M93.1992 12.6759l0 5.3059c1.6827,0.7379 2.5776,1.5705 2.8072,2.4835 -0.0288,10.555 -0.861,20.1468 -3.3686,27.7053l11.0098 0 0.7258 0 10.9961 0c-2.5076,-7.5585 -3.3261,-17.1502 -3.3552,-27.7053 0.3464,-1.1478 1.5032,-1.8554 2.8073,-2.4834l0 -5.306 -3.089 0 -0.0059 2.3839 -3.0872 0 0.0042 -2.3839 -3.089 0 -0.0215 2.3839 -3.0392 0 -0.0278 -2.3839 -3.089 0 0.0306 2.3839 -3.1133 0 -0.0063 -2.3839 -3.089 0z"/>
    <polygon id="_175715720" class="fil6 str21" points="93.2215,17.979 114.786,17.979 "/>
    <polygon id="_175716008" class="fil6 str21" points="96.0867,20.4626 111.921,20.4626 "/>
    <line id="_175717376" class="fil6 str21" x1="94.4182" y1="41.6786" x2="113.589" y2= "41.6786" />
    <line id="_175717880" class="fil6 str21" x1="95.0711" y1="37.4354" x2="112.897" y2= "37.4354" />
    <line id="_175717736" class="fil6 str21" x1="95.532" y1="33.1921" x2="112.436" y2= "33.1921" />
    <line id="_175717616" class="fil6 str21" x1="95.839" y1="28.9489" x2="112.129" y2= "28.9489" />
    <line id="_175716680" class="fil6 str21" x1="95.9545" y1="24.7058" x2="112.053" y2= "24.7058" />
    <path id="_175715960" class="fil7 str0" d="M100.55 26.0447c-0.6013,0.0345 -1.1561,0.4731 -1.1723,1.7332 -0.0173,1.3445 0.0286,3.9674 0.0286,3.9674l2.5327 -0.0073c0,0 0.0396,-2.5045 0.0116,-3.9285 -0.0282,-1.4245 -0.6351,-1.745 -1.2807,-1.7648 -0.0403,-0.0012 -0.0799,-0.0021 -0.1199,0z"/>
    <path id="_119313344" class="fil7 str0" d="M107.228 26.0447c-0.6011,0.0345 -1.1559,0.4731 -1.1721,1.7332 -0.0173,1.3445 0.0288,3.9603 0.0288,3.9603l2.5325 0.0071c0,0 0.0342,-2.5118 0.006,-3.9358 -0.0284,-1.4245 -0.6295,-1.745 -1.2753,-1.7648 -0.04,-0.0012 -0.0799,-0.0021 -0.1199,0z"/>
    <line id="_119314472" class="fil6 str20" x1="100.667" y1="33.1118" x2="100.667" y2= "31.7521" />
    <line id="_119311784" class="fil6 str20" x1="107.343" y1="33.1118" x2="107.343" y2= "31.7521" />
    <line id="_119304896" class="fil6 str21" x1="104.004" y1="33.2481" x2="104.004" y2= "37.5215" />
    <line id="_119303168" class="fil6 str22" x1="97.2769" y1="46.7851" x2="97.2769" y2= "41.7482" />
    <line id="_119302448" class="fil6 str22" x1="110.73" y1="46.7851" x2="110.73" y2= "41.7482" />
    <line id="_119313104" class="fil6 str23" x1="97.2769" y1="37.4633" x2="97.2769" y2= "33.1964" />
    <line id="_119311424" class="fil6 str23" x1="110.73" y1="37.4633" x2="110.73" y2= "33.1964" />
    <line id="_119312648" class="fil6 str24" x1="104.004" y1="24.6373" x2="104.004" y2= "29.0353" />
    <line id="_119303216" class="fil6 str24" x1="97.2769" y1="28.914" x2="97.2769" y2= "24.7586" />
    <line id="_119305304" class="fil6 str24" x1="110.73" y1="28.914" x2="110.73" y2= "24.7586" />
    <path id="_119303720" class="fil5" d="M104.018 34.8957c-2.2079,-0.0479 -4.3546,0.9671 -4.4138,4.2817 -0.0592,3.3161 0.0845,8.4477 0.0846,8.4477l1.6696 0.1144c-0.0106,-0.5206 -0.0575,-4.9073 -0.0239,-7.5696 0.0092,-0.7149 0.015,-1.3054 0.1643,-1.7891 0.0748,-0.2419 0.1681,-0.4584 0.2706,-0.6486 0.1025,-0.1902 0.1588,-0.3572 0.2843,-0.5001 0.1256,-0.1432 0.222,-0.2599 0.3656,-0.3595 0.1435,-0.0996 0.2592,-0.1815 0.416,-0.2423 0.3135,-0.1208 0.8997,-0.2787 1.2372,-0.2682 0.3373,0.0102 0.8072,0.1739 1.1158,0.2919 0.1542,0.0589 0.2449,0.1384 0.3854,0.2345 0.1409,0.0954 0.1938,0.2042 0.3168,0.3436 0.1226,0.1391 0.2516,0.3029 0.3514,0.4923 0.1005,0.1892 0.1888,0.4102 0.2623,0.6564 0.1475,0.4914 0.1349,1.1021 0.1593,1.8596 0.0907,2.8202 -0.0081,7.0165 -0.0169,7.507l1.7093 -0.1146c0,0 0.1217,-4.8655 0.0253,-8.3768 -0.0964,-3.5128 -2.1552,-4.3121 -4.3632,-4.3603z"/>
    <path id="_119303432" class="fil6 str0" d="M104.018 34.8957c-2.2079,-0.0479 -4.3546,0.9671 -4.4138,4.2817 -0.0592,3.3161 0.0846,8.4477 0.0846,8.4477l1.6696 0.1144c-0.0106,-0.5206 -0.0575,-4.9073 -0.0239,-7.5696 0,-0.7149 0.015,-1.3054 0.1643,-1.7891 0.0748,-0.2419 0.1681,-0.4584 0.2706,-0.6486 0.1025,-0.1902 0.1588,-0.3572 0.2843,-0.5001 0.1256,-0.1432 0.222,-0.2599 0.3656,-0.3595 0.1435,-0.0996 0.2592,-0.1815 0.416,-0.2423 0.3135,-0.1208 0.8997,-0.2787 1.2372,-0.2682 0.3373,0.0102 0.8072,0.1739 1.1158,0.2919 0.1542,0.0589 0.2449,0.1384 0.3854,0.2345 0.1409,0.0954 0.1938,0.2042 0.3168,0.3436 0.1226,0.1391 0.2516,0.3029 0.3514,0.4923 0.1005,0.1892 0.1888,0.4102 0.2623,0.6564 0.1475,0.4914 0.1349,1.1021 0.1593,1.8596 0.0907,2.8202 -0.0169,7.0165 -0.0169,7.507l1.7093 -0.1146c0,0 0.1217,-4.8655 0.0253,-8.3768 -0.0964,-3.5128 -2.1552,-4.3121 -4.3632,-4.3603z"/>
    <path id="_119315384" class="fil7 str0" d="M101.349 47.631c0,0 -0.0908,-4.7569 -0.0543,-7.6179 0.0366,-2.8597 1.3597,-3.737 2.7185,-3.6953 1.3588,0.0413 2.6253,0.7346 2.6845,3.7649 0.0596,3.0293 -0.0167,7.5513 -0.0167,7.5513l-5.332 -0.003z"/>
    <line id="_119307128" class="fil6 str25" x1="100.667" y1="24.7186" x2="100.667" y2= "20.5495" />
    <line id="_119314952" class="fil6 str25" x1="107.343" y1="24.7186" x2="107.343" y2= "20.5495" />
    <path id="_119302880" class="fil5" d="M76.1467 16.6262l0.7172 0.9767 -0.2528 3.1432 -1.5272 -1.2861 -0.0717 -2.4551 1.1345 -0.3787zm1.7131 2.1956l0.6931 0.8961 -0.2526 3.1433 -1.5271 -1.2866 -0.0479 -2.374 1.1345 -0.3788zm1.7372 2.2633l0.6451 0.7634 -0.2525 3.1431 -1.5358 -1.2863 0 -2.2411 1.1432 -0.3791z"/>
    <polygon id="_119310776" class="fil6 str20" points="76.1467,16.6262 76.8639,17.6029 76.6111,20.7461 75.0839,19.46 75.0122,17.0049 "/>
    <polygon id="_119304560" class="fil6 str20" points="77.8598,18.8218 78.5529,19.7179 78.3003,22.8612 76.7732,21.5746 76.7253,19.2006 "/>
    <polygon id="_119302544" class="fil6 str20" points="79.597,21.0851 80.2421,21.8485 79.9896,24.9916 78.4538,23.7053 78.4538,21.4642 "/>
    <polygon id="_119302520" class="fil5 str20" points="65.375,16.9279 66.4681,17.8677 66.4681,19.6635 64.5096,19.6635 64.5096,17.5733 "/>
    <polygon id="_175379496" class="fil5 str20" points="60.79,18.2046 61.9288,19.1442 61.9288,20.9402 59.9701,20.9402 59.9701,18.8496 "/>
    <path id="_175378824" class="fil5 str26" d="M74.4317 14.4058l0.7614 0.9688 0 2.5321 0.9047 0.8939 0.0089 -2.2671 0.8331 1.0592 0 2.0853 0.9049 0.9023 0.0089 -1.8288 0.851 1.076 0 1.622 0.9047 0.9188 0.0089 -1.3819 0.8602 1.093 -0.0449 2.6983c-0.7261,0.7805 -1.4734,0.9435 -1.5503,2.1702 0.2987,2.0022 0.7695,5.0973 1.7921,8.2845l-2.0054 0.3051c0.5961,3.8075 2.2792,8.4191 3.7164,12.2026l-7.3788 1.1802 -3.6216 -28.7218 3.0458 -5.7927z"/>
    <polygon id="_175377936" class="fil5 str20" points="69.9447,15.637 70.9315,16.5911 70.9315,18.3867 68.9731,18.3867 68.9731,16.2966 "/>
    <path id="_175379640" class="fil5 str27" d="M74.3572 14.3583l0.1371 5.1963c-1.2059,1.0719 -1.0154,2.0735 -1.0527,3.0153 1.6773,10.3315 3.8344,19.5519 6.9884,26.4335l-8.6464 2.2869 -0.5701 0.1509 -8.6359 2.2839c0.7847,-7.9235 -0.076,-17.4867 -1.7078,-27.8305 -0.4518,-1.0519 -1.2249,-1.5046 -2.3473,-1.8487l-0.1371 -5.1966 2.2818 -0.6416 0.017 2.1083 2.2289 -0.6789 0.0358 -2.0711 2.2816 -0.6415 -0.0082 2.1803 2.2244 -0.6314 0.0656 -2.1905 2.2816 -0.6416 0.0113 2.3036 2.217 -0.609 0.0532 -2.3363 2.2818 -0.6413z"/>
    <polygon id="_175379304" class="fil6 str27" points="74.4764,19.5564 58.5827,23.9605 "/>
    <polygon id="_175377984" class="fil6 str27" points="73.3783,22.5835 60.9432,25.8725 "/>
    <line id="_175377888" class="fil6 str27" x1="78.0142" y1="43.0154" x2="62.9583" y2= "46.9972" />
    <line id="_175378032" class="fil6 str27" x1="76.8364" y1="38.9953" x2="62.8365" y2= "42.6979" />
    <line id="_175378200" class="fil6 str27" x1="75.8094" y1="34.9354" x2="62.5333" y2= "38.4466" />
    <line id="_175378464" class="fil6 str27" x1="74.903" y1="30.8435" x2="62.1094" y2= "34.2274" />
    <line id="_175378128" class="fil6 str27" x1="74.1472" y1="26.712" x2="61.5043" y2= "30.0554" />
    <path id="_175378656" class="fil7" d="M70.7484 28.9779c0.4775,-0.0914 0.9818,0.223 1.1921,1.4537 0.2245,1.3134 0.5995,3.8917 0.5995,3.8917l-1.9903 0.519c0,0 -0.4237,-2.4451 -0.6248,-3.8452 -0.2012,-1.4009 0.2252,-1.8411 0.7292,-1.9942 0.0316,-0.0097 0.0624,-0.019 0.0943,-0.025z"/>
    <path id="_175378848" class="fil6 str28" d="M70.7484 28.9779c0.4775,-0.0914 0.9818,0.223 1.1921,1.4537 0.2245,1.3134 0.5995,3.8917 0.5995,3.8917l-1.9903 0.519c0,0 -0.4237,-2.4451 -0.6248,-3.8452 -0.2012,-1.4009 0.2252,-1.8411 0.7292,-1.9942 0.0316,-0.0097 0.0943,-0.025 0.0943,-0.025z"/>
    <path id="_175379016" class="fil7" d="M65.5037 30.365c0.4775,-0.0914 0.9819,0.223 1.1922,1.4535 0.2245,1.3133 0.5982,3.8847 0.5982,3.8847l-1.9879 0.5332c0,0 -0.4203,-2.4531 -0.6215,-3.8534 -0.201,-1.4009 0.2207,-1.84 0.7249,-1.993 0.0315,-0.0097 0.0623,-0.0189 0.0941,-0.025z"/>
    <path id="_175379184" class="fil6 str28" d="M65.5037 30.365c0.4775,-0.0914 0.9819,0.223 1.1922,1.4535 0.2245,1.3133 0.5982,3.8847 0.5982,3.8847l-1.9879 0.5332c0,0 -0.4203,-2.4531 -0.6215,-3.8534 -0.201,-1.4009 0.2207,-1.84 0.7249,-1.993 0,0 0.0941,-0.025 0.0941,-0.025z"/>
    <line id="_175379472" class="fil6 str27" x1="71.7639" y1="35.9233" x2="71.5507" y2= "34.5918" />
    <line id="_175379664" class="fil6 str27" x1="66.5211" y1="37.3101" x2="66.308" y2= "35.9784" />
    <line id="_175379784" class="fil6 str27" x1="69.1646" y1="36.7499" x2="69.8346" y2= "40.9351" />
    <line id="_175379280" class="fil6 str20" x1="76.5696" y1="48.6106" x2="75.7801" y2= "43.6776" />
    <line id="_174897560" class="fil6 str20" x1="66.0039" y1="51.4051" x2="65.2143" y2= "46.4719" />
    <line id="_174898112" class="fil6 str29" x1="75.1085" y1="39.4808" x2="74.4397" y2= "35.3022" />
    <line id="_174897440" class="fil6 str29" x1="64.5425" y1="42.2754" x2="63.8737" y2= "38.0967" />
    <line id="_174896912" class="fil6 str30" x1="67.8151" y1="28.3171" x2="68.5045" y2= "32.6244" />
    <line id="_174898856" class="fil6 str30" x1="73.7684" y1="31.1081" x2="73.1172" y2= "27.0386" />
    <line id="_174898328" class="fil6 str30" x1="63.2025" y1="33.9025" x2="62.5512" y2= "29.833" />
    <path id="_175379448" class="fil5 str28" d="M69.412 38.3664c1.7265,-0.5054 3.5718,0.0428 4.1377,3.2767 0.5663,3.2352 1.2577,8.2904 1.2577,8.2904l-1.2933 0.459c-0.0732,-0.5119 -0.7241,-4.8179 -1.1677,-7.4181 -0.1192,-0.6983 -0.2164,-1.2755 -0.4097,-1.7183 -0.0964,-0.2214 -0.2038,-0.4136 -0.3141,-0.5788 -0.1103,-0.1652 -0.1806,-0.3168 -0.3016,-0.4308 -0.1208,-0.1138 -0.215,-0.2082 -0.3432,-0.2761 -0.1285,-0.0678 -0.2323,-0.1241 -0.365,-0.1507 -0.265,-0.0537 -0.7502,-0.0862 -1.0135,-0.0061 -0.2634,0.08 -0.6068,0.3379 -0.8306,0.5178 -0.112,0.0899 -0.1708,0.1866 -0.2662,0.3096 -0.0954,0.1231 -0.1202,0.2407 -0.1947,0.4025 -0.0744,0.1619 -0.1499,0.349 -0.199,0.5549 -0.049,0.2063 -0.0836,0.4412 -0.103,0.6976 -0.0387,0.5118 0.0667,1.1074 0.1663,1.8541 0.3709,2.7807 1.1064,6.8701 1.19,7.3489l-1.3602 0.2424c0,0 -0.8583,-4.7396 -1.333,-8.1985 -0.4749,-3.4603 1.0167,-4.6707 2.7431,-5.1765z"/>
    <path id="_174896888" class="fil7 str28" d="M73.5038 50.2847c0,0 -0.6744,-4.6776 -1.1515,-7.472 -0.4768,-2.7931 -1.6535,-3.3774 -2.7142,-3.0544 -1.0604,0.3227 -1.9466,1.2646 -1.5181,4.2447 0.4283,2.9792 1.1968,7.3921 1.1968,7.3921l4.187 -1.1104z"/>
    <line id="_174897152" class="fil6 str31" x1="70.4483" y1="27.7036" x2="69.7947" y2= "23.6206" />
    <line id="_174897344" class="fil6 str31" x1="65.2055" y1="29.0901" x2="64.552" y2= "25.0071" />
    <line id="_174897512" class="fil6 str20" x1="74.4975" y1="19.5945" x2="80.3877" y2= "24.9263" />
    <line id="_174897704" class="fil6 str20" x1="73.4639" y1="22.6392" x2="78.8731" y2= "26.8636" />
    <line id="_174897128" class="fil6 str20" x1="78.2161" y1="43.0033" x2="80.9367" y2= "43.2988" />
    <path id="_174898016" class="fil6 str20" d="M76.7362 39.0129c0.3678,0 3.1979,0.514 3.1979,0.514"/>
    <line id="_174898184" class="fil6 str20" x1="75.8183" y1="34.9465" x2="78.8837" y2= "35.4786" />
    <line id="_174898352" class="fil6 str20" x1="75.0242" y1="30.8412" x2="79.8733" y2= "32.1577" />
    <line id="_174898568" class="fil6 str20" x1="74.1968" y1="26.742" x2="79.2507" y2= "29.2775" />
    <line id="_174896864" class="fil6 str20" x1="78.3793" y1="39.2779" x2="79.5935" y2= "43.0762" />
    <path id="_174898784" class="fil6 str20" d="M77.4917 35.1777c-0.3439,-1.2945 -0.661,-2.5893 -0.9341,-3.8842"/>
    <line id="_175419400" class="fil6 str20" x1="75.7636" y1="27.4522" x2="75.2167" y2= "24.0061" />
    <line id="_174898160" class="fil6 str20" x1="78.0995" y1="28.7041" x2="77.6871" y2= "25.9304" />
    <path id="_175418392" class="fil6 str20" d="M79.5394 35.448c-0.3769,-1.0874 -0.725,-2.5069 -0.9076,-3.6139"/>
    <line id="_175419064" class="fil6 str20" x1="77.0731" y1="28.1452" x2="77.6847" y2= "31.5115" />
    <path id="_175419520" class="fil5" d="M131.861 16.6262l-0.717 0.9767 0.2527 3.1432 1.5271 -1.2861 0.0719 -2.4551 -1.1347 -0.3787zm-1.7133 2.1956l-0.693 0.8961 0.2527 3.1433 1.5273 -1.2866 0.0479 -2.374 -1.1349 -0.3788zm-1.737 2.2633l-0.6451 0.7634 0.2527 3.1431 1.5354 -1.2863 0 -2.2411 -1.143 -0.3791z"/>
    <polygon id="_175419040" class="fil6 str20" points="131.861,16.6262 131.144,17.6029 131.396,20.7461 132.923,19.46 132.995,17.0049 "/>
    <polygon id="_175418824" class="fil6 str20" points="130.147,18.8218 129.454,19.7179 129.707,22.8612 131.234,21.5746 131.282,19.2006 "/>
    <polygon id="_175418224" class="fil6 str20" points="128.41,21.0851 127.765,21.8485 128.018,24.9916 129.553,23.7053 129.553,21.4642 "/>
    <polygon id="_175417768" class="fil5 str20" points="142.632,16.9279 141.539,17.8677 141.539,19.6635 143.498,19.6635 143.498,17.5733 "/>
    <polygon id="_175417720" class="fil5 str20" points="147.217,18.2046 146.079,19.1442 146.079,20.9402 148.037,20.9402 148.037,18.8496 "/>
    <path id="_175418080" class="fil5 str26" d="M133.576 14.4058l-0.7616 0.9688 0 2.5321 -0.9047 0.8939 -0.0089 -2.2671 -0.8333 1.0592 0 2.0853 -0.9047 0.9023 -0.0089 -1.8288 -0.851 1.076 0 1.622 -0.9047 0.9188 -0.0089 -1.3819 -0.8603 1.093 0.0449 2.6983c0.7262,0.7805 1.4732,0.9435 1.5504,2.1702 -0.299,2.0022 -0.7695,5.0973 -1.7924,8.2845l2.0057 0.3051c-0.5963,3.8075 -2.2794,8.4191 -3.7164,12.2026l7.3787 1.1802 3.6217 -28.7218 -3.0456 -5.7927z"/>
    <polygon id="_175418296" class="fil5 str20" points="138.062,15.637 137.076,16.5911 137.076,18.3867 139.034,18.3867 139.034,16.2966 "/>
    <path id="_175418488" class="fil5 str20" d="M133.65 14.3583l-0.1369 5.1963c1.206,1.0719 1.0154,2.0735 1.0527,3.0153 -1.6772,10.3315 -3.8343,19.5519 -6.9884,26.4335l8.6466 2.2869 0.5701 0.1509 8.6357 2.2839c-0.7847,-7.9235 0.076,-17.4867 1.7078,-27.8305 0.452,-1.0519 1.2248,-1.5046 2.3472,-1.8487l0.137 -5.1966 -2.2816 -0.6416 -0.0171 2.1083 -2.2288 -0.6789 -0.0359 -2.0711 -2.2818 -0.6415 0.0085 2.1803 -2.2243 -0.6314 -0.0655 -2.1905 -2.2817 -0.6416 -0.0114 2.3036 -2.2172 -0.609 -0.0532 -2.3363 -2.2818 -0.6413z"/>
    <polygon id="_175418656" class="fil6 str20" points="133.531,19.5564 149.424,23.9605 "/>
    <polygon id="_175418920" class="fil6 str20" points="134.629,22.5838 147.064,25.8725 "/>
    <line id="_175419208" class="fil6 str20" x1="129.993" y1="43.0154" x2="145.049" y2= "46.9972" />
    <line id="_175419352" class="fil6 str20" x1="131.171" y1="38.9953" x2="145.171" y2= "42.6979" />
    <line id="_175419544" class="fil6 str20" x1="132.198" y1="34.9354" x2="145.474" y2= "38.4466" />
    <line id="_175417792" class="fil6 str20" x1="133.104" y1="30.8435" x2="145.898" y2= "34.2274" />
    <line id="_175419136" class="fil6 str20" x1="133.86" y1="26.712" x2="146.503" y2= "30.0554" />
    <path id="_175418872" class="fil7" d="M137.259 28.9779c-0.4774,-0.0914 -0.9817,0.223 -1.192,1.4537 -0.2245,1.3134 -0.5996,3.8917 -0.5996,3.8917l1.9904 0.519c0,0 0.4239,-2.4451 0.6248,-3.8452 0.201,-1.4009 -0.2253,-1.8411 -0.7291,-1.9942 -0.0319,-0.0097 -0.0625,-0.019 -0.0945,-0.025z"/>
    <path id="_174880136" class="fil6 str32" d="M137.259 28.9779c-0.4774,-0.0914 -0.9817,0.223 -1.192,1.4537 -0.2245,1.3134 -0.5996,3.8917 -0.5996,3.8917l1.9904 0.519c0,0 0.4239,-2.4451 0.6248,-3.8452 0.201,-1.4009 -0.2253,-1.8411 -0.7291,-1.9942 -0.0319,-0.0097 -0.0945,-0.025 -0.0945,-0.025z"/>
    <path id="_174880472" class="fil7" d="M142.503 30.365c-0.4772,-0.0914 -0.9818,0.223 -1.1921,1.4535 -0.2242,1.3136 -0.5984,3.8847 -0.5981,3.8847l1.9881 0.5332c0,0 0.4201,-2.4531 0.621,-3.8534 0.2014,-1.4009 -0.2206,-1.84 -0.7247,-1.993 -0.0312,-0.0097 -0.0625,-0.0189 -0.0942,-0.025z"/>
    <path id="_174880016" class="fil6 str32" d="M142.503 30.365c-0.4772,-0.0914 -0.9818,0.223 -1.1921,1.4535 -0.2242,1.3136 -0.5981,3.8847 -0.5981,3.8847l1.9881 0.5332c0,0 0.4201,-2.4531 0.621,-3.8534 0.2014,-1.4009 -0.2206,-1.84 -0.7247,-1.993 0,0 -0.0942,-0.025 -0.0942,-0.025z"/>
    <line id="_174880280" class="fil6 str27" x1="136.243" y1="35.9233" x2="136.457" y2= "34.5918" />
    <line id="_174880448" class="fil6 str27" x1="141.486" y1="37.3101" x2="141.699" y2= "35.9784" />
    <line id="_174880616" class="fil6 str20" x1="138.842" y1="36.7499" x2="138.173" y2= "40.9351" />
    <line id="_174880808" class="fil6 str20" x1="131.438" y1="48.6106" x2="132.227" y2= "43.6776" />
    <line id="_174880856" class="fil6 str20" x1="142.003" y1="51.4051" x2="142.793" y2= "46.4719" />
    <line id="_118976864" class="fil6 str29" x1="132.899" y1="39.4808" x2="133.568" y2= "35.3022" />
    <line id="_118976960" class="fil6 str29" x1="143.465" y1="42.2754" x2="144.133" y2= "38.0967" />
    <line id="_118977008" class="fil6 str30" x1="140.192" y1="28.3171" x2="139.503" y2= "32.6244" />
    <line id="_118977104" class="fil6 str30" x1="134.239" y1="31.1081" x2="134.89" y2= "27.0386" />
    <line id="_118977200" class="fil6 str30" x1="144.805" y1="33.9025" x2="145.456" y2= "29.833" />
    <path id="_174880232" class="fil5" d="M138.595 38.3664c-1.7266,-0.5054 -3.5716,0.0428 -4.1379,3.2767 -0.5661,3.2352 -1.2576,8.2907 -1.2576,8.2904l1.2933 0.459c0.0733,-0.5119 0.7241,-4.8179 1.1678,-7.4181 0.1191,-0.6983 0.2164,-1.2755 0.4095,-1.7183 0.0966,-0.2214 0.2038,-0.4136 0.314,-0.5788 0.1104,-0.1652 0.1811,-0.3168 0.3019,-0.4308 0.1208,-0.1138 0.215,-0.2082 0.3433,-0.2761 0.1282,-0.0678 0.2321,-0.1241 0.3646,-0.1507 0.2652,-0.0537 0.7503,-0.0862 1.0138,-0.0061 0.2634,0.08 0.6066,0.3379 0.8307,0.5178 0.1119,0.0899 0.1707,0.1866 0.2661,0.3097 0.0955,0.123 0.1202,0.2406 0.1947,0.4024 0.0746,0.1619 0.1498,0.349 0.1989,0.5549 0.0491,0.2063 0.0838,0.4412 0.103,0.6976 0.0388,0.5118 -0.0668,1.1074 -0.1664,1.8541 -0.3708,2.7807 -1.1063,6.8701 -1.19,7.3489l1.3606 0.2427c0,0 0.858,-4.7399 1.333,-8.1988 0.4745,-3.4603 -1.0169,-4.6707 -2.7433,-5.1765z"/>
    <path id="_118977752" class="fil6 str32" d="M138.595 38.3664c-1.7266,-0.5054 -3.5716,0.0428 -4.1379,3.2767 -0.5661,3.2352 -1.2576,8.2904 -1.2576,8.2904l1.2933 0.459c0.0733,-0.5119 0.7241,-4.8179 1.1678,-7.4181 0.1191,-0.6983 0.2164,-1.2755 0.4095,-1.7183 0.0966,-0.2214 0.2038,-0.4136 0.314,-0.5788 0.1104,-0.1652 0.1811,-0.3168 0.3019,-0.4308 0.1208,-0.1138 0.215,-0.2082 0.3433,-0.2761 0.1282,-0.0678 0.2321,-0.1241 0.3646,-0.1507 0.2652,-0.0537 0.7503,-0.0862 1.0138,-0.0061 0.2634,0.08 0.6066,0.3379 0.8307,0.5178 0.1119,0.0899 0.1707,0.1866 0.2661,0.3097 0.0955,0.123 0.1202,0.2406 0.1947,0.4024 0.0746,0.1619 0.1498,0.349 0.1989,0.5549 0.0491,0.2063 0.0838,0.4412 0.103,0.6976 0.0388,0.5118 -0.0668,1.1074 -0.1664,1.8541 -0.3708,2.7807 -1.1063,6.8701 -1.19,7.3489l1.3606 0.2427c0,0 0.858,-4.7399 1.333,-8.1988 0.4745,-3.4603 -1.0169,-4.6707 -2.7433,-5.1765z"/>
    <path id="_118977656" class="fil7 str32" d="M134.504 50.2847c0,0 0.6745,-4.6776 1.1515,-7.472 0.4769,-2.7931 1.6537,-3.3774 2.7142,-3.0544 1.0603,0.3227 1.9464,1.2646 1.5181,4.2447 -0.4283,2.9792 -1.197,7.3921 -1.197,7.3921l-4.1868 -1.1104z"/>
    <line id="_118977632" class="fil6 str31" x1="137.559" y1="27.7036" x2="138.213" y2= "23.6206" />
    <line id="_118802256" class="fil6 str31" x1="142.802" y1="29.0901" x2="143.455" y2= "25.0071" />
    <line id="_118802136" class="fil6 str20" x1="133.51" y1="19.5945" x2="127.62" y2= "24.9263" />
    <line id="_118802040" class="fil6 str20" x1="134.543" y1="22.6392" x2="129.134" y2= "26.8636" />
    <line id="_118802160" class="fil6 str20" x1="129.791" y1="43.0033" x2="127.071" y2= "43.2988" />
    <path id="_118801800" class="fil6 str20" d="M131.271 39.0129c-0.3677,0 -3.1978,0.514 -3.1978,0.514"/>
    <line id="_118801752" class="fil6 str20" x1="132.189" y1="34.9465" x2="129.124" y2= "35.4786" />
    <line id="_118801608" class="fil6 str20" x1="132.983" y1="30.8412" x2="128.134" y2= "32.1577" />
    <line id="_119130256" class="fil6 str20" x1="133.811" y1="26.742" x2="128.757" y2= "29.2775" />
    <line id="_118801632" class="fil6 str20" x1="129.628" y1="39.2779" x2="128.414" y2= "43.0762" />
    <path id="_119130184" class="fil6 str20" d="M130.516 35.1777c0.344,-1.2945 0.661,-2.5893 0.934,-3.8842"/>
    <line id="_119129584" class="fil6 str20" x1="132.244" y1="27.4522" x2="132.791" y2= "24.0061" />
    <line id="_118801896" class="fil6 str20" x1="129.908" y1="28.7041" x2="130.32" y2= "25.9304" />
    <path id="_119129872" class="fil6 str20" d="M128.468 35.448c0.3769,-1.0874 0.7248,-2.5069 0.9074,-3.6139"/>
    <line id="_119129728" class="fil6 str20" x1="130.934" y1="28.1452" x2="130.323" y2= "31.5115" />
    <polygon id="_119129560" class="fil5 str33" points="172.183,31.1303 170.846,31.6531 171.046,33.7537 172.648,33.6973 172.747,31.6175 "/>
    <polygon id="_119345272" class="fil5 str33" points="174.893,33.5384 173.555,34.0612 173.755,36.1623 175.358,36.1054 175.457,34.0257 "/>
    <polygon id="_119345032" class="fil5 str33" points="169.428,28.7079 168.09,29.2306 168.291,31.3317 169.893,31.2748 169.992,29.1951 "/>
    <polygon id="_119345248" class="fil5 str33" points="162.509,27.8752 163.278,28.4818 163.518,30.09 162.539,30.5844 162.172,28.0929 "/>
    <polygon id="_119345152" class="fil5 str33" points="164.467,26.95 165.235,27.5568 165.475,29.165 164.497,29.6589 164.129,27.1681 "/>
    <polygon id="_117890992" class="fil5 str33" points="160.461,28.8034 161.23,29.4101 161.47,31.0181 160.491,31.5127 160.124,29.0214 "/>
    <path id="_68819016" class="fil5 str34" d="M164.498 26.9138l-0.9422 0.4471 0.215 2.0362 -1.0132 0.4328 -0.2235 -1.9943 -1.0055 0.4743 0.2076 1.97 -1.0133 0.4247 -0.216 -1.92 -0.9977 0.4651 0.4349 3.6006c0.2746,0.6154 0.5864,1.2323 0.463,1.8618 -1.1065,2.7081 -2.6754,5.2351 -4.4705,7.6792l2.0679 0.8958c-1.5415,3.1596 -3.3581,6.2143 -5.6148,9.0782l7.2678 4.1086 10.8159 -20.3227 -2.6263 -4.9873 -0.6559 -4.4198 -0.8253 -0.6987 -0.8464 0.3937 0.2223 2.0773 -1.0132 0.433 -0.2306 -2.0356z"/>
    <path id="_174765856" class="fil5 str34" d="M166.575 26.1724l0.3616 3.6583c0.2727,0.7952 0.3152,1.5806 -0.0215,2.3499 -3.1591,7.8187 -7.7398,16.8994 -11.1438,21.2898l6.3952 2.9845 0.3332 0.3531 5.0483 5.3449c1.1011,-6.8281 3.8533,-14.7898 6.9857,-22.6369 0.3887,-0.4259 1.4063,-1.0231 1.8798,-1.1341l-0.1079 -3.5567 -1.3915 -1.2631 0.0263 1.606 -1.3974 -1.2481 -0.0188 -1.5954 -1.3907 -1.2475 0.0212 1.6188 -1.3482 -1.2425 -0.0603 -1.5534 -1.3918 -1.2731 0.0582 1.6174 -1.3949 -1.2472 -0.052 -1.5754 -1.3907 -1.2493z"/>
    <polygon id="_174764392" class="fil6 str33" points="166.899,29.9185 176.368,38.4101 "/>
    <polygon id="_174761872" class="fil6 str35" points="166.746,32.5143 174.571,39.4323 "/>
    <line id="_174762520" class="fil6 str35" x1="158.979" y1="48.6479" x2="168.539" y2= "57.1411" />
    <line id="_174762952" class="fil6 str35" x1="160.759" y1="45.6545" x2="169.569" y2= "53.4428" />
    <line id="_174763384" class="fil6 str35" x1="162.358" y1="42.4599" x2="170.712" y2= "49.8458" />
    <line id="_174763840" class="fil6 str35" x1="163.881" y1="39.198" x2="171.932" y2= "46.3154" />
    <line id="_174762400" class="fil6 str35" x1="165.309" y1="35.8524" x2="173.265" y2= "42.8859" />
    <path id="_174761752" class="fil7 str36" d="M167.147 38.9318c-0.3081,-0.2351 -0.7241,-0.1263 -1.1393,0.875 -0.4433,1.0686 -1.2682,3.1877 -1.2682,3.1877l1.2541 1.1008c0,0 0.8291,-1.9872 1.2753,-3.1391 0.4463,-1.1522 0.2501,-1.674 -0.0628,-1.9719 -0.0194,-0.0185 -0.0385,-0.0367 -0.0591,-0.0525z"/>
    <path id="_174760216" class="fil7 str36" d="M170.448 41.8496c-0.3081,-0.2353 -0.7239,-0.1263 -1.1392,0.875 -0.4432,1.0684 -1.266,3.1819 -1.266,3.1819l1.2498 1.1126c0,0 0.8282,-1.9959 1.2744,-3.1477 0.4467,-1.1523 0.2531,-1.6719 -0.0597,-1.9693 -0.0194,-0.0187 -0.0387,-0.0367 -0.0593,-0.0525z"/>
    <line id="_174759592" class="fil6 str35" x1="164.922" y1="44.6392" x2="165.361" y2= "43.551" />
    <line id="_174760432" class="fil6 str35" x1="168.221" y1="47.5558" x2="168.66" y2= "46.4676" />
    <line id="_174762712" class="fil6 str35" x1="166.526" y1="46.206" x2="165.146" y2= "49.6261" />
    <line id="_174763144" class="fil6 str35" x1="158.557" y1="54.7106" x2="160.455" y2= "50.0703" />
    <line id="_174764368" class="fil6 str35" x1="165.476" y1="59.9792" x2="167.104" y2= "55.9481" />
    <line id="_174765472" class="fil6 str35" x1="161.84" y1="46.6405" x2="163.219" y2= "43.2257" />
    <line id="_174764248" class="fil6 str35" x1="168.489" y1="52.5187" x2="169.868" y2= "49.1036" />
    <line id="_174765136" class="fil6 str35" x1="169.309" y1="39.3143" x2="167.888" y2= "42.8345" />
    <line id="_174765040" class="fil6 str35" x1="164.603" y1="39.7983" x2="165.946" y2= "36.4726" />
    <line id="_174766216" class="fil6 str35" x1="171.251" y1="45.6762" x2="172.594" y2= "42.351" />
    <path id="_174759664" class="fil5 str37" d="M166.001 47.5309c-1.0758,-1.0032 -2.4649,-1.1285 -3.5652,1.4983 -1.1013,2.628 -2.6883,6.7979 -2.6883,6.7979l0.7883 0.8211c0.163,-0.4216 1.5572,-3.9527 2.4345,-6.0686 0.2356,-0.5684 0.4292,-1.0384 0.6595,-1.3602 0.1149,-0.1614 0.2309,-0.2933 0.3429,-0.401 0.1122,-0.1076 0.1942,-0.2166 0.3025,-0.2762 0.1079,-0.0595 0.1935,-0.1109 0.2967,-0.1278 0.103,-0.0172 0.1868,-0.0322 0.2838,-0.012 0.1941,0.0399 0.5348,0.1701 0.6984,0.3257 0.1633,0.1557 0.3426,0.4916 0.4569,0.721 0.0572,0.1147 0.0764,0.2179 0.115,0.3562 0.0386,0.1381 0.0295,0.2485 0.0451,0.4133 0.0158,0.1654 0.0264,0.3523 0.0149,0.5479 -0.0117,0.1953 -0.0394,0.4106 -0.0825,0.6397 -0.086,0.4578 -0.2896,0.9412 -0.5225,1.5578 -0.8664,2.2968 -2.2716,5.6122 -2.4343,6.0009l0.8817 0.6553c0,0 1.6327,-3.841 2.7199,-6.6935 1.0876,-2.8534 0.3281,-4.3929 -0.7473,-5.3958z"/>
    <path id="_174765328" class="fil7 str37" d="M160.567 56.5577c0,0 1.4924,-3.8469 2.435,-6.1208 0.9422,-2.2725 1.8794,-2.3967 2.5379,-1.7698 0.658,0.6266 1.0599,1.7348 0.1099,4.1864 -0.9497,2.4502 -2.4485,6.036 -2.4485,6.036l-2.6343 -2.3318z"/>
    <line id="_174764872" class="fil6 str35" x1="167.634" y1="37.9221" x2="168.981" y2= "34.585" />
    <line id="_174764512" class="fil6 str35" x1="170.933" y1="40.8385" x2="172.28" y2= "37.5018" />
    <line id="_174764200" class="fil6 str33" x1="166.801" y1="32.6027" x2="160.353" y2= "34.8745" />
    <line id="_174763744" class="fil6 str33" x1="167.025" y1="30.0122" x2="159.988" y2= "32.8439" />
    <line id="_174765016" class="fil6 str33" x1="165.367" y1="35.9164" x2="159.186" y2= "37.3579" />
    <path id="_174763000" class="fil6 str33" d="M163.852 39.2456c-0.1989,-0.0021 -6.5488,1.2678 -6.5488,1.2678"/>
    <line id="_174762496" class="fil6 str33" x1="162.223" y1="42.6019" x2="158.01" y2= "43.2975" />
    <line id="_174762136" class="fil6 str33" x1="160.596" y1="45.6747" x2="156.471" y2= "46.2011" />
    <line id="_174761848" class="fil6 str33" x1="158.971" y1="48.7196" x2="154.473" y2= "49.469" />
    <line id="_174761224" class="fil6 str33" x1="161.534" y1="34.4107" x2="160.415" y2= "37.0451" />
    <line id="_174760696" class="fil6 str33" x1="164.862" y1="33.2625" x2="163.644" y2= "36.321" />
    <line id="_174760168" class="fil6 str33" x1="158.722" y1="40.1461" x2="157.033" y2= "42.9167" />
    <line id="_174759856" class="fil6 str33" x1="161.949" y1="39.6107" x2="160.206" y2= "42.9006" />
    <line id="_174759400" class="fil6 str33" x1="158.514" y1="45.9071" x2="156.725" y2= "49.1018" />
    <line id="_174759376" class="fil6 str33" x1="160.193" y1="39.9246" x2="161.887" y2= "36.729" />
    <polygon id="_174765544" class="fil5 str33" points="35.4744,31.1303 36.8125,31.6531 36.6123,33.7537 35.01,33.6973 34.9113,31.6175 "/>
    <polygon id="_174759544" class="fil5 str33" points="32.7647,33.5384 34.1029,34.0612 33.9025,36.1623 32.3002,36.1054 32.2016,34.0257 "/>
    <polygon id="_174760000" class="fil5 str33" points="38.2297,28.7079 39.568,29.2306 39.3674,31.3317 37.7651,31.2748 37.6666,29.1951 "/>
    <polygon id="_174760192" class="fil5 str33" points="45.1487,27.8752 44.3801,28.4818 44.1401,30.09 45.1189,30.5844 45.4858,28.0929 "/>
    <polygon id="_174760456" class="fil5 str33" points="43.1916,26.95 42.423,27.5568 42.1829,29.165 43.1618,29.6589 43.5286,27.1681 "/>
    <polygon id="_174760672" class="fil5 str33" points="47.1972,28.8034 46.4285,29.4101 46.1885,31.0181 47.1675,31.5127 47.5342,29.0214 "/>
    <path id="_174760888" class="fil5 str34" d="M43.1606 26.9138l0.942 0.4471 -0.215 2.0362 1.0133 0.4328 0.2233 -1.9943 1.0056 0.4743 -0.2075 1.97 1.0132 0.4247 0.2161 -1.92 0.9977 0.4651 -0.4349 3.6006c-0.2748,0.6154 -0.5865,1.2323 -0.4631,1.8618 1.1065,2.7081 2.6753,5.2351 4.4704,7.6792l-2.0677 0.8958c1.5413,3.1596 3.3581,6.2143 5.6147,9.0782l-7.2678 4.1086 -10.816 -20.3227 2.6264 -4.9873 0.6561 -4.4198 0.8255 -0.6987 0.846 0.3937 -0.2223 2.0773 1.0133 0.433 0.2307 -2.0356z"/>
    <path id="_174761104" class="fil5 str34" d="M41.0832 26.1724l-0.3616 3.6583c-0.2726,0.7952 -0.3152,1.5806 0.0217,2.3499 3.1589,7.8187 7.7396,16.8994 11.1435,21.2898l-6.3949 2.9845 -0.3331 0.3531 -5.0485 5.3449c-1.1013,-6.8281 -3.8536,-14.7898 -6.9859,-22.6369 -0.3885,-0.4259 -1.4064,-1.0231 -1.8799,-1.1341l0.1081 -3.5567 1.3912 -1.2631 -0.0262 1.606 1.3974 -1.2481 0.019 -1.5954 1.3904 -1.2475 -0.0212 1.6188 1.3488 -1.2425 0.0603 -1.5534 1.3915 -1.2731 -0.0582 1.6174 1.395 -1.2472 0.0522 -1.5754 1.3904 -1.2493z"/>
    <polygon id="_174761272" class="fil6 str33" points="40.7594,29.9185 31.2904,38.4101 "/>
    <polygon id="_174764104" class="fil6 str35" points="40.9125,32.5143 33.0871,39.4323 "/>
    <line id="_174763912" class="fil6 str35" x1="48.6798" y1="48.6479" x2="39.1189" y2= "57.1411" />
    <line id="_174763672" class="fil6 str35" x1="46.8996" y1="45.6545" x2="38.0896" y2= "53.4428" />
    <line id="_174763456" class="fil6 str35" x1="45.3005" y1="42.4599" x2="36.946" y2= "49.8458" />
    <line id="_174763240" class="fil6 str35" x1="43.7774" y1="39.198" x2="35.7265" y2= "46.3154" />
    <line id="_174763864" class="fil6 str35" x1="42.3492" y1="35.8524" x2="34.3929" y2= "42.8859" />
    <path id="_174764920" class="fil7 str36" d="M40.5109 38.9318c0.308,-0.2351 0.7241,-0.1263 1.1392,0.875 0.4433,1.0686 1.2681,3.1877 1.2681,3.1877l-1.254 1.1008c0,0 -0.829,-1.9872 -1.2754,-3.1391 -0.4462,-1.1522 -0.25,-1.674 0.0628,-1.9719 0.0195,-0.0185 0.0386,-0.0367 0.0593,-0.0525z"/>
    <path id="_174762688" class="fil7 str36" d="M37.2105 41.8496c0.3081,-0.2353 0.7241,-0.1263 1.1393,0.875 0.4433,1.0684 1.2658,3.1819 1.2658,3.1819l-1.2495 1.1126c0,0 -0.8285,-1.9959 -1.2747,-3.1477 -0.4464,-1.1523 -0.2531,-1.6719 0.0598,-1.9693 0.0196,-0.0187 0.0387,-0.0367 0.0593,-0.0525z"/>
    <line id="_174762376" class="fil6 str35" x1="42.7367" y1="44.6392" x2="42.2973" y2= "43.551" />
    <line id="_174762160" class="fil6 str35" x1="39.4376" y1="47.5558" x2="38.9981" y2= "46.4676" />
    <line id="_174761944" class="fil6 str35" x1="41.1317" y1="46.206" x2="42.5128" y2= "49.6261" />
    <line id="_174761632" class="fil6 str35" x1="49.101" y1="54.7106" x2="47.2033" y2= "50.0703" />
    <line id="_174761728" class="fil6 str35" x1="42.1821" y1="59.9792" x2="40.5542" y2= "55.9481" />
    <line id="_174765736" class="fil6 str35" x1="45.8184" y1="46.6405" x2="44.4396" y2= "43.2257" />
    <line id="_174766264" class="fil6 str35" x1="39.1694" y1="52.5187" x2="37.7905" y2= "49.1036" />
    <line id="_174766096" class="fil6 str35" x1="38.3492" y1="39.3143" x2="39.7702" y2= "42.8345" />
    <line id="_174765952" class="fil6 str35" x1="43.0556" y1="39.7983" x2="41.7129" y2= "36.4726" />
    <line id="_175645448" class="fil6 str35" x1="36.4067" y1="45.6762" x2="35.0637" y2= "42.351" />
    <path id="_174762328" class="fil5 str37" d="M41.6574 47.5309c1.0755,-1.0032 2.4648,-1.1285 3.565,1.4983 1.1012,2.628 2.6882,6.7979 2.6882,6.7979l-0.7881 0.8211c-0.163,-0.4216 -1.5574,-3.9527 -2.4345,-6.0686 -0.2356,-0.5684 -0.4292,-1.0384 -0.6595,-1.3602 -0.115,-0.1614 -0.2311,-0.2933 -0.3433,-0.401 -0.112,-0.1076 -0.1939,-0.2166 -0.3022,-0.2762 -0.1081,-0.0595 -0.1934,-0.1109 -0.2967,-0.1278 -0.1031,-0.0172 -0.1869,-0.0322 -0.2838,-0.012 -0.1942,0.0399 -0.5349,0.1701 -0.6982,0.3257 -0.1634,0.1557 -0.3428,0.4916 -0.4571,0.721 -0.0573,0.1147 -0.0764,0.2179 -0.1149,0.3562 -0.0385,0.1381 -0.0297,0.2485 -0.0453,0.4133 -0.0157,0.1654 -0.0263,0.3523 -0.0147,0.5479 0.0116,0.1953 0.0394,0.4106 0.0824,0.6397 0.0861,0.4578 0.2896,0.9412 0.5223,1.5578 0.8665,2.2968 2.2717,5.6122 2.4345,6.0009l-0.8818 0.6553c0,0 -1.6326,-3.841 -2.7198,-6.6935 -1.0875,-2.8534 -0.3282,-4.3929 0.7475,-5.3958z"/>
    <path id="_181604096" class="fil7 str37" d="M47.0918 56.5577c0,0 -1.4926,-3.8469 -2.4352,-6.1208 -0.9423,-2.2725 -1.8796,-2.3967 -2.5377,-1.7698 -0.658,0.6266 -1.0602,1.7348 -0.1101,4.1864 0.9497,2.4502 2.4486,6.036 2.4486,6.036l2.6344 -2.3318z"/>
    <line id="_181604240" class="fil6 str35" x1="40.0243" y1="37.9221" x2="38.6769" y2= "34.585" />
    <line id="_181604336" class="fil6 str35" x1="36.7251" y1="40.8385" x2="35.3777" y2= "37.5018" />
    <line id="_181604432" class="fil6 str33" x1="40.8573" y1="32.6027" x2="47.3052" y2= "34.8745" />
    <line id="_181604528" class="fil6 str33" x1="40.6335" y1="30.0122" x2="47.6698" y2= "32.8439" />
    <line id="_181604216" class="fil6 str33" x1="42.2907" y1="35.9164" x2="48.4723" y2= "37.3579" />
    <path id="_181604696" class="fil6 str33" d="M43.8062 39.2456c0.1988,-0.0021 6.5488,1.2678 6.5488,1.2678"/>
    <line id="_181604816" class="fil6 str33" x1="45.4356" y1="42.6019" x2="49.6484" y2= "43.2975" />
    <line id="_181604912" class="fil6 str33" x1="47.0618" y1="45.6747" x2="51.1874" y2= "46.2011" />
    <line id="_181605008" class="fil6 str33" x1="48.6877" y1="48.7196" x2="53.1852" y2= "49.469" />
    <line id="_181605104" class="fil6 str33" x1="46.1238" y1="34.4107" x2="47.243" y2= "37.0451" />
    <line id="_181605200" class="fil6 str33" x1="42.7955" y1="33.2625" x2="44.0145" y2= "36.321" />
    <line id="_181605296" class="fil6 str33" x1="48.9362" y1="40.1461" x2="50.6254" y2= "42.9167" />
    <line id="_181605392" class="fil6 str33" x1="45.7096" y1="39.6107" x2="47.4522" y2= "42.9006" />
    <line id="_181605512" class="fil6 str33" x1="49.1442" y1="45.9071" x2="50.9331" y2= "49.1018" />
    <line id="_181605632" class="fil6 str33" x1="47.4656" y1="39.9246" x2="45.7714" y2= "36.729" />
    <path id="_181605728" class="fil5 str38" d="M103.901 50.2425c53.6509,0 62.8502,13.1805 60.4891,15.4316l0 -0.0001c13.9787,-5.1857 -6.7539,-19.8115 -60.4891,-19.8115 -53.7349,-0.0001 -74.841,14.6196 -60.4889,19.8116l0 -0.0001c-2.3612,-2.2512 6.8386,-15.4315 60.4889,-15.4315z"/>
    <path id="_181605608" class="fil6 str38" d="M127.734 46.9616c-5.2584,-0.532 -11.6591,0.295 -9.6573,3.5998"/>
    <path id="_181605920" class="fil6 str38" d="M138.942 48.3645c-7.4217,-1.0601 -11.2037,0.6366 -10.4716,2.8984"/>
    <path id="_181606016" class="fil6 str38" d="M157.594 53.0809c-7.7382,-2.0801 -11.3115,-0.5023 -10.7416,1.2475"/>
    <path id="_181606112" class="fil6 str38" d="M166.058 57.6468c-3.2707,-2.0976 -10.7524,-4.2727 -11.1309,-0.7087"/>
    <path id="_181606208" class="fil6 str38" d="M168.131 63.271c-0.0882,-4.6303 -7.0703,-4.7164 -6.8597,-2.9531"/>
    <path id="_181606304" class="fil6 str38" d="M93.3936 46.0642c-6.7286,0.3263 -9.2974,2.9821 -7.7904,4.7522"/>
    <path id="_181606400" class="fil6 str38" d="M83.1838 46.7042c-7.2325,0.9381 -8.0908,3.5688 -6.7288,4.8751"/>
    <path id="_181606496" class="fil6 str38" d="M49.4913 53.2868c-5.8604,2.4416 -4.0897,6.6907 -2.8182,6.98"/>
    <path id="_181606592" class="fil6 str38" d="M104.217 45.8753c-4.7005,-0.2406 -10.2425,1.7895 -7.4858,4.4309"/>
    <path id="_181606688" class="fil6 str38" d="M115.45 46.1301c-7.3792,-0.1807 -9.5176,2.012 -8.3935,4.1124"/>
    <path id="_181606784" class="fil6 str38" d="M149.096 50.4772c-10.3153,-1.9922 -11.4221,0.3521 -11.2444,2.0609"/>
    <path id="_181606880" class="fil6 str38" d="M42.069 57.1235c-1.6943,1.2049 -1.6994,5.2965 1.3204,6.3409"/>
    <path id="_181606976" class="fil6 str38" d="M56.8807 50.9315c-6.2332,1.4195 -5.2965,5.7865 -4.0998,6.2659"/>
    <path id="_181607072" class="fil6 str38" d="M64.0291 49.241c-6.3417,0.8808 -5.8127,5.1077 -4.6648,5.6544"/>
    <path id="_181607192" class="fil6 str38" d="M72.7128 47.805c-6.3402,0.8321 -6.4879,4.5239 -5.4276,5.2051"/>
    <path id="_181607288" class="fil5" d="M60.4306 61.5031c1.8375,-0.4938 3.7748,-0.0323 4.2955,2.8944 0.5209,2.9282 1.1301,7.5075 1.13,7.5075l-1.3784 0.4429c-0.065,-0.4638 -0.6495,-4.363 -1.0559,-6.7167 -0.1091,-0.6321 -0.1981,-1.1548 -0.3917,-1.5531 -0.0967,-0.1992 -0.2054,-0.3718 -0.3181,-0.5197 -0.1126,-0.1479 -0.1834,-0.2843 -0.3086,-0.3853 -0.125,-0.1011 -0.2223,-0.1848 -0.3562,-0.2439 -0.1342,-0.0592 -0.2426,-0.1081 -0.3821,-0.1297 -0.2791,-0.0433 -0.7912,-0.0633 -1.0716,0.0147 -0.2803,0.078 -0.6495,0.3192 -0.8907,0.4869 -0.1205,0.084 -0.185,0.173 -0.2888,0.2868 -0.1039,0.1136 -0.1328,0.2211 -0.2156,0.3694 -0.0826,0.1485 -0.1669,0.32 -0.2238,0.5085 -0.0569,0.1883 -0.099,0.4025 -0.1257,0.6354 -0.0532,0.4662 0.044,1.0049 0.1313,1.6814 0.3249,2.5194 1.004,6.2201 1.081,6.6531l-1.4441 0.2479c0,0 -0.7932,-4.2896 -1.2117,-7.4226 -0.4186,-3.1346 1.1874,-4.2638 3.0252,-4.7579z"/>
    <path id="_181607384" class="fil6 str39" d="M60.4306 61.5031c1.8375,-0.4938 3.7748,-0.0323 4.2955,2.8944 0.5209,2.9282 1.13,7.5075 1.13,7.5075l-1.3784 0.4429c-0.065,-0.4638 -0.6495,-4.363 -1.0559,-6.7167 -0.1091,-0.6321 -0.1981,-1.1548 -0.3917,-1.5531 -0.0967,-0.1992 -0.2054,-0.3718 -0.3181,-0.5197 -0.1126,-0.1479 -0.1834,-0.2843 -0.3086,-0.3853 -0.125,-0.1011 -0.2223,-0.1848 -0.3562,-0.2439 -0.1342,-0.0592 -0.2426,-0.1081 -0.3821,-0.1297 -0.2791,-0.0433 -0.7912,-0.0633 -1.0716,0.0147 -0.2803,0.078 -0.6495,0.3192 -0.8907,0.4869 -0.1205,0.084 -0.185,0.173 -0.2888,0.2868 -0.1039,0.1136 -0.1328,0.2211 -0.2156,0.3694 -0.0826,0.1485 -0.1669,0.32 -0.2238,0.5085 -0.0569,0.1883 -0.099,0.4025 -0.1257,0.6354 -0.0532,0.4662 0.044,1.0049 0.1313,1.6814 0.3249,2.5194 1.004,6.2201 1.081,6.6531l-1.4441 0.2479c0,0 -0.7932,-4.2896 -1.2117,-7.4226 -0.4186,-3.1346 1.1874,-4.2638 3.0252,-4.7579z"/>
    <path id="_181607528" class="fil7 str39" d="M64.4694 72.2498c0,0 -0.6004,-4.2366 -1.0375,-6.7658 -0.4368,-2.528 -1.6668,-3.0353 -2.7959,-2.7209 -1.1289,0.3142 -2.0888,1.1878 -1.7075,3.8871 0.381,2.6985 1.0871,6.6921 1.0871,6.6921l4.4538 -1.0925z"/>
    <path id="_181607624" class="fil5" d="M86.1496 57.2051c2.1392,-0.0882 4.2871,0.8635 4.5582,4.0998 0.2712,3.2379 0.4622,8.2524 0.4622,8.2522l-1.6122 0.1432c-0.0234,-0.5087 -0.2605,-4.7944 -0.4649,-7.3938 -0.0549,-0.6981 -0.0985,-1.2751 -0.2747,-1.7446 -0.0879,-0.2349 -0.1926,-0.4444 -0.3041,-0.6283 -0.1118,-0.1841 -0.1771,-0.346 -0.3081,-0.4834 -0.1309,-0.1369 -0.232,-0.2494 -0.3778,-0.3441 -0.1456,-0.0945 -0.2632,-0.1726 -0.4193,-0.2288 -0.312,-0.1127 -0.8908,-0.2555 -1.2176,-0.239 -0.3265,0.0164 -0.7718,0.1848 -1.0637,0.306 -0.1458,0.0603 -0.2288,0.1399 -0.359,0.2359 -0.1303,0.0963 -0.1748,0.2035 -0.2849,0.3419 -0.1101,0.1384 -0.2242,0.3005 -0.3096,0.4874 -0.0851,0.1867 -0.1563,0.4044 -0.2121,0.6461 -0.1111,0.4828 -0.0597,1.079 -0.0344,1.8192 0.0935,2.7562 0.4598,6.8528 0.5,7.332l-1.6658 -0.08c0,0 -0.4315,-4.7499 -0.5643,-8.1816 -0.1328,-3.4328 1.8132,-4.2518 3.9521,-4.3401z"/>
    <path id="_181607720" class="fil6 str40" d="M86.1496 57.2051c2.1392,-0.0882 4.2871,0.8635 4.5582,4.0998 0.2712,3.2379 0.4622,8.2522 0.4622,8.2522l-1.6122 0.1432c-0.0234,-0.5087 -0.2605,-4.7944 -0.4649,-7.3938 -0.0549,-0.6981 -0.0985,-1.2751 -0.2747,-1.7446 -0.0879,-0.2349 -0.1926,-0.4444 -0.3041,-0.6283 -0.1118,-0.1841 -0.1771,-0.346 -0.3081,-0.4834 -0.1309,-0.1369 -0.232,-0.2494 -0.3778,-0.3441 -0.1456,-0.0945 -0.2632,-0.1726 -0.4193,-0.2288 -0.312,-0.1127 -0.8908,-0.2555 -1.2176,-0.239 -0.3265,0.0164 -0.7718,0.1848 -1.0637,0.306 -0.1458,0.0603 -0.2288,0.1399 -0.359,0.2359 -0.1303,0.0963 -0.1748,0.2035 -0.2849,0.3419 -0.1101,0.1384 -0.2242,0.3005 -0.3096,0.4874 -0.0851,0.1867 -0.1563,0.4044 -0.2121,0.6461 -0.1111,0.4828 -0.0597,1.079 -0.0344,1.8192 0.0935,2.7562 0.4598,6.8528 0.5,7.332l-1.6658 -0.08c0,0 -0.4315,-4.7499 -0.5643,-8.1816 -0.1328,-3.4328 1.8132,-4.2518 3.9521,-4.3401z"/>
    <path id="_181607864" class="fil7 str40" d="M89.559 69.5941c0,0 -0.2185,-4.6482 -0.4383,-7.4418 -0.2196,-2.7924 -1.56,-3.6244 -2.8754,-3.5582 -1.3156,0.0658 -2.4998,0.7665 -2.362,3.7272 0.1375,2.9603 0.5028,7.3755 0.5028,7.3755l5.1729 -0.1027z"/>
    <path id="_181607960" class="fil5 str39" d="M147.227 61.5031c-1.8375,-0.4938 -3.7749,-0.0323 -4.2953,2.8944 -0.521,2.9282 -1.13,7.5075 -1.13,7.5075l1.3781 0.4429c0.0654,-0.4638 0.6497,-4.363 1.0562,-6.7167 0.1092,-0.6321 0.1978,-1.1548 0.3915,-1.5531 0.0968,-0.1992 0.2054,-0.3718 0.3182,-0.5197 0.1128,-0.1479 0.1833,-0.2843 0.3087,-0.3853 0.1249,-0.1011 0.2223,-0.1848 0.3561,-0.2439 0.1341,-0.0592 0.2426,-0.1081 0.3821,-0.1297 0.2793,-0.0433 0.7913,-0.0633 1.0718,0.0147 0.2803,0.078 0.6493,0.3192 0.8904,0.4869 0.1205,0.084 0.1851,0.173 0.289,0.2868 0.1037,0.1136 0.1328,0.2211 0.2156,0.3694 0.0826,0.1485 0.1669,0.32 0.2236,0.5085 0.057,0.1883 0.099,0.4025 0.1257,0.6354 0.0533,0.4662 -0.044,1.0049 -0.1313,1.6814 -0.3248,2.5194 -1.004,6.2201 -1.0809,6.6531l1.444 0.2479c0,0 0.7932,-4.2896 1.2118,-7.4226 0.419,-3.1346 -1.1875,-4.2638 -3.0253,-4.7579z"/>
    <path id="_181608104" class="fil7 str39" d="M143.189 72.2498c0,0 0.6003,-4.2366 1.0375,-6.7658 0.4371,-2.528 1.6669,-3.0353 2.7958,-2.7209 1.1291,0.3142 2.0888,1.1878 1.7075,3.8871 -0.3807,2.6985 -1.0872,6.6921 -1.0872,6.6921l-4.4536 -1.0925z"/>
    <path id="_181608200" class="fil5" d="M121.509 57.2051c-2.139,-0.0882 -4.287,0.8635 -4.558,4.0998 -0.2712,3.2379 -0.4624,8.2524 -0.4624,8.2522l1.6124 0.1432c0.0231,-0.5087 0.2605,-4.7944 0.4647,-7.3938 0.0549,-0.6981 0.0984,-1.2751 0.2746,-1.7446 0.0882,-0.2349 0.1925,-0.4444 0.3041,-0.6283 0.1121,-0.1841 0.1773,-0.346 0.3081,-0.4834 0.1312,-0.1369 0.2321,-0.2494 0.3778,-0.3441 0.1457,-0.0945 0.2635,-0.1726 0.4194,-0.2288 0.3119,-0.1127 0.8909,-0.2555 1.2175,-0.239 0.3267,0.0164 0.7718,0.1848 1.0638,0.306 0.146,0.0603 0.2288,0.1399 0.3589,0.2359 0.1305,0.0963 0.175,0.2035 0.285,0.3419 0.1101,0.1384 0.2243,0.3005 0.3096,0.4874 0.0849,0.1867 0.1565,0.4044 0.2121,0.6461 0.1113,0.4828 0.0598,1.079 0.0346,1.8192 -0.0938,2.7562 -0.46,6.8528 -0.5003,7.332l1.6659 -0.08c0,0 0.4317,-4.7499 0.5643,-8.1816 0.133,-3.4328 -1.8133,-4.2518 -3.9521,-4.3401z"/>
    <path id="_181608296" class="fil6 str40" d="M121.509 57.2051c-2.139,-0.0882 -4.287,0.8635 -4.558,4.0998 -0.2712,3.2379 -0.4624,8.2522 -0.4624,8.2522l1.6124 0.1432c0.0231,-0.5087 0.2605,-4.7944 0.4647,-7.3938 0.0549,-0.6981 0.0984,-1.2751 0.2746,-1.7446 0.0882,-0.2349 0.1925,-0.4444 0.3041,-0.6283 0.1121,-0.1841 0.1773,-0.346 0.3081,-0.4834 0.1312,-0.1369 0.2321,-0.2494 0.3778,-0.3441 0.1457,-0.0945 0.2635,-0.1726 0.4194,-0.2288 0.3119,-0.1127 0.8909,-0.2555 1.2175,-0.239 0.3267,0.0164 0.7718,0.1848 1.0638,0.306 0.146,0.0603 0.2288,0.1399 0.3589,0.2359 0.1305,0.0963 0.175,0.2035 0.285,0.3419 0.1101,0.1384 0.2243,0.3005 0.3096,0.4874 0.0849,0.1867 0.1565,0.4044 0.2121,0.6461 0.1113,0.4828 0.0598,1.079 0.0346,1.8192 -0.0938,2.7562 -0.46,6.8528 -0.5003,7.332l1.6659 -0.08c0,0 0.4317,-4.7499 0.5643,-8.1816 0.133,-3.4328 -1.8133,-4.2518 -3.9521,-4.3401z"/>
    <path id="_181608416" class="fil7 str40" d="M118.099 69.5941c0,0 0.2186,-4.6482 0.4382,-7.4418 0.2195,-2.7924 1.5599,-3.6244 2.8753,-3.5582 1.3154,0.0658 2.4999,0.7665 2.3622,3.7272 -0.1378,2.9603 -0.5031,7.3755 -0.5031,7.3755l-5.1726 -0.1027z"/>
    <path id="_181608536" class="fil5" d="M103.829 68.9954c-30.7794,0 -55.7618,4.7965 -55.7618,10.7085 0.0002,5.9121 24.9824,10.7085 55.7618,10.7085 30.7792,0 55.7617,-4.7964 55.7617,-10.7085 0.0002,-5.912 -24.9827,-10.7085 -55.7617,-10.7085zm0 3.7722c28.1391,0 50.9722,5.1823 50.9725,7.1251 0,2.0577 -22.8334,7.4201 -50.9725,7.4201 -28.1392,0 -50.9724,-5.3623 -50.9724,-7.4201 0,-1.9428 22.8332,-7.1251 50.9724,-7.1251z"/>
    <path id="_181608632" class="fil6 str41" d="M103.829 68.9954c-30.7794,0 -55.7618,4.7965 -55.7618,10.7085 0,5.9121 24.9824,10.7085 55.7618,10.7085 30.7792,0 55.7617,-4.7964 55.7617,-10.7085 0,-5.912 -24.9827,-10.7085 -55.7617,-10.7085z"/>
    <path id="_181608512" class="fil6 str41" d="M103.829 72.7676c28.1391,0 50.9725,5.1823 50.9725,7.1251 0,2.0577 -22.8334,7.4201 -50.9725,7.4201 -28.1392,0 -50.9724,-5.3623 -50.9724,-7.4201 0,-1.9428 22.8332,-7.1251 50.9724,-7.1251z"/>
    <path id="_181608608" class="fil6 str42" d="M124.219 69.7964c-4.5046,-0.4993 -9.9868,0.2768 -8.2724,3.3788"/>
    <path id="_181608920" class="fil6 str42" d="M133.691 70.6369c-6.8709,-0.7903 -9.8534,0.9572 -8.8413,3.0363"/>
    <path id="_181609016" class="fil6 str42" d="M150.139 73.7568c-6.7235,-1.7372 -10.3054,-0.2589 -8.7253,2.0452"/>
    <path id="_181609112" class="fil6 str42" d="M158.01 77.2227c-2.9539,-1.7035 -9.3671,-3.0507 -9.2498,0.2911"/>
    <path id="_181609208" class="fil6 str42" d="M158.693 81.5348c1.6357,-3.6903 -4.6018,-3.5243 -4.4214,-2.0738"/>
    <path id="_181609304" class="fil6 str42" d="M94.8042 69.1202c-5.7633,0.2899 -7.9637,2.6511 -6.6727,4.2255"/>
    <path id="_181609400" class="fil6 str42" d="M86.0588 69.5758c-6.1949,0.848 -6.9301,3.2253 -5.7634,4.4057"/>
    <path id="_181609496" class="fil6 str42" d="M57.1992 73.8355c-5.0198,1.7181 -3.5029,4.7081 -2.4142,4.9114"/>
    <path id="_181609592" class="fil6 str42" d="M104.075 68.9655c-4.0264,-0.2089 -8.7735,1.5515 -6.4122,3.8418"/>
    <path id="_181609688" class="fil6 str42" d="M113.698 69.1356c-6.3211,-0.1626 -8.1524,1.8094 -7.19,3.6984"/>
    <path id="_181609784" class="fil6 str42" d="M142.253 72.0196c-8.9501,-1.5783 -9.7442,0.8891 -9.4809,2.6425"/>
    <path id="_181609880" class="fil6 str42" d="M48.8895 77.8233c-0.7597,1.5762 0.9729,3.1463 3.9167,2.0835"/>
    <path id="_181609976" class="fil6 str42" d="M63.5286 72.2935c-5.3389,1.0964 -4.5367,4.4679 -3.5118,4.8381"/>
    <path id="_181610072" class="fil6 str42" d="M69.6517 71.2984c-5.432,0.7244 -4.979,4.2016 -3.9958,4.6512"/>
    <path id="_181610168" class="fil6 str42" d="M77.0901 70.3543c-5.431,0.7347 -5.5576,3.9963 -4.6494,4.598"/>
   </g>
  </g>
 </g>
</svg>
