<?xml version="1.0" encoding="UTF-8" standalone="no"?>
<svg
   xmlns:dc="http://purl.org/dc/elements/1.1/"
   xmlns:cc="http://creativecommons.org/ns#"
   xmlns:rdf="http://www.w3.org/1999/02/22-rdf-syntax-ns#"
   xmlns:svg="http://www.w3.org/2000/svg"
   xmlns="http://www.w3.org/2000/svg"
   xmlns:sodipodi="http://sodipodi.sourceforge.net/DTD/sodipodi-0.dtd"
   xmlns:inkscape="http://www.inkscape.org/namespaces/inkscape"
   inkscape:version="1.0 (4035a4fb49, 2020-05-01)"
   sodipodi:docname="Escut_de_Prullans.svg"
   xml:space="preserve"
   enable-background="new 0 0 605 975"
   viewBox="0 0 603.24261 725.13647"
   height="725.13647"
   width="603.24261"
   y="0px"
   x="0px"
   id="svg3194"
   version="1.1"><metadata
   id="metadata63925"><rdf:RDF><cc:Work
       rdf:about=""><dc:format>image/svg+xml</dc:format><dc:type
         rdf:resource="http://purl.org/dc/dcmitype/StillImage" /></cc:Work></rdf:RDF></metadata><defs
   id="defs63923" /><sodipodi:namedview
   inkscape:current-layer="svg3194"
   inkscape:window-maximized="1"
   inkscape:window-y="0"
   inkscape:window-x="0"
   inkscape:cy="237.51514"
   inkscape:cx="301.62117"
   inkscape:zoom="0.56512821"
   showgrid="false"
   id="namedview63921"
   inkscape:window-height="691"
   inkscape:window-width="1366"
   inkscape:pageshadow="2"
   inkscape:pageopacity="0"
   guidetolerance="10"
   gridtolerance="10"
   objecttolerance="10"
   borderopacity="1"
   bordercolor="#666666"
   pagecolor="#ffffff" />
<g
   transform="translate(457.60568,-729.445)"
   id="g3066">
	<path
   d="m 33.911,811.986 c 2.187,-4.755 7.809,-6.835 12.564,-4.649 4.751,2.185 6.83,7.807 4.646,12.562 -2.186,4.753 -7.808,6.833 -12.559,4.649 -4.755,-2.186 -6.837,-7.808 -4.651,-12.562 z"
   stroke="#010101"
   fill="#e3e4e5"
   id="path3446" />
	<path
   d="m -155.159,769.165 c -56.612,0.564 -113.875,0.617 -169.475,11.94 -12.408,3.739 -30.146,5.827 -34.804,19.07 -1.528,11.062 12.5,15.75 21.264,18.79 41.744,11.963 85.853,12.976 129.105,14.847 67.291,1.289 135.015,1.812 201.806,-7.122 18.247,-3.365 38.34,-5.442 53.345,-16.78 8.96,-8.379 -0.958,-20.095 -10.862,-22.505 -33.978,-12.447 -71.035,-13.782 -106.972,-16.316 -27.774,-1.448 -55.595,-1.906 -83.407,-1.924 z"
   stroke="#000000"
   fill="#eac102"
   id="path9052" />
	<path
   d="m -154.984,782.762 c -30.857,0 -56.88,0.574 -78.813,1.571 -4.387,0.2 -8.621,0.422 -12.688,0.652 -48.771,2.767 -74.922,7.658 -88.938,12.126 -1.168,0.372 -2.275,0.732 -3.281,1.097 -5.011,1.821 -8.093,3.565 -9.969,4.981 -0.369,0.279 -0.686,0.546 -0.969,0.8 -0.293,0.264 -0.537,0.507 -0.75,0.741 -1.253,1.383 -1.219,2.224 -1.219,2.224 l 10.656,36.733 h 34.844 302.25 34.845 l 10.655,-36.733 c 0,0 0.034,-0.84 -1.219,-2.224 -0.212,-0.234 -0.457,-0.477 -0.75,-0.741 -1.715,-1.549 -4.922,-3.595 -10.938,-5.781 -0.01,-0.003 -0.022,0.003 -0.031,0 -13.071,-4.744 -39.351,-10.225 -92.188,-13.223 -0.01,0 -0.021,0 -0.03,0 -4.065,-0.23 -8.271,-0.453 -12.656,-0.652 -21.933,-0.997 -47.952,-1.571 -78.811,-1.571 z"
   stroke="#000000"
   fill="#eac102"
   id="path9054" />
	<path
   d="m -66.85,800.794 c 0.003,7.243 -5.702,13.117 -12.741,13.12 -7.04,0.003 -12.75,-5.867 -12.753,-13.11 0,-0.003 0,-0.007 0,-0.01 -0.003,-7.244 5.702,-13.118 12.742,-13.121 7.04,-0.003 12.749,5.867 12.752,13.11 0,0.004 0,0.007 0,0.011 z"
   stroke-linejoin="round"
   stroke-linecap="round"
   stroke-width="1.7839"
   stroke="#000000"
   fill="#eac102"
   id="path9058" />
	<path
   d="m -65.773,800.794 c 0.003,7.243 -5.573,13.117 -12.455,13.12 -6.881,0.003 -12.462,-5.867 -12.465,-13.11 0,-0.003 0,-0.007 0,-0.01 -0.003,-7.244 5.573,-13.118 12.454,-13.121 6.883,-0.003 12.462,5.867 12.466,13.11 0,0.004 0,0.007 0,0.011 z"
   stroke-linejoin="round"
   stroke-linecap="round"
   stroke-width="1.8044"
   stroke="#000000"
   fill="#eac102"
   id="path9060" />
	<path
   d="m -66.921,800.794 c 0.002,6.265 -4.932,11.346 -11.02,11.349 -6.089,0.003 -11.025,-5.074 -11.028,-11.339 0,-0.003 0,-0.006 0,-0.009 -0.002,-6.265 4.932,-11.346 11.02,-11.348 6.088,-0.003 11.025,5.074 11.028,11.339 0,0.002 0,0.005 0,0.008 z"
   stroke-linejoin="round"
   stroke-linecap="round"
   stroke-width="2.0626"
   stroke="#000000"
   fill="#e3e4e5"
   id="path9062" />
	<path
   d="m -243.119,800.794 c -0.003,7.243 5.702,13.117 12.742,13.12 7.04,0.003 12.75,-5.867 12.752,-13.11 0,-0.003 0,-0.007 0,-0.01 0.002,-7.244 -5.702,-13.118 -12.742,-13.121 -7.04,-0.003 -12.749,5.867 -12.752,13.11 0,0.004 0,0.007 0,0.011 z"
   stroke-linejoin="round"
   stroke-linecap="round"
   stroke-width="1.7839"
   stroke="#000000"
   fill="#eac102"
   id="path9066" />
	<path
   d="m -244.196,800.794 c -0.003,7.243 5.573,13.117 12.455,13.12 6.882,0.003 12.462,-5.867 12.465,-13.11 0,-0.003 0,-0.007 0,-0.01 0.003,-7.244 -5.573,-13.118 -12.455,-13.121 -6.882,-0.003 -12.462,5.867 -12.465,13.11 0,0.004 0,0.007 0,0.011 z"
   stroke-linejoin="round"
   stroke-linecap="round"
   stroke-width="1.8044"
   stroke="#000000"
   fill="#eac102"
   id="path9068" />
	<path
   d="m -243.047,800.794 c -0.002,6.265 4.931,11.346 11.019,11.349 6.088,0.002 11.025,-5.074 11.028,-11.339 0,-0.003 0,-0.006 0,-0.009 0.002,-6.265 -4.931,-11.346 -11.019,-11.348 -6.088,-0.003 -11.025,5.074 -11.028,11.339 0,0.002 0,0.005 0,0.008 z"
   stroke-linejoin="round"
   stroke-linecap="round"
   stroke-width="2.0626"
   stroke="#000000"
   fill="#e3e4e5"
   id="path9070" />
	<path
   d="m -270.514,802.248 -20.416,-9.842 -1.308,0.238 19.471,10.014 z"
   stroke-linejoin="round"
   stroke-linecap="round"
   stroke="#000000"
   fill="none"
   id="path9074" />
	<path
   d="m -270.514,802.248 -20.416,17.262 -1.308,0.237 19.471,-17.09 z"
   stroke-linejoin="round"
   stroke-linecap="round"
   stroke="#000000"
   fill="none"
   id="path9076" />
	<path
   d="m -292.267,819.706 -18.335,-9.826 18.293,-17.154"
   stroke-linejoin="round"
   stroke-linecap="round"
   stroke="#000000"
   fill="none"
   id="path9078" />
	<path
   d="m -277.827,803.716 -14.649,13.156 -14.435,-7.94 14.506,-12.921 z"
   stroke-linejoin="round"
   stroke-linecap="round"
   stroke="#000000"
   fill="#008f4c"
   id="path9082" />
	<path
   d="m -287.677,805.539 -7.749,6.935 -7.636,-4.176 7.673,-6.811 z"
   stroke-linejoin="round"
   stroke-linecap="round"
   stroke-width="0.6"
   stroke="#000000"
   fill="none"
   id="path9084" />
	<path
   d="m -292.404,816.789 -3.037,-4.313"
   stroke-linejoin="round"
   stroke-linecap="round"
   stroke-width="0.6"
   stroke="#000000"
   fill="none"
   id="path9086" />
	<path
   d="m -306.696,808.892 3.663,-0.613"
   stroke-linejoin="round"
   stroke-linecap="round"
   stroke-width="0.6"
   stroke="#000000"
   fill="none"
   id="path9088" />
	<path
   d="m -287.688,805.508 9.576,-1.74"
   stroke-linejoin="round"
   stroke-linecap="round"
   stroke-width="0.6"
   stroke="#000000"
   fill="none"
   id="path9090" />
	<path
   d="m -295.423,801.545 3.019,-5.535"
   stroke-linejoin="round"
   stroke-linecap="round"
   stroke-width="0.6"
   stroke="#000000"
   fill="none"
   id="path9092" />
	<path
   d="m -39.455,802.248 20.415,-9.842 1.31,0.238 -19.473,10.014 z"
   stroke-linejoin="round"
   stroke-linecap="round"
   stroke="#000000"
   fill="none"
   id="path9096" />
	<path
   d="m -39.455,802.248 20.415,17.262 1.31,0.237 -19.473,-17.09 z"
   stroke-linejoin="round"
   stroke-linecap="round"
   stroke="#000000"
   fill="none"
   id="path9098" />
	<path
   d="M -17.702,819.706 0.633,809.88 -17.66,792.726"
   stroke-linejoin="round"
   stroke-linecap="round"
   stroke="#000000"
   fill="none"
   id="path9100" />
	<path
   d="m -32.143,803.716 14.648,13.156 14.436,-7.94 -14.506,-12.921 z"
   stroke-linejoin="round"
   stroke-linecap="round"
   stroke="#000000"
   fill="#008f4c"
   id="path9104" />
	<path
   d="m -22.292,805.539 7.749,6.935 7.636,-4.176 -7.673,-6.811 z"
   stroke-linejoin="round"
   stroke-linecap="round"
   stroke-width="0.5"
   stroke="#000000"
   fill="none"
   id="path9106" />
	<path
   d="m -17.565,816.789 3.036,-4.313"
   stroke-linejoin="round"
   stroke-linecap="round"
   stroke-width="0.5"
   stroke="#000000"
   fill="none"
   id="path9108" />
	<path
   d="m -3.274,808.892 -3.662,-0.613"
   stroke-linejoin="round"
   stroke-linecap="round"
   stroke-width="0.5"
   stroke="#000000"
   fill="none"
   id="path9110" />
	<path
   d="m -22.281,805.508 -9.574,-1.74"
   stroke-linejoin="round"
   stroke-linecap="round"
   stroke-width="0.5"
   stroke="#000000"
   fill="none"
   id="path9112" />
	<path
   d="m -14.546,801.545 -3.019,-5.535"
   stroke-linejoin="round"
   stroke-linecap="round"
   stroke-width="0.5"
   stroke="#000000"
   fill="none"
   id="path9114" />
	<path
   d="m -167.862,785.957 h 25.755 c 7.443,0 13.479,5.966 13.479,13.325 v 0 c 0,7.359 -6.034,13.325 -13.479,13.325 h -25.755 c -7.444,0 -13.479,-5.966 -13.479,-13.325 v 0 c 0,-7.359 6.035,-13.325 13.479,-13.325 z"
   stroke="#000000"
   fill="#eac102"
   id="rect9118" />
	<path
   d="m -166.571,787.776 h 23.174 c 6.697,0 12.129,5.152 12.129,11.507 v 0 c 0,6.355 -5.432,11.507 -12.129,11.507 h -23.174 c -6.699,0 -12.129,-5.152 -12.129,-11.507 v 0 c 0,-6.356 5.43,-11.507 12.129,-11.507 z"
   stroke="#000000"
   fill="#ed1c24"
   id="rect9120" />
	<path
   d="m -341.595,837.046 c -0.099,0.034 -0.18,0.098 -0.281,0.129 -5.721,1.731 -12.181,-2.296 -14.432,-8.99 -2.25,-6.693 0.557,-13.526 6.278,-15.258 0.101,-0.031 0.207,-0.022 0.308,-0.049 z"
   stroke="#000000"
   fill="#ed1c24"
   id="path9172" />
	<path
   d="m -349.214,810.313 -3.116,0.943 9.517,28.302 3.117,-0.943 c -2.573,-11.263 -5.887,-21.712 -9.518,-28.302 z"
   stroke="#000000"
   fill="#eac102"
   id="path9174" />
	<path
   d="m -332.346,799.946 c 2.946,0.062 6.732,5.399 8.745,12.526 2.013,7.127 1.542,13.531 -0.976,14.983 l -0.106,0.056 c -0.15,0.077 -0.304,0.135 -0.468,0.177 l -4.933,1.243 -2.235,-7.915 c -0.842,-1.709 -1.595,-3.653 -2.193,-5.77 -0.598,-2.117 -0.974,-4.171 -1.146,-6.051 l -2.214,-7.84 z"
   stroke-linejoin="round"
   stroke-linecap="round"
   stroke="#000000"
   fill="#eac102"
   id="path9178" />
	<path
   d="m -339.188,816.516 c 2.146,7.599 6.33,13.137 9.345,12.371 3.015,-0.767 3.72,-7.548 1.574,-15.146 -2.146,-7.598 -6.33,-13.137 -9.345,-12.371 -3.015,0.766 -3.72,7.547 -1.574,15.146 z"
   stroke-linejoin="round"
   stroke-linecap="round"
   stroke-width="1.5553"
   stroke="#000000"
   fill="#eac102"
   id="path9180" />
	<path
   d="m -337.701,803.067 c -10.487,6.263 -4.66,24.143 7.063,25.006 7.008,-3.386 -0.636,-26.52 -7.063,-25.006 z"
   stroke-linejoin="round"
   stroke-linecap="round"
   stroke="#000000"
   fill="#e3e4e5"
   id="path9182" />
	<path
   d="m 31.626,837.046 c 0.101,0.034 0.182,0.098 0.281,0.129 5.721,1.731 12.182,-2.296 14.432,-8.99 2.251,-6.693 -0.557,-13.526 -6.276,-15.258 -0.103,-0.031 -0.206,-0.022 -0.309,-0.049 z"
   stroke="#000000"
   fill="#ed1c24"
   id="path9188" />
	<path
   d="m 39.244,810.313 3.117,0.943 -9.519,28.302 -3.115,-0.943 c 2.573,-11.263 5.887,-21.712 9.517,-28.302 z"
   stroke="#000000"
   fill="#eac102"
   id="path9190" />
	<path
   d="m 49.667,812.67 c -5.232,-0.069 -9.417,-4.364 -9.348,-9.597 0.068,-5.229 4.363,-9.412 9.597,-9.343 5.231,0.069 9.414,4.364 9.345,9.592 -0.069,5.234 -4.364,9.417 -9.594,9.348 z"
   stroke="#010101"
   fill="#e3e4e5"
   id="path10153" />
	<path
   d="m 22.377,799.946 c -2.946,0.062 -6.731,5.399 -8.745,12.526 -2.013,7.127 -1.542,13.531 0.977,14.983 l 0.105,0.056 c 0.149,0.077 0.305,0.135 0.469,0.177 l 4.933,1.243 2.235,-7.915 c 0.843,-1.709 1.595,-3.653 2.192,-5.77 0.599,-2.117 0.975,-4.171 1.146,-6.051 l 2.214,-7.84 z"
   stroke-linejoin="round"
   stroke-linecap="round"
   stroke="#000000"
   fill="#eac102"
   id="path9194" />
	<path
   d="m 29.219,816.516 c -2.146,7.599 -6.33,13.137 -9.345,12.371 -3.016,-0.767 -3.721,-7.548 -1.574,-15.146 2.147,-7.598 6.33,-13.137 9.347,-12.371 3.013,0.766 3.718,7.547 1.572,15.146 z"
   stroke-linejoin="round"
   stroke-linecap="round"
   stroke-width="1.5553"
   stroke="#000000"
   fill="#eac102"
   id="path9196" />
	<path
   d="m 27.731,803.067 c 10.486,6.263 4.66,24.143 -7.063,25.006 -7.007,-3.386 0.637,-26.52 7.063,-25.006 z"
   stroke-linejoin="round"
   stroke-linecap="round"
   stroke="#000000"
   fill="#e3e4e5"
   id="path9198" />
	<path
   d="m -156.741,878.959 c -5.232,-0.069 -9.416,-4.363 -9.347,-9.597 0.069,-5.229 4.363,-9.412 9.596,-9.343 5.231,0.069 9.414,4.364 9.347,9.592 -0.071,5.234 -4.365,9.417 -9.596,9.348 z"
   stroke="#010101"
   fill="#e3e4e5"
   id="path10145" />
	<path
   d="m -74.715,877.393 c -5.233,-0.069 -9.416,-4.363 -9.348,-9.597 0.068,-5.229 4.362,-9.412 9.597,-9.343 5.23,0.069 9.414,4.364 9.346,9.592 -0.07,5.234 -4.364,9.417 -9.595,9.348 z"
   stroke="#010101"
   fill="#e3e4e5"
   id="path10143" />
	<path
   d="m -252.334,876.718 c -5.233,-0.069 -9.416,-4.363 -9.347,-9.597 0.069,-5.229 4.363,-9.412 9.597,-9.343 5.231,0.069 9.414,4.364 9.345,9.592 -0.07,5.234 -4.364,9.417 -9.595,9.348 z"
   stroke="#010101"
   fill="#e3e4e5"
   id="path10147" />
	<path
   d="m -332.119,864.236 c -5.233,-0.069 -9.416,-4.363 -9.347,-9.597 0.069,-5.229 4.363,-9.411 9.597,-9.342 5.231,0.069 9.414,4.363 9.345,9.592 -0.07,5.233 -4.364,9.416 -9.595,9.347 z"
   stroke="#010101"
   fill="#e3e4e5"
   id="path10149" />
	<path
   d="m -326.509,845.302 c 0,0 37.062,-17.868 171.525,-17.868 134.018,0 171.523,17.868 171.523,17.868 0,0 -31.348,17.868 -171.523,17.868 -140.624,0 -171.525,-17.868 -171.525,-17.868 z"
   stroke="#000000"
   fill="#eac102"
   id="path9202" />
	<path
   d="M -198.642,866.023 V 824.682"
   stroke-width="0.5201"
   stroke="#000000"
   fill="none"
   id="path9206" />
	<path
   d="M -206.524,866.023 V 824.682"
   stroke-width="0.7657"
   stroke="#000000"
   fill="none"
   id="path9208" />
	<path
   d="M -213.964,866.023 V 824.682"
   stroke-width="1.0257"
   stroke="#000000"
   fill="none"
   id="path9210" />
	<path
   d="M -221.34,866.023 V 824.682"
   stroke-width="1.2858"
   stroke="#000000"
   fill="none"
   id="path9212" />
	<path
   d="M -227.913,866.023 V 824.682"
   stroke-width="1.5458"
   stroke="#000000"
   fill="none"
   id="path9214" />
	<path
   d="m -240.447,863.794 -0.174,-37.627 m 6.116,38.121 v -39.357"
   stroke-width="1.8058"
   stroke="#000000"
   fill="none"
   id="path9216" />
	<path
   d="m -252.02,862.102 v -34.667 m 5.863,35.657 -0.173,-36.893"
   stroke-width="2.0514"
   stroke="#000000"
   fill="none"
   id="path9218" />
	<path
   d="m -267.546,860.122 v -30.458 m 5.095,30.953 v -31.943 m 5.248,32.933 v -33.182"
   stroke-width="2.3115"
   stroke="#000000"
   fill="none"
   id="path9220" />
	<path
   d="M -272.987,859.873 V 830.408"
   stroke-width="2.5715"
   stroke="#000000"
   fill="none"
   id="path9222" />
	<path
   d="M -278.061,858.388 V 830.903"
   stroke-width="2.8316"
   stroke="#000000"
   fill="none"
   id="path9224" />
	<path
   d="M -283.503,857.644 V 832.139"
   stroke-width="3.0916"
   stroke="#000000"
   fill="none"
   id="path9226" />
	<path
   d="m -294.644,855.418 -0.173,-20.307 m 5.883,21.297 v -22.781"
   stroke-width="3.3372"
   stroke="#000000"
   fill="none"
   id="path9228" />
	<path
   d="M -300.353,853.684 V 835.852"
   stroke-width="3.525"
   stroke="#000000"
   fill="none"
   id="path9230" />
	<path
   d="M -305.581,852.238 V 837.389"
   stroke-width="3.7851"
   stroke="#000000"
   fill="none"
   id="path9232" />
	<path
   d="m -311.29,850.258 v -11.63"
   stroke-width="4.0306"
   stroke="#000000"
   fill="none"
   id="path9234" />
	<path
   d="m -317.158,849.268 v -8.66"
   stroke-width="4.2763"
   stroke="#000000"
   fill="none"
   id="path9236" />
	<path
   d="m -323.369,847.29 v -4.208"
   stroke-width="5.0419"
   stroke="#000000"
   fill="none"
   id="path9238" />
	<path
   d="m -167.283,863.794 v -37.873 m -13.353,39.111 0.173,-40.102 m -9.906,40.598 v -40.846"
   stroke-width="0.26"
   stroke="#000000"
   fill="none"
   id="path9240" />
	<path
   d="M -111.327,866.023 V 824.682"
   stroke-width="0.5201"
   stroke="#000000"
   fill="none"
   id="path9242" />
	<path
   d="M -103.445,866.023 V 824.682"
   stroke-width="0.7657"
   stroke="#000000"
   fill="none"
   id="path9244" />
	<path
   d="M -96.005,866.023 V 824.682"
   stroke-width="1.0257"
   stroke="#000000"
   fill="none"
   id="path9246" />
	<path
   d="M -88.629,866.023 V 824.682"
   stroke-width="1.2858"
   stroke="#000000"
   fill="none"
   id="path9248" />
	<path
   d="M -82.057,866.023 V 824.682"
   stroke-width="1.5458"
   stroke="#000000"
   fill="none"
   id="path9250" />
	<path
   d="m -69.522,863.794 0.173,-37.627 m -6.115,38.121 v -39.357"
   stroke-width="1.8058"
   stroke="#000000"
   fill="none"
   id="path9252" />
	<path
   d="m -57.949,862.102 v -34.667 m -5.864,35.657 0.174,-36.893"
   stroke-width="2.0514"
   stroke="#000000"
   fill="none"
   id="path9254" />
	<path
   d="m -42.424,860.122 v -30.458 m -5.094,30.953 v -31.943 m -5.248,32.933 v -33.182"
   stroke-width="2.3115"
   stroke="#000000"
   fill="none"
   id="path9256" />
	<path
   d="M -36.983,859.873 V 830.408"
   stroke-width="2.5715"
   stroke="#000000"
   fill="none"
   id="path9258" />
	<path
   d="M -31.908,858.388 V 830.903"
   stroke-width="2.8316"
   stroke="#000000"
   fill="none"
   id="path9260" />
	<path
   d="M -26.467,857.644 V 832.139"
   stroke-width="3.0916"
   stroke="#000000"
   fill="none"
   id="path9262" />
	<path
   d="m -15.326,855.418 0.174,-20.307 m -5.883,21.297 v -22.781"
   stroke-width="3.3372"
   stroke="#000000"
   fill="none"
   id="path9264" />
	<path
   d="M -9.616,853.684 V 835.852"
   stroke-width="3.525"
   stroke="#000000"
   fill="none"
   id="path9266" />
	<path
   d="M -4.389,852.238 V 837.389"
   stroke-width="3.7851"
   stroke="#000000"
   fill="none"
   id="path9268" />
	<path
   d="m 1.321,850.258 v -11.63"
   stroke-width="4.0306"
   stroke="#000000"
   fill="none"
   id="path9270" />
	<path
   d="m 7.188,849.268 v -8.66"
   stroke-width="4.2763"
   stroke="#000000"
   fill="none"
   id="path9272" />
	<path
   d="m 13.399,847.29 v -4.208"
   stroke-width="5.0419"
   stroke="#000000"
   fill="none"
   id="path9274" />
	<path
   d="m -142.686,863.794 v -37.873 m 13.353,39.111 -0.174,-40.102 m 9.906,40.598 v -40.846"
   stroke-width="0.26"
   stroke="#000000"
   fill="none"
   id="path9276" />
	<path
   d="m 11.497,850.268 c 2.187,-4.755 7.809,-6.836 12.563,-4.649 4.751,2.185 6.831,7.807 4.646,12.562 -2.186,4.753 -7.808,6.833 -12.559,4.649 -4.756,-2.187 -6.836,-7.809 -4.65,-12.562 z"
   stroke="#010101"
   fill="#e3e4e5"
   id="path11736" />
	<path
   d="m -155.138,815.168 c -52.175,0.52 -104.944,0.575 -156.185,11.011 -11.435,3.446 -27.791,5.364 -32.083,17.569 -1.408,10.194 11.508,14.521 19.584,17.323 38.472,11.026 79.141,11.966 119.003,13.689 62.016,1.188 124.409,1.648 185.964,-6.585 16.815,-3.101 35.333,-5.016 49.161,-15.465 8.259,-7.722 -0.864,-18.518 -9.992,-20.739 C -11,820.501 -45.151,819.28 -78.27,816.944 c -25.596,-1.333 -51.237,-1.759 -76.868,-1.776 z m 0.144,12.268 c 134.019,0 171.535,17.87 171.535,17.87 0,0 -31.357,17.87 -171.535,17.87 -140.623,0 -171.506,-17.87 -171.506,-17.87 0,0 37.043,-17.87 171.506,-17.87 z"
   stroke="#000000"
   fill="#eac102"
   id="path9278" />
	<path
   d="m -4.578,839.198 c -0.4,0.534 -0.804,0.381 -1.094,1.012 -2.186,4.753 -0.099,10.376 4.656,12.563 4.751,2.184 10.377,0.097 12.563,-4.656 0.913,-1.985 0.931,-2.523 0.47,-4.497 -7.13,-2.165 -13.029,-3.951 -16.595,-4.422 z"
   stroke="#010101"
   fill="#e3e4e5"
   id="path11795" />
	<path
   d="m 12.395,866.019 c -5.233,-0.069 -9.416,-4.364 -9.349,-9.597 0.069,-5.229 4.363,-9.411 9.598,-9.342 5.23,0.069 9.414,4.363 9.346,9.592 -0.069,5.233 -4.364,9.416 -9.595,9.347 z"
   stroke="#010101"
   fill="#e3e4e5"
   id="path10141" />
	<path
   d="m 48.974,799.391 c -5.232,-0.069 -9.416,-4.363 -9.347,-9.597 0.068,-5.229 4.363,-9.412 9.597,-9.343 5.23,0.069 9.413,4.364 9.346,9.592 -0.07,5.234 -4.364,9.417 -9.596,9.348 z"
   stroke="#010101"
   fill="#e3e4e5"
   id="path10261" />
	<path
   d="m 63.016,769.316 c 0,12.398 -10.054,22.448 -22.457,22.448 -12.407,0 -22.463,-10.047 -22.463,-22.448 0,-12.396 10.054,-22.446 22.463,-22.446 12.404,0 22.457,10.047 22.457,22.446 z"
   stroke="#010101"
   fill="#e3e4e5"
   id="path10211" />
	<path
   d="m -330.065,771.315 c 0,12.398 -10.058,22.448 -22.462,22.448 -12.402,0 -22.458,-10.048 -22.458,-22.448 0,-12.396 10.053,-22.445 22.458,-22.445 12.404,0 22.462,10.047 22.462,22.445 z"
   stroke="#010101"
   fill="#e3e4e5"
   id="path10213" />
	<path
   d="m -205.353,752.393 c 0,12.398 -10.055,22.448 -22.457,22.448 -12.402,0 -22.462,-10.047 -22.462,-22.448 0,-12.396 10.057,-22.445 22.462,-22.445 12.402,0 22.457,10.049 22.457,22.445 z"
   stroke="#010101"
   fill="#e3e4e5"
   id="path10217" />
	<path
   d="m -59.696,752.393 c 0,12.396 -10.053,22.448 -22.458,22.448 -12.401,0 -22.457,-10.05 -22.457,-22.448 0,-12.398 10.056,-22.448 22.457,-22.448 12.405,0.003 22.458,10.052 22.458,22.448 z"
   stroke="#010101"
   fill="#e3e4e5"
   id="path10219" />
	<path
   d="m -197.618,762.826 c 0,5.234 -4.239,9.473 -9.473,9.473 -5.229,0 -9.468,-4.239 -9.468,-9.473 0,-5.231 4.239,-9.47 9.468,-9.47 5.234,0 9.473,4.238 9.473,9.47 z"
   stroke="#010101"
   fill="#e3e4e5"
   id="path10223" />
	<path
   d="m -184.244,767.959 c 0,5.234 -4.239,9.473 -9.473,9.473 -5.229,0 -9.468,-4.239 -9.468,-9.473 0,-5.231 4.239,-9.471 9.468,-9.471 5.234,0 9.473,4.239 9.473,9.471 z"
   stroke="#010101"
   fill="#e3e4e5"
   id="path10225" />
	<path
   d="m -173.045,779.157 c 0,5.234 -4.239,9.473 -9.473,9.473 -5.229,0 -9.468,-4.239 -9.468,-9.473 0,-5.231 4.239,-9.47 9.468,-9.47 5.234,0 9.473,4.239 9.473,9.47 z"
   stroke="#010101"
   fill="#e3e4e5"
   id="path10227" />
	<path
   d="m -164.629,791.64 c 0,5.234 -4.239,9.473 -9.473,9.473 -5.229,0 -9.468,-4.239 -9.468,-9.473 0,-5.231 4.239,-9.47 9.468,-9.47 5.234,0 9.473,4.238 9.473,9.47 z"
   stroke="#010101"
   fill="#e3e4e5"
   id="path10229" />
	<path
   d="m -158.388,805.906 c 0,5.234 -4.239,9.473 -9.473,9.473 -5.229,0 -9.468,-4.239 -9.468,-9.473 0,-5.231 4.239,-9.471 9.468,-9.471 5.234,0 9.473,4.239 9.473,9.471 z"
   stroke="#010101"
   fill="#e3e4e5"
   id="path10231" />
	<path
   d="m -153.93,821.062 c 0,5.234 -4.239,9.473 -9.473,9.473 -5.229,0 -9.468,-4.239 -9.468,-9.473 0,-5.231 4.239,-9.47 9.468,-9.47 5.234,0 9.473,4.239 9.473,9.47 z"
   stroke="#010101"
   fill="#e3e4e5"
   id="path10233" />
	<path
   d="m -319.314,777.993 c 1.183,5.099 -1.988,10.186 -7.086,11.369 -5.094,1.182 -10.181,-1.989 -11.364,-7.087 -1.183,-5.096 1.988,-10.184 7.082,-11.366 5.098,-1.183 10.186,1.988 11.368,7.084 z"
   stroke="#010101"
   fill="#e3e4e5"
   id="path10235" />
	<path
   d="m -304.674,781.918 c 1.184,5.098 -1.988,10.186 -7.086,11.369 -5.094,1.182 -10.182,-1.989 -11.364,-7.087 -1.183,-5.096 1.988,-10.184 7.082,-11.365 5.098,-1.184 10.186,1.987 11.368,7.083 z"
   stroke="#010101"
   fill="#e3e4e5"
   id="path10237" />
	<path
   d="m -291.233,790.296 c 1.183,5.099 -1.988,10.186 -7.086,11.369 -5.094,1.182 -10.181,-1.989 -11.364,-7.087 -1.183,-5.096 1.989,-10.184 7.082,-11.366 5.098,-1.183 10.185,1.988 11.368,7.084 z"
   stroke="#010101"
   fill="#e3e4e5"
   id="path10239" />
	<path
   d="m -279.322,800.552 c 1.183,5.099 -1.988,10.186 -7.086,11.369 -5.094,1.182 -10.181,-1.989 -11.364,-7.087 -1.183,-5.096 1.989,-10.184 7.082,-11.366 5.098,-1.183 10.185,1.988 11.368,7.084 z"
   stroke="#010101"
   fill="#e3e4e5"
   id="path10241" />
	<path
   d="m -269.801,811.93 c 1.183,5.098 -1.988,10.186 -7.086,11.369 -5.094,1.182 -10.181,-1.989 -11.364,-7.087 -1.183,-5.096 1.989,-10.184 7.083,-11.366 5.097,-1.184 10.184,1.988 11.367,7.084 z"
   stroke="#010101"
   fill="#e3e4e5"
   id="path10243" />
	<path
   d="m -54.178,765.283 c -1.167,5.102 -6.244,8.289 -11.347,7.122 -5.099,-1.166 -8.284,-6.243 -7.118,-11.345 1.167,-5.1 6.244,-8.287 11.342,-7.121 5.102,1.167 8.289,6.244 7.123,11.344 z"
   stroke="#010101"
   fill="#e3e4e5"
   id="path10249" />
	<path
   d="m -42.732,773.218 c -1.166,5.102 -6.244,8.29 -11.347,7.123 -5.098,-1.166 -8.285,-6.243 -7.118,-11.345 1.167,-5.1 6.244,-8.287 11.343,-7.121 5.102,1.166 8.289,6.243 7.122,11.343 z"
   stroke="#010101"
   fill="#e3e4e5"
   id="path10251" />
	<path
   d="m -34.311,786.632 c -1.167,5.102 -6.244,8.29 -11.348,7.123 -5.098,-1.166 -8.284,-6.243 -7.116,-11.345 1.166,-5.1 6.242,-8.287 11.341,-7.121 5.102,1.166 8.289,6.243 7.123,11.343 z"
   stroke="#010101"
   fill="#e3e4e5"
   id="path10253" />
	<path
   d="m -28.89,800.677 c -1.167,5.102 -6.244,8.29 -11.348,7.123 -5.097,-1.166 -8.283,-6.243 -7.116,-11.345 1.166,-5.1 6.242,-8.287 11.341,-7.122 5.103,1.166 8.29,6.244 7.123,11.344 z"
   stroke="#010101"
   fill="#e3e4e5"
   id="path10255" />
	<path
   d="m -25.986,815.974 c -1.166,5.102 -6.243,8.29 -11.346,7.123 -5.098,-1.166 -8.285,-6.243 -7.118,-11.345 1.166,-5.1 6.244,-8.287 11.342,-7.122 5.101,1.167 8.289,6.245 7.122,11.344 z"
   stroke="#010101"
   fill="#e3e4e5"
   id="path10257" />
	<path
   d="m -25.02,831.744 c -1.167,5.102 -6.244,8.289 -11.348,7.123 -5.097,-1.166 -8.284,-6.244 -7.116,-11.346 1.166,-5.1 6.242,-8.287 11.341,-7.121 5.103,1.167 8.289,6.244 7.123,11.344 z"
   stroke="#010101"
   fill="#e3e4e5"
   id="path10259" />
	<path
   d="m -94.121,868.744 c -0.45,-5.214 3.409,-9.802 8.624,-10.251 5.209,-0.449 9.797,3.41 10.246,8.625 0.45,5.212 -3.409,9.799 -8.619,10.249 -5.214,0.449 -9.802,-3.411 -10.251,-8.623 z"
   stroke="#010101"
   fill="#e3e4e5"
   id="path11675" />
	<path
   d="m -106.059,860.787 c -0.449,-5.214 3.409,-9.802 8.624,-10.251 5.21,-0.449 9.797,3.41 10.247,8.625 0.448,5.212 -3.41,9.799 -8.619,10.249 -5.215,0.448 -9.802,-3.411 -10.252,-8.623 z"
   stroke="#010101"
   fill="#e3e4e5"
   id="path11677" />
	<path
   d="m -118.179,850.592 c -0.449,-5.214 3.41,-9.802 8.625,-10.252 5.209,-0.449 9.797,3.41 10.246,8.625 0.45,5.212 -3.409,9.8 -8.619,10.249 -5.215,0.449 -9.802,-3.411 -10.252,-8.622 z"
   stroke="#010101"
   fill="#e3e4e5"
   id="path11679" />
	<path
   d="m -127.636,838.878 c -0.449,-5.214 3.41,-9.802 8.624,-10.251 5.21,-0.449 9.798,3.41 10.247,8.625 0.449,5.212 -3.409,9.8 -8.619,10.249 -5.215,0.448 -9.802,-3.41 -10.252,-8.623 z"
   stroke="#010101"
   fill="#e3e4e5"
   id="path11681" />
	<path
   d="m -136.468,827.966 c 1.591,3.832 5.432,6.366 9.752,5.833 3.495,-0.432 6.177,-2.777 7.448,-5.81 -5.589,-0.071 -11.32,-0.08 -17.2,-0.023 z"
   stroke="#010101"
   fill="#e3e4e5"
   id="path11791" />
	<path
   d="m -291.922,836.737 c -1.402,1.813 -2.212,4.097 -2,6.563 0.45,5.212 5.036,9.074 10.25,8.625 5.21,-0.449 9.075,-5.038 8.625,-10.25 -0.263,-3.052 -2.043,-5.501 -4.438,-7.031 -4.167,0.564 -8.301,1.336 -12.437,2.093 z"
   stroke="#010101"
   fill="#e3e4e5"
   id="path11783" />
	<path
   d="m -263.816,826.578 c 1.183,5.098 -1.988,10.186 -7.086,11.369 -5.093,1.182 -10.181,-1.989 -11.364,-7.087 -1.183,-5.096 1.988,-10.184 7.082,-11.365 5.098,-1.184 10.186,1.987 11.368,7.083 z"
   stroke="#010101"
   fill="#e3e4e5"
   id="path10245" />
	<path
   d="m -176.759,870.181 c -0.449,-5.214 3.41,-9.802 8.625,-10.251 5.209,-0.449 9.797,3.41 10.247,8.625 0.449,5.212 -3.41,9.8 -8.62,10.249 -5.215,0.449 -9.803,-3.41 -10.252,-8.623 z"
   stroke="#010101"
   fill="#e3e4e5"
   id="path11702" />
	<path
   d="m -188.696,862.224 c -0.45,-5.214 3.41,-9.802 8.624,-10.252 5.21,-0.449 9.797,3.41 10.247,8.625 0.449,5.212 -3.41,9.8 -8.62,10.249 -5.214,0.45 -9.802,-3.41 -10.251,-8.622 z"
   stroke="#010101"
   fill="#e3e4e5"
   id="path11704" />
	<path
   d="m -200.816,852.029 c -0.45,-5.214 3.41,-9.802 8.624,-10.251 5.209,-0.449 9.797,3.41 10.247,8.625 0.45,5.212 -3.41,9.799 -8.619,10.249 -5.215,0.448 -9.803,-3.411 -10.252,-8.623 z"
   stroke="#010101"
   fill="#e3e4e5"
   id="path11706" />
	<path
   d="m -210.273,840.316 c -0.45,-5.215 3.41,-9.802 8.624,-10.252 5.209,-0.449 9.797,3.41 10.247,8.625 0.45,5.212 -3.41,9.8 -8.619,10.249 -5.215,0.449 -9.803,-3.41 -10.252,-8.622 z"
   stroke="#010101"
   fill="#e3e4e5"
   id="path11708" />
	<path
   d="m -217.151,829.033 c 1.602,3.576 5.572,6.595 9.698,6.239 4.005,-0.345 7.161,-3.463 8.219,-7.104 -5.87,0.324 -11.68,0.301 -17.917,0.865 z"
   stroke="#010101"
   fill="#e3e4e5"
   id="path11787" />
	<path
   d="m -285.801,855.757 c -0.45,-5.215 3.41,-9.802 8.624,-10.252 5.209,-0.449 9.797,3.41 10.247,8.625 0.449,5.212 -3.41,9.8 -8.62,10.249 -5.214,0.449 -9.802,-3.41 -10.251,-8.622 z"
   stroke="#010101"
   fill="#e3e4e5"
   id="path11716" />
	<path
   d="m -273.864,867.714 c -0.45,-5.214 3.41,-9.802 8.624,-10.251 5.21,-0.449 9.797,3.41 10.247,8.625 0.449,5.212 -3.41,9.8 -8.62,10.249 -5.214,0.448 -9.802,-3.41 -10.251,-8.623 z"
   stroke="#010101"
   fill="#e3e4e5"
   id="path11714" />
	<g
   transform="matrix(0.3926312,0,0,0.3724982,-1317.2429,515.76343)"
   id="g9126">
		<g
   transform="matrix(-0.748008,0.507597,0.4813713,0.8831979,3520.4688,-1419.3176)"
   id="g9134">
		</g>
	</g>
	<g
   transform="matrix(-0.3926312,0,0,0.3724982,1007.274,515.76343)"
   id="g9142">
		<g
   transform="matrix(-0.748008,0.507597,0.4813713,0.8831979,3520.4688,-1419.3176)"
   id="g9150">
		</g>
	</g>
</g>
<g
   transform="translate(-29.807399,-173.34451)"
   id="layer1">
	<path
   d="m 31.929,596.86 299.5,299.5 299.5,-299.5 -299.5,-299.5 z"
   stroke="#000000"
   fill="#eac102"
   id="path13304" />
</g>
<g
   transform="matrix(0,2.3995215,-1,0,43.349845,-1169.433)"
   id="g3409">
	<path
   d="m 582.686,-153.553 9.025,21.656 c 3.432,-2.361 6.992,-4.563 13.388,-4.563 14.437,0 14.438,10.375 29.381,10.375 15.449,0 15.957,-10.375 29.381,-10.375 14.437,0 13.857,10.375 29.381,10.375 15.02,0 15.957,-10.375 29.381,-10.375 6.576,0 9.925,2.316 13.31,4.75 l 9.064,-21.75 c -8.603,-2.569 -11.881,-9.406 -22.374,-9.406 -13.424,0 -14.438,10.344 -29.381,10.344 -14.437,0 -14.909,-10.344 -29.381,-10.344 -14.977,0 -14.944,10.344 -29.381,10.344 -14.943,0 -15.947,-10.344 -29.381,-10.344 -11.19,0.001 -14.375,6.685 -22.413,9.313 z"
   stroke="#000000"
   fill="#0071bc"
   id="path3411" />
</g>
<g
   transform="matrix(0,2.3995215,-1,0,307.14853,-1169.433)"
   id="g3413">
	<path
   d="m 578.883,-90.066 c 11.936,-1.343 13.344,-10.155 26.216,-10.155 14.437,0 14.438,10.344 29.381,10.344 15.449,0 15.957,-10.344 29.381,-10.344 14.437,0 13.857,10.344 29.381,10.344 15.02,0 15.957,-10.344 29.381,-10.344 12.953,0 13.404,8.922 26.229,10.188 l -13.479,-32.344 c -3.46,-2.257 -7.037,-4.281 -12.75,-4.281 -13.424,0 -14.438,10.375 -29.381,10.375 -14.437,0 -14.909,-10.375 -29.381,-10.375 -14.977,0 -14.944,10.375 -29.381,10.375 -14.943,0 -15.947,-10.375 -29.381,-10.375 -5.69,0 -9.302,1.738 -12.542,3.781 z"
   stroke="#000000"
   fill="#0071bc"
   id="path3415" />
</g>
<g
   transform="translate(7.6784325,-250.93567)"
   id="g4754">
	<g
   id="g4746">
		<g
   transform="matrix(0.8129583,0,0,0.8458872,254.71804,89.310032)"
   id="g4732">
			<path
   d="m -202.959,710.552 c 0,-10.103 -13.378,-16.604 -29.733,-18.302 -16.799,-1.744 -29.85,7.673 -29.733,18.302 0.111,10.103 13.65,22.329 29.733,18.303 16.18,-4.049 29.763,-8.319 29.733,-18.303 z"
   stroke-linecap="square"
   stroke-width="1.2059"
   stroke="#000000"
   fill="#ed1c24"
   id="path3188" />
			<path
   d="m -125.145,710.552 c 0,-10.103 -13.379,-16.604 -29.733,-18.302 -16.799,-1.744 -29.85,7.673 -29.733,18.302 0.111,10.103 13.65,22.329 29.733,18.303 16.179,-4.049 29.762,-8.319 29.733,-18.303 z"
   stroke-linecap="square"
   stroke-width="1.2059"
   stroke="#000000"
   fill="#ed1c24"
   id="path3768" />
		</g>
		<path
   d="m 121.351,651.926 c 0,-8.546 -10.876,-14.045 -24.172,-15.481 -13.657,-1.477 -24.267,6.49 -24.172,15.481 0.09,8.545 11.096,18.888 24.172,15.481 13.153,-3.425 24.195,-7.035 24.172,-15.481 z"
   stroke-linecap="square"
   stroke="#000000"
   fill="#ed1c24"
   id="path3770" />
	</g>
</g>
<g
   transform="translate(26.621323,-249.98486)"
   id="layer2">
	<polyline
   points="200.302,448.699 275,374 574.5,673.5 275,973    -24.5,673.5 200.302,448.699  "
   stroke-width="3"
   stroke="#000000"
   fill="none"
   id="rect12296" />
</g>
<path
   d="m 506.99017,415.84314 c -0.127,-0.124 -0.127,-0.124 -0.255,-0.124 -0.127,0 -0.127,0 -0.127,-0.244 0,0 0,-0.246 0,-0.37 2.163,-20.13 8.904,-33.388 20.482,-40.018 h -56.869 c 11.45,6.629 18.192,19.887 20.355,40.018 0,0.124 0,0.37 0,0.37 0,0.244 0,0.244 -0.127,0.244 -0.128,0 -0.128,0 -0.128,0.124 -0.254,0 -0.381,0 -0.509,0 -20.737,-2.087 -34.479,-8.717 -41.349,-19.887 v 54.993 c 6.87,-11.048 20.61,-17.554 41.349,-19.641 0.128,0 0.255,0 0.509,0.124 0,0 0,0 0.128,0 0.127,0 0.127,0 0.127,0.244 0,0 0,0.245 0,0.369 -2.163,20.009 -8.905,33.389 -20.355,39.896 h 56.869 c -11.578,-6.507 -18.319,-19.887 -20.482,-39.896 0,-0.124 0,-0.369 0,-0.369 0,-0.244 0,-0.244 0.127,-0.244 0.128,0 0.128,0 0.255,0 0.127,-0.124 0.254,-0.124 0.382,-0.124 20.737,2.087 34.603,8.593 41.475,19.641 v -54.993 c -6.869,11.171 -20.736,17.8 -41.475,19.887 -0.128,0 -0.255,0 -0.382,0"
   stroke-linejoin="round"
   stroke-linecap="round"
   stroke="#000000"
   fill="#ed1c24"
   id="path11174" />
<g
   transform="matrix(0,2.3995215,-1,0,131.28275,-1169.433)"
   id="g3405">
	<path
   d="m 571.092,-93.438 c 1.361,0.263 2.885,0.413 4.626,0.413 14.952,0 15.45,-10.344 29.381,-10.344 14.437,0 14.438,10.344 29.381,10.344 15.449,0 15.957,-10.344 29.381,-10.344 14.437,0 13.857,10.344 29.381,10.344 15.02,0 15.957,-10.344 29.381,-10.344 13.94,0 13.393,10.344 29.381,10.344 1.684,0 3.201,-0.108 4.58,-0.303 0,0 0,0 14.069,-33.762 -5.588,3.069 -9.352,7.658 -18.649,7.658 -14.472,0 -16.453,-10.375 -29.381,-10.375 -13.424,0 -14.438,10.375 -29.381,10.375 -14.437,0 -14.909,-10.375 -29.381,-10.375 -14.977,0 -14.944,10.375 -29.381,10.375 -14.943,0 -15.947,-10.375 -29.381,-10.375 -13.931,0 -15.45,10.375 -29.381,10.375 -10.024,0 -12.848,-4.992 -18.81,-8.044 z"
   stroke="#000000"
   fill="#0071bc"
   id="path3407_2_" />
</g>
<g
   transform="matrix(0,2.3995215,-1,0,219.21564,-1169.433)"
   id="g3400">
	<path
   d="m 760.515,-149.975 c -2.318,0.962 -5.026,1.601 -8.511,1.601 -14.472,0 -16.453,-10.344 -29.381,-10.344 -13.424,0 -14.438,10.344 -29.381,10.344 -14.437,0 -14.909,-10.344 -29.381,-10.344 -14.977,0 -14.944,10.344 -29.381,10.344 -14.943,0 -15.947,-10.344 -29.381,-10.344 -13.931,0 -15.45,10.344 -29.381,10.344 -3.61,0 -6.287,-0.64 -8.514,-1.602 l -8.705,20.887 c 4.955,3.043 8.122,7.153 17.219,7.153 14.952,0 15.45,-10.375 29.381,-10.375 14.437,0 14.438,10.375 29.381,10.375 15.449,0 15.957,-10.375 29.381,-10.375 14.437,0 13.857,10.375 29.381,10.375 15.02,0 15.957,-10.375 29.381,-10.375 13.94,0 13.393,10.375 29.381,10.375 9.297,0 13.504,-3.291 17.63,-6.161 z"
   stroke="#000000"
   fill="#0071bc"
   id="rect2335_2_" />
</g>
</svg>
