<?xml version="1.0" encoding="UTF-8" standalone="no"?>
<svg
   xmlns:dc="http://purl.org/dc/elements/1.1/"
   xmlns:cc="http://creativecommons.org/ns#"
   xmlns:rdf="http://www.w3.org/1999/02/22-rdf-syntax-ns#"
   xmlns:svg="http://www.w3.org/2000/svg"
   xmlns="http://www.w3.org/2000/svg"
   xmlns:sodipodi="http://sodipodi.sourceforge.net/DTD/sodipodi-0.dtd"
   xmlns:inkscape="http://www.inkscape.org/namespaces/inkscape"
   inkscape:output_extension="org.inkscape.output.svg.inkscape"
   sodipodi:docname="Escudo_de_Lérida.svg"
   version="1.0"
   inkscape:version="1.0 (4035a4fb49, 2020-05-01)"
   sodipodi:version="0.32"
   id="svg2"
   height="834.75409"
   width="603.24261">
  <defs
     id="defs4">
    <inkscape:perspective
       id="perspective10"
       inkscape:persp3d-origin="372.04724 : 210.54148 : 1"
       inkscape:vp_z="744.09448 : 385.93518 : 1"
       inkscape:vp_y="0 : 1000 : 0"
       inkscape:vp_x="0 : 385.93518 : 1"
       sodipodi:type="inkscape:persp3d" />
    <inkscape:perspective
       sodipodi:type="inkscape:persp3d"
       inkscape:vp_x="0 : 347.25409 : 1"
       inkscape:vp_y="0 : 1000 : 0"
       inkscape:vp_z="605 : 347.25409 : 1"
       inkscape:persp3d-origin="302.5 : 184.75409 : 1"
       id="perspective3026" />
    <inkscape:perspective
       id="perspective2618"
       inkscape:persp3d-origin="372.04724 : 210.54148 : 1"
       inkscape:vp_z="744.09448 : 385.93518 : 1"
       inkscape:vp_y="0 : 1000 : 0"
       inkscape:vp_x="0 : 385.93518 : 1"
       sodipodi:type="inkscape:persp3d" />
    <inkscape:perspective
       sodipodi:type="inkscape:persp3d"
       inkscape:vp_x="0 : 385.93518 : 1"
       inkscape:vp_y="0 : 1000 : 0"
       inkscape:vp_z="744.09448 : 385.93518 : 1"
       inkscape:persp3d-origin="372.04724 : 210.54148 : 1"
       id="perspective9853" />
  </defs>
  <sodipodi:namedview
     inkscape:window-maximized="1"
     inkscape:document-rotation="0"
     inkscape:window-y="0"
     inkscape:window-x="0"
     inkscape:window-height="691"
     inkscape:window-width="1366"
     showgrid="false"
     inkscape:current-layer="layer1"
     inkscape:document-units="px"
     inkscape:cy="158.90998"
     inkscape:cx="331.00205"
     inkscape:zoom="0.40012193"
     inkscape:pageshadow="2"
     inkscape:pageopacity="0.0"
     borderopacity="1.0"
     bordercolor="#666666"
     pagecolor="#ffffff"
     id="base" />
  <metadata
     id="metadata7">
    <rdf:RDF>
      <cc:Work
         rdf:about="">
        <dc:format>image/svg+xml</dc:format>
        <dc:type
           rdf:resource="http://purl.org/dc/dcmitype/StillImage" />
      </cc:Work>
    </rdf:RDF>
  </metadata>
  <g
     transform="translate(-0.87868283,-130.86721)"
     id="layer1"
     inkscape:groupmode="layer"
     inkscape:label="Capa 1">
    <g
       transform="translate(-603.21428,-47.209493)"
       id="g7199">
      <g
         transform="matrix(0.3926312,0,0,0.3724982,-255.27162,245.74672)"
         id="g8962">
        <g
           id="g8964">
          <path
             style="fill:#eac102;fill-rule:evenodd;stroke:#000000;stroke-width:2.61484px;stroke-linecap:butt;stroke-linejoin:miter;stroke-opacity:1"
             d="m 2417.1034,230.14367 c 20.6758,40.49153 45.4058,92.36905 64.5179,86.02392 4.1221,-1.73603 5.463,-11.81574 -0.7051,-44.42219 l -37.371,-73.68443 c -5.1708,-8.3755 -19.8607,-2.03259 -20.8009,6.69859 z"
             id="path8966"
             sodipodi:nodetypes="cccccc" />
          <path
             id="path8968"
             d="m 2448.75,274.90625 6.8125,-19.96875 c -13.8149,-17.77489 -35.1635,-50.18123 -58.0313,-90.46875 -4.7277,-8.33714 -20.9265,-3.41756 -17.0624,5.84375 30.869,58.46136 52.8047,89.21656 68.2812,104.59375 z"
             style="fill:#eac102;fill-rule:evenodd;stroke:#000000;stroke-width:2.61484px;stroke-linecap:butt;stroke-linejoin:miter;stroke-opacity:1" />
        </g>
        <g
           id="g8970">
          <path
             sodipodi:nodetypes="cccccc"
             id="path8972"
             d="m 3496.7613,230.14367 c -20.6758,40.49153 -45.4058,92.36905 -64.5179,86.02392 -4.1221,-1.73603 -5.463,-11.81574 0.7051,-44.42219 l 37.371,-73.68443 c 5.1708,-8.3755 19.8607,-2.03259 20.8009,6.69859 z"
             style="fill:#eac102;fill-rule:evenodd;stroke:#000000;stroke-width:2.61484px;stroke-linecap:butt;stroke-linejoin:miter;stroke-opacity:1" />
          <path
             id="path8974"
             d="m 3458.0938,255.1875 6.8124,19.96875 c 15.4881,-15.30082 37.4816,-46.09948 68.5,-104.84375 3.8641,-9.26131 -12.3348,-14.18089 -17.0624,-5.84375 -22.9748,40.47599 -44.443,73.00074 -58.25,90.71875 z"
             style="fill:#eac102;fill-rule:evenodd;stroke:#000000;stroke-width:2.61484px;stroke-linecap:butt;stroke-linejoin:miter;stroke-opacity:1" />
        </g>
      </g>
      <g
         id="g8976"
         transform="matrix(1,0,0,0.948723,-427.38099,131.91125)">
        <g
           id="g8978"
           transform="matrix(0.3926312,0,0,0.3676466,172.09834,125.47082)">
          <path
             sodipodi:nodetypes="ccccccccccccccccccccccc"
             id="path8980"
             d="m 2259.2204,-21.283662 13.5127,-10.69977 c 38.7245,-10.031734 73.2534,26.8272673 73.0253,42.666284 9.6794,-8.8057395 19.3588,-5.7881781 29.0382,-5.2796724 -5.7251,18.9206564 -0.1378,33.0145444 -6.8636,53.3246894 8.9688,2.784611 15.989,6.738417 17.9509,13.727148 l 8.9754,-5.80764 11.0873,-0.527967 c 2.1216,52.75337 -15.0802,41.15878 -11.6152,60.71623 l 18.4788,-22.70259 20.0628,2.11187 c 9.8196,1.86427 12.6267,13.46219 23.2305,14.78308 -7.4831,10.11579 -12.0387,27.91081 -19.0068,40.12551 -8.5556,6.21222 -16.0753,5.1735 -23.2306,1.5839 23.3337,8.58781 29.4491,28.73746 38.5417,39.59754 -9.5595,0.52797 -18.1418,1.58391 -22.1746,2.11188 14.7377,21.02796 23.1532,37.85908 37.4856,49.62891 l -8.4475,1.5839 -43.8213,-21.64665 -36.9577,-38.01364 -45.4051,-70.21964 -1.5839,-110.87312 c -23.1511,-11.7939305 -19.6064,-39.159015 -72.2829,-36.190252 z"
             style="fill:#eac102;fill-rule:evenodd;stroke:#000000;stroke-width:2.70223;stroke-linecap:round;stroke-linejoin:round;stroke-miterlimit:4;stroke-dasharray:none;stroke-opacity:1" />
          <path
             sodipodi:nodetypes="ccczcccczccczccccccc"
             id="path8982"
             d="m 2257.8362,-20.616681 c 63.0557,6.587504 63.0115,95.729549 75.5853,148.407001 l 40.3183,68.26621 c 25.4971,24.6386 41.9797,55.29007 57.751,58.90359 15.2759,3.50002 14.2178,-3.0187 29.758,0.65753 -30.4247,-13.52566 -16.494,-44.74695 -79.7203,-63.68458 20.4457,-11.32653 20.4445,19.87787 61.3938,10.9959 -11.2314,-28.08772 -35.3707,-29.44338 -46.2744,-39.86014 16.7073,-5.39702 18.5396,5.3425 30.6969,0.45816 13.499,-5.42337 10.385,-26.33514 21.0754,-40.31829 -13.9929,-6.17329 -25.3676,-24.564624 -42.6091,-15.57753 -5.9916,4.96851 -14.8141,21.73624 -24.7407,25.6571 -4.1769,-22.38029 9.8671,-24.38807 12.8285,-35.736673 2.9343,-11.244851 -1.7545,-14.661675 0.9163,-30.696885 -45.4223,16.762132 -28.2802,47.083998 -49.0312,60.368768 -0.2133,-32.214271 8.8979,-18.51426 25.6649,-53.954494 -6.3299,-9.420974 -10.7933,-7.642714 -16.0356,-10.537736 8.3293,-18.001305 0.7954,-28.96192 9.6214,-54.0631718 -16.6788,-5.5724121 -22.3558,3.4658318 -27.0316,9.1632498 -1.695,-15.5926208 -38.1614,-65.956579 -80.1669,-38.448009 z"
             style="fill:#eac102;fill-rule:evenodd;stroke:#000000;stroke-width:2.70223px;stroke-linecap:butt;stroke-linejoin:round;stroke-opacity:1" />
          <path
             d="m 2348.0296,39.81348 c -13.4425,30.094041 -12.093,60.18808 -11.1117,90.28212 m 32.6405,-15.97299 c -2.7041,15.12086 -12.2496,23.40027 -22.2233,31.2515 m 69.4478,-9.02821 c -23.9583,1.77752 -25.7122,17.05247 -61.114,22.22329 m 6.9447,9.72269 c 17.1583,3.44456 34.1187,7.08707 45.8356,15.97299 m -36.8073,5.55583 c 23.3688,28.19752 42.9779,30.73388 50.0024,45.14106"
             style="fill:none;fill-rule:evenodd;stroke:#000000;stroke-width:1.35112;stroke-linecap:butt;stroke-linejoin:miter;stroke-miterlimit:4;stroke-dasharray:none;stroke-opacity:1"
             id="path8984" />
          <g
             transform="matrix(-0.9278259,0.6104274,0.6104274,0.9278259,3844.2704,-1752.9019)"
             id="g8986">
            <path
               id="path8988"
               d="m 2069.0625,730.6875 c 0.2238,0.008 0.4309,0.0937 0.6563,0.0937 12.7586,0 23.0938,-12.76605 23.0937,-28.5 0,-15.73395 -10.3352,-28.49999 -23.0937,-28.5 -0.2254,0 -0.4325,0.0858 -0.6563,0.0937 z"
               style="display:inline;overflow:visible;visibility:visible;opacity:1;fill:#e3e4e5;fill-opacity:1;fill-rule:nonzero;stroke:#000000;stroke-width:2.43308;stroke-linecap:butt;stroke-linejoin:miter;stroke-miterlimit:4;stroke-dasharray:none;stroke-dashoffset:0;stroke-opacity:1;marker:none;marker-start:none;marker-mid:none;marker-end:none;enable-background:accumulate" />
            <path
               sodipodi:nodetypes="ccccc"
               id="path8990"
               d="m 2066.2861,668.73151 h 6.9503 v 66.52937 h -6.9503 c -2.4585,-25.68971 -2.8624,-50.12503 0,-66.52937 z"
               style="display:inline;overflow:visible;visibility:visible;fill:#eac102;fill-opacity:1;fill-rule:nonzero;stroke:#000000;stroke-width:2.43308;stroke-linecap:butt;stroke-linejoin:miter;stroke-miterlimit:4;stroke-dashoffset:0;stroke-opacity:1;marker:none;marker-start:none;marker-mid:none;marker-end:none;enable-background:accumulate" />
          </g>
        </g>
        <g
           transform="matrix(-0.3926312,0,0,0.3676466,2494.0922,125.47082)"
           id="g8992">
          <path
             style="fill:#eac102;fill-rule:evenodd;stroke:#000000;stroke-width:2.70223;stroke-linecap:round;stroke-linejoin:round;stroke-miterlimit:4;stroke-dasharray:none;stroke-opacity:1"
             d="m 2259.2204,-21.283662 13.5127,-10.69977 c 38.7245,-10.031734 73.2534,26.8272673 73.0253,42.666284 9.6794,-8.8057395 19.3588,-5.7881781 29.0382,-5.2796724 -5.7251,18.9206564 -0.1378,33.0145444 -6.8636,53.3246894 8.9688,2.784611 15.989,6.738417 17.9509,13.727148 l 8.9754,-5.80764 11.0873,-0.527967 c 2.1216,52.75337 -15.0802,41.15878 -11.6152,60.71623 l 18.4788,-22.70259 20.0628,2.11187 c 9.8196,1.86427 12.6267,13.46219 23.2305,14.78308 -7.4831,10.11579 -12.0387,27.91081 -19.0068,40.12551 -8.5556,6.21222 -16.0753,5.1735 -23.2306,1.5839 23.3337,8.58781 29.4491,28.73746 38.5417,39.59754 -9.5595,0.52797 -18.1418,1.58391 -22.1746,2.11188 14.7377,21.02796 23.1532,37.85908 37.4856,49.62891 l -8.4475,1.5839 -43.8213,-21.64665 -36.9577,-38.01364 -45.4051,-70.21964 -1.5839,-110.87312 c -23.1511,-11.7939305 -19.6064,-39.159015 -72.2829,-36.190252 z"
             id="path8994"
             sodipodi:nodetypes="ccccccccccccccccccccccc" />
          <path
             style="fill:#eac102;fill-rule:evenodd;stroke:#000000;stroke-width:2.70223px;stroke-linecap:butt;stroke-linejoin:round;stroke-opacity:1"
             d="m 2257.8362,-20.616681 c 63.0557,6.587504 63.0115,95.729549 75.5853,148.407001 l 40.3183,68.26621 c 25.4971,24.6386 41.9797,55.29007 57.751,58.90359 15.2759,3.50002 14.2178,-3.0187 29.758,0.65753 -30.4247,-13.52566 -16.494,-44.74695 -79.7203,-63.68458 20.4457,-11.32653 20.4445,19.87787 61.3938,10.9959 -11.2314,-28.08772 -35.3707,-29.44338 -46.2744,-39.86014 16.7073,-5.39702 18.5396,5.3425 30.6969,0.45816 13.499,-5.42337 10.385,-26.33514 21.0754,-40.31829 -13.9929,-6.17329 -25.3676,-24.564624 -42.6091,-15.57753 -5.9916,4.96851 -14.8141,21.73624 -24.7407,25.6571 -4.1769,-22.38029 9.8671,-24.38807 12.8285,-35.736673 2.9343,-11.244851 -1.7545,-14.661675 0.9163,-30.696885 -45.4223,16.762132 -28.2802,47.083998 -49.0312,60.368768 -0.2133,-32.214271 8.8979,-18.51426 25.6649,-53.954494 -6.3299,-9.420974 -10.7933,-7.642714 -16.0356,-10.537736 8.3293,-18.001305 0.7954,-28.96192 9.6214,-54.0631718 -16.6788,-5.5724121 -22.3558,3.4658318 -27.0316,9.1632498 -1.695,-15.5926208 -38.1614,-65.956579 -80.1669,-38.448009 z"
             id="path8996"
             sodipodi:nodetypes="ccczcccczccczccccccc" />
          <path
             id="path8998"
             style="fill:none;fill-rule:evenodd;stroke:#000000;stroke-width:1.35112;stroke-linecap:butt;stroke-linejoin:miter;stroke-miterlimit:4;stroke-dasharray:none;stroke-opacity:1"
             d="m 2348.0296,39.81348 c -13.4425,30.094041 -12.093,60.18808 -11.1117,90.28212 m 32.6405,-15.97299 c -2.7041,15.12086 -12.2496,23.40027 -22.2233,31.2515 m 69.4478,-9.02821 c -23.9583,1.77752 -25.7122,17.05247 -61.114,22.22329 m 6.9447,9.72269 c 17.1583,3.44456 34.1187,7.08707 45.8356,15.97299 m -36.8073,5.55583 c 23.3688,28.19752 42.9779,30.73388 50.0024,45.14106" />
          <g
             id="g9000"
             transform="matrix(-0.9278259,0.6104274,0.6104274,0.9278259,3844.2704,-1752.9019)">
            <path
               style="display:inline;overflow:visible;visibility:visible;opacity:1;fill:#e3e4e5;fill-opacity:1;fill-rule:nonzero;stroke:#000000;stroke-width:2.43308;stroke-linecap:butt;stroke-linejoin:miter;stroke-miterlimit:4;stroke-dasharray:none;stroke-dashoffset:0;stroke-opacity:1;marker:none;marker-start:none;marker-mid:none;marker-end:none;enable-background:accumulate"
               d="m 2069.0625,730.6875 c 0.2238,0.008 0.4309,0.0937 0.6563,0.0937 12.7586,0 23.0938,-12.76605 23.0937,-28.5 0,-15.73395 -10.3352,-28.49999 -23.0937,-28.5 -0.2254,0 -0.4325,0.0858 -0.6563,0.0937 z"
               id="path9002" />
            <path
               style="display:inline;overflow:visible;visibility:visible;fill:#eac102;fill-opacity:1;fill-rule:nonzero;stroke:#000000;stroke-width:2.43308;stroke-linecap:butt;stroke-linejoin:miter;stroke-miterlimit:4;stroke-dashoffset:0;stroke-opacity:1;marker:none;marker-start:none;marker-mid:none;marker-end:none;enable-background:accumulate"
               d="m 2066.2861,668.73151 h 6.9503 v 66.52937 h -6.9503 c -2.4585,-25.68971 -2.8624,-50.12503 0,-66.52937 z"
               id="path9004"
               sodipodi:nodetypes="ccccc" />
          </g>
        </g>
      </g>
      <path
         id="path9006"
         d="m 905.76321,275.45346 c -1.3687,0.0168 -2.7517,0.87895 -2.7975,2.52601 -1.2603,16.30334 -7.9326,41.71551 -32.6989,46.31782 -24.5644,4.56482 -46.2228,-30.13427 -47.1402,-43.93151 0.0136,-2.05972 -1.653,-2.85925 -3.3374,-2.77045 -1.9089,0.10064 -3.8464,1.3397 -3.3742,3.16623 3.6638,18.83803 -0.1717,42.83273 -17.1776,47.12103 -16.9345,4.2703 -35.4359,-15.77093 -48.6249,-40.75364 -1.2215,-4.72352 -8.2535,-2.87278 -6.9079,0.59367 10.7468,25.97423 7.1159,44.25571 -0.6257,48.11048 -9.4021,2.86473 -29.0135,-20.00166 -40.0239,-40.15997 -1.8725,-2.72803 -8.7673,-1.31129 -7.1287,2.18843 8.0133,15.48601 15.9711,30.96868 16.3433,46.71361 -0.9195,-0.91318 -2.1092,-2.27569 -3.411,-3.86467 l -2.6748,7.43832 c 6.4605,6.08993 10.0517,5.69722 11.8526,4.08584 3.6029,-3.22369 3.6745,-9.8907 -1.1534,-24.74785 8.887,8.96934 22.8577,19.9723 31.8522,13.91048 8.9946,-6.06181 9.8235,-16.98958 9.006,-30.21892 11.0032,13.66319 27.7337,27.75873 42.7477,24.25895 15.2115,-3.54582 21.8511,-16.95133 23.8892,-34.00211 8.3819,15.45473 25.6556,33.12361 46.944,30.41682 20.4516,-2.6004 32.1998,-25.41417 34.392,-32.91954 2.1922,7.50537 13.9526,30.31914 34.4043,32.91954 21.2884,2.70679 38.5498,-14.96209 46.9317,-30.41682 2.0381,17.05078 8.6776,30.45629 23.88919,34.00211 15.0139,3.49978 31.7444,-10.59576 42.7477,-24.25895 -0.8176,13.22934 0.011,24.15711 9.006,30.21892 8.9945,6.06182 22.9652,-4.94114 31.8522,-13.91048 -4.828,14.85715 -4.7564,21.52416 -1.1534,24.74785 1.7927,1.60404 5.3617,2.01034 11.7667,-3.99271 l -2.6748,-7.43833 c -1.2697,1.54579 -2.4235,2.87617 -3.3251,3.77155 0.3722,-15.74493 8.3299,-31.2276 16.3432,-46.71361 1.6387,-3.49972 -5.2439,-4.91646 -7.1164,-2.18843 -11.0104,20.15831 -30.6217,43.0247 -40.0238,40.15997 -7.7415,-3.85477 -11.3847,-22.13625 -0.6381,-48.11048 1.3457,-3.46645 -5.6863,-5.31719 -6.9078,-0.59367 -13.1891,24.98271 -31.6782,45.02394 -48.6127,40.75364 -17.00589,-4.2883 -20.85369,-28.283 -17.18989,-47.12103 0.8889,-3.43818 -6.7283,-4.78985 -6.6992,-0.39578 -0.9174,13.79724 -22.5881,48.49633 -47.1526,43.93151 -24.7662,-4.60231 -31.426,-30.01448 -32.6865,-46.31782 0.0112,-1.71426 -1.343,-2.54281 -2.7116,-2.52601 z"
         style="fill:#eac102;fill-rule:evenodd;stroke:#000000;stroke-width:1px;stroke-linecap:butt;stroke-linejoin:miter;stroke-opacity:1" />
      <g
         transform="matrix(0.3926312,0,0,0.3724982,-255.26807,245.74672)"
         id="g9008">
        <g
           id="g9010"
           transform="matrix(1,0,0,1.0057864,0.81,-1346.0782)">
          <circle
             r="29.462782"
             cy="1390.3806"
             cx="3168.5884"
             transform="translate(5.7741166,34.306194)"
             id="path9012"
             style="display:inline;overflow:visible;visibility:visible;opacity:1;fill:#e3e4e5;fill-opacity:1;fill-rule:evenodd;stroke:#000000;stroke-width:2.60731;stroke-linecap:round;stroke-linejoin:round;stroke-miterlimit:4;stroke-dasharray:none;stroke-dashoffset:0;stroke-opacity:1;marker:none;marker-start:none;marker-mid:none;marker-end:none;enable-background:accumulate" />
          <path
             sodipodi:nodetypes="cczzc"
             id="path9014"
             d="m 3153.8713,1446.2083 c 10.7718,4.0584 21.9748,5.4216 35.2212,4.3839 -0.7469,7.6145 -7.8526,4.5247 -6.7924,11.0304 1.0602,6.5057 -27.3179,4.332 -24.724,-2.5454 2.5939,-6.8773 -5.0767,-5.2953 -3.7048,-12.8689 z"
             style="fill:#eac102;fill-rule:evenodd;stroke:#000000;stroke-width:2.60731;stroke-linecap:butt;stroke-linejoin:miter;stroke-miterlimit:4;stroke-dasharray:none;stroke-opacity:1" />
        </g>
        <g
           transform="matrix(-1,0,0,1.0057864,5913.0469,-1346.0782)"
           id="g9016">
          <circle
             r="29.462782"
             cy="1390.3806"
             cx="3168.5884"
             style="display:inline;overflow:visible;visibility:visible;opacity:1;fill:#e3e4e5;fill-opacity:1;fill-rule:evenodd;stroke:#000000;stroke-width:2.60731;stroke-linecap:round;stroke-linejoin:round;stroke-miterlimit:4;stroke-dasharray:none;stroke-dashoffset:0;stroke-opacity:1;marker:none;marker-start:none;marker-mid:none;marker-end:none;enable-background:accumulate"
             id="path9018"
             transform="translate(5.7741166,34.306194)" />
          <path
             style="fill:#eac102;fill-rule:evenodd;stroke:#000000;stroke-width:2.60731;stroke-linecap:butt;stroke-linejoin:miter;stroke-miterlimit:4;stroke-dasharray:none;stroke-opacity:1"
             d="m 3153.8713,1446.2083 c 10.7718,4.0584 21.9748,5.4216 35.2212,4.3839 -0.7469,7.6145 -7.8526,4.5247 -6.7924,11.0304 1.0602,6.5057 -27.3179,4.332 -24.724,-2.5454 2.5939,-6.8773 -5.0767,-5.2953 -3.7048,-12.8689 z"
             id="path9020"
             sodipodi:nodetypes="cczzc" />
        </g>
      </g>
      <g
         transform="matrix(0.3926312,0,0,0.3724982,-255.24636,245.74672)"
         id="g9022">
        <g
           id="g9024"
           transform="matrix(-0.9418928,0.3353921,0.3297324,0.9353362,4949.3346,-2266.4513)"
           style="opacity:1">
          <circle
             r="29.462782"
             cy="1390.3806"
             cx="3168.5884"
             transform="translate(5.7741166,34.306194)"
             id="path9026"
             style="display:inline;overflow:visible;visibility:visible;opacity:1;fill:#e3e4e5;fill-opacity:1;fill-rule:evenodd;stroke:#000000;stroke-width:2.62593;stroke-linecap:round;stroke-linejoin:round;stroke-miterlimit:4;stroke-dasharray:none;stroke-dashoffset:0;stroke-opacity:1;marker:none;marker-start:none;marker-mid:none;marker-end:none;enable-background:accumulate" />
          <path
             sodipodi:nodetypes="cczzc"
             id="path9028"
             d="m 3153.8713,1446.2083 c 10.7718,4.0584 21.9748,5.4216 35.2212,4.3839 -0.7469,7.6145 -7.8526,4.5247 -6.7924,11.0304 1.0602,6.5057 -27.3179,4.332 -24.724,-2.5454 2.5939,-6.8773 -5.0767,-5.2953 -3.7048,-12.8689 z"
             style="fill:#eac102;fill-rule:evenodd;stroke:#000000;stroke-width:2.62593;stroke-linecap:butt;stroke-linejoin:miter;stroke-miterlimit:4;stroke-dasharray:none;stroke-opacity:1" />
        </g>
        <g
           style="opacity:1"
           transform="matrix(0.9418928,0.3353921,-0.3297324,0.9353362,964.41171,-2266.4513)"
           id="g9030">
          <circle
             r="29.462782"
             cy="1390.3806"
             cx="3168.5884"
             style="display:inline;overflow:visible;visibility:visible;opacity:1;fill:#e3e4e5;fill-opacity:1;fill-rule:evenodd;stroke:#000000;stroke-width:2.62593;stroke-linecap:round;stroke-linejoin:round;stroke-miterlimit:4;stroke-dasharray:none;stroke-dashoffset:0;stroke-opacity:1;marker:none;marker-start:none;marker-mid:none;marker-end:none;enable-background:accumulate"
             id="path9032"
             transform="translate(5.7741166,34.306194)" />
          <path
             style="fill:#eac102;fill-rule:evenodd;stroke:#000000;stroke-width:2.62593;stroke-linecap:butt;stroke-linejoin:miter;stroke-miterlimit:4;stroke-dasharray:none;stroke-opacity:1"
             d="m 3153.8713,1446.2083 c 10.7718,4.0584 21.9748,5.4216 35.2212,4.3839 -0.7469,7.6145 -7.8526,4.5247 -6.7924,11.0304 1.0602,6.5057 -27.3179,4.332 -24.724,-2.5454 2.5939,-6.8773 -5.0767,-5.2953 -3.7048,-12.8689 z"
             id="path9034"
             sodipodi:nodetypes="cczzc" />
        </g>
      </g>
      <g
         transform="matrix(0.3932193,0,0,0.4030856,-257.82311,231.91807)"
         id="g9036"
         style="display:inline">
        <path
           style="fill:#eac102;fill-rule:evenodd;stroke:#000000;stroke-width:2.51179px;stroke-linecap:butt;stroke-linejoin:miter;stroke-opacity:1"
           d="m 2841.4937,4.1306535 c 0,0 28.8788,-5.1505141 44.492,18.1740365 15.3413,22.918125 52.7634,20.519073 52.7634,20.519073 l -15.829,51.590814 -102.0091,-38.69311 c -0.7097,0 6.2592,-9.733994 19.3465,-8.793889 13.0873,0.940105 20.5001,17.833079 40.4519,9.966408 z"
           id="path9038"
           sodipodi:nodetypes="czccczcc" />
        <path
           sodipodi:nodetypes="czccczcc"
           id="path9040"
           d="m 3076.5136,4.1306535 c 0,0 -28.8788,-5.1505141 -44.492,18.1740365 -15.3413,22.918125 -52.7634,20.519073 -52.7634,20.519073 l 15.829,51.590814 102.0091,-38.69311 c 0.7097,0 -6.2592,-9.733994 -19.3465,-8.793889 -13.0873,0.940105 -20.5001,17.833079 -40.4519,9.966408 z"
           style="fill:#eac102;fill-rule:evenodd;stroke:#000000;stroke-width:2.51179px;stroke-linecap:butt;stroke-linejoin:miter;stroke-opacity:1" />
        <path
           sodipodi:nodetypes="ccccccccscscccccccccscscccccccccc"
           style="fill:#eac102;fill-rule:evenodd;stroke:#000000;stroke-width:2.51179px;stroke-linecap:butt;stroke-linejoin:miter;stroke-opacity:1"
           d="m 2958.754,-131.54692 c -17.5495,18.95665 -35.4394,40.263977 -36.4062,68.26567 -14.0703,-14.666102 -28.1486,-4.409478 -42.2188,-1.78125 7.0688,9.514919 -0.2006,35.591803 9.375,53.375 -10.2419,0.805196 -14.866,9.8429331 -21.0938,15.21875 4.1931,15.598209 52.0459,17.805823 60.375,46.3125 -52.1011,-5.195722 -35.6003,-42.8867565 -87.9374,-45.71875 -8.3654,43.101669 24.9649,34.569181 27.5624,58.03125 -15.9132,2.984245 -19.887,-13.089906 -33.75,-12.4375 -19.4297,0.914379 -27.838,22.163956 -40.125,29.4375 18.9407,5.159853 26.0557,23.19622 45.0626,27.5625 10.272,2.35973 15.109,-15.805611 31.1562,-7.625 -15.7384,21.82476 -31.4376,15.41252 -23.4688,46.3125 59.5699,5.25788 35.2243,-35.33363 75.0626,-29.3125 -60.1728,37.02337 -27.1126,51.09338 -42.2188,79.75 30.9985,-12.63825 42.1487,-3.99078 78.875,-30.3125 36.7263,26.32172 47.8766,17.67425 78.875,30.3125 -15.1062,-28.65662 17.954,-42.72663 -42.2188,-79.75 39.8383,-6.02113 15.4928,34.57038 75.0626,29.3125 7.9688,-30.89998 -7.7304,-24.48774 -23.4688,-46.3125 16.0472,-8.180611 20.8842,9.98473 31.1562,7.625 19.0069,-4.36628 26.1217,-22.402647 45.0626,-27.5625 -12.287,-7.273544 -20.6953,-28.523121 -40.125,-29.4375 -13.863,-0.652406 -17.8368,15.421745 -33.75,12.4375 2.5976,-23.462069 35.9278,-14.929581 27.5624,-58.03125 -52.3372,2.8319935 -35.8366,40.523028 -87.9374,45.71875 8.3291,-28.506677 56.1819,-30.714291 60.375,-46.3125 -6.2278,-5.3758169 -10.8519,-14.413554 -21.0938,-15.21875 9.5756,-17.783197 2.3063,-43.860081 9.375,-53.375 -14.0702,-2.628228 -28.1485,-12.884852 -42.2188,1.78125 -0.9668,-28.001693 -18.8566,-49.30902 -36.4062,-68.26567 l -0.25,-0.25 z"
           id="path9042" />
        <path
           id="path9044"
           style="fill:none;fill-rule:evenodd;stroke:#000000;stroke-width:1.2559;stroke-linecap:round;stroke-linejoin:miter;stroke-miterlimit:4;stroke-dasharray:none;stroke-opacity:1"
           d="m 2959.4071,53.359306 c -1.8139,-3.26519 0,-157.770886 0,-157.770886 m -9.5108,213.06391 c -4.7015,18.52753 -21.4209,48.18744 -41.0346,58.70657 m 20.5962,-75.341287 c -15.5614,0.78921 -44.3598,16.442077 -55.8772,23.786027 m 53.1562,-30.845833 c -55.011,4.998295 -77.4607,-17.219725 -94.4791,-10.295533 m 96.7572,-5.71627 c 0,0 -13.5066,-3.93962 -29.3456,-8.270611 -10.1782,-2.783118 -16.3408,-15.241719 -22.8384,-22.087656 m 75.034,11.417782 c 0,0 -0.8149,-10.30191 -13.1398,-39.171121 -11.9454,-27.979451 -27.474,-42.90183 -27.474,-42.90183 m 56.8605,140.719762 c 4.7016,18.52753 21.4208,48.18744 41.0346,58.70657 m -20.5961,-75.341287 c 15.5614,0.78921 44.3598,16.442077 55.8771,23.786027 m -53.1561,-30.845833 c 55.011,4.998295 77.4607,-17.219725 94.4791,-10.295533 m -96.7572,-5.71627 c 0,0 13.5066,-3.93962 29.3456,-8.270611 10.1781,-2.783118 16.3408,-15.241719 22.8384,-22.087656 m -75.0342,11.417782 c 0,0 0.815,-10.30191 13.14,-39.171121 11.9454,-27.979451 27.474,-42.90183 27.474,-42.90183" />
        <g
           id="g9046">
          <circle
             r="27.554184"
             cy="81.516876"
             cx="2962.3679"
             style="display:inline;overflow:visible;visibility:visible;fill:#eac102;fill-opacity:1;fill-rule:evenodd;stroke:#000000;stroke-width:1.983;stroke-linecap:round;stroke-linejoin:round;stroke-miterlimit:4;stroke-dasharray:none;stroke-dashoffset:0;stroke-opacity:1;marker:none;marker-start:none;marker-mid:none;marker-end:none;enable-background:accumulate"
             id="path9048"
             transform="matrix(1.3114524,0,0,1.2234043,-925.15005,-19.090606)" />
          <circle
             r="27.554184"
             cy="81.516876"
             cx="2962.3679"
             transform="matrix(1.0425532,0,0,0.972312,-128.57176,1.3776492)"
             id="path9050"
             style="display:inline;overflow:visible;visibility:visible;fill:#e3e4e5;fill-opacity:1;fill-rule:evenodd;stroke:#000000;stroke-width:2.49478;stroke-linecap:round;stroke-linejoin:round;stroke-miterlimit:4;stroke-dasharray:none;stroke-dashoffset:0;stroke-opacity:1;marker:none;marker-start:none;marker-mid:none;marker-end:none;enable-background:accumulate" />
        </g>
      </g>
      <path
         style="fill:#eac102;fill-rule:evenodd;stroke:#000000;stroke-width:1px;stroke-linecap:butt;stroke-linejoin:miter;stroke-opacity:1"
         d="m 905.53981,330.45577 c -56.6126,0.56447 -113.8758,0.61709 -169.475,11.94058 -12.4075,3.73883 -30.1461,5.82662 -34.8036,19.0699 -1.5279,11.06141 12.5006,15.74938 21.2634,18.78935 41.7444,11.96344 85.853,12.97626 129.1053,14.8465 67.2905,1.28869 135.0147,1.81183 201.80629,-7.1218 18.2471,-3.36522 38.3394,-5.44219 53.3445,-16.77983 8.9596,-8.3789 -0.9579,-20.0949 -10.8624,-22.50474 -33.9772,-12.44682 -71.0359,-13.78245 -106.97189,-16.31661 -27.7733,-1.44701 -55.5949,-1.90497 -83.4066,-1.92335 z"
         id="path9052" />
      <path
         style="fill:#eac102;fill-opacity:1;fill-rule:evenodd;stroke:#000000;stroke-width:1px;stroke-linecap:butt;stroke-linejoin:miter;stroke-opacity:1"
         d="m 905.71443,344.05301 c -30.85713,0 -56.87993,0.5738 -78.8125,1.57132 -4.38667,0.19951 -8.62137,0.42171 -12.6875,0.65225 -48.77128,2.76678 -74.92265,7.65796 -88.9375,12.12586 -1.16805,0.37241 -2.27567,0.73194 -3.28125,1.09696 -5.01152,1.8212 -8.09361,3.5648 -9.96875,4.9808 -0.36877,0.27856 -0.68636,0.54611 -0.96875,0.80048 -0.29289,0.26383 -0.53742,0.50645 -0.75,0.74119 -1.25317,1.38323 -1.21876,2.22357 -1.21875,2.22357 l 10.65625,36.73337 h 34.84375 302.24997 34.8438 l 10.6562,-36.73337 c 0,0 0.034,-0.84034 -1.2188,-2.22357 -0.2125,-0.23474 -0.4571,-0.47736 -0.75,-0.74119 -1.7146,-1.54923 -4.9217,-3.59514 -10.9374,-5.78128 -0.01,-0.003 -0.023,0.003 -0.031,0 -13.0714,-4.74427 -39.351,-10.22543 -92.18747,-13.22282 -0.01,-5.7e-4 -0.0213,5.7e-4 -0.0312,0 -4.0661,-0.23054 -8.2698,-0.45274 -12.6563,-0.65225 -21.9333,-0.99753 -47.9536,-1.57132 -78.8125,-1.57132 z"
         id="path9054" />
      <g
         transform="matrix(0.4140904,0,0,0.3928571,245.25898,85.84006)"
         id="g9056">
        <circle
           r="23.065676"
           cy="707.07074"
           cx="1773.2821"
           transform="matrix(1.3345865,0,0,1.4473316,-589.58751,-320.19715)"
           id="path9058"
           style="display:inline;overflow:visible;visibility:visible;opacity:1;fill:#eac102;fill-opacity:1;fill-rule:evenodd;stroke:#000000;stroke-width:1.78393px;stroke-linecap:round;stroke-linejoin:round;stroke-miterlimit:4;stroke-dasharray:none;stroke-dashoffset:0;stroke-opacity:1;marker:none;marker-start:none;marker-mid:none;marker-end:none;enable-background:accumulate" />
        <circle
           r="23.065676"
           cy="707.07074"
           cx="1773.2821"
           style="display:inline;overflow:visible;visibility:visible;opacity:1;fill:#eac102;fill-opacity:1;fill-rule:evenodd;stroke:#000000;stroke-width:1.80438px;stroke-linecap:round;stroke-linejoin:round;stroke-miterlimit:4;stroke-dasharray:none;stroke-dashoffset:0;stroke-opacity:1;marker:none;marker-start:none;marker-mid:none;marker-end:none;enable-background:accumulate"
           id="path9060"
           transform="matrix(1.3045113,0,0,1.4473316,-532.96062,-320.19715)" />
        <circle
           r="23.065676"
           cy="707.07074"
           cx="1773.2821"
           transform="matrix(1.1541354,0,0,1.2518797,-265.60797,-181.99885)"
           id="path9062"
           style="display:inline;overflow:visible;visibility:visible;opacity:1;fill:#e3e4e5;fill-opacity:1;fill-rule:evenodd;stroke:#000000;stroke-width:2.06265px;stroke-linecap:round;stroke-linejoin:round;stroke-miterlimit:4;stroke-dasharray:none;stroke-dashoffset:0;stroke-opacity:1;marker:none;marker-start:none;marker-mid:none;marker-end:none;enable-background:accumulate" />
      </g>
      <g
         id="g9064"
         transform="matrix(-0.4140904,0,0,0.3928571,1566.1697,85.84006)">
        <circle
           r="23.065676"
           cy="707.07074"
           cx="1773.2821"
           style="display:inline;overflow:visible;visibility:visible;opacity:1;fill:#eac102;fill-opacity:1;fill-rule:evenodd;stroke:#000000;stroke-width:1.78393px;stroke-linecap:round;stroke-linejoin:round;stroke-miterlimit:4;stroke-dasharray:none;stroke-dashoffset:0;stroke-opacity:1;marker:none;marker-start:none;marker-mid:none;marker-end:none;enable-background:accumulate"
           id="path9066"
           transform="matrix(1.3345865,0,0,1.4473316,-589.58751,-320.19715)" />
        <circle
           r="23.065676"
           cy="707.07074"
           cx="1773.2821"
           transform="matrix(1.3045113,0,0,1.4473316,-532.96062,-320.19715)"
           id="path9068"
           style="display:inline;overflow:visible;visibility:visible;opacity:1;fill:#eac102;fill-opacity:1;fill-rule:evenodd;stroke:#000000;stroke-width:1.80438px;stroke-linecap:round;stroke-linejoin:round;stroke-miterlimit:4;stroke-dasharray:none;stroke-dashoffset:0;stroke-opacity:1;marker:none;marker-start:none;marker-mid:none;marker-end:none;enable-background:accumulate" />
        <circle
           r="23.065676"
           cy="707.07074"
           cx="1773.2821"
           style="display:inline;overflow:visible;visibility:visible;opacity:1;fill:#e3e4e5;fill-opacity:1;fill-rule:evenodd;stroke:#000000;stroke-width:2.06265px;stroke-linecap:round;stroke-linejoin:round;stroke-miterlimit:4;stroke-dasharray:none;stroke-dashoffset:0;stroke-opacity:1;marker:none;marker-start:none;marker-mid:none;marker-end:none;enable-background:accumulate"
           id="path9070"
           transform="matrix(1.1541354,0,0,1.2518797,-265.60797,-181.99885)" />
      </g>
      <g
         id="g9072"
         transform="matrix(-0.4051001,0.07361344,0,0.3939808,1552.1765,-51.2868)">
        <path
           style="fill:none;fill-rule:evenodd;stroke:#000000;stroke-width:2.50312px;stroke-linecap:round;stroke-linejoin:round;stroke-opacity:1"
           d="m 1880.9956,701.45346 50.3965,-34.39748 h 3.2283 l -48.0651,34.39748 z"
           id="path9074"
           sodipodi:nodetypes="ccccc" />
        <path
           sodipodi:nodetypes="ccccc"
           id="path9076"
           d="m 1880.9956,701.45346 50.3965,34.39748 h 3.2283 l -48.0651,-34.39748 z"
           style="fill:none;fill-rule:evenodd;stroke:#000000;stroke-width:2.50312px;stroke-linecap:round;stroke-linejoin:round;stroke-opacity:1" />
        <path
           style="display:inline;overflow:visible;visibility:visible;fill:none;fill-opacity:1;fill-rule:evenodd;stroke:#000000;stroke-width:2.50312px;stroke-linecap:round;stroke-linejoin:round;stroke-miterlimit:4;stroke-dasharray:none;stroke-dashoffset:0;stroke-opacity:1;marker:none;marker-start:none;marker-mid:none;marker-end:none;enable-background:accumulate"
           d="m 1934.694,735.73249 45.2605,-33.39707 -45.1577,-35.10307"
           id="path9078"
           sodipodi:nodetypes="ccc" />
        <g
           id="g9080"
           transform="translate(2)">
          <path
             id="path9082"
             d="m 1897.0477,701.80623 36.1615,26.63599 35.6322,-26.81239 -35.8086,-26.10681 z"
             style="fill:#008f4c;fill-rule:evenodd;stroke:#000000;stroke-width:2.50312px;stroke-linecap:round;stroke-linejoin:round;stroke-opacity:1" />
          <path
             style="fill:none;fill-rule:evenodd;stroke:#000000;stroke-width:1.50187;stroke-linecap:round;stroke-linejoin:round;stroke-miterlimit:4;stroke-dasharray:none;stroke-opacity:1"
             d="m 1921.3647,701.8897 19.1285,14.02828 18.8485,-14.12119 -18.9418,-13.74958 z"
             id="path9084" />
          <path
             sodipodi:nodetypes="cc"
             id="path9086"
             d="m 1933.0328,728.26583 7.4971,-12.3482"
             style="fill:none;fill-rule:evenodd;stroke:#000000;stroke-width:1.50187;stroke-linecap:round;stroke-linejoin:round;stroke-miterlimit:4;stroke-dasharray:none;stroke-opacity:1" />
          <path
             sodipodi:nodetypes="cc"
             id="path9088"
             d="m 1968.3123,701.62983 -9.0409,0.13258"
             style="fill:none;fill-rule:evenodd;stroke:#000000;stroke-width:1.50187;stroke-linecap:round;stroke-linejoin:round;stroke-miterlimit:4;stroke-dasharray:none;stroke-opacity:1" />
          <path
             id="path9090"
             d="m 1921.3906,701.80623 h -23.6373"
             style="fill:none;fill-rule:evenodd;stroke:#000000;stroke-width:1.50187;stroke-linecap:round;stroke-linejoin:round;stroke-miterlimit:4;stroke-dasharray:none;stroke-opacity:1" />
          <path
             sodipodi:nodetypes="cc"
             id="path9092"
             d="m 1940.4853,688.1802 -7.4525,-12.65718"
             style="fill:none;fill-rule:evenodd;stroke:#000000;stroke-width:1.50187;stroke-linecap:round;stroke-linejoin:round;stroke-miterlimit:4;stroke-dasharray:none;stroke-opacity:1" />
        </g>
      </g>
      <g
         transform="matrix(0.4051001,0.07361344,0,0.3939808,259.25187,-51.2868)"
         id="g9094">
        <path
           sodipodi:nodetypes="ccccc"
           id="path9096"
           d="m 1880.9956,701.45346 50.3965,-34.39748 h 3.2283 l -48.0651,34.39748 z"
           style="fill:none;fill-rule:evenodd;stroke:#000000;stroke-width:2.50312px;stroke-linecap:round;stroke-linejoin:round;stroke-opacity:1" />
        <path
           style="fill:none;fill-rule:evenodd;stroke:#000000;stroke-width:2.50312px;stroke-linecap:round;stroke-linejoin:round;stroke-opacity:1"
           d="m 1880.9956,701.45346 50.3965,34.39748 h 3.2283 l -48.0651,-34.39748 z"
           id="path9098"
           sodipodi:nodetypes="ccccc" />
        <path
           sodipodi:nodetypes="ccc"
           id="path9100"
           d="m 1934.694,735.73249 45.2605,-33.39707 -45.1577,-35.10307"
           style="display:inline;overflow:visible;visibility:visible;fill:none;fill-opacity:1;fill-rule:evenodd;stroke:#000000;stroke-width:2.50312px;stroke-linecap:round;stroke-linejoin:round;stroke-miterlimit:4;stroke-dasharray:none;stroke-dashoffset:0;stroke-opacity:1;marker:none;marker-start:none;marker-mid:none;marker-end:none;enable-background:accumulate" />
        <g
           transform="translate(2)"
           id="g9102">
          <path
             style="fill:#008f4c;fill-rule:evenodd;stroke:#000000;stroke-width:2.50312px;stroke-linecap:round;stroke-linejoin:round;stroke-opacity:1"
             d="m 1897.0477,701.80623 36.1615,26.63599 35.6322,-26.81239 -35.8086,-26.10681 z"
             id="path9104" />
          <path
             id="path9106"
             d="m 1921.3647,701.8897 19.1285,14.02828 18.8485,-14.12119 -18.9418,-13.74958 z"
             style="fill:none;fill-rule:evenodd;stroke:#000000;stroke-width:1.25156;stroke-linecap:round;stroke-linejoin:round;stroke-miterlimit:4;stroke-dasharray:none;stroke-opacity:1" />
          <path
             style="fill:none;fill-rule:evenodd;stroke:#000000;stroke-width:1.25156;stroke-linecap:round;stroke-linejoin:round;stroke-miterlimit:4;stroke-dasharray:none;stroke-opacity:1"
             d="m 1933.0328,728.26583 7.4971,-12.3482"
             id="path9108"
             sodipodi:nodetypes="cc" />
          <path
             style="fill:none;fill-rule:evenodd;stroke:#000000;stroke-width:1.25156;stroke-linecap:round;stroke-linejoin:round;stroke-miterlimit:4;stroke-dasharray:none;stroke-opacity:1"
             d="m 1968.3123,701.62983 -9.0409,0.13258"
             id="path9110"
             sodipodi:nodetypes="cc" />
          <path
             style="fill:none;fill-rule:evenodd;stroke:#000000;stroke-width:1.25156;stroke-linecap:round;stroke-linejoin:round;stroke-miterlimit:4;stroke-dasharray:none;stroke-opacity:1"
             d="m 1921.3906,701.80623 h -23.6373"
             id="path9112" />
          <path
             style="fill:none;fill-rule:evenodd;stroke:#000000;stroke-width:1.25156;stroke-linecap:round;stroke-linejoin:round;stroke-miterlimit:4;stroke-dasharray:none;stroke-opacity:1"
             d="m 1940.4853,688.1802 -7.4525,-12.65718"
             id="path9114"
             sodipodi:nodetypes="cc" />
        </g>
      </g>
      <g
         id="g9116"
         transform="matrix(0.4140904,0,0,0.3928571,245.06541,84.36056)">
        <rect
           rx="32.551369"
           ry="33.918144"
           y="669.16895"
           x="1531.7725"
           height="67.836288"
           width="127.29893"
           id="rect9118"
           style="display:inline;overflow:visible;visibility:visible;opacity:1;fill:#eac102;fill-opacity:1;fill-rule:nonzero;stroke:#000000;stroke-width:2.47934;stroke-linecap:butt;stroke-linejoin:miter;stroke-miterlimit:4;stroke-dasharray:none;stroke-dashoffset:0;stroke-opacity:1;marker:none;marker-start:none;marker-mid:none;marker-end:none;enable-background:accumulate" />
        <rect
           style="display:inline;overflow:visible;visibility:visible;opacity:1;fill:#ed1c24;fill-opacity:1;fill-rule:nonzero;stroke:#000000;stroke-width:2.47934;stroke-linecap:butt;stroke-linejoin:miter;stroke-miterlimit:4;stroke-dasharray:none;stroke-dashoffset:0;stroke-opacity:1;marker:none;marker-start:none;marker-mid:none;marker-end:none;enable-background:accumulate"
           id="rect9120"
           width="114.54353"
           height="58.579422"
           x="1538.15"
           y="673.79742"
           ry="29.289711"
           rx="29.289711" />
      </g>
      <path
         sodipodi:nodetypes="cccccccccc"
         id="path9122"
         d="m 708.06141,341.017 -2.7,5.66195 c 0.6536,0.65867 1.3416,1.301 2.0538,1.93189 l 1.7872,-6.71935 c -0.2971,-0.39777 -0.7482,-0.93869 -1.141,-0.87449 z m 395.36019,-0.018 c -0.4887,0.008 -0.514,0.0226 -1.3488,1.05762 l 2.0901,6.438 c 0.5409,-0.46737 1.0873,-0.98996 1.6171,-1.53176 z"
         style="fill:#eac102;fill-opacity:1;fill-rule:evenodd;stroke:#000000;stroke-width:1px;stroke-linecap:butt;stroke-linejoin:miter;stroke-opacity:0" />
      <g
         transform="matrix(1,0,0,0.948723,523.05855,-150.33623)"
         id="g9124">
        <g
           id="g9126"
           transform="matrix(0.3926312,0,0,0.3926312,-779.60271,412.54467)">
          <path
             sodipodi:nodetypes="cccccccccccccczcccccccccccccccccccc"
             id="path9128"
             d="m 2485.2329,-95.278002 11.5204,-4.942028 c 34.5626,-5.26509 51.2104,33.927292 54.4278,56.039343 13.2829,-4.462713 30.9666,-9.575597 50.8726,-4.769305 -4.9926,21.104705 -1.2477,24.197661 -9.1412,52.0649203 19.6649,3.8354973 20.2688,10.4215587 25.8338,14.3079167 -23.9998,19.994418 -59.5257,25.64123 -61.2061,50.872595 l 38.5519,-6.756517 c 18.4148,-15.235282 18.2648,-45.166946 55.2444,-45.705846 3.8395,43.71384 -20.9298,30.607323 -30.2056,62.000974 29.2782,2.384653 90.0446,-2.075931 87.8347,7.153959 -27.1591,17.73375 -25.2255,23.33985 -39.3467,32.9877 l -9.1412,0.79488 c -9.2321,-4.17018 -14.6868,-18.917142 -28.6158,-9.93605 -6e-4,-1.7e-4 7.6973,5.72975 29.4106,14.70536 21.0364,8.69576 17.0901,31.79537 17.0901,31.79537 -30.9851,4.78966 -43.3101,-3.59262 -56.8342,-11.12838 36.3917,26.29776 26.4529,43.16019 46.8981,64.38563 l -5.1667,-0.39745 c -41.1731,2.09699 -62.1151,-15.72694 -89.027,-25.03886 3.5052,11.08975 -14.9666,30.07238 -20.2696,41.33399 h -3.9744 l -23.0517,-54.05213 c -2.8882,7.31176 -7.2802,5.60155 -11.1283,7.15396 l -24.6415,-66.37284 c -16.1827,-5.51333 -13.5976,-17.282619 -14.7053,-27.820949 3.7809,0.466833 3.8421,-1.298209 12.3207,1.987211 l -11.1284,-27.82095 -1.9872,-19.474665 c 4.4616,3.015721 12.7487,0.930828 11.5258,11.525822 3.0197,12.110385 7.5468,21.206061 11.5258,31.397929 l 13.1156,-43.718636 -24.6414,-75.514006 13.9105,-5.56419 c -5.2515,-17.16768 21.4393,-36.616956 -15.8705,-51.494758 z"
             style="fill:#eac102;fill-rule:evenodd;stroke:#000000;stroke-width:2.61484px;stroke-linecap:butt;stroke-linejoin:miter;stroke-opacity:1" />
          <path
             sodipodi:nodetypes="ccccccccczcccccccccccccccccccc"
             id="path9130"
             d="m 2483.4644,-94.739902 c 35.629,-12.751578 57.5044,21.597318 59.3075,50.033913 17.0876,-4.868621 34.2185,-9.218326 52.2163,-3.16462 -10.9925,24.108836 -0.9477,37.543956 -13.1859,55.3808454 21.6129,1.8351032 16.7671,6.6315266 28.4815,11.0761686 -33.123,28.565711 -62.1481,22.563936 -64.3472,53.798536 53.509,-16.48074 32.0256,-29.107568 56.9631,-43.77724 11.4823,-6.977972 25.281,-11.639591 43.2498,-12.131042 3.8936,46.67994 -25.4254,32.156738 -33.2285,61.710085 26.9571,-3.66005 30.5292,-19.007846 46.7522,-21.424805 16.2231,-2.416959 31.3335,15.4117 48.7138,26.171734 -31.1557,12.186462 -34.4677,37.355207 -49.9063,35.169377 -14.2143,-1.73546 -15.9483,-12.71681 -32.9012,-5.10549 15.0232,13.40094 40.8004,11.43544 47.9967,40.61262 -37.2471,12.56255 -63.2578,-16.92633 -100.2129,-17.93284 90.783,25.05274 57.734,52.6732 90.1916,72.78625 -24.8466,-2.76734 -45.1903,4.39454 -91.2465,-22.15234 1.2933,12.65446 -15.4459,22.54159 -23.2072,38.50287 -4.803,-25.18002 -29.5785,-37.66738 -24.7895,-77.00574 -9.4211,1.12768 5.4423,28.68073 -10.0213,29.53645 -13.0655,-11.26704 -14.0072,-26.45597 -14.2408,-36.92057 -7.5599,-9.14223 2.8475,16.5954 -29.009,-24.26208 -2.8173,-4.24066 1.7355,-30.704371 5.2743,-32.70107 2.6004,6.578616 5.0582,13.442399 11.0762,13.185915 -2.1017,-9.733657 -4.3178,-19.391031 -10.5487,-26.371831 -3.3052,-2.083416 -2.7557,-20.071228 -1.0549,-31.646197 11.3242,13.8996 3.3731,35.375083 22.1523,39.03031 -1.1187,-35.233587 -31.1642,-24.405061 -14.2408,-58.018028 -2.2855,-18.1086573 -2.7978,-75.551583 9.4939,-53.271099 -1.0632,-30.299506 12.9476,-51.707089 -9.7285,-61.110082 z"
             style="fill:#eac102;fill-rule:evenodd;stroke:#000000;stroke-width:2.61484px;stroke-linecap:round;stroke-linejoin:round;stroke-opacity:1" />
          <path
             d="m 2515.2425,74.654516 c -15.6283,-89.020693 10.8016,-115.663783 -7.0059,-158.6096 m 58.4448,70.377442 c -33.8269,29.410719 -41.8938,58.821437 -44.5136,88.232156 m 32.5903,27.820946 c 43.1818,2.9331 63.3268,-17.898067 108.1043,-19.077219 m -111.2838,7.948843 c 34.8637,-4.957398 43.8556,-24.440438 54.847,-39.744214 m -50.0777,59.61632 c 28.6582,0.68109 53.223,8.82558 65.9754,18.28234 m -78.6936,5.56419 c 28.6894,32.74714 46.9066,30.58693 69.9498,44.51352 m -75.514,-45.3084 c -4.2515,25.57808 5.8171,42.19156 8.7437,54.84701 m -31.7953,-59.61632 c -3.1433,4.54063 -5.335,10.03275 -6.3591,16.69257 m -3.9744,-32.59026 c -13.0953,5.14741 -11.4939,-1.48525 -26.2312,1.58977 m 26.2312,-21.461873 c -5.2992,-0.841044 -10.5985,-3.465189 -15.8977,-12.718149 m 21.4619,-3.179537 c -3.9178,-22.834193 -8.4205,-46.545832 -20.667,-81.8730813"
             style="fill:none;fill-rule:evenodd;stroke:#000000;stroke-width:1.30742;stroke-linecap:round;stroke-linejoin:round;stroke-miterlimit:4;stroke-dasharray:none;stroke-opacity:1"
             id="path9132"
             sodipodi:nodetypes="cccccccccccccccccccccc" />
          <g
             transform="matrix(-0.748008,0.507597,0.4813713,0.8831979,3520.4688,-1419.3176)"
             id="g6594">
            <circle
               r="23.065676"
               cy="707.07074"
               cx="1773.2821"
               transform="matrix(1.3345865,0,0,1.4473316,-589.58751,-320.19715)"
               id="path9136"
               style="display:inline;overflow:visible;visibility:visible;opacity:1;fill:#eac102;fill-opacity:1;fill-rule:evenodd;stroke:#000000;stroke-width:1.97774px;stroke-linecap:round;stroke-linejoin:round;stroke-miterlimit:4;stroke-dasharray:none;stroke-dashoffset:0;stroke-opacity:1;marker:none;marker-start:none;marker-mid:none;marker-end:none;enable-background:accumulate" />
            <circle
               r="23.065676"
               cy="707.07074"
               cx="1773.2821"
               style="display:inline;overflow:visible;visibility:visible;opacity:1;fill:#eac102;fill-opacity:1;fill-rule:evenodd;stroke:#000000;stroke-width:2.0004px;stroke-linecap:round;stroke-linejoin:round;stroke-miterlimit:4;stroke-dasharray:none;stroke-dashoffset:0;stroke-opacity:1;marker:none;marker-start:none;marker-mid:none;marker-end:none;enable-background:accumulate"
               id="path9138"
               transform="matrix(1.3045113,0,0,1.4473316,-532.96062,-320.19715)" />
            <circle
               r="23.065676"
               cy="707.07074"
               cx="1773.2821"
               transform="matrix(1.1541354,0,0,1.2518797,-265.60797,-181.99885)"
               id="path9140"
               style="display:inline;overflow:visible;visibility:visible;opacity:1;fill:#e3e4e5;fill-opacity:1;fill-rule:evenodd;stroke:#000000;stroke-width:2.28674px;stroke-linecap:round;stroke-linejoin:round;stroke-miterlimit:4;stroke-dasharray:none;stroke-dashoffset:0;stroke-opacity:1;marker:none;marker-start:none;marker-mid:none;marker-end:none;enable-background:accumulate" />
          </g>
        </g>
        <g
           transform="matrix(-0.3926312,0,0,0.3926312,1544.9142,412.54467)"
           id="g9142">
          <path
             style="fill:#eac102;fill-rule:evenodd;stroke:#000000;stroke-width:2.61484px;stroke-linecap:butt;stroke-linejoin:miter;stroke-opacity:1"
             d="m 2485.2329,-95.278002 11.5204,-4.942028 c 34.5626,-5.26509 51.2104,33.927292 54.4278,56.039343 13.2829,-4.462713 30.9666,-9.575597 50.8726,-4.769305 -4.9926,21.104705 -1.2477,24.197661 -9.1412,52.0649203 19.6649,3.8354973 20.2688,10.4215587 25.8338,14.3079167 -23.9998,19.994418 -59.5257,25.64123 -61.2061,50.872595 l 38.5519,-6.756517 c 18.4148,-15.235282 18.2648,-45.166946 55.2444,-45.705846 3.8395,43.71384 -20.9298,30.607323 -30.2056,62.000974 29.2782,2.384653 90.0446,-2.075931 87.8347,7.153959 -27.1591,17.73375 -25.2255,23.33985 -39.3467,32.9877 l -9.1412,0.79488 c -9.2321,-4.17018 -14.6868,-18.917142 -28.6158,-9.93605 -6e-4,-1.7e-4 7.6973,5.72975 29.4106,14.70536 21.0364,8.69576 17.0901,31.79537 17.0901,31.79537 -30.9851,4.78966 -43.3101,-3.59262 -56.8342,-11.12838 36.3917,26.29776 26.4529,43.16019 46.8981,64.38563 l -5.1667,-0.39745 c -41.1731,2.09699 -62.1151,-15.72694 -89.027,-25.03886 3.5052,11.08975 -14.9666,30.07238 -20.2696,41.33399 h -3.9744 l -23.0517,-54.05213 c -2.8882,7.31176 -7.2802,5.60155 -11.1283,7.15396 l -24.6415,-66.37284 c -16.1827,-5.51333 -13.5976,-17.282619 -14.7053,-27.820949 3.7809,0.466833 3.8421,-1.298209 12.3207,1.987211 l -11.1284,-27.82095 -1.9872,-19.474665 c 4.4616,3.015721 12.7487,0.930828 11.5258,11.525822 3.0197,12.110385 7.5468,21.206061 11.5258,31.397929 l 13.1156,-43.718636 -24.6414,-75.514006 13.9105,-5.56419 c -5.2515,-17.16768 21.4393,-36.616956 -15.8705,-51.494758 z"
             id="path9144"
             sodipodi:nodetypes="cccccccccccccczcccccccccccccccccccc" />
          <path
             style="fill:#eac102;fill-rule:evenodd;stroke:#000000;stroke-width:2.61484px;stroke-linecap:round;stroke-linejoin:round;stroke-opacity:1"
             d="m 2483.4644,-94.739902 c 35.629,-12.751578 57.5044,21.597318 59.3075,50.033913 17.0876,-4.868621 34.2185,-9.218326 52.2163,-3.16462 -10.9925,24.108836 -0.9477,37.543956 -13.1859,55.3808454 21.6129,1.8351032 16.7671,6.6315266 28.4815,11.0761686 -33.123,28.565711 -62.1481,22.563936 -64.3472,53.798536 53.509,-16.48074 32.0256,-29.107568 56.9631,-43.77724 11.4823,-6.977972 25.281,-11.639591 43.2498,-12.131042 3.8936,46.67994 -25.4254,32.156738 -33.2285,61.710085 26.9571,-3.66005 30.5292,-19.007846 46.7522,-21.424805 16.2231,-2.416959 31.3335,15.4117 48.7138,26.171734 -31.1557,12.186462 -34.4677,37.355207 -49.9063,35.169377 -14.2143,-1.73546 -15.9483,-12.71681 -32.9012,-5.10549 15.0232,13.40094 40.8004,11.43544 47.9967,40.61262 -37.2471,12.56255 -63.2578,-16.92633 -100.2129,-17.93284 90.783,25.05274 57.734,52.6732 90.1916,72.78625 -24.8466,-2.76734 -45.1903,4.39454 -91.2465,-22.15234 1.2933,12.65446 -15.4459,22.54159 -23.2072,38.50287 -4.803,-25.18002 -29.5785,-37.66738 -24.7895,-77.00574 -9.4211,1.12768 5.4423,28.68073 -10.0213,29.53645 -13.0655,-11.26704 -14.0072,-26.45597 -14.2408,-36.92057 -7.5599,-9.14223 2.8475,16.5954 -29.009,-24.26208 -2.8173,-4.24066 1.7355,-30.704371 5.2743,-32.70107 2.6004,6.578616 5.0582,13.442399 11.0762,13.185915 -2.1017,-9.733657 -4.3178,-19.391031 -10.5487,-26.371831 -3.3052,-2.083416 -2.7557,-20.071228 -1.0549,-31.646197 11.3242,13.8996 3.3731,35.375083 22.1523,39.03031 -1.1187,-35.233587 -31.1642,-24.405061 -14.2408,-58.018028 -2.2855,-18.1086573 -2.7978,-75.551583 9.4939,-53.271099 -1.0632,-30.299506 12.9476,-51.707089 -9.7285,-61.110082 z"
             id="path9146"
             sodipodi:nodetypes="ccccccccczcccccccccccccccccccc" />
          <path
             sodipodi:nodetypes="cccccccccccccccccccccc"
             id="path9148"
             style="fill:none;fill-rule:evenodd;stroke:#000000;stroke-width:1.30742;stroke-linecap:round;stroke-linejoin:round;stroke-miterlimit:4;stroke-dasharray:none;stroke-opacity:1"
             d="m 2515.2425,74.654516 c -15.6283,-89.020693 10.8016,-115.663783 -7.0059,-158.6096 m 58.4448,70.377442 c -33.8269,29.410719 -41.8938,58.821437 -44.5136,88.232156 m 32.5903,27.820946 c 43.1818,2.9331 63.3268,-17.898067 108.1043,-19.077219 m -111.2838,7.948843 c 34.8637,-4.957398 43.8556,-24.440438 54.847,-39.744214 m -50.0777,59.61632 c 28.6582,0.68109 53.223,8.82558 65.9754,18.28234 m -78.6936,5.56419 c 28.6894,32.74714 46.9066,30.58693 69.9498,44.51352 m -75.514,-45.3084 c -4.2515,25.57808 5.8171,42.19156 8.7437,54.84701 m -31.7953,-59.61632 c -3.1433,4.54063 -5.335,10.03275 -6.3591,16.69257 m -3.9744,-32.59026 c -13.0953,5.14741 -11.4939,-1.48525 -26.2312,1.58977 m 26.2312,-21.461873 c -5.2992,-0.841044 -10.5985,-3.465189 -15.8977,-12.718149 m 21.4619,-3.179537 c -3.9178,-22.834193 -8.4205,-46.545832 -20.667,-81.8730813" />
          <g
             id="g9150"
             transform="matrix(-0.748008,0.507597,0.4813713,0.8831979,3520.4688,-1419.3176)">
            <circle
               r="23.065676"
               cy="707.07074"
               cx="1773.2821"
               style="display:inline;overflow:visible;visibility:visible;opacity:1;fill:#eac102;fill-opacity:1;fill-rule:evenodd;stroke:#000000;stroke-width:1.97774px;stroke-linecap:round;stroke-linejoin:round;stroke-miterlimit:4;stroke-dasharray:none;stroke-dashoffset:0;stroke-opacity:1;marker:none;marker-start:none;marker-mid:none;marker-end:none;enable-background:accumulate"
               id="path9152"
               transform="matrix(1.3345865,0,0,1.4473316,-589.58751,-320.19715)" />
            <circle
               r="23.065676"
               cy="707.07074"
               cx="1773.2821"
               transform="matrix(1.3045113,0,0,1.4473316,-532.96062,-320.19715)"
               id="path9154"
               style="display:inline;overflow:visible;visibility:visible;opacity:1;fill:#eac102;fill-opacity:1;fill-rule:evenodd;stroke:#000000;stroke-width:2.0004px;stroke-linecap:round;stroke-linejoin:round;stroke-miterlimit:4;stroke-dasharray:none;stroke-dashoffset:0;stroke-opacity:1;marker:none;marker-start:none;marker-mid:none;marker-end:none;enable-background:accumulate" />
            <circle
               r="23.065676"
               cy="707.07074"
               cx="1773.2821"
               style="display:inline;overflow:visible;visibility:visible;opacity:1;fill:#e3e4e5;fill-opacity:1;fill-rule:evenodd;stroke:#000000;stroke-width:2.28674px;stroke-linecap:round;stroke-linejoin:round;stroke-miterlimit:4;stroke-dasharray:none;stroke-dashoffset:0;stroke-opacity:1;marker:none;marker-start:none;marker-mid:none;marker-end:none;enable-background:accumulate"
               id="path9156"
               transform="matrix(1.1541354,0,0,1.2518797,-265.60797,-181.99885)" />
          </g>
        </g>
      </g>
      <path
         sodipodi:nodetypes="cc"
         id="path9158"
         d="m 817.01631,290.58989 c 2.9724,0.32347 6.4951,0.0506 9.3227,-0.97744"
         style="fill:none;fill-rule:evenodd;stroke:#000000;stroke-width:0.5;stroke-linecap:butt;stroke-linejoin:miter;stroke-miterlimit:4;stroke-dasharray:none;stroke-opacity:1" />
      <path
         style="fill:none;fill-rule:evenodd;stroke:#000000;stroke-width:0.5;stroke-linecap:butt;stroke-linejoin:miter;stroke-miterlimit:4;stroke-dasharray:none;stroke-opacity:1"
         d="m 994.53431,290.58989 c -2.9725,0.32347 -6.4952,0.0506 -9.3228,-0.97744"
         id="path9160"
         sodipodi:nodetypes="cc" />
      <path
         sodipodi:nodetypes="cc"
         id="path9162"
         d="m 1111.343,307.09244 c -2.9004,-0.69662 -6.0927,-2.13588 -8.353,-4.04766"
         style="fill:none;fill-rule:evenodd;stroke:#000000;stroke-width:0.5;stroke-linecap:butt;stroke-linejoin:miter;stroke-miterlimit:4;stroke-dasharray:none;stroke-opacity:1" />
      <path
         style="fill:none;fill-rule:evenodd;stroke:#000000;stroke-width:0.5;stroke-linecap:butt;stroke-linejoin:miter;stroke-miterlimit:4;stroke-dasharray:none;stroke-opacity:1"
         d="m 699.98281,307.09244 c 2.9004,-0.69662 6.0928,-2.13588 8.353,-4.04766"
         id="path9164"
         sodipodi:nodetypes="cc" />
      <g
         id="g9166"
         transform="matrix(1,0,0,0.948723,-120.78642,-235.92831)">
        <g
           id="g9168">
          <g
             id="g9170"
             transform="matrix(-0.4483888,0.1430547,0.1430547,0.4483888,1663.1061,44.924678)">
            <path
               style="display:inline;overflow:visible;visibility:visible;opacity:1;fill:#ed1c24;fill-opacity:1;fill-rule:nonzero;stroke:#000000;stroke-width:2.18136;stroke-linecap:butt;stroke-linejoin:miter;stroke-miterlimit:4;stroke-dasharray:none;stroke-dashoffset:0;stroke-opacity:1;marker:none;marker-start:none;marker-mid:none;marker-end:none;enable-background:accumulate"
               d="m 2069.0625,730.6875 c 0.2238,0.008 0.4309,0.0937 0.6563,0.0937 12.7586,0 23.0938,-12.76605 23.0937,-28.5 0,-15.73395 -10.3352,-28.49999 -23.0937,-28.5 -0.2254,0 -0.4325,0.0858 -0.6563,0.0937 z"
               id="path9172" />
            <path
               style="display:inline;overflow:visible;visibility:visible;fill:#eac102;fill-opacity:1;fill-rule:nonzero;stroke:#000000;stroke-width:2.18136;stroke-linecap:butt;stroke-linejoin:miter;stroke-miterlimit:4;stroke-dashoffset:0;stroke-opacity:1;marker:none;marker-start:none;marker-mid:none;marker-end:none;enable-background:accumulate"
               d="m 2066.2861,668.73151 h 6.9503 v 66.52937 h -6.9503 c -2.4585,-25.68971 -2.8624,-50.12503 0,-66.52937 z"
               id="path9174"
               sodipodi:nodetypes="ccccc" />
          </g>
          <g
             id="g9176"
             transform="matrix(-0.4546188,0.1218147,0.1218147,0.4546188,1690.3983,77.273629)">
            <path
               style="display:inline;overflow:visible;visibility:visible;opacity:1;fill:#eac102;fill-opacity:1;fill-rule:evenodd;stroke:#000000;stroke-width:2.18136px;stroke-linecap:round;stroke-linejoin:round;stroke-miterlimit:4;stroke-dasharray:none;stroke-dashoffset:0;stroke-opacity:1;marker:none;marker-start:none;marker-mid:none;marker-end:none;enable-background:accumulate"
               d="m 2030.1562,670.59375 c -6.0098,1.75489 -10.6875,15.38298 -10.6874,31.90625 0,16.52208 4.6782,30.11853 10.6874,31.875 l 0.25,0.0625 c 0.3519,0.083 0.7026,0.125 1.0626,0.125 l 10.8437,-0.0235 v -18.3515 c 0.7383,-4.16079 1.1562,-8.7794 1.1563,-13.6875 0,-4.9081 -0.418,-9.55795 -1.1563,-13.71875 v -18.17856 z"
               id="path9178"
               sodipodi:nodetypes="cscccccsccc" />
            <ellipse
               ry="32.088638"
               rx="6.0690784"
               cy="702.48627"
               cx="2042.3096"
               style="display:inline;overflow:visible;visibility:visible;opacity:1;fill:#eac102;fill-opacity:1;fill-rule:evenodd;stroke:#000000;stroke-width:1.55532px;stroke-linecap:round;stroke-linejoin:round;stroke-miterlimit:4;stroke-dasharray:none;stroke-dashoffset:0;stroke-opacity:1;marker:none;marker-start:none;marker-mid:none;marker-end:none;enable-background:accumulate"
               id="path9180"
               transform="matrix(1.9787234,0,0,0.9940993,-1999.3727,4.3345166)" />
            <path
               style="display:inline;overflow:visible;visibility:visible;fill:#e3e4e5;fill-opacity:1;fill-rule:evenodd;stroke:#000000;stroke-width:2.18136px;stroke-linecap:round;stroke-linejoin:round;stroke-miterlimit:4;stroke-dashoffset:0;stroke-opacity:1;marker:none;marker-start:none;marker-mid:none;marker-end:none;enable-background:accumulate"
               d="m 2042.9551,674.40063 c 25.1525,7.78075 23.5578,49.66352 0,57.97907 -16.3463,-3.47198 -14.0669,-57.71871 0,-57.97907 z"
               id="path9182"
               sodipodi:nodetypes="ccc" />
          </g>
        </g>
        <g
           transform="matrix(-1,0,0,1,2053.0014,0)"
           id="g9184">
          <g
             transform="matrix(-0.4483888,0.1430547,0.1430547,0.4483888,1663.1061,44.924678)"
             id="g9186">
            <path
               id="path9188"
               d="m 2069.0625,730.6875 c 0.2238,0.008 0.4309,0.0937 0.6563,0.0937 12.7586,0 23.0938,-12.76605 23.0937,-28.5 0,-15.73395 -10.3352,-28.49999 -23.0937,-28.5 -0.2254,0 -0.4325,0.0858 -0.6563,0.0937 z"
               style="display:inline;overflow:visible;visibility:visible;opacity:1;fill:#ed1c24;fill-opacity:1;fill-rule:nonzero;stroke:#000000;stroke-width:2.18136;stroke-linecap:butt;stroke-linejoin:miter;stroke-miterlimit:4;stroke-dasharray:none;stroke-dashoffset:0;stroke-opacity:1;marker:none;marker-start:none;marker-mid:none;marker-end:none;enable-background:accumulate" />
            <path
               sodipodi:nodetypes="ccccc"
               id="path9190"
               d="m 2066.2861,668.73151 h 6.9503 v 66.52937 h -6.9503 c -2.4585,-25.68971 -2.8624,-50.12503 0,-66.52937 z"
               style="display:inline;overflow:visible;visibility:visible;fill:#eac102;fill-opacity:1;fill-rule:nonzero;stroke:#000000;stroke-width:2.18136;stroke-linecap:butt;stroke-linejoin:miter;stroke-miterlimit:4;stroke-dashoffset:0;stroke-opacity:1;marker:none;marker-start:none;marker-mid:none;marker-end:none;enable-background:accumulate" />
          </g>
          <g
             transform="matrix(-0.4546188,0.1218147,0.1218147,0.4546188,1690.3983,77.273629)"
             id="g9192">
            <path
               sodipodi:nodetypes="cscccccsccc"
               id="path9194"
               d="m 2030.1562,670.59375 c -6.0098,1.75489 -10.6875,15.38298 -10.6874,31.90625 0,16.52208 4.6782,30.11853 10.6874,31.875 l 0.25,0.0625 c 0.3519,0.083 0.7026,0.125 1.0626,0.125 l 10.8437,-0.0235 v -18.3515 c 0.7383,-4.16079 1.1562,-8.7794 1.1563,-13.6875 0,-4.9081 -0.418,-9.55795 -1.1563,-13.71875 v -18.17856 z"
               style="display:inline;overflow:visible;visibility:visible;opacity:1;fill:#eac102;fill-opacity:1;fill-rule:evenodd;stroke:#000000;stroke-width:2.18136px;stroke-linecap:round;stroke-linejoin:round;stroke-miterlimit:4;stroke-dasharray:none;stroke-dashoffset:0;stroke-opacity:1;marker:none;marker-start:none;marker-mid:none;marker-end:none;enable-background:accumulate" />
            <ellipse
               ry="32.088638"
               rx="6.0690784"
               cy="702.48627"
               cx="2042.3096"
               transform="matrix(1.9787234,0,0,0.9940993,-1999.3727,4.3345166)"
               id="path9196"
               style="display:inline;overflow:visible;visibility:visible;opacity:1;fill:#eac102;fill-opacity:1;fill-rule:evenodd;stroke:#000000;stroke-width:1.55532px;stroke-linecap:round;stroke-linejoin:round;stroke-miterlimit:4;stroke-dasharray:none;stroke-dashoffset:0;stroke-opacity:1;marker:none;marker-start:none;marker-mid:none;marker-end:none;enable-background:accumulate" />
            <path
               sodipodi:nodetypes="ccc"
               id="path9198"
               d="m 2042.9551,674.40063 c 25.1525,7.78075 23.5578,49.66352 0,57.97907 -16.3463,-3.47198 -14.0669,-57.71871 0,-57.97907 z"
               style="display:inline;overflow:visible;visibility:visible;fill:#e3e4e5;fill-opacity:1;fill-rule:evenodd;stroke:#000000;stroke-width:2.18136px;stroke-linecap:round;stroke-linejoin:round;stroke-miterlimit:4;stroke-dashoffset:0;stroke-opacity:1;marker:none;marker-start:none;marker-mid:none;marker-end:none;enable-background:accumulate" />
          </g>
        </g>
      </g>
      <g
         id="g6628"
         transform="matrix(0.921613,0,0,0.8743555,-322.88391,150.0436)">
        <path
           style="fill:#eac102;fill-opacity:1;fill-rule:evenodd;stroke:#000000;stroke-width:1.11399px;stroke-linecap:butt;stroke-linejoin:miter;stroke-opacity:1"
           d="m 1146.9818,293.41513 c 0,0 40.2138,-20.43543 186.1135,-20.43543 145.4163,0 186.1134,20.43543 186.1134,20.43543 0,0 -34.0136,20.43544 -186.1134,20.43544 -152.5835,0 -186.1135,-20.43544 -186.1135,-20.43544 z"
           id="path9202"
           sodipodi:nodetypes="czczc" />
        <g
           id="g6631"
           transform="translate(181.95199,-177.54891)">
          <path
             d="M 1103.7725,494.66239 V 447.38113"
             style="font-size:12px;fill:none;stroke:#000000;stroke-width:0.579366"
             id="path6633" />
          <path
             d="M 1095.2202,494.66239 V 447.38113"
             style="font-size:12px;fill:none;stroke:#000000;stroke-width:0.852958"
             id="path6635" />
          <path
             d="M 1087.1469,494.66239 V 447.38113"
             style="font-size:12px;fill:none;stroke:#000000;stroke-width:1.14264"
             id="path6637" />
          <path
             d="M 1079.1436,494.66239 V 447.38113"
             style="font-size:12px;fill:none;stroke:#000000;stroke-width:1.43233"
             id="path6639" />
          <path
             d="M 1072.0123,494.66239 V 447.38113"
             style="font-size:12px;fill:none;stroke:#000000;stroke-width:1.72201"
             id="path6641" />
          <path
             d="m 1058.4116,492.11312 -0.1884,-43.03375 m 6.6362,43.5999 V 447.666"
             style="font-size:12px;fill:none;stroke:#000000;stroke-width:2.0117"
             id="path6643" />
          <path
             d="m 1045.8549,490.17809 v -39.64835 m 6.3618,40.78051 -0.1884,-42.19388"
             style="font-size:12px;fill:none;stroke:#000000;stroke-width:2.28529"
             id="path6645" />
          <path
             d="M 1029.0088,487.91377 V 453.079 m 5.5274,35.40085 v -36.53308 m 5.6944,37.66524 V 451.6619"
             style="font-size:12px;fill:none;stroke:#000000;stroke-width:2.57497"
             id="path6647" />
          <path
             d="M 1023.1045,487.62889 V 453.92996"
             style="font-size:12px;fill:none;stroke:#000000;stroke-width:2.86466"
             id="path6649" />
          <path
             d="M 1017.5986,485.93058 V 454.49604"
             style="font-size:12px;fill:none;stroke:#000000;stroke-width:3.15434"
             id="path6651" />
          <path
             d="M 1011.6944,485.07956 V 455.9094"
             style="font-size:12px;fill:none;stroke:#000000;stroke-width:3.44402"
             id="path6653" />
          <path
             d="m 999.60603,482.53403 -0.18848,-23.22433 m 6.38325,24.35657 v -26.05488"
             style="font-size:12px;fill:none;stroke:#000000;stroke-width:3.71762"
             id="path6655" />
          <path
             d="M 993.41113,480.55084 V 460.15691"
             style="font-size:12px;fill:none;stroke:#000000;stroke-width:3.92683"
             id="path6657" />
          <path
             d="M 987.73833,478.89702 V 461.91433"
             style="font-size:12px;fill:none;stroke:#000000;stroke-width:4.21652"
             id="path6659" />
          <path
             d="M 981.54344,476.6327 V 463.33144"
             style="font-size:12px;fill:none;stroke:#000000;stroke-width:4.49011"
             id="path6661" />
          <path
             d="m 975.17634,475.50054 v -9.90471"
             style="font-size:12px;fill:none;stroke:#000000;stroke-width:4.76372"
             id="path6663" />
          <path
             d="m 968.43748,473.23838 v -4.8133"
             style="font-size:12px;fill:none;stroke:#000000;stroke-width:5.61666"
             id="path6665" />
          <path
             d="m 1137.7985,492.11312 v -43.31489 m -14.4887,44.73199 0.1883,-45.86422 m -10.7482,46.4303 v -46.71517"
             style="font-size:12px;fill:none;stroke:#000000;stroke-width:0.289684"
             id="path6667" />
          <path
             id="path6669"
             style="font-size:12px;fill:none;stroke:#000000;stroke-width:0.579366"
             d="M 1198.5142,494.66239 V 447.38113" />
          <path
             id="path6671"
             style="font-size:12px;fill:none;stroke:#000000;stroke-width:0.852958"
             d="M 1207.0664,494.66239 V 447.38113" />
          <path
             id="path6673"
             style="font-size:12px;fill:none;stroke:#000000;stroke-width:1.14264"
             d="M 1215.1397,494.66239 V 447.38113" />
          <path
             id="path6675"
             style="font-size:12px;fill:none;stroke:#000000;stroke-width:1.43233"
             d="M 1223.143,494.66239 V 447.38113" />
          <path
             id="path6677"
             style="font-size:12px;fill:none;stroke:#000000;stroke-width:1.72201"
             d="M 1230.2743,494.66239 V 447.38113" />
          <path
             id="path6679"
             style="font-size:12px;fill:none;stroke:#000000;stroke-width:2.0117"
             d="m 1243.8751,492.11312 0.1884,-43.03375 m -6.6363,43.5999 V 447.666" />
          <path
             id="path6681"
             style="font-size:12px;fill:none;stroke:#000000;stroke-width:2.28529"
             d="m 1256.4317,490.17809 v -39.64835 m -6.3617,40.78051 0.1883,-42.19388" />
          <path
             id="path6683"
             style="font-size:12px;fill:none;stroke:#000000;stroke-width:2.57497"
             d="M 1273.2779,487.91377 V 453.079 m -5.5275,35.40085 v -36.53308 m -5.6944,37.66524 V 451.6619" />
          <path
             id="path6685"
             style="font-size:12px;fill:none;stroke:#000000;stroke-width:2.86466"
             d="M 1279.1822,487.62889 V 453.92996" />
          <path
             id="path6687"
             style="font-size:12px;fill:none;stroke:#000000;stroke-width:3.15434"
             d="M 1284.6881,485.93058 V 454.49604" />
          <path
             id="path6689"
             style="font-size:12px;fill:none;stroke:#000000;stroke-width:3.44402"
             d="M 1290.5923,485.07956 V 455.9094" />
          <path
             id="path6691"
             style="font-size:12px;fill:none;stroke:#000000;stroke-width:3.71762"
             d="m 1302.6806,482.53403 0.1885,-23.22433 m -6.3833,24.35657 v -26.05488" />
          <path
             id="path6693"
             style="font-size:12px;fill:none;stroke:#000000;stroke-width:3.92683"
             d="M 1308.8755,480.55084 V 460.15691" />
          <path
             id="path6695"
             style="font-size:12px;fill:none;stroke:#000000;stroke-width:4.21652"
             d="M 1314.5483,478.89702 V 461.91433" />
          <path
             id="path6697"
             style="font-size:12px;fill:none;stroke:#000000;stroke-width:4.49011"
             d="M 1320.7432,476.6327 V 463.33144" />
          <path
             id="path6699"
             style="font-size:12px;fill:none;stroke:#000000;stroke-width:4.76372"
             d="m 1327.1103,475.50054 v -9.90471" />
          <path
             id="path6701"
             style="font-size:12px;fill:none;stroke:#000000;stroke-width:5.61666"
             d="m 1333.8491,473.23838 v -4.8133" />
          <path
             id="path6703"
             style="font-size:12px;fill:none;stroke:#000000;stroke-width:0.289684"
             d="m 1164.4881,492.11312 v -43.31489 m 14.4888,44.73199 -0.1883,-45.86422 m 10.7481,46.4303 v -46.71517" />
        </g>
        <path
           style="fill:#eac102;fill-rule:evenodd;stroke:#000000;stroke-width:1.11399px;stroke-linecap:butt;stroke-linejoin:miter;stroke-opacity:1"
           d="m 1332.9288,258.95109 c -56.6125,0.59496 -113.8695,0.65825 -169.4687,12.59375 -12.4076,3.9409 -30.155,6.13468 -34.8125,20.09375 -1.528,11.65924 12.4871,16.60822 21.25,19.8125 41.7443,12.61004 85.8726,13.68493 129.1249,15.65625 67.2905,1.35833 134.9897,1.88524 201.7813,-7.53125 18.2471,-3.54712 38.3386,-5.73707 53.3437,-17.6875 8.9596,-8.83177 -0.9392,-21.17866 -10.8437,-23.71875 -33.9772,-13.11954 -71.0328,-14.51638 -106.9687,-17.1875 -27.7733,-1.52521 -55.5946,-2.01188 -83.4063,-2.03125 z m 0.1563,14.03125 c 145.4162,2e-5 186.125,20.4375 186.125,20.4375 -10e-5,-1e-5 -34.0253,20.4375 -186.125,20.4375 -152.5836,0 -186.0938,-20.4375 -186.0938,-20.4375 0,-1e-5 40.194,-20.4375 186.0938,-20.4375 z"
           id="path9278" />
      </g>
    </g>
    <path
       style="display:inline;overflow:visible;visibility:visible;fill:#eac102;fill-opacity:1;fill-rule:evenodd;stroke:#000000;stroke-width:1;stroke-linecap:butt;stroke-linejoin:miter;stroke-miterlimit:4;stroke-dasharray:none;stroke-dashoffset:0;stroke-opacity:1;marker:none;marker-start:none;marker-mid:none;marker-end:none;enable-background:accumulate"
       d="m 302.5,364.49994 -299.500004,299.5 299.500004,299.5 299.5,-299.5 z"
       id="path13304"
       sodipodi:nodetypes="ccccc" />
    <path
       id="path23371"
       d="m 269.03125,396.90625 -66.96875,66.9375 v 400.3125 l 66.96875,66.9375 z m 66.9375,0 v 534.1875 l 66.96875,-66.9375 V 463.84375 Z M 135.0625,530.84375 68.125,597.8125 v 132.375 l 66.9375,66.96875 z m 334.875,0 v 266.3125 L 536.875,730.1875 v -132.375 z"
       style="display:inline;overflow:visible;visibility:visible;fill:#ed1c24;fill-opacity:1;fill-rule:evenodd;stroke:#000000;stroke-width:1;stroke-linecap:butt;stroke-linejoin:miter;stroke-miterlimit:4;stroke-dasharray:none;stroke-dashoffset:0;stroke-opacity:1;marker:none;marker-start:none;marker-mid:none;marker-end:none;enable-background:accumulate" />
    <g
       transform="translate(27.500149,-9.5000613)"
       inkscape:label="Piezas"
       id="layer4" />
    <g
       transform="translate(27.500149,-9.5000613)"
       inkscape:label="Muebles"
       id="layer5" />
    <g
       transform="translate(27.500149,-9.5000613)"
       inkscape:label="Ornamentos"
       id="layer6" />
    <g
       transform="translate(27.500149,-9.5000613)"
       style="display:inline"
       inkscape:label="Borde 3px"
       id="layer2">
      <rect
         transform="rotate(-45)"
         style="display:inline;overflow:visible;visibility:visible;fill:none;fill-opacity:1;fill-rule:evenodd;stroke:#000000;stroke-width:3;stroke-linecap:butt;stroke-linejoin:miter;stroke-miterlimit:4;stroke-dasharray:none;stroke-dashoffset:0;stroke-opacity:1;marker:none;marker-start:none;marker-mid:none;marker-end:none;enable-background:accumulate"
         id="rect12296"
         width="423.55695"
         height="423.55695"
         x="-493.56067"
         y="458.91223" />
    </g>
    <g
       transform="matrix(1.0695275,0,0,1.0695275,-21.032061,-35.313526)"
       id="g8303">
      <path
         id="path12654"
         d="m 305.28838,553.24624 c -2.93252,-0.10702 -7.02967,1.44675 -12.44798,5.14516 -2.04354,16.85644 7.79587,89.05758 -9.12852,48.71311 0.72534,8.10881 10.34538,27.9115 10.70526,39.99952 0.18634,23.56127 -0.0549,47.52173 1.07883,71.03648 0.1883,2.91364 0.29317,5.89245 0.41493,8.87956 -4.15352,0.2654 -12.61212,-0.18413 -18.09107,-7.71775 -7.48326,-10.28937 -6.55594,-24.39804 -6.55594,-24.39804 l -5.56009,15.02056 -35.51826,-44.89572 -8.46463,10.29033 c 25.25597,30.8685 27.13662,34.60539 27.13662,34.60539 l -23.40222,-2.82154 c 2e-5,-5e-5 15.06916,7.09393 24.31507,11.20319 22.81949,10.14204 38.56267,27.87033 46.47247,38.33978 -0.59785,43.0086 -4.8499,89.79788 -4.06635,129.45902 8.89672,2.86289 18.54714,-10.96503 24.0661,-19.00392 -2.634,-38.39173 -4.30507,-80.8691 -5.22815,-121.32634 3.42032,-10.15309 8.23779,-21.65298 13.6098,-25.55985 10.28947,-7.48327 32.6967,-9.37748 32.6967,-9.37748 l -14.93758,-5.64309 44.89572,-35.51824 -10.29033,-8.38164 c -30.86845,25.25603 -34.60539,27.1366 -34.60539,27.1366 l 2.82154,-23.40221 c -3e-5,-3e-5 -5.59077,15.8964 -11.20318,24.31506 -4.16837,6.25257 -17.10235,20.66562 -23.4852,27.71751 -0.0715,-4.72086 -0.19601,-9.67042 -0.24896,-14.27369 1.66098,-25.26724 -3.04511,-54.73798 13.77577,-93.60883 -24.63745,45.92691 -9.82765,-27.15883 -12.9459,-44.64676 0.75644,-6.42398 -0.92159,-11.10774 -5.80906,-11.28617 z"
         style="fill:#008f4c;fill-opacity:1;fill-rule:evenodd;stroke:#000000;stroke-width:0.934992;stroke-linecap:butt;stroke-linejoin:miter;stroke-miterlimit:4;stroke-dasharray:none;stroke-opacity:1" />
      <g
         id="g8297"
         transform="translate(-1.3185041)">
        <path
           id="path6182"
           style="fill:#e3e4e5;fill-opacity:1;fill-rule:evenodd;stroke:#000000;stroke-width:0.934992;stroke-miterlimit:4;stroke-dasharray:none;stroke-opacity:1"
           d="m 303.97194,441.58939 c -0.134,-0.11812 -0.16807,-0.10949 -0.30687,0.0691 -5.63953,5.52927 -10.64881,10.64193 -14.57757,16.36527 -10.99708,16.00185 -14.67067,33.38136 -8.51638,47.43851 12.21724,29.73924 16.8793,37.29171 16.8793,60.97267 h 12.73617 c 2e-5,-23.68096 4.66209,-31.23343 16.87928,-60.97267 6.15428,-14.05715 2.48067,-31.43666 -8.51636,-47.43851 -3.9375,-5.73601 -8.92229,-10.89121 -14.57757,-16.43434 z"
           sodipodi:nodetypes="ccccccccc" />
        <path
           id="path6190"
           style="fill:#e3e4e5;fill-opacity:1;fill-rule:evenodd;stroke:#000000;stroke-width:0.934992;stroke-miterlimit:4;stroke-dasharray:none;stroke-opacity:1"
           d="m 320.58035,568.37303 c -1.87427,-10.11942 4.17756,-21.25664 8.52449,-23.5654 2.69808,-1.93168 8.47007,-2.81118 13.58151,-0.56425 6.68678,3.37536 6.97305,12.94019 3.63043,17.30879 31.582,-5.15454 28.44561,-31.95612 17.69018,-41.68498 -8.69561,-7.86057 -18.17482,-9.08978 -25.48375,-6.61117 -16.60902,5.23221 -29.91515,22.672 -30.45893,48.72224 1.56103,5.98275 7.02284,7.40768 12.51607,6.39477 z"
           sodipodi:nodetypes="cccccccc" />
        <path
           id="path6188"
           style="fill:#e3e4e5;fill-opacity:1;fill-rule:evenodd;stroke:#000000;stroke-width:0.934992;stroke-miterlimit:4;stroke-dasharray:none;stroke-opacity:1"
           d="m 287.05663,568.37303 c 1.87427,-10.11942 -4.1775,-21.25664 -8.52449,-23.5654 -2.69808,-1.93168 -8.47001,-2.81118 -13.58148,-0.56425 -6.68683,3.37536 -6.9731,12.94019 -3.63046,17.30879 -31.58194,-5.15454 -28.44561,-31.95612 -17.69013,-41.68498 8.69553,-7.86057 18.17477,-9.08978 25.4837,-6.61117 16.60907,5.23221 29.9152,22.672 30.45898,48.72224 -7.63991,7.10136 -5.98955,6.04495 -12.51612,6.39477 z"
           sodipodi:nodetypes="cccccccc" />
        <rect
           rx="6.6175041"
           id="rect6184"
           style="fill:#e3e4e5;fill-opacity:1;stroke:#000000;stroke-width:0.934992;stroke-miterlimit:4;stroke-dasharray:none;stroke-opacity:1"
           y="555.94092"
           x="278.03925"
           height="15.467587"
           width="51.558498"
           ry="6.6175041" />
      </g>
      <g
         id="g8285"
         transform="translate(-2.02976)">
        <g
           transform="rotate(-9.6162509,207.6454,693.59358)"
           id="g8269">
          <path
             id="path12622"
             style="fill:#e3e4e5;fill-opacity:1;fill-rule:evenodd;stroke:#000000;stroke-width:0.934992;stroke-miterlimit:4;stroke-dasharray:none;stroke-opacity:1"
             d="m 141.34372,585.58348 c -0.17824,0.0113 -0.19625,0.0414 -0.16815,0.26585 -0.0779,7.8975 -0.005,15.05482 1.2641,21.87985 3.53889,19.09115 13.23045,33.97791 27.52214,39.5661 29.66765,12.38993 38.30465,14.43374 55.04964,31.17878 l 9.00583,-9.00586 c -16.74496,-16.74504 -18.78882,-25.38196 -31.17875,-55.04967 -5.58819,-14.29164 -20.475,-23.98319 -39.5661,-27.52214 -6.84016,-1.27172 -14.0102,-1.39218 -21.92871,-1.31291 z"
             sodipodi:nodetypes="ccccccccc" />
          <path
             id="path12624"
             style="fill:#e3e4e5;fill-opacity:1;fill-rule:evenodd;stroke:#000000;stroke-width:0.934992;stroke-miterlimit:4;stroke-dasharray:none;stroke-opacity:1"
             d="m 242.73724,663.48916 c -8.48082,-5.8302 -12.07681,-17.98469 -10.63555,-22.691 0.54189,-3.27376 4.00144,-7.97701 9.20457,-10.00257 7.11504,-2.34155 14.08082,4.21938 14.80624,9.67206 18.68706,-25.97665 -2.48224,-42.71048 -16.96689,-41.98455 -11.70694,0.59046 -19.27893,6.42406 -22.69447,13.3449 -8.04465,15.4441 -5.12172,37.18474 12.91409,55.98958 5.33424,3.12658 10.20389,0.27209 13.37201,-4.32842 z"
             sodipodi:nodetypes="cccccccc" />
          <path
             id="path12626"
             style="fill:#e3e4e5;fill-opacity:1;fill-rule:evenodd;stroke:#000000;stroke-width:0.934992;stroke-miterlimit:4;stroke-dasharray:none;stroke-opacity:1"
             d="m 219.03235,687.19399 c -5.83019,-8.4808 -17.98468,-12.07676 -22.69096,-10.63555 -3.27376,0.54194 -7.97701,4.00146 -10.00258,9.2046 -2.34152,7.11504 4.21939,14.08078 9.67207,14.80626 -25.97663,18.68706 -42.71046,-2.48232 -41.98456,-16.96694 0.59044,-11.70692 6.42406,-19.27893 13.34493,-22.69447 15.4441,-8.04462 37.18477,-5.12169 55.98958,12.91409 -0.38084,10.42361 0.0391,8.50966 -4.32848,13.37201 z"
             sodipodi:nodetypes="cccccccc" />
          <rect
             transform="rotate(-45)"
             rx="6.6175046"
             id="rect12628"
             style="fill:#e3e4e5;fill-opacity:1;stroke:#000000;stroke-width:0.934992;stroke-miterlimit:4;stroke-dasharray:none;stroke-opacity:1"
             y="628.36713"
             x="-340.05771"
             height="15.467587"
             width="51.558498"
             ry="6.6175046" />
        </g>
        <g
           id="g8275"
           transform="matrix(-0.9859487,-0.1670484,-0.1670484,0.9859487,722.00553,44.432724)">
          <path
             sodipodi:nodetypes="ccccccccc"
             d="m 141.34372,585.58348 c -0.17824,0.0113 -0.19625,0.0414 -0.16815,0.26585 -0.0779,7.8975 -0.005,15.05482 1.2641,21.87985 3.53889,19.09115 13.23045,33.97791 27.52214,39.5661 29.66765,12.38993 38.30465,14.43374 55.04964,31.17878 l 9.00583,-9.00586 c -16.74496,-16.74504 -18.78882,-25.38196 -31.17875,-55.04967 -5.58819,-14.29164 -20.475,-23.98319 -39.5661,-27.52214 -6.84016,-1.27172 -14.0102,-1.39218 -21.92871,-1.31291 z"
             style="fill:#e3e4e5;fill-opacity:1;fill-rule:evenodd;stroke:#000000;stroke-width:0.934992;stroke-miterlimit:4;stroke-dasharray:none;stroke-opacity:1"
             id="path8277" />
          <path
             sodipodi:nodetypes="cccccccc"
             d="m 242.73724,663.48916 c -8.48082,-5.8302 -12.07681,-17.98469 -10.63555,-22.691 0.54189,-3.27376 4.00144,-7.97701 9.20457,-10.00257 7.11504,-2.34155 14.08082,4.21938 14.80624,9.67206 18.68706,-25.97665 -2.48224,-42.71048 -16.96689,-41.98455 -11.70694,0.59046 -19.27893,6.42406 -22.69447,13.3449 -8.04465,15.4441 -5.12172,37.18474 12.91409,55.98958 5.33424,3.12658 10.20389,0.27209 13.37201,-4.32842 z"
             style="fill:#e3e4e5;fill-opacity:1;fill-rule:evenodd;stroke:#000000;stroke-width:0.934992;stroke-miterlimit:4;stroke-dasharray:none;stroke-opacity:1"
             id="path8279" />
          <path
             sodipodi:nodetypes="cccccccc"
             d="m 219.03235,687.19399 c -5.83019,-8.4808 -17.98468,-12.07676 -22.69096,-10.63555 -3.27376,0.54194 -7.97701,4.00146 -10.00258,9.2046 -2.34152,7.11504 4.21939,14.08078 9.67207,14.80626 -25.97663,18.68706 -42.71046,-2.48232 -41.98456,-16.96694 0.59044,-11.70692 6.42406,-19.27893 13.34493,-22.69447 15.4441,-8.04462 37.18477,-5.12169 55.98958,12.91409 -0.38084,10.42361 0.0391,8.50966 -4.32848,13.37201 z"
             style="fill:#e3e4e5;fill-opacity:1;fill-rule:evenodd;stroke:#000000;stroke-width:0.934992;stroke-miterlimit:4;stroke-dasharray:none;stroke-opacity:1"
             id="path8281" />
          <rect
             ry="6.6175046"
             width="51.558498"
             height="15.467587"
             x="-340.05771"
             y="628.36713"
             style="fill:#e3e4e5;fill-opacity:1;stroke:#000000;stroke-width:0.934992;stroke-miterlimit:4;stroke-dasharray:none;stroke-opacity:1"
             id="rect8283"
             rx="6.6175046"
             transform="rotate(-45)" />
        </g>
      </g>
    </g>
  </g>
</svg>
