<?xml version="1.0" encoding="UTF-8" standalone="no"?>
<!-- Created with Inkscape (http://www.inkscape.org/) -->
<svg xmlns:dc="http://purl.org/dc/elements/1.1/" xmlns:cc="http://web.resource.org/cc/" xmlns:rdf="http://www.w3.org/1999/02/22-rdf-syntax-ns#" xmlns:svg="http://www.w3.org/2000/svg" xmlns="http://www.w3.org/2000/svg" xmlns:sodipodi="http://sodipodi.sourceforge.net/DTD/sodipodi-0.dtd" xmlns:inkscape="http://www.inkscape.org/namespaces/inkscape" id="svg2" sodipodi:version="0.32" inkscape:version="0.44" width="335.61182" height="468.59009" version="1.0" sodipodi:docbase="C:\Documents and Settings\Joan Borràs Comes\Escritorio" sodipodi:docname="Emblema del Consell Comarcal de la Terra Alta.svg">
  <metadata id="metadata7">
    <rdf:RDF>
      <cc:Work rdf:about="">
        <dc:format>image/svg+xml</dc:format>
        <dc:type rdf:resource="http://purl.org/dc/dcmitype/StillImage"/>
      </cc:Work>
    </rdf:RDF>
  </metadata>
  <defs id="defs5"/>
  <sodipodi:namedview inkscape:window-height="710" inkscape:window-width="1024" inkscape:pageshadow="2" inkscape:pageopacity="0.0" guidetolerance="10.0" gridtolerance="10.0" objecttolerance="10.0" borderopacity="1.0" bordercolor="#666666" pagecolor="#ffffff" id="base" inkscape:zoom="1" inkscape:cx="167.80591" inkscape:cy="234.29504" inkscape:window-x="-4" inkscape:window-y="-4" inkscape:current-layer="svg2"/>
  <path id="path2491" d="" style="fill: rgb(73, 73, 73); fill-opacity: 1;"/>
  <path id="path2489" d="" style="fill: rgb(51, 51, 51); fill-opacity: 1;"/>
  <g id="g6836" transform="matrix(0.746268, 0, 0, 0.746268, -409.489, 95.1808)">
    <g transform="translate(-145.024, -23.5113)" id="g6774">
      <path style="fill: rgb(247, 164, 140);" d="M 894.63165,91.470435 C 850.1113,89.361545 804.39745,88.668745 762.22621,72.892695 C 760.53227,72.190384 758.46423,70.979312 757.06301,69.874136 C 754.08866,67.528203 753.0259,65.757013 752.05753,62.940778 C 750.95069,59.721842 750.54628,58.159063 750.45342,57.394701 C 750.27097,55.892788 751.62202,43.364693 753.4902,40.661825 C 754.51526,39.178775 761.27417,38.135065 770.77705,34.881805 C 783.80832,30.420625 807.4596,26.334885 843.88164,22.253075 C 867.73289,19.580065 965.91786,19.531445 991.38169,22.180045 C 1041.8075,27.425035 1071.2415,34.012845 1080.476,42.120805 C 1082.3163,43.736685 1084.3739,55.678783 1084.9403,55.328733 C 1087.9934,60.933819 1081.8664,66.507146 1077.2976,69.664294 C 1049.6669,87.041468 999.71099,88.282242 967.77611,90.185365 C 959.24613,90.655945 949.77677,91.087815 939.13167,91.496785 L 894.63165,91.470435 z " id="path6302" sodipodi:nodetypes="csssssssssssscc"/>
      <path style="fill: rgb(163, 148, 133);" d="M 747.87099,48.403915 C 742.14683,25.380585 730.28656,-0.94352514 717.77762,-18.388965 C 713.93356,-23.750025 711.06756,-28.587985 711.40871,-29.139995 C 711.91375,-29.957155 726.14154,-39.833195 730.53982,-42.419605 C 731.24183,-42.832425 735.18078,-38.989255 740.53983,-32.662765 C 745.4028,-26.921905 749.85395,-22.019585 750.43127,-21.768725 C 751.52806,-21.292155 777.8028,-30.631125 779.16062,-31.980165 C 779.58908,-32.405835 778.57658,-39.146795 776.91062,-46.960065 C 775.24467,-54.773335 773.88161,-61.748615 773.88161,-62.460695 C 773.88161,-63.916305 798.33112,-71.554385 799.89557,-70.587505 C 800.42181,-70.262265 802.71833,-64.131745 804.99895,-56.964115 C 807.27957,-49.796495 809.64865,-43.745135 810.26358,-43.516655 C 811.76216,-42.959845 837.83873,-49.653215 839.10531,-50.919785 C 839.7686,-51.583065 839.69135,-56.560845 838.87475,-65.777525 C 838.19934,-73.400675 837.81629,-80.518345 838.02356,-81.594565 C 838.3495,-83.286995 840.22289,-83.842285 851.89102,-85.705085 C 859.31086,-86.889645 865.69889,-87.572475 866.08664,-87.222475 C 866.47439,-86.872485 868.10757,-79.915195 869.71593,-71.761835 C 871.32429,-63.608485 873.06056,-56.517205 873.57431,-56.003455 C 874.12801,-55.449755 879.91301,-55.342895 887.77997,-55.741055 C 903.04966,-56.513875 902.87656,-56.385895 902.88765,-66.911215 C 902.89095,-70.037915 903.18655,-76.359185 903.54454,-80.958495 L 904.19543,-89.320865 L 908.28854,-88.803465 C 910.53976,-88.518905 916.88166,-87.739475 922.38166,-87.071405 C 927.88167,-86.403345 933.00746,-85.352975 933.77231,-84.737265 C 934.87987,-83.845675 935.04376,-81.247295 934.57744,-71.972685 C 934.15998,-63.669875 934.33487,-59.890525 935.1868,-58.804805 C 936.00432,-57.762935 940.43194,-56.774955 949.20668,-55.676405 C 956.26044,-54.793325 962.391,-54.292855 962.83014,-54.564255 C 963.52523,-54.993855 966.33042,-64.638755 969.90742,-78.897615 C 970.50092,-81.263445 971.62879,-83.445585 972.4138,-83.746825 C 974.24861,-84.450905 999.03867,-78.460165 999.87236,-77.111215 C 1000.2189,-76.550475 999.45546,-70.385015 998.17578,-63.410195 C 996.58558,-54.742835 996.17383,-50.403975 996.87496,-49.702845 C 998.3684,-48.209405 1021.2006,-39.302295 1022.3817,-39.752345 C 1022.9317,-39.961915 1026.5273,-46.425005 1030.3718,-54.114755 C 1034.2164,-61.804505 1037.8731,-68.096115 1038.498,-68.096115 C 1039.1228,-68.096115 1045.2023,-66.123815 1052.0079,-63.713225 C 1059.9241,-60.909265 1064.494,-58.769325 1064.6935,-57.773045 C 1064.865,-56.916535 1063.1397,-50.280185 1060.8596,-43.025605 C 1057.4145,-32.064715 1056.9392,-29.617125 1058.0478,-28.543615 C 1059.8991,-26.750665 1082.1534,-14.109685 1083.3817,-14.153285 C 1083.9317,-14.172805 1088.8817,-19.298015 1094.3817,-25.542645 C 1099.8817,-31.787265 1104.9711,-37.162595 1105.6914,-37.487815 C 1107.1892,-38.164085 1125.7167,-23.290195 1125.817,-21.330955 C 1125.8526,-20.635125 1123.2368,-16.737435 1120.0041,-12.669405 C 1103.3556,8.2810049 1090.2308,33.744675 1086.9594,51.441675 L 1085.6532,58.328675 C 1081.7681,56.547084 1078.2881,54.297247 1074.4907,52.360204 C 1061.25,45.926613 1033.8176,40.593979 991.38169,36.180045 C 965.91786,33.531445 867.73289,33.580065 843.88164,36.253075 C 807.4596,40.334885 783.80832,44.420625 770.77705,48.881805 C 763.50956,50.95339 756.99944,54.878774 750.62492,58.714335 L 747.87099,48.403915 z " id="path5572" sodipodi:nodetypes="csssssssssssssssssssscccssssssssssssssssssssssscccssscc"/>
    </g>
    <g id="g6778">
      <g id="g5536" transform="translate(305.53, -249.255)">
        <g id="g5506">
          <g id="g5502">
            <rect transform="matrix(0.707107, 0.707107, -0.707107, 0.707107, 0, 0)" y="-107.25324" x="554.66327" height="295.95715" width="295.95715" id="rect5242" style="opacity: 1; fill: rgb(165, 149, 134); fill-opacity: 1; stroke: none; stroke-width: 2; stroke-linejoin: round; stroke-miterlimit: 4; stroke-dasharray: none; stroke-opacity: 1;"/>
            <rect transform="matrix(0.707107, 0.707107, -0.707107, 0.707107, 0, 0)" style="opacity: 1; fill: rgb(250, 166, 142); fill-opacity: 1; stroke: none; stroke-width: 2; stroke-linejoin: round; stroke-miterlimit: 4; stroke-dasharray: none; stroke-opacity: 1;" id="rect5244" width="248.604" height="248.604" x="578.33984" y="-83.57666"/>
          </g>
          <g id="g5368">
            <g id="g5360">
              <rect y="31.917133" x="-629.99939" height="51.65947" width="51.65947" id="rect5254" style="fill: rgb(245, 218, 14); fill-opacity: 1; stroke: none; stroke-width: 2; stroke-linejoin: round; stroke-miterlimit: 4; stroke-dasharray: none; stroke-opacity: 1;" transform="matrix(-0.707107, -0.707107, 0.707107, -0.707107, 0, 0)"/>
              <path style="fill: rgb(219, 0, 13); fill-opacity: 1;" d="M 464,353.875 L 455.875,362 L 455.875,392.09375 L 455.875,410.75 L 464,418.875 L 464,392.09375 L 464,353.875 z M 472.09375,353.90625 L 472.09375,392.09375 L 472.09375,418.84375 L 480.21875,410.71875 L 480.21875,392.09375 L 480.21875,362.03125 L 472.09375,353.90625 z M 447.75,370.15625 L 439.625,378.28125 L 439.625,392.09375 L 439.625,394.46875 L 447.75,402.59375 L 447.75,392.09375 L 447.75,370.15625 z M 488.34375,370.15625 L 488.34375,392.09375 L 488.34375,402.59375 L 496.46875,394.46875 L 496.46875,392.09375 L 496.46875,378.28125 L 488.34375,370.15625 z " id="path2499"/>
            </g>
            <g id="g5364">
              <rect y="31.917133" x="-728.47162" height="51.65947" width="51.65947" id="rect5266" style="fill: rgb(245, 218, 14); fill-opacity: 1; stroke: none; stroke-width: 2; stroke-linejoin: round; stroke-miterlimit: 4; stroke-dasharray: none; stroke-opacity: 1;" transform="matrix(-0.707107, -0.707107, 0.707107, -0.707107, 0, 0)"/>
              <path style="fill: rgb(219, 0, 13); fill-opacity: 1;" d="M 533.62933,423.50978 L 525.50433,431.63478 L 525.50433,461.72853 L 525.50433,480.38478 L 533.62933,488.50978 L 533.62933,461.72853 L 533.62933,423.50978 z M 541.72308,423.54103 L 541.72308,461.72853 L 541.72308,488.47853 L 549.84808,480.35353 L 549.84808,461.72853 L 549.84808,431.66603 L 541.72308,423.54103 z M 517.37933,439.79103 L 509.25433,447.91603 L 509.25433,461.72853 L 509.25433,464.10353 L 517.37933,472.22853 L 517.37933,461.72853 L 517.37933,439.79103 z M 557.97308,439.79103 L 557.97308,461.72853 L 557.97308,472.22853 L 566.09808,464.10353 L 566.09808,461.72853 L 566.09808,447.91603 L 557.97308,439.79103 z " id="path5322"/>
            </g>
            <g id="g5336">
              <rect transform="matrix(-0.707107, -0.707107, 0.707107, -0.707107, 0, 0)" style="fill: rgb(245, 218, 14); fill-opacity: 1; stroke: none; stroke-width: 2; stroke-linejoin: round; stroke-miterlimit: 4; stroke-dasharray: none; stroke-opacity: 1;" id="rect5268" width="51.659485" height="51.659485" x="-826.94415" y="31.917143"/>
              <path style="fill: rgb(219, 0, 13); fill-opacity: 1;" d="M 603.25977,493.14023 L 595.13477,501.26523 L 595.13477,531.35898 L 595.13477,550.01523 L 603.25977,558.14023 L 603.25977,531.35898 L 603.25977,493.14023 z M 611.35352,493.17148 L 611.35352,531.35898 L 611.35352,558.10898 L 619.47852,549.98398 L 619.47852,531.35898 L 619.47852,501.29648 L 611.35352,493.17148 z M 587.00977,509.42148 L 578.88477,517.54648 L 578.88477,531.35898 L 578.88477,533.73398 L 587.00977,541.85898 L 587.00977,531.35898 L 587.00977,509.42148 z M 627.60352,509.42148 L 627.60352,531.35898 L 627.60352,541.85898 L 635.72852,533.73398 L 635.72852,531.35898 L 635.72852,517.54648 L 627.60352,509.42148 z " id="path5324"/>
            </g>
            <g id="g5340">
              <rect transform="matrix(-0.707107, -0.707107, 0.707107, -0.707107, 0, 0)" style="fill: rgb(245, 218, 14); fill-opacity: 1; stroke: none; stroke-width: 2; stroke-linejoin: round; stroke-miterlimit: 4; stroke-dasharray: none; stroke-opacity: 1;" id="rect5256" width="51.65947" height="51.65947" x="-826.94391" y="-66.555138"/>
              <path style="fill: rgb(219, 0, 13); fill-opacity: 1;" d="M 533.62918,562.77047 L 525.50418,570.89547 L 525.50418,600.98922 L 525.50418,619.64547 L 533.62918,627.77047 L 533.62918,600.98922 L 533.62918,562.77047 z M 541.72293,562.80172 L 541.72293,600.98922 L 541.72293,627.73922 L 549.84793,619.61422 L 549.84793,600.98922 L 549.84793,570.92672 L 541.72293,562.80172 z M 517.37918,579.05172 L 509.25418,587.17672 L 509.25418,600.98922 L 509.25418,603.36422 L 517.37918,611.48922 L 517.37918,600.98922 L 517.37918,579.05172 z M 557.97293,579.05172 L 557.97293,600.98922 L 557.97293,611.48922 L 566.09793,603.36422 L 566.09793,600.98922 L 566.09793,587.17672 L 557.97293,579.05172 z " id="path5326"/>
            </g>
            <g id="g5344">
              <rect transform="matrix(-0.707107, -0.707107, 0.707107, -0.707107, 0, 0)" style="fill: rgb(245, 218, 14); fill-opacity: 1; stroke: none; stroke-width: 2; stroke-linejoin: round; stroke-miterlimit: 4; stroke-dasharray: none; stroke-opacity: 1;" id="rect5260" width="51.65947" height="51.65947" x="-826.94391" y="-165.02739"/>
              <path style="fill: rgb(219, 0, 13); fill-opacity: 1;" d="M 463.99878,632.40087 L 455.87378,640.52587 L 455.87378,670.61962 L 455.87378,689.27587 L 463.99878,697.40087 L 463.99878,670.61962 L 463.99878,632.40087 z M 472.09253,632.43212 L 472.09253,670.61962 L 472.09253,697.36962 L 480.21753,689.24462 L 480.21753,670.61962 L 480.21753,640.55712 L 472.09253,632.43212 z M 447.74878,648.68212 L 439.62378,656.80712 L 439.62378,670.61962 L 439.62378,672.99462 L 447.74878,681.11962 L 447.74878,670.61962 L 447.74878,648.68212 z M 488.34253,648.68212 L 488.34253,670.61962 L 488.34253,681.11962 L 496.46753,672.99462 L 496.46753,670.61962 L 496.46753,656.80712 L 488.34253,648.68212 z " id="path5328"/>
            </g>
            <g id="g5348">
              <rect y="-165.02739" x="-728.47162" height="51.65947" width="51.65947" id="rect5258" style="fill: rgb(245, 218, 14); fill-opacity: 1; stroke: none; stroke-width: 2; stroke-linejoin: round; stroke-miterlimit: 4; stroke-dasharray: none; stroke-opacity: 1;" transform="matrix(-0.707107, -0.707107, 0.707107, -0.707107, 0, 0)"/>
              <path style="fill: rgb(219, 0, 13); fill-opacity: 1;" d="M 394.36836,562.77045 L 386.24336,570.89545 L 386.24336,600.9892 L 386.24336,619.64545 L 394.36836,627.77045 L 394.36836,600.9892 L 394.36836,562.77045 z M 402.46211,562.8017 L 402.46211,600.9892 L 402.46211,627.7392 L 410.58711,619.6142 L 410.58711,600.9892 L 410.58711,570.9267 L 402.46211,562.8017 z M 378.11836,579.0517 L 369.99336,587.1767 L 369.99336,600.9892 L 369.99336,603.3642 L 378.11836,611.4892 L 378.11836,600.9892 L 378.11836,579.0517 z M 418.71211,579.0517 L 418.71211,600.9892 L 418.71211,611.4892 L 426.83711,603.3642 L 426.83711,600.9892 L 426.83711,587.1767 L 418.71211,579.0517 z " id="path5330"/>
            </g>
            <g id="g5352">
              <rect y="-165.02739" x="-629.99939" height="51.65947" width="51.65947" id="rect5262" style="fill: rgb(245, 218, 14); fill-opacity: 1; stroke: none; stroke-width: 2; stroke-linejoin: round; stroke-miterlimit: 4; stroke-dasharray: none; stroke-opacity: 1;" transform="matrix(-0.707107, -0.707107, 0.707107, -0.707107, 0, 0)"/>
              <path style="fill: rgb(219, 0, 13); fill-opacity: 1;" d="M 324.73798,493.14007 L 316.61298,501.26507 L 316.61298,531.35882 L 316.61298,550.01507 L 324.73798,558.14007 L 324.73798,531.35882 L 324.73798,493.14007 z M 332.83173,493.17132 L 332.83173,531.35882 L 332.83173,558.10882 L 340.95673,549.98382 L 340.95673,531.35882 L 340.95673,501.29632 L 332.83173,493.17132 z M 308.48798,509.42132 L 300.36298,517.54632 L 300.36298,531.35882 L 300.36298,533.73382 L 308.48798,541.85882 L 308.48798,531.35882 L 308.48798,509.42132 z M 349.08173,509.42132 L 349.08173,531.35882 L 349.08173,541.85882 L 357.20673,533.73382 L 357.20673,531.35882 L 357.20673,517.54632 L 349.08173,509.42132 z " id="path5332"/>
            </g>
            <g id="g5356">
              <rect transform="matrix(-0.707107, -0.707107, 0.707107, -0.707107, 0, 0)" style="fill: rgb(245, 218, 14); fill-opacity: 1; stroke: none; stroke-width: 2; stroke-linejoin: round; stroke-miterlimit: 4; stroke-dasharray: none; stroke-opacity: 1;" id="rect5264" width="51.65947" height="51.65947" x="-629.99939" y="-66.555138"/>
              <path style="fill: rgb(219, 0, 13); fill-opacity: 1;" d="M 394.3685,423.50967 L 386.2435,431.63467 L 386.2435,461.72842 L 386.2435,480.38467 L 394.3685,488.50967 L 394.3685,461.72842 L 394.3685,423.50967 z M 402.46225,423.54092 L 402.46225,461.72842 L 402.46225,488.47842 L 410.58725,480.35342 L 410.58725,461.72842 L 410.58725,431.66592 L 402.46225,423.54092 z M 378.1185,439.79092 L 369.9935,447.91592 L 369.9935,461.72842 L 369.9935,464.10342 L 378.1185,472.22842 L 378.1185,461.72842 L 378.1185,439.79092 z M 418.71225,439.79092 L 418.71225,461.72842 L 418.71225,472.22842 L 426.83725,464.10342 L 426.83725,461.72842 L 426.83725,447.91592 L 418.71225,439.79092 z " id="path5334"/>
            </g>
          </g>
        </g>
        <rect transform="matrix(0.707107, 0.707107, -0.707107, 0.707107, 0, 0)" y="-31.918261" x="629.99817" height="145.28729" width="145.28729" id="rect5246" style="opacity: 1; fill: rgb(165, 149, 134); fill-opacity: 1; stroke: none; stroke-width: 2; stroke-linejoin: round; stroke-miterlimit: 4; stroke-dasharray: none; stroke-opacity: 1;"/>
      </g>
      <g id="g5216" transform="translate(563.154, 499.863)">
        <path id="path5118" d="M 150.14106,-274.27818 L 185.0504,-305.48034 L 200.80594,-303.31781 L 202.04167,-325.252 L 228.91878,-332.04851 L 261.04773,-313.20364 L 260.42986,-290.96052 L 275.25861,-286.63547 L 267.22637,-252.03506 L 272.47822,-251.4172 L 292.55881,-220.52398 L 225.21159,-170.78589 L 219.03294,-136.49441 L 200.18808,-104.98333 L 187.21293,-105.91012 L 172.69311,-142.67306 L 192.46477,-184.37891 L 180.41642,-195.50047 L 183.81467,-207.54882 L 166.51447,-219.59718 L 150.14106,-274.27818 z " style="opacity: 1; fill: white; fill-opacity: 1; fill-rule: evenodd; stroke: none; stroke-width: 1px; stroke-linecap: butt; stroke-linejoin: miter; stroke-opacity: 1;"/>
        <g id="g5192">
          <g id="g5134">
            <path id="path4187" d="M 220.73207,-277.98537 C 220.73207,-277.98537 221.65887,-261.14856 234.17062,-262.53876 C 234.17062,-262.53876 237.56888,-263.62002 237.41441,-275.66838 C 237.41441,-275.66838 247.76364,-279.6845 248.69044,-289.57033 C 248.69044,-289.57033 245.13772,-294.51324 230.00004,-292.81412 C 230.00004,-292.81412 226.29285,-300.53742 216.56149,-298.52936 C 216.56149,-298.52936 210.53731,-283.85508 220.73207,-277.98537 z " style="opacity: 1; fill: rgb(6, 176, 142); fill-opacity: 1; fill-rule: evenodd; stroke: black; stroke-width: 3; stroke-linecap: butt; stroke-linejoin: miter; stroke-opacity: 1;"/>
            <path id="path4189" d="M 184.1236,-274.27818 C 184.1236,-274.27818 183.81467,-283.70062 187.36739,-287.8712 C 187.36739,-287.8712 200.65148,-288.95246 201.42381,-272.42459 C 201.42381,-272.42459 211.30964,-263.92895 204.97653,-250.9538 C 204.97653,-250.9538 200.80594,-247.09215 191.22904,-256.82351 C 191.22904,-256.82351 180.57088,-253.73419 173.00204,-260.9941 C 173.00204,-260.9941 176.09137,-271.18886 184.1236,-274.27818 z " style="opacity: 1; fill: rgb(6, 176, 142); fill-opacity: 1; fill-rule: evenodd; stroke: black; stroke-width: 3; stroke-linecap: butt; stroke-linejoin: miter; stroke-opacity: 1;"/>
            <path sodipodi:nodetypes="cccccc" d="M 215.78916,-282.00149 C 215.78916,-282.00149 218.56955,-270.72546 218.87848,-255.12439 M 218.87848,-254.96992 L 213.00876,-252.65293 C 209.91945,-267.48167 202.89124,-274.27819 202.89124,-274.27819 L 215.94362,-281.84702" style="opacity: 1; fill: rgb(6, 176, 142); fill-opacity: 1; fill-rule: evenodd; stroke: black; stroke-width: 3; stroke-linecap: butt; stroke-linejoin: round; stroke-opacity: 1;" id="path4193"/>
            <path transform="matrix(0.452739, 0.881138, -0.789524, 0.505274, -105.221, -324.563)" d="M 216.40702 -277.1358 A 5.3290806 8.1094704 0 1 1  205.74886,-277.1358 A 5.3290806 8.1094704 0 1 1  216.40702 -277.1358 z" sodipodi:ry="8.1094704" sodipodi:rx="5.3290806" sodipodi:cy="-277.1358" sodipodi:cx="211.07794" id="path4191" style="opacity: 1; fill: rgb(6, 176, 142); fill-opacity: 1; stroke: black; stroke-width: 3.1202; stroke-miterlimit: 4; stroke-dasharray: none; stroke-opacity: 1;" sodipodi:type="arc"/>
            <path id="path5085" d="M 187.98526,-266.86381 C 191.53798,-268.7174 195.0907,-268.87187 195.0907,-268.87187 C 195.0907,-268.87187 196.32643,-272.27012 194.78177,-276.59518" style="opacity: 1; fill: none; fill-opacity: 0.75; fill-rule: evenodd; stroke: black; stroke-width: 2; stroke-linecap: butt; stroke-linejoin: miter; stroke-opacity: 1;"/>
            <path id="path5087" d="M 195.0907,-269.02634 C 195.0907,-269.02634 197.56216,-267.01828 199.72468,-263.31109" style="opacity: 1; fill: none; fill-opacity: 0.75; fill-rule: evenodd; stroke: black; stroke-width: 2; stroke-linecap: butt; stroke-linejoin: miter; stroke-opacity: 1;"/>
            <path id="path5089" d="M 222.12227,-286.63547 C 222.12227,-286.63547 222.8946,-284.93635 226.91072,-281.22916 C 226.91072,-281.22916 230.46344,-281.22916 234.17062,-283.08275" style="opacity: 1; fill: none; fill-opacity: 0.75; fill-rule: evenodd; stroke: black; stroke-width: 2; stroke-linecap: butt; stroke-linejoin: miter; stroke-opacity: 1;"/>
            <path id="path5091" d="M 226.91072,-281.22916 C 226.91072,-281.22916 225.98392,-277.67644 226.75625,-273.35139" style="opacity: 1; fill: none; fill-opacity: 0.75; fill-rule: evenodd; stroke: black; stroke-width: 2; stroke-linecap: butt; stroke-linejoin: miter; stroke-opacity: 1;"/>
          </g>
          <g id="g5120">
            <path transform="matrix(0.963056, 0, 0, 0.963056, 7.91194, -8.41969)" d="M 201.11488 -242.5354 A 14.133649 14.133649 0 1 1  172.84758,-242.5354 A 14.133649 14.133649 0 1 1  201.11488 -242.5354 z" sodipodi:ry="14.133649" sodipodi:rx="14.133649" sodipodi:cy="-242.5354" sodipodi:cx="186.98123" id="path5093" style="opacity: 1; fill: rgb(248, 212, 24); fill-opacity: 1; stroke: black; stroke-width: 3.11508; stroke-linejoin: round; stroke-miterlimit: 4; stroke-dasharray: none; stroke-opacity: 1;" sodipodi:type="arc"/>
            <path sodipodi:nodetypes="cc" id="path5095" d="M 179.5349,-246.39868 C 181.98247,-251.01911 187.60459,-252.88009 192.32556,-250.63254" style="opacity: 1; fill: none; fill-opacity: 1; stroke: black; stroke-width: 2; stroke-linejoin: round; stroke-miterlimit: 4; stroke-opacity: 1;"/>
            <path transform="matrix(0.963056, 0, 0, 0.963056, 34.789, -9.80979)" d="M 201.11488 -242.5354 A 14.133649 14.133649 0 1 1  172.84758,-242.5354 A 14.133649 14.133649 0 1 1  201.11488 -242.5354 z" sodipodi:ry="14.133649" sodipodi:rx="14.133649" sodipodi:cy="-242.5354" sodipodi:cx="186.98123" id="path5098" style="opacity: 1; fill: rgb(248, 212, 24); fill-opacity: 1; stroke: black; stroke-width: 3.11508; stroke-linejoin: round; stroke-miterlimit: 4; stroke-dasharray: none; stroke-opacity: 1;" sodipodi:type="arc"/>
            <path sodipodi:nodetypes="cc" id="path5100" d="M 206.41192,-247.78878 C 208.85949,-252.40921 214.48161,-254.27019 219.20258,-252.02264" style="opacity: 1; fill: none; fill-opacity: 1; stroke: black; stroke-width: 2; stroke-linejoin: round; stroke-miterlimit: 4; stroke-opacity: 1;"/>
            <path transform="matrix(0.963056, 0, 0, 0.963056, 61.8205, -13.0536)" d="M 201.11488 -242.5354 A 14.133649 14.133649 0 1 1  172.84758,-242.5354 A 14.133649 14.133649 0 1 1  201.11488 -242.5354 z" sodipodi:ry="14.133649" sodipodi:rx="14.133649" sodipodi:cy="-242.5354" sodipodi:cx="186.98123" id="path5102" style="opacity: 1; fill: rgb(248, 212, 24); fill-opacity: 1; stroke: black; stroke-width: 3.11508; stroke-linejoin: round; stroke-miterlimit: 4; stroke-dasharray: none; stroke-opacity: 1;" sodipodi:type="arc"/>
            <path sodipodi:nodetypes="cc" id="path5104" d="M 233.4435,-251.03256 C 235.89107,-255.65299 241.51319,-257.51397 246.23416,-255.26642" style="opacity: 1; fill: none; fill-opacity: 1; stroke: black; stroke-width: 2; stroke-linejoin: round; stroke-miterlimit: 4; stroke-opacity: 1;"/>
            <path transform="matrix(0.963056, 0, 0, 0.963056, 50.0811, 11.9699)" d="M 201.11488 -242.5354 A 14.133649 14.133649 0 1 1  172.84758,-242.5354 A 14.133649 14.133649 0 1 1  201.11488 -242.5354 z" sodipodi:ry="14.133649" sodipodi:rx="14.133649" sodipodi:cy="-242.5354" sodipodi:cx="186.98123" id="path5106" style="opacity: 1; fill: rgb(248, 212, 24); fill-opacity: 1; stroke: black; stroke-width: 3.11508; stroke-linejoin: round; stroke-miterlimit: 4; stroke-dasharray: none; stroke-opacity: 1;" sodipodi:type="arc"/>
            <path sodipodi:nodetypes="cc" id="path5108" d="M 221.70406,-226.00905 C 224.15163,-230.62948 229.77375,-232.49046 234.49472,-230.24291" style="opacity: 1; fill: none; fill-opacity: 1; stroke: black; stroke-width: 2; stroke-linejoin: round; stroke-miterlimit: 4; stroke-opacity: 1;"/>
            <path transform="matrix(0.963056, 0, 0, 0.963056, 22.4317, 14.5958)" d="M 201.11488 -242.5354 A 14.133649 14.133649 0 1 1  172.84758,-242.5354 A 14.133649 14.133649 0 1 1  201.11488 -242.5354 z" sodipodi:ry="14.133649" sodipodi:rx="14.133649" sodipodi:cy="-242.5354" sodipodi:cx="186.98123" id="path5110" style="opacity: 1; fill: rgb(248, 212, 24); fill-opacity: 1; stroke: black; stroke-width: 3.11508; stroke-linejoin: round; stroke-miterlimit: 4; stroke-dasharray: none; stroke-opacity: 1;" sodipodi:type="arc"/>
            <path sodipodi:nodetypes="cc" id="path5112" d="M 194.05463,-223.38313 C 196.5022,-228.00356 202.12432,-229.86454 206.84529,-227.61699" style="opacity: 1; fill: none; fill-opacity: 1; stroke: black; stroke-width: 2; stroke-linejoin: round; stroke-miterlimit: 4; stroke-opacity: 1;"/>
            <path transform="matrix(0.963056, 0, 0, 0.963056, 38.1872, 36.6845)" d="M 201.11488 -242.5354 A 14.133649 14.133649 0 1 1  172.84758,-242.5354 A 14.133649 14.133649 0 1 1  201.11488 -242.5354 z" sodipodi:ry="14.133649" sodipodi:rx="14.133649" sodipodi:cy="-242.5354" sodipodi:cx="186.98123" id="path5114" style="opacity: 1; fill: rgb(248, 212, 24); fill-opacity: 1; stroke: black; stroke-width: 3.11508; stroke-linejoin: round; stroke-miterlimit: 4; stroke-dasharray: none; stroke-opacity: 1;" sodipodi:type="arc"/>
            <path sodipodi:nodetypes="cc" id="path5116" d="M 209.81018,-201.29447 C 212.25775,-205.9149 217.87987,-207.77588 222.60084,-205.52833" style="opacity: 1; fill: none; fill-opacity: 1; stroke: black; stroke-width: 2; stroke-linejoin: round; stroke-miterlimit: 4; stroke-opacity: 1;"/>
          </g>
        </g>
      </g>
    </g>
  </g>
</svg>